<?xml version="1.0" encoding="UTF-8"?>
<svg id="Layer_2" data-name="Layer 2" xmlns="http://www.w3.org/2000/svg" xmlns:xlink="http://www.w3.org/1999/xlink" viewBox="0 0 599.86 362.71">
  <defs>
    <style>
      .cls-1 {
        fill: #00549a;
      }

      .cls-2 {
        isolation: isolate;
      }

      .cls-3 {
        fill: url(#linear-gradient-9);
        stroke: url(#linear-gradient-10);
      }

      .cls-3, .cls-4, .cls-5, .cls-6, .cls-7, .cls-8, .cls-9, .cls-10, .cls-11, .cls-12 {
        stroke-miterlimit: 10;
      }

      .cls-4 {
        fill: url(#linear-gradient-19);
        stroke: url(#linear-gradient-20);
      }

      .cls-5 {
        fill: url(#linear-gradient-3);
        stroke: url(#linear-gradient-4);
      }

      .cls-6 {
        fill: url(#linear-gradient-7);
        stroke: url(#linear-gradient-8);
      }

      .cls-7 {
        fill: url(#linear-gradient-11);
        stroke: url(#linear-gradient-12);
      }

      .cls-8 {
        fill: url(#linear-gradient-15);
        stroke: url(#linear-gradient-16);
      }

      .cls-9 {
        fill: url(#linear-gradient);
        stroke: url(#linear-gradient-2);
      }

      .cls-10 {
        fill: url(#linear-gradient-13);
        stroke: url(#linear-gradient-14);
      }

      .cls-11 {
        fill: url(#linear-gradient-5);
        stroke: url(#linear-gradient-6);
      }

      .cls-12 {
        fill: url(#linear-gradient-17);
        stroke: url(#linear-gradient-18);
      }
    </style>
    <linearGradient id="linear-gradient" x1="256.74" y1="929.54" x2="256.74" y2="1132.41" gradientTransform="translate(0 1174.6) scale(1 -1)" gradientUnits="userSpaceOnUse">
      <stop offset="0" stop-color="#0e93d4"/>
      <stop offset="1" stop-color="#003b7d"/>
    </linearGradient>
    <linearGradient id="linear-gradient-2" x1="143.42" y1="1030.91" x2="370.06" y2="1030.91" xlink:href="#linear-gradient"/>
    <linearGradient id="linear-gradient-3" x1="328.08" y1="1016.16" x2="531.13" y2="1016.16" xlink:href="#linear-gradient"/>
    <linearGradient id="linear-gradient-4" x1="531.63" y1="1016.33" x2="327.29" y2="1016.33" xlink:href="#linear-gradient"/>
    <linearGradient id="linear-gradient-5" x1="396.41" y1="1026.73" x2="599.36" y2="1026.73" xlink:href="#linear-gradient"/>
    <linearGradient id="linear-gradient-6" x1="599.86" y1="1026.9" x2="395.62" y2="1026.9" xlink:href="#linear-gradient"/>
    <linearGradient id="linear-gradient-7" x1="256.71" y1="897.37" x2="256.71" y2="1055.56" xlink:href="#linear-gradient"/>
    <linearGradient id="linear-gradient-8" x1="166.85" y1="976.47" x2="346.58" y2="976.47" xlink:href="#linear-gradient"/>
    <linearGradient id="linear-gradient-9" x1="132.19" y1="937.19" x2=".87" y2="937.19" xlink:href="#linear-gradient"/>
    <linearGradient id="linear-gradient-10" x1="0" y1="937.19" x2="133.01" y2="937.19" xlink:href="#linear-gradient"/>
    <linearGradient id="linear-gradient-11" x1="184.49" y1="937.02" x2="55.85" y2="937.02" xlink:href="#linear-gradient"/>
    <linearGradient id="linear-gradient-12" x1="55.02" y1="937.02" x2="185.24" y2="937.02" xlink:href="#linear-gradient"/>
    <linearGradient id="linear-gradient-13" x1="223.29" y1="928.66" x2="277.45" y2="928.66" xlink:href="#linear-gradient"/>
    <linearGradient id="linear-gradient-14" x1="222.79" y1="928.66" x2="277.95" y2="928.66" xlink:href="#linear-gradient"/>
    <linearGradient id="linear-gradient-15" x1="233.9" y1="908.09" x2="288.2" y2="908.09" xlink:href="#linear-gradient"/>
    <linearGradient id="linear-gradient-16" x1="232.53" y1="908.02" x2="288.75" y2="908.02" xlink:href="#linear-gradient"/>
    <linearGradient id="linear-gradient-17" x1="225.62" y1="907.77" x2="258.92" y2="907.77" xlink:href="#linear-gradient"/>
    <linearGradient id="linear-gradient-18" x1="225.11" y1="907.77" x2="259.44" y2="907.77" xlink:href="#linear-gradient"/>
    <linearGradient id="linear-gradient-19" x1="274" y1="934.62" x2="285.57" y2="934.62" xlink:href="#linear-gradient"/>
    <linearGradient id="linear-gradient-20" x1="273.4" y1="934.91" x2="286.07" y2="934.91" xlink:href="#linear-gradient"/>
  </defs>
  <g id="Layer_1-2" data-name="Layer 1">
    <g>
      <path class="cls-9" d="M157.54,245.06c-13.43-13.25-17-28.1-10.38-45.39,2.47-6.29,5.62-12.3,9.42-17.89,27.79-41.89,55.6-83.78,83.42-125.66,2.02-3.22,4.3-6.28,6.8-9.14,5.46-5.92,11.77-6.37,17.95-1.28,2.88,2.46,5.39,5.34,7.44,8.53,29.23,44,58.51,87.92,87.42,132.1,13.44,20.53,13.11,39.28,0,55.12-1.13,1.19-2.36,2.29-3.67,3.28-5.3-1.74-6.69-6.61-9.17-10.32-25.57-38.29-51.06-76.62-76.47-115-3.5-5.26-6.66-10.93-13.7-12.13-6.91,.86-9.69,6.35-12.93,11.23-25.72,38.67-51.44,77.36-77.15,116.08-2.3,3.41-3.85,7.55-8.98,10.47Z"/>
      <path class="cls-5" d="M478.78,54.52c.57-4.31-4.47-6.25-3.22-10.32l49.86-32.8c1.85,9.77,3.09,19.64,4,29.54,.43,4.85,.76,9.7,1,14.56,.14,2.41,1.81,9.18-.51,10.89-3.15,2.33-7.27-1-10.54,.78-2.17,1.18-3.54,4.39-5.31,7.22-30.46,48.79-58.31,99.09-86.88,149-11.77,20.55-23.46,41.16-38.81,59.36s-34.1,26.61-60.29,21l67.26-111,66.48-109.75,10.57-17.44c2.05-3.38,5.22-6.44,6.25-10.36,.06-.22,.1-.45,.14-.68Z"/>
      <path class="cls-11" d="M547.26,44c.35-2-.16-3.26-1.41-5-.59-.82-3.81-4.11-2-5.33L593.75,.83c3,16.09,4.2,32.35,5.23,48.67,.14,2.13,1.08,5-.65,6.33-3,2.29-7.31-1-10.63,.77-2.17,1.18-3.54,4.39-5.31,7.22-30.46,48.79-58.31,99.09-86.88,149-11.77,20.55-23.46,41.16-38.8,59.36s-34.11,26.61-60.3,21c22.39-37.01,44.81-74.01,67.24-110.99l66.46-109.66,9.58-15.81c2.38-3.92,6.2-7.46,7.4-12,.07-.27,.12-.52,.17-.72Z"/>
      <path class="cls-6" d="M330.24,275.29c-23.75-33.7-44.53-68.57-70.1-103.68-1.49-2.04-4.35-2.48-6.39-.99-.38,.28-.72,.61-.99,.99-25.52,35.39-46.57,70.19-69.76,103.33-1.47,2.06-4.34,2.54-6.4,1.07-.19-.13-.36-.28-.53-.44-8.7-8.25-10.84-18.85-6.63-31.4,2.45-7.28,6.7-13.64,10.91-20l62.5-94c3.18-4.78,6-10,12.53-11.07,.38-.06,.76-.08,1.14-.06,5.3,.35,8.61,4,11.37,8.12,23.68,35.53,47.71,70.84,70.73,106.84,10.43,16.3,9.83,28.66-1.24,41.69-1.66,1.88-4.54,2.07-6.42,.4-.27-.24-.51-.51-.72-.8Z"/>
      <path class="cls-3" d="M132.19,303.88c-24.73,4.3-45,2.73-59.53-17.23C46.06,250.05,26.66,209.13,.87,169.95c14.09-1.51,28.38-.84,42.57-.79,1.27-.08,2.54,.09,3.74,.49,2.59,1.07,4.53,6.24,6,8.53l6.82,10.82,13.65,21.71,27.5,43.74,31.04,49.43Z"/>
      <path class="cls-7" d="M184.49,302.7c-24.66,8.78-47.15,.66-60.26-18.43-15.59-22.69-28.23-47.13-42.38-70.65-8.45-14-16.76-28.15-26-43.64,16.09-1.94,30.63-.6,46.05-.79l82.59,133.51Z"/>
      <g class="cls-2">
        <path class="cls-1" d="M108.83,362.09l-9.01-37.95h9.18l2.87,15.6c.84,4.56,1.63,9.46,2.25,13.29h.11c.62-4.11,1.52-8.67,2.48-13.4l3.21-15.48h9.12l3.04,15.99c.84,4.45,1.46,8.5,2.03,12.72h.11c.56-4.22,1.41-8.67,2.2-13.23l3.1-15.48h8.73l-9.8,37.95h-9.29l-3.21-16.33c-.73-3.83-1.35-7.38-1.8-11.71h-.11c-.68,4.28-1.29,7.88-2.2,11.71l-3.6,16.33h-9.4Z"/>
      </g>
      <path class="cls-1" d="M156.63,351.05c.23,3.55,3.77,5.24,7.77,5.24,2.93,0,5.29-.39,7.6-1.18l1.13,5.8c-2.81,1.18-6.25,1.75-9.97,1.75-9.35,0-14.7-5.41-14.7-14.02,0-6.98,4.34-14.7,13.91-14.7,8.9,0,12.27,6.93,12.27,13.74,0,1.46-.17,2.76-.28,3.38h-17.74Zm10.08-5.86c0-2.08-.9-5.57-4.84-5.57-3.6,0-5.07,3.32-5.29,5.57h10.14Z"/>
      <path class="cls-1" d="M179.77,322.11h8.56v15.71h.11c1.63-2.36,4.5-3.88,8.33-3.88,6.59,0,11.37,5.46,11.32,13.91,0,9.91-6.25,14.86-12.56,14.86-3.21,0-6.36-1.18-8.28-4.45h-.11l-.34,3.83h-7.26c.11-1.8,.23-5.12,.23-8.22v-31.76Zm8.56,28.27c0,.56,.06,1.07,.17,1.52,.56,2.25,2.53,4.05,5.01,4.05,3.66,0,5.91-2.81,5.91-7.77,0-4.28-1.91-7.66-5.91-7.66-2.31,0-4.45,1.75-5.01,4.22-.11,.51-.17,1.01-.17,1.58v4.05Z"/>
      <path class="cls-1" d="M213.44,322.11h8.56v15.77h.11c.9-1.24,2.03-2.2,3.38-2.87,1.29-.68,2.87-1.07,4.45-1.07,5.46,0,9.63,3.77,9.63,12.11v16.05h-8.56v-15.15c0-3.6-1.24-6.08-4.45-6.08-2.25,0-3.66,1.46-4.28,3.04-.23,.51-.28,1.24-.28,1.86v16.33h-8.56v-39.98Z"/>
      <path class="cls-1" d="M272.38,353.25c0,3.6,.11,6.53,.23,8.84h-7.43l-.39-3.88h-.17c-1.07,1.69-3.66,4.5-8.61,4.5-5.63,0-9.68-3.49-9.68-11.99v-16.16h8.56v14.81c0,4,1.29,6.42,4.34,6.42,2.36,0,3.77-1.63,4.28-2.98,.23-.51,.34-1.13,.34-1.86v-16.38h8.56v18.69Z"/>
      <path class="cls-1" d="M279.25,322.11h8.56v15.71h.11c1.63-2.36,4.5-3.88,8.33-3.88,6.59,0,11.37,5.46,11.32,13.91,0,9.91-6.25,14.86-12.56,14.86-3.21,0-6.36-1.18-8.28-4.45h-.11l-.34,3.83h-7.26c.11-1.8,.23-5.12,.23-8.22v-31.76Zm8.56,28.27c0,.56,.06,1.07,.17,1.52,.56,2.25,2.53,4.05,5.01,4.05,3.66,0,5.91-2.81,5.91-7.77,0-4.28-1.91-7.66-5.91-7.66-2.31,0-4.45,1.75-5.01,4.22-.11,.51-.17,1.01-.17,1.58v4.05Z"/>
      <g class="cls-2">
        <path class="cls-1" d="M322.19,357.47l18.07-26.01v-.23h-16.44v-7.09h27.53v4.95l-17.68,25.68v.22h17.96v7.09h-29.45v-4.62Z"/>
      </g>
      <path class="cls-1" d="M383.45,348.01c0,10.08-7.15,14.7-14.53,14.7-8.05,0-14.25-5.29-14.25-14.19s5.86-14.64,14.75-14.64c8.39,0,14.02,5.8,14.02,14.13Zm-19.93,.28c0,4.73,1.97,8.28,5.63,8.28,3.38,0,5.46-3.32,5.46-8.33,0-4.05-1.58-8.22-5.46-8.22s-5.63,4.22-5.63,8.28Z"/>
      <path class="cls-1" d="M388.74,343.34c0-3.43-.11-6.31-.22-8.78h7.43l.39,3.83h.17c1.13-1.8,3.88-4.45,8.5-4.45,5.63,0,9.85,3.77,9.85,11.88v16.27h-8.56v-15.26c0-3.55-1.24-5.97-4.33-5.97-2.37,0-3.77,1.63-4.39,3.21-.22,.56-.28,1.35-.28,2.14v15.88h-8.56v-18.75Z"/>
      <path class="cls-1" d="M428.32,351.05c.22,3.55,3.77,5.24,7.77,5.24,2.93,0,5.29-.39,7.6-1.18l1.13,5.8c-2.82,1.18-6.25,1.75-9.97,1.75-9.35,0-14.7-5.41-14.7-14.02,0-6.98,4.34-14.7,13.91-14.7,8.9,0,12.27,6.93,12.27,13.74,0,1.46-.17,2.76-.28,3.38h-17.74Zm10.08-5.86c0-2.08-.9-5.57-4.84-5.57-3.6,0-5.07,3.32-5.29,5.57h10.13Z"/>
      <path class="cls-10" d="M255.65,222.85c.43,.07,.86,.09,1.29,.07,4.89,.11,9.69,1.38,14,3.7,1.2,.72,2.25,1.67,3.1,2.78,1.43,1.56,2.48,3.42,3.06,5.45,.27,.98,.35,2,.22,3-.01,.08-.04,.17-.06,.25-.29-.26-.56-.54-.8-.85-.09-.14-.27-.19-.41-.11-1.68,.67-3.39,1.26-5.13,1.78-.47,.14-.48,.21-.3,.67,1.05,2.59,1.87,5.27,2.45,8,.12,.35,.04,.73-.21,1-.75,.9-1.55,1.76-2.4,2.56-.17-1.4-.34-2.74-.61-4.07-.46-2.33-1.11-4.62-1.95-6.84-.19-.48-.25-.53-.75-.45-1.55,.22-3.09,.46-4.65,.6s-3.42,.28-5.14,.34q-.52,0-.52,.54v11c0,.52,0,1.05,.07,1.58,.04,.15-.03,.32-.18,.38-1.66,.91-3.39,1.7-5.1,2.52-.13,.05-.28,.07-.42,.06h-10.08c-.35,0-.4,.1-.38,.43,.09,1.46,.31,2.91,.5,4.36,.04,.18-.05,.36-.22,.43-.78,.38-1.55,.76-2.34,1.11-.24,.11-.32,0-.36-.2-.24-1.43-.45-2.87-.58-4.32-.05-.51-.11-1-.15-1.54,0-.22-.12-.27-.33-.27h-8.73c-.25,0-.34,.06-.32,.32,.1,1.85,.41,3.68,.9,5.46,.55,2.04,1.34,4.02,2.34,5.88,.08,.15,.27,.35,.15,.49s-.36,0-.51-.11c-1.62-.72-3.1-1.72-4.37-2.95-.83-.79-1.63-1.61-2.44-2.41-.11-.1-.18-.23-.2-.37-.43-1.76-.69-3.56-.8-5.37,0-.12,0-.23,0-.35v-3.25c0-.18,0-.35,0-.53,.05-2.02,.32-4.04,.81-6,3.35-13.41,14.77-23.27,28.53-24.62,.62,0,1.24-.04,1.86-.12l1.16-.03Zm-8.27,31.24h6.35c.24,0,.34,0,.34-.31v-12.74c0-.19,0-.28-.26-.3-1.28-.09-2.56-.19-3.84-.31-2-.19-4-.45-6-.82-.24-.09-.5,.04-.59,.28,0,.03-.02,.05-.02,.08-.27,.76-.56,1.51-.8,2.28-1.13,3.74-1.76,7.61-1.87,11.52,0,.3,.1,.32,.35,.32h6.34Zm-14.5,0h4.33c.28,0,.37-.09,.39-.36,.1-1.21,.22-2.41,.35-3.62,.22-2.13,.64-4.23,1.23-6.28,.47-1.58,1-3.14,1.59-4.67,0-.12,.17-.23-.1-.3-1.77-.43-3.5-1.04-5.15-1.81-.27-.12-.39,0-.54,.16-2.8,3.18-4.81,6.97-5.89,11.06-.49,1.76-.79,3.57-.87,5.39,0,.37,.11,.43,.44,.43,1.41-.01,2.81,0,4.22,0h0Zm21.18-20.92h0v-4.54c0-.77,0-.78-.79-.73-.88,0-1.74,.33-2.4,.91-2.32,2.23-4.28,4.8-5.82,7.62-.24,.44-.22,.47,.28,.56,2.8,.47,5.63,.81,8.47,1,.25,0,.3-.06,.3-.29-.04-1.5-.04-3.01-.04-4.53h0Zm12.28,3.73c-.46-.78-.91-1.5-1.39-2.2-1.53-2.3-3.35-4.38-5.43-6.2-.33-.31-.76-.5-1.22-.54-.33,0-.65-.08-1-.11-.48-.06-.48,0-.48,.41v9.42c0,.29,.07,.33,.34,.31,1.93-.15,3.86-.32,5.78-.57,1.13-.14,2.26-.26,3.4-.52h0Zm-2.26-7.68c.12,.16,.23,.33,.36,.48,1.69,1.95,3.17,4.08,4.41,6.35,.09,.25,.38,.38,.63,.29,0,0,0,0,0,0,1.35-.3,2.69-.67,4-1.11,.78-.25,.78-.27,.15-.81-1.86-1.57-3.91-2.89-6.1-3.93-1.1-.54-2.26-.97-3.45-1.27h0Zm-17.52,.18l-.39,.12c-1.87,.7-3.66,1.6-5.33,2.68-1.11,.72-2.18,1.5-3.19,2.35-.37,.32-.34,.5,.12,.64,1.29,.42,2.6,.77,3.93,1.05,.26,.09,.55-.04,.64-.3,0,0,0,0,0,0,1.08-2.02,2.33-3.94,3.73-5.74,.21-.23,.38-.5,.49-.79h0Z"/>
      <path class="cls-8" d="M255.51,288c-.75-.13-1.51-.07-2.27-.13-2.68-.21-5.33-.74-7.88-1.6-4.03-1.38-7.76-3.5-11-6.26-.14-.11-.26-.23-.46-.42,.57,.09,1.14,.2,1.7,.35,1.5,.25,3.02,.31,4.53,.15,.79-.08,1.57-.2,2.34-.37,.14-.02,.29,.02,.4,.11,1.03,.54,2.1,1.02,3.19,1.42,.15,.08,.31,.11,.48,.11-.34-.6-.72-1.18-1.13-1.73-.36-.52-.36-.51,.22-.74s1.23-.47,1.84-.73c.19-.11,.44-.04,.54,.16,0,0,0,0,0,.01,.48,.62,.95,1.24,1.44,1.85,.55,.7,1.13,1.36,1.74,2,.28,.31,.67,.51,1.09,.57,.51,.07,1,.11,1.54,.18,.19,0,.23,0,.22-.21v-1.48c0-.14,0-.39,.28-.21s.21-.1,.24-.21c.29-1.08,.58-2.16,.85-3.24,.55-2.16,1.11-4.32,1.65-6.49,.02-.23,.22-.39,.45-.37,0,0,0,0,.01,0,1-.02,2,.04,3,.16,1.74,.18,3.48,.4,5.21,.7l.64,.1c.55,.1,.59,.09,.83-.42,.83-1.83,1.5-3.72,2-5.66,.62-2.26,1.02-4.57,1.21-6.9,0-.49,.05-1,.09-1.48,0-.29,0-.38-.37-.38h-6.56c-.8,0-1.59,0-2.38-.06-.48,0-.51-.06-.4-.51,.14-.61,.31-1.21,.43-1.82,.06-.26,.18-.31,.42-.31h8.58c.26,0,.32-.07,.3-.32-.09-.76-.07-.79,.7-.87s1.44-.1,2.15-.15c.17,0,.23,0,.25,.21s.11,.52,.11,.78,.16,.35,.43,.35h8.59c.29,0,.4-.06,.38-.37-.09-1.52-.29-3.04-.62-4.53-.09-.28,0-.59,.23-.78,1.08-1,2.11-2.17,3.25-3.18l.13-.12c.31-.23,.36-.23,.46,.13,.65,2.05,1.09,4.16,1.34,6.29,.06,.73,.12,1.46,.14,2.19,.01,.13,.03,.26,.06,.39v3.1c0,.13,0,.26-.06,.39-.12,2.29-.51,4.56-1.15,6.76-3.93,13.53-16.09,23.02-30.17,23.54-.42-.01-.84,.01-1.25,.07v-.02Zm23.07-31.12h-3.75q-1,0-1,1c-.19,3.05-.72,6.07-1.57,9-.52,1.8-1.23,3.54-1.88,5.29-.2,.56-.25,.47,.33,.65,1.53,.5,3.04,1.04,4.54,1.63,.23,.13,.52,.05,.66-.17,3.21-3.47,5.49-7.71,6.62-12.3,.41-1.56,.66-3.16,.74-4.77,0-.25-.06-.32-.32-.32h-4.37Zm-21.72,21.38v4.47c0,.23,.07,.29,.29,.27,.64-.08,1.29-.14,1.93-.21,.45-.02,.88-.22,1.19-.54,2.02-2.24,3.79-4.7,5.26-7.34,.16-.29,.08-.36-.2-.41-1.14-.21-2.27-.41-3.42-.56-1.56-.2-3.12-.36-4.69-.47-.3,0-.36,.08-.36,.35,0,1.45,0,2.93,0,4.41v.03Zm16.54-1.67c-1.43-.57-2.9-1.02-4.4-1.36-.15-.04-.3,.05-.34,.19-.98,1.81-2.08,3.57-3.27,5.25-.15,.21-.28,.42-.42,.64,3.07-1.06,5.93-2.67,8.43-4.75v.03Z"/>
      <path class="cls-12" d="M225.62,267.65c.62,.6,1.28,1.14,2,1.62,1.71,1.16,3.64,1.93,5.67,2.28,1.79,.34,3.63,.09,5.27-.7,.69-.37,1.29-.9,1.74-1.54,.17-.22,.18-.38-.11-.56-1.15-.76-2.36-1.43-3.54-2.15l-.16-.1c.49-.25,.95-.49,1.42-.71l18.39-9.05,2.27-1.09c.09,0,.19-.16,.3-.07s0,.2,0,.3c-.52,2.11-1,4.21-1.57,6.32l-3.18,12.45c-.24,.94-.5,1.88-.72,2.82-.08,.32-.18,.38-.47,.2-1.18-.7-2.32-1.46-3.46-2.22-.24-.2-.57-.23-.84-.07-1.9,.99-3.91,1.74-6,2.22-2.32,.59-4.73,.66-7.08,.23-2.3-.53-4.41-1.68-6.09-3.33-1.88-1.72-3.2-3.95-3.81-6.42,0-.08,0-.16,0-.24-.02-.06-.03-.13-.03-.19Z"/>
      <path class="cls-4" d="M274,250.62c.06-.21,.19-.4,.35-.55,2.58-3.02,4.23-6.71,4.77-10.64,.36-2,.26-4.05-.29-6-.38-1.32-1.1-2.53-2.08-3.49-.18-.17-.34-.36-.58-.61,.39,.13,.77,.3,1.13,.51,2.26,1.01,4.21,2.6,5.66,4.61,1.53,2.19,2.43,4.76,2.6,7.43,.07,.66-.18,1.31-.68,1.74-1.42,1.54-2.99,2.93-4.68,4.16-1.74,1.19-3.64,2.12-5.64,2.76-.18,.08-.37,.11-.56,.08Z"/>
    </g>
  </g>
</svg>