<svg id="Layer_1" data-name="Layer 1" xmlns="http://www.w3.org/2000/svg" viewBox="0 0 494.44 576.08"><defs><style>.cls-1{fill:#cacaca;}.cls-2{fill:#e4e4e4;}.cls-3{fill:#f2f2f2;}.cls-4{fill:#e6e6e6;}.cls-5{fill:#3f3d56;}.cls-6{fill:#ffb6b6;}.cls-7{fill:#6c63ff;}.cls-8{fill:#2f2e41;}.cls-9{fill:#fff;}.cls-10{fill:#9e616a;}.cls-11{fill:#ccc;}</style></defs><path class="cls-1" d="M494.37,571.66c-.66-1.32-495.68,2.88-494.37-1C-2.14,569.34,500.75,565.43,494.37,571.66Z" transform="translate(0.01 3.73)"/><path class="cls-2" d="M67.14,477.72c-.31,27.8-17.8,14.44-6.7,30.42-11.95,38.35-56,22.4-30.64-13.64C36.38,486.52,63.17,456.09,67.14,477.72Z" transform="translate(0.01 3.73)"/><path class="cls-3" d="M26.5,569.06c-5-20.16-1.79-61.84,19.24-64C20.62,517.28,29.27,552.93,26.5,569.06Z" transform="translate(0.01 3.73)"/><path class="cls-4" d="M38.44,60.71Q224.78,57.47,411,68.49C304.38,55.09,145.28,51.74,38.44,60.71Z" transform="translate(0.01 3.73)"/><path class="cls-4" d="M376.48,39.42c.79-.87,30.27.27,21.21-5C396.91,35.32,367.43,34.17,376.48,39.42Z" transform="translate(0.01 3.73)"/><path class="cls-4" d="M376.48,59.8c.79-.88,30.27.27,21.21-5C396.91,55.69,367.43,54.55,376.48,59.8Z" transform="translate(0.01 3.73)"/><path class="cls-4" d="M374.89,50.49,405,53.23C416.88,49.1,363.11,44,374.89,50.49Z" transform="translate(0.01 3.73)"/><path class="cls-4" d="M51,34.85c-14.82.93-4.28,22.58,5.52,11.65C60.18,43.12,55.27,32,51,36.44c-.41,2.11,2.3,2.34,2.48,3.12,1.55,2.26,1.28,5.08-1.11,6.14.66-.22-1.47.39-.73.2-4.77.63-6.3-4.27-3.18-6.79.18-.18,1.29-.75.87-.56.25-.08.8-.36,1.05-.3C51.84,39.07,54.32,35.33,51,34.85Z" transform="translate(0.01 3.73)"/><path class="cls-4" d="M74.78,34.85C60,35.78,70.5,57.43,80.3,46.5,84,43.12,79.05,32,74.74,36.44c-.41,2.11,2.3,2.34,2.48,3.12,1.55,2.26,1.28,5.08-1.11,6.14.66-.22-1.48.39-.73.2-4.78.63-6.3-4.27-3.18-6.79.18-.18,1.29-.75.87-.56.25-.08.8-.36,1.05-.3C75.62,39.07,78.1,35.33,74.78,34.85Z" transform="translate(0.01 3.73)"/><path class="cls-4" d="M98.56,34.85c-14.82.93-4.28,22.58,5.52,11.65,3.66-3.38-1.25-14.52-5.56-10.06-.41,2.11,2.3,2.34,2.48,3.12,1.54,2.26,1.28,5.08-1.12,6.14.67-.22-1.47.39-.72.2-4.78.63-6.3-4.27-3.18-6.79.17-.18,1.29-.75.87-.56.24-.08.8-.36,1.05-.3C99.4,39.07,101.88,35.33,98.56,34.85Z" transform="translate(0.01 3.73)"/><path class="cls-4" d="M442.07,410.92C-52.3,384.57-9.7,556.59,11.45,5.82c11.68-3.18,457.34-26.49,450.5,14C449.87,34.14,487.86,423.33,442.07,410.92ZM25.48,2.26C-14.6-12.09,17.88,380.68,7.86,391.05c-.14,9.45,8.16,17.79,17.62,17.61,12.37-4.75,420.27,9.27,429-5.15C473.82-144.66,517.16,29.36,25.48,2.26Z" transform="translate(0.01 3.73)"/><path class="cls-4" d="M24.79,252.56c109.35-.85,267,.17,375.63-1.66C301.79,246.28,118.35,245.11,24.79,252.56Z" transform="translate(0.01 3.73)"/><path class="cls-4" d="M98.7,249.8c-1.67,0,5.06-64.15-2.49-53.47C97.88,196.3,91.15,260.49,98.7,249.8Z" transform="translate(0.01 3.73)"/><path class="cls-4" d="M168.72,250.38c.45-14.18,2.41-73.45,2.83-86.41C166.15,149.36,162.65,266.54,168.72,250.38Z" transform="translate(0.01 3.73)"/><path class="cls-4" d="M238.55,132.11c2.19,21.18-10.88,107.11-1.74,117.83C234.62,228.76,247.69,142.82,238.55,132.11Z" transform="translate(0.01 3.73)"/><path class="cls-4" d="M308,226.05l-.42,22.88c0,2.19,3.36,2.19,3.4,0-1.11-24.76,6.31-37.78-1.51-33.77C309.51,215.16,308.53,199,308,226.05Z" transform="translate(0.01 3.73)"/><path class="cls-4" d="M376.1,165.94c.58,14.41-.51,70.68,1,83.74C382.3,256.29,381.62,152.18,376.1,165.94Z" transform="translate(0.01 3.73)"/><path class="cls-4" d="M25.07,250.65c-4.15-19.78,22-21.29,34.7-27.26,58.87-52.28,57.58-93.91,149.86-55.08C247.25,184.89,274,156,305.79,142.54c55.39-17,98.14,39.76,84.15,91.48-3.21,42.14,10.15-27.81,3.41-41.65-9.3-54.92-80.91-73-119.79-36.09-31.24,27.14-71.19,4.19-105.21-3.91-52.88-18.15-72.9,37.54-105.13,65.16-14.61,9.31-46.78,9.44-41.43,34C22.53,253.59,25.82,252.71,25.07,250.65Z" transform="translate(0.01 3.73)"/><path class="cls-4" d="M97.57,188.94Z" transform="translate(0.01 3.73)"/><path class="cls-4" d="M103.46,185.81c-4-7.1-14.33-1.92-12.49,5.49C93.57,201.52,108.71,194.66,103.46,185.81Zm-4.25,2.89c0,.16,0,.08,0,0Zm-.43-1Zm-1.91.77Zm.45.38Zm.2.1,0,0c-.08,0,0,0,0,0,.49.09-1-.41-.38-.13a.7.7,0,0,1-.23-1.09c-.54.5,1-.69.44-.3a1.57,1.57,0,0,1,.68-.11,2.31,2.31,0,0,1,.56.25c.84,1,.67,1.24-1.11,1.41Z" transform="translate(0.01 3.73)"/><path class="cls-4" d="M97.58,188.94Z" transform="translate(0.01 3.73)"/><path class="cls-4" d="M97.58,188.94Z" transform="translate(0.01 3.73)"/><path class="cls-4" d="M97.58,188.94Z" transform="translate(0.01 3.73)"/><path class="cls-4" d="M97.58,188.93h0Z" transform="translate(0.01 3.73)"/><path class="cls-4" d="M170,157.24Z" transform="translate(0.01 3.73)"/><path class="cls-4" d="M175.93,154.12c-4-7.11-14.34-1.92-12.49,5.48C166,169.83,181.18,163,175.93,154.12ZM171.68,157c0,.17,0,.09,0,0Zm-.44-1Zm-1.9.77Zm.45.38c.07,0,.11,0,0,0Zm.2.09,0,0h0s.06,0,0,0c.48.1-.95-.4-.38-.13a.69.69,0,0,1-.23-1.09c-.54.51,1-.69.44-.3a1.74,1.74,0,0,1,.68-.11,2.31,2.31,0,0,1,.56.25C171.94,156.82,171.77,157.09,170,157.26Z" transform="translate(0.01 3.73)"/><path class="cls-4" d="M170.05,157.24Z" transform="translate(0.01 3.73)"/><path class="cls-4" d="M170.05,157.24Z" transform="translate(0.01 3.73)"/><path class="cls-4" d="M170.05,157.24Z" transform="translate(0.01 3.73)"/><path class="cls-4" d="M170.05,157.24Z" transform="translate(0.01 3.73)"/><path class="cls-4" d="M240.25,173.09Z" transform="translate(0.01 3.73)"/><path class="cls-4" d="M246.13,122.42c-4-7.1-14.33-1.92-12.49,5.49C236.24,138.13,251.38,131.27,246.13,122.42Zm-4.25,2.89c0,.16,0,.08,0,0Zm-.43-1s0,0,0,0Zm-1.91.77s0,0,0,0Zm.45.38Zm.21.1,0,0h0c.49.09-.95-.41-.38-.13a.71.71,0,0,1-.23-1.1c-.53.51,1-.68.45-.3a1.89,1.89,0,0,1,.67-.11,2.24,2.24,0,0,1,.56.26C242.15,125.12,242,125.4,240.2,125.57Z" transform="translate(0.01 3.73)"/><path class="cls-4" d="M240.24,173.09Z" transform="translate(0.01 3.73)"/><path class="cls-4" d="M240.25,173.09h0Z" transform="translate(0.01 3.73)"/><path class="cls-4" d="M240.26,173.09h0Z" transform="translate(0.01 3.73)"/><path class="cls-4" d="M240.26,173.09Z" transform="translate(0.01 3.73)"/><path class="cls-4" d="M317.47,209.59c-4-7.11-14.34-1.93-12.49,5.48C307.58,225.3,322.72,218.44,317.47,209.59Zm-4.25,2.88c0,.16,0,.09,0,0Zm-.44-1Zm-1.9.76Zm.45.39c.06,0,.11,0,0,0Zm.2.09.05,0h0s.07,0,0,0c.48.1-.95-.4-.39-.13a.7.7,0,0,1-.22-1.09c-.54.5,1-.69.44-.3a1.74,1.74,0,0,1,.68-.11,2.31,2.31,0,0,1,.56.25C313.48,212.29,313.3,212.56,311.53,212.73Z" transform="translate(0.01 3.73)"/><path class="cls-4" d="M311.58,138Z" transform="translate(0.01 3.73)"/><path class="cls-4" d="M311.59,138Z" transform="translate(0.01 3.73)"/><path class="cls-4" d="M311.59,138Z" transform="translate(0.01 3.73)"/><path class="cls-4" d="M311.59,138Z" transform="translate(0.01 3.73)"/><path class="cls-4" d="M311.59,138Z" transform="translate(0.01 3.73)"/><path class="cls-4" d="M378.4,160.63h0Z" transform="translate(0.01 3.73)"/><path class="cls-4" d="M384.28,157.51c-4-7.1-14.34-1.92-12.49,5.49C374.38,173.22,389.53,166.36,384.28,157.51ZM380,160.4c0,.16,0,.08,0,0Zm-.43-1Zm-1.91.77Zm.46.38Zm.2.1,0,0c-.07,0,.05,0,0,0,.49.09-.95-.41-.38-.13a.7.7,0,0,1-.23-1.09c-.53.5,1.05-.69.45-.3a1.53,1.53,0,0,1,.67-.11c.05,0,.46.13.56.25C380.29,160.21,380.11,160.49,378.34,160.66Z" transform="translate(0.01 3.73)"/><path class="cls-4" d="M378.39,160.64Z" transform="translate(0.01 3.73)"/><path class="cls-4" d="M378.39,160.63h0Z" transform="translate(0.01 3.73)"/><path class="cls-4" d="M378.4,160.64Z" transform="translate(0.01 3.73)"/><path class="cls-4" d="M378.4,160.64h0Z" transform="translate(0.01 3.73)"/><path class="cls-5" d="M360.08,212.52l-52.65,2.92c-8-4.13,54-9.76,53.56-11.06Z" transform="translate(0.01 3.73)"/><path class="cls-6" d="M427,329.7l19.84-33.37,14.66,6.92c-5,4.79-27.19,34.83-29.35,40.63C421.47,350.65,414.45,331.35,427,329.7Z" transform="translate(0.01 3.73)"/><path class="cls-7" d="M435.24,252.18c13.41,8,54.09,20.48,35.16,42.89l-22.16,25.42-9.65-13.08c6.52-14.88,12.44-15.59-7-19.35Z" transform="translate(0.01 3.73)"/><path class="cls-6" d="M343.64,213.06,340,251.71l-16.22,0c2.46-6.47,9.64-43.12,9.11-49.29C339.65,191.76,354.26,206.2,343.64,213.06Z" transform="translate(0.01 3.73)"/><path class="cls-7" d="M375.92,292.1c-15.31-4.53-65.06-3.73-56.65-29.16l9.12-32.45,14.33,7.68c-1.8,23,1.58,16.33,20,14.5Z" transform="translate(0.01 3.73)"/><path class="cls-6" d="M360.65,559.2H350.38l-4.88-39.57h15.15Z" transform="translate(0.01 3.73)"/><path class="cls-8" d="M361,569.91H329.45c-.9-11.43,11.87-11.27,18.05-17.06C360.29,558.79,362.13,553.87,361,569.91Z" transform="translate(0.01 3.73)"/><path class="cls-6" d="M433.27,559.2h10.26l4.88-39.57H433.26Z" transform="translate(0.01 3.73)"/><path class="cls-8" d="M432.9,569.91h31.57c.89-11.43-11.88-11.27-18.05-17.06C433.62,558.79,431.78,553.87,432.9,569.91Z" transform="translate(0.01 3.73)"/><path class="cls-8" d="M345.05,490.54c5.4-36,4.78-94.59,13.86-129.89,18.14,7.83,22.8,11.12,40.67,0,8.16,4.63,41.29,7.8,38.67,19.22,2.49,31.05,6.35,67.28,7.67,98.36-2.94,2.26,16.5,83.46-13.23,67.28-18.22-40.69-12.85-108.45-35.43-148.86-5.6-5.52-15,47.44-16.89,53.72-2.51,19.28-10.79,47.36-8.26,67.13-1,12.67-8.51,30.3-26.45,22.33C345.67,539.84,344.9,492.8,345.05,490.54Z" transform="translate(0.01 3.73)"/><path class="cls-7" d="M361.83,301.26,359,338.42c-2.27,2.47-8.24,6.88-4.09,10.44-3.3,6-7.37,24.52,3.24,25.49,71.42-2.94,95.88,33.21,72.4-62.38.67-13.83,3.4-45.48,4.84-59.52-8.18-1.33-24.42-6.35-30.32-12.41-11.61-.7-21.61-.09-29.75,9.52-6.83,2.49-24.6.54-27.76,7.73C352.73,251.67,360.45,301.74,361.83,301.26Z" transform="translate(0.01 3.73)"/><path class="cls-6" d="M395.36,235.06c28.3.41,28.3-44,0-43.62C367.05,191,367.05,235.48,395.36,235.06Z" transform="translate(0.01 3.73)"/><path class="cls-8" d="M390.1,233.65c30.88,8,39.7-42.49,21.91-37.14-6.43-24.71-31.45,5.35-36.94-4.43-4.4,2.64.91,11-6.45,6.75-7.83,3.86-.51,15.71,6.44,10.4,1.78,2.46-1.2,7.56,2.38,8.94,11.27-7.41,10.39,8.28,12.66,15.39" transform="translate(0.01 3.73)"/><path class="cls-7" d="M254.21,305.86c-28.73,4.53-27.85-9.93-22.35-33.09,6.64-3.69,25.11-6.17,26.68,4.23C253.82,285.54,263.89,302.07,254.21,305.86Z" transform="translate(0.01 3.73)"/><path class="cls-9" d="M252.18,281.79H235.84C229.32,278.51,258.69,278.5,252.18,281.79Z" transform="translate(0.01 3.73)"/><path class="cls-9" d="M252.18,290H235.84C229.32,286.67,258.69,286.67,252.18,290Z" transform="translate(0.01 3.73)"/><path class="cls-9" d="M252.18,298.13H235.84C229.32,294.84,258.69,294.84,252.18,298.13Z" transform="translate(0.01 3.73)"/><path class="cls-10" d="M104.61,385.92c-.43-4.61,7.31-62.4,10.94-71,0,0-13.24,4.24-13.24,4.24C105,327.39,77.12,401,104.61,385.92Z" transform="translate(0.01 3.73)"/><path class="cls-11" d="M122.3,260c-21.48-26.83-18.56,44.57-20.65,44.85L89.09,363.06l17.39,3.82,13.45-62.78C129.84,288.15,127,276.8,122.3,260Z" transform="translate(0.01 3.73)"/><path class="cls-10" d="M108.77,355c40.13-4.92,47.78,16,50.11-32.37C114.86,327.24,105.17,305,108.77,355Z" transform="translate(0.01 3.73)"/><path class="cls-10" d="M150.4,549.51h10.69l5.07-41.18H150.4Z" transform="translate(0.01 3.73)"/><path class="cls-10" d="M83.49,550.5l10.68-.08L99,509.2l-13.89,3.19Z" transform="translate(0.01 3.73)"/><path class="cls-6" d="M116.9,295.43c-14.88,18.08,38.1,23.22,45.42,29C162.15,278.71,152,292.43,116.9,295.43Z" transform="translate(0.01 3.73)"/><path class="cls-10" d="M137.22,238.83c21.94.32,21.94-34.15,0-33.83C115.27,204.68,115.27,239.15,137.22,238.83Z" transform="translate(0.01 3.73)"/><path class="cls-8" d="M147.75,544.24c6.54,1.06,19.85-6,16.89,6.22,26.24,15.53,22.13,21.3-6.62,19.32-3.41-6.55-3.29-9.77-4.82,0h-7.58Z" transform="translate(0.01 3.73)"/><path class="cls-8" d="M79.84,545.26c6.54,1,19.81-6.14,16.93,6.1,26.35,15.34,22.28,21.14-6.49,19.36-3.45-6.52-3.35-9.75-4.81,0l-7.58,0Z" transform="translate(0.01 3.73)"/><path class="cls-8" d="M80.17,518.92C89.49,470.15,91.26,383,105.68,339.61c1.95-.5,49,9.27,50.89,9.25,21.15,44.44,9.76,142.57,11.39,181.35-3-.94-21.86,2.29-22.85-2.38a3.91,3.91,0,0,1,4.06-5.33L131.48,398.58C126.14,427.9,95,500.7,104.72,522.5,105.85,529.46,67.38,528.56,80.17,518.92Z" transform="translate(0.01 3.73)"/><path class="cls-11" d="M101.89,341.63c6.31-27.2,7.09-61.21,10.17-87,1.3-1.88,7.14-1.17,9-1.58.68-2.64,2.25-6,5.79-5.8,2.66.69,20.87-1.37,22.61,1.28,2.23,5.21,10.53,3.8,11.22,11.07,4.79,17.78,5.17,56,6.68,76.28-1.59,3.37,4.35,9-2.64,8.94C153.32,344.4,107.15,359.58,101.89,341.63Z" transform="translate(0.01 3.73)"/><path class="cls-10" d="M236.27,279a7.56,7.56,0,0,1-10.59,4.56l-19.45,17.74-2.58-13.65C211.1,283.05,236.23,255,236.27,279Z" transform="translate(0.01 3.73)"/><path class="cls-11" d="M168.6,265.39c-6-17.9-26.33-15.25-19.48,5.64l32.17,48.46s46.4-29.76,40.76-30-7.33-10.47-7.33-10.47L190.2,291.3l-.83-4.36C186.05,291.92,171.26,266.94,168.6,265.39Z" transform="translate(0.01 3.73)"/><path class="cls-8" d="M117.31,211.56c-2.6,1.24-5.5-.63-7.74-2.48-9,11.91-3.18,34.88-16,46.1-16.73,9.16-23.18,2.54-19.3-14.85-2.93,18.43-21.59,17.88-30.67,4.42-1.68-11.65,15.68-10.23,19.07-19.08-4.25-22.75-2-28.18,22.2-33.41C95.61,185.73,125.56,200,117.31,211.56Z" transform="translate(0.01 3.73)"/><path class="cls-8" d="M140.39,203.58c-37-19.17-43.44,50.13.38,38.85,0,0,9.84,20.26,12.16,21.17-6-16-7.23-34.92-5.72-51.34C154.21,226.27,159.66,198.12,140.39,203.58Z" transform="translate(0.01 3.73)"/></svg>