<svg width="102" height="102" viewBox="0 0 102 102" fill="none" xmlns="http://www.w3.org/2000/svg">
<circle cx="51" cy="51" r="51" fill="#00549A"/>
<path d="M49.2002 24.2041H54.5817C55.1665 24.2041 55.6406 23.73 55.6406 23.1452C55.6406 22.5605 55.1665 22.0864 54.5817 22.0864H49.2002C48.6155 22.0864 48.1414 22.5605 48.1414 23.1452C48.1414 23.73 48.6155 24.2041 49.2002 24.2041Z" fill="white"/>
<path d="M44.4004 81.206H53.9996C54.5843 81.206 55.0584 80.7319 55.0584 80.1472C55.0584 79.5625 54.5843 79.0884 53.9996 79.0884H44.4004C43.8156 79.0884 43.3416 79.5625 43.3416 80.1472C43.3416 80.7319 43.8156 81.206 44.4004 81.206Z" fill="white"/>
<path d="M30.752 70.6716C31.3367 70.6716 31.8108 70.1975 31.8108 69.6128V28.1765H66.5891V33.6231C66.5891 34.2079 67.0632 34.682 67.648 34.682C68.2327 34.682 68.7068 34.2079 68.7068 33.6231C68.7073 32.3492 68.7051 37.5309 68.7116 22.3318C68.7116 20.0137 66.8158 18.1177 64.4896 18.1177H64.4869H33.9104H33.908C31.6948 18.1177 29.6932 19.9382 29.6932 22.3349V69.6128C29.6932 70.1975 30.1673 70.6716 30.752 70.6716ZM64.4869 20.2353C65.6056 20.2353 66.5891 21.1512 66.5891 22.3349V26.0589H31.8115V22.3318C31.8115 21.177 32.7573 20.2353 33.9104 20.2353H64.4869Z" fill="white"/>
<path d="M55.7341 44.7962C56.146 45.205 56.8171 45.2074 57.2314 44.789L61.6564 40.3226C62.0653 39.91 62.0653 39.2451 61.6564 38.8326L57.2314 34.3662C56.8198 33.9505 56.1498 33.9484 55.7341 34.3589C55.3185 34.7705 55.3153 35.441 55.7269 35.8562L59.4136 39.5776L55.7269 43.299C55.3153 43.7141 55.3185 44.3847 55.7341 44.7962Z" fill="white"/>
<path d="M42.6653 34.3586C42.2502 33.9461 41.5791 33.9492 41.1681 34.3659L36.7436 38.8323C36.3346 39.2448 36.3346 39.9097 36.7436 40.3223L41.1681 44.7887C41.5793 45.204 42.2493 45.2077 42.6653 44.7959C43.081 44.3844 43.0841 43.7138 42.6726 43.2987L38.9863 39.5773L42.6726 35.8559C43.0841 35.4407 43.081 34.7702 42.6653 34.3586Z" fill="white"/>
<path d="M50.9069 31.367L44.692 47.0064C44.4759 47.5497 44.7416 48.1655 45.285 48.3811C45.8254 48.5968 46.4428 48.3341 46.6597 47.7881L52.8746 32.1487C53.0907 31.6053 52.8249 30.9896 52.2816 30.774C51.7361 30.5553 51.1225 30.8236 50.9069 31.367Z" fill="white"/>
<path d="M67.6527 50.9834C64.5504 50.9834 62.0304 53.5034 62.0304 56.6057C62.0304 59.7373 64.5837 62.2281 67.6527 62.2281C70.7084 62.2281 73.2645 59.7425 73.2645 56.6057C73.2645 53.5034 70.7445 50.9834 67.6527 50.9834ZM68.7116 59.9411V55.9069C68.7116 55.3246 68.2351 54.8481 67.6527 54.8481C67.0598 54.8481 66.5939 55.3246 66.5939 55.9069V59.9517C65.1751 59.507 64.148 58.1729 64.148 56.6057C64.148 54.6787 65.7151 53.101 67.6527 53.101C69.5798 53.101 71.1469 54.6787 71.1469 56.6057C71.1469 58.1729 70.1198 59.4964 68.7116 59.9411Z" fill="white"/>
<path d="M81.3645 53.2599L78.7598 52.9634C78.5586 52.3493 78.3045 51.7458 77.9975 51.1634L79.5221 49.0034C79.8292 48.5905 79.7763 48.0081 79.4163 47.6481L76.3774 44.6199C75.9963 44.2387 75.3927 44.1964 74.9692 44.5352L72.9257 46.1764C72.3433 45.8799 71.7398 45.6363 71.1151 45.4458L70.681 42.8305C70.5962 42.3222 70.1516 41.9517 69.6327 41.9517H65.3445C64.8045 41.9517 64.3492 42.354 64.2857 42.894L63.9998 45.5093C63.3751 45.7105 62.7821 45.9646 62.2104 46.2611L60.0398 44.7258C59.6163 44.4293 59.0445 44.4717 58.6845 44.8422L55.6563 47.8705C55.2751 48.2517 55.2433 48.8552 55.5821 49.2787L57.2128 51.3328C56.9163 51.9152 56.6727 52.5187 56.4822 53.1434L53.8774 53.5775C53.3692 53.6728 52.988 54.1069 52.988 54.6257V58.914C52.988 59.454 53.4009 59.8987 53.9304 59.9623L56.5351 60.2587C56.7363 60.8834 57.001 61.487 57.2974 62.0587L55.7727 64.2082C55.4763 64.6316 55.5186 65.2034 55.8892 65.574L58.9175 68.6022C59.2986 68.9834 59.9021 69.0152 60.3257 68.6764L62.3798 67.0458C62.9622 67.3316 63.5551 67.5752 64.1798 67.7658L64.6139 70.3811C64.6986 70.8999 65.1433 71.2705 65.6621 71.2705H66.5939V73.6105H30.7527C30.1704 73.6105 29.6939 74.0869 29.6939 74.6693C29.6939 74.8333 29.6939 81.9344 29.6939 81.6681C29.6939 83.9869 31.5892 85.8822 33.908 85.8822H64.4869C66.8162 85.8822 68.7116 83.9869 68.7116 81.6681C68.7116 81.1504 68.7116 70.7582 68.7116 71.2705H69.9504C70.4904 71.2705 70.9457 70.8681 71.0092 70.3281L71.3057 67.7129C71.9198 67.5117 72.5233 67.2575 73.0951 66.9611L75.2551 68.4963C75.6786 68.7928 76.2504 68.7399 76.6209 68.3799L79.6386 65.341C80.0198 64.9599 80.0515 64.3563 79.7128 63.9434L78.0821 61.8893C78.3786 61.2964 78.6221 60.6929 78.8127 60.0787L81.4174 59.634C81.9257 59.5493 82.3068 59.1046 82.3068 58.5963V54.3081C82.3068 53.7681 81.9045 53.3128 81.3645 53.2599ZM66.5939 81.6681C66.5939 82.8222 65.6516 83.7646 64.4869 83.7646H33.908C32.7539 83.7646 31.8115 82.8222 31.8115 81.6681C31.8115 81.4407 31.8115 75.6194 31.8115 75.7281H66.5939L66.5939 81.6681ZM80.1892 57.6964L77.7963 58.0987C77.3727 58.1728 77.0445 58.4799 76.9386 58.9034C76.7269 59.7928 76.3774 60.6504 75.9116 61.4658C75.6892 61.8363 75.721 62.3128 75.9963 62.6516L77.4681 64.5152L75.7527 66.2517L73.7622 64.8328C73.4233 64.5893 72.9575 64.5787 72.5974 64.8011C71.8245 65.2775 70.9775 65.6375 70.0774 65.8599C69.6433 65.9658 69.3257 66.3363 69.2727 66.7705L69.008 69.1528C68.116 69.1528 67.4441 69.1528 66.5515 69.1528L66.1492 66.7493C66.0857 66.3363 65.768 65.9975 65.3551 65.9022C64.4657 65.6799 63.608 65.3305 62.8139 64.8646C62.4328 64.6422 61.9563 64.674 61.6175 64.9493L59.7433 66.4317L58.0174 64.7058L59.4151 62.747C59.6402 62.4279 59.6803 61.9573 59.4575 61.5611C58.981 60.7881 58.6104 59.9305 58.3774 59.0199C58.2716 58.5963 57.9116 58.2787 57.4775 58.2364L55.1056 57.9611V55.5258L57.4986 55.1234C57.9221 55.0493 58.261 54.7317 58.3562 54.3187C58.568 53.4187 58.9174 52.5611 59.3939 51.7775C59.6162 51.3963 59.5951 50.9199 59.3198 50.5705L57.8268 48.6964L59.5527 46.9705L61.5327 48.3787C61.8715 48.6222 62.3374 48.6434 62.6975 48.4211C63.4704 47.9446 64.328 47.5846 65.2386 47.3516C65.6621 47.2458 65.9692 46.8858 66.0221 46.4517L66.2868 44.0693H68.7433L69.1457 46.4623C69.2198 46.8857 69.5269 47.2246 69.9398 47.3199C70.8398 47.5317 71.6975 47.8811 72.4916 48.3575C72.8727 48.5799 73.3492 48.5481 73.688 48.2728L75.5515 46.7799L77.2774 48.5164L75.8798 50.4858C75.6576 50.8004 75.612 51.2603 75.8374 51.6611C76.3245 52.4552 76.6845 53.3128 76.9068 54.1917C77.0127 54.6151 77.3727 54.9328 77.8174 54.9858L80.1892 55.2505L80.1892 57.6964Z" fill="white"/>
</svg>
