<svg width="1453" height="778" viewBox="0 0 1453 778" fill="none" xmlns="http://www.w3.org/2000/svg">
<path fill-rule="evenodd" clip-rule="evenodd" d="M0 42.2729C37.3333 28.6778 170 7.04929 402 29.2958C692 57.1039 964 71.9348 1132 29.2958C1188.92 14.8498 1244.5 5.65716 1293.21 0H1433C1444.05 0 1453 8.95429 1453 20V484.802C1453 488.565 1451.94 492.252 1449.94 495.439L1278.35 768.637C1274.69 774.464 1268.29 778 1261.41 778H1225.88L194.449 701.733C191.052 701.482 187.775 700.367 184.929 698.494L162.612 683.807C160.98 682.733 159.514 681.425 158.26 679.926L4.6538 496.13C1.64717 492.532 0 487.993 0 483.305V42.2729Z" fill="#003b7d"/>
</svg>
