<svg width="104" height="104" viewBox="0 0 104 104" fill="none" xmlns="http://www.w3.org/2000/svg">
<circle cx="52" cy="52" r="52" fill="#003B7D"/>
<path d="M77.1761 53.4844H76.7687V52.9922C76.7678 52.5573 76.5946 52.1406 76.2871 51.8332C75.9797 51.5257 75.5629 51.3525 75.1281 51.3515H74.9158C74.6242 38.8125 64.4608 28.7015 52 28.7015C39.5392 28.7015 29.3758 38.8125 29.0861 51.3469H28.8737C28.4389 51.3478 28.0222 51.521 27.7147 51.8285C27.4073 52.1359 27.2341 52.5527 27.2331 52.9875V53.4844H26.8258C25.6401 53.4852 24.5032 53.9563 23.6645 54.7943C22.8257 55.6323 22.3535 56.7687 22.3516 57.9543V63.2878C22.3529 64.4735 22.8246 65.6103 23.663 66.4487C24.5014 67.2871 25.6382 67.7588 26.8239 67.7601H27.2312V68.2523C27.2322 68.6871 27.4054 69.1039 27.7129 69.4113C28.0203 69.7188 28.4371 69.892 28.8719 69.8929H33.9302C34.365 69.892 34.7817 69.7188 35.0892 69.4113C35.3966 69.1039 35.5698 68.6871 35.5708 68.2523V68.1562C36.8928 71.4334 39.1602 74.243 42.0843 76.2273C45.0084 78.2115 48.4569 79.2806 51.9906 79.2984C56.5931 79.3094 61.0144 77.5058 64.2958 74.2786H68.215C69.4306 74.2765 70.6034 73.8295 71.5119 73.0218C72.4204 72.2142 73.0018 71.1018 73.1462 69.8948H75.1263C75.5611 69.8938 75.9778 69.7207 76.2853 69.4132C76.5927 69.1057 76.7659 68.689 76.7669 68.2542V67.762H77.1742C78.3599 67.7606 79.4967 67.289 80.3351 66.4506C81.1736 65.6121 81.6452 64.4754 81.6466 63.2897V57.9543C81.6446 56.7694 81.1729 55.6335 80.335 54.7956C79.497 53.9577 78.3611 53.4862 77.1761 53.4844ZM52 29.8734C63.8148 29.8734 73.4528 39.4575 73.742 51.3469H70.8864C70.5991 41.0315 62.2403 32.7286 52 32.7286C41.7597 32.7286 33.4009 41.0315 33.1136 51.3469H30.258C30.5472 39.4575 40.1875 29.8734 52 29.8734ZM68.9266 51.8137C67.8855 48.1222 65.6684 44.8711 62.6118 42.554C59.5553 40.237 55.8262 38.9804 51.9906 38.9751C44.0509 38.9751 37.2602 44.4675 35.1559 51.9065C34.9277 51.6457 34.6226 51.464 34.2845 51.3876C34.5503 41.6995 42.3906 33.9004 52 33.9004C61.6094 33.9004 69.4497 41.6995 69.7155 51.3876C69.418 51.4535 69.1448 51.6011 68.9266 51.8137ZM68.3969 55.9261C61.653 55.1015 57.8744 47.872 57.8359 47.7965C57.7904 47.7076 57.7228 47.6317 57.6397 47.5762C57.5566 47.5207 57.4607 47.4873 57.3611 47.4792C57.2615 47.4721 57.1618 47.4902 57.0711 47.5317C56.9803 47.5733 56.9015 47.6369 56.8417 47.7169C51.4375 55.0781 38.5989 55.8853 35.6758 55.9729C36.0902 47.2022 43.3023 40.1484 51.9883 40.147C56.2308 40.1518 60.3073 41.7965 63.3653 44.7372C66.4234 47.6779 68.2262 51.6869 68.3969 55.9261ZM26.8239 66.5883C25.9488 66.5874 25.1099 66.2394 24.4911 65.6206C23.8723 65.0018 23.5243 64.1629 23.5234 63.2878V57.9543C23.5249 57.0797 23.8732 56.2413 24.4919 55.623C25.1106 55.0048 25.9492 54.6571 26.8239 54.6562H27.2312V66.5906L26.8239 66.5883ZM34.4012 68.2523C34.4012 68.3766 34.3519 68.4959 34.264 68.5838C34.176 68.6717 34.0568 68.7211 33.9325 68.7211H28.8737C28.7494 68.7211 28.6302 68.6717 28.5423 68.5838C28.4544 68.4959 28.405 68.3766 28.405 68.2523V52.9898C28.405 52.8655 28.4544 52.7463 28.5423 52.6584C28.6302 52.5705 28.7494 52.5211 28.8737 52.5211H33.9302C34.0542 52.5218 34.173 52.5714 34.2608 52.6592C34.3485 52.7469 34.3982 52.8657 34.3989 52.9898L34.4012 68.2523ZM51.9906 78.1265C47.8902 78.1107 43.9414 76.5743 40.9086 73.8146C37.8758 71.0549 35.9747 67.2682 35.5731 63.1875V57.1519C38.3261 57.0989 51.1112 56.4525 57.2369 49.1114C58.4786 51.1504 62.2717 56.4586 68.4269 57.1092V61.6406C68.421 61.663 68.4164 61.6857 68.4133 61.7086C68.4217 65.963 66.769 70.0527 63.8069 73.1067H55.2447C55.1199 72.6937 54.8658 72.3316 54.5198 72.0737C54.1739 71.8159 53.7543 71.6758 53.3228 71.6742H50.77C50.2348 71.6742 49.7215 71.8868 49.3431 72.2652C48.9646 72.6437 48.752 73.157 48.752 73.6922C48.752 74.2274 48.9646 74.7406 49.3431 75.1191C49.7215 75.4975 50.2348 75.7101 50.77 75.7101H53.3237C53.7551 75.7086 54.1746 75.5687 54.5205 75.311C54.8665 75.0533 55.1206 74.6914 55.2456 74.2786H62.553C59.5993 76.7722 55.8561 78.1359 51.9906 78.1265ZM54.1698 73.6926C54.169 73.9165 54.0795 74.131 53.9209 74.2891C53.7624 74.4472 53.5477 74.5361 53.3237 74.5364H50.77C50.5456 74.5364 50.3304 74.4472 50.1717 74.2886C50.013 74.1299 49.9239 73.9147 49.9239 73.6903C49.9239 73.4659 50.013 73.2507 50.1717 73.092C50.3304 72.9333 50.5456 72.8442 50.77 72.8442H53.3237C53.5484 72.8446 53.7638 72.9342 53.9224 73.0933C54.0811 73.2523 54.1701 73.4679 54.1698 73.6926ZM68.215 73.1067H65.3875C66.6847 71.5882 67.7126 69.8591 68.4269 67.994V68.2523C68.4279 68.6875 68.6014 69.1046 68.9093 69.4121C69.2173 69.7197 69.6346 69.8926 70.0698 69.8929H71.9622C71.8225 70.7871 71.3684 71.602 70.6815 72.1911C69.9946 72.7803 69.12 73.1049 68.215 73.1067ZM75.5969 68.2523C75.5969 68.3766 75.5475 68.4959 75.4596 68.5838C75.3717 68.6717 75.2524 68.7211 75.1281 68.7211H70.0698C70.0081 68.7214 69.9469 68.7095 69.8897 68.6861C69.8326 68.6626 69.7806 68.6282 69.7369 68.5846C69.6931 68.541 69.6584 68.4893 69.6347 68.4322C69.611 68.3752 69.5987 68.3141 69.5988 68.2523V52.9898C69.5995 52.8653 69.6494 52.7462 69.7377 52.6584C69.8259 52.5705 69.9453 52.5212 70.0698 52.5211H75.1263C75.2506 52.5211 75.3698 52.5705 75.4577 52.6584C75.5456 52.7463 75.595 52.8655 75.595 52.9898L75.5969 68.2523ZM80.4766 63.2878C80.4757 64.1629 80.1277 65.0018 79.5089 65.6206C78.8901 66.2394 78.0512 66.5874 77.1761 66.5883H76.7687V54.6562H77.1761C78.0512 54.6571 78.8901 55.0051 79.5089 55.6239C80.1277 56.2426 80.4757 57.0816 80.4766 57.9567V63.2878Z" fill="#F5F5F5"/>
</svg>
