<svg width="80" height="80" viewBox="0 0 80 80" fill="none" xmlns="http://www.w3.org/2000/svg">
<path d="M30.8 37.2001C29.2 35.6001 26.8 35.6001 25.2 37.2001C23.6 38.8001 23.6 41.2001 25.2 42.8001L37.2 54.8001C38 55.6001 38.8 56.0001 40 56.0001C41.2 56.0001 42 55.6001 42.8 54.8001L70.8 22.8001C72 20.8001 72 18.4001 70 17.2001C68.4 16.0001 66 16.0001 64.8 17.6001L40 46.0001L30.8 37.2001Z" fill="#FFF8F8"/>
<path d="M76 36C73.6 36 72 37.6 72 40C72 57.6 57.6 72 40 72C22.4 72 8 57.6 8 40C8 31.6 11.2 23.6 17.2 17.6C23.2 11.2 31.2 8 40 8C42.4 8 45.2 8.4 47.6 8.8C49.6 9.6 52 8.4 52.8 6C53.6 3.6 52 2 50 1.2H49.6C46.4 0.4 43.2 0 40 0C18 0 0 18 0 40.4C0 50.8 4.4 61.2 11.6 68.4C19.2 76 29.2 80 39.6 80C61.6 80 79.6 62 79.6 40C80 37.6 78 36 76 36Z" fill="#FFF8F8"/>
</svg>
