<svg width="152" height="152" viewBox="0 0 152 152" fill="none" xmlns="http://www.w3.org/2000/svg">
<circle cx="76" cy="76" r="76" fill="#FFFDFD"/>
<path d="M36.5 37.375H39.625V40.5H36.5V37.375Z" fill="#003B7D"/>
<path d="M42.75 37.375H45.875V40.5H42.75V37.375Z" fill="#003B7D"/>
<path d="M49 37.375H52.125V40.5H49V37.375Z" fill="#003B7D"/>
<path d="M38.0625 71.75H63.0625C63.4769 71.75 63.8743 71.5854 64.1674 71.2924C64.4604 70.9993 64.625 70.6019 64.625 70.1875V54.5625C64.625 54.1481 64.4604 53.7507 64.1674 53.4576C63.8743 53.1646 63.4769 53 63.0625 53H38.0625C37.6481 53 37.2507 53.1646 36.9576 53.4576C36.6646 53.7507 36.5 54.1481 36.5 54.5625V70.1875C36.5 70.6019 36.6646 70.9993 36.9576 71.2924C37.2507 71.5854 37.6481 71.75 38.0625 71.75ZM39.625 56.125H61.5V68.625H39.625V56.125Z" fill="#003B7D"/>
<path d="M77.125 54.5625H102.125V57.6875H77.125V54.5625Z" fill="#003B7D"/>
<path d="M70.875 60.8125H99V63.9375H70.875V60.8125Z" fill="#003B7D"/>
<path d="M70.875 67.0625H92.75V70.1875H70.875V67.0625Z" fill="#003B7D"/>
<path d="M42.75 78H83.375V81.125H42.75V78Z" fill="#003B7D"/>
<path d="M36.5 84.25H77.125V87.375H36.5V84.25Z" fill="#003B7D"/>
<path d="M36.5 90.5H70.875V93.625H36.5V90.5Z" fill="#003B7D"/>
<path d="M36.5 96.75H70.875V99.875H36.5V96.75Z" fill="#003B7D"/>
<path d="M36.5 103H70.875V106.125H36.5V103Z" fill="#003B7D"/>
<path d="M36.5 78H39.625V81.125H36.5V78Z" fill="#003B7D"/>
<path d="M113.062 40.5H111.5V38.9375C111.5 36.8655 110.677 34.8784 109.212 33.4132C107.747 31.9481 105.76 31.125 103.688 31.125H34.9375C32.8655 31.125 30.8784 31.9481 29.4132 33.4132C27.9481 34.8784 27.125 36.8655 27.125 38.9375V107.688C27.125 109.76 27.9481 111.747 29.4132 113.212C30.8784 114.677 32.8655 115.5 34.9375 115.5H36.5V117.062C36.5 119.135 37.3231 121.122 38.7882 122.587C40.2534 124.052 42.2405 124.875 44.3125 124.875H113.062C115.135 124.875 117.122 124.052 118.587 122.587C120.052 121.122 120.875 119.135 120.875 117.062V48.3125C120.875 46.2405 120.052 44.2534 118.587 42.7882C117.122 41.3231 115.135 40.5 113.062 40.5ZM110.266 64.7812L116.906 71.4219L112.484 75.8438L105.844 69.2031L110.266 64.7812ZM82.0156 96.2031L83.25 93L88.6875 98.4375L85.4844 99.6719L82.0156 96.2031ZM82.2969 100.891L79.8438 101.844L80.7969 99.3906L82.2969 100.891ZM87.0625 92.4062L84.8594 90.2031L103.641 71.4219L105.844 73.625L87.0625 92.4062ZM108.062 75.8438L110.266 78.0469L91.4844 96.8281L89.2812 94.625L108.062 75.8438ZM30.25 38.9375C30.2537 37.6954 30.7488 36.5053 31.627 35.627C32.5053 34.7488 33.6954 34.2537 34.9375 34.25H103.688C104.93 34.2537 106.12 34.7488 106.998 35.627C107.876 36.5053 108.371 37.6954 108.375 38.9375V43.625H30.25V38.9375ZM34.9375 112.375C33.6954 112.371 32.5053 111.876 31.627 110.998C30.7488 110.12 30.2537 108.93 30.25 107.688V46.75H108.375V62.2656L81.5469 89.0937C81.3903 89.249 81.2679 89.4353 81.1875 89.6406L75.6719 104C75.5584 104.282 75.5305 104.59 75.5917 104.888C75.6528 105.185 75.8003 105.458 76.0156 105.672C76.3112 105.963 76.7099 106.126 77.125 106.125C77.3179 106.127 77.5092 106.089 77.6875 106.016L92.0469 100.5C92.2522 100.42 92.4385 100.297 92.5938 100.141L108.375 84.3594V107.688C108.371 108.93 107.876 110.12 106.998 110.998C106.12 111.876 104.93 112.371 103.688 112.375H34.9375ZM117.75 117.062C117.746 118.305 117.251 119.495 116.373 120.373C115.495 121.251 114.305 121.746 113.062 121.75H44.3125C43.0704 121.746 41.8803 121.251 41.002 120.373C40.1238 119.495 39.6287 118.305 39.625 117.062V115.5H103.688C105.76 115.5 107.747 114.677 109.212 113.212C110.677 111.747 111.5 109.76 111.5 107.688V81.2344L117.75 74.9844V117.062ZM117.75 67.8438L111.5 61.5938V56.125H117.75V67.8438ZM117.75 53H111.5V43.625H113.062C114.305 43.6287 115.495 44.1238 116.373 45.002C117.251 45.8803 117.746 47.0704 117.75 48.3125V53Z" fill="#003B7D"/>
<path d="M70.875 54.5625H74V57.6875H70.875V54.5625Z" fill="#003B7D"/>
</svg>
