<svg width="102" height="102" viewBox="0 0 102 102" fill="none" xmlns="http://www.w3.org/2000/svg">
<circle cx="51" cy="51" r="51" fill="#00549A"/>
<path fill-rule="evenodd" clip-rule="evenodd" d="M60.4419 44.9421H41.8953C38.9156 44.9421 36.5 47.3577 36.5 50.3374V57.4188C36.5 60.3986 38.9156 62.8142 41.8953 62.8142H60.4419C63.4216 62.8142 65.8372 60.3986 65.8372 57.4188V50.3374C65.8372 47.3577 63.4216 44.9421 60.4419 44.9421ZM41.8953 43.5933C38.1706 43.5933 35.1512 46.6127 35.1512 50.3374V57.4188C35.1512 61.1436 38.1706 64.163 41.8953 64.163H60.4419C64.1666 64.163 67.186 61.1436 67.186 57.4188V50.3374C67.186 46.6127 64.1666 43.5933 60.4419 43.5933H41.8953Z" fill="white"/>
<path fill-rule="evenodd" clip-rule="evenodd" d="M60.4419 67.5349H41.8953C38.9156 67.5349 36.5 69.9505 36.5 72.9302V80.0116C36.5 82.9914 38.9156 85.407 41.8953 85.407H60.4419C63.4216 85.407 65.8372 82.9914 65.8372 80.0116V72.9302C65.8372 69.9505 63.4216 67.5349 60.4419 67.5349ZM41.8953 66.186C38.1706 66.186 35.1512 69.2055 35.1512 72.9302V80.0116C35.1512 83.7363 38.1706 86.7558 41.8953 86.7558H60.4419C64.1666 86.7558 67.186 83.7363 67.186 80.0116V72.9302C67.186 69.2055 64.1666 66.186 60.4419 66.186H41.8953Z" fill="white"/>
<path fill-rule="evenodd" clip-rule="evenodd" d="M44.2558 30.442C44.2558 30.0695 44.5578 29.7676 44.9302 29.7676H57.7442C58.1167 29.7676 58.4186 30.0695 58.4186 30.442C58.4186 30.8145 58.1167 31.1164 57.7442 31.1164H44.9302C44.5578 31.1164 44.2558 30.8145 44.2558 30.442Z" fill="white"/>
<path fill-rule="evenodd" clip-rule="evenodd" d="M41.8953 53.0348C41.8953 52.6623 42.1973 52.3604 42.5698 52.3604H55.3837C55.7562 52.3604 56.0581 52.6623 56.0581 53.0348C56.0581 53.4072 55.7562 53.7092 55.3837 53.7092H42.5698C42.1973 53.7092 41.8953 53.4072 41.8953 53.0348Z" fill="white"/>
<path fill-rule="evenodd" clip-rule="evenodd" d="M57.407 53.0348C57.407 52.6623 57.7089 52.3604 58.0814 52.3604L59.4302 52.3604C59.8027 52.3604 60.1047 52.6623 60.1047 53.0348C60.1047 53.4072 59.8027 53.7092 59.4302 53.7092L58.0814 53.7092C57.7089 53.7092 57.407 53.4072 57.407 53.0348Z" fill="white"/>
<path fill-rule="evenodd" clip-rule="evenodd" d="M49.9884 21.6744C49.9884 21.3019 50.2903 21 50.6628 21L52.0116 21C52.3841 21 52.686 21.3019 52.686 21.6744C52.686 22.0469 52.3841 22.3488 52.0116 22.3488L50.6628 22.3488C50.2903 22.3488 49.9884 22.0469 49.9884 21.6744Z" fill="white"/>
<path fill-rule="evenodd" clip-rule="evenodd" d="M44.2558 75.628C44.2558 75.2556 44.5578 74.9536 44.9302 74.9536H57.7442C58.1167 74.9536 58.4186 75.2556 58.4186 75.628C58.4186 76.0005 58.1167 76.3025 57.7442 76.3025H44.9302C44.5578 76.3025 44.2558 76.0005 44.2558 75.628Z" fill="white"/>
<path fill-rule="evenodd" clip-rule="evenodd" d="M46.6163 21H41.8953C38.1706 21 35.1512 24.0195 35.1512 27.7442V34.8256C35.1512 38.5503 38.1706 41.5698 41.8953 41.5698H60.4419C64.1666 41.5698 67.186 38.5503 67.186 34.8256V27.7442C67.186 24.0195 64.1666 21 60.4419 21H56.0581V22.3488H60.4419C63.4216 22.3488 65.8372 24.7644 65.8372 27.7442V34.8256C65.8372 37.8053 63.4216 40.2209 60.4419 40.2209H41.8953C38.9156 40.2209 36.5 37.8053 36.5 34.8256V27.7442C36.5 24.7644 38.9156 22.3488 41.8953 22.3488H46.6163V21Z" fill="white"/>
<path fill-rule="evenodd" clip-rule="evenodd" d="M72.5814 72.5932H73.2558C76.9805 72.5932 80 69.5737 80 65.849V58.7676C80 55.0429 76.9805 52.0234 73.2558 52.0234H68.5349V53.3723H73.2558C76.2356 53.3723 78.6512 55.7879 78.6512 58.7676V65.849C78.6512 68.8288 76.2356 71.2444 73.2558 71.2444H72.5814V72.5932Z" fill="white"/>
<path fill-rule="evenodd" clip-rule="evenodd" d="M29.4186 50.3373H28.7442C25.0195 50.3373 22 47.3179 22 43.5932V36.5118C22 32.7871 25.0195 29.7676 28.7442 29.7676H33.4651V31.1164H28.7442C25.7644 31.1164 23.3488 33.532 23.3488 36.5118V43.5932C23.3488 46.5729 25.7644 48.9885 28.7442 48.9885H29.4186V50.3373Z" fill="white"/>
<g clip-path="url(#clip0_1614_826)">
<path d="M71.1237 72.5522L75.6366 75.8125C75.741 75.8879 75.869 75.9182 75.9969 75.8976C76.1249 75.8769 76.2369 75.808 76.3123 75.7036L76.5524 75.3713C76.7086 75.1548 76.6597 74.8518 76.4435 74.6956L72.6539 71.9578L75.3947 68.164C75.4701 68.0596 75.5004 67.9317 75.4798 67.8038C75.4592 67.6758 75.3902 67.5638 75.2858 67.4883L74.9535 67.2483C74.849 67.1729 74.7211 67.1426 74.5932 67.1632C74.4652 67.1839 74.3532 67.2528 74.2778 67.3572L71.0144 71.8742C70.9389 71.9789 70.9088 72.1074 70.9297 72.2355C70.9502 72.3641 71.019 72.4765 71.1237 72.5522Z" fill="white"/>
</g>
<path d="M31.0125 50.4541L26.4996 53.7143C26.3952 53.7898 26.2673 53.82 26.1393 53.7994C26.0114 53.7788 25.8993 53.7099 25.8239 53.6054L25.5838 53.2732C25.4276 53.0567 25.4765 52.7536 25.6927 52.5975L29.4823 49.8597L26.7415 46.0659C26.6661 45.9615 26.6358 45.8335 26.6564 45.7056C26.677 45.5776 26.746 45.4657 26.8504 45.3901L27.1827 45.1502C27.2872 45.0747 27.4151 45.0445 27.543 45.0651C27.671 45.0857 27.783 45.1546 27.8584 45.2591L31.1218 49.776C31.1973 49.8808 31.2274 50.0093 31.2065 50.1373C31.1861 50.266 31.1172 50.3784 31.0125 50.4541Z" fill="white"/>
<path d="M70.9941 30.6286L77.2938 30.6921C77.5858 30.695 77.8199 30.934 77.817 31.2259C77.814 31.5178 77.5751 31.752 77.2832 31.7491L70.9835 31.6856C70.6915 31.6826 70.4574 31.4437 70.4603 31.1517C70.4633 30.8598 70.7022 30.6256 70.9941 30.6286Z" fill="white"/>
<path d="M73.4397 28.1532C73.5815 28.1546 73.7226 28.2129 73.8257 28.3262C74.022 28.5421 74.0059 28.8764 73.79 29.0728L71.4969 31.1569L73.8162 33.2932C74.0309 33.4909 74.0446 33.8253 73.8469 34.04C73.6492 34.2547 73.3148 34.2685 73.1001 34.0708L70.356 31.5431C70.2468 31.4426 70.185 31.301 70.1855 31.1525C70.1859 31.0041 70.2486 30.8629 70.3585 30.7632L73.0791 28.2905C73.1817 28.1973 73.3111 28.1519 73.4397 28.1532Z" fill="white"/>
<path d="M26.4825 72.4425L32.7822 72.506C33.0741 72.509 33.3083 72.7479 33.3054 73.0399C33.3024 73.3318 33.0635 73.566 32.7715 73.563L26.4719 73.4995C26.1799 73.4966 25.9458 73.2576 25.9487 72.9657C25.9516 72.6738 26.1906 72.4396 26.4825 72.4425Z" fill="white"/>
<path d="M28.928 69.9671C29.0699 69.9686 29.2109 70.0269 29.314 70.1402C29.5104 70.3561 29.4943 70.6904 29.2784 70.8867L26.9852 72.9709L29.3045 75.1072C29.5193 75.3049 29.533 75.6393 29.3353 75.854C29.1375 76.0687 28.8032 76.0825 28.5884 75.8847L25.8443 73.357C25.7352 73.2566 25.6734 73.1149 25.6738 72.9665C25.6743 72.8181 25.737 72.6769 25.8469 72.5771L28.5674 70.1045C28.6701 70.0113 28.7995 69.9658 28.928 69.9671Z" fill="white"/>
<defs>
<clipPath id="clip0_1614_826">
<rect width="8.84639" height="8.84639" fill="white" transform="translate(78.5655 75.4839) rotate(170.846)"/>
</clipPath>
</defs>
</svg>
