<svg width="102" height="102" viewBox="0 0 102 102" fill="none" xmlns="http://www.w3.org/2000/svg">
<circle cx="51" cy="51" r="51" fill="#00549A"/>
<g clip-path="url(#clip0_1614_829)">
<path fill-rule="evenodd" clip-rule="evenodd" d="M67.679 59.0172C67.3509 59.0172 67.0228 58.8942 66.8178 58.5661L64.3574 55.1215L61.7739 58.6071C60.9537 59.7143 59.2724 58.4431 60.0926 57.3359L63.0861 53.3172L60.1746 49.2574C59.3544 48.1502 61.0767 46.879 61.8969 48.0272L64.3984 51.5538L66.9408 48.1502C67.761 47.043 69.4423 48.3142 68.6221 49.4214L65.7106 53.3582L68.5401 57.3359C69.0322 58.033 68.4991 59.0172 67.679 59.0172ZM69.2783 34.1256H28.6807C27.3275 34.1256 27.3275 32.0342 28.6807 32.0342H69.2783C70.6725 32.0342 70.6725 34.1256 69.2783 34.1256ZM69.2783 40.0717H28.6807C27.3275 40.0717 27.3275 37.9393 28.6807 37.9393H69.2783C70.6725 37.9393 70.6725 40.0717 69.2783 40.0717ZM76.9467 69.4742V32.1572C76.9467 26.4162 73.6251 21.7823 69.5653 21.7823H28.4347C24.3339 21.7823 21.0533 26.4162 21.0533 32.1572V69.4742H42.7873H42.8284H42.8694H42.9104H42.9514H42.9924L43.0334 69.5152H43.0744H43.1154L43.1564 69.5562H43.1974H43.2384V69.5972H43.2794L43.3204 69.6382H43.3615L43.4025 69.6792L43.4435 69.7202H43.4845V69.7612H43.5255C43.5255 69.8022 43.8125 70.2123 43.8125 70.5404V73.6979H54.1465V70.5404C54.1465 69.7612 54.5565 69.7202 55.0076 69.4742H55.1716H55.2127H55.2537H76.9467ZM18.9209 69.4742V32.1572C18.9209 25.2679 23.1857 19.6499 28.4347 19.6499H69.5653C74.8143 19.6499 79.0791 25.2679 79.0791 32.1572V69.4742H82.9338C83.5079 69.4742 84 69.9252 84 70.5404C84 77.0196 78.71 82.3095 72.1898 82.3095H25.8102C19.29 82.3095 14 77.0196 14 70.5404C14 69.9252 14.4921 69.4742 15.0662 69.4742H18.9209ZM41.7211 71.5655H16.1734C16.7065 76.4044 20.8073 80.2182 25.8102 80.2182H72.1898C77.1517 80.2182 81.2935 76.4044 81.8266 71.5655H56.2789V74.7641C56.2789 75.3382 55.7868 75.8303 55.2127 75.8303H42.7463C42.1722 75.8303 41.7211 75.3793 41.7211 74.7641V71.5655ZM43.5665 61.3136C42.8694 61.3136 42.3363 60.6575 42.5413 59.9604L46.437 45.3617C46.8061 44.0494 48.8565 44.6235 48.4874 45.9358L44.5917 60.5345C44.4687 60.9856 44.0176 61.3136 43.5665 61.3136ZM53.9824 59.0582C51.645 59.0582 49.8817 57.5409 50.0047 55.1215V48.6013C50.0047 47.248 52.0961 47.248 52.0961 48.6013C52.0961 49.9135 52.1781 54.3423 52.0961 55.2855C51.891 57.4999 56.0328 57.4999 55.8278 55.2855C55.7458 54.3834 55.8278 49.8725 55.8278 48.6013C55.8278 47.248 57.9602 47.248 57.9602 48.6013V55.1215C58.0422 57.5409 56.2789 59.0582 53.9824 59.0582ZM33.1506 58.3611C30.8131 58.3611 29.0498 56.8438 29.1728 54.4244V47.9042C29.1728 46.5509 31.2642 46.5509 31.2642 47.9042C31.2642 49.2574 31.3462 53.5632 31.2642 54.5884C31.1002 56.8028 35.2009 56.8028 34.9959 54.5884C34.9139 53.5632 34.9959 49.2574 34.9959 47.9042C34.9959 46.5509 37.1283 46.5509 37.1283 47.9042V54.4244C37.2103 56.8438 35.447 58.3611 33.1506 58.3611ZM40.2449 58.3201C39.6708 58.3201 39.1787 57.869 39.1787 57.2539V47.9452C39.1787 46.5509 41.3111 46.5509 41.3111 47.9452V57.2539C41.3111 57.869 40.819 58.3201 40.2449 58.3201Z" fill="white"/>
</g>
<defs>
<clipPath id="clip0_1614_829">
<rect width="70" height="70" fill="white" transform="translate(14 16)"/>
</clipPath>
</defs>
</svg>
