<svg width="202" height="202" viewBox="0 0 202 202" fill="none" xmlns="http://www.w3.org/2000/svg">
<circle cx="101" cy="101" r="101" fill="#00549A"/>
<g clip-path="url(#clip0_667_542)">
<path d="M155.995 148.233L128.628 121.303C135.794 113.517 140.198 103.219 140.198 91.8876C140.194 67.6476 120.229 48 95.5977 48C70.9668 48 51.001 67.6476 51.001 91.8876C51.001 116.128 70.9668 135.775 95.5977 135.775C106.24 135.775 116.001 132.094 123.668 125.975L151.141 153.011C152.48 154.33 154.653 154.33 155.992 153.011C157.334 151.692 157.334 149.552 155.995 148.233ZM95.5977 129.023C74.7572 129.023 57.8628 112.397 57.8628 91.8876C57.8628 71.3783 74.7572 54.7524 95.5977 54.7524C116.438 54.7524 133.333 71.3783 133.333 91.8876C133.333 112.397 116.438 129.023 95.5977 129.023Z" fill="white"/>
</g>
<defs>
<clipPath id="clip0_667_542">
<rect width="106" height="106" fill="white" transform="translate(51 48)"/>
</clipPath>
</defs>
</svg>
