<svg width="284" height="309" viewBox="0 0 284 309" fill="none" xmlns="http://www.w3.org/2000/svg">
<g filter="url(#filter0_d_644_3829)">
<path fill-rule="evenodd" clip-rule="evenodd" d="M4.60742 15.9712C4.60742 7.68692 11.3232 0.971191 19.6074 0.971191H264.607C272.892 0.971191 279.607 7.68692 279.607 15.9712V22.6378H277.995C270.632 22.6378 264.662 28.6074 264.662 35.9712C264.662 43.335 270.632 49.3045 277.995 49.3045H279.607V80.9712H277.995C270.632 80.9712 264.662 86.9407 264.662 94.3045C264.662 101.668 270.632 107.638 277.995 107.638H279.607V137.638H277.995C270.632 137.638 264.662 143.607 264.662 150.971C264.662 158.335 270.632 164.305 277.995 164.305H279.607V194.304H277.995C270.632 194.304 264.662 200.274 264.662 207.638C264.662 215.002 270.632 220.971 277.995 220.971H279.607V250.971H277.995C270.632 250.971 264.662 256.941 264.662 264.305C264.662 271.668 270.632 277.638 277.995 277.638H279.607V285.971C279.607 294.255 272.892 300.971 264.607 300.971H19.6074C11.3232 300.971 4.60742 294.255 4.60742 285.971V272.638H9.20866C16.5725 272.638 22.542 266.668 22.542 259.305C22.542 251.941 16.5725 245.971 9.20866 245.971H4.60742V207.638H9.20866C16.5725 207.638 22.542 201.668 22.542 194.305C22.542 186.941 16.5725 180.971 9.20866 180.971H4.60742V155.971H9.20866C16.5725 155.971 22.542 150.002 22.542 142.638C22.542 135.274 16.5725 129.305 9.20866 129.305H4.60742V102.638H9.20866C16.5725 102.638 22.542 96.6684 22.542 89.3046C22.542 81.9408 16.5725 75.9712 9.20866 75.9712H4.60742V49.3045H9.20866C16.5725 49.3045 22.542 43.335 22.542 35.9712C22.542 28.6074 16.5725 22.6378 9.20866 22.6378H4.60742V15.9712Z" fill="#99BFDA"/>
</g>
<defs>
<filter id="filter0_d_644_3829" x="0.607422" y="0.971191" width="283" height="308" filterUnits="userSpaceOnUse" color-interpolation-filters="sRGB">
<feFlood flood-opacity="0" result="BackgroundImageFix"/>
<feColorMatrix in="SourceAlpha" type="matrix" values="0 0 0 0 0 0 0 0 0 0 0 0 0 0 0 0 0 0 127 0" result="hardAlpha"/>
<feOffset dy="4"/>
<feGaussianBlur stdDeviation="2"/>
<feComposite in2="hardAlpha" operator="out"/>
<feColorMatrix type="matrix" values="0 0 0 0 0 0 0 0 0 0 0 0 0 0 0 0 0 0 0.25 0"/>
<feBlend mode="normal" in2="BackgroundImageFix" result="effect1_dropShadow_644_3829"/>
<feBlend mode="normal" in="SourceGraphic" in2="effect1_dropShadow_644_3829" result="shape"/>
</filter>
</defs>
</svg>
