<svg width="622" height="656" viewBox="0 0 622 656" fill="none" xmlns="http://www.w3.org/2000/svg">
<g clip-path="url(#clip0_748_542)">
<path d="M456.687 631.633L417.985 606.937L468.396 621.366C500.066 591.119 523.265 549.214 523.265 549.214C523.265 549.214 438.444 497.434 386.195 511.252C333.947 525.069 323.92 560.946 334.056 599.251C344.191 637.556 370.651 663.784 422.9 649.966C434.529 646.891 445.952 640.188 456.687 631.633Z" fill="#F2F2F2"/>
<path d="M414.135 598.971L411.56 599.652C381.583 607.416 356.89 608.546 337.823 602.991C337.543 602.915 337.274 602.823 336.994 602.747L337.376 601.459L337.76 600.226C358.427 606.516 384.56 603.765 410.708 597C411.553 596.79 412.41 596.577 413.261 596.338C424.305 593.377 435.308 589.744 445.884 585.788C446.705 585.489 447.535 585.174 448.366 584.859C462.299 579.565 475.418 573.777 486.727 568.414C487.528 568.038 488.326 567.65 489.11 567.265C508.214 558.108 521.752 550.341 524.741 548.596C525.109 548.389 525.309 548.268 525.357 548.242L526.021 549.362L526.038 549.371L526.706 550.504C526.658 550.53 525.989 550.939 524.732 551.653C520.044 554.352 507.275 561.52 490.117 569.781C489.342 570.15 488.544 570.538 487.743 570.913C478.571 575.276 468.253 579.9 457.303 584.296C454.554 585.405 451.833 586.465 449.141 587.477C448.313 587.805 447.483 588.12 446.662 588.419C435.229 592.697 424.387 596.215 414.135 598.971Z" fill="white"/>
<path d="M490.118 569.781C489.777 568.957 489.433 568.121 489.111 567.265C488.233 564.942 487.475 562.575 486.839 560.174C484.118 549.945 483.727 539.236 485.695 528.837C484.878 528.48 484.061 528.123 483.227 527.757C481.055 538.725 481.418 550.043 484.289 560.848C484.968 563.411 485.782 565.937 486.728 568.414C487.046 569.257 487.39 570.093 487.744 570.913C490.62 577.695 494.511 584.001 499.281 589.615C499.837 588.881 500.384 588.164 500.922 587.463C496.469 582.133 492.829 576.175 490.118 569.781Z" fill="white"/>
<path d="M449.141 587.477C448.857 586.611 448.599 585.738 448.366 584.859C448.283 584.595 448.208 584.314 448.138 584.047C445.204 572.959 444.995 561.327 447.53 550.142C450.064 538.956 455.267 528.55 462.693 519.809C461.806 519.498 460.919 519.187 460.023 518.892C452.559 527.929 447.357 538.615 444.846 550.062C442.336 561.51 442.59 573.391 445.588 584.721C445.682 585.078 445.777 585.435 445.884 585.788C446.133 586.677 446.391 587.55 446.662 588.419C450.96 601.844 459.035 613.747 469.921 622.705C470.566 622.098 471.21 621.491 471.851 620.871C461.192 612.186 453.299 600.581 449.141 587.477Z" fill="white"/>
<path d="M414.136 598.971C413.823 598.099 413.536 597.221 413.262 596.338C412.971 595.393 412.692 594.443 412.439 593.487C408.514 578.584 409.523 562.811 415.316 548.53C421.108 534.248 431.372 522.226 444.57 514.264C443.385 513.964 442.214 513.66 441.036 513.385C428.011 521.868 417.991 534.238 412.4 548.739C406.808 563.24 405.93 579.133 409.889 594.162C410.142 595.118 410.408 596.07 410.708 597C410.973 597.898 411.26 598.777 411.56 599.652C417.739 617.301 430.396 631.943 446.967 640.613C447.84 640.095 448.69 639.543 449.552 638.988C432.991 630.761 420.287 616.407 414.136 598.971Z" fill="white"/>
<path d="M362.928 651.232L171.54 574.217C160.071 569.587 150.907 560.598 146.06 549.221C141.212 537.845 141.076 525.012 145.682 513.536L340.68 29.2253C345.312 17.7596 354.304 8.59875 365.683 3.75247C377.062 -1.09382 389.9 -1.22976 401.379 3.37449L592.767 80.3899C604.236 85.0201 613.399 94.0093 618.247 105.385C623.095 116.761 623.23 129.595 618.625 141.071L423.626 625.382C418.995 636.847 410.003 646.008 398.624 650.854C387.245 655.701 374.407 655.837 362.928 651.232Z" fill="#3F3D56"/>
<path d="M585.217 92.9597L563.914 84.387C562.012 83.6238 559.884 83.6461 557.999 84.4492C556.113 85.2522 554.623 86.7704 553.856 88.6704C552.288 92.5551 549.242 95.6591 545.387 97.3009C541.531 98.9428 537.182 98.9884 533.293 97.4279L429.102 55.5008C425.216 53.9328 422.111 50.8876 420.469 47.0335C418.827 43.1795 418.781 38.8314 420.342 34.9437C421.106 33.0422 421.083 30.9155 420.28 29.0304C419.477 27.1454 417.958 25.6559 416.057 24.889L397.273 17.33C388.566 13.8393 378.83 13.9431 370.2 17.6186C361.57 21.2941 354.75 28.2413 351.236 36.9365L157.624 517.804C154.132 526.508 154.236 536.241 157.912 544.869C161.589 553.497 168.538 560.315 177.236 563.828L365.18 639.457C373.887 642.948 383.623 642.844 392.253 639.169C400.883 635.493 407.703 628.546 411.217 619.851L604.829 138.983C608.321 130.279 608.217 120.546 604.541 111.918C600.864 103.29 593.915 96.4725 585.217 92.9597Z" fill="white"/>
<path d="M512.339 74.8514L453.56 51.1982C453.003 50.9741 452.558 50.5382 452.323 49.9862C452.087 49.4342 452.081 48.8113 452.305 48.2547C452.529 47.6981 452.965 47.2533 453.518 47.0182C454.07 46.783 454.693 46.7768 455.25 47.0008L514.029 70.6541C514.305 70.765 514.556 70.9291 514.768 71.1371C514.981 71.345 515.15 71.5928 515.266 71.8661C515.383 72.1394 515.444 72.433 515.447 72.7301C515.45 73.0272 515.395 73.3219 515.284 73.5975C515.173 73.8731 515.008 74.1242 514.8 74.3363C514.592 74.5485 514.345 74.7176 514.071 74.8341C513.798 74.9505 513.504 75.012 513.207 75.015C512.91 75.0179 512.615 74.9624 512.339 74.8514Z" fill="white"/>
<path d="M522.421 78.2795C523.421 78.2795 524.231 77.4692 524.231 76.4697C524.231 75.4701 523.421 74.6598 522.421 74.6598C521.421 74.6598 520.61 75.4701 520.61 76.4697C520.61 77.4692 521.421 78.2795 522.421 78.2795Z" fill="white"/>
<path d="M560.829 289.461C559.828 289.057 559.028 288.272 558.605 287.279C558.181 286.286 558.169 285.165 558.572 284.163L588.315 210.289C588.72 209.289 589.505 208.489 590.498 208.067C591.492 207.644 592.612 207.633 593.614 208.036C594.615 208.439 595.416 209.223 595.839 210.216C596.263 211.209 596.275 212.329 595.873 213.331L566.129 287.204C565.725 288.205 564.939 289.005 563.946 289.428C562.952 289.852 561.832 289.863 560.829 289.461Z" fill="#3F3D56"/>
<path d="M303.176 122.374C302.175 121.969 301.374 121.185 300.951 120.191C300.528 119.198 300.516 118.078 300.918 117.076L307.678 100.286C307.877 99.789 308.173 99.3362 308.547 98.9534C308.921 98.5706 309.367 98.2653 309.86 98.0551C310.352 97.8448 310.882 97.7337 311.417 97.7281C311.952 97.7225 312.484 97.8225 312.981 98.0225C313.477 98.2224 313.93 98.5182 314.312 98.8931C314.694 99.268 314.999 99.7146 315.208 100.207C315.418 100.7 315.528 101.229 315.533 101.765C315.537 102.3 315.436 102.831 315.236 103.327L308.476 120.117C308.071 121.118 307.286 121.918 306.293 122.341C305.299 122.764 304.178 122.776 303.176 122.374Z" fill="#3F3D56"/>
<path d="M290.67 153.434C289.669 153.03 288.869 152.245 288.445 151.252C288.022 150.259 288.01 149.138 288.412 148.136L295.172 131.347C295.371 130.85 295.667 130.397 296.041 130.014C296.415 129.631 296.861 129.325 297.354 129.115C297.847 128.905 298.376 128.794 298.911 128.788C299.447 128.782 299.978 128.882 300.475 129.082C300.972 129.282 301.424 129.578 301.807 129.953C302.189 130.328 302.494 130.775 302.703 131.267C302.912 131.76 303.023 132.29 303.027 132.825C303.032 133.36 302.931 133.891 302.73 134.388L295.97 151.177C295.565 152.178 294.78 152.978 293.787 153.401C292.793 153.824 291.672 153.836 290.67 153.434Z" fill="#3F3D56"/>
<path d="M470.253 224.738L388.949 192.021C387.283 191.346 385.952 190.039 385.247 188.385C384.543 186.732 384.522 184.867 385.188 183.199L404.701 134.735C405.377 133.069 406.684 131.739 408.337 131.035C409.991 130.33 411.856 130.309 413.525 130.975L494.829 163.692C496.495 164.367 497.826 165.674 498.53 167.327C499.235 168.98 499.257 170.845 498.59 172.513L479.077 220.978C478.402 222.643 477.094 223.973 475.441 224.678C473.787 225.382 471.922 225.404 470.253 224.738ZM412.155 134.385C411.39 134.08 410.535 134.09 409.777 134.413C409.019 134.736 408.42 135.345 408.11 136.108L388.599 184.569C388.294 185.334 388.304 186.189 388.627 186.946C388.95 187.704 389.56 188.303 390.323 188.613L471.621 221.327C472.386 221.633 473.242 221.623 474 221.3C474.759 220.977 475.358 220.367 475.668 219.604L495.18 171.144C495.485 170.379 495.475 169.524 495.152 168.766C494.828 168.009 494.218 167.41 493.455 167.1L412.155 134.385Z" fill="#3F3D56"/>
<path d="M470.735 193.899L470.73 193.897L407.969 168.642C407.094 168.287 406.35 167.672 405.837 166.879C405.324 166.087 405.068 165.156 405.103 164.212L406.288 134.826C406.317 134.093 406.522 133.379 406.885 132.742C407.248 132.105 407.759 131.565 408.374 131.167C408.99 130.768 409.692 130.524 410.422 130.453C411.151 130.382 411.887 130.487 412.568 130.759L495.627 164.019C496.749 164.469 497.649 165.345 498.128 166.455C498.607 167.565 498.628 168.82 498.185 169.945L498.457 170.218L495.853 172.811L495.853 172.81L475.674 192.895C475.04 193.528 474.234 193.961 473.356 194.139C472.477 194.318 471.566 194.234 470.735 193.899Z" fill="#3F3D56"/>
<path d="M423.607 196.036L395.694 184.804C395.006 184.527 394.457 183.988 394.167 183.307C393.876 182.625 393.869 181.856 394.146 181.168C394.422 180.481 394.961 179.932 395.642 179.641C396.324 179.351 397.094 179.343 397.781 179.619L425.694 190.851C426.382 191.128 426.931 191.667 427.221 192.349C427.512 193.03 427.519 193.799 427.242 194.487C426.966 195.174 426.427 195.723 425.745 196.014C425.064 196.305 424.294 196.313 423.607 196.036V196.036Z" fill="#3F3D56"/>
<path d="M440.888 186.739C444.661 186.739 447.721 183.681 447.721 179.908C447.721 176.135 444.661 173.077 440.888 173.077C437.114 173.077 434.055 176.135 434.055 179.908C434.055 183.681 437.114 186.739 440.888 186.739Z" fill="white"/>
<path d="M349.017 525.848L267.712 493.131C266.047 492.456 264.716 491.149 264.011 489.496C263.306 487.843 263.285 485.978 263.952 484.309L283.465 435.845C284.14 434.18 285.448 432.849 287.101 432.145C288.755 431.44 290.62 431.419 292.289 432.086L373.593 464.803C375.259 465.478 376.589 466.784 377.294 468.437C377.999 470.09 378.02 471.955 377.354 473.624L357.841 522.088C357.165 523.753 355.858 525.083 354.205 525.788C352.551 526.493 350.686 526.514 349.017 525.848ZM290.918 435.495C290.153 435.19 289.298 435.2 288.541 435.523C287.783 435.846 287.184 436.456 286.874 437.219L267.362 485.679C267.057 486.444 267.067 487.299 267.39 488.057C267.713 488.814 268.323 489.413 269.087 489.723L350.385 522.438C351.15 522.743 352.006 522.733 352.764 522.41C353.522 522.087 354.122 521.477 354.432 520.714L373.943 472.254C374.248 471.489 374.238 470.634 373.915 469.877C373.592 469.119 372.982 468.52 372.219 468.211L290.918 435.495Z" fill="#3F3D56"/>
<path d="M349.499 495.009L349.494 495.007L286.733 469.752C285.858 469.397 285.114 468.782 284.601 467.99C284.088 467.197 283.831 466.266 283.866 465.323L285.051 435.936C285.081 435.204 285.286 434.489 285.649 433.852C286.012 433.216 286.523 432.676 287.138 432.277C287.754 431.879 288.456 431.634 289.185 431.563C289.915 431.492 290.651 431.597 291.331 431.87L374.39 465.129C375.513 465.579 376.412 466.455 376.892 467.565C377.371 468.675 377.391 469.93 376.949 471.055L377.221 471.328L374.617 473.921L374.616 473.92L354.438 494.005C353.804 494.638 352.998 495.071 352.119 495.25C351.241 495.428 350.33 495.345 349.499 495.009Z" fill="#3F3D56"/>
<path d="M302.369 497.147L274.456 485.914C273.769 485.637 273.22 485.099 272.929 484.417C272.639 483.735 272.632 482.966 272.908 482.279C273.185 481.591 273.723 481.042 274.405 480.751C275.087 480.461 275.856 480.453 276.544 480.729L304.457 491.962C304.798 492.099 305.108 492.301 305.37 492.558C305.632 492.815 305.841 493.121 305.985 493.459C306.129 493.796 306.205 494.159 306.209 494.526C306.212 494.893 306.144 495.257 306.007 495.598C305.869 495.938 305.667 496.248 305.41 496.51C305.153 496.772 304.847 496.981 304.509 497.125C304.171 497.269 303.808 497.345 303.441 497.349C303.074 497.352 302.71 497.284 302.369 497.147Z" fill="#3F3D56"/>
<path d="M319.651 487.849C323.425 487.849 326.484 484.791 326.484 481.018C326.484 477.246 323.425 474.187 319.651 474.187C315.878 474.187 312.818 477.246 312.818 481.018C312.818 484.791 315.878 487.849 319.651 487.849Z" fill="white"/>
<path d="M381.226 403.11C422.502 403.11 455.963 369.658 455.963 328.394C455.963 287.129 422.502 253.677 381.226 253.677C339.949 253.677 306.488 287.129 306.488 328.394C306.488 369.658 339.949 403.11 381.226 403.11Z" fill="#6C63FF"/>
<path d="M409.59 375.275L328.286 342.558C326.62 341.883 325.289 340.576 324.584 338.923C323.88 337.269 323.858 335.404 324.525 333.736L344.038 285.272C344.714 283.607 346.021 282.276 347.674 281.572C349.328 280.867 351.193 280.846 352.862 281.512L434.166 314.229C435.832 314.904 437.163 316.211 437.867 317.864C438.572 319.517 438.594 321.382 437.927 323.051L418.414 371.515C417.738 373.18 416.431 374.51 414.778 375.215C413.124 375.919 411.259 375.941 409.59 375.275ZM351.492 284.922C350.727 284.617 349.872 284.627 349.114 284.95C348.356 285.273 347.757 285.882 347.447 286.646L327.936 335.106C327.63 335.871 327.64 336.726 327.964 337.484C328.287 338.241 328.896 338.84 329.66 339.15L410.958 371.865C411.723 372.17 412.579 372.16 413.337 371.837C414.095 371.514 414.695 370.904 415.005 370.141L434.517 321.681C434.822 320.916 434.812 320.061 434.488 319.303C434.165 318.546 433.555 317.947 432.792 317.637L351.492 284.922Z" fill="#3F3D56"/>
<path d="M410.072 344.436L410.067 344.434L347.306 319.179C346.431 318.824 345.687 318.209 345.174 317.417C344.661 316.624 344.405 315.693 344.44 314.75L345.624 285.363C345.654 284.631 345.859 283.916 346.222 283.279C346.585 282.643 347.096 282.102 347.711 281.704C348.327 281.306 349.029 281.061 349.758 280.99C350.488 280.919 351.224 281.024 351.905 281.297L434.964 314.556C436.086 315.006 436.985 315.882 437.465 316.992C437.944 318.102 437.965 319.357 437.522 320.482L437.794 320.755L435.19 323.348L435.189 323.347L415.011 343.432C414.377 344.065 413.571 344.498 412.693 344.677C411.814 344.855 410.903 344.771 410.072 344.436Z" fill="#3F3D56"/>
<path d="M362.944 346.573L335.03 335.341C334.343 335.064 333.794 334.525 333.504 333.844C333.213 333.162 333.206 332.393 333.482 331.706C333.759 331.018 334.298 330.469 334.979 330.178C335.661 329.888 336.43 329.88 337.118 330.156L365.031 341.388C365.719 341.665 366.268 342.204 366.558 342.886C366.848 343.567 366.856 344.337 366.579 345.024C366.303 345.711 365.764 346.261 365.082 346.551C364.401 346.842 363.631 346.85 362.944 346.573Z" fill="#3F3D56"/>
<path d="M179.262 383.085C179.269 381.656 178.963 380.242 178.364 378.944C177.766 377.646 176.89 376.495 175.799 375.572C174.707 374.648 173.427 373.976 172.047 373.601C170.667 373.226 169.222 373.158 167.813 373.402L150.985 343.002L142.607 358.997L159.872 385.413C160.439 387.752 161.844 389.802 163.821 391.174C165.799 392.546 168.211 393.146 170.601 392.859C172.991 392.572 175.193 391.419 176.789 389.617C178.385 387.816 179.265 385.492 179.262 383.085H179.262Z" fill="#9E616A"/>
<path d="M168.389 260.293L151.084 259.079C151.084 259.079 148.953 258.789 143.09 268.082C137.228 277.376 117.134 324.502 117.134 324.502L152.338 375.586L163.773 364.207L143.331 323.102L162.924 295.591L168.389 260.293Z" fill="#CACACA"/>
<path d="M359.166 315.518C358.006 315.96 356.764 316.143 355.526 316.053C354.288 315.963 353.084 315.603 352.001 314.998C350.917 314.393 349.979 313.558 349.253 312.551C348.527 311.545 348.031 310.391 347.799 309.172L317.948 304.779L328.394 293.089L355.14 299.054C357.214 298.8 359.31 299.316 361.029 300.504C362.748 301.692 363.972 303.469 364.468 305.498C364.964 307.528 364.699 309.669 363.721 311.515C362.744 313.362 361.123 314.786 359.166 315.518Z" fill="#9E616A"/>
<path d="M244.422 642.409H257.178L263.246 593.221L244.42 593.221L244.422 642.409Z" fill="#9E616A"/>
<path d="M241.168 638.246L244.758 638.246L258.776 632.547L266.289 638.245H266.29C270.536 638.245 274.608 639.931 277.61 642.933C280.612 645.934 282.299 650.005 282.299 654.249V654.769L241.169 654.771L241.168 638.246Z" fill="#2F2E41"/>
<path d="M167.474 642.409H180.23L186.299 593.221L167.473 593.221L167.474 642.409Z" fill="#9E616A"/>
<path d="M164.221 638.246L167.811 638.246L181.829 632.547L189.342 638.245H189.343C193.589 638.245 197.661 639.931 200.663 642.933C203.665 645.934 205.352 650.005 205.352 654.249V654.769L164.221 654.771L164.221 638.246Z" fill="#2F2E41"/>
<path d="M172.395 400.191L163.964 450.998L166.799 614.317H187.549L219.43 441.562L242.362 611.477L263.226 610.574L273.639 439.063L264.283 395.284L172.395 400.191Z" fill="#2F2E41"/>
<path d="M248.638 249.098L226.428 245.827L221.706 233.57L190.417 233.527L183.387 249.531L151.413 259.182L177.903 350.154C177.903 350.154 163.304 383.962 166.895 384.107C170.485 384.252 172.254 389.384 169.75 392.081C167.245 394.778 162.22 393.063 164.733 397.16C166.172 399.377 167.136 401.868 167.564 404.476C167.564 404.476 273.508 427.088 267.639 397.93C266.91 394.306 258.058 344.089 258.058 344.089C258.058 344.089 265.766 335.562 262.471 332.173C259.177 328.784 260.917 292.995 260.917 292.995L248.638 249.098Z" fill="#CACACA"/>
<path d="M245.002 253.074L248.637 249.099L298.021 278.047L339.807 294.707L340.617 309.283L286.349 302.805L247.941 284.029L245.002 253.074Z" fill="#CACACA"/>
<path d="M231.271 198.418C231.271 201.85 230.594 205.249 229.281 208.419C227.967 211.59 226.041 214.471 223.614 216.898C221.186 219.325 218.305 221.25 215.133 222.563C211.961 223.877 208.562 224.553 205.129 224.553C203.07 224.549 201.019 224.309 199.015 223.837C194.24 222.692 189.885 220.225 186.447 216.72C183.009 213.215 180.628 208.813 179.575 204.018C178.523 199.224 178.842 194.229 180.497 189.607C182.151 184.986 185.074 180.923 188.93 177.884C192.786 174.845 197.42 172.953 202.302 172.424C207.184 171.895 212.116 172.751 216.534 174.893C220.951 177.036 224.677 180.379 227.283 184.539C229.889 188.7 231.271 193.509 231.271 198.418V198.418Z" fill="#9E616A"/>
<path d="M212.131 219.611L193.356 223.231C191.606 223.704 189.774 223.78 187.991 223.454C185.198 222.719 183.326 220.142 181.898 217.633C175.269 205.881 173.181 192.106 176.03 178.919C176.671 176.007 178.042 172.672 180.964 172.079C181.813 171.907 182.773 171.975 183.445 171.429C184.435 170.624 184.109 168.918 183.137 168.092C182.081 167.364 180.835 166.959 179.553 166.927C180.381 165.953 181.407 165.166 182.562 164.617C183.717 164.068 184.975 163.769 186.253 163.741L181.231 160.951C183.65 159.273 186.9 159.426 189.754 160.151C192.608 160.876 195.354 162.104 198.286 162.379C201.966 162.724 205.598 161.541 209.266 161.084C214.74 160.491 220.269 161.479 225.198 163.932C230.127 166.384 234.249 170.198 237.075 174.922C238.072 176.497 238.703 178.275 238.923 180.126C239.024 181.052 238.907 181.988 238.583 182.861C238.259 183.734 237.735 184.518 237.054 185.153C234.998 186.882 231.759 186.628 229.768 188.431C228.232 189.82 227.85 192.064 227.764 194.132C227.677 196.2 227.775 198.361 226.889 200.232C226.002 202.103 223.688 203.51 221.838 202.58C221.756 200.018 218.802 198.204 216.293 198.733C213.784 199.262 211.931 201.543 211.209 204.003C210.488 206.462 210.702 209.091 211.016 211.635C211.331 214.179 211.739 216.753 211.387 219.292" fill="#2F2E41"/>
<path d="M377.308 338.034C381.081 338.034 384.141 334.976 384.141 331.203C384.141 327.431 381.081 324.372 377.308 324.372C373.534 324.372 370.475 327.431 370.475 331.203C370.475 334.976 373.534 338.034 377.308 338.034Z" fill="#6C63FF"/>
<path d="M525.252 656H0.964557C0.709262 655.999 0.464669 655.897 0.284409 655.717C0.104149 655.536 0.00292969 655.291 0.00292969 655.036C0.00292969 654.781 0.104149 654.536 0.284409 654.355C0.464669 654.174 0.709262 654.072 0.964557 654.072H525.252C525.508 654.072 525.754 654.173 525.934 654.354C526.115 654.535 526.217 654.78 526.217 655.036C526.217 655.292 526.115 655.537 525.934 655.718C525.754 655.898 525.508 656 525.252 656Z" fill="#CACACA"/>
</g>
<defs>
<clipPath id="clip0_748_542">
<rect width="622" height="656" fill="white"/>
</clipPath>
</defs>
</svg>
