<svg width="102" height="102" viewBox="0 0 102 102" fill="none" xmlns="http://www.w3.org/2000/svg">
<circle cx="51" cy="51" r="51" fill="#00549A"/>
<g clip-path="url(#clip0_1614_828)">
<path d="M61.0525 30.9609C60.9195 30.1168 60.3735 29.4063 59.5922 29.0604C58.8107 28.7145 57.9178 28.788 57.2035 29.2569C57.1827 29.2705 57.1625 29.2846 57.1426 29.2995L48.752 35.5499L39.966 36.9346C38.8883 37.1045 38.0812 37.9426 37.8945 38.9594L35.2785 39.3716C34.6176 39.4758 34.0368 39.8311 33.6431 40.3721C33.2495 40.9131 33.09 41.575 33.1942 42.2359L33.5842 44.7104C33.7785 45.9433 34.8463 46.8254 36.0571 46.8254C36.1862 46.8254 39.0635 46.3825 39.0635 46.3825C39.5538 47.34 40.7623 47.9066 41.874 47.6378L42.3716 50.795C42.5278 51.7864 43.0608 52.6575 43.8722 53.248C44.5216 53.7206 45.2871 53.9681 46.075 53.9681C46.2717 53.9681 46.4698 53.9528 46.668 53.9215C47.6593 53.7653 48.5306 53.2323 49.1211 52.4209C49.7116 51.6094 49.9507 50.6165 49.7945 49.6251L49.2968 46.4679L50.464 46.2839C50.464 46.2839 60.3533 49.3145 60.3651 49.3178C60.5861 49.3785 60.8105 49.4083 61.033 49.4083C61.64 49.4083 62.2322 49.1868 62.6985 48.77C63.3356 48.2005 63.6365 47.3565 63.5033 46.5125L61.0525 30.9609ZM47.0957 50.947C46.8988 51.2175 46.6085 51.3951 46.278 51.4473C45.948 51.4993 45.6167 51.4196 45.3461 51.2228C45.0756 51.0259 44.898 50.7355 44.8458 50.4051L44.3483 47.2479L46.8227 46.8579L47.3203 50.0151C47.3722 50.3456 47.2926 50.6765 47.0957 50.947ZM36.0585 44.3205L35.6685 41.846L38.1428 41.456L38.5328 43.9304L36.0585 44.3205ZM41.2683 45.1975L40.356 39.409L48.2102 38.1711L49.1225 43.9596L41.2683 45.1975ZM51.67 44.0336L50.6073 37.2914L58.5786 31.3533L61.0292 46.9019L51.67 44.0336Z" fill="white"/>
<path d="M66.4452 39.0721L67.6837 38.8191C68.3615 38.6806 68.7986 38.0189 68.6602 37.3413C68.5217 36.6637 67.8606 36.2268 67.1825 36.3648L65.944 36.6178C65.2662 36.7563 64.8291 37.4179 64.9675 38.0956C65.0887 38.6887 65.6106 39.0976 66.1933 39.0976C66.2762 39.0977 66.3606 39.0893 66.4452 39.0721Z" fill="white"/>
<path d="M66.0293 34.516L66.9753 33.6776C67.4929 33.2188 67.5407 32.4273 67.0819 31.9096C66.6232 31.392 65.8317 31.3441 65.3139 31.803L64.3678 32.6413C63.8502 33.1001 63.8024 33.8916 64.2612 34.4093C64.5087 34.6886 64.8529 34.8311 65.1989 34.8311C65.4944 34.8311 65.7909 34.7272 66.0293 34.516Z" fill="white"/>
<path d="M68.2217 41.8853L67.0226 41.4851C66.3665 41.2663 65.6571 41.6205 65.4381 42.2768C65.2192 42.933 65.5736 43.6424 66.2297 43.8613L67.4289 44.2614C67.5605 44.3053 67.694 44.3261 67.8255 44.3261C68.3496 44.3261 68.8384 43.9944 69.0134 43.4698C69.2322 42.8136 68.8779 42.1043 68.2217 41.8853Z" fill="white"/>
<path d="M51 79.5884C51.6904 79.5884 52.25 79.0287 52.25 78.3384C52.25 77.648 51.6904 77.0884 51 77.0884C50.3096 77.0884 49.75 77.648 49.75 78.3384C49.75 79.0287 50.3096 79.5884 51 79.5884Z" fill="white"/>
<path d="M82.9831 44.0347C83.0486 43.6217 82.9072 43.1853 82.568 42.8912L73.9451 35.4147V25.9229C73.9451 24.5418 72.8214 23.4181 71.4403 23.4181H60.1064C60.0964 23.4088 60.0875 23.3989 60.0771 23.3899L52.641 16.9419C51.7055 16.1307 50.2945 16.1307 49.359 16.9419L41.8905 23.4181H30.5597C29.1786 23.4181 28.0549 24.5418 28.0549 25.9229V35.4147L19.432 42.8912C19.0928 43.1853 18.9514 43.6217 19.0169 44.0347C19.0068 44.0988 19 77.1618 19 77.1618C19 78.5429 20.1237 79.6667 21.5049 79.6667H45.3857C46.0775 79.6667 46.6383 79.1059 46.6383 78.4142C46.6383 77.7224 46.0775 77.1617 45.3857 77.1617H23.872L43.6905 60.1256L49.6511 63.9344C50.0609 64.1963 50.5304 64.3272 51 64.3272C51.4695 64.3272 51.9391 64.1963 52.3489 63.9346L58.5812 59.9521L78.6222 77.1618H56.6141C55.9224 77.1618 55.3616 77.7226 55.3616 78.4143C55.3616 79.1061 55.9224 79.6668 56.6141 79.6668H80.495C81.8761 79.6668 82.9999 78.5431 82.9999 77.1619C82.9999 77.1619 82.9932 44.0988 82.9831 44.0347ZM79.5438 43.5843L73.9451 47.1618V38.7301L79.5438 43.5843ZM51 18.8344L56.286 23.4181H45.7139L51 18.8344ZM28.0549 38.7301V47.1618L22.4562 43.5843L28.0549 38.7301ZM21.5049 75.8934V45.9491L41.4864 58.7172L21.5049 75.8934ZM51 61.8238L44.3056 57.5461C44.2724 57.5226 44.2384 57.5008 44.2035 57.4808L30.5597 48.7624V25.9229H71.4403V48.7624L51 61.8238ZM80.4951 75.4684L60.7856 58.5433L80.495 45.9489V75.4684H80.4951Z" fill="white"/>
</g>
<defs>
<clipPath id="clip0_1614_828">
<rect width="64" height="64" fill="white" transform="translate(19 16)"/>
</clipPath>
</defs>
</svg>
