<svg width="28" height="30" viewBox="0 0 28 30" fill="none" xmlns="http://www.w3.org/2000/svg">
<path d="M27.2439 26.8363V11.6183C27.2439 11.6174 27.2434 11.6166 27.2434 11.6157C27.2434 11.6156 27.2435 11.6154 27.2435 11.6153C27.2286 11.571 27.2264 11.3947 27.0861 11.2764L24.0304 8.69777V8.3973C24.0304 8.31011 23.9837 8.16709 23.9004 8.08388L20.2583 4.44176C20.178 4.36142 20.0389 4.31185 19.9449 4.31185C19.9447 4.31185 19.9445 4.31185 19.944 4.31185L18.8351 4.31385L15.2129 1.25719C14.5131 0.666502 13.4968 0.665154 12.7971 1.25566L9.15018 4.33125L5.36461 4.33804C4.59574 4.33957 3.97043 4.96623 3.97043 5.73486V8.69953L0.915117 11.2761C0.807832 11.3665 0.754511 11.5206 0.756914 11.6184V26.8364C0.756914 28.1395 1.81969 29.1865 3.10699 29.1865H24.8938C26.1699 29.1864 27.2439 28.1494 27.2439 26.8363ZM24.0304 9.85775L26.1127 11.6149L24.0304 13.3707V9.85775ZM20.3883 5.82545C20.4335 5.87062 22.6665 8.10375 22.5249 7.96213L20.9023 7.97449C20.6473 7.98551 20.3882 7.76601 20.3882 7.46449V5.82545H20.3883ZM13.3682 1.93359C13.7372 1.62299 14.2723 1.62322 14.6409 1.93465L17.4633 4.31625L10.5282 4.32867L13.3682 1.93359ZM4.85707 5.7348C4.85707 5.45408 5.08564 5.22527 5.36637 5.22463L19.5017 5.19931V7.46449C19.5017 8.24039 20.1307 8.86107 20.898 8.86107H20.9093L23.1438 8.84396V14.1167L15.1392 20.8682C14.4762 21.4269 13.5147 21.4264 12.8525 20.8678L4.85707 14.1205V5.7348ZM3.97043 9.85933V13.3724L1.8883 11.6153L3.97043 9.85933ZM1.64355 26.8363V12.5686C1.7441 12.6535 1.06623 12.0814 9.97875 19.6029L1.82297 27.5237C1.71223 27.3178 1.64355 27.0861 1.64355 26.8363ZM24.8938 28.2998H3.10699C2.87326 28.2998 2.65529 28.2397 2.45912 28.1418L10.6596 20.1775L12.2807 21.5453C13.2735 22.3833 14.7162 22.3844 15.7106 21.5459L17.3412 20.171L25.542 28.1417C25.3457 28.2396 25.1276 28.2998 24.8938 28.2998ZM26.3573 26.8363C26.3573 27.086 26.2887 27.3177 26.178 27.5235L18.0223 19.5967L26.3573 12.5684V26.8363ZM15.9318 14.6021L15.5514 13.9513C15.0913 14.2845 14.4625 14.4583 13.9456 14.4583C12.3132 14.4583 11.0716 13.2743 11.0716 11.6858C11.0716 10.067 12.4084 8.76129 14.0553 8.76129C15.8148 8.76129 16.9375 10.0024 16.9375 11.6521C16.9375 13.279 15.8641 13.3243 15.8641 12.6327V9.75873H14.8753V10.232C14.7625 10.0298 14.2623 9.66586 13.6666 9.66586C12.5864 9.66586 11.8915 10.5588 11.8915 11.6603C11.8915 12.8122 12.7741 13.6215 13.7677 13.6215C14.3023 13.6215 14.7852 13.3951 15.1032 12.9284C15.1194 12.9728 15.1126 13.3252 15.4586 13.5496C16.2654 14.0754 17.7237 13.5095 17.7237 11.6266C17.7237 9.60627 16.2206 8.02594 14.0553 8.02594C11.9685 8.02594 10.2771 9.60498 10.2771 11.6858C10.2771 13.7453 11.9037 15.2105 13.9455 15.2105C14.5782 15.2105 15.4201 14.9825 15.9318 14.6021ZM13.8778 12.717C13.3088 12.717 12.9732 12.1829 12.9732 11.6184C12.9732 11.0764 13.3104 10.587 13.8609 10.587C14.4539 10.587 14.8075 11.0572 14.8075 11.6267C14.8075 12.2064 14.4775 12.717 13.8778 12.717Z" fill="white"/>
</svg>
