<svg width="104" height="104" viewBox="0 0 104 104" fill="none" xmlns="http://www.w3.org/2000/svg">
<circle cx="52" cy="52" r="52" fill="#00549A"/>
<g clip-path="url(#clip0_1430_792)">
<path d="M73.5703 33.2562C73.5133 33.1684 73.442 33.0908 73.3594 33.0265C70.5502 29.8706 67.105 27.345 63.2501 25.6155C59.3953 23.886 55.218 22.9919 50.993 22.9919C46.7679 22.9919 42.5907 23.886 38.7358 25.6155C34.881 27.345 31.4357 29.8706 28.6266 33.0265C28.5481 33.0887 28.48 33.1631 28.425 33.2469V33.2703C24.6326 37.6086 22.1699 42.9474 21.3312 48.6482C20.4925 54.3491 21.3134 60.1709 23.6957 65.4177C26.078 70.6644 29.9209 75.114 34.765 78.2346C39.6092 81.3552 45.2495 83.0147 51.0117 83.0147C56.774 83.0147 62.4143 81.3552 67.2584 78.2346C72.1025 75.114 75.9455 70.6644 78.3278 65.4177C80.7101 60.1709 81.531 54.3491 80.6923 48.6482C79.8536 42.9474 77.3909 37.6086 73.5985 33.2703L73.5703 33.2562ZM72.6328 70.9484C70.5029 69.7052 68.2424 68.7007 65.8922 67.9531C67.3496 63.4216 68.1191 58.6972 68.175 53.9375H79.1016C78.9016 60.1717 76.6248 66.1605 72.6328 70.9531V70.9484ZM22.8985 53.9375H33.825C33.8804 58.6988 34.6499 63.4248 36.1078 67.9578C33.7577 68.7054 31.4971 69.7099 29.3672 70.9531C25.3752 66.1605 23.0985 60.1717 22.8985 53.9375ZM29.4375 34.9765C31.5569 36.2085 33.8047 37.205 36.1406 37.9484C34.6615 42.5094 33.8808 47.2679 33.825 52.0625H22.8985C23.1027 45.7955 25.4055 39.7786 29.4375 34.9765ZM51.9375 40.175C56.0553 40.1166 60.1496 39.5434 64.125 38.4687C65.5282 42.8657 66.2676 47.4473 66.3188 52.0625H51.9375V40.175ZM51.9375 38.3V24.9312C56.6906 25.4609 60.8438 29.989 63.4688 36.7015C59.705 37.7045 55.8322 38.2414 51.9375 38.3ZM50.0625 38.3C46.1678 38.2414 42.295 37.7046 38.5313 36.7015C41.1563 29.989 45.3094 25.4609 50.0625 24.9312V38.3ZM50.0625 40.175V52.0625H35.7C35.7451 47.4483 36.4782 42.8666 37.875 38.4687C41.8505 39.5434 45.9448 40.1166 50.0625 40.175ZM35.7 53.9375H50.0625V65.7218C45.9444 65.7831 41.85 66.3595 37.875 67.4375C36.4884 63.0693 35.7555 58.5201 35.7 53.9375ZM50.0625 67.5968V81.0687C45.2906 80.5343 41.1 75.9687 38.4938 69.2047C42.2693 68.1952 46.1548 67.6552 50.0625 67.5968ZM51.9375 67.5968C55.8452 67.6552 59.7308 68.1953 63.5063 69.2047C60.9 75.9687 56.7094 80.5343 51.9375 81.0687V67.5968ZM51.9375 65.7218V53.9375H66.3C66.2441 58.5185 65.5111 63.0661 64.125 67.4328C60.1498 66.3564 56.0555 65.7816 51.9375 65.7218ZM68.175 52.0625C68.1193 47.2679 67.3385 42.5094 65.8594 37.9484C68.1954 37.205 70.4431 36.2085 72.5625 34.9765C76.5945 39.7786 78.8973 45.7955 79.1016 52.0625H68.175ZM71.2922 33.5562C69.3657 34.6369 67.3331 35.5165 65.2266 36.1812C63.4969 31.7375 61.0969 28.1562 58.2844 25.8359C63.244 27.1732 67.7426 29.8432 71.2922 33.5562ZM43.7156 25.8359C40.9031 28.1422 38.5078 31.7328 36.7781 36.1812C34.6716 35.5165 32.639 34.6369 30.7125 33.5562C34.2608 29.8439 38.7577 27.174 43.7156 25.8359ZM30.6422 72.3781C32.5761 71.2852 34.6183 70.396 36.736 69.725C38.4703 74.2156 40.8797 77.8437 43.711 80.164C38.7222 78.8185 34.2005 76.1246 30.6422 72.3781ZM58.2985 80.164C61.111 77.8203 63.5391 74.2156 65.2735 69.725C67.3911 70.3961 69.4333 71.2852 71.3672 72.3781C67.805 76.1268 63.2782 78.8208 58.2844 80.164H58.2985Z" fill="#F5F5F5"/>
</g>
<defs>
<clipPath id="clip0_1430_792">
<rect width="60" height="60" fill="white" transform="translate(21 23)"/>
</clipPath>
</defs>
</svg>
