<svg width="104" height="104" viewBox="0 0 104 104" fill="none" xmlns="http://www.w3.org/2000/svg">
<circle cx="52" cy="52" r="52" fill="#003B7D"/>
<path d="M32.1857 26.8737C30.6438 26.8737 29.375 28.1425 29.375 29.6844V59.6844C29.375 60.9357 31.2518 60.9357 31.2518 59.6844V36.2524H68.7463V59.6844C68.718 60.9628 70.65 60.9628 70.6213 59.6844V29.6844C70.6213 28.1425 69.3544 26.8737 67.8125 26.8737H32.1857ZM32.1857 28.7506H67.8125C68.3481 28.7506 68.7463 29.1488 68.7463 29.6844V34.3756H31.2518V29.6844C31.2518 29.1488 31.6501 28.7506 32.1857 28.7506ZM34.0625 30.6238C33.5447 30.6238 33.125 31.0435 33.125 31.5613C33.125 32.0791 33.5447 32.4987 34.0625 32.4987C34.5802 32.4987 35 32.0791 35 31.5613C35 31.0435 34.5802 30.6238 34.0625 30.6238ZM37.8125 30.6238C37.2948 30.6238 36.875 31.0435 36.875 31.5613C36.875 32.0791 37.2948 32.4987 37.8125 32.4987C38.3303 32.4987 38.75 32.0791 38.75 31.5613C38.75 31.0435 38.3303 30.6238 37.8125 30.6238ZM41.5625 30.6238C41.0448 30.6238 40.625 31.0435 40.625 31.5613C40.625 32.0791 41.0448 32.4987 41.5625 32.4987C42.0803 32.4987 42.5 32.0791 42.5 31.5613C42.5 31.0435 42.0803 30.6238 41.5625 30.6238ZM54.6399 30.6256C53.3741 30.7117 53.4605 32.5316 54.6839 32.5006H65.9375C67.1601 32.4723 67.1601 30.6527 65.9375 30.6256H54.6399ZM24.6912 32.5006C23.1493 32.5006 21.875 33.7676 21.875 35.3095V69.0612C21.875 70.6032 23.1493 71.8719 24.6912 71.8719H75.3143C76.8562 71.8719 78.125 70.6032 78.125 69.0612V35.3094C78.125 33.7675 76.8562 32.5005 75.3143 32.5005H73.4393C72.1613 32.4722 72.1613 34.4039 73.4393 34.3756H75.3143C75.8499 34.3756 76.2482 34.7738 76.2482 35.3094V62.5006H23.75V35.3094C23.75 34.7738 24.1556 34.3756 24.6912 34.3756H26.5588C27.8369 34.4039 27.8369 32.4722 26.5588 32.5005L24.6912 32.5006ZM52.8235 39.9841C52.4114 39.9813 52.0458 40.2482 51.9226 40.6416L46.2958 57.5147C45.899 58.7012 47.6788 59.2963 48.0756 58.1097L53.7024 41.2311C53.9146 40.624 53.4665 39.9884 52.8235 39.9841ZM56.8994 45.4041L61.6601 49.3756L56.8994 53.3417C55.8822 54.138 57.1382 55.6408 58.1024 54.7809L63.7219 50.0952C64.1707 49.7204 64.1707 49.0309 63.7219 48.6561L58.1024 43.9631C57.9344 43.8192 57.7211 43.7394 57.4524 43.7398C56.5662 43.8174 56.2449 44.8746 56.8994 45.4043V45.4041ZM42.4762 43.7415C42.2651 43.7486 42.0625 43.8266 41.9012 43.963L36.2762 48.656C35.8275 49.0308 35.8275 49.7203 36.2762 50.0951L41.9012 54.7808C42.8687 55.6819 44.1607 54.129 43.0988 53.3416L38.338 49.3755L43.0988 45.404C43.7915 44.8368 43.3711 43.7141 42.4762 43.7414V43.7415ZM23.75 64.3774H76.2482V69.0612C76.2482 69.5968 75.8499 69.9951 75.3143 69.9951H24.6912C24.1556 69.9951 23.75 69.5968 23.75 69.0612V64.3774ZM51.9263 66.2506L48.0792 66.2525C46.8842 66.3953 46.9645 68.0881 48.1232 68.1201H51.875C53.1625 68.2339 53.2697 66.2765 51.9263 66.2506H51.9263ZM44.7412 73.6736C44.3649 73.6665 44.0203 73.8834 43.866 74.2266C43.4145 75.1949 42.6057 76.3257 41.2091 77.4969H39.6875C38.1456 77.4969 36.8787 78.7731 36.8787 80.315V82.1826C36.8768 82.7004 37.2948 83.1217 37.8125 83.1237H62.1857C62.7063 83.1256 63.1288 82.7033 63.1268 82.1826V80.315C63.1268 78.7731 61.8526 77.4969 60.3107 77.4969H58.7909C57.3944 76.3257 56.5854 75.1949 56.134 74.2266C55.9753 73.8744 55.617 73.6557 55.2313 73.6755C54.5616 73.7109 54.1433 74.4156 54.4348 75.0196C54.8003 75.8034 55.3583 76.6442 56.1102 77.4969H43.8898C44.6416 76.6442 45.1997 75.8034 45.5652 75.0196C45.8628 74.4047 45.4242 73.6882 44.7412 73.6736ZM39.6875 79.3738H60.3107C60.8462 79.3738 61.2518 79.7794 61.2518 80.315V81.2488H38.7537V80.315C38.7537 79.7794 39.1519 79.3738 39.6875 79.3738Z" fill="#EFF3F5"/>
</svg>
