<svg width="30" height="30" viewBox="0 0 30 30" fill="none" xmlns="http://www.w3.org/2000/svg">
<path d="M28.8867 5.66996C28.8867 5.66574 28.8867 5.66199 28.8855 5.65777C28.8844 5.65355 28.8839 5.64301 28.8834 5.63574C28.8808 5.6032 28.8743 5.5711 28.864 5.54012C28.8626 5.5359 28.864 5.53145 28.8614 5.52723C28.8588 5.52301 28.8591 5.52371 28.8584 5.52184C28.845 5.48779 28.8271 5.4557 28.8052 5.42645C28.8002 5.41988 28.7951 5.41402 28.7897 5.4077C28.7684 5.38185 28.744 5.35871 28.717 5.33879C28.7142 5.33668 28.7119 5.3341 28.7091 5.33223C28.6789 5.31239 28.6463 5.29663 28.612 5.28535C28.6041 5.28254 28.5961 5.2802 28.5886 5.27785C28.5525 5.26703 28.5151 5.26127 28.4775 5.26074H1.52343C1.48579 5.26127 1.4484 5.26703 1.41234 5.27785C1.40413 5.2802 1.3964 5.28254 1.3889 5.28535C1.35463 5.29663 1.322 5.31239 1.29187 5.33223C1.28906 5.3341 1.28671 5.33668 1.2839 5.33879C1.25696 5.35871 1.23257 5.38185 1.21124 5.4077C1.20609 5.41402 1.2007 5.41988 1.19577 5.42645C1.17383 5.4557 1.15593 5.48779 1.14257 5.52184C1.14257 5.52371 1.14023 5.52535 1.13952 5.52723C1.13882 5.5291 1.13835 5.5359 1.13695 5.54012C1.12664 5.5711 1.12011 5.6032 1.11749 5.63574C1.11749 5.64324 1.11538 5.65051 1.11538 5.65777C1.11538 5.66504 1.11421 5.66574 1.11421 5.66996V24.3297C1.11421 24.3351 1.11562 24.3403 1.11585 24.3457C1.11654 24.3604 1.11802 24.3751 1.12031 24.3897C1.12218 24.4017 1.12382 24.4132 1.12663 24.4254C1.13025 24.4396 1.13463 24.4536 1.13976 24.4673C1.14374 24.4783 1.14749 24.4893 1.15242 24.4999C1.15891 24.5137 1.16619 24.5272 1.17421 24.5402C1.17984 24.5496 1.18546 24.5592 1.19179 24.5681C1.20088 24.5805 1.21066 24.5924 1.22109 24.6037C1.22882 24.6121 1.23656 24.6206 1.24452 24.6286C1.24945 24.633 1.2532 24.6384 1.25835 24.6429C1.26351 24.6473 1.26679 24.6468 1.27054 24.6499C1.30254 24.6757 1.33826 24.6964 1.37648 24.7115C1.38468 24.7148 1.39312 24.7167 1.40156 24.7193C1.43853 24.7313 1.47705 24.7381 1.51593 24.7392C1.51874 24.7392 1.52132 24.7406 1.52413 24.7406H1.52952H28.4714H28.4768C28.4796 24.7406 28.4822 24.7392 28.4848 24.7392C28.5237 24.7381 28.5623 24.7314 28.5994 24.7193C28.6076 24.7167 28.6158 24.7148 28.6228 24.7115C28.6611 24.6965 28.6969 24.6757 28.729 24.6499C28.7327 24.6468 28.7374 24.6459 28.7412 24.6429C28.7449 24.6398 28.7501 24.633 28.755 24.6286C28.7634 24.6206 28.7712 24.6124 28.7784 24.6037C28.7889 24.5924 28.7986 24.5805 28.8077 24.5681C28.8141 24.5592 28.8197 24.5498 28.8253 24.5402C28.8333 24.5272 28.8406 24.5137 28.8471 24.4999C28.852 24.4893 28.8558 24.4783 28.8598 24.4673C28.8649 24.4536 28.8693 24.4396 28.8729 24.4254C28.8757 24.4136 28.8773 24.4019 28.8792 24.3897C28.8815 24.3751 28.883 24.3604 28.8837 24.3457C28.8837 24.3403 28.8853 24.3351 28.8853 24.3297L28.8867 5.66996ZM10.7344 14.1365L14.7323 17.5764C14.8068 17.6404 14.9017 17.6756 14.9999 17.6756C15.098 17.6756 15.193 17.6404 15.2674 17.5764L19.2656 14.1365L27.5887 23.9196H2.41148L10.7344 14.1365ZM1.93359 23.2153V6.5641L10.1133 13.6014L1.93359 23.2153ZM19.8867 13.6014L28.0664 6.5641V23.2153L19.8867 13.6014ZM27.3705 6.08012L19.0491 13.2405C19.0476 13.2417 19.0458 13.2424 19.0444 13.2438C19.043 13.2452 19.0416 13.2471 19.0399 13.2485L15 16.7245L10.9601 13.2485C10.9584 13.2471 10.9573 13.2452 10.9556 13.2438L10.9509 13.2405L2.62898 6.08012H27.3705Z" fill="#00549A"/>
</svg>
