<svg width="284" height="308" viewBox="0 0 284 308" fill="none" xmlns="http://www.w3.org/2000/svg">
<g filter="url(#filter0_d_644_3741)">
<path fill-rule="evenodd" clip-rule="evenodd" d="M19.127 0C10.8427 0 4.12695 6.71573 4.12695 15V21.6666H8.72644C16.0902 21.6666 22.0598 27.6362 22.0598 35C22.0598 42.3638 16.0902 48.3333 8.72644 48.3333H4.12695V75H8.72644C16.0902 75 22.0598 80.9695 22.0598 88.3333C22.0598 95.6971 16.0902 101.667 8.72644 101.667H4.12695V128.333H8.72644C16.0902 128.333 22.0598 134.303 22.0598 141.667C22.0598 149.031 16.0902 155 8.72644 155H4.12695V180H8.72644C16.0902 180 22.0598 185.97 22.0598 193.333C22.0598 200.697 16.0902 206.667 8.72644 206.667H4.12695V245H8.72644C16.0902 245 22.0598 250.97 22.0598 258.333C22.0598 265.697 16.0902 271.667 8.72644 271.667H4.12695V285C4.12695 293.284 10.8427 300 19.127 300H264.127C272.411 300 279.127 293.284 279.127 285V15C279.127 6.71573 272.411 0 264.127 0H19.127Z" fill="#6FA4CA"/>
</g>
<defs>
<filter id="filter0_d_644_3741" x="0.126953" y="0" width="283" height="308" filterUnits="userSpaceOnUse" color-interpolation-filters="sRGB">
<feFlood flood-opacity="0" result="BackgroundImageFix"/>
<feColorMatrix in="SourceAlpha" type="matrix" values="0 0 0 0 0 0 0 0 0 0 0 0 0 0 0 0 0 0 127 0" result="hardAlpha"/>
<feOffset dy="4"/>
<feGaussianBlur stdDeviation="2"/>
<feComposite in2="hardAlpha" operator="out"/>
<feColorMatrix type="matrix" values="0 0 0 0 0 0 0 0 0 0 0 0 0 0 0 0 0 0 0.25 0"/>
<feBlend mode="normal" in2="BackgroundImageFix" result="effect1_dropShadow_644_3741"/>
<feBlend mode="normal" in="SourceGraphic" in2="effect1_dropShadow_644_3741" result="shape"/>
</filter>
</defs>
</svg>
