<svg width="152" height="152" viewBox="0 0 152 152" fill="none" xmlns="http://www.w3.org/2000/svg">
<circle cx="76" cy="76" r="76" fill="#FFFDFD"/>
<path d="M86.2802 32.7328L53.5255 120.11L48.6199 117.28C48.1858 117.016 47.9029 116.469 47.9029 115.695L47.7141 51.3366C47.7141 49.7516 48.8085 47.8459 50.1859 47.0535C55.3179 43.6951 60.3934 40.544 65.3935 37.6762C70.2048 34.8837 74.9594 32.3365 79.6198 30.0535C80.3179 29.6573 80.9406 29.6196 81.3934 29.8837L86.2802 32.7328Z" fill="#003B7D"/>
<path d="M70.2888 40.5073C75.1081 37.7249 79.8562 35.1802 84.5285 32.8967C85.8957 32.1074 87.0071 32.7408 87.0116 34.3118L87.1941 98.6736C87.1985 100.244 86.0943 102.157 84.7271 102.946C79.7612 106.218 74.8171 109.276 69.8973 112.117C65.0026 114.943 60.132 117.553 55.2837 119.946C53.9165 120.735 52.8051 120.101 52.8006 118.531L52.6182 54.1688C52.6137 52.5978 53.7179 50.6853 55.0851 49.8959C60.2216 46.531 65.2934 43.3915 70.2888 40.5073Z" fill="#4C5C75"/>
<path d="M85.9806 99.129C85.9806 100.054 85.3203 101.223 84.5279 101.676L55.0939 118.676C54.8863 118.789 54.6788 118.865 54.5278 118.865C54.0561 118.865 53.9996 118.318 53.9996 118.072L53.9807 111.903L53.924 91.8837L53.8297 53.695C53.8108 52.7894 54.4902 51.6384 55.2826 51.1478L60.2449 48.2988L60.3957 48.6761C60.641 49.261 61.1316 49.6007 61.7354 49.6007C62.0939 49.6007 62.4524 49.4875 62.8109 49.2799L77.2071 40.9592C78.1316 40.4308 78.9429 39.3366 79.226 38.1855L79.4902 37.1856L84.7165 34.1479C84.924 34.0347 85.0939 33.978 85.2638 33.978C85.7355 33.978 85.8109 34.544 85.8109 34.7704L85.9052 73.412L85.9619 93.4498L85.9806 99.129Z" fill="white"/>
<path d="M64.096 47.0405C64.3627 46.5808 64.3634 46.0831 64.0976 45.9288C63.8317 45.7745 63.3999 46.0221 63.1331 46.4817C62.8664 46.9413 62.8657 47.439 63.1316 47.5933C63.3974 47.7476 63.8292 47.5001 64.096 47.0405Z" fill="#4C5C75"/>
<path d="M66.6195 44.2713C66.9959 44.0539 67.303 44.2281 67.3042 44.6615C67.3054 45.0941 67.0004 45.6224 66.6239 45.8397C66.2467 46.0575 65.9397 45.8825 65.9385 45.45C65.9373 45.0166 66.2423 44.489 66.6195 44.2713Z" fill="#003B7D"/>
<path d="M76.2882 38.9038L76.2898 40.1216L68.6596 44.5269L68.658 43.3091L76.2882 38.9038Z" fill="#003B7D"/>
<path d="M81.2026 33.3101C81.137 33.4151 81.0189 33.5069 80.8746 33.5856C80.1529 34.0055 78.985 34.0055 78.2765 33.5856C78.1321 33.5069 78.0272 33.4151 77.9353 33.3101C77.5679 32.9164 77.686 32.4178 78.2634 32.0766C78.9719 31.6567 80.1529 31.6567 80.8746 32.0766C81.4519 32.4047 81.57 32.9033 81.2026 33.3101Z" fill="white"/>
<path d="M81.2026 33.3101C81.137 33.4151 81.0188 33.5069 80.8745 33.5857C80.1529 34.0056 78.985 34.0056 78.2765 33.5857C78.1321 33.5069 78.0272 33.4151 77.9353 33.3101C78.014 33.2052 78.1189 33.1133 78.2633 33.0346C78.9719 32.6278 80.1529 32.6278 80.8745 33.0346C81.0188 33.1133 81.137 33.2052 81.2026 33.3101Z" fill="#1D2943"/>
<path d="M51.6497 60.263L51.6357 65.6175C51.6329 65.9573 51.515 66.1932 51.3212 66.3055L50.5144 66.7761C50.7053 66.6666 50.8261 66.4307 50.8261 66.091L50.8429 60.7365C50.8429 60.0626 50.3712 59.2427 49.7816 58.9029C49.4867 58.7345 49.2228 58.7204 49.0291 58.8271L49.8387 58.3537C50.0325 58.247 50.2964 58.261 50.5912 58.4295C51.178 58.7693 51.6526 59.592 51.6497 60.263Z" fill="#111D33"/>
<path d="M49.7821 58.9039C49.4881 58.7342 49.2241 58.72 49.0299 58.8266C48.8375 58.9383 48.7183 59.1749 48.7173 59.5107L48.7022 64.8645C48.7002 65.5402 49.1738 66.3603 49.76 66.6988C50.054 66.8685 50.3197 66.8857 50.5139 66.7771C50.7064 66.6674 50.8255 66.4309 50.8265 66.091L50.8417 60.7372C50.8436 60.0636 50.3701 59.2434 49.7821 58.9039Z" fill="#4C5C75"/>
<path d="M51.6217 70.0513L51.6076 75.4058C51.6048 75.7456 51.4869 75.9786 51.2932 76.091L50.4863 76.5644C50.6773 76.4521 50.798 76.219 50.798 75.8793L50.8148 70.5248C50.8148 69.8509 50.3431 69.031 49.7535 68.6913C49.4615 68.52 49.1975 68.5059 49.001 68.6126L49.8106 68.142C50.0044 68.0325 50.2683 68.0493 50.5631 68.2178C51.15 68.5576 51.6245 69.3774 51.6217 70.0513Z" fill="#111D33"/>
<path d="M49.7542 68.6909C49.4602 68.5212 49.1963 68.505 49.0021 68.6136C48.8096 68.7253 48.6905 68.9619 48.6895 69.2977L48.6743 74.6515C48.6724 75.3272 49.1459 76.1473 49.7321 76.4858C50.0261 76.6555 50.2918 76.6727 50.4861 76.5641C50.6785 76.4524 50.7977 76.2179 50.7987 75.878L50.8138 70.5242C50.8158 69.8506 50.3422 69.0304 49.7542 68.6909Z" fill="#4C5C75"/>
<path d="M83.9405 61.5814L74.3367 78.1852L72.9405 77.3739C72.6575 77.204 72.4688 76.8267 72.4688 76.3173L72.45 67.921C72.45 66.8833 73.1669 65.6381 74.0726 65.1097L81.3933 60.8833C81.8461 60.6191 82.2424 60.6003 82.5442 60.7701L83.9405 61.5814Z" fill="#5094FF"/>
<path d="M82.7792 61.6931C83.6796 61.1733 84.4056 61.5967 84.4085 62.6311L84.4323 71.0234C84.4352 72.0579 83.714 73.3169 82.8137 73.8367L75.4934 78.0631C74.5931 78.5829 73.8671 78.1595 73.8641 77.1249L73.8403 68.7327C73.8374 67.6982 74.5586 66.4392 75.459 65.9194L82.7792 61.6931Z" fill="#57B3FE"/>
<path d="M82.675 68.6572C82.675 69.5502 82.0467 70.6417 81.2694 71.0882L77.3334 73.3539C76.5562 73.8004 75.9277 73.4531 75.9277 72.5435C75.9277 71.8655 76.2915 71.0882 76.8042 70.5424C76.8538 69.7487 77.4161 68.806 78.1107 68.4091C78.1934 68.3595 78.2926 68.3099 78.3918 68.2768C78.6729 67.6153 79.1691 67.0035 79.7479 66.6727C80.6575 66.1435 81.3852 66.5735 81.3852 67.6153V67.7972C82.0963 67.4499 82.6586 67.8138 82.675 68.6572Z" fill="white"/>
<path d="M68.4688 87.7138L58.8651 104.318L57.4689 103.506C57.1858 103.337 56.9972 102.978 56.9972 102.469L56.9783 94.0535C56.9783 93.0346 57.6953 91.7705 58.6009 91.2421L65.9216 87.0157C66.3745 86.7704 66.7707 86.7328 67.0726 86.9025L68.4688 87.7138Z" fill="#566DF9"/>
<path d="M60.0263 104.202C59.126 104.722 58.4001 104.308 58.3971 103.274L58.3733 94.8719C58.3704 93.8374 59.0916 92.5784 59.9919 92.0586L67.3122 87.8322C68.2125 87.3124 68.9385 87.7358 68.9415 88.7704L68.9653 97.1723C68.9682 98.2068 68.247 99.4561 67.3467 99.9759L60.0263 104.202Z" fill="#8FABFE"/>
<path d="M68.4123 70.5438L58.8273 87.1287L57.4311 86.3174C57.1293 86.1476 56.9594 85.7891 56.9594 85.2797L56.9405 76.8834C56.9217 75.8457 57.6575 74.5816 58.5444 74.0721L65.8651 69.8457C66.318 69.5815 66.733 69.5627 67.0161 69.7325L68.4123 70.5438Z" fill="#E93565"/>
<path d="M67.2636 70.6511C68.1639 70.1313 68.89 70.5547 68.8929 71.5891L68.9167 79.9814C68.9196 81.0159 68.1984 82.2749 67.2981 82.7947L59.9778 87.0211C59.0775 87.5409 58.3514 87.1175 58.3485 86.0829L58.3247 77.6907C58.3218 76.6562 59.043 75.3972 59.9433 74.8774L67.2636 70.6511Z" fill="#F45170"/>
<path d="M68.3745 53.3553L58.7708 69.9402L57.3746 69.1289C57.0916 68.959 56.9029 68.6005 56.9029 68.0912L56.884 59.6949C56.884 58.6572 57.601 57.393 58.5066 56.8836L65.8274 52.6572C66.2802 52.3931 66.6765 52.3742 66.9783 52.544L68.3745 53.3553Z" fill="#7E5AF2"/>
<path d="M67.2148 53.4606C68.1151 52.9408 68.8411 53.3642 68.8441 54.3988L68.8679 62.8007C68.8708 63.8352 68.1495 65.0845 67.2492 65.6043L59.9289 69.8307C59.0286 70.3504 58.3026 69.9368 58.2997 68.9022L58.2759 60.5003C58.273 59.4658 58.9942 58.2068 59.8945 57.687L67.2148 53.4606Z" fill="#B28AFD"/>
<path d="M83.9784 78.7703L74.3935 95.3553L72.9973 94.5439C72.6954 94.3741 72.5256 94.0157 72.5256 93.5062L72.4878 85.1099C72.4878 84.0722 73.2048 82.8081 74.1105 82.2986L81.4313 78.0722C81.8841 77.8081 82.2991 77.7893 82.5822 77.959L83.9784 78.7703Z" fill="#DEDFFB"/>
<path d="M82.8281 78.8742C83.7284 78.3544 84.4544 78.7778 84.4573 79.8124L84.4811 88.2143C84.4841 89.2488 83.7628 90.4981 82.8625 91.0179L75.5422 95.2442C74.6419 95.764 73.9159 95.3503 73.913 94.3158L73.8892 85.9139C73.8862 84.8793 74.6075 83.6204 75.5078 83.1006L82.8281 78.8742Z" fill="#F3F1FC"/>
<path d="M83.8839 44.3929L74.2801 60.9967L72.9028 60.1854C72.6008 60.0155 72.4311 59.657 72.4311 59.1288L72.3933 50.7325C72.3933 49.6948 73.1103 48.4306 74.0159 47.9212L81.3367 43.6948C81.7896 43.4307 82.2047 43.4118 82.4877 43.5816L83.8839 44.3929Z" fill="#FEBC1F"/>
<path d="M82.7304 44.5026C83.6307 43.9828 84.3567 44.4062 84.3597 45.4408L84.3835 53.8427C84.3864 54.8772 83.6652 56.1265 82.7648 56.6463L75.4446 60.8726C74.5442 61.3924 73.8183 60.9787 73.8153 59.9442L73.7915 51.5423C73.7886 50.5078 74.5098 49.2488 75.4101 48.729L82.7304 44.5026Z" fill="#FFD06C"/>
<path d="M79.1759 83.4982C80.8828 82.5127 82.2821 83.3033 82.2877 85.2692C82.2932 87.2351 80.903 89.6363 79.1961 90.6218C77.4872 91.6084 76.0879 90.8178 76.0823 88.8519C76.0767 86.8859 77.467 84.4848 79.1759 83.4982Z" fill="#F45170"/>
<path d="M78.1584 85.8145L80.8584 86.0929L78.1689 89.4852L78.1584 85.8145Z" fill="white"/>
<path d="M61.7971 77.7117C61.9022 77.651 62.0069 77.6418 62.0814 77.7013C62.2179 77.8025 62.2051 78.0839 62.0423 78.3344L60.6181 80.5733L62.0571 81.1515C62.214 81.2175 62.2351 81.4793 62.0996 81.7453C62.0251 81.8901 61.9164 81.9998 61.8076 82.0626C61.726 82.1097 61.6375 82.1295 61.5625 82.1024L59.7962 81.3767C59.7143 81.3379 59.6664 81.2481 59.666 81.1231C59.6656 80.9902 59.7129 80.8455 59.7943 80.7202L61.5508 77.9607C61.6217 77.8486 61.7095 77.7623 61.7971 77.7117Z" fill="white"/>
<path d="M64.8749 74.5212C64.9286 74.4902 64.9832 74.4718 65.0354 74.4695C65.2261 74.4611 65.3084 74.6719 65.2206 74.9418L62.7086 82.701C62.6411 82.9043 62.5053 83.0688 62.3625 83.1513L62.206 83.2025C62.0153 83.2187 61.9329 83.0001 62.0207 82.7381L64.5327 74.9711C64.5965 74.775 64.7323 74.6035 64.8749 74.5212Z" fill="white"/>
<path d="M65.4289 75.6151C65.518 75.5636 65.6075 75.5475 65.6788 75.5775L67.4451 76.3032C67.527 76.3343 67.5749 76.424 67.5753 76.5568C67.5756 76.6819 67.5284 76.8266 67.447 76.9597L65.6838 79.7232C65.6159 79.8328 65.5276 79.9151 65.4392 79.9661C65.3304 80.029 65.2283 80.0409 65.1531 79.9825C65.0166 79.8736 65.0362 79.5883 65.1922 79.3416L66.6164 77.1105L65.1842 76.5206C65.0273 76.4546 65.0062 76.1929 65.1417 75.9346C65.2156 75.7895 65.322 75.6768 65.4289 75.6151Z" fill="white"/>
<path d="M86.2825 99.1856C86.2825 100.129 85.6222 101.318 84.8108 101.789L54.8109 119.11C54.6033 119.223 54.3768 119.299 54.226 119.299C53.7543 119.299 53.6976 118.752 53.6976 118.506L53.6787 113.318L86.2637 94.5063L86.2825 99.1856Z" fill="#4C5C75"/>
<path d="M71.6017 105.279C72.5155 104.752 73.27 105.163 73.273 106.213C73.276 107.282 72.5263 108.562 71.6125 109.089L68.208 111.055C67.2941 111.582 66.5397 111.171 66.5366 110.102C66.5337 109.052 67.2833 107.773 68.1972 107.245L71.6017 105.279Z" fill="#003B7D"/>
<path d="M66.7861 60.3624L66.1349 60.8707C66.0758 61.2193 65.9683 61.5748 65.8258 61.9256L66.2041 62.3266L65.6126 63.3513L65.495 63.555L65.464 63.548L64.9555 63.433C64.7261 63.7304 64.4665 64.0011 64.1934 64.2335L64.0805 65.0466L63.0824 65.6229L62.9654 64.9425C62.6885 65.0276 62.4366 65.0522 62.1978 65.0251L61.9394 65.383L61.7486 65.6471L61.6609 65.7686L60.9504 65.3599L61.3269 64.523C61.2448 64.4192 61.1749 64.3004 61.1177 64.1671C61.098 64.1213 61.0799 64.0738 61.0633 64.0245C61.0424 63.9626 61.0238 63.8981 61.0078 63.8308L60.3609 64.0719L60.358 63.0534L60.3577 62.9232L60.4482 62.8518L61.0038 62.414C61.0679 62.0624 61.1737 61.7079 61.3179 61.3562L60.9379 60.9542L61.6438 59.7316L61.8409 59.7755L61.9707 59.8044L62.1832 59.8517C62.421 59.5475 62.6723 59.2835 62.9486 59.0492L63.0615 58.2361L64.0596 57.6598L64.1767 58.3402C64.4502 58.2571 64.7105 58.2257 64.9409 58.2595L65.4728 57.5249L65.5929 57.5829L66.1917 57.921L65.8168 58.7587C65.9609 58.944 66.07 59.1745 66.1342 59.4519L66.2376 59.414L66.4113 59.3501L66.7828 59.2136L66.7861 60.3624ZM63.5765 63.2721C64.358 62.821 64.9941 61.723 64.9915 60.8193C64.989 59.9194 64.3487 59.5545 63.5672 60.0057C62.7791 60.4608 62.148 61.5596 62.1505 62.4595C62.1531 63.3633 62.7883 63.7272 63.5765 63.2721Z" fill="white"/>
<path d="M42.9471 52.2708L40.4386 50.8131L38.5979 48.4085L42.0475 48.3022L42.9471 52.2708Z" fill="#7432FF"/>
<path d="M50.1292 31.4685L36.9216 51.695L35.0915 50.6384C34.9028 50.5252 34.7896 50.3365 34.733 50.0535C34.0914 46.4308 33.6764 42.8082 33.4688 40.1101C33.4122 39.3553 33.9028 38.3176 34.6764 37.8082C38.7707 35.1289 43.0537 32.6572 47.4311 30.4308C47.7707 30.2611 48.0725 30.2611 48.2802 30.393L50.1292 31.4685Z" fill="#0E93D4"/>
<path d="M42.8987 34.9545C45.0262 33.7262 47.154 32.5757 49.2824 31.5029C50.0032 31.1409 50.5474 31.5478 50.4945 32.4059C50.2613 36.1611 49.8623 39.954 49.2977 43.7829C49.1876 44.519 48.6972 45.3084 48.1 45.6868C46.9851 46.3959 45.8766 47.0807 44.7729 47.7422L42.947 52.2712L41.1062 49.8666C39.9911 50.4899 38.884 51.0842 37.7833 51.6525C37.181 51.9591 36.6845 51.7414 36.5738 51.1271C35.9973 47.9049 35.5733 44.5889 35.3133 41.1746C35.2541 40.3811 35.7942 39.3445 36.5163 38.8734C38.6438 37.4891 40.7712 36.1829 42.8987 34.9545Z" fill="#7432FF"/>
<path d="M45.8467 40.736C45.588 40.5302 45.2195 40.5635 44.7491 40.834C44.2807 41.1045 43.9122 41.4965 43.6554 42.0003C43.4006 42.502 43.2732 43.0332 43.2752 43.5781C43.2752 44.1249 43.4065 44.5052 43.6633 44.711C43.922 44.9168 44.2905 44.8835 44.7609 44.613C45.2293 44.3425 45.5978 43.9485 45.8546 43.4468C46.1074 42.945 46.2368 42.4158 46.2348 41.8689C46.2329 41.324 46.1015 40.9418 45.8467 40.736ZM44.1611 43.9133C44.02 43.7761 43.9455 43.533 43.9455 43.19C43.9435 42.849 44.0161 42.5236 44.1572 42.2237C44.2983 41.9238 44.4982 41.6984 44.7511 41.5534C45.0039 41.4064 45.2038 41.4005 45.3469 41.5357C45.49 41.6729 45.5625 41.914 45.5645 42.2551C45.5645 42.5981 45.4939 42.9254 45.3508 43.2253C45.2117 43.5212 45.0118 43.7486 44.7589 43.8956C44.5041 44.0426 44.3042 44.0465 44.1611 43.9133Z" fill="white"/>
<path d="M45.0743 37.1391C45.0743 37.2195 45.0528 37.3136 45.0096 37.4175L41.3561 46.2964C41.3248 46.3729 41.2836 46.4454 41.2327 46.5101C41.1817 46.5767 41.1268 46.6257 41.07 46.659C40.9876 46.708 40.9112 46.7159 40.8485 46.6845C40.7838 46.6512 40.7524 46.5806 40.7524 46.4787C40.7524 46.4121 40.7662 46.3415 40.7995 46.2631L44.4785 37.3273C44.5412 37.1725 44.6314 37.0607 44.747 36.9941C44.843 36.9392 44.9195 36.9255 44.9822 36.949C45.043 36.9725 45.0743 37.0353 45.0743 37.1391Z" fill="white"/>
<path d="M42.1441 38.95C41.8873 38.7423 41.5169 38.7756 41.0484 39.0461C40.578 39.3185 40.2095 39.7105 39.9547 40.2143C39.6999 40.716 39.5706 41.2452 39.5725 41.7901C39.5745 42.337 39.7058 42.7172 39.9626 42.925C40.2193 43.1308 40.5898 43.0975 41.0582 42.825C41.5286 42.5545 41.8971 42.1625 42.1519 41.6608C42.4068 41.159 42.5361 40.6278 42.5341 40.081C42.5322 39.5361 42.4028 39.1558 42.1441 38.95ZM40.4604 42.1253C40.3173 41.9881 40.2448 41.747 40.2429 41.404C40.2429 41.061 40.3134 40.7356 40.4565 40.4357C40.5957 40.1378 40.7956 39.9124 41.0504 39.7654C41.3032 39.6184 41.5051 39.6125 41.6463 39.7478C41.7893 39.885 41.8619 40.1261 41.8619 40.4691C41.8638 40.8121 41.7913 41.1374 41.6521 41.4373C41.511 41.7353 41.3111 41.9606 41.0563 42.1077C40.8015 42.2547 40.6016 42.2605 40.4604 42.1253Z" fill="white"/>
<path d="M113.903 32.676L92.582 60.8081L90.3934 59.525C90.016 59.2986 89.7707 58.8458 89.7707 58.2043L89.7329 45.7514C89.7329 44.4307 90.6763 42.8269 91.8085 42.1666L110.205 31.544C110.79 31.2043 111.318 31.1855 111.695 31.393L113.903 32.676Z" fill="#003B7D"/>
<path d="M112.401 32.8252C113.557 32.158 114.496 32.6934 114.5 33.9985L114.536 46.4535C114.539 47.7585 113.606 49.3753 112.45 50.0425L94.0559 60.6624C92.9202 61.3181 91.9807 60.7827 91.977 59.4777L91.9417 47.0226C91.938 45.7176 92.8714 44.1009 94.0071 43.4451L112.401 32.8252Z" fill="#DBA660"/>
<path d="M93.1347 60.0892C92.8714 60.0892 92.8314 59.705 92.8305 59.475L92.7947 47.0199C92.7922 46.0149 93.558 44.6899 94.4339 44.184L112.828 33.564C113.089 33.4131 113.263 33.3906 113.343 33.3906C113.606 33.3906 113.646 33.7723 113.647 34.0006L113.682 46.4557C113.685 47.4607 112.91 48.7916 112.023 49.3032L93.6289 59.9233C93.3789 60.0675 93.2122 60.0892 93.1347 60.0892Z" fill="white"/>
<path d="M103 42.9071L112.494 37.4259L112.49 36.1577L103 41.6369V42.9071Z" fill="#E3E7F0"/>
<path d="M103 45.7887L112.502 40.3028L112.498 39.0347L103 44.5185V45.7887Z" fill="#E3E7F0"/>
<path d="M103 51.5527L108.303 48.4908L108.3 47.2227L103 50.2825V51.5527Z" fill="#E3E7F0"/>
<path d="M103 48.6705L112.51 43.1798L112.507 41.9116L103 47.4003V48.6705Z" fill="#E3E7F0"/>
<path d="M98.1024 49.9941L101.64 47.9546C101.559 50.2097 99.9814 52.8805 98.0491 53.9981C97.1397 54.5232 96.2809 54.6319 95.6104 54.3112L98.1024 49.9941Z" fill="#78E75A"/>
<path d="M98.1816 45.6215C99.0848 45.1436 99.9326 45.0801 100.579 45.4483C101.227 45.8173 101.6 46.5717 101.639 47.5909L98.1929 49.5803L98.1816 45.6215Z" fill="#DF3260"/>
<path d="M97.8673 45.8003L97.8788 49.8667L95.3868 54.1838C94.776 53.7697 94.4369 52.9777 94.4339 51.9226C94.4253 49.7036 95.9533 46.9998 97.8673 45.8003Z" fill="#986FF9"/>
<path d="M113.469 108.242V111.016C113.469 111.582 113.11 112.167 112.337 112.601L100.261 119.619C98.7331 120.506 96.2803 120.506 94.7331 119.619L82.5633 112.601C81.8085 112.167 81.4124 111.563 81.4124 110.997L81.4312 108.223L113.469 108.242Z" fill="#DEDFFB"/>
<path d="M112.332 106.632C113.857 107.512 113.865 108.939 112.35 109.82L100.253 116.85C98.7381 117.73 96.2741 117.73 94.7489 116.85L82.5731 109.82C81.0478 108.94 81.0397 107.512 82.5551 106.632L94.6518 99.6019C96.1671 98.7213 98.6311 98.7212 100.156 99.6019L112.332 106.632Z" fill="#F3F1FC"/>
<path d="M106.733 106.186L105.054 106.054V103.789L102.752 102.45L100.507 103.45C100.016 103.28 99.4877 103.129 98.9406 103.035L98.6387 101.469H95.3556L95.0349 102.959C94.3934 103.035 93.7708 103.186 93.2236 103.374L91.2236 102.45L88.9028 103.789V106.054L88.9217 106.073L87.1859 106.186L87.167 108.091V109.638L89.7519 109.808L88.8652 110.469V112.016L91.167 113.374L93.5632 112.28C94.0161 112.412 94.45 112.506 94.9217 112.563L95.2802 114.355H98.5632L98.9594 112.488C99.3557 112.412 99.7519 112.318 100.11 112.186L102.695 113.374L105.016 112.016V110.469L104.129 109.827L106.733 109.62V106.186ZM99.9594 108.884C98.2991 109.846 95.6009 109.846 93.9405 108.884C93.5444 108.657 93.2613 108.393 93.0538 108.11C93.2613 107.827 93.5632 107.563 93.9594 107.337C95.6198 106.374 98.3179 106.374 99.9783 107.337C100.356 107.563 100.658 107.827 100.865 108.091C100.658 108.374 100.356 108.639 99.9594 108.884Z" fill="#DBA660"/>
<path d="M88.8982 103.795L88.9046 106.059L90.4709 107.226L90.4645 104.962L88.8982 103.795Z" fill="#7432FF"/>
<path d="M103.17 105.177L103.177 107.441L105.058 106.059L105.051 103.795L103.17 105.177Z" fill="#7432FF"/>
<path d="M92.7026 107.145L92.7081 109.086C92.7063 108.451 93.1248 107.815 93.9628 107.331C95.6279 106.37 98.3183 106.374 99.9727 107.336C100.796 107.814 101.21 108.441 101.211 109.068L101.206 107.127C101.204 106.5 100.791 105.873 99.9671 105.394C98.3128 104.433 95.6224 104.428 93.9573 105.39C93.1193 105.874 92.7008 106.51 92.7026 107.145Z" fill="#003B7D"/>
<path d="M106.724 108.074L106.73 109.628L106.741 108.444L106.734 106.18L106.724 108.074Z" fill="#D4D6D6"/>
<path d="M87.1687 108.089L87.1751 109.644L89.8869 109.823L89.8805 108.269L87.1687 108.089Z" fill="#7432FF"/>
<path d="M103.488 108.31L103.495 109.864L106.73 109.629L106.724 108.074L103.488 108.31Z" fill="#7432FF"/>
<path d="M102.99 108.975L102.996 111.239C103.201 111.029 103.379 110.804 103.495 110.573L103.488 108.31C103.372 108.54 103.194 108.765 102.99 108.975Z" fill="#003B7D"/>
<path d="M89.8804 108.269L89.8868 110.532C90.0529 110.855 90.2986 111.152 90.6063 111.443L90.5999 109.18C90.2922 108.888 90.0465 108.591 89.8804 108.269Z" fill="#003B7D"/>
<path d="M98.958 110.925L98.9644 112.479C99.3624 112.413 99.7518 112.31 100.115 112.193L100.108 110.638C99.7454 110.756 99.356 110.858 98.958 110.925Z" fill="#003B7D"/>
<path d="M93.5513 110.73L93.5577 112.285C94.0076 112.413 94.4577 112.51 94.9257 112.566L94.9193 111.012C94.4513 110.956 94.0012 110.858 93.5513 110.73Z" fill="#003B7D"/>
<path d="M88.8608 110.469L88.8673 112.024L91.1748 113.365L91.1684 111.81L88.8608 110.469Z" fill="#003B7D"/>
<path d="M91.1682 111.81L91.1746 113.365L93.5577 112.285L93.5513 110.73L91.1682 111.81Z" fill="#7432FF"/>
<path d="M102.691 111.811L102.697 113.365L105.02 112.024L105.014 110.47L102.691 111.811Z" fill="#003B7D"/>
<path d="M100.108 110.638L100.115 112.193L102.697 113.365L102.691 111.81L100.108 110.638Z" fill="#7432FF"/>
<path d="M94.9194 111.012L94.9259 112.567L95.2781 114.353L95.2716 112.799L94.9194 111.012Z" fill="#7432FF"/>
<path d="M98.55 112.793L98.5565 114.347L98.9646 112.479L98.9582 110.925L98.55 112.793Z" fill="#7432FF"/>
<path d="M88.8607 110.469L90.5999 109.18C90.2923 108.888 90.0466 108.591 89.8805 108.269L87.1687 108.089L87.1794 106.185L89.7519 106.006C89.8864 105.643 90.1359 105.285 90.4646 104.962L88.8983 103.795L91.221 102.454L93.2217 103.37C93.7794 103.181 94.3988 103.038 95.0266 102.961L95.3531 101.466L98.6314 101.471L98.9406 103.038C99.4968 103.135 100.017 103.273 100.511 103.457L102.744 102.454L105.051 103.795L103.17 105.177C103.398 105.433 103.556 105.699 103.66 105.965L106.734 106.18L106.724 108.074L103.488 108.31C103.372 108.54 103.194 108.765 102.99 108.975L105.014 110.47L102.691 111.811L100.108 110.638C99.7455 110.756 99.3561 110.859 98.9581 110.925L98.55 112.793L95.2716 112.798L94.9194 111.012C94.4514 110.956 94.0013 110.858 93.5514 110.731L91.1683 111.81L88.8607 110.469ZM99.955 108.875C101.62 107.914 101.621 106.356 99.967 105.394C98.3127 104.433 95.6223 104.428 93.9571 105.39C92.292 106.351 92.2832 107.914 93.9375 108.875C95.5918 109.837 98.2899 109.837 99.955 108.875Z" fill="#DBA660"/>
<path d="M95.2717 112.799L95.2781 114.353L98.5565 114.348L98.5501 112.793L95.2717 112.799Z" fill="#003B7D"/>
</svg>
