<svg width="210" height="210" viewBox="0 0 210 210" fill="none" xmlns="http://www.w3.org/2000/svg">
<circle cx="105" cy="105" r="105" fill="#D9D9D9"/>
<path d="M194.176 78.8066L160.041 44.6721C158.944 43.5741 157.164 43.5741 156.066 44.6721L138.999 61.7392C138.472 62.2661 138.176 62.9811 138.176 63.7267C138.176 64.4723 138.472 65.1873 138.999 65.7143L140.701 67.4169L136.789 71.3287C134.249 73.8676 130.308 74.5606 126.983 73.0512C123.865 71.636 120.399 70.8884 116.958 70.8884C112.874 70.8884 108.882 71.9138 105.335 73.8559C103.856 73.4916 102.338 73.3049 100.805 73.3049C98.5875 73.3049 96.4099 73.6875 94.3323 74.4427C91.0148 75.6479 87.4587 74.9009 85.0501 72.493L78.0249 65.4675L78.8616 64.6308C79.3885 64.1038 79.6845 63.3888 79.6845 62.6432C79.6845 61.8976 79.3885 61.1826 78.8616 60.6557L61.7945 43.5886C60.6962 42.4907 58.917 42.4907 57.819 43.5886L19.8232 81.5844C18.7256 82.6824 18.7256 84.4619 19.8232 85.5595L36.8899 102.627C37.4172 103.154 38.1319 103.45 38.8778 103.45C39.6238 103.45 40.3381 103.154 40.8657 102.627L41.8836 101.609L46.8383 106.564C48.0886 107.814 48.9173 109.375 49.2346 111.077C50.8798 119.906 55.1079 127.932 61.4617 134.289L62.395 135.223C60.6027 137.11 59.6168 139.569 59.6168 142.182C59.6168 144.884 60.6694 147.425 62.5799 149.335C64.5524 151.308 67.1425 152.294 69.7337 152.294C69.9025 152.294 70.0706 152.289 70.2393 152.281C70.1025 155.037 71.0843 157.839 73.1846 159.94C75.0955 161.851 77.6361 162.903 80.3383 162.903C80.4136 162.903 80.4885 162.899 80.5638 162.898C80.5061 165.561 81.4888 168.244 83.5169 170.272C85.4278 172.183 87.9685 173.235 90.671 173.235C93.3732 173.235 95.9135 172.183 97.8248 170.272C97.9856 170.111 98.1372 169.945 98.2854 169.776C99.2805 170.123 100.333 170.308 101.397 170.308C103.925 170.308 106.299 169.323 108.08 167.537C109.028 166.589 109.747 165.475 110.215 164.261L110.503 164.549C112.345 166.391 114.764 167.312 117.184 167.312C119.604 167.312 122.023 166.391 123.865 164.549C124.844 163.57 125.58 162.414 126.046 161.153C127.695 162.352 129.647 162.953 131.6 162.953C134.02 162.953 136.441 162.032 138.285 160.191C140.069 158.406 141.052 156.032 141.052 153.506C141.052 152.743 140.961 151.995 140.786 151.271C142.587 150.906 144.241 150.022 145.568 148.693C147.352 146.909 148.335 144.536 148.335 142.012C148.335 140.023 147.723 138.13 146.591 136.543L148.846 134.288C155.274 127.857 159.52 119.73 161.127 110.785C161.396 109.287 162.138 107.896 163.273 106.761L171.659 98.3741L173.134 99.8484C173.683 100.397 174.402 100.672 175.122 100.672C175.841 100.672 176.561 100.397 177.11 99.8484L194.177 82.7814C194.704 82.2544 195 81.5394 195 80.7938C195 80.0482 194.703 79.3339 194.176 78.8066ZM38.8778 96.6643L25.7858 83.5723L59.8062 49.5519L72.8986 62.6439L38.8778 96.6643ZM72.912 145.361C71.1599 147.113 68.3085 147.113 66.555 145.361C65.706 144.512 65.2385 143.383 65.2385 142.182C65.2385 140.982 65.7063 139.853 66.5554 139.004C67.4316 138.128 68.5821 137.69 69.7333 137.69C70.8842 137.69 72.0358 138.128 72.9116 139.004C74.6641 140.757 74.6641 143.608 72.912 145.361ZM83.5159 155.965C82.6675 156.814 81.539 157.282 80.3376 157.282C79.1373 157.282 78.0084 156.814 77.1597 155.965C75.4069 154.213 75.4069 151.361 77.1597 149.608C78.0359 148.732 79.1864 148.294 80.338 148.294C81.4885 148.294 82.64 148.732 83.5159 149.608C85.269 151.36 85.269 154.213 83.5159 155.965ZM93.8483 166.297C92.9992 167.146 91.8707 167.614 90.6703 167.614C89.4696 167.614 88.3408 167.146 87.4921 166.297C85.7393 164.545 85.7393 161.693 87.4921 159.94C88.3683 159.064 89.5188 158.626 90.6703 158.626C91.8209 158.626 92.9724 159.064 93.8483 159.94C95.6011 161.693 95.6011 164.545 93.8483 166.297ZM141.591 144.719C140.868 145.442 139.907 145.841 138.886 145.841C137.864 145.841 136.903 145.442 136.179 144.718L108.91 117.454C107.811 116.357 106.032 116.357 104.935 117.455C103.837 118.552 103.838 120.332 104.935 121.43L134.309 150.8C135.032 151.523 135.429 152.484 135.429 153.506C135.429 154.531 135.031 155.493 134.31 156.215C132.816 157.707 130.386 157.708 128.894 156.216L123.938 151.26C123.911 151.232 123.884 151.203 123.855 151.174C123.847 151.166 123.838 151.159 123.829 151.151L101.05 128.372C99.9519 127.274 98.1726 127.274 97.0747 128.372C95.9768 129.469 95.9768 131.249 97.0747 132.347L119.927 155.199C120.626 155.915 121.01 156.862 121.01 157.867C121.01 158.89 120.612 159.851 119.889 160.573C118.398 162.065 115.97 162.065 114.478 160.573L89.6986 135.794C88.6003 134.696 86.8211 134.696 85.7231 135.794C84.6252 136.891 84.6252 138.671 85.7231 139.769L104.091 158.137C104.096 158.142 104.1 158.148 104.106 158.153C104.828 158.874 105.225 159.833 105.225 160.854C105.225 161.876 104.827 162.838 104.102 163.563C103.38 164.286 102.42 164.685 101.396 164.685C101.149 164.685 100.908 164.659 100.671 164.615C101.126 161.551 100.177 158.317 97.8241 155.964C95.9132 154.053 93.3725 153 90.6703 153C90.5951 153 90.5201 153.004 90.4448 153.006C90.5026 150.342 89.5202 147.66 87.4917 145.632C85.5805 143.721 83.0402 142.668 80.3376 142.668C80.1685 142.668 80.0004 142.673 79.8327 142.681C79.9677 139.926 78.986 137.127 76.8867 135.027C74.3313 132.472 70.7391 131.574 67.4529 132.33L65.4372 130.314C59.8891 124.763 56.1979 117.755 54.7614 110.046C54.2351 107.223 52.8701 104.644 50.8141 102.587L45.859 97.6323L74.0498 69.4415L81.0753 76.467C83.7758 79.1675 87.4525 80.6126 91.2183 80.6126C92.9047 80.6126 94.61 80.3225 96.2528 79.7254C97.0496 79.4357 97.8736 79.2277 98.7085 79.0957L81.3039 96.5007C79.1744 98.6299 78.0015 101.461 78.0015 104.473C78.0015 107.484 79.1744 110.315 81.3036 112.444C83.5015 114.642 86.3876 115.741 89.2751 115.74C92.1619 115.74 95.049 114.641 97.2473 112.444L105.989 103.703L108.355 106.07C108.355 106.071 108.356 106.071 108.357 106.072L108.455 106.17L108.549 106.265C108.55 106.265 108.55 106.266 108.551 106.266L108.553 106.268C108.58 106.295 108.606 106.32 108.633 106.346L141.592 139.305C142.315 140.027 142.712 140.988 142.712 142.011C142.712 143.035 142.315 143.996 141.591 144.719ZM159.296 102.786C157.346 104.737 156.065 107.16 155.593 109.792C154.19 117.602 150.482 124.698 144.87 130.313L142.71 132.474L124.928 114.691C125.314 114.72 125.702 114.739 126.093 114.739C127.893 114.739 129.736 114.423 131.57 113.673C133.007 113.085 133.695 111.443 133.107 110.007C132.52 108.57 130.88 107.882 129.442 108.47C122.207 111.43 113.534 103.272 112.568 102.332C112.552 102.316 112.536 102.301 112.519 102.286L112.42 102.186C112.419 102.186 112.419 102.186 112.419 102.185L112.332 102.099C112.331 102.098 112.331 102.098 112.33 102.097L109.964 99.7292L112.647 97.0455C113.745 95.9476 113.745 94.168 112.647 93.0701C111.549 91.9728 109.77 91.9725 108.672 93.0701L104.007 97.7347C104.006 97.7365 104.004 97.7382 104.002 97.7399C104 97.7416 103.998 97.7437 103.997 97.7454L93.2718 108.47C91.0677 110.674 87.4824 110.673 85.279 108.47C84.2117 107.403 83.6239 105.984 83.6239 104.474C83.6239 102.964 84.2117 101.545 85.2793 100.478L103.791 81.9653C104.821 80.9358 105.965 80.03 107.196 79.2713C110.119 77.4646 113.495 76.5097 116.958 76.5097C119.603 76.5097 122.266 77.0837 124.659 78.1703C130.105 80.6412 136.578 79.49 140.764 75.3041L144.677 71.392L167.684 94.3987L159.296 102.786ZM175.121 93.8865L144.962 63.7274L158.054 50.6354L188.213 80.7945L175.121 93.8865Z" fill="#003B7D"/>
<path d="M177.953 85.7545C179.506 85.7545 180.764 84.496 180.764 82.9436C180.764 81.3913 179.506 80.1328 177.953 80.1328C176.401 80.1328 175.143 81.3913 175.143 82.9436C175.143 84.496 176.401 85.7545 177.953 85.7545Z" fill="#003B7D"/>
<path d="M37.4143 88.5318C38.9667 88.5318 40.2252 87.2734 40.2252 85.721C40.2252 84.1686 38.9667 82.9102 37.4143 82.9102C35.862 82.9102 34.6035 84.1686 34.6035 85.721C34.6035 87.2734 35.862 88.5318 37.4143 88.5318Z" fill="#003B7D"/>
</svg>
