<svg width="470" height="571" viewBox="0 0 470 571" fill="none" xmlns="http://www.w3.org/2000/svg">
<path d="M62.1407 477.717L58.8344 494.301C58.5853 495.568 58.3248 496.859 58.0417 498.138C55.2783 497.565 52.413 497.725 49.7305 498.602C51.8587 501.643 53.7659 504.832 55.4374 508.145C53.3539 514.564 50.2967 520.495 45.1786 524.786C41.7603 527.587 37.6776 529.461 33.3241 530.226C28.9707 530.992 24.4935 530.623 20.3242 529.155L20.4714 528.499C14.9683 517.824 17.9576 504.364 24.7968 494.504C28.2851 489.64 32.4181 485.272 37.0825 481.52C41.7023 477.671 46.6959 474.219 51.6441 470.811C52.7555 470.047 54.0695 469.632 55.4182 469.618C56.7669 469.604 58.0891 469.993 59.2159 470.734C60.3426 471.475 61.2227 472.536 61.7437 473.779C62.2647 475.023 62.4029 476.394 62.1407 477.717Z" fill="#E4E4E4"/>
<path d="M21.502 569.058C20.1104 558.923 18.6791 548.659 19.6552 538.416C20.5226 529.319 23.2979 520.434 28.9504 513.148C31.9505 509.288 35.6011 505.981 39.738 503.375C40.8171 502.696 41.809 504.404 40.7356 505.081C33.5779 509.604 28.0417 516.282 24.925 524.152C21.4828 532.905 20.9302 542.447 21.5281 551.744C21.887 557.367 22.6468 562.951 23.4134 568.532C23.4751 568.784 23.438 569.051 23.3096 569.277C23.1812 569.503 22.9712 569.671 22.7227 569.747C22.4699 569.816 22.2003 569.781 21.9726 569.652C21.7449 569.523 21.5774 569.309 21.5066 569.057L21.502 569.058Z" fill="#F2F2F2"/>
<path d="M33.4449 60.7143C81.9504 59.8711 130.461 59.7499 178.977 60.3509C227.486 60.9554 275.979 62.2852 324.455 64.3403C351.657 65.4936 378.848 66.8752 406.028 68.4851C408.212 68.6143 408.204 65.2178 406.028 65.0891C357.6 62.2242 309.137 60.0805 260.638 58.658C212.146 57.2394 163.64 56.5461 115.12 56.5782C87.8935 56.5963 60.6685 56.843 33.4449 57.3183C31.2614 57.3562 31.2545 60.7524 33.4449 60.7143V60.7143Z" fill="#E6E6E6"/>
<path d="M371.483 39.4203L392.693 37.8421C394.86 37.6809 394.878 34.2836 392.693 34.4461L371.483 36.0242C369.316 36.1855 369.299 39.5828 371.483 39.4203Z" fill="#E6E6E6"/>
<path d="M371.483 59.7962L392.693 58.2181C394.86 58.0569 394.878 54.6595 392.693 54.8221L371.483 56.4002C369.316 56.5614 369.299 59.9588 371.483 59.7962Z" fill="#E6E6E6"/>
<path d="M369.887 50.4912L400.043 53.2301C402.219 53.4278 402.206 50.0306 400.043 49.8341L369.887 47.0952C367.711 46.8976 367.724 50.2948 369.887 50.4912Z" fill="#E6E6E6"/>
<path d="M45.9964 34.8527C44.5215 34.8436 43.0764 35.2687 41.8415 36.075C40.6066 36.8813 39.6363 38.0332 39.0517 39.387C38.3978 40.712 38.1959 42.2147 38.477 43.6653C38.7581 45.1159 39.5067 46.4345 40.6083 47.4195C41.6438 48.3003 42.8859 48.9043 44.2183 49.1749C45.5508 49.4455 46.9301 49.374 48.2274 48.967C49.5541 48.5037 50.7046 47.6408 51.5204 46.4969C52.3363 45.3529 52.7774 43.9843 52.7831 42.5794C52.8424 41.0207 52.42 39.4817 51.5734 38.1714C50.7269 36.8612 49.4972 35.8434 48.0517 35.2565C47.6173 35.1385 47.154 35.197 46.7626 35.4191C46.3712 35.6413 46.0836 36.0091 45.9623 36.4424C45.8552 36.8762 45.9185 37.3345 46.1392 37.7231C46.3598 38.1116 46.7211 38.4009 47.1486 38.5312C47.4446 38.6455 46.8782 38.3857 47.1546 38.5362C47.2682 38.5981 47.384 38.6541 47.4956 38.7201C47.5905 38.7763 47.6813 38.8378 47.7736 38.898C48.0906 39.1049 47.6188 38.7462 47.8215 38.9321C47.9972 39.0934 48.1714 39.2508 48.3311 39.4287C48.3915 39.496 48.6281 39.6831 48.4442 39.5523C48.3035 39.4523 48.39 39.4758 48.4442 39.5562C48.4853 39.6171 48.5288 39.6764 48.5695 39.7378C48.7019 39.9381 48.8223 40.1462 48.93 40.3608C48.9549 40.4105 48.9778 40.4613 49.0031 40.5107C49.0507 40.6033 49.1196 40.6276 49.0078 40.5116C48.901 40.4008 48.969 40.4083 49.0072 40.515C49.0324 40.5851 49.0598 40.6543 49.0842 40.7247C49.1639 40.9537 49.2307 41.187 49.2845 41.4235C49.3094 41.5328 49.3294 41.6427 49.3508 41.7527C49.4267 42.1426 49.3398 41.5102 49.3581 41.7999C49.3734 42.0417 49.3912 42.281 49.387 42.5238C49.3851 42.6349 49.3803 42.7459 49.3725 42.8567C49.3686 42.912 49.3625 42.9672 49.3588 43.0224C49.3412 43.2889 49.3406 42.9251 49.3779 42.9002C49.3003 43.1264 49.2488 43.3607 49.2245 43.5986C49.194 43.7042 49.1579 43.8075 49.124 43.9119C49.0059 44.2762 49.235 43.7133 49.1091 43.9623C49.0054 44.1762 48.8895 44.384 48.762 44.5846C48.7067 44.6686 48.498 44.8584 48.6687 44.7263C48.8538 44.583 48.5716 44.8298 48.5114 44.8933C48.434 44.9748 48.3537 45.0536 48.2705 45.1295C48.2172 45.1815 48.161 45.2304 48.102 45.2759C48.0912 45.2704 48.3858 45.0792 48.227 45.1804C48.0252 45.3091 47.8341 45.4468 47.6214 45.5588C47.5967 45.5718 47.3248 45.6978 47.3259 45.7022C47.3142 45.6564 47.6755 45.575 47.4275 45.6552C47.3754 45.672 47.3243 45.6923 47.2724 45.7098C47.0466 45.7858 46.8161 45.8472 46.5824 45.8935C46.5289 45.9042 46.4723 45.9096 46.4196 45.9232C46.2441 45.9686 46.5874 45.8966 46.5977 45.9025C46.468 45.897 46.338 45.9084 46.2112 45.9367C45.9702 45.9505 45.7286 45.9505 45.4877 45.9367C45.4319 45.9335 45.3763 45.9279 45.3205 45.9247C45.1911 45.9172 45.0961 45.824 45.2683 45.9252C45.4012 46.0033 45.3902 45.9463 45.2725 45.9245C45.2174 45.9143 45.1621 45.9058 45.107 45.8954C44.8685 45.8508 44.6326 45.7931 44.4005 45.7224C44.2756 45.6844 44.1531 45.6401 44.0299 45.5971C43.9762 45.5815 43.9239 45.5614 43.8736 45.5369C43.8729 45.5229 44.1913 45.689 44.0232 45.5985C43.811 45.4841 43.5916 45.3883 43.3845 45.2634C43.2739 45.1967 43.1677 45.1242 43.0602 45.0528C43.0129 45.0244 42.968 44.9922 42.9258 44.9566C42.9294 44.9422 43.1891 45.1829 43.0528 45.053C42.8803 44.8887 42.6958 44.7416 42.5325 44.5666C42.4951 44.5266 42.4598 44.4847 42.4226 44.4446L42.3865 44.4034C42.2945 44.2909 42.2928 44.2915 42.3814 44.405C42.4714 44.4315 42.4673 44.5303 42.3819 44.402C42.3515 44.3563 42.3191 44.3119 42.2887 44.2662C42.1508 44.0697 42.0332 43.8597 41.9377 43.6395C41.9459 43.633 42.0848 44.048 41.9786 43.7348C41.9586 43.6757 41.936 43.6175 41.9163 43.5581C41.8773 43.4405 41.843 43.3216 41.8133 43.2013C41.7839 43.0822 41.7689 42.9593 41.7393 42.8406C41.6893 42.6406 41.7684 42.9984 41.7594 42.9895C41.7311 42.9615 41.7431 42.7881 41.741 42.7466C41.7274 42.4802 41.7578 42.2215 41.7625 41.9567C41.7662 41.7515 41.7456 42.1166 41.7413 42.1059C41.7423 42.0444 41.7532 41.9836 41.7735 41.9256C41.8043 41.7859 41.8329 41.6463 41.8705 41.5082C41.9136 41.3501 41.9632 41.1938 42.0194 41.0396C42.0403 40.9818 42.0659 40.925 42.0854 40.8667C42.1569 40.6535 41.9439 41.1242 42.0613 40.932C42.2229 40.6674 42.3433 40.3812 42.5149 40.1199C42.5555 40.058 42.8027 39.713 42.6715 39.8872C42.5408 40.0607 42.8058 39.7319 42.8559 39.676C43.0643 39.4441 43.3093 39.2537 43.525 39.0316C43.6527 38.9002 43.4359 39.0963 43.4231 39.1055C43.4899 39.0578 43.5553 39.0083 43.6229 38.9617C43.7408 38.8804 43.8617 38.8036 43.9854 38.7312C44.1247 38.6495 44.2823 38.5887 44.4173 38.5023C44.5769 38.4002 44.2953 38.5471 44.2902 38.5502C44.3631 38.514 44.4393 38.485 44.5178 38.4635C44.6493 38.4169 45.2213 38.1701 45.3413 38.2473C45.3359 38.2438 44.907 38.2818 45.2537 38.2595C45.3356 38.2543 45.4172 38.2463 45.4993 38.2429C45.6653 38.236 45.8307 38.2402 45.9965 38.2488C46.446 38.2458 46.8763 38.066 47.1942 37.7482C47.5121 37.4304 47.692 37.0002 47.6949 36.5507C47.6853 36.1034 47.5033 35.6771 47.1868 35.3607C46.8704 35.0443 46.4439 34.8623 45.9965 34.8527L45.9964 34.8527Z" fill="#E6E6E6"/>
<path d="M69.7757 34.8527C68.3008 34.8436 66.8557 35.2687 65.6208 36.075C64.3859 36.8813 63.4156 38.0332 62.831 39.387C62.1771 40.712 61.9752 42.2147 62.2563 43.6653C62.5374 45.1159 63.286 46.4345 64.3876 47.4195C65.4231 48.3003 66.6652 48.9043 67.9976 49.1749C69.3301 49.4455 70.7094 49.374 72.0067 48.967C73.3334 48.5037 74.4839 47.6408 75.2997 46.4969C76.1156 45.3529 76.5567 43.9843 76.5624 42.5794C76.6217 41.0207 76.1993 39.4817 75.3527 38.1714C74.5062 36.8612 73.2765 35.8434 71.831 35.2565C71.3966 35.1385 70.9333 35.197 70.5419 35.4191C70.1505 35.6413 69.8629 36.0091 69.7416 36.4424C69.6345 36.8762 69.6978 37.3345 69.9185 37.7231C70.1391 38.1116 70.5004 38.4009 70.9279 38.5312C71.2239 38.6455 70.6575 38.3857 70.9339 38.5362C71.0475 38.5981 71.1633 38.6541 71.2749 38.7201C71.3698 38.7763 71.4606 38.8378 71.5529 38.898C71.8699 39.1049 71.3981 38.7462 71.6008 38.9321C71.7765 39.0934 71.9507 39.2508 72.1104 39.4287C72.1708 39.496 72.4074 39.6831 72.2235 39.5523C72.0828 39.4523 72.1693 39.4758 72.2235 39.5562C72.2646 39.6171 72.3081 39.6764 72.3488 39.7378C72.4812 39.9381 72.6016 40.1462 72.7093 40.3608C72.7342 40.4105 72.757 40.4613 72.7824 40.5107C72.83 40.6033 72.8989 40.6276 72.7871 40.5116C72.6803 40.4008 72.7483 40.4083 72.7865 40.515C72.8117 40.5851 72.8391 40.6543 72.8635 40.7247C72.9432 40.9537 73.01 41.187 73.0638 41.4235C73.0887 41.5328 73.1087 41.6427 73.1301 41.7527C73.206 42.1426 73.1191 41.5102 73.1374 41.7999C73.1527 42.0417 73.1705 42.281 73.1663 42.5238C73.1644 42.6349 73.1596 42.7459 73.1518 42.8567C73.1479 42.912 73.1418 42.9672 73.1381 43.0224C73.1205 43.2889 73.1199 42.9251 73.1572 42.9002C73.0796 43.1264 73.0281 43.3607 73.0037 43.5986C72.9733 43.7042 72.9372 43.8075 72.9033 43.9119C72.7852 44.2762 73.0143 43.7133 72.8883 43.9623C72.7847 44.1762 72.6688 44.384 72.5413 44.5846C72.486 44.6686 72.2773 44.8584 72.448 44.7263C72.6331 44.583 72.3509 44.8298 72.2907 44.8933C72.2133 44.9748 72.133 45.0536 72.0498 45.1295C71.9965 45.1815 71.9403 45.2304 71.8813 45.2759C71.8705 45.2704 72.1651 45.0792 72.0063 45.1804C71.8045 45.3091 71.6134 45.4468 71.4007 45.5588C71.376 45.5718 71.1041 45.6978 71.1052 45.7022C71.0935 45.6564 71.4548 45.575 71.2067 45.6552C71.1547 45.672 71.1036 45.6923 71.0517 45.7098C70.8259 45.7858 70.5954 45.8472 70.3617 45.8935C70.3082 45.9042 70.2516 45.9096 70.1989 45.9232C70.0234 45.9686 70.3667 45.8966 70.377 45.9025C70.2473 45.897 70.1173 45.9084 69.9905 45.9367C69.7495 45.9505 69.5079 45.9505 69.267 45.9367C69.2112 45.9335 69.1556 45.9279 69.0998 45.9247C68.9704 45.9172 68.8754 45.824 69.0476 45.9252C69.1805 46.0033 69.1695 45.9463 69.0518 45.9245C68.9967 45.9143 68.9414 45.9058 68.8863 45.8954C68.6478 45.8508 68.4119 45.7931 68.1798 45.7224C68.0548 45.6844 67.9324 45.6401 67.8092 45.5971C67.7555 45.5815 67.7032 45.5614 67.6529 45.5369C67.6522 45.5229 67.9706 45.689 67.8025 45.5985C67.5903 45.4841 67.3709 45.3883 67.1638 45.2634C67.0532 45.1967 66.947 45.1242 66.8395 45.0528C66.7922 45.0244 66.7473 44.9922 66.7051 44.9566C66.7087 44.9422 66.9684 45.1829 66.8321 45.053C66.6596 44.8887 66.4751 44.7416 66.3118 44.5666C66.2744 44.5266 66.2391 44.4847 66.2019 44.4446L66.1658 44.4034C66.0738 44.2909 66.0721 44.2915 66.1607 44.405C66.2507 44.4315 66.2466 44.5303 66.1612 44.402C66.1308 44.3563 66.0984 44.3119 66.068 44.2662C65.9301 44.0697 65.8125 43.8597 65.717 43.6395C65.7252 43.633 65.8641 44.048 65.7579 43.7348C65.7379 43.6757 65.7153 43.6175 65.6956 43.5581C65.6566 43.4405 65.6223 43.3216 65.5926 43.2013C65.5632 43.0822 65.5482 42.9593 65.5186 42.8406C65.4686 42.6406 65.5477 42.9984 65.5387 42.9895C65.5104 42.9615 65.5224 42.7881 65.5203 42.7466C65.5067 42.4802 65.5371 42.2215 65.5418 41.9567C65.5455 41.7515 65.5249 42.1166 65.5206 42.1059C65.5216 42.0444 65.5325 41.9836 65.5528 41.9256C65.5836 41.7859 65.6122 41.6463 65.6498 41.5082C65.6929 41.3501 65.7425 41.1938 65.7987 41.0396C65.8196 40.9818 65.8452 40.925 65.8647 40.8667C65.9362 40.6535 65.7232 41.1242 65.8406 40.932C66.0022 40.6674 66.1226 40.3812 66.2942 40.1199C66.3348 40.058 66.582 39.713 66.4508 39.8872C66.3201 40.0607 66.5851 39.7319 66.6352 39.676C66.8436 39.4441 67.0886 39.2537 67.3043 39.0316C67.432 38.9002 67.2152 39.0963 67.2024 39.1055C67.2692 39.0578 67.3346 39.0083 67.4022 38.9617C67.5201 38.8804 67.641 38.8036 67.7647 38.7312C67.904 38.6495 68.0616 38.5887 68.1966 38.5023C68.3561 38.4002 68.0746 38.5471 68.0695 38.5502C68.1424 38.514 68.2186 38.485 68.2971 38.4635C68.4286 38.4169 69.0006 38.1701 69.1206 38.2473C69.1152 38.2438 68.6863 38.2818 69.033 38.2595C69.1149 38.2543 69.1965 38.2463 69.2786 38.2429C69.4446 38.236 69.61 38.2402 69.7758 38.2488C70.2253 38.2458 70.6556 38.066 70.9735 37.7482C71.2914 37.4304 71.4713 37.0002 71.4742 36.5507C71.4646 36.1034 71.2826 35.6771 70.9661 35.3607C70.6497 35.0443 70.2232 34.8623 69.7758 34.8527L69.7757 34.8527Z" fill="#E6E6E6"/>
<path d="M93.555 34.8527C92.0801 34.8436 90.635 35.2687 89.4001 36.075C88.1651 36.8813 87.1949 38.0332 86.6103 39.387C85.9564 40.712 85.7545 42.2147 86.0356 43.6653C86.3167 45.1159 87.0653 46.4345 88.1669 47.4195C89.2024 48.3003 90.4445 48.9043 91.7769 49.1749C93.1094 49.4455 94.4887 49.374 95.786 48.967C97.1127 48.5037 98.2632 47.6408 99.079 46.4969C99.8949 45.3529 100.336 43.9843 100.342 42.5794C100.401 41.0207 99.9786 39.4817 99.132 38.1714C98.2855 36.8612 97.0558 35.8434 95.6103 35.2565C95.1759 35.1385 94.7126 35.197 94.3212 35.4191C93.9298 35.6413 93.6422 36.0091 93.5209 36.4424C93.4138 36.8762 93.4771 37.3345 93.6978 37.7231C93.9184 38.1116 94.2797 38.4009 94.7072 38.5312C95.0032 38.6455 94.4368 38.3857 94.7132 38.5362C94.8268 38.5981 94.9426 38.6541 95.0542 38.7201C95.1491 38.7763 95.2399 38.8378 95.3322 38.898C95.6492 39.1049 95.1774 38.7462 95.3801 38.9321C95.5558 39.0934 95.73 39.2508 95.8897 39.4287C95.9501 39.496 96.1867 39.6831 96.0028 39.5523C95.8621 39.4523 95.9486 39.4758 96.0028 39.5562C96.0439 39.6171 96.0874 39.6764 96.1281 39.7378C96.2605 39.9381 96.3809 40.1462 96.4886 40.3608C96.5135 40.4105 96.5363 40.4613 96.5617 40.5107C96.6093 40.6033 96.6782 40.6276 96.5664 40.5116C96.4596 40.4008 96.5276 40.4083 96.5658 40.515C96.591 40.5851 96.6184 40.6543 96.6428 40.7247C96.7225 40.9537 96.7893 41.187 96.8431 41.4235C96.868 41.5328 96.888 41.6427 96.9094 41.7527C96.9853 42.1426 96.8984 41.5102 96.9167 41.7999C96.932 42.0417 96.9498 42.281 96.9456 42.5238C96.9437 42.6349 96.9389 42.7459 96.9311 42.8567C96.9272 42.912 96.9211 42.9672 96.9174 43.0224C96.8998 43.2889 96.8992 42.9251 96.9365 42.9002C96.8589 43.1264 96.8074 43.3607 96.783 43.5986C96.7526 43.7042 96.7165 43.8075 96.6826 43.9119C96.5645 44.2762 96.7936 43.7133 96.6676 43.9623C96.564 44.1762 96.4481 44.384 96.3206 44.5846C96.2653 44.6686 96.0566 44.8584 96.2273 44.7263C96.4124 44.583 96.1302 44.8298 96.07 44.8933C95.9926 44.9748 95.9123 45.0536 95.8291 45.1295C95.7758 45.1815 95.7196 45.2304 95.6606 45.2759C95.6498 45.2704 95.9444 45.0792 95.7856 45.1804C95.5838 45.3091 95.3927 45.4468 95.18 45.5588C95.1553 45.5718 94.8834 45.6978 94.8845 45.7022C94.8728 45.6564 95.234 45.575 94.986 45.6552C94.934 45.672 94.8829 45.6923 94.831 45.7098C94.6052 45.7858 94.3747 45.8472 94.141 45.8935C94.0875 45.9042 94.0309 45.9096 93.9782 45.9232C93.8027 45.9686 94.146 45.8966 94.1563 45.9025C94.0265 45.897 93.8966 45.9084 93.7698 45.9367C93.5288 45.9505 93.2872 45.9505 93.0462 45.9367C92.9905 45.9335 92.9349 45.9279 92.8791 45.9247C92.7497 45.9172 92.6547 45.824 92.8269 45.9252C92.9598 46.0033 92.9488 45.9463 92.8311 45.9245C92.776 45.9143 92.7207 45.9058 92.6656 45.8954C92.4271 45.8508 92.1912 45.7931 91.9591 45.7224C91.8341 45.6844 91.7117 45.6401 91.5885 45.5971C91.5348 45.5815 91.4825 45.5614 91.4322 45.5369C91.4315 45.5229 91.7499 45.689 91.5818 45.5985C91.3696 45.4841 91.1502 45.3883 90.9431 45.2634C90.8325 45.1967 90.7263 45.1242 90.6188 45.0528C90.5715 45.0244 90.5266 44.9922 90.4844 44.9566C90.4879 44.9422 90.7477 45.1829 90.6114 45.053C90.4389 44.8887 90.2544 44.7416 90.0911 44.5666C90.0537 44.5266 90.0184 44.4847 89.9812 44.4446L89.9451 44.4034C89.8531 44.2909 89.8514 44.2915 89.94 44.405C90.03 44.4315 90.0259 44.5303 89.9405 44.402C89.9101 44.3563 89.8777 44.3119 89.8473 44.2662C89.7094 44.0697 89.5918 43.8597 89.4963 43.6395C89.5045 43.633 89.6434 44.048 89.5372 43.7348C89.5172 43.6757 89.4946 43.6175 89.4749 43.5581C89.4359 43.4405 89.4016 43.3216 89.3719 43.2013C89.3425 43.0822 89.3275 42.9593 89.2979 42.8406C89.2479 42.6406 89.327 42.9984 89.318 42.9895C89.2897 42.9615 89.3017 42.7881 89.2996 42.7466C89.286 42.4802 89.3164 42.2215 89.3211 41.9567C89.3248 41.7515 89.3042 42.1166 89.2999 42.1059C89.3009 42.0444 89.3118 41.9836 89.3321 41.9256C89.3629 41.7859 89.3915 41.6463 89.4291 41.5082C89.4722 41.3501 89.5218 41.1938 89.578 41.0396C89.5989 40.9818 89.6245 40.925 89.644 40.8667C89.7155 40.6535 89.5025 41.1242 89.6199 40.932C89.7815 40.6674 89.9019 40.3812 90.0735 40.1199C90.1141 40.058 90.3613 39.713 90.2301 39.8872C90.0994 40.0607 90.3644 39.7319 90.4145 39.676C90.6229 39.4441 90.8679 39.2537 91.0836 39.0316C91.2113 38.9002 90.9945 39.0963 90.9817 39.1055C91.0485 39.0578 91.1139 39.0083 91.1815 38.9617C91.2994 38.8804 91.4203 38.8036 91.544 38.7312C91.6833 38.6495 91.8409 38.5887 91.9759 38.5023C92.1354 38.4002 91.8539 38.5471 91.8488 38.5502C91.9217 38.514 91.9979 38.485 92.0764 38.4635C92.2079 38.4169 92.7799 38.1701 92.8999 38.2473C92.8945 38.2438 92.4656 38.2818 92.8123 38.2595C92.8942 38.2543 92.9758 38.2463 93.0579 38.2429C93.2239 38.236 93.3893 38.2402 93.5551 38.2488C94.0046 38.2458 94.4349 38.066 94.7528 37.7482C95.0707 37.4304 95.2506 37.0002 95.2535 36.5507C95.2439 36.1034 95.0619 35.6771 94.7454 35.3607C94.429 35.0443 94.0025 34.8623 93.5551 34.8527L93.555 34.8527Z" fill="#E6E6E6"/>
<path d="M437.071 410.92H20.4845C15.2167 410.914 10.1663 408.819 6.44139 405.096C2.71645 401.372 0.621163 396.323 0.615234 391.056V19.8638C0.621141 14.5974 2.71639 9.5484 6.44132 5.82449C10.1662 2.10058 15.2166 0.00590551 20.4845 0H437.071C442.339 0.00590551 447.389 2.10058 451.114 5.82449C454.839 9.5484 456.934 14.5974 456.94 19.8638V391.056C456.934 396.323 454.839 401.372 451.114 405.096C447.389 408.819 442.339 410.914 437.071 410.92ZM20.4845 2.26402C15.8171 2.26933 11.3424 4.12529 8.04201 7.42474C4.74165 10.7242 2.88518 15.1977 2.87987 19.8638V391.056C2.88531 395.722 4.74184 400.196 8.04218 403.495C11.3425 406.794 15.8172 408.65 20.4845 408.656H437.071C441.738 408.65 446.213 406.794 449.513 403.495C452.814 400.196 454.67 395.722 454.675 391.056V19.8638C454.67 15.1977 452.814 10.7242 449.513 7.42474C446.213 4.12529 441.738 2.26933 437.071 2.26402H20.4845Z" fill="#E6E6E6"/>
<path d="M19.793 252.558L166.292 252.113L312.043 251.669L394.261 251.419C394.702 251.404 395.119 251.219 395.425 250.902C395.731 250.585 395.902 250.162 395.902 249.721C395.902 249.281 395.731 248.858 395.425 248.541C395.119 248.224 394.702 248.039 394.261 248.023L247.763 248.469L102.012 248.912L19.793 249.162C19.3527 249.177 18.9356 249.363 18.6295 249.68C18.3234 249.997 18.1523 250.42 18.1523 250.86C18.1523 251.301 18.3234 251.724 18.6295 252.041C18.9356 252.357 19.3527 252.543 19.793 252.558Z" fill="#E6E6E6"/>
<path d="M93.7 249.805L94.6059 196.332C94.6429 194.146 91.2459 194.146 91.2089 196.332L90.303 249.805C90.266 251.991 93.6629 251.991 93.7 249.805Z" fill="#E6E6E6"/>
<path d="M163.716 250.384L165.924 183.171L166.555 163.968C166.627 161.782 163.229 161.784 163.158 163.968L160.95 231.18L160.319 250.384C160.248 252.57 163.645 252.567 163.716 250.384Z" fill="#E6E6E6"/>
<path d="M233.546 132.107C232.215 155.913 229.751 226.131 228.419 249.938C228.297 252.121 231.694 252.114 231.816 249.938C233.148 226.131 235.612 155.913 236.943 132.107C237.065 129.923 233.668 129.93 233.546 132.107Z" fill="#E6E6E6"/>
<path d="M303.038 226.05L302.621 248.932C302.582 251.118 305.979 251.118 306.018 248.932C306.51 221.907 307.771 222.788 307.91 215.161C307.95 212.975 304.553 212.975 304.513 215.161C304.513 215.161 303.53 199.026 303.038 226.05Z" fill="#E6E6E6"/>
<path d="M371.104 165.94L371.488 230.135L371.598 248.517C371.613 248.957 371.799 249.374 372.115 249.68C372.432 249.986 372.856 250.157 373.296 250.157C373.737 250.157 374.16 249.986 374.477 249.68C374.794 249.374 374.979 248.957 374.995 248.517L374.611 184.322L374.5 165.94C374.485 165.5 374.3 165.083 373.983 164.777C373.666 164.471 373.243 164.3 372.802 164.3C372.361 164.3 371.938 164.471 371.621 164.777C371.304 165.083 371.119 165.5 371.104 165.94Z" fill="#E6E6E6"/>
<path d="M20.0672 250.648C17.2553 242.923 23.5938 235.493 30.1066 232.155C37.9094 228.155 46.8856 227.248 54.7712 223.392C66.5272 217.644 75.09 207.328 82.7092 197.001C90.5514 186.372 97.7269 174.965 107.692 166.134C112.943 161.376 119.145 157.788 125.887 155.607C134.382 152.957 143.391 152.775 152.169 153.843C170.307 156.05 187.121 163.54 204.622 168.3C221.123 172.788 239.303 175.311 255.498 168.332C263.727 164.787 270.456 158.84 277.683 153.694C284.677 148.661 292.498 144.889 300.792 142.549C317.049 138.03 334.804 139.237 349.94 146.877C363.853 153.81 374.87 165.434 381.045 179.697C388.22 196.834 387.286 215.984 384.942 234.022C384.336 238.684 383.615 243.331 382.886 247.976C382.551 250.114 385.823 251.035 386.162 248.879C389.081 230.279 391.991 211.09 388.359 192.373C385.219 176.03 376.229 161.391 363.073 151.194C349.861 140.971 333.437 135.789 316.748 136.579C308.003 136.984 299.393 138.899 291.3 142.237C282.899 145.711 275.785 150.86 268.559 156.278C261.13 161.849 253.471 166.456 244.247 168.273C235.3 170.035 225.993 169.375 217.085 167.711C198.704 164.278 181.572 156.408 163.348 152.375C146.463 148.639 128.243 148.266 113.123 157.802C101.493 165.137 93.2746 176.525 85.3875 187.522C77.5696 198.422 69.6527 210.077 58.2208 217.523C51.2472 222.065 43.408 223.741 35.6069 226.296C27.7856 228.856 20.2771 233.177 17.088 241.188C15.7136 244.487 15.608 248.178 16.7915 251.55C17.5332 253.588 20.8172 252.708 20.0672 250.648V250.648Z" fill="#E6E6E6"/>
<path d="M92.5729 188.938L92.5684 188.941L92.5774 188.938H92.5729Z" fill="#E6E6E6"/>
<path d="M98.4631 185.814C97.678 184.424 96.4255 183.357 94.9281 182.803C93.4306 182.249 91.7852 182.244 90.2842 182.788C89.538 183.06 88.854 183.479 88.2727 184.02C87.6913 184.562 87.2244 185.214 86.8996 185.938C86.8345 186.092 86.7965 186.254 86.7435 186.412C86.6699 186.531 86.5814 186.639 86.5155 186.763C85.8114 188.166 85.6187 189.77 85.9703 191.299C86.322 192.828 87.1962 194.187 88.4422 195.142C89.6882 196.096 91.2281 196.586 92.7967 196.527C94.3653 196.469 95.8643 195.865 97.0357 194.821C98.2667 193.708 99.0797 192.208 99.3394 190.569C99.599 188.931 99.2898 187.253 98.4631 185.814ZM94.2087 188.698C94.2226 188.784 94.2175 188.863 94.2087 188.698V188.698ZM93.7762 187.715C93.7596 187.696 93.7616 187.698 93.7762 187.715V187.715ZM91.8701 188.481C91.8446 188.442 91.8421 188.435 91.8701 188.481V188.481ZM92.3219 188.864C92.4295 188.901 92.387 188.893 92.3219 188.864V188.864ZM92.5237 188.96L92.5684 188.94C92.5574 188.941 92.5464 188.939 92.5367 188.934L92.538 188.933L92.5731 188.938L92.5796 188.935L92.5594 188.93C92.5769 188.929 92.579 188.932 92.5801 188.934C92.7822 188.842 92.6454 188.887 92.5282 188.923L92.5204 188.921C92.4473 188.884 92.3686 188.859 92.2875 188.846C92.28 188.842 92.2711 188.839 92.2649 188.835C92.1998 188.788 91.8711 188.532 92.1761 188.801C92.1097 188.742 92.0441 188.685 91.9817 188.621C91.9449 188.584 91.9116 188.543 91.8821 188.499C91.8421 188.43 91.8033 188.361 91.7657 188.291L91.76 188.254C91.755 188.222 91.7513 188.209 91.7472 188.191C91.7491 188.171 91.7522 188.15 91.7553 188.13C91.778 188.069 91.7925 188.005 91.7984 187.94L91.8115 187.924C91.8603 187.856 91.903 187.776 91.9496 187.705C91.7034 188.079 92.0459 187.664 92.0715 187.612C92.0758 187.603 92.0682 187.608 92.0701 187.601C92.08 187.596 92.077 187.6 92.089 187.593C92.1653 187.548 92.2376 187.498 92.3151 187.455C92.4073 187.403 92.7708 187.3 92.3939 187.408C92.4795 187.384 92.5617 187.353 92.6482 187.33C92.6639 187.326 92.7908 187.308 92.8591 187.296C92.9191 187.294 92.9774 187.293 92.9835 187.293C93.0117 187.293 93.0399 187.297 93.0681 187.298C93.0056 187.306 93.2828 187.366 93.3651 187.379C93.377 187.388 93.383 187.394 93.3992 187.406C93.4688 187.457 93.5535 187.502 93.6269 187.549C93.2985 187.337 93.6312 187.566 93.694 187.629C93.7315 187.666 93.7661 187.706 93.8014 187.746C93.8337 187.783 93.863 187.824 93.8889 187.866C93.9427 187.965 94 188.064 94.0566 188.161L94.0723 188.186C94.072 188.19 94.0718 188.193 94.0718 188.196C94.1013 188.353 94.1448 188.508 94.2019 188.658C94.2047 188.67 94.2068 188.683 94.2083 188.696C94.2135 188.782 94.2208 188.868 94.2209 188.955L94.2202 188.972C93.9586 188.836 93.6684 188.764 93.3734 188.762C93.0784 188.76 92.7871 188.828 92.5236 188.96H92.5237Z" fill="#E6E6E6"/>
<path d="M92.5828 188.936C92.5872 188.937 92.583 188.937 92.582 188.938L92.5828 188.936Z" fill="#E6E6E6"/>
<path d="M92.582 188.936L92.5831 188.936L92.582 188.936Z" fill="#E6E6E6"/>
<path d="M92.5826 188.938L92.5781 188.938C92.5839 188.939 92.5818 188.938 92.5826 188.938Z" fill="#E6E6E6"/>
<path d="M92.5801 188.935L92.5821 188.936L92.5801 188.935Z" fill="#E6E6E6"/>
<path d="M165.042 157.242L165.037 157.244L165.046 157.242H165.042Z" fill="#E6E6E6"/>
<path d="M170.932 154.118C170.147 152.728 168.894 151.661 167.397 151.107C165.899 150.553 164.254 150.548 162.753 151.092C162.007 151.364 161.323 151.783 160.741 152.324C160.16 152.865 159.693 153.517 159.368 154.242C159.303 154.396 159.265 154.558 159.212 154.716C159.139 154.835 159.05 154.942 158.984 155.067C158.28 156.469 158.087 158.073 158.439 159.603C158.791 161.132 159.665 162.491 160.911 163.445C162.157 164.4 163.697 164.89 165.265 164.831C166.834 164.773 168.333 164.169 169.504 163.124C170.735 162.012 171.548 160.511 171.808 158.873C172.068 157.234 171.759 155.556 170.932 154.118ZM166.677 157.002C166.691 157.087 166.686 157.166 166.677 157.002V157.002ZM166.245 156.019C166.228 156 166.23 156.002 166.245 156.019V156.019ZM164.339 156.785C164.313 156.746 164.311 156.739 164.339 156.785V156.785ZM164.791 157.168C164.898 157.204 164.856 157.197 164.791 157.168V157.168ZM164.992 157.264L165.037 157.243C165.026 157.245 165.015 157.242 165.005 157.237L165.007 157.237L165.042 157.241L165.048 157.238L165.028 157.234C165.046 157.233 165.048 157.235 165.049 157.238C165.251 157.146 165.114 157.19 164.997 157.226L164.989 157.225C164.916 157.188 164.837 157.162 164.756 157.15C164.749 157.146 164.74 157.143 164.734 157.138C164.669 157.092 164.34 156.835 164.645 157.104C164.578 157.046 164.513 156.988 164.45 156.925C164.414 156.887 164.38 156.846 164.351 156.803C164.311 156.734 164.272 156.665 164.234 156.595L164.229 156.557C164.224 156.526 164.22 156.513 164.216 156.494C164.218 156.475 164.221 156.454 164.224 156.434C164.247 156.373 164.261 156.309 164.267 156.244L164.28 156.227C164.329 156.159 164.372 156.08 164.418 156.009C164.172 156.383 164.515 155.968 164.54 155.915C164.544 155.906 164.537 155.911 164.539 155.905C164.549 155.899 164.546 155.903 164.558 155.896C164.634 155.851 164.706 155.801 164.784 155.758C164.876 155.707 165.239 155.604 164.863 155.712C164.948 155.687 165.03 155.656 165.117 155.634C165.133 155.63 165.259 155.612 165.328 155.6C165.388 155.598 165.446 155.596 165.452 155.596C165.48 155.597 165.509 155.6 165.537 155.601C165.474 155.61 165.751 155.67 165.834 155.682C165.846 155.692 165.852 155.698 165.868 155.71C165.937 155.76 166.022 155.806 166.096 155.853C165.767 155.641 166.1 155.87 166.163 155.933C166.2 155.97 166.235 156.01 166.27 156.05C166.302 156.087 166.332 156.127 166.358 156.17C166.411 156.268 166.469 156.368 166.525 156.465L166.541 156.49C166.541 156.493 166.54 156.497 166.54 156.5C166.57 156.657 166.614 156.812 166.671 156.961C166.673 156.974 166.676 156.987 166.677 157C166.682 157.086 166.689 157.172 166.69 157.259L166.689 157.276C166.427 157.14 166.137 157.068 165.842 157.065C165.547 157.063 165.256 157.131 164.992 157.264Z" fill="#E6E6E6"/>
<path d="M165.051 157.241L165.047 157.242C165.053 157.243 165.051 157.242 165.051 157.241Z" fill="#E6E6E6"/>
<path d="M165.049 157.238L165.051 157.239L165.049 157.238Z" fill="#E6E6E6"/>
<path d="M165.052 157.24C165.056 157.241 165.052 157.241 165.051 157.241L165.052 157.24Z" fill="#E6E6E6"/>
<path d="M165.051 157.239L165.052 157.24L165.051 157.239Z" fill="#E6E6E6"/>
<path d="M235.252 173.087L235.254 173.088L235.252 173.087Z" fill="#E6E6E6"/>
<path d="M241.135 122.422C240.35 121.032 239.097 119.965 237.6 119.411C236.102 118.857 234.457 118.851 232.956 119.395C232.21 119.668 231.526 120.087 230.945 120.628C230.363 121.169 229.896 121.821 229.571 122.546C229.506 122.7 229.468 122.862 229.415 123.02C229.342 123.139 229.253 123.246 229.187 123.37C228.483 124.773 228.291 126.377 228.642 127.906C228.994 129.436 229.868 130.795 231.114 131.749C232.36 132.703 233.9 133.193 235.469 133.135C237.037 133.076 238.536 132.473 239.708 131.428C240.939 130.315 241.752 128.815 242.011 127.177C242.271 125.538 241.962 123.86 241.135 122.422ZM236.881 125.305C236.894 125.391 236.889 125.47 236.881 125.305V125.305ZM236.448 124.322C236.431 124.303 236.434 124.305 236.448 124.322V124.322ZM234.542 125.089C234.517 125.049 234.514 125.043 234.542 125.089V125.089ZM234.994 125.472C235.101 125.508 235.059 125.501 234.994 125.472V125.472ZM235.196 125.568L235.24 125.547C235.229 125.548 235.218 125.546 235.209 125.541L235.21 125.541L235.245 125.545L235.251 125.542L235.231 125.537C235.249 125.537 235.251 125.539 235.252 125.542C235.454 125.449 235.317 125.494 235.2 125.53L235.192 125.528C235.119 125.491 235.04 125.466 234.959 125.454C234.952 125.449 234.943 125.446 234.937 125.442C234.872 125.396 234.543 125.139 234.848 125.408C234.782 125.349 234.716 125.292 234.654 125.229C234.617 125.191 234.583 125.15 234.554 125.106C234.514 125.038 234.475 124.968 234.437 124.899L234.432 124.861C234.427 124.83 234.423 124.817 234.419 124.798C234.421 124.779 234.424 124.758 234.427 124.737C234.45 124.676 234.464 124.613 234.47 124.548L234.483 124.531C234.532 124.463 234.575 124.384 234.621 124.313C234.375 124.687 234.718 124.272 234.743 124.219C234.748 124.21 234.74 124.215 234.742 124.209C234.752 124.203 234.749 124.207 234.761 124.2C234.837 124.155 234.909 124.105 234.987 124.062C235.079 124.011 235.443 123.908 235.066 124.015C235.151 123.991 235.233 123.96 235.32 123.938C235.336 123.933 235.463 123.916 235.531 123.903C235.591 123.902 235.649 123.9 235.655 123.9C235.684 123.9 235.712 123.904 235.74 123.905C235.677 123.914 235.955 123.973 236.037 123.986C236.049 123.995 236.055 124.001 236.071 124.013C236.141 124.064 236.225 124.109 236.299 124.157C235.97 123.944 236.303 124.174 236.366 124.236C236.403 124.274 236.438 124.314 236.473 124.353C236.506 124.391 236.535 124.431 236.561 124.473C236.615 124.572 236.672 124.672 236.728 124.769L236.744 124.794C236.744 124.797 236.744 124.8 236.744 124.803C236.773 124.961 236.817 125.115 236.874 125.265C236.876 125.278 236.879 125.29 236.88 125.303C236.885 125.39 236.893 125.476 236.893 125.562L236.892 125.58C236.63 125.443 236.34 125.371 236.045 125.369C235.75 125.367 235.459 125.435 235.196 125.568Z" fill="#E6E6E6"/>
<path d="M235.245 173.09L235.24 173.092L235.249 173.09H235.245Z" fill="#E6E6E6"/>
<path d="M235.254 173.087L235.255 173.088L235.254 173.087Z" fill="#E6E6E6"/>
<path d="M235.255 173.09L235.25 173.091C235.256 173.091 235.254 173.09 235.255 173.09Z" fill="#E6E6E6"/>
<path d="M235.257 173.088C235.261 173.089 235.257 173.089 235.256 173.089L235.257 173.088Z" fill="#E6E6E6"/>
<path d="M312.471 209.587C311.686 208.197 310.433 207.13 308.936 206.576C307.438 206.022 305.793 206.016 304.292 206.56C303.546 206.833 302.862 207.252 302.28 207.793C301.699 208.334 301.232 208.986 300.907 209.711C300.842 209.865 300.804 210.027 300.751 210.185C300.678 210.304 300.589 210.411 300.523 210.535C299.819 211.938 299.626 213.542 299.978 215.071C300.33 216.601 301.204 217.96 302.45 218.914C303.696 219.868 305.236 220.358 306.805 220.3C308.373 220.241 309.872 219.638 311.043 218.593C312.275 217.481 313.087 215.98 313.347 214.342C313.607 212.703 313.298 211.025 312.471 209.587ZM308.216 212.47C308.23 212.556 308.225 212.635 308.216 212.47V212.47ZM307.784 211.487C307.767 211.468 307.769 211.47 307.784 211.487V211.487ZM305.878 212.254C305.852 212.214 305.85 212.208 305.878 212.254V212.254ZM306.33 212.637C306.437 212.673 306.395 212.666 306.33 212.637V212.637ZM306.531 212.733L306.576 212.712C306.565 212.713 306.554 212.711 306.544 212.706L306.546 212.706L306.581 212.71L306.587 212.707L306.567 212.702C306.585 212.702 306.587 212.704 306.588 212.707C306.79 212.614 306.653 212.659 306.536 212.695L306.528 212.693C306.455 212.656 306.376 212.631 306.295 212.619C306.288 212.615 306.279 212.611 306.273 212.607C306.208 212.561 305.879 212.304 306.184 212.573C306.117 212.515 306.052 212.457 305.989 212.394C305.953 212.356 305.919 212.315 305.89 212.271C305.85 212.203 305.811 212.134 305.773 212.064L305.768 212.026C305.763 211.995 305.759 211.982 305.755 211.963C305.757 211.944 305.76 211.923 305.763 211.902C305.786 211.841 305.8 211.778 305.806 211.713L305.819 211.696C305.868 211.628 305.911 211.549 305.957 211.478C305.711 211.852 306.054 211.437 306.079 211.384C306.084 211.375 306.076 211.38 306.078 211.374C306.088 211.368 306.085 211.372 306.097 211.365C306.173 211.32 306.245 211.27 306.323 211.227C306.415 211.176 306.779 211.073 306.402 211.18C306.487 211.156 306.569 211.125 306.656 211.103C306.672 211.098 306.799 211.081 306.867 211.068C306.927 211.067 306.985 211.065 306.991 211.065C307.019 211.066 307.048 211.069 307.076 211.07C307.013 211.079 307.291 211.138 307.373 211.151C307.385 211.16 307.391 211.166 307.407 211.178C307.477 211.229 307.561 211.274 307.635 211.322C307.306 211.11 307.639 211.339 307.702 211.401C307.739 211.439 307.774 211.479 307.809 211.518C307.841 211.556 307.871 211.596 307.897 211.638C307.95 211.737 308.008 211.837 308.064 211.934L308.08 211.959C308.08 211.962 308.08 211.965 308.08 211.968C308.109 212.126 308.153 212.28 308.21 212.43C308.212 212.443 308.215 212.456 308.216 212.468C308.221 212.555 308.229 212.641 308.229 212.727L308.228 212.745C307.966 212.608 307.676 212.536 307.381 212.534C307.086 212.532 306.795 212.6 306.531 212.733Z" fill="#E6E6E6"/>
<path d="M306.581 137.998L306.576 138L306.585 137.998H306.581Z" fill="#E6E6E6"/>
<path d="M306.59 137.995L306.591 137.995L306.59 137.995Z" fill="#E6E6E6"/>
<path d="M306.59 137.997L306.586 137.998C306.592 137.998 306.59 137.997 306.59 137.997Z" fill="#E6E6E6"/>
<path d="M306.593 137.996C306.597 137.997 306.593 137.997 306.592 137.997L306.593 137.996Z" fill="#E6E6E6"/>
<path d="M306.588 137.994L306.59 137.995L306.588 137.994Z" fill="#E6E6E6"/>
<path d="M373.398 160.635L373.4 160.636L373.398 160.635Z" fill="#E6E6E6"/>
<path d="M379.278 157.514C378.492 156.124 377.24 155.058 375.742 154.504C374.245 153.95 372.6 153.944 371.099 154.488C370.352 154.76 369.668 155.179 369.087 155.721C368.506 156.262 368.039 156.914 367.714 157.639C367.649 157.793 367.611 157.955 367.558 158.112C367.484 158.231 367.396 158.339 367.33 158.463C366.626 159.866 366.433 161.47 366.785 162.999C367.136 164.529 368.011 165.887 369.257 166.842C370.503 167.796 372.043 168.286 373.611 168.228C375.18 168.169 376.679 167.565 377.85 166.521C379.081 165.408 379.894 163.908 380.154 162.269C380.413 160.631 380.104 158.953 379.278 157.514ZM375.023 160.398C375.037 160.484 375.032 160.563 375.023 160.398V160.398ZM374.591 159.415C374.574 159.396 374.576 159.398 374.591 159.415V159.415ZM372.685 160.181C372.659 160.142 372.657 160.136 372.685 160.181V160.181ZM373.136 160.564C373.244 160.601 373.201 160.593 373.136 160.564V160.564ZM373.338 160.66L373.383 160.64C373.372 160.641 373.361 160.639 373.351 160.634L373.352 160.633L373.387 160.638L373.394 160.635L373.374 160.63C373.391 160.63 373.393 160.632 373.394 160.635C373.597 160.542 373.46 160.587 373.343 160.623L373.335 160.621C373.262 160.584 373.183 160.559 373.102 160.546C373.094 160.542 373.086 160.539 373.079 160.535C373.014 160.488 372.686 160.232 372.99 160.501C372.924 160.442 372.859 160.385 372.796 160.321C372.759 160.284 372.726 160.243 372.696 160.199C372.656 160.13 372.618 160.061 372.58 159.991L372.574 159.954C372.569 159.922 372.566 159.909 372.562 159.891C372.564 159.871 372.567 159.85 372.57 159.83C372.592 159.769 372.607 159.705 372.613 159.64L372.626 159.624C372.675 159.556 372.717 159.476 372.764 159.406C372.518 159.779 372.86 159.364 372.886 159.312C372.89 159.303 372.883 159.308 372.884 159.301C372.894 159.296 372.891 159.3 372.903 159.293C372.98 159.248 373.052 159.198 373.129 159.155C373.222 159.104 373.585 159.001 373.208 159.108C373.294 159.084 373.376 159.053 373.463 159.03C373.478 159.026 373.605 159.008 373.673 158.996C373.734 158.995 373.792 158.993 373.798 158.993C373.826 158.993 373.854 158.997 373.882 158.998C373.82 159.006 374.097 159.066 374.179 159.079C374.191 159.088 374.197 159.094 374.214 159.106C374.283 159.157 374.368 159.202 374.441 159.25C374.113 159.037 374.446 159.266 374.508 159.329C374.546 159.367 374.58 159.407 374.616 159.446C374.648 159.484 374.677 159.524 374.703 159.566C374.757 159.665 374.814 159.765 374.871 159.862L374.887 159.887C374.886 159.89 374.886 159.893 374.886 159.896C374.916 160.054 374.959 160.208 375.016 160.358C375.019 160.37 375.021 160.383 375.023 160.396C375.028 160.482 375.035 160.568 375.035 160.655L375.035 160.673C374.773 160.536 374.483 160.464 374.188 160.462C373.893 160.46 373.602 160.528 373.338 160.66Z" fill="#E6E6E6"/>
<path d="M373.389 160.638L373.385 160.64L373.394 160.638H373.389Z" fill="#E6E6E6"/>
<path d="M373.395 160.635L373.397 160.636L373.395 160.635Z" fill="#E6E6E6"/>
<path d="M373.399 160.636C373.404 160.637 373.399 160.637 373.398 160.637L373.399 160.636Z" fill="#E6E6E6"/>
<path d="M373.397 160.638L373.393 160.638C373.398 160.639 373.396 160.638 373.397 160.638Z" fill="#E6E6E6"/>
<path d="M355.082 212.516L302.432 215.441C302.136 215.458 301.844 215.36 301.617 215.168C301.39 214.975 301.246 214.704 301.214 214.408C301.182 214.113 301.264 213.816 301.444 213.58C301.624 213.343 301.888 213.185 302.181 213.137L355.994 204.383L355.082 212.516Z" fill="#3F3D56"/>
<path d="M421.991 329.697L441.831 296.328L456.495 303.252C456.495 303.252 431.227 334.803 430.422 335.71C430.766 337.244 430.637 338.846 430.052 340.304C429.466 341.763 428.451 343.009 427.141 343.879C425.831 344.748 424.288 345.2 422.716 345.173C421.144 345.147 419.617 344.644 418.337 343.731C417.057 342.818 416.085 341.539 415.548 340.061C415.012 338.584 414.936 336.978 415.332 335.457C415.728 333.936 416.577 332.571 417.766 331.542C418.955 330.514 420.428 329.87 421.991 329.697Z" fill="#FFB6B6"/>
<path d="M430.243 252.182L462.387 268.948C464.396 270.395 466.08 272.245 467.333 274.379C468.586 276.514 469.38 278.887 469.663 281.346C469.947 283.804 469.714 286.295 468.98 288.659C468.246 291.023 467.026 293.207 465.399 295.073L443.24 320.486L433.586 307.408L441.027 291.854L426.619 288.056L430.243 252.182Z" fill="#6C63FF"/>
<path d="M338.643 213.061L335.022 251.712L318.805 251.739C318.805 251.739 328.109 212.406 328.447 211.241C327.478 210.003 326.908 208.5 326.812 206.931C326.716 205.363 327.099 203.802 327.91 202.455C328.721 201.108 329.921 200.039 331.353 199.389C332.784 198.74 334.38 198.54 335.927 198.816C337.475 199.093 338.902 199.832 340.021 200.937C341.139 202.042 341.895 203.46 342.189 205.004C342.484 206.548 342.302 208.145 341.669 209.584C341.035 211.023 339.98 212.235 338.643 213.061V213.061Z" fill="#FFB6B6"/>
<path d="M370.924 292.1L333.598 285.257C317.879 283.367 311.429 273.028 314.265 262.943L323.392 230.488L337.721 238.168L337.666 255.408L357.722 252.667L370.924 292.1Z" fill="#6C63FF"/>
<path d="M355.646 559.204H345.383L340.5 519.626H355.648L355.646 559.204Z" fill="#FFB6B6"/>
<path d="M356.007 569.908L324.445 569.907V569.508C324.446 566.251 325.74 563.127 328.044 560.824C330.347 558.521 333.472 557.227 336.73 557.227H336.731L342.496 552.854L353.252 557.228L356.007 557.228L356.007 569.908Z" fill="#2F2E41"/>
<path d="M428.266 559.204H438.529L443.412 519.626H428.264L428.266 559.204Z" fill="#FFB6B6"/>
<path d="M427.905 569.908L459.466 569.907V569.508C459.466 566.251 458.172 563.127 455.868 560.824C453.564 558.521 450.44 557.227 447.182 557.227H447.181L441.416 552.854L430.659 557.228L427.904 557.228L427.905 569.908Z" fill="#2F2E41"/>
<path d="M340.047 490.543C340.199 488.284 341.404 475.795 341.404 475.795L344.291 449.309L349.379 379.1L353.914 360.646L376.363 369.388L394.579 360.658L416.229 367.578L433.088 373.898C433.088 373.898 433.117 376.604 433.247 379.872C433.42 384.15 433.723 389.396 434.445 390.759C435.65 393.169 435.347 406.106 435.347 406.106C435.347 406.106 436.545 432.426 438.054 435.312C439.562 438.198 439.865 444.208 439.41 445.413C438.956 446.618 440.919 478.227 440.919 478.227C440.919 478.227 445.957 534.163 442.796 542.597C439.635 551.032 427.69 545.507 427.69 545.507C427.69 545.507 428.267 543.256 424.803 542.195C421.339 541.134 410.788 461.82 410.788 461.82C410.788 461.82 408.825 445.557 407.021 440.896C405.216 436.235 403.556 423.14 403.556 423.14C403.556 423.14 392.413 401.466 392.269 396.647C392.269 396.647 390.811 392.137 389.433 397.101C388.054 402.065 383.991 413.956 383.991 413.956L380.029 428.559L375.367 450.377L372.35 468.746C372.35 468.746 367.832 493.126 367.111 494.179C366.389 495.232 367.111 517.505 367.111 517.505C367.111 517.505 363.618 536.473 358.681 539.785C353.745 543.097 340.666 539.838 340.666 539.838C340.666 539.838 339.896 492.801 340.047 490.543Z" fill="#2F2E41"/>
<path d="M356.829 301.264L353.961 338.415L349.651 342.874C349.263 343.276 348.959 343.752 348.759 344.274C348.559 344.796 348.466 345.353 348.487 345.912C348.507 346.471 348.64 347.02 348.877 347.526C349.115 348.032 349.452 348.485 349.869 348.858L347.495 352.928L346.654 365.754C346.414 366.752 346.398 367.791 346.606 368.796C346.814 369.801 347.242 370.747 347.858 371.568C348.474 372.389 349.265 373.063 350.172 373.543C351.079 374.024 352.081 374.298 353.107 374.346L427.423 377.836C428.443 377.884 429.461 377.708 430.405 377.319C431.349 376.931 432.196 376.34 432.887 375.588C433.577 374.836 434.094 373.942 434.401 372.969C434.708 371.995 434.797 370.967 434.663 369.955L428.344 322.395V318.838L425.515 311.971L426.969 288.964L430.351 252.446L410.691 247.37L400.032 240.038L381.513 240.332L370.276 249.558L355.294 251.904L343.963 254.156L342.52 257.292L345.406 256.665L355.87 297.464L356.829 301.264Z" fill="#6C63FF"/>
<path d="M390.358 235.059C402.406 235.059 412.173 225.295 412.173 213.25C412.173 201.205 402.406 191.441 390.358 191.441C378.31 191.441 368.543 201.205 368.543 213.25C368.543 225.295 378.31 235.059 390.358 235.059Z" fill="#FFB6B6"/>
<path d="M385.098 233.653L400.859 232.849C402.879 232.746 405.083 232.568 406.552 231.178C407.342 230.32 407.95 229.311 408.339 228.211C409.796 224.827 411.253 221.443 412.673 218.044C414.637 213.342 416.566 208.377 416.065 203.305C415.947 200.99 414.975 198.799 413.338 197.158C412.502 196.366 411.427 195.874 410.282 195.758C409.137 195.642 407.985 195.909 407.008 196.516C406.765 194.912 406.16 193.385 405.24 192.049C404.32 190.713 403.107 189.603 401.695 188.805C398.843 187.229 395.586 186.539 392.339 186.822C387.629 187.125 383.132 188.897 379.48 191.888C378.454 192.835 377.357 193.704 376.2 194.487C375.618 194.876 374.963 195.142 374.275 195.27C373.586 195.397 372.879 195.383 372.196 195.228C371.52 195.047 370.932 194.628 370.541 194.047C370.15 193.467 369.983 192.765 370.069 192.07C368.959 192.9 368.198 194.114 367.935 195.474C367.671 196.834 367.924 198.244 368.643 199.428C367.825 199.771 366.932 199.896 366.051 199.792C365.17 199.688 364.331 199.358 363.616 198.834C362.849 199.214 362.17 199.75 361.623 200.408C361.075 201.066 360.671 201.83 360.437 202.653C360.202 203.476 360.142 204.339 360.26 205.186C360.378 206.034 360.672 206.847 361.123 207.575C361.574 208.302 362.171 208.927 362.878 209.41C363.584 209.893 364.384 210.224 365.225 210.38C366.067 210.536 366.931 210.515 367.764 210.318C368.597 210.121 369.38 209.752 370.062 209.235C371.018 210.574 370.662 212.395 370.537 214.036C370.413 215.677 370.853 217.716 372.436 218.17C374.575 218.783 376.308 215.903 378.533 215.934C379.082 215.979 379.612 216.158 380.075 216.456C380.538 216.755 380.92 217.162 381.187 217.644C381.712 218.611 382.071 219.659 382.25 220.744L385.098 233.563" fill="#2F2E41"/>
<path d="M249.21 305.86H229.795C228.727 305.859 227.695 305.473 226.889 304.773C226.083 304.073 225.557 303.105 225.407 302.048C224.208 293.229 224.208 284.288 225.407 275.469C225.555 274.425 226.071 273.468 226.861 272.769C227.652 272.071 228.666 271.677 229.721 271.658C235.829 268.921 242.407 268.921 249.277 271.658C249.916 271.667 250.547 271.815 251.123 272.093C251.699 272.371 252.208 272.771 252.613 273.266C253.035 273.782 253.337 274.384 253.497 275.031C253.657 275.677 253.671 276.351 253.538 277.004C251.979 284.763 251.979 292.755 253.538 300.514C253.671 301.166 253.657 301.84 253.497 302.487C253.337 303.133 253.035 303.736 252.613 304.251C252.201 304.755 251.681 305.161 251.093 305.439C250.504 305.718 249.861 305.861 249.21 305.86Z" fill="#6C63FF"/>
<path d="M247.176 281.792H230.835C230.7 281.793 230.566 281.767 230.441 281.716C230.316 281.666 230.203 281.591 230.107 281.496C230.011 281.401 229.935 281.288 229.883 281.163C229.831 281.039 229.805 280.905 229.805 280.771C229.805 280.636 229.831 280.502 229.883 280.378C229.935 280.253 230.011 280.14 230.107 280.045C230.203 279.95 230.316 279.875 230.441 279.825C230.566 279.774 230.7 279.748 230.835 279.75H247.176C247.311 279.748 247.445 279.774 247.57 279.825C247.695 279.875 247.808 279.95 247.904 280.045C248 280.14 248.076 280.253 248.128 280.378C248.18 280.502 248.206 280.636 248.206 280.771C248.206 280.905 248.18 281.039 248.128 281.163C248.076 281.288 248 281.401 247.904 281.496C247.808 281.591 247.695 281.666 247.57 281.716C247.445 281.767 247.311 281.793 247.176 281.792Z" fill="white"/>
<path d="M247.176 289.96H230.835C230.7 289.961 230.566 289.936 230.441 289.885C230.316 289.834 230.203 289.759 230.107 289.664C230.011 289.569 229.935 289.456 229.883 289.332C229.831 289.207 229.805 289.074 229.805 288.939C229.805 288.804 229.831 288.671 229.883 288.546C229.935 288.422 230.011 288.309 230.107 288.214C230.203 288.119 230.316 288.044 230.441 287.993C230.566 287.942 230.7 287.917 230.835 287.918H247.176C247.311 287.917 247.445 287.942 247.57 287.993C247.695 288.044 247.808 288.119 247.904 288.214C248 288.309 248.076 288.422 248.128 288.546C248.18 288.671 248.206 288.804 248.206 288.939C248.206 289.074 248.18 289.207 248.128 289.332C248.076 289.456 248 289.569 247.904 289.664C247.808 289.759 247.695 289.834 247.57 289.885C247.445 289.936 247.311 289.961 247.176 289.96Z" fill="white"/>
<path d="M247.177 298.128H230.836C230.701 298.129 230.567 298.104 230.442 298.053C230.317 298.002 230.203 297.927 230.107 297.832C230.011 297.737 229.935 297.625 229.883 297.5C229.831 297.375 229.805 297.242 229.805 297.107C229.805 296.972 229.831 296.839 229.883 296.714C229.935 296.59 230.011 296.477 230.107 296.382C230.203 296.287 230.317 296.212 230.442 296.161C230.567 296.11 230.701 296.085 230.836 296.086H247.177C247.312 296.085 247.445 296.11 247.57 296.161C247.695 296.212 247.809 296.287 247.905 296.382C248.001 296.477 248.077 296.59 248.129 296.714C248.181 296.839 248.208 296.972 248.208 297.107C248.208 297.242 248.181 297.375 248.129 297.5C248.077 297.625 248.001 297.737 247.905 297.832C247.809 297.927 247.695 298.002 247.57 298.053C247.445 298.104 247.312 298.129 247.177 298.128Z" fill="white"/>
<path d="M99.6092 385.922C100.385 385.143 100.981 384.202 101.354 383.168C101.727 382.133 101.869 381.029 101.769 379.933C101.669 378.838 101.33 377.778 100.776 376.828C100.222 375.877 99.4668 375.06 98.5627 374.433L110.545 314.935L97.3128 319.182L87.7216 376.732C86.7691 378.32 86.4324 380.203 86.7754 382.022C87.1183 383.842 88.1171 385.473 89.5823 386.606C91.0476 387.738 92.8776 388.295 94.7257 388.169C96.5737 388.043 98.3113 387.243 99.6092 385.922H99.6092Z" fill="#9E616A"/>
<path d="M117.302 260.039L109.092 253.844C109.092 253.844 101.85 253.331 100.567 266.388C99.2845 279.445 96.6507 304.892 96.6507 304.892L84.0879 363.062L101.478 366.878L114.934 304.102L123.006 285.46L117.302 260.039Z" fill="#CCCCCC"/>
<path d="M103.768 355.024L150.031 354.253L153.886 322.649H103.768V355.024Z" fill="#9E616A"/>
<path d="M145.405 549.508H156.085L161.165 508.325L145.402 508.326L145.405 549.508Z" fill="#9E616A"/>
<path d="M78.4941 550.498L89.1742 550.422L93.9662 509.204L80.076 512.39L78.4941 550.498Z" fill="#9E616A"/>
<path d="M111.898 295.432L109.479 301.722L109.962 308.012L157.324 324.412L154.974 296.883L149.65 290.593L111.898 295.432Z" fill="#FFB6B6"/>
<path d="M132.216 238.826C141.559 238.826 149.132 231.255 149.132 221.915C149.132 212.575 141.559 205.004 132.216 205.004C122.874 205.004 115.301 212.575 115.301 221.915C115.301 231.255 122.874 238.826 132.216 238.826Z" fill="#9E616A"/>
<path d="M142.754 544.241L159.637 543.234V550.465L175.688 561.548C176.481 562.095 177.078 562.881 177.392 563.792C177.706 564.702 177.721 565.69 177.434 566.609C177.148 567.529 176.574 568.333 175.798 568.903C175.022 569.474 174.084 569.782 173.121 569.782H153.021L149.556 562.629L148.203 569.782H140.625L142.754 544.241Z" fill="#2F2E41"/>
<path d="M74.8406 545.255L91.7161 544.13L91.7668 551.361L107.895 562.331C108.692 562.873 109.294 563.655 109.615 564.563C109.936 565.472 109.957 566.459 109.677 567.38C109.397 568.302 108.829 569.11 108.057 569.686C107.285 570.262 106.349 570.576 105.385 570.583L85.286 570.724L81.7715 563.595L80.4689 570.757L72.8906 570.81L74.8406 545.255Z" fill="#2F2E41"/>
<path d="M75.1718 518.921L82.9486 456.776L92.2013 391.254C85.4254 378.674 100.683 339.608 100.683 339.608L102.837 339.711L151.583 348.905L151.572 348.858C161.543 376.044 164.846 389.475 164.3 418.425L162.335 522.497H162.951C163.974 522.497 164.955 522.903 165.678 523.626C166.401 524.348 166.807 525.329 166.807 526.351C166.807 527.373 166.401 528.354 165.678 529.076C164.955 529.799 163.974 530.205 162.951 530.205H143.675C143.168 530.206 142.666 530.107 142.198 529.914C141.729 529.72 141.303 529.437 140.945 529.079C140.586 528.721 140.302 528.296 140.107 527.827C139.913 527.359 139.813 526.858 139.813 526.351C139.813 525.844 139.913 525.343 140.107 524.875C140.302 524.406 140.586 523.981 140.945 523.623C141.303 523.265 141.729 522.982 142.198 522.788C142.666 522.595 143.168 522.496 143.675 522.497H144.172L126.479 398.579L111.478 450.609L94.5145 518.443C100.683 516.902 99.7251 520.474 99.7251 522.497C99.7251 523.519 99.3189 524.499 98.5959 525.222C97.8729 525.945 96.8923 526.351 95.8698 526.351H76.5935C75.697 526.352 74.8282 526.04 74.137 525.469C73.4457 524.899 72.9753 524.105 72.8069 523.224C72.6384 522.344 72.7825 521.432 73.2142 520.647C73.6459 519.861 74.3382 519.251 75.1718 518.921H75.1718Z" fill="#2F2E41"/>
<path d="M96.8882 341.631L98.4303 326.215C98.5905 325.586 98.9457 325.024 99.445 324.609C99.9444 324.194 100.562 323.948 101.21 323.906C101.853 316.562 104.556 284.879 104.717 283.498L104.724 283.439L105.953 257.186C105.998 256.232 106.392 255.329 107.061 254.648C107.73 253.967 108.626 253.556 109.579 253.493L116.072 253.069C116.161 253.066 116.245 253.029 116.307 252.964C116.369 252.9 116.404 252.815 116.404 252.726C116.404 252.009 116.545 251.299 116.819 250.637C117.094 249.975 117.496 249.373 118.003 248.866C118.51 248.359 119.112 247.957 119.774 247.683C120.437 247.408 121.147 247.267 121.864 247.267H141.087C142.332 247.268 143.534 247.722 144.468 248.546C145.401 249.37 146.002 250.506 146.157 251.741C146.166 251.826 146.206 251.905 146.27 251.961C146.334 252.018 146.417 252.048 146.503 252.046H146.505C148.689 252.001 150.817 252.741 152.503 254.13C154.189 255.52 155.32 257.467 155.692 259.619C158.321 274.906 163.587 309.601 160.983 328.889C160.077 335.604 162.031 330.285 162.374 335.903C162.408 336.446 162.334 336.991 162.158 337.505C161.981 338.02 161.704 338.494 161.344 338.902C162.082 339.17 162.684 339.718 163.021 340.428C163.357 341.137 163.399 341.951 163.139 342.691L163.477 342.608C163.378 343 163.203 343.37 162.961 343.694C162.719 344.019 162.416 344.293 162.068 344.501C161.72 344.709 161.335 344.846 160.934 344.905C160.534 344.963 160.125 344.943 159.732 344.844L109.44 351.657C107.788 351.24 96.4718 343.283 96.8882 341.631Z" fill="#CCCCCC"/>
<path d="M231.275 278.95C230.96 280.004 230.418 280.976 229.686 281.798C228.955 282.619 228.052 283.271 227.042 283.706C226.031 284.141 224.938 284.349 223.838 284.316C222.738 284.283 221.659 284.009 220.677 283.514L201.234 301.253L198.652 287.601L217.524 272.892C218.465 271.298 219.959 270.104 221.722 269.536C223.486 268.969 225.396 269.068 227.091 269.815C228.786 270.562 230.148 271.904 230.919 273.588C231.69 275.271 231.817 277.179 231.275 278.95H231.275Z" fill="#9E616A"/>
<path d="M163.603 265.39C163.603 265.39 156.824 250.074 148.261 253.118C139.698 256.163 144.12 271.024 144.12 271.024L176.29 319.487C176.29 319.487 222.691 289.729 217.049 289.519C211.407 289.309 209.719 279.049 209.719 279.049L185.195 291.3L184.365 286.939L183.035 288.268L179.603 285.568L163.603 265.39Z" fill="#CCCCCC"/>
<path d="M112.309 211.561C109.714 212.805 106.81 210.933 104.57 209.077L105.372 209.769C101.413 213.619 99.5623 219.159 98.6579 224.612C97.7527 230.06 97.6518 235.631 96.512 241.039C95.3713 246.442 93.0052 251.871 88.5856 255.18C82.6647 259.613 74.4985 259.328 67.2324 257.969C67.1356 257.95 67.0454 257.935 66.9486 257.915C68.9036 252.272 69.6984 246.292 69.2851 240.334C67.3375 246.304 64.0218 251.738 59.6023 256.2C54.7848 254.875 50.0824 253.162 45.5414 251.078C42.6032 249.726 39.4394 247.878 38.624 244.747C37.8064 241.641 39.7049 238.382 42.2434 236.42C44.7819 234.459 47.8974 233.435 50.7894 232.038C53.6765 230.647 56.5336 228.664 57.6896 225.67C60.3559 218.783 52.7604 210.88 55.7205 204.11C57.1803 200.781 60.7557 198.97 64.1163 197.574C69.2465 195.448 74.5146 193.671 79.8846 192.256C84.5987 191.013 89.5208 190.047 94.323 190.862C99.1253 191.677 103.83 194.597 105.558 199.156C108.442 200.131 111.504 201.229 113.355 203.656C115.205 206.077 115.055 210.245 112.309 211.561Z" fill="#2F2E41"/>
<path d="M135.392 203.58C127.97 197.723 121.97 198.723 117.34 202.362C116.562 201.496 113.25 203.877 112.129 203.535L108.073 211.147C105.986 214.829 105.13 218.587 105.467 220.703C101.628 231.466 110.732 238.734 121.498 242.571C125.794 244.113 130.481 244.181 134.82 242.764L134.952 240.93L135.767 242.433C135.767 242.433 145.61 262.693 147.935 263.603C146.524 259.943 142.802 242.55 141.763 238.924C140.339 233.991 141.312 226.153 142.149 221.348C142.671 218.386 142.698 215.357 142.23 212.386L142.209 212.256L144.512 216.903L149.679 213.655C147.704 207.905 147.665 201.027 135.392 203.58Z" fill="#2F2E41"/>
</svg>
