<svg width="638" height="475" viewBox="0 0 638 475" fill="none" xmlns="http://www.w3.org/2000/svg">
<g clip-path="url(#clip0_225_606)">
<path d="M347.126 48.4444C355.446 48.4444 362.19 41.7048 362.19 33.3911C362.19 25.0775 355.446 18.3379 347.126 18.3379C338.807 18.3379 332.062 25.0775 332.062 33.3911C332.062 41.7048 338.807 48.4444 347.126 48.4444Z" fill="#6C63FF"/>
<path d="M345.635 39.1334C345.296 39.134 344.966 39.0244 344.695 38.8213L344.678 38.8087L341.138 36.1024C340.448 35.5741 340.318 34.5873 340.846 33.8982C341.375 33.2091 342.362 33.0788 343.052 33.607L345.345 35.3642L350.764 28.3C351.292 27.6112 352.279 27.4809 352.968 28.009L352.968 28.009L352.969 28.0093L352.935 28.056L352.97 28.0093C353.658 28.5381 353.788 29.524 353.261 30.2131L346.887 38.5184C346.588 38.9063 346.126 39.1329 345.636 39.1315L345.635 39.1334Z" fill="white"/>
<path d="M347.126 150.209C355.446 150.209 362.19 143.469 362.19 135.156C362.19 126.842 355.446 120.103 347.126 120.103C338.807 120.103 332.062 126.842 332.062 135.156C332.062 143.469 338.807 150.209 347.126 150.209Z" fill="#6C63FF"/>
<path d="M345.635 140.898C345.296 140.899 344.966 140.789 344.695 140.586L344.678 140.573L341.138 137.867C340.448 137.339 340.318 136.352 340.846 135.663C341.375 134.974 342.362 134.843 343.052 135.372L345.345 137.129L350.764 130.065C351.292 129.376 352.279 129.246 352.968 129.774L352.968 129.774L352.969 129.774L352.935 129.821L352.97 129.774C353.658 130.303 353.788 131.289 353.261 131.978L346.887 140.283C346.588 140.671 346.126 140.898 345.636 140.896L345.635 140.898Z" fill="white"/>
<path d="M384.958 293.335C384.773 288.621 388.448 284.649 393.166 284.464C393.669 284.445 394.173 284.469 394.671 284.538L408.468 257.489L416.263 271.208L401.967 294.791C401.007 299.437 396.46 302.426 391.811 301.467C387.921 300.665 385.088 297.303 384.958 293.336L384.958 293.335Z" fill="#FFB7B7"/>
<path d="M449.277 463.66L438.449 463.659L433.299 421.927L449.278 421.928L449.277 463.66Z" fill="#FFB7B7"/>
<path d="M452.038 474.148L417.127 474.146V473.705C417.127 466.206 423.211 460.127 430.715 460.126H430.716L452.038 460.127L452.038 474.148Z" fill="#2F2E41"/>
<path d="M507.97 463.66L497.143 463.659L491.992 421.927L507.972 421.928L507.97 463.66Z" fill="#FFB7B7"/>
<path d="M510.731 474.148L475.82 474.146V473.705C475.821 466.206 481.904 460.127 489.409 460.126H489.409L510.732 460.127L510.731 474.148Z" fill="#2F2E41"/>
<path d="M401.588 269.794L396.861 277.666C396.861 277.666 404.739 277.666 406.314 289.474L412.616 281.602L401.588 269.794Z" fill="#E5E5E5"/>
<path d="M484.301 253.263C484.301 253.263 496.906 286.325 499.269 306.793C501.632 327.26 505.571 381.577 505.571 381.577L513.448 451.638L491.391 454.787L481.938 383.939L460.669 313.877L455.942 383.939L452.004 447.702L431.522 448.489L429.947 382.364L421.281 298.133L426.008 257.986L484.301 253.263Z" fill="#2F2E41"/>
<path d="M468.939 152.895L476.817 158.404L487.058 261.528L423.25 263.102L431.916 191.467L439.793 171L445.479 163.488L468.939 152.895Z" fill="#E5E5E5"/>
<path d="M470.516 226.892L472.926 155.683C472.926 155.683 477.605 156.043 479.181 158.405C480.756 160.766 506.752 165.49 506.752 165.49L502.026 238.7C502.026 238.7 521.719 296.953 514.63 300.102C507.54 303.25 494.936 302.463 494.936 302.463L470.516 226.892Z" fill="#D9D9D9"/>
<path d="M432.31 217.839L440.667 169.847L422.069 182.414L426.796 217.052L422.857 240.668C422.857 240.668 407.89 306.006 412.616 308.367C417.343 310.729 422.857 308.367 422.857 308.367L432.31 242.242V217.839Z" fill="#2F2E41"/>
<path d="M427.584 180.84L422.069 182.414L419.706 213.902L415.767 241.455L396.861 275.304C396.861 275.304 406.314 269.007 410.253 287.112L431.074 250.887L427.584 180.84Z" fill="#2F2E41"/>
<path d="M470.432 286.88C471.167 282.219 475.543 279.036 480.208 279.77C480.705 279.848 481.194 279.97 481.67 280.134L500.459 256.276L505.441 271.247L486.835 291.608C484.991 295.979 479.95 298.029 475.576 296.186C471.915 294.644 469.789 290.797 470.432 286.88Z" fill="#FFB7B7"/>
<path d="M502.42 278.453L495.33 287.113L485.877 270.582L489.815 263.497L502.42 278.453Z" fill="#E5E5E5"/>
<path d="M500.844 168.245L507.146 165.096C507.146 165.096 511.873 171.393 512.661 176.904C513.448 182.414 517.387 189.499 517.387 193.435C517.387 197.371 528.416 234.37 528.416 234.37L503.207 285.538C503.207 285.538 497.693 266.645 485.877 265.071L505.571 237.519L494.542 217.838L500.844 168.245V168.245Z" fill="#2F2E41"/>
<path d="M637.204 474.633H334.085C333.645 474.633 333.289 474.277 333.289 473.838C333.289 473.399 333.645 473.043 334.085 473.043H637.204C637.644 473.043 638 473.399 638 473.838C638 474.277 637.644 474.633 637.204 474.633Z" fill="#CBCBCB"/>
<path d="M290.39 168.548H0V101.765H290.39V168.548Z" fill="white"/>
<path d="M41.9095 123.847C40.3469 123.847 39.0801 125.113 39.0801 126.674C39.0801 128.236 40.3469 129.502 41.9095 129.502H248.492C250.054 129.502 251.321 128.236 251.321 126.674C251.321 125.113 250.054 123.847 248.492 123.847H41.9095Z" fill="#6C63FF"/>
<path d="M41.9096 140.811C40.347 140.807 39.0775 142.07 39.0742 143.632C39.0709 145.194 40.335 146.462 41.8977 146.466H172.501C174.064 146.466 175.331 145.2 175.331 143.638C175.331 142.076 174.064 140.811 172.501 140.811H41.9096V140.811Z" fill="#6C63FF"/>
<path d="M290.39 168.548H0V101.765H290.39V168.548ZM4.77354 163.777H285.617V106.535H4.77354V163.777Z" fill="#E5E5E5"/>
<path d="M290.39 270.312H0V203.529H290.39V270.312Z" fill="white"/>
<path d="M41.9095 225.61C40.3469 225.61 39.0801 226.876 39.0801 228.438C39.0801 229.999 40.3469 231.265 41.9095 231.265H248.492C250.054 231.265 251.321 229.999 251.321 228.438C251.321 226.876 250.054 225.61 248.492 225.61H41.9095Z" fill="#E6E6E6"/>
<path d="M41.9096 242.575C40.347 242.572 39.0775 243.835 39.0742 245.397C39.0709 246.958 40.335 248.227 41.8977 248.23H172.501C174.064 248.23 175.331 246.964 175.331 245.403C175.331 243.841 174.064 242.575 172.501 242.575H41.9096Z" fill="#E6E6E6"/>
<path d="M290.39 270.312H0V203.529H290.39V270.312ZM4.77354 265.542H285.617V208.3H4.77354V265.542Z" fill="#E5E5E5"/>
<path d="M292.777 66.783H2.38672V0H292.777V66.783Z" fill="white"/>
<path d="M44.2969 22.082C42.7343 22.0849 41.4698 23.3531 41.4727 24.9146C41.4755 26.4722 42.7383 27.7341 44.2969 27.737H250.879C252.442 27.7341 253.706 26.4659 253.703 24.9044C253.701 23.3468 252.438 22.0849 250.879 22.082H44.2969Z" fill="#6C63FF"/>
<path d="M44.2963 39.0469C42.7337 39.0436 41.4642 40.3068 41.4609 41.8684C41.4577 43.43 42.7218 44.6985 44.2844 44.7018H174.888C176.45 44.7047 177.72 43.4411 177.722 41.8795C177.725 40.3179 176.461 39.0497 174.898 39.0469C174.895 39.0469 174.891 39.0469 174.888 39.0469H44.2963V39.0469Z" fill="#6C63FF"/>
<path d="M292.777 66.783H2.38672V0H292.777V66.783ZM7.16025 62.0128H288.003V4.77021H7.16025V62.0128Z" fill="#E5E5E5"/>
<path d="M588.139 475V417.487C588.139 417.487 610.568 458.262 588.139 475Z" fill="#F1F1F1"/>
<path d="M589.524 474.99L547.127 436.096C547.127 436.096 592.352 447.159 589.524 474.99Z" fill="#F1F1F1"/>
<path d="M385.316 291.603C393.635 291.603 400.379 284.863 400.379 276.549C400.379 268.236 393.635 261.496 385.316 261.496C376.996 261.496 370.252 268.236 370.252 276.549C370.252 284.863 376.996 291.603 385.316 291.603Z" fill="#6C63FF"/>
<path d="M383.822 282.293C383.483 282.293 383.153 282.184 382.882 281.98L382.865 281.968L379.325 279.262C378.636 278.733 378.505 277.746 379.034 277.057C379.562 276.368 380.55 276.238 381.239 276.766L383.533 278.523L388.951 271.459C389.48 270.77 390.467 270.64 391.156 271.168L391.156 271.169L391.123 271.215L391.157 271.169C391.846 271.697 391.976 272.683 391.448 273.372L385.075 281.678C384.776 282.065 384.313 282.292 383.823 282.291L383.822 282.293Z" fill="white"/>
<path d="M446.793 154.199C458.702 154.199 468.356 144.552 468.356 132.651C468.356 120.751 458.702 111.104 446.793 111.104C434.884 111.104 425.23 120.751 425.23 132.651C425.23 144.552 434.884 154.199 446.793 154.199Z" fill="#FFB6B6"/>
<path d="M465.629 149.208C465.629 149.208 472.016 136.282 471.902 131.348C471.788 126.413 468.299 113.715 466.826 112.878C465.354 112.041 449.475 103.984 445.171 106.406C440.868 108.829 433.295 117.114 425.126 119.356C422.816 119.99 424.833 131.85 424.833 131.85L434.392 130.469C434.392 130.469 444.357 121.527 444.788 127.616C445.219 133.705 454.461 131.169 454.461 131.169L454.574 136.103L458.357 136.306L459.398 131.055C459.398 131.055 461.098 141.761 458.902 147.33C456.705 152.898 465.629 149.208 465.629 149.208V149.208Z" fill="#2F2E41"/>
</g>
<defs>
<clipPath id="clip0_225_606">
<rect width="638" height="475" fill="white"/>
</clipPath>
</defs>
</svg>
