<svg width="152" height="152" viewBox="0 0 152 152" fill="none" xmlns="http://www.w3.org/2000/svg">
<path d="M152 76C152 117.974 117.974 152 76 152C34.0264 152 0 117.974 0 76C0 34.0264 34.0264 0 76 0C117.974 0 152 34.0264 152 76Z" fill="#FFFDFD"/>
<mask id="mask0_1631_532" style="mask-type:luminance" maskUnits="userSpaceOnUse" x="31" y="31" width="90" height="90">
<path d="M31 31H121V121H31V31Z" fill="white"/>
</mask>
<g mask="url(#mask0_1631_532)">
<path fill-rule="evenodd" clip-rule="evenodd" d="M36.3771 48.4194C37.101 48.4194 37.6878 47.8228 37.6878 47.0868V39.4398C37.6878 36.2508 40.2309 33.6652 43.3674 33.6652H80.7654C83.902 33.6652 86.445 36.2508 86.445 39.4398V46.458C86.445 47.194 87.0319 47.7906 87.7557 47.7906C88.4796 47.7906 89.0664 47.194 89.0664 46.458V39.4398C89.0664 34.7789 85.3497 31.0001 80.7654 31.0001H43.3674C38.7831 31.0001 35.0664 34.7789 35.0664 39.4398V47.0868C35.0664 47.8228 35.6532 48.4194 36.3771 48.4194Z" fill="#00549A"/>
<path fill-rule="evenodd" clip-rule="evenodd" d="M35.0664 112.659C35.0664 117.265 38.7831 121 43.3674 121H80.7654C85.3497 121 89.0664 117.265 89.0664 112.659V88.5149C89.0664 87.7875 88.4796 87.1979 87.7557 87.1979C87.0319 87.1979 86.445 87.7875 86.445 88.5149V112.659C86.445 115.811 83.902 118.366 80.7654 118.366H43.3674C40.2309 118.366 37.6878 115.811 37.6878 112.659V53.2202C37.6878 52.4929 37.101 51.9032 36.3771 51.9032C35.6532 51.9032 35.0664 52.4929 35.0664 53.2202V112.659Z" fill="#00549A"/>
<path fill-rule="evenodd" clip-rule="evenodd" d="M39.71 112.583C39.71 114.666 41.385 116.355 43.4503 116.355H80.6793C82.7446 116.355 84.4196 114.666 84.4196 112.583V108.468C84.4196 107.741 83.8355 107.152 83.1149 107.152C82.3943 107.152 81.8101 107.741 81.8101 108.468V112.583C81.8101 113.212 81.3036 113.723 80.6793 113.723H43.4503C42.826 113.723 42.3195 113.212 42.3195 112.583V39.4175C42.3195 38.788 42.8261 38.277 43.4503 38.277H50.1745L51.0111 40.7315C51.3249 41.6476 52.18 42.2634 53.1437 42.2634H70.9859C71.9496 42.2634 72.8047 41.6476 73.1185 40.7315L73.9551 38.277H80.6793C81.3035 38.277 81.8101 38.788 81.8101 39.4175V46.348C81.8101 47.0748 82.3943 47.6639 83.1149 47.6639C83.8355 47.6639 84.4196 47.0748 84.4196 46.348V39.4175C84.4196 37.3345 82.7447 35.6452 80.6793 35.6452H73.7032C72.7392 35.6452 71.8844 36.2614 71.5706 37.1769L70.734 39.6315H53.3956L52.559 37.1769C52.2452 36.2614 51.3904 35.6452 50.4264 35.6452H43.4503C41.3849 35.6452 39.71 37.3345 39.71 39.4175V112.583Z" fill="#00549A"/>
<path fill-rule="evenodd" clip-rule="evenodd" d="M83.2589 103.581C83.9003 103.581 84.4202 103 84.4202 102.285V88.6188C84.4202 87.9029 83.9003 87.3226 83.2589 87.3226C82.6176 87.3226 82.0977 87.9029 82.0977 88.6188V102.285C82.0977 103 82.6176 103.581 83.2589 103.581Z" fill="#00549A"/>
<path fill-rule="evenodd" clip-rule="evenodd" d="M50.1621 99.8065C50.1621 102.532 52.4122 104.742 55.1879 104.742H68.9428C71.7184 104.742 73.9686 102.532 73.9686 99.8065C73.9686 97.0807 71.7184 94.871 68.9428 94.871H55.1879C52.4122 94.871 50.1621 97.0807 50.1621 99.8065ZM55.1879 102.144C53.8731 102.144 52.8073 101.098 52.8073 99.8065C52.8073 98.5153 53.8731 97.4686 55.1879 97.4686H68.9428C70.2576 97.4686 71.3234 98.5153 71.3234 99.8065C71.3234 101.098 70.2576 102.144 68.9428 102.144H55.1879Z" fill="#00549A"/>
<path fill-rule="evenodd" clip-rule="evenodd" d="M46.6777 84.8882C46.6777 87.5154 48.8166 89.6451 51.4549 89.6451H112.158C114.797 89.6451 116.936 87.5154 116.936 84.8882V49.6924C116.936 47.0652 114.797 44.9355 112.158 44.9355H105.436C104.706 44.9355 104.115 45.5242 104.115 46.2505C104.115 46.9767 104.706 47.5654 105.436 47.5654H112.158C113.338 47.5654 114.295 48.5177 114.295 49.6924V84.8882C114.295 86.0629 113.338 87.0152 112.158 87.0152H51.4549C50.2754 87.0152 49.319 86.063 49.319 84.8882V49.6924C49.319 48.5177 50.2754 47.5654 51.4549 47.5654H99.2278C99.9571 47.5654 100.548 46.9767 100.548 46.2505C100.548 45.5242 99.9571 44.9355 99.2278 44.9355H51.4549C48.8166 44.9355 46.6777 47.0652 46.6777 49.6924V84.8882Z" fill="#00549A"/>
<path fill-rule="evenodd" clip-rule="evenodd" d="M100.956 83.7536C101.661 83.4971 102.017 82.7382 101.751 82.0586L97.8374 72.0577C97.8326 72.0453 97.8275 72.0329 97.8223 72.0207C97.277 70.7454 95.4 70.7444 94.8577 72.0254C94.8536 72.0351 94.8496 72.0447 94.8458 72.0545L90.8963 82.0548C90.6282 82.7337 90.9815 83.4936 91.6854 83.7521C92.3893 84.0107 93.1772 83.67 93.4453 82.9911L96.3361 75.6715L99.1987 82.9874C99.4646 83.667 100.252 84.01 100.956 83.7536Z" fill="#00549A"/>
<path fill-rule="evenodd" clip-rule="evenodd" d="M91.9697 79.7741C91.9697 80.4155 92.589 80.9354 93.3529 80.9354H99.2963C100.06 80.9354 100.679 80.4155 100.679 79.7741C100.679 79.1328 100.06 78.6128 99.2963 78.6128H93.3529C92.589 78.6128 91.9697 79.1328 91.9697 79.7741Z" fill="#00549A"/>
<path fill-rule="evenodd" clip-rule="evenodd" d="M105.337 78.6128C105.792 78.6125 106.216 78.3889 106.464 78.0185L109.75 73.111C110.155 72.5058 109.979 71.6957 109.357 71.3017C108.734 70.9078 107.901 71.079 107.495 71.6843L105.335 74.9109L103.149 71.6573C102.743 71.0526 101.91 70.8825 101.288 71.2773C100.666 71.6721 100.491 72.4824 100.897 73.0871L104.21 78.0201C104.459 78.3901 104.883 78.6131 105.337 78.6128Z" fill="#00549A"/>
<path fill-rule="evenodd" clip-rule="evenodd" d="M105.315 83.8386C105.953 83.8405 106.472 83.2292 106.474 82.4733L106.485 77.0816C106.486 76.3257 105.97 75.7114 105.332 75.7096C104.693 75.7078 104.175 76.319 104.173 77.0749L104.162 82.4666C104.161 83.2225 104.677 83.8368 105.315 83.8386Z" fill="#00549A"/>
<path fill-rule="evenodd" clip-rule="evenodd" d="M85.0021 83.8386C85.6435 83.8386 86.1634 83.2276 86.1634 82.4739V73.5905C86.1634 72.8367 85.6435 72.2257 85.0021 72.2257C84.3607 72.2257 83.8408 72.8367 83.8408 73.5905V82.4739C83.8408 83.2276 84.3607 83.8386 85.0021 83.8386Z" fill="#00549A"/>
<path fill-rule="evenodd" clip-rule="evenodd" d="M85.1448 79.1936L85.1368 77.9159L83.8599 77.9236C83.862 78.2626 83.9985 78.5868 84.2395 78.8249C84.4804 79.0631 84.8061 79.1957 85.1448 79.1936ZM85.1177 72.3423L83.8408 72.3464C83.8397 72.0068 83.9738 71.6807 84.2134 71.4402C84.453 71.1997 84.7784 71.0646 85.1177 71.0646H87.8595C90.0672 71.0646 91.9699 72.8495 91.9699 75.123C91.9699 77.3962 90.0673 79.1813 87.8595 79.1813C87.4829 79.1813 86.8056 79.1844 86.2195 79.1875C85.927 79.189 85.6583 79.1905 85.4627 79.1917L85.1448 79.1936C85.1448 79.1936 85.1448 79.1936 85.1368 77.9159C83.8599 77.9236 83.8599 77.9237 83.8599 77.9236L83.858 77.5956C83.8568 77.3941 83.8553 77.1173 83.8538 76.8162C83.8507 76.2154 83.8476 75.5138 83.8476 75.123C83.8476 74.8072 83.8459 74.114 83.8442 73.4977C83.8434 73.19 83.8425 72.9022 83.8419 72.6912L83.8408 72.3464C83.8408 72.3463 83.8408 72.3464 85.1177 72.3423ZM86.4067 76.631C86.404 76.073 86.4015 75.4701 86.4015 75.123C86.4015 74.8252 86.4 74.2009 86.3984 73.62H87.8595C88.7216 73.62 89.416 74.3248 89.416 75.123C89.416 75.921 88.7215 76.6259 87.8595 76.6259C87.5183 76.6259 86.9412 76.6283 86.4067 76.631Z" fill="#00549A"/>
<path fill-rule="evenodd" clip-rule="evenodd" d="M54.8076 61.1762C54.8076 62.4684 55.8724 63.5161 57.1857 63.5161H68.107C69.4202 63.5161 70.485 62.4684 70.485 61.1762V54.2431C70.485 52.9509 69.4202 51.9032 68.107 51.9032H57.1857C55.8724 51.9032 54.8076 52.9509 54.8076 54.2431V61.1762ZM57.4499 60.9162V54.5031H67.8428V60.9162H57.4499Z" fill="#00549A"/>
<path fill-rule="evenodd" clip-rule="evenodd" d="M46.6777 81.9581C46.6777 82.676 47.2672 83.2581 47.9943 83.2581H63.4422C66.6899 83.2581 69.3229 80.6583 69.3229 77.4516C69.3229 74.2449 66.6899 71.6452 63.4422 71.6452H47.9943C47.2672 71.6452 46.6777 72.2272 46.6777 72.9451V81.9581ZM49.3109 80.6582V74.2451H63.4422C65.2357 74.2451 66.6897 75.6807 66.6897 77.4516C66.6897 79.2225 65.2357 80.6582 63.4422 80.6582H49.3109Z" fill="#00549A"/>
<path fill-rule="evenodd" clip-rule="evenodd" d="M80.3566 59.4517C80.998 59.4517 81.5179 58.874 81.5179 58.1613V56.0968C81.5179 55.3842 80.998 54.8065 80.3566 54.8065C79.7152 54.8065 79.1953 55.3842 79.1953 56.0968V58.1613C79.1953 58.874 79.7152 59.4517 80.3566 59.4517Z" fill="#00549A"/>
<path fill-rule="evenodd" clip-rule="evenodd" d="M102.129 59.4517C102.931 59.4517 103.581 58.874 103.581 58.1613V56.0968C103.581 55.3842 102.931 54.8065 102.129 54.8065C101.328 54.8065 100.678 55.3842 100.678 56.0968V58.1613C100.678 58.874 101.328 59.4517 102.129 59.4517Z" fill="#00549A"/>
<path fill-rule="evenodd" clip-rule="evenodd" d="M106.776 59.4517C107.578 59.4517 108.227 58.874 108.227 58.1613V56.0968C108.227 55.3842 107.578 54.8065 106.776 54.8065C105.974 54.8065 105.324 55.3842 105.324 56.0968V58.1613C105.324 58.874 105.974 59.4517 106.776 59.4517Z" fill="#00549A"/>
<path fill-rule="evenodd" clip-rule="evenodd" d="M87.0336 59.4517C87.8353 59.4517 88.4853 58.874 88.4853 58.1613V56.0968C88.4853 55.3842 87.8353 54.8065 87.0336 54.8065C86.2319 54.8065 85.582 55.3842 85.582 56.0968V58.1613C85.582 58.874 86.2319 59.4517 87.0336 59.4517Z" fill="#00549A"/>
<path fill-rule="evenodd" clip-rule="evenodd" d="M92.2583 59.4517C93.06 59.4517 93.7099 58.874 93.7099 58.1613V56.0968C93.7099 55.3842 93.06 54.8065 92.2583 54.8065C91.4565 54.8065 90.8066 55.3842 90.8066 56.0968V58.1613C90.8066 58.874 91.4565 59.4517 92.2583 59.4517Z" fill="#00549A"/>
</g>
</svg>
