<svg width="202" height="202" viewBox="0 0 202 202" fill="none" xmlns="http://www.w3.org/2000/svg">
<circle cx="101" cy="101" r="101" fill="#00549A"/>
<path fill-rule="evenodd" clip-rule="evenodd" d="M42.9297 60.2964C43.9954 60.2964 44.8594 59.43 44.8594 58.3612V47.256C44.8594 42.625 48.6035 38.8702 53.2214 38.8702H108.282C112.9 38.8702 116.644 42.625 116.644 47.256V57.448C116.644 58.5168 117.508 59.3832 118.574 59.3832C119.64 59.3832 120.503 58.5168 120.503 57.448V47.256C120.503 40.4875 115.031 34.9998 108.282 34.9998H53.2214C46.4721 34.9998 41 40.4875 41 47.256V58.3612C41 59.43 41.864 60.2964 42.9297 60.2964Z" fill="white"/>
<path fill-rule="evenodd" clip-rule="evenodd" d="M41 153.786C41 160.531 46.4721 166 53.2214 166H108.282C115.031 166 120.503 160.531 120.503 153.786V118.428C120.503 117.363 119.64 116.5 118.574 116.5C117.508 116.5 116.644 117.363 116.644 118.428V153.786C116.644 158.401 112.9 162.143 108.282 162.143H53.2214C48.6035 162.143 44.8594 158.401 44.8594 153.786V66.7424C44.8594 65.6772 43.9954 64.8138 42.9297 64.8138C41.864 64.8138 41 65.6772 41 66.7424V153.786Z" fill="white"/>
<path fill-rule="evenodd" clip-rule="evenodd" d="M48.2275 154.144C48.2275 157.199 50.6645 159.676 53.6693 159.676H107.834C110.839 159.676 113.276 157.199 113.276 154.144V148.111C113.276 147.045 112.426 146.181 111.378 146.181C110.329 146.181 109.479 147.045 109.479 148.111V154.144C109.479 155.067 108.742 155.816 107.834 155.816H53.6693C52.7611 155.816 52.0241 155.067 52.0241 154.144V46.8557C52.0241 45.9326 52.7612 45.1833 53.6693 45.1833H63.4525L64.6696 48.7825C65.1261 50.1259 66.3703 51.0289 67.7724 51.0289H93.731C95.1331 51.0289 96.3772 50.1259 96.8338 48.7825L98.0509 45.1833H107.834C108.742 45.1833 109.479 45.9326 109.479 46.8557V57.0185C109.479 58.0842 110.329 58.9482 111.378 58.9482C112.426 58.9482 113.276 58.0842 113.276 57.0185V46.8557C113.276 43.8012 110.839 41.324 107.834 41.324H97.6845C96.2819 41.324 95.0382 42.2276 94.5818 43.5702L93.3646 47.1696H68.1388L66.9216 43.5702C66.4651 42.2276 65.2214 41.324 63.8189 41.324H53.6693C50.6644 41.324 48.2275 43.8012 48.2275 46.8557V154.144Z" fill="white"/>
<path fill-rule="evenodd" clip-rule="evenodd" d="M111.469 140.704C112.467 140.704 113.276 139.833 113.276 138.759V118.255C113.276 117.181 112.467 116.311 111.469 116.311C110.471 116.311 109.662 117.181 109.662 118.255V138.759C109.662 139.833 110.471 140.704 111.469 140.704Z" fill="white"/>
<path fill-rule="evenodd" clip-rule="evenodd" d="M63.5859 135.283C63.5859 139.274 66.8308 142.51 70.8336 142.51H90.6693C94.6721 142.51 97.917 139.274 97.917 135.283C97.917 131.291 94.6721 128.055 90.6693 128.055H70.8336C66.8308 128.055 63.5859 131.291 63.5859 135.283ZM70.8336 138.706C68.9375 138.706 67.4005 137.173 67.4005 135.283C67.4005 133.392 68.9375 131.859 70.8336 131.859H90.6693C92.5654 131.859 94.1024 133.392 94.1024 135.283C94.1024 137.173 92.5654 138.706 90.6693 138.706H70.8336Z" fill="white"/>
<path fill-rule="evenodd" clip-rule="evenodd" d="M58.165 113.907C58.165 117.729 61.3004 120.828 65.1681 120.828H154.155C158.023 120.828 161.158 117.729 161.158 113.907V62.7002C161.158 58.8779 158.023 55.7794 154.155 55.7794H144.3C143.231 55.7794 142.364 56.6359 142.364 57.6925C142.364 58.7492 143.231 59.6057 144.3 59.6057H154.155C155.884 59.6057 157.286 60.9912 157.286 62.7002V113.907C157.286 115.616 155.884 117.001 154.155 117.001H65.1681C63.439 117.001 62.037 115.616 62.037 113.907V62.7002C62.037 60.9911 63.439 59.6057 65.1681 59.6057H135.2C136.269 59.6057 137.135 58.7492 137.135 57.6925C137.135 56.6359 136.269 55.7794 135.2 55.7794H65.1681C61.3004 55.7794 58.165 58.878 58.165 62.7002V113.907Z" fill="white"/>
<path fill-rule="evenodd" clip-rule="evenodd" d="M136.44 111.667C137.421 111.286 137.917 110.159 137.546 109.149L132.099 94.2958C132.092 94.2773 132.085 94.259 132.077 94.2408C131.318 92.3467 128.705 92.3452 127.95 94.2479C127.945 94.2622 127.939 94.2765 127.934 94.291L122.435 109.144C122.062 110.152 122.554 111.281 123.534 111.665C124.514 112.049 125.611 111.542 125.984 110.534L130.008 99.6631L133.994 110.529C134.364 111.538 135.459 112.048 136.44 111.667Z" fill="white"/>
<path fill-rule="evenodd" clip-rule="evenodd" d="M125.021 106.372C125.021 107.37 125.856 108.179 126.886 108.179H134.9C135.93 108.179 136.765 107.37 136.765 106.372C136.765 105.374 135.93 104.565 134.9 104.565H126.886C125.856 104.565 125.021 105.374 125.021 106.372Z" fill="white"/>
<path fill-rule="evenodd" clip-rule="evenodd" d="M144.013 104.565C144.632 104.565 145.209 104.217 145.546 103.641L150.02 96.005C150.572 95.0632 150.332 93.8029 149.485 93.1899C148.637 92.5769 147.503 92.8433 146.951 93.7851L144.009 98.8055L141.034 93.743C140.481 92.8022 139.346 92.5375 138.499 93.1518C137.652 93.7662 137.414 95.0269 137.967 95.9678L142.478 103.643C142.817 104.219 143.394 104.566 144.013 104.565Z" fill="white"/>
<path fill-rule="evenodd" clip-rule="evenodd" d="M143.525 111.793C144.766 111.796 145.775 110.912 145.778 109.82L145.799 102.03C145.802 100.938 144.799 100.051 143.557 100.048C142.316 100.045 141.307 100.929 141.304 102.021L141.282 109.811C141.279 110.903 142.283 111.79 143.525 111.793Z" fill="white"/>
<path fill-rule="evenodd" clip-rule="evenodd" d="M114.179 111.793C115.177 111.793 115.986 110.937 115.986 109.882V97.442C115.986 96.3865 115.177 95.5309 114.179 95.5309C113.181 95.5309 112.372 96.3865 112.372 97.442V109.882C112.372 110.937 113.181 111.793 114.179 111.793Z" fill="white"/>
<path fill-rule="evenodd" clip-rule="evenodd" d="M114.256 104.565L114.245 102.719L112.4 102.731C112.403 103.22 112.6 103.689 112.948 104.033C113.296 104.377 113.767 104.568 114.256 104.565ZM114.217 94.6667L112.372 94.6725C112.371 94.1819 112.564 93.7108 112.91 93.3634C113.257 93.0159 113.727 92.8206 114.217 92.8206H118.178C121.368 92.8206 124.117 95.3995 124.117 98.6842C124.117 101.969 121.368 104.548 118.178 104.548C117.634 104.548 116.656 104.552 115.809 104.557C115.386 104.559 114.998 104.561 114.715 104.563L114.256 104.565C114.256 104.565 114.256 104.565 114.245 102.719C112.4 102.731 112.4 102.731 112.4 102.731L112.397 102.257C112.395 101.966 112.393 101.566 112.391 101.131C112.386 100.263 112.382 99.2489 112.382 98.6842C112.382 98.228 112.379 97.2265 112.377 96.336C112.376 95.8915 112.375 95.4756 112.374 95.1708L112.372 94.6725C112.372 94.6725 112.372 94.6725 114.217 94.6667ZM116.079 100.863C116.075 100.057 116.072 99.1857 116.072 98.6842C116.072 98.2539 116.07 97.3519 116.067 96.5127H118.178C119.424 96.5127 120.427 97.5309 120.427 98.6842C120.427 99.8372 119.424 100.856 118.178 100.856C117.685 100.856 116.851 100.859 116.079 100.863Z" fill="white"/>
<path fill-rule="evenodd" clip-rule="evenodd" d="M70.8135 78.5208C70.8135 80.4308 72.2862 81.9795 74.1024 81.9795H89.2073C91.0235 81.9795 92.4962 80.4308 92.4962 78.5208V68.2727C92.4962 66.3627 91.0235 64.814 89.2073 64.814H74.1024C72.2862 64.814 70.8135 66.3627 70.8135 68.2727V78.5208ZM74.4679 78.1365V68.657H88.8418V78.1365H74.4679Z" fill="white"/>
<path fill-rule="evenodd" clip-rule="evenodd" d="M58.165 108.968C58.165 110.029 59.0352 110.89 60.1085 110.89H82.9118C87.706 110.89 91.5926 107.047 91.5926 102.307C91.5926 97.5669 87.706 93.7241 82.9118 93.7241H60.1085C59.0352 93.7241 58.165 94.5844 58.165 95.6456V108.968ZM62.052 107.047V97.5672H82.9118C85.5593 97.5672 87.7057 99.6893 87.7057 102.307C87.7057 104.924 85.5593 107.047 82.9118 107.047H62.052Z" fill="white"/>
<path fill-rule="evenodd" clip-rule="evenodd" d="M107.403 76.5586C108.651 76.5586 109.662 75.7721 109.662 74.8019V71.9912C109.662 71.021 108.651 70.2345 107.403 70.2345C106.156 70.2345 105.145 71.021 105.145 71.9912V74.8019C105.145 75.7721 106.156 76.5586 107.403 76.5586Z" fill="white"/>
<path fill-rule="evenodd" clip-rule="evenodd" d="M139.024 76.5586C139.773 76.5586 140.379 75.7721 140.379 74.8019V71.9912C140.379 71.021 139.773 70.2345 139.024 70.2345C138.276 70.2345 137.669 71.021 137.669 71.9912V74.8019C137.669 75.7721 138.276 76.5586 139.024 76.5586Z" fill="white"/>
<path fill-rule="evenodd" clip-rule="evenodd" d="M145.8 76.5586C146.798 76.5586 147.607 75.7721 147.607 74.8019V71.9912C147.607 71.021 146.798 70.2345 145.8 70.2345C144.802 70.2345 143.993 71.021 143.993 71.9912V74.8019C143.993 75.7721 144.802 76.5586 145.8 76.5586Z" fill="white"/>
<path fill-rule="evenodd" clip-rule="evenodd" d="M117.342 76.5586C118.589 76.5586 119.6 75.7721 119.6 74.8019V71.9912C119.6 71.021 118.589 70.2345 117.342 70.2345C116.094 70.2345 115.083 71.021 115.083 71.9912V74.8019C115.083 75.7721 116.094 76.5586 117.342 76.5586Z" fill="white"/>
<path fill-rule="evenodd" clip-rule="evenodd" d="M124.569 76.5586C125.817 76.5586 126.828 75.7721 126.828 74.8019V71.9912C126.828 71.021 125.817 70.2345 124.569 70.2345C123.322 70.2345 122.311 71.021 122.311 71.9912V74.8019C122.311 75.7721 123.322 76.5586 124.569 76.5586Z" fill="white"/>
</svg>
