<svg width="152" height="152" viewBox="0 0 152 152" fill="none" xmlns="http://www.w3.org/2000/svg">
<circle cx="76" cy="76" r="76" fill="#FFFDFD"/>
<g clip-path="url(#clip0_577_547)">
<path d="M59.0258 105.98C59.8891 105.98 60.5891 106.679 60.5891 107.542C60.5891 108.405 59.8891 109.105 59.0258 109.105H30.5898C29.3281 109.105 28.1789 108.592 27.3461 107.759C26.518 106.926 26 105.781 26 104.515V30.5898C26 29.3281 26.518 28.1836 27.3461 27.3508L27.3516 27.3461C28.1844 26.518 29.3281 26 30.5898 26H121.407C122.669 26 123.812 26.518 124.646 27.3461L124.652 27.3508C125.48 28.1836 125.998 29.3281 125.998 30.5898V104.515C125.998 105.772 125.48 106.921 124.652 107.754H124.646L124.641 107.759V107.763C123.808 108.592 122.659 109.105 121.406 109.105H118.907C118.045 109.105 117.344 108.405 117.344 107.542C117.344 106.679 118.044 105.98 118.907 105.98H121.406C121.811 105.98 122.175 105.816 122.441 105.555L122.446 105.549C122.708 105.288 122.87 104.919 122.87 104.515V30.5891C122.87 30.1852 122.708 29.8203 122.441 29.5539C122.175 29.2875 121.811 29.125 121.406 29.125H30.5898C30.1852 29.125 29.8211 29.2875 29.5547 29.5539C29.2883 29.8211 29.1258 30.1852 29.1258 30.5891V104.515C29.1258 104.92 29.2883 105.284 29.5547 105.549C29.8211 105.816 30.1898 105.98 30.5898 105.98H59.0258Z" fill="#003B7D"/>
<path d="M124.433 43.0188H27.5632V39.8931H124.433V43.0188Z" fill="#003B7D"/>
<path d="M35.2977 36.0227C36.1335 36.0227 36.811 35.3451 36.811 34.5094C36.811 33.6736 36.1335 32.9961 35.2977 32.9961C34.4619 32.9961 33.7844 33.6736 33.7844 34.5094C33.7844 35.3451 34.4619 36.0227 35.2977 36.0227Z" fill="#003B7D"/>
<path d="M41.8946 36.0227C42.7304 36.0227 43.4079 35.3451 43.4079 34.5094C43.4079 33.6736 42.7304 32.9961 41.8946 32.9961C41.0589 32.9961 40.3813 33.6736 40.3813 34.5094C40.3813 35.3451 41.0589 36.0227 41.8946 36.0227Z" fill="#003B7D"/>
<path d="M48.4913 36.0227C49.3271 36.0227 50.0046 35.3451 50.0046 34.5094C50.0046 33.6736 49.3271 32.9961 48.4913 32.9961C47.6555 32.9961 46.978 33.6736 46.978 34.5094C46.978 35.3451 47.6555 36.0227 48.4913 36.0227Z" fill="#003B7D"/>
<path d="M114.727 32.9468C115.589 32.9468 116.289 33.6468 116.289 34.5101C116.289 35.3733 115.589 36.0726 114.727 36.0726H61.561C60.6985 36.0726 59.9985 35.3726 59.9985 34.5101C59.9985 33.6476 60.6985 32.9468 61.561 32.9468H114.727Z" fill="#003B7D"/>
<path d="M62.7632 65.9922C63.6265 65.9922 64.3265 66.6922 64.3265 67.5555C64.3265 68.418 63.6265 69.118 62.7632 69.118H55.9109C54.7031 69.118 53.6039 68.625 52.8148 67.832C52.0203 67.0375 51.5281 65.9383 51.5281 64.7359V55.6102C51.5281 54.4117 52.0164 53.3172 52.8148 52.5187L52.8203 52.5141V52.5086C53.6179 51.7203 54.7125 51.2266 55.9117 51.2266H88.0898C89.2875 51.2266 90.3859 51.7195 91.1812 52.518L91.1859 52.5133C91.9796 53.307 92.4718 54.4016 92.4718 55.6094V64.7352C92.4718 65.9328 91.9789 67.0281 91.1859 67.8211L91.1812 67.8312C90.3867 68.625 89.2921 69.118 88.0898 69.118H85.339C84.4765 69.118 83.7757 68.418 83.7757 67.5539C83.7757 66.6914 84.4757 65.9914 85.339 65.9914H88.0898C88.4343 65.9914 88.7507 65.8484 88.9773 65.6219C89.2039 65.3945 89.3468 65.0789 89.3468 64.7344V55.6094C89.3468 55.2641 89.2039 54.9492 88.9773 54.7219V54.7172C88.7507 54.4906 88.4351 54.3523 88.0898 54.3523H55.9117C55.5609 54.3523 55.2445 54.4898 55.0234 54.7172L55.014 54.7219C54.7914 54.9492 54.6484 55.2594 54.6484 55.6094V64.7352C54.6484 65.075 54.7914 65.3906 55.0226 65.6227C55.2492 65.8492 55.5648 65.9922 55.9109 65.9922H62.7632Z" fill="#003B7D"/>
<path d="M97.9633 79.9498C98.082 79.8459 98.2102 79.7467 98.3383 79.6584C98.9789 79.199 99.7281 78.8897 100.513 78.7522C101.286 78.6178 102.109 78.642 102.917 78.8545C104.791 79.3381 106.537 80.792 107.251 83.46C109.777 92.867 112.134 102.297 114.671 111.734C115.248 113.863 114.892 116.037 113.867 117.822C112.838 119.606 111.131 121.002 108.997 121.58L94.2461 125.544C91.6336 126.248 89.6563 126.129 87.65 125.243C85.7867 124.419 84.0258 122.965 81.6899 120.883L63.3305 104.532C60.7867 102.263 60.0266 99.699 60.4313 97.5358C60.7961 95.549 62.1461 93.9272 64 93.149C66.0906 92.2654 68.8274 92.4365 71.4695 94.3787L76.6516 98.1858L68.1172 66.4506C67.7328 65.0358 67.9703 63.5912 68.6547 62.4084C70.132 59.8381 73.3688 58.9701 75.936 60.4459C77.1242 61.1311 78.0516 62.2654 78.436 63.6795L81.8914 76.5272C83.5969 75.1014 86.0102 74.8928 87.9555 76.0139C89.1438 76.7006 90.0758 77.8342 90.4555 79.2483V79.2576C91.0563 78.76 91.7406 78.4108 92.4586 78.2139C94.4813 77.6623 96.6211 78.3623 97.9633 79.9498ZM75.4453 64.5772C75.2555 63.942 74.9789 63.4826 74.386 63.1428C73.9133 62.8717 73.3352 62.7733 72.7688 62.9068C71.5391 63.2584 70.7961 64.3787 71.132 65.6475L80.8242 101.676C81.1883 103.086 79.5899 104.21 78.3946 103.337L69.6266 96.8936C67.9758 95.6756 66.3727 95.5233 65.2094 96.0162C64.3172 96.3943 63.6774 97.1397 63.4945 98.0975C63.2774 99.2756 63.7852 100.754 65.4063 102.199L83.7664 118.552C85.882 120.435 87.4445 121.741 88.9078 122.387C90.225 122.968 91.586 123.027 93.4445 122.53L108.195 118.562C109.502 118.212 110.542 117.359 111.168 116.269C111.8 115.179 112.011 113.847 111.661 112.537C109.125 103.111 106.762 93.6467 104.242 84.2647C103.858 82.8483 103.02 82.0998 102.137 81.8678C101.782 81.7795 101.413 81.7701 101.052 81.8279C100.717 81.8873 100.402 82.0154 100.145 82.199C99.6969 82.5178 99.4156 83.0615 99.5 83.7615C99.6328 84.5506 99.15 85.324 98.361 85.5358C97.5328 85.7568 96.675 85.2654 96.4531 84.4311L96.0102 82.7904C95.8524 82.1983 95.468 81.7256 94.975 81.4428C93.9172 80.8248 92.5516 81.1983 91.943 82.2561C91.657 82.7506 91.5633 83.3514 91.7211 83.9483C91.9414 84.7772 91.4469 85.6342 90.6172 85.8553C89.7836 86.0764 88.9313 85.5834 88.7094 84.7506L87.4477 80.0631C87.2961 79.4928 86.9203 79.01 86.4125 78.7115C84.6867 77.7287 82.6008 79.3068 83.1336 81.3209L85.7305 90.9733C85.9516 91.8061 85.4586 92.6592 84.6258 92.8803C83.793 93.1029 82.9399 92.61 82.7188 91.7756C80.3141 82.7006 77.8836 73.642 75.4453 64.5772Z" fill="#003B7D"/>
<path d="M106.813 53.3569C106.813 52.4944 107.509 51.7944 108.371 51.7944C109.234 51.7944 109.934 52.4944 109.934 53.3569V55.8858C109.934 56.7483 109.234 57.4483 108.371 57.4483C107.509 57.4483 106.813 56.7483 106.813 55.8858V53.3569ZM116.126 59.5491C116.989 59.5491 117.689 60.2491 117.689 61.1116C117.689 61.9741 116.989 62.6741 116.126 62.6741H113.598C112.734 62.6741 112.034 61.9741 112.034 61.1116C112.034 60.2491 112.734 59.5491 113.598 59.5491H116.126ZM103.151 59.5491C104.013 59.5491 104.714 60.2491 104.714 61.1116C104.714 61.9741 104.014 62.6741 103.151 62.6741H100.622C99.7593 62.6741 99.0593 61.9741 99.0593 61.1116C99.0593 60.2491 99.7593 59.5491 100.622 59.5491H103.151ZM106.813 66.3327C106.813 65.4702 107.509 64.7749 108.371 64.7749C109.234 64.7749 109.934 65.4702 109.934 66.3327V68.8616C109.934 69.7241 109.234 70.4241 108.371 70.4241C107.509 70.4241 106.813 69.7241 106.813 68.8616V66.3327Z" fill="#003B7D"/>
<path d="M47.4852 78.9428C47.4852 79.8061 46.7852 80.5068 45.9227 80.5068C45.0602 80.5068 44.3594 79.8061 44.3594 78.9428V77.9232C44.3594 77.424 44.1273 76.9623 43.7531 76.6162C43.3484 76.2467 42.7773 76.01 42.1367 76.01C41.5008 76.01 40.9281 76.2467 40.5203 76.6162C40.15 76.9615 39.918 77.424 39.918 77.9232V78.9576C39.918 79.3912 39.9922 79.7865 40.15 80.1311C40.3078 80.4912 40.5641 80.8311 40.9047 81.1521L45.4945 85.4217C46.1453 86.0271 46.6383 86.7037 46.9734 87.4568C47.3141 88.2217 47.4859 89.035 47.4859 89.8982V90.9326C47.4859 92.3428 46.8648 93.6193 45.8695 94.5318C44.9039 95.4186 43.5813 95.9709 42.1375 95.9709C40.6984 95.9709 39.3773 95.4186 38.4102 94.5318C37.4102 93.6193 36.7938 92.342 36.7938 90.9326V89.9178C36.7938 89.0545 37.4938 88.3537 38.3563 88.3537C39.2188 88.3537 39.9195 89.0537 39.9195 89.9178V90.9326C39.9195 91.4303 40.1516 91.8982 40.5211 92.2389C40.9305 92.6139 41.5023 92.8459 42.1383 92.8459C42.7789 92.8459 43.3508 92.6139 43.7547 92.2389C44.1289 91.8982 44.3609 91.4303 44.3609 90.9326V89.8982C44.3609 89.4631 44.2813 89.074 44.1289 88.7248C43.9664 88.3646 43.7148 88.0248 43.3742 87.7037L38.7797 83.4342C38.1336 82.8326 37.6406 82.1521 37.3055 81.3975C36.9602 80.6342 36.793 79.8193 36.793 78.9576V77.9232C36.793 76.5123 37.4094 75.2412 38.4094 74.324C39.3758 73.4373 40.6977 72.8896 42.1367 72.8896C43.5813 72.8896 44.9031 73.4365 45.8687 74.324C46.8641 75.2412 47.4852 76.5123 47.4852 77.9232V78.9428Z" fill="#003B7D"/>
<path d="M43.6993 74.4523C43.6993 75.3148 42.9993 76.0102 42.136 76.0102C41.2727 76.0102 40.5735 75.3141 40.5735 74.4523V71.2773C40.5735 70.4148 41.2735 69.7148 42.136 69.7148C42.9985 69.7148 43.6993 70.4148 43.6993 71.2773V74.4523Z" fill="#003B7D"/>
<path d="M43.6993 98.4507C43.6993 99.314 42.9993 100.015 42.136 100.015C41.2727 100.015 40.5735 99.3147 40.5735 98.4507V95.2765C40.5735 94.4132 41.2735 93.7124 42.136 93.7124C42.9985 93.7124 43.6993 94.4124 43.6993 95.2765V98.4507Z" fill="#003B7D"/>
</g>
<defs>
<clipPath id="clip0_577_547">
<rect width="100" height="100" fill="white" transform="translate(26 26)"/>
</clipPath>
</defs>
</svg>
