<svg width="202" height="202" viewBox="0 0 202 202" fill="none" xmlns="http://www.w3.org/2000/svg">
<circle cx="101" cy="101" r="101" fill="#00549A"/>
<g clip-path="url(#clip0_667_543)">
<path d="M93.9121 62.77C94.2017 63.0892 94.3527 63.5102 94.3319 63.9407C94.3111 64.3711 94.1201 64.7757 93.801 65.0653L91.0881 67.5272V77.0388C91.0881 77.4697 90.9169 77.8831 90.6121 78.1878C90.3074 78.4925 89.894 78.6638 89.4631 78.6638H70.5927C70.1618 78.6638 69.7484 78.4925 69.4437 78.1878C69.139 77.8831 68.9677 77.4697 68.9677 77.0388V59.5921C68.9677 59.1612 69.139 58.7478 69.4437 58.4431C69.7484 58.1383 70.1618 57.9671 70.5927 57.9671H89.4631C89.894 57.9671 90.3074 58.1383 90.6121 58.4431C90.9169 58.7478 91.0881 59.1612 91.0881 59.5921C91.0881 60.0231 90.9169 60.4364 90.6121 60.7412C90.3074 61.0459 89.894 61.2171 89.4631 61.2171H72.2177V75.414H87.8381V70.477L84.8182 73.2176C84.5091 73.498 84.104 73.6488 83.6868 73.6387C83.2696 73.6285 82.8722 73.4583 82.5771 73.1631L78.8786 69.4648C78.7262 69.3143 78.6051 69.1351 78.5222 68.9375C78.4393 68.74 78.3963 68.528 78.3956 68.3138C78.395 68.0996 78.4367 67.8873 78.5184 67.6893C78.6 67.4912 78.7201 67.3113 78.8715 67.1598C79.023 67.0083 79.2029 66.8882 79.401 66.8066C79.599 66.7249 79.8113 66.6831 80.0255 66.6838C80.2397 66.6844 80.4517 66.7274 80.6492 66.8103C80.8468 66.8932 81.026 67.0143 81.1766 67.1667L83.7812 69.7705L91.6176 62.6589C91.9367 62.3695 92.3576 62.2187 92.7879 62.2395C93.2181 62.2604 93.6225 62.4512 93.9121 62.77ZM91.6168 94.3434L83.7812 101.455L81.1774 98.8511C81.0268 98.6987 80.8476 98.5776 80.6501 98.4947C80.4525 98.4119 80.2405 98.3689 80.0263 98.3682C79.8121 98.3676 79.5998 98.4093 79.4018 98.491C79.2037 98.5727 79.0238 98.6927 78.8723 98.8442C78.7209 98.9957 78.6008 99.1757 78.5192 99.3737C78.4375 99.5718 78.3958 99.784 78.3964 99.9982C78.3971 100.212 78.4401 100.424 78.523 100.622C78.6059 100.82 78.727 100.999 78.8794 101.149L82.5779 104.848C82.8731 105.143 83.2704 105.313 83.6876 105.323C84.1049 105.333 84.51 105.182 84.819 104.902L87.8389 102.161V107.097H72.2186V92.9016H89.4639C89.8949 92.9016 90.3082 92.7304 90.6129 92.4256C90.9177 92.1209 91.0889 91.7076 91.0889 91.2766C91.0889 90.8456 90.9177 90.4323 90.6129 90.1275C90.3082 89.8228 89.8949 89.6516 89.4639 89.6516H70.5936C70.1626 89.6516 69.7493 89.8228 69.4445 90.1275C69.1398 90.4323 68.9686 90.8456 68.9686 91.2766V108.723C68.9686 109.154 69.1398 109.568 69.4445 109.872C69.7493 110.177 70.1626 110.348 70.5936 110.348H89.4639C89.8949 110.348 90.3082 110.177 90.6129 109.872C90.9177 109.568 91.0889 109.154 91.0889 108.723V99.2121L93.801 96.75C94.1201 96.4604 94.3111 96.0558 94.332 95.6253C94.3529 95.1949 94.2019 94.7737 93.9122 94.4546C93.6226 94.1354 93.218 93.9444 92.7875 93.9236C92.3571 93.9027 91.9359 94.0537 91.6168 94.3434ZM91.6168 126.028L83.7812 133.139L81.1774 130.536C80.8726 130.231 80.4593 130.06 80.0283 130.06C79.5973 130.06 79.184 130.231 78.8792 130.536C78.5745 130.841 78.4033 131.254 78.4034 131.685C78.4034 132.116 78.5747 132.529 78.8794 132.834L82.5779 136.532C82.8731 136.828 83.2704 136.998 83.6877 137.008C84.1049 137.018 84.51 136.867 84.819 136.586L87.8389 133.846V138.783H72.2186V124.586H89.4639C89.8949 124.586 90.3082 124.415 90.6129 124.11C90.9177 123.805 91.0889 123.392 91.0889 122.961C91.0889 122.53 90.9177 122.117 90.6129 121.812C90.3082 121.507 89.8949 121.336 89.4639 121.336H70.5936C70.1626 121.336 69.7493 121.507 69.4445 121.812C69.1398 122.117 68.9686 122.53 68.9686 122.961V140.408C68.9686 140.839 69.1398 141.252 69.4445 141.557C69.7493 141.862 70.1626 142.033 70.5936 142.033H89.4639C89.8949 142.033 90.3082 141.862 90.6129 141.557C90.9177 141.252 91.0889 140.839 91.0889 140.408V130.897L93.8018 128.434C94.1164 128.144 94.3034 127.74 94.3221 127.312C94.3409 126.884 94.1898 126.466 93.9019 126.149C93.614 125.832 93.2125 125.641 92.7847 125.619C92.3569 125.596 91.9375 125.743 91.6176 126.028H91.6168ZM100.027 61.2171H121.138C121.569 61.2171 121.982 61.0459 122.287 60.7412C122.592 60.4364 122.763 60.0231 122.763 59.5921C122.763 59.1612 122.592 58.7478 122.287 58.4431C121.982 58.1383 121.569 57.9671 121.138 57.9671H100.027C99.5962 57.9671 99.1829 58.1383 98.8781 58.4431C98.5734 58.7478 98.4022 59.1612 98.4022 59.5921C98.4022 60.0231 98.5734 60.4364 98.8781 60.7412C99.1829 61.0459 99.5962 61.2171 100.027 61.2171ZM100.027 69.9405H121.138C121.569 69.9405 121.982 69.7693 122.287 69.4646C122.592 69.1598 122.763 68.7465 122.763 68.3155C122.763 67.8846 122.592 67.4712 122.287 67.1665C121.982 66.8618 121.569 66.6905 121.138 66.6905H100.027C99.5962 66.6905 99.1829 66.8618 98.8781 67.1665C98.5734 67.4712 98.4022 67.8846 98.4022 68.3155C98.4022 68.7465 98.5734 69.1598 98.8781 69.4646C99.1829 69.7693 99.5962 69.9405 100.027 69.9405ZM100.027 92.9018H121.138C121.569 92.9018 121.982 92.7306 122.287 92.4258C122.592 92.1211 122.763 91.7078 122.763 91.2768C122.763 90.8458 122.592 90.4325 122.287 90.1278C121.982 89.823 121.569 89.6518 121.138 89.6518H100.027C99.5962 89.6518 99.1829 89.823 98.8781 90.1278C98.5734 90.4325 98.4022 90.8458 98.4022 91.2768C98.4022 91.7078 98.5734 92.1211 98.8781 92.4258C99.1829 92.7306 99.5962 92.9018 100.027 92.9018ZM100.027 101.625H121.138C121.569 101.625 121.982 101.454 122.287 101.149C122.592 100.844 122.763 100.431 122.763 100C122.763 99.569 122.592 99.1557 122.287 98.851C121.982 98.5462 121.569 98.375 121.138 98.375H100.027C99.5962 98.375 99.1829 98.5462 98.8781 98.851C98.5734 99.1557 98.4022 99.569 98.4022 100C98.4022 100.431 98.5734 100.844 98.8781 101.149C99.1829 101.454 99.5962 101.625 100.027 101.625ZM109.56 121.336H100.027C99.5962 121.336 99.1829 121.507 98.8781 121.812C98.5734 122.117 98.4022 122.53 98.4022 122.961C98.4022 123.392 98.5734 123.805 98.8781 124.11C99.1829 124.415 99.5962 124.586 100.027 124.586H109.56C109.991 124.586 110.404 124.415 110.709 124.11C111.014 123.805 111.185 123.392 111.185 122.961C111.185 122.53 111.014 122.117 110.709 121.812C110.404 121.507 109.991 121.336 109.56 121.336ZM109.56 130.059H100.027C99.5962 130.059 99.1829 130.23 98.8781 130.535C98.5734 130.84 98.4022 131.253 98.4022 131.684C98.4022 132.115 98.5734 132.529 98.8781 132.833C99.1829 133.138 99.5962 133.309 100.027 133.309H109.56C109.991 133.309 110.404 133.138 110.709 132.833C111.014 132.529 111.185 132.115 111.185 131.684C111.185 131.253 111.014 130.84 110.709 130.535C110.404 130.23 109.991 130.059 109.56 130.059ZM163 115.417V138.722C163 139.008 162.925 139.288 162.782 139.535C162.64 139.782 162.435 139.987 162.188 140.13L142.004 151.782C141.757 151.925 141.477 152 141.192 152C140.907 152 140.626 151.925 140.379 151.782L132.73 147.366V150.375C132.73 150.806 132.559 151.219 132.254 151.524C131.949 151.829 131.536 152 131.105 152H60.625C60.194 152 59.7807 151.829 59.476 151.524C59.1712 151.219 59 150.806 59 150.375V49.625C59 49.194 59.1712 48.7807 59.476 48.476C59.7807 48.1712 60.194 48 60.625 48H131.105C131.536 48 131.949 48.1712 132.254 48.476C132.559 48.7807 132.73 49.194 132.73 49.625V106.774L140.379 102.356C140.626 102.214 140.907 102.139 141.192 102.139C141.477 102.139 141.757 102.214 142.004 102.356L162.188 114.01C162.435 114.153 162.64 114.358 162.782 114.605C162.925 114.852 163 115.132 163 115.417ZM124.259 115.417L141.192 125.193L158.125 115.417L141.192 105.641L124.259 115.417ZM122.634 137.784L139.567 147.561V128.008L122.634 118.231V137.784ZM129.479 145.489L120.196 140.13C119.949 139.987 119.744 139.782 119.602 139.535C119.459 139.288 119.384 139.008 119.384 138.722V115.417C119.384 115.132 119.459 114.852 119.602 114.605C119.744 114.358 119.949 114.153 120.196 114.01L129.479 108.65V51.25H62.25V148.75H129.48L129.479 145.489ZM159.75 137.784V118.231L142.817 128.008V147.561L159.75 137.784Z" fill="white"/>
</g>
<defs>
<clipPath id="clip0_667_543">
<rect width="104" height="104" fill="white" transform="translate(59 48)"/>
</clipPath>
</defs>
</svg>
