<svg width="152" height="152" viewBox="0 0 152 152" fill="none" xmlns="http://www.w3.org/2000/svg">
<path d="M152 76C152 117.974 117.974 152 76 152C34.0264 152 0 117.974 0 76C0 34.0264 34.0264 0 76 0C117.974 0 152 34.0264 152 76Z" fill="#FFFDFD"/>
<path d="M54.3272 69.4921L62.5452 59.6055C63.0106 59.0455 62.934 58.2144 62.374 57.7489C61.8143 57.2836 60.9828 57.3602 60.5174 57.9201L53.4731 66.3947L51.9334 63.8937C51.5518 63.2737 50.7399 63.0802 50.1195 63.4621C49.4996 63.8439 49.3064 64.656 49.688 65.2758L52.1904 69.3404C52.6636 70.1086 53.751 70.1854 54.3272 69.4921Z" fill="#00549A"/>
<path d="M49.6881 82.6781L52.1906 86.7426C52.6634 87.5108 53.7508 87.5876 54.327 86.8942L62.545 77.0075C63.0104 76.4475 62.9338 75.6164 62.3737 75.1509C61.8141 74.6856 60.9826 74.7621 60.5171 75.3221L53.4729 83.7967L51.9332 81.2957C51.5516 80.6757 50.7397 80.4822 50.1193 80.8642C49.4995 81.2461 49.3063 82.0583 49.6881 82.6781Z" fill="#00549A"/>
<path d="M49.6881 100.198L52.1906 104.262C52.6634 105.03 53.7508 105.107 54.327 104.414L62.545 94.5272C63.0104 93.9671 62.9338 93.136 62.3737 92.6706C61.8141 92.2053 60.9826 92.2818 60.5171 92.8418L53.4729 101.316L51.9332 98.8154C51.5516 98.1954 50.7397 98.002 50.1193 98.3838C49.4995 98.7658 49.3063 99.5779 49.6881 100.198Z" fill="#00549A"/>
<path d="M107.994 105.427C107.266 105.427 106.676 106.017 106.676 106.745V116.342C106.676 117.456 105.769 118.363 104.654 118.363H43.6582C42.5436 118.363 41.6367 117.456 41.6367 116.342V58.5641C41.6367 57.8358 41.0464 57.2457 40.3184 57.2457C39.5903 57.2457 39 57.8358 39 58.5641V116.342C39 118.91 41.0897 121 43.6582 121H104.654C107.223 121 109.312 118.91 109.312 116.342V106.745C109.312 106.017 108.722 105.427 107.994 105.427Z" fill="#00549A"/>
<path d="M104.654 41.1586H98.2052V35.7109C98.2052 33.1134 96.092 31 93.4943 31C90.8966 31 88.7834 33.1132 88.7834 35.7109V41.1586H78.8672V35.7109C78.8672 33.1132 76.7538 31 74.1562 31C71.5587 31 69.4453 33.1132 69.4453 35.7109V41.1586H59.529V35.7109C59.529 33.1134 57.4157 31 54.818 31C52.2205 31 50.1071 33.1132 50.1071 35.7109V41.1586H43.6582C41.0897 41.1586 39 43.2483 39 45.8168V52.4117C39 53.14 39.5903 53.7301 40.3184 53.7301C41.0464 53.7301 41.6367 53.14 41.6367 52.4117V45.8168C41.6367 44.7021 42.5436 43.7953 43.6582 43.7953H50.1071V45.8887C50.1071 48.4862 52.2203 50.5996 54.818 50.5996C57.4157 50.5996 59.529 48.4864 59.529 45.8887V43.7953H69.4453V45.8887C69.4453 48.4862 71.5586 50.5996 74.1562 50.5996C76.7539 50.5996 78.8672 48.4864 78.8672 45.8887V43.7953H88.7835V45.8887C88.7835 48.4862 90.8968 50.5996 93.4945 50.5996C96.092 50.5996 98.2054 48.4864 98.2054 45.8887V43.7953H104.654C105.769 43.7953 106.676 44.7021 106.676 45.8168V100.593C106.676 101.321 107.266 101.911 107.994 101.911C108.722 101.911 109.312 101.321 109.312 100.593V45.8168C109.312 43.2483 107.223 41.1586 104.654 41.1586ZM56.8924 45.8887C56.8924 47.0325 55.962 47.9629 54.8182 47.9629C53.6746 47.9629 52.744 47.0325 52.744 45.8887C52.744 43.0785 52.744 36.5905 52.744 35.7109C52.744 34.5671 53.6744 33.6367 54.8182 33.6367C55.962 33.6367 56.8924 34.5671 56.8924 35.7109V45.8887ZM76.2305 45.8887C76.2305 47.0325 75.3001 47.9629 74.1562 47.9629C73.0124 47.9629 72.082 47.0325 72.082 45.8887C72.082 43.0785 72.082 36.5905 72.082 35.7109C72.082 34.5671 73.0124 33.6367 74.1562 33.6367C75.3001 33.6367 76.2305 34.5671 76.2305 35.7109V45.8887ZM95.5687 45.8887C95.5687 47.0325 94.6383 47.9629 93.4945 47.9629C92.3507 47.9629 91.4203 47.0325 91.4203 45.8887C91.4203 43.0785 91.4203 36.5905 91.4203 35.7109C91.4203 34.5671 92.3507 33.6367 93.4945 33.6367C94.6381 33.6367 95.5687 34.5671 95.5687 35.7109V45.8887Z" fill="#00549A"/>
<path d="M68.1338 70.583H95.9072C98.185 70.583 100.038 68.7299 100.038 66.4521C100.038 64.1744 98.185 62.3213 95.9072 62.3213H68.1338C65.856 62.3213 64.0029 64.1744 64.0029 66.4521C64.0029 68.7299 65.856 70.583 68.1338 70.583ZM68.1338 64.958H95.9072C96.7311 64.958 97.4014 65.6283 97.4014 66.4521C97.4014 67.276 96.7311 67.9463 95.9072 67.9463H68.1338C67.3099 67.9463 66.6396 67.276 66.6396 66.4521C66.6396 65.6283 67.3099 64.958 68.1338 64.958Z" fill="#00549A"/>
<path d="M68.1338 88.0228H95.9072C98.185 88.0228 100.038 86.1697 100.038 83.892C100.038 81.6142 98.185 79.7611 95.9072 79.7611H68.1338C65.856 79.7611 64.0029 81.6142 64.0029 83.892C64.0029 86.1697 65.856 88.0228 68.1338 88.0228ZM68.1338 82.3978H95.9072C96.7311 82.3978 97.4014 83.0681 97.4014 83.892C97.4014 84.7159 96.7311 85.3861 95.9072 85.3861H68.1338C67.3099 85.3861 66.6396 84.7159 66.6396 83.892C66.6396 83.0681 67.3099 82.3978 68.1338 82.3978Z" fill="#00549A"/>
<path d="M68.1338 105.462H95.9072C98.185 105.462 100.038 103.609 100.038 101.332C100.038 99.0538 98.185 97.2007 95.9072 97.2007H68.1338C65.856 97.2007 64.0029 99.0538 64.0029 101.332C64.0029 103.609 65.856 105.462 68.1338 105.462ZM68.1338 99.8374H95.9072C96.7311 99.8374 97.4014 100.508 97.4014 101.332C97.4014 102.155 96.7311 102.826 95.9072 102.826H68.1338C67.3099 102.826 66.6396 102.155 66.6396 101.332C66.6396 100.508 67.3099 99.8374 68.1338 99.8374Z" fill="#00549A"/>
</svg>
