<svg width="714" height="429" viewBox="0 0 714 429" fill="none" xmlns="http://www.w3.org/2000/svg">
<g clip-path="url(#clip0_1585_530)">
<path d="M713.031 367.5H622.23V428.18H713.031V367.5Z" fill="#EBEBEB"/>
<path d="M713.04 367.5H676.08V428.18H713.04V367.5Z" fill="#E0E0E0"/>
<path d="M662.031 6.4502H574.141V133.84H662.031V6.4502Z" fill="#E0E0E0"/>
<path d="M657.63 6.4502H569.74V133.84H657.63V6.4502Z" fill="#F5F5F5"/>
<path d="M646.71 20.25H580.66V120.05H646.71V20.25Z" fill="white"/>
<path d="M646.71 120.04C646.71 120.04 646.71 119.87 646.71 119.55C646.71 119.23 646.71 118.75 646.71 118.14C646.71 116.88 646.71 115.05 646.71 112.66C646.71 107.88 646.71 100.91 646.71 92.1102C646.71 74.5102 646.64 49.5902 646.6 20.2502L646.82 20.4702H580.82L581.06 20.2302C581.06 57.8702 581.06 92.5802 581.06 120.02L580.87 119.83L628.94 119.93L642.22 119.98H645.71H646.92H645.75H642.3L629.06 120.03L580.87 120.13H580.5V119.94C580.5 92.5002 580.5 57.7902 580.45 20.1502V19.9102H580.7H646.7H646.92V20.1302C646.92 49.5302 646.83 74.5002 646.81 92.1302C646.81 100.91 646.76 107.87 646.75 112.64C646.75 115 646.75 116.82 646.75 118.07C646.75 118.67 646.75 119.14 646.75 119.46C646.75 119.78 646.71 120.04 646.71 120.04Z" fill="#E0E0E0"/>
<path d="M657.87 6.4502C657.421 7.256 656.899 8.01916 656.31 8.73019C655.31 10.0902 653.84 11.9502 652.18 13.9602C650.52 15.9702 648.98 17.7402 647.84 19.0102C647.254 19.7331 646.605 20.4025 645.9 21.0102C646.397 20.2338 646.959 19.5011 647.58 18.8202L651.81 13.6802C653.42 11.7402 654.86 9.98019 656.04 8.55019C656.593 7.80255 657.205 7.10031 657.87 6.4502Z" fill="#E0E0E0"/>
<path d="M647.04 119.72C650.326 124.941 654.191 129.775 658.56 134.13L647.04 119.72Z" fill="white"/>
<path d="M658.56 134.13C657.837 133.585 657.167 132.972 656.56 132.3C653.5 129.177 650.762 125.753 648.39 122.08C647.864 121.341 647.415 120.55 647.05 119.72C647.644 120.401 648.186 121.127 648.67 121.89C649.67 123.25 651 125.11 652.59 127.1C654.18 129.09 655.7 130.82 656.81 132.1C657.443 132.732 658.028 133.41 658.56 134.13Z" fill="#E0E0E0"/>
<path d="M569.73 133.74C573.557 129 577.394 124.264 581.24 119.53L569.73 133.74Z" fill="white"/>
<path d="M581.24 119.53C579.512 122.046 577.653 124.469 575.67 126.79C573.81 129.206 571.827 131.526 569.73 133.74C571.454 131.224 573.313 128.804 575.3 126.49C577.156 124.067 579.139 121.744 581.24 119.53Z" fill="#E0E0E0"/>
<path d="M569.74 6.4502C571.72 8.57679 573.586 10.8066 575.33 13.1302C577.195 15.3653 578.934 17.7023 580.54 20.1302C578.557 18.0066 576.691 15.7766 574.95 13.4502C573.091 11.2107 571.352 8.87409 569.74 6.4502Z" fill="#E0E0E0"/>
<path d="M626.13 40.5103H604.01V103.3H626.13V40.5103Z" fill="#E0E0E0"/>
<path d="M649.151 159.81H558.351V220.49H649.151V159.81Z" fill="#EBEBEB"/>
<path d="M649.15 159.81H612.19V220.49H649.15V159.81Z" fill="#E0E0E0"/>
<path d="M109.24 93.9902H43.6201V162.39H109.24V93.9902Z" fill="#E0E0E0"/>
<path d="M104.8 93.9902H39.1797V162.39H104.8V93.9902Z" fill="#FAFAFA"/>
<path d="M104.82 162.41H39.1602V93.9702H104.82V162.41ZM39.2002 162.41H104.78V94.0102H39.2002V162.41Z" fill="#E0E0E0"/>
<path d="M95.98 103.18H48V153.19H95.98V103.18Z" fill="#FAFAFA"/>
<path d="M47.9998 153.53C47.6598 154.027 47.2639 154.484 46.8198 154.89C46.0498 155.7 44.9698 156.8 43.8198 157.99C42.6698 159.18 41.4998 160.23 40.6798 160.99C40.265 161.425 39.802 161.811 39.2998 162.14C39.6323 161.637 40.0252 161.177 40.4698 160.77C41.2398 159.96 42.3198 158.86 43.5298 157.67C44.7398 156.48 45.8498 155.42 46.6698 154.67C47.0628 154.235 47.5097 153.852 47.9998 153.53Z" fill="#E0E0E0"/>
<path d="M95.9805 153.4C96.4794 153.746 96.9388 154.145 97.3505 154.59C98.1605 155.35 99.2605 156.43 100.45 157.64C101.64 158.85 102.69 159.95 103.45 160.77C103.887 161.187 104.273 161.654 104.6 162.16C104.099 161.822 103.64 161.426 103.23 160.98C102.42 160.22 101.32 159.14 100.13 157.93C98.9405 156.72 97.8805 155.6 97.1305 154.78C96.6858 154.375 96.2988 153.911 95.9805 153.4Z" fill="#E0E0E0"/>
<path d="M95.8506 103.32C96.184 102.812 96.5805 102.349 97.0306 101.94C97.8006 101.13 98.8706 100.04 100.031 98.8504C101.191 97.6604 102.351 96.6004 103.161 95.8504C103.579 95.4132 104.045 95.0241 104.551 94.6904C104.215 95.1939 103.819 95.6541 103.371 96.0604C102.611 96.8704 101.531 97.9704 100.371 99.1604C99.2106 100.35 98.0406 101.42 97.2306 102.16C96.8137 102.596 96.351 102.985 95.8506 103.32Z" fill="#E0E0E0"/>
<path d="M47.8698 103.44C47.3682 103.102 46.9084 102.706 46.4998 102.26C45.6898 101.49 44.5998 100.41 43.4098 99.2102C42.2198 98.0102 41.1598 96.8902 40.4098 96.0702C39.9669 95.6595 39.5802 95.1921 39.2598 94.6802C39.7559 95.0326 40.212 95.4384 40.6198 95.8902C41.4298 96.6602 42.5198 97.7402 43.7098 98.9502C44.8998 100.16 45.9698 101.27 46.7098 102.09C47.1461 102.495 47.5352 102.948 47.8698 103.44Z" fill="#E0E0E0"/>
<path d="M95.8502 153.19C95.8391 153.11 95.8391 153.03 95.8502 152.95C95.8502 152.78 95.8502 152.55 95.8502 152.25C95.8502 151.63 95.8502 150.73 95.8502 149.55C95.8502 147.19 95.8502 143.74 95.8502 139.36C95.8502 130.6 95.7902 118.12 95.7502 103.18L95.9402 103.37H48.1002L48.3102 103.15C48.3102 121.51 48.3102 138.68 48.3102 153.15L48.1302 152.97L82.7702 153.07H92.5102H95.0802H95.9802H95.7602H95.1202H92.5802H82.8902L48.1302 153.17H47.9502V152.98C47.9502 138.5 47.9502 121.33 47.9502 102.98V102.77H48.1702H96.0102H96.1902V102.95C96.1902 117.95 96.1202 130.46 96.1002 139.25C96.1002 143.61 96.1002 147.04 96.1002 149.4C96.1002 150.56 96.1002 151.4 96.1002 152.06C96.1002 152.35 96.1002 152.58 96.1002 152.74C96.1002 152.9 95.8502 153.2 95.8502 153.19Z" fill="#E0E0E0"/>
<path d="M79.9905 120.19H63.9805V136.2H79.9905V120.19Z" fill="#EBEBEB"/>
<path d="M705 428.05C705 428.19 547.17 428.31 352.52 428.31C157.87 428.31 0 428.19 0 428.05C0 427.91 157.8 427.79 352.52 427.79C547.24 427.79 705 427.89 705 428.05Z" fill="#263238"/>
<path d="M58.9898 359.89C43.9898 351.77 27.1098 337.01 20.5498 320.24C36.7798 328.65 50.4998 342.75 58.9898 359.89Z" fill="#7432FF"/>
<path d="M58.0103 334.77C43.0103 326.66 26.1303 311.89 19.5703 295.12C35.8003 303.49 49.5003 317.59 58.0103 334.77Z" fill="#7432FF"/>
<path d="M55.7701 310.18C40.7701 302.07 23.8901 287.3 17.3301 270.53C33.5501 278.9 47.2301 293 55.7701 310.18Z" fill="#7432FF"/>
<path d="M52.5003 284.35C38.5703 274.2 23.5903 257.2 19.0703 239.65C34.1703 250.22 46.0703 266.12 52.5003 284.35Z" fill="#7432FF"/>
<path d="M48.2505 264.42C38.8305 249.34 30.7905 227.48 32.6305 209.36C43.1362 225.779 48.5693 244.93 48.2505 264.42Z" fill="#7432FF"/>
<path d="M50.3896 273.89C54.3896 255.09 64.0097 231.89 77.9097 218.82C73.8346 239.31 64.3301 258.33 50.3896 273.89Z" fill="#7432FF"/>
<path d="M53.5 295.17C59.18 275.94 71.14 252.61 86.69 240.17C80.7842 261.159 69.3167 280.162 53.5 295.17Z" fill="#7432FF"/>
<path d="M56.8896 321.08C62.5696 301.84 74.5297 278.52 90.0797 266.08C84.1679 287.066 72.7013 306.068 56.8896 321.08Z" fill="#7432FF"/>
<path d="M58.6104 352.65C64.2904 333.41 76.2504 310.09 91.8004 297.65C85.8886 318.636 74.422 337.638 58.6104 352.65Z" fill="#7432FF"/>
<path d="M47.8799 260.62C47.9205 260.72 47.9507 260.824 47.9699 260.93C48.0299 261.17 48.0999 261.47 48.1799 261.83C48.3699 262.68 48.6199 263.83 48.9499 265.33C49.6099 268.33 50.4799 272.77 51.4599 278.24C52.4399 283.71 53.4599 290.24 54.5299 297.5C55.5999 304.76 56.5299 312.79 57.2699 321.23C58.0099 329.67 58.5499 337.73 58.8999 345.06C59.2499 352.39 59.3799 359.01 59.3899 364.57C59.3999 370.13 59.3899 374.57 59.2799 377.72C59.2799 379.23 59.1999 380.42 59.1699 381.29C59.1699 381.67 59.1699 381.97 59.1699 382.22C59.1833 382.323 59.1833 382.427 59.1699 382.53C59.1565 382.427 59.1565 382.323 59.1699 382.22C59.1699 381.97 59.1699 381.67 59.1699 381.29V377.71C59.1699 374.61 59.1699 370.12 59.0899 364.57C59.0099 359.02 58.8099 352.42 58.4599 345.09C58.1099 337.76 57.5499 329.72 56.7899 321.28C56.0299 312.84 55.0599 304.85 54.0999 297.58C53.1399 290.31 52.0999 283.78 51.1599 278.31C50.2199 272.84 49.4299 268.42 48.8399 265.37C48.5699 263.88 48.3499 262.71 48.1899 261.86L48.0399 260.94C47.9717 260.842 47.9178 260.734 47.8799 260.62Z" fill="#263238"/>
<g opacity="0.5">
<path d="M58.9898 359.89C43.9898 351.77 27.1098 337.01 20.5498 320.24C36.7798 328.65 50.4998 342.75 58.9898 359.89Z" fill="black"/>
<path d="M58.0103 334.77C43.0103 326.66 26.1303 311.89 19.5703 295.12C35.8003 303.49 49.5003 317.59 58.0103 334.77Z" fill="black"/>
<path d="M55.7701 310.18C40.7701 302.07 23.8901 287.3 17.3301 270.53C33.5501 278.9 47.2301 293 55.7701 310.18Z" fill="black"/>
<path d="M52.5003 284.35C38.5703 274.2 23.5903 257.2 19.0703 239.65C34.1703 250.22 46.0703 266.12 52.5003 284.35Z" fill="black"/>
<path d="M48.2505 264.42C38.8305 249.34 30.7905 227.48 32.6305 209.36C43.1362 225.779 48.5693 244.93 48.2505 264.42Z" fill="black"/>
<path d="M50.3896 273.89C54.3896 255.09 64.0097 231.89 77.9097 218.82C73.8346 239.31 64.3301 258.33 50.3896 273.89Z" fill="black"/>
<path d="M53.5 295.17C59.18 275.94 71.14 252.61 86.69 240.17C80.7842 261.159 69.3167 280.162 53.5 295.17Z" fill="black"/>
<path d="M56.8896 321.08C62.5696 301.84 74.5297 278.52 90.0797 266.08C84.1679 287.066 72.7013 306.068 56.8896 321.08Z" fill="black"/>
<path d="M58.6104 352.65C64.2904 333.41 76.2504 310.09 91.8004 297.65C85.8886 318.636 74.422 337.638 58.6104 352.65Z" fill="black"/>
</g>
<path d="M65.5804 366.42C58.5804 351.79 53.5104 331.22 56.9404 315.17C64.7491 331.048 67.752 348.86 65.5804 366.42Z" fill="#0C88C9"/>
<path d="M77.2005 347.48C70.2005 332.85 65.1305 312.28 68.5605 296.22C76.3684 312.101 79.3712 329.916 77.2005 347.48Z" fill="#0C88C9"/>
<path d="M87.6204 328.22C80.6204 313.59 75.5504 293.02 78.9804 276.96C86.79 292.841 89.7928 310.656 87.6204 328.22Z" fill="#0C88C9"/>
<path d="M97.8905 307.44C92.6905 291.96 90.0905 270.85 95.3905 255.44C101.248 272.164 102.116 290.231 97.8905 307.44Z" fill="#0C88C9"/>
<path d="M104.57 290.43C105.08 273.96 109.93 253.32 120.16 241.16C119.933 258.76 114.509 275.902 104.57 290.43Z" fill="#7432FF"/>
<path d="M101.5 298.6C113.62 287.17 132.04 275.81 148.6 274.33C135.647 286.902 119.255 295.348 101.5 298.6Z" fill="#7432FF"/>
<path d="M93.3105 315.89C106.891 305.13 127.061 295.03 144.501 294.99C129.887 306.878 112.069 314.153 93.3105 315.89Z" fill="#0C88C9"/>
<path d="M83.0996 336.83C96.6796 326.07 116.85 315.97 134.29 315.93C119.676 327.818 101.858 335.093 83.0996 336.83Z" fill="#0C88C9"/>
<path d="M68.8701 360.89C82.4501 350.13 102.63 340.03 120.07 339.99C105.451 351.876 87.6307 359.15 68.8701 360.89Z" fill="#0C88C9"/>
<path d="M106.16 287.44C106.147 287.536 106.12 287.631 106.08 287.72C106 287.92 105.91 288.18 105.8 288.49L104.66 291.49C103.66 294.06 102.16 297.75 100.22 302.28C96.3403 311.34 90.6003 323.69 83.4703 336.93C79.8903 343.55 76.3103 349.75 72.9503 355.34C69.5903 360.93 66.4303 365.82 63.7003 369.89C60.9703 373.96 58.7003 377.28 57.1003 379.52L55.2503 382.09L54.7503 382.75C54.6976 382.826 54.6373 382.896 54.5703 382.96C54.5703 382.96 54.5703 382.87 54.7003 382.71L55.1503 382.02C55.5803 381.37 56.1503 380.49 56.9103 379.38C58.4603 377.11 60.6603 373.79 63.3303 369.66C66.0003 365.53 69.1203 360.55 72.4703 354.98C75.8203 349.41 79.3503 343.18 82.9303 336.57C90.0503 323.35 95.8503 311.04 99.8203 302.04C101.82 297.54 103.38 293.88 104.44 291.33L105.68 288.42L106.02 287.66C106.057 287.581 106.104 287.507 106.16 287.44Z" fill="#263238"/>
<path d="M85.4798 428.05H42.5798L34.5898 368.92H93.7098L85.4798 428.05Z" fill="#263238"/>
<path d="M91.6102 377.58C91.6102 377.73 79.2002 377.84 63.8902 377.84C48.5802 377.84 36.1602 377.73 36.1602 377.58C36.1602 377.43 48.5802 377.32 63.8902 377.32C79.2002 377.32 91.6102 377.44 91.6102 377.58Z" fill="#455A64"/>
<path d="M490.08 0H214.91C208.531 0 203.36 5.17111 203.36 11.55V416.5C203.36 422.879 208.531 428.05 214.91 428.05H490.08C496.459 428.05 501.63 422.879 501.63 416.5V11.55C501.63 5.17111 496.459 0 490.08 0Z" fill="#263238"/>
<path d="M492.08 30.54H212.62V388.01H492.08V30.54Z" fill="white"/>
<path d="M363.941 406.54C363.939 408.802 363.266 411.013 362.008 412.893C360.749 414.773 358.962 416.238 356.872 417.102C354.781 417.966 352.481 418.191 350.263 417.749C348.044 417.306 346.007 416.216 344.408 414.616C342.809 413.015 341.72 410.977 341.28 408.758C340.839 406.539 341.066 404.239 341.932 402.15C342.799 400.06 344.265 398.274 346.146 397.017C348.027 395.761 350.238 395.09 352.501 395.09C354.004 395.09 355.492 395.386 356.881 395.962C358.269 396.537 359.531 397.381 360.593 398.444C361.656 399.507 362.498 400.77 363.073 402.159C363.647 403.548 363.942 405.037 363.941 406.54Z" fill="#455A64"/>
<path d="M396.2 12.3301H308.8C308.126 12.3301 307.58 12.8763 307.58 13.5501V15.8401C307.58 16.5139 308.126 17.0601 308.8 17.0601H396.2C396.874 17.0601 397.42 16.5139 397.42 15.8401V13.5501C397.42 12.8763 396.874 12.3301 396.2 12.3301Z" fill="#455A64"/>
<path d="M301.07 88H238.34C235.8 88 233.74 90.0595 233.74 92.6V155.33C233.74 157.871 235.8 159.93 238.34 159.93H301.07C303.611 159.93 305.67 157.871 305.67 155.33V92.6C305.67 90.0595 303.611 88 301.07 88Z" fill="#0C88C9"/>
<path d="M281.8 112.51H257.48C256.078 112.51 254.94 113.647 254.94 115.05V125.65C254.94 127.053 256.078 128.19 257.48 128.19H281.8C283.203 128.19 284.34 127.053 284.34 125.65V115.05C284.34 113.647 283.203 112.51 281.8 112.51Z" fill="#FAFAFA"/>
<path d="M289.83 119.31H249.57C248.996 119.31 248.53 119.776 248.53 120.35V133.31C248.53 133.884 248.996 134.35 249.57 134.35H289.83C290.405 134.35 290.87 133.884 290.87 133.31V120.35C290.87 119.776 290.405 119.31 289.83 119.31Z" fill="#FAFAFA"/>
<path d="M284.34 119.31C284.586 121.042 284.69 122.791 284.65 124.54V124.84H284.34C280.74 124.93 275.49 124.99 269.64 124.99C263.79 124.99 258.54 124.93 254.94 124.84H254.63V124.54C254.591 122.791 254.694 121.042 254.94 119.31C255.192 121.041 255.296 122.791 255.25 124.54L254.94 124.23C258.54 124.14 263.79 124.08 269.64 124.08C275.49 124.08 280.74 124.14 284.34 124.23L284.03 124.54C283.984 122.791 284.088 121.041 284.34 119.31Z" fill="#263238"/>
<path d="M254.801 134.22C254.541 134.22 254.341 130.96 254.341 126.94C254.341 122.92 254.541 119.67 254.801 119.67C255.061 119.67 255.251 122.92 255.251 126.94C255.251 130.96 255.051 134.22 254.801 134.22Z" fill="#263238"/>
<path d="M284.37 134.35C284.11 134.35 283.91 131.21 283.91 127.35C283.91 123.49 284.11 120.35 284.37 120.35C284.63 120.35 284.82 123.49 284.82 127.35C284.82 131.21 284.62 134.35 284.37 134.35Z" fill="#263238"/>
<path d="M382.44 88H319.71C317.17 88 315.11 90.0595 315.11 92.6V155.33C315.11 157.871 317.17 159.93 319.71 159.93H382.44C384.981 159.93 387.04 157.871 387.04 155.33V92.6C387.04 90.0595 384.981 88 382.44 88Z" fill="#E0E0E0"/>
<path d="M363.18 112.51H338.86C337.457 112.51 336.32 113.647 336.32 115.05V125.65C336.32 127.053 337.457 128.19 338.86 128.19H363.18C364.583 128.19 365.72 127.053 365.72 125.65V115.05C365.72 113.647 364.583 112.51 363.18 112.51Z" fill="#E8505B"/>
<path d="M371.21 119.31H330.95C330.376 119.31 329.91 119.776 329.91 120.35V133.31C329.91 133.884 330.376 134.35 330.95 134.35H371.21C371.785 134.35 372.25 133.884 372.25 133.31V120.35C372.25 119.776 371.785 119.31 371.21 119.31Z" fill="#E8505B"/>
<path d="M365.72 119.31C365.958 121.043 366.059 122.792 366.02 124.54V124.84H365.71C362.11 124.93 356.85 124.99 351.01 124.99C345.17 124.99 339.9 124.93 336.31 124.84H335.99V124.54C335.944 122.791 336.048 121.041 336.3 119.31C336.552 121.041 336.656 122.791 336.61 124.54L336.3 124.23C339.89 124.14 345.15 124.08 351 124.08C356.85 124.08 362.1 124.14 365.7 124.23L365.39 124.54C365.351 122.791 365.461 121.041 365.72 119.31Z" fill="#263238"/>
<path d="M336.17 134.22C335.92 134.22 335.71 130.96 335.71 126.94C335.71 122.92 335.92 119.67 336.17 119.67C336.42 119.67 336.63 122.92 336.63 126.94C336.63 130.96 336.43 134.22 336.17 134.22Z" fill="#263238"/>
<path d="M365.74 134.35C365.49 134.35 365.29 131.21 365.29 127.35C365.29 123.49 365.49 120.35 365.74 120.35C365.99 120.35 366.2 123.49 366.2 127.35C366.2 131.21 366 134.35 365.74 134.35Z" fill="#263238"/>
<path d="M463.82 88H401.09C398.55 88 396.49 90.0595 396.49 92.6V155.33C396.49 157.871 398.55 159.93 401.09 159.93H463.82C466.361 159.93 468.42 157.871 468.42 155.33V92.6C468.42 90.0595 466.361 88 463.82 88Z" fill="#E0E0E0"/>
<path d="M444.56 112.51H420.24C418.837 112.51 417.7 113.647 417.7 115.05V125.65C417.7 127.053 418.837 128.19 420.24 128.19H444.56C445.963 128.19 447.1 127.053 447.1 125.65V115.05C447.1 113.647 445.963 112.51 444.56 112.51Z" fill="#455A64"/>
<path d="M452.59 119.31H412.33C411.756 119.31 411.29 119.776 411.29 120.35V133.31C411.29 133.884 411.756 134.35 412.33 134.35H452.59C453.164 134.35 453.63 133.884 453.63 133.31V120.35C453.63 119.776 453.164 119.31 452.59 119.31Z" fill="#455A64"/>
<path d="M447.09 119.31C447.342 121.041 447.446 122.791 447.4 124.54V124.84H447.08C443.49 124.93 438.23 124.99 432.39 124.99C426.55 124.99 421.28 124.93 417.69 124.84H417.37V124.54C417.324 122.791 417.428 121.041 417.68 119.31C417.926 121.042 418.029 122.791 417.99 124.54L417.68 124.23C421.27 124.14 426.53 124.08 432.38 124.08C438.23 124.08 443.48 124.14 447.07 124.23L446.76 124.54C446.727 122.791 446.837 121.041 447.09 119.31Z" fill="#263238"/>
<path d="M417.551 134.22C417.301 134.22 417.091 130.96 417.091 126.94C417.091 122.92 417.301 119.67 417.551 119.67C417.801 119.67 418.011 122.92 418.011 126.94C418.011 130.96 417.801 134.22 417.551 134.22Z" fill="#263238"/>
<path d="M447.12 134.35C446.87 134.35 446.66 131.21 446.66 127.35C446.66 123.49 446.87 120.35 447.12 120.35C447.37 120.35 447.58 123.49 447.58 127.35C447.58 131.21 447.38 134.35 447.12 134.35Z" fill="#263238"/>
<path d="M301.07 178.5H238.34C235.8 178.5 233.74 180.559 233.74 183.1V245.83C233.74 248.371 235.8 250.43 238.34 250.43H301.07C303.611 250.43 305.67 248.371 305.67 245.83V183.1C305.67 180.559 303.611 178.5 301.07 178.5Z" fill="#E0E0E0"/>
<path d="M254.7 213.21L258.05 224.89L281.05 224.98L284.72 213.8C283.448 213.381 282.104 213.224 280.77 213.34L280.37 200.89C280.364 200.611 280.289 200.338 280.152 200.095C280.015 199.851 279.821 199.646 279.586 199.495C279.35 199.345 279.082 199.255 278.804 199.233C278.525 199.211 278.246 199.258 277.99 199.37L275.75 200.37H262.75L261.26 199.62C261.003 199.49 260.717 199.428 260.429 199.44C260.141 199.452 259.861 199.538 259.616 199.69C259.371 199.841 259.169 200.054 259.03 200.306C258.89 200.558 258.818 200.842 258.82 201.13V213.42C257.477 213.06 256.073 212.989 254.7 213.21Z" fill="#E8505B"/>
<path d="M259.237 224.898L258.027 224.893L257.983 235.522L259.193 235.528L259.237 224.898Z" fill="#263238"/>
<path d="M263.486 224.945L262.276 224.94L262.254 230.37L263.464 230.375L263.486 224.945Z" fill="#263238"/>
<path d="M275.666 224.997L274.456 224.992L274.433 230.422L275.643 230.427L275.666 224.997Z" fill="#263238"/>
<path d="M281.057 224.989L279.847 224.984L279.802 235.614L281.012 235.619L281.057 224.989Z" fill="#263238"/>
<path d="M262.92 218.16C262.83 218.16 262.77 214.16 262.79 209.27C262.81 204.38 262.91 200.38 263 200.38C263.09 200.38 263.15 204.38 263.13 209.27C263.11 214.16 263.01 218.16 262.92 218.16Z" fill="#263238"/>
<path d="M275.9 218.22C275.81 218.22 275.75 214.22 275.77 209.33C275.79 204.44 275.89 200.44 275.98 200.44C276.07 200.44 276.13 204.44 276.11 209.33C276.09 214.22 276 218.22 275.9 218.22Z" fill="#263238"/>
<path d="M280.75 213.35C280.56 213.431 280.363 213.491 280.16 213.53L279.83 213.61L279.46 213.75L279.02 213.91L278.56 214.16C277.796 214.594 277.166 215.231 276.74 216C276.214 216.994 275.992 218.12 276.1 219.24V219.41H269.8L262.91 219.36H262.77V219.22C262.756 218.169 262.482 217.138 261.97 216.22C261.591 215.528 261.094 214.909 260.5 214.39C259.949 213.945 259.348 213.566 258.71 213.26C258.896 213.3 259.077 213.36 259.25 213.44C259.738 213.65 260.196 213.926 260.61 214.26C261.258 214.777 261.804 215.412 262.22 216.13C262.771 217.061 263.074 218.118 263.1 219.2L262.95 219.06H269.84H275.98L275.83 219.23C275.726 218.075 275.959 216.915 276.5 215.89C276.974 215.088 277.668 214.439 278.5 214.02L278.98 213.79L279.43 213.64L279.82 213.51L280.15 213.45C280.347 213.399 280.547 213.366 280.75 213.35Z" fill="#263238"/>
<path d="M262.671 219.28C262.671 219.33 262.241 219.41 261.601 219.7C260.775 220.073 260.054 220.643 259.501 221.36C258.974 222.095 258.631 222.945 258.501 223.84C258.481 224.222 258.441 224.602 258.381 224.98C258.249 224.605 258.211 224.203 258.271 223.81C258.35 222.851 258.697 221.933 259.271 221.16C259.859 220.394 260.654 219.812 261.561 219.48C261.908 219.322 262.29 219.253 262.671 219.28Z" fill="#263238"/>
<path d="M280.8 225.24C280.75 225.24 280.74 224.75 280.55 223.99C280.308 223.01 279.843 222.1 279.19 221.33C278.53 220.571 277.706 219.973 276.78 219.58C276.06 219.28 275.58 219.2 275.59 219.15C276.025 219.119 276.461 219.194 276.86 219.37C277.864 219.71 278.757 220.313 279.447 221.117C280.137 221.921 280.597 222.896 280.78 223.94C280.893 224.365 280.9 224.812 280.8 225.24Z" fill="#263238"/>
<path d="M382.44 178.5H319.71C317.17 178.5 315.11 180.559 315.11 183.1V245.83C315.11 248.371 317.17 250.43 319.71 250.43H382.44C384.981 250.43 387.04 248.371 387.04 245.83V183.1C387.04 180.559 384.981 178.5 382.44 178.5Z" fill="#E0E0E0"/>
<path d="M463.82 178.5H401.09C398.55 178.5 396.49 180.559 396.49 183.1V245.83C396.49 248.371 398.55 250.43 401.09 250.43H463.82C466.361 250.43 468.42 248.371 468.42 245.83V183.1C468.42 180.559 466.361 178.5 463.82 178.5Z" fill="#0C88C9"/>
<path d="M301.07 269H238.34C235.8 269 233.74 271.059 233.74 273.6V336.33C233.74 338.87 235.8 340.93 238.34 340.93H301.07C303.611 340.93 305.67 338.87 305.67 336.33V273.6C305.67 271.059 303.611 269 301.07 269Z" fill="#0C88C9"/>
<path d="M382.44 269H319.71C317.17 269 315.11 271.059 315.11 273.6V336.33C315.11 338.87 317.17 340.93 319.71 340.93H382.44C384.981 340.93 387.04 338.87 387.04 336.33V273.6C387.04 271.059 384.981 269 382.44 269Z" fill="#E0E0E0"/>
<path d="M463.82 269H401.09C398.55 269 396.49 271.059 396.49 273.6V336.33C396.49 338.87 398.55 340.93 401.09 340.93H463.82C466.361 340.93 468.42 338.87 468.42 336.33V273.6C468.42 271.059 466.361 269 463.82 269Z" fill="#E0E0E0"/>
<path d="M342.091 364.67C343.516 364.67 344.671 363.515 344.671 362.09C344.671 360.665 343.516 359.51 342.091 359.51C340.666 359.51 339.511 360.665 339.511 362.09C339.511 363.515 340.666 364.67 342.091 364.67Z" fill="#263238"/>
<path d="M355.08 362.09C355.078 362.6 354.925 363.098 354.64 363.521C354.356 363.944 353.952 364.273 353.48 364.466C353.009 364.66 352.49 364.71 351.99 364.609C351.491 364.509 351.032 364.262 350.672 363.901C350.312 363.54 350.068 363.08 349.969 362.58C349.87 362.079 349.922 361.561 350.117 361.09C350.313 360.62 350.644 360.217 351.068 359.934C351.492 359.651 351.99 359.5 352.5 359.5C352.84 359.5 353.176 359.567 353.49 359.697C353.803 359.828 354.088 360.019 354.328 360.259C354.567 360.5 354.757 360.785 354.886 361.1C355.015 361.414 355.081 361.75 355.08 362.09Z" fill="#263238"/>
<path d="M365.5 362.09C365.5 362.603 365.348 363.104 365.063 363.53C364.778 363.956 364.373 364.288 363.899 364.484C363.425 364.68 362.904 364.73 362.401 364.63C361.899 364.529 361.437 364.281 361.075 363.918C360.714 363.555 360.468 363.092 360.369 362.589C360.27 362.086 360.323 361.565 360.52 361.092C360.718 360.619 361.051 360.215 361.479 359.932C361.906 359.648 362.408 359.498 362.92 359.5C363.606 359.503 364.262 359.777 364.745 360.262C365.229 360.748 365.5 361.405 365.5 362.09Z" fill="#263238"/>
<path d="M250.251 60.4902H237.091C236.958 60.4902 236.831 60.4376 236.737 60.3438C236.644 60.25 236.591 60.1228 236.591 59.9902C236.591 59.8576 236.644 59.7304 236.737 59.6367C236.831 59.5429 236.958 59.4902 237.091 59.4902H250.251C250.383 59.4902 250.511 59.5429 250.604 59.6367C250.698 59.7304 250.751 59.8576 250.751 59.9902C250.751 60.1228 250.698 60.25 250.604 60.3438C250.511 60.4376 250.383 60.4902 250.251 60.4902Z" fill="#263238"/>
<path d="M242.2 64.7C242.097 64.6995 241.996 64.6682 241.91 64.61L236 60.4C235.932 60.3553 235.877 60.2944 235.839 60.2228C235.8 60.1512 235.78 60.0712 235.78 59.99C235.785 59.9097 235.807 59.8314 235.845 59.7606C235.883 59.6898 235.936 59.6281 236 59.58L242.09 55.43C242.143 55.3835 242.206 55.3489 242.274 55.3283C242.341 55.3077 242.412 55.3017 242.482 55.3107C242.553 55.3196 242.62 55.3433 242.68 55.3802C242.74 55.4171 242.792 55.4663 242.832 55.5247C242.872 55.583 242.899 55.6491 242.911 55.7187C242.924 55.7882 242.921 55.8596 242.904 55.9282C242.887 55.9967 242.855 56.0608 242.812 56.1163C242.768 56.1718 242.713 56.2173 242.65 56.25L237.16 60L242.5 63.79C242.588 63.8511 242.653 63.9386 242.688 64.0397C242.722 64.1408 242.723 64.2501 242.691 64.3518C242.658 64.4535 242.594 64.5422 242.508 64.6048C242.421 64.6675 242.317 64.7008 242.21 64.7H242.2Z" fill="#263238"/>
<path d="M462.81 60.54H449.65C449.518 60.54 449.391 60.4874 449.297 60.3936C449.203 60.2998 449.15 60.1726 449.15 60.04C449.15 59.9074 449.203 59.7803 449.297 59.6865C449.391 59.5927 449.518 59.54 449.65 59.54H462.81C462.943 59.54 463.07 59.5927 463.164 59.6865C463.258 59.7803 463.31 59.9074 463.31 60.04C463.31 60.1726 463.258 60.2998 463.164 60.3936C463.07 60.4874 462.943 60.54 462.81 60.54Z" fill="#263238"/>
<path d="M457.5 64.7C457.418 64.6992 457.337 64.6789 457.264 64.6406C457.191 64.6024 457.128 64.5473 457.08 64.48C457.01 64.3702 456.984 64.2374 457.008 64.109C457.032 63.9807 457.105 63.8665 457.21 63.79L462.71 60.03L457.38 56.25C457.273 56.1718 457.201 56.055 457.179 55.9243C457.156 55.7936 457.186 55.6594 457.26 55.55C457.298 55.4959 457.347 55.4499 457.402 55.4145C457.458 55.3792 457.52 55.3553 457.585 55.3441C457.651 55.3329 457.717 55.3348 457.782 55.3495C457.846 55.3643 457.907 55.3916 457.96 55.43L463.87 59.64C463.939 59.6831 463.995 59.7439 464.032 59.8161C464.069 59.8882 464.086 59.9691 464.08 60.05C464.079 60.1299 464.06 60.2084 464.023 60.2795C463.987 60.3506 463.935 60.4124 463.87 60.46L457.78 64.61C457.698 64.6668 457.601 64.6981 457.5 64.7Z" fill="#263238"/>
<path d="M284.088 297.584L259.198 297.628C257.878 297.63 256.809 298.702 256.812 300.022L256.838 315.062C256.84 316.382 257.912 317.45 259.232 317.448L284.122 317.404C285.442 317.402 286.51 316.33 286.508 315.01L286.482 299.97C286.479 298.65 285.408 297.582 284.088 297.584Z" fill="#E0E0E0"/>
<path d="M278.391 301.27C278.378 301.144 278.378 301.016 278.391 300.89C278.391 300.597 278.411 300.237 278.451 299.81C278.561 298.479 278.561 297.141 278.451 295.81C278.288 293.862 277.491 292.021 276.181 290.57C275.383 289.754 274.365 289.188 273.251 288.94C272.036 288.698 270.799 288.594 269.561 288.63C267.041 288.63 264.561 289.15 262.841 290.55C262.041 291.208 261.41 292.048 261.001 293C260.645 293.832 260.413 294.711 260.311 295.61C260.176 296.94 260.176 298.28 260.311 299.61C260.351 300.05 260.381 300.41 260.401 300.69C260.401 300.94 260.401 301.07 260.401 301.07C260.359 300.95 260.332 300.826 260.321 300.7C260.321 300.46 260.231 300.09 260.171 299.63C259.982 298.305 259.942 296.964 260.051 295.63C260.144 294.702 260.374 293.792 260.731 292.93C261.142 291.929 261.791 291.044 262.621 290.35C263.552 289.604 264.633 289.069 265.791 288.78C267.021 288.477 268.284 288.326 269.551 288.33C270.816 288.294 272.08 288.401 273.321 288.65C274.495 288.917 275.566 289.522 276.401 290.39C277.749 291.898 278.555 293.812 278.691 295.83C278.794 297.163 278.767 298.502 278.611 299.83C278.611 300.3 278.521 300.66 278.491 300.9C278.467 301.026 278.434 301.15 278.391 301.27Z" fill="#263238"/>
<path d="M280.338 297.481L255.448 297.524C254.128 297.526 253.059 298.598 253.062 299.918L253.088 314.958C253.09 316.278 254.162 317.346 255.482 317.344L280.372 317.301C281.692 317.298 282.76 316.226 282.758 314.907L282.732 299.867C282.729 298.547 281.658 297.478 280.338 297.481Z" fill="#FAFAFA"/>
<path d="M280.35 317.32C280.67 317.291 280.984 317.213 281.28 317.09C281.631 316.935 281.937 316.694 282.17 316.39C282.495 315.98 282.671 315.473 282.67 314.95C282.67 312.53 282.67 309.06 282.6 304.78C282.6 303.71 282.6 302.58 282.6 301.41C282.6 300.83 282.6 300.21 282.6 299.64C282.534 299.052 282.239 298.513 281.78 298.14C281.292 297.76 280.675 297.585 280.06 297.65H278.06H273.91H255.45C255.07 297.652 254.696 297.751 254.365 297.938C254.034 298.125 253.757 298.395 253.56 298.72C253.36 299.038 253.25 299.404 253.24 299.78C253.24 300.18 253.24 300.57 253.24 300.97C253.24 302.57 253.24 304.14 253.24 305.68V314.59C253.22 314.927 253.257 315.265 253.35 315.59C253.452 315.896 253.616 316.179 253.83 316.42C254.045 316.658 254.31 316.847 254.605 316.973C254.9 317.099 255.219 317.159 255.54 317.15H266.5H276.66L266.5 317.23H259.5H255.5C255.135 317.241 254.772 317.174 254.436 317.033C254.099 316.891 253.797 316.679 253.55 316.41C253.297 316.139 253.109 315.814 253 315.46C252.894 315.107 252.85 314.738 252.87 314.37C252.87 311.53 252.87 308.55 252.87 305.46C252.87 303.92 252.87 302.35 252.87 300.75C252.87 300.35 252.87 299.96 252.87 299.54C252.886 299.108 253.013 298.688 253.24 298.32C253.469 297.945 253.791 297.635 254.175 297.419C254.558 297.204 254.99 297.091 255.43 297.09H273.89H280.02C280.703 297.028 281.384 297.232 281.92 297.66C282.176 297.867 282.388 298.124 282.545 298.414C282.701 298.704 282.798 299.022 282.83 299.35C282.83 299.98 282.83 300.56 282.83 301.15C282.83 302.32 282.83 303.45 282.83 304.52C282.83 308.8 282.83 312.27 282.83 314.69C282.821 315.241 282.627 315.772 282.28 316.2C282.026 316.508 281.7 316.749 281.33 316.9C281.051 317.131 280.71 317.277 280.35 317.32Z" fill="#263238"/>
<path d="M364.808 297.573L339.918 297.617C338.598 297.619 337.53 298.691 337.532 300.011L337.559 315.051C337.561 316.371 338.633 317.439 339.953 317.437L364.843 317.393C366.163 317.391 367.231 316.319 367.229 314.999L367.202 299.959C367.2 298.639 366.128 297.571 364.808 297.573Z" fill="#E8505B"/>
<path d="M359.111 301.27C359.097 301.144 359.097 301.016 359.111 300.89C359.111 300.597 359.131 300.237 359.171 299.81C359.281 298.479 359.281 297.141 359.171 295.81C359.008 293.862 358.21 292.021 356.901 290.57C356.102 289.754 355.084 289.188 353.971 288.94C352.756 288.698 351.518 288.594 350.281 288.63C347.761 288.63 345.281 289.15 343.561 290.55C342.761 291.208 342.13 292.048 341.721 293C341.365 293.832 341.132 294.711 341.031 295.61C340.895 296.94 340.895 298.28 341.031 299.61C341.071 300.05 341.101 300.41 341.121 300.69C341.121 300.94 341.121 301.07 341.121 301.07C341.079 300.95 341.052 300.826 341.041 300.7C341.041 300.46 340.951 300.09 340.891 299.63C340.702 298.305 340.662 296.964 340.771 295.63C340.864 294.702 341.093 293.792 341.451 292.93C341.862 291.929 342.51 291.044 343.341 290.35C344.272 289.604 345.353 289.069 346.511 288.78C347.741 288.477 349.004 288.326 350.271 288.33C351.535 288.294 352.8 288.401 354.041 288.65C355.215 288.917 356.286 289.522 357.121 290.39C358.468 291.898 359.274 293.812 359.411 295.83C359.514 297.163 359.487 298.502 359.331 299.83C359.331 300.3 359.241 300.66 359.211 300.9C359.193 301.027 359.16 301.152 359.111 301.27Z" fill="#263238"/>
<path d="M361.057 297.48L336.167 297.524C334.847 297.526 333.779 298.598 333.782 299.918L333.808 314.958C333.81 316.278 334.882 317.346 336.202 317.344L361.092 317.3C362.412 317.298 363.48 316.226 363.478 314.906L363.451 299.866C363.449 298.546 362.377 297.478 361.057 297.48Z" fill="#E8505B"/>
<path d="M361.071 317.32C361.391 317.291 361.704 317.213 362.001 317.09C362.352 316.935 362.658 316.694 362.891 316.39C363.216 315.98 363.392 315.473 363.391 314.95C363.391 312.53 363.391 309.06 363.321 304.78C363.321 303.71 363.321 302.58 363.321 301.41C363.321 300.83 363.321 300.21 363.321 299.64C363.254 299.052 362.96 298.513 362.501 298.14C362.012 297.76 361.396 297.585 360.781 297.65H358.781H354.631H336.171C335.79 297.652 335.417 297.751 335.086 297.938C334.755 298.125 334.478 298.395 334.281 298.72C334.081 299.038 333.97 299.404 333.961 299.78C333.961 300.18 333.961 300.57 333.961 300.97C333.961 302.57 333.961 304.14 333.961 305.68V314.59C333.941 314.927 333.978 315.265 334.071 315.59C334.173 315.896 334.336 316.179 334.551 316.42C334.768 316.659 335.034 316.848 335.331 316.974C335.628 317.1 335.948 317.16 336.271 317.15H347.201H357.371L347.201 317.23H340.201H336.291C335.926 317.241 335.563 317.174 335.226 317.033C334.89 316.891 334.588 316.679 334.341 316.41C334.088 316.139 333.9 315.814 333.791 315.46C333.687 315.107 333.647 314.738 333.671 314.37C333.671 311.53 333.671 308.55 333.671 305.46C333.671 303.92 333.671 302.35 333.671 300.75C333.671 300.35 333.671 299.96 333.671 299.54C333.686 299.108 333.814 298.688 334.041 298.32C334.27 297.945 334.592 297.635 334.975 297.419C335.359 297.204 335.791 297.091 336.231 297.09H354.691H360.821C361.504 297.028 362.185 297.232 362.721 297.66C363.237 298.081 363.568 298.688 363.641 299.35C363.641 299.98 363.641 300.56 363.641 301.15C363.641 302.32 363.641 303.45 363.641 304.52C363.641 308.8 363.641 312.27 363.641 314.69C363.637 315.165 363.492 315.629 363.225 316.022C362.958 316.415 362.581 316.721 362.141 316.9C361.836 317.148 361.462 317.294 361.071 317.32Z" fill="#263238"/>
<path d="M448.728 297.567L423.838 297.611C422.518 297.613 421.45 298.685 421.452 300.005L421.479 315.045C421.481 316.365 422.553 317.433 423.873 317.431L448.763 317.387C450.083 317.385 451.151 316.313 451.149 314.993L451.122 299.953C451.12 298.633 450.048 297.565 448.728 297.567Z" fill="#455A64"/>
<path d="M443.03 301.27C443.017 301.144 443.017 301.016 443.03 300.89C443.03 300.597 443.05 300.237 443.09 299.81C443.2 298.479 443.2 297.141 443.09 295.81C442.923 293.863 442.126 292.024 440.82 290.57C440.022 289.754 439.004 289.188 437.89 288.94C436.676 288.698 435.438 288.594 434.2 288.63C431.67 288.63 429.2 289.15 427.47 290.55C426.677 291.212 426.05 292.051 425.64 293C425.285 293.832 425.052 294.711 424.95 295.61C424.815 296.94 424.815 298.28 424.95 299.61C424.99 300.05 425.02 300.41 425.04 300.69C425.056 300.816 425.056 300.944 425.04 301.07C424.999 300.95 424.972 300.826 424.96 300.7C424.96 300.46 424.87 300.09 424.81 299.63C424.622 298.305 424.582 296.964 424.69 295.63C424.779 294.701 425.009 293.79 425.37 292.93C425.778 291.927 426.427 291.041 427.26 290.35C428.192 289.604 429.273 289.069 430.43 288.78C431.661 288.476 432.923 288.325 434.19 288.33C435.455 288.294 436.72 288.401 437.96 288.65C439.134 288.919 440.204 289.524 441.04 290.39C442.39 291.896 443.193 293.812 443.32 295.83C443.431 297.162 443.408 298.502 443.25 299.83C443.25 300.3 443.16 300.66 443.13 300.9C443.107 301.026 443.074 301.15 443.03 301.27Z" fill="#263238"/>
<path d="M444.977 297.473L420.087 297.517C418.767 297.519 417.699 298.591 417.701 299.911L417.728 314.951C417.73 316.271 418.802 317.339 420.122 317.337L445.012 317.293C446.332 317.291 447.4 316.219 447.398 314.899L447.371 299.859C447.369 298.539 446.297 297.471 444.977 297.473Z" fill="#455A64"/>
<path d="M444.99 317.32C445.31 317.291 445.624 317.213 445.92 317.09C446.271 316.935 446.577 316.694 446.81 316.39C447.135 315.98 447.311 315.473 447.31 314.95C447.31 312.53 447.31 309.06 447.24 304.78C447.24 303.71 447.24 302.58 447.24 301.41C447.24 300.83 447.24 300.21 447.24 299.64C447.173 299.05 446.875 298.51 446.41 298.14C445.926 297.759 445.312 297.583 444.7 297.65H442.7H438.55H420.09C419.71 297.652 419.336 297.751 419.005 297.938C418.675 298.125 418.397 298.395 418.2 298.72C418 299.038 417.89 299.404 417.88 299.78C417.88 300.18 417.88 300.57 417.88 300.97C417.88 302.57 417.88 304.14 417.88 305.68V314.59C417.86 314.927 417.898 315.265 417.99 315.59C418.088 315.898 418.252 316.181 418.47 316.42C418.685 316.659 418.949 316.848 419.245 316.974C419.54 317.1 419.859 317.16 420.18 317.15H431.1H441.26L431.1 317.23H424.1H420.18C419.817 317.241 419.456 317.173 419.121 317.031C418.786 316.89 418.486 316.678 418.24 316.41C417.988 316.137 417.797 315.813 417.68 315.46C417.582 315.106 417.541 314.737 417.56 314.37C417.56 311.53 417.56 308.55 417.56 305.46C417.56 303.92 417.56 302.35 417.56 300.75C417.56 300.35 417.56 299.96 417.56 299.54C417.576 299.108 417.703 298.688 417.93 298.32C418.158 297.946 418.478 297.636 418.86 297.42C419.241 297.205 419.672 297.091 420.11 297.09H438.58H444.71C445.393 297.028 446.074 297.232 446.61 297.66C446.866 297.867 447.078 298.124 447.235 298.414C447.391 298.704 447.488 299.022 447.52 299.35C447.52 299.98 447.52 300.56 447.52 301.15C447.52 302.32 447.52 303.45 447.52 304.52C447.52 308.8 447.52 312.27 447.52 314.69C447.511 315.241 447.317 315.772 446.97 316.2C446.716 316.508 446.39 316.749 446.02 316.9C445.727 317.14 445.368 317.286 444.99 317.32Z" fill="#263238"/>
<path d="M337.5 215.17L340.85 226.89L363.85 226.99L367.5 215.77C366.228 215.351 364.884 215.198 363.55 215.32L363.17 202.89C363.161 202.612 363.085 202.34 362.948 202.098C362.81 201.856 362.616 201.652 362.381 201.502C362.147 201.352 361.879 201.262 361.602 201.239C361.325 201.216 361.046 201.261 360.79 201.37L358.55 202.37L345.55 202.31L344.06 201.56C343.803 201.43 343.517 201.368 343.229 201.38C342.941 201.392 342.661 201.478 342.416 201.63C342.171 201.781 341.969 201.993 341.83 202.246C341.69 202.498 341.618 202.782 341.62 203.07V215.37C340.277 215.009 338.872 214.941 337.5 215.17Z" fill="#455A64"/>
<path d="M342.038 226.864L340.828 226.859L340.784 237.489L341.994 237.494L342.038 226.864Z" fill="#263238"/>
<path d="M346.308 226.872L345.098 226.867L345.075 232.297L346.285 232.302L346.308 226.872Z" fill="#263238"/>
<path d="M358.468 226.953L357.258 226.948L357.235 232.378L358.445 232.383L358.468 226.953Z" fill="#263238"/>
<path d="M363.837 226.986L362.627 226.981L362.582 237.611L363.792 237.616L363.837 226.986Z" fill="#263238"/>
<path d="M345.721 220.13C345.631 220.13 345.571 216.13 345.591 211.24C345.611 206.35 345.701 202.35 345.801 202.35C345.901 202.35 345.941 206.35 345.921 211.24C345.901 216.13 345.811 220.13 345.721 220.13Z" fill="#263238"/>
<path d="M358.7 220.18C358.61 220.18 358.55 216.18 358.57 211.29C358.59 206.4 358.68 202.4 358.78 202.4C358.88 202.4 358.93 206.4 358.9 211.29C358.87 216.18 358.79 220.18 358.7 220.18Z" fill="#263238"/>
<path d="M363.55 215.32C363.354 215.389 363.154 215.446 362.95 215.49L362.63 215.57L362.25 215.72L361.82 215.88L361.36 216.13C360.595 216.558 359.964 217.192 359.54 217.96C359.015 218.958 358.792 220.087 358.9 221.21V221.37H352.6H345.71H345.57V221.23C345.564 220.179 345.292 219.148 344.78 218.23C344.393 217.527 343.881 216.9 343.27 216.38C342.72 215.935 342.119 215.556 341.48 215.25C341.663 215.288 341.84 215.345 342.01 215.42C342.501 215.632 342.962 215.908 343.38 216.24C344.029 216.761 344.575 217.399 344.99 218.12C345.537 219.053 345.84 220.109 345.87 221.19L345.72 221.04H352.61H358.75L358.6 221.21C358.5 220.03 358.75 218.848 359.32 217.81C359.78 217.015 360.456 216.366 361.27 215.94L361.76 215.7L362.21 215.55L362.6 215.43L362.93 215.37C363.134 215.329 363.343 215.312 363.55 215.32Z" fill="#263238"/>
<path d="M345.5 221.24C345.5 221.3 345.07 221.38 344.43 221.67C343.599 222.038 342.875 222.611 342.326 223.335C341.777 224.059 341.42 224.911 341.29 225.81C341.269 226.192 341.229 226.572 341.17 226.95C341.041 226.574 341.003 226.173 341.06 225.78C341.131 224.819 341.478 223.898 342.06 223.13C342.647 222.367 343.437 221.785 344.34 221.45C344.704 221.286 345.102 221.214 345.5 221.24Z" fill="#263238"/>
<path d="M363.6 227.2C363.55 227.2 363.54 226.71 363.35 225.96C363.11 224.98 362.645 224.069 361.99 223.3C361.328 222.539 360.5 221.94 359.57 221.55C358.86 221.25 358.37 221.16 358.38 221.11C358.818 221.078 359.258 221.154 359.66 221.33C360.663 221.674 361.555 222.281 362.244 223.086C362.934 223.891 363.395 224.866 363.58 225.91C363.693 226.332 363.7 226.775 363.6 227.2Z" fill="#263238"/>
<path d="M419.141 212.1L422.501 223.79L445.501 223.89L449.171 212.7C447.899 212.281 446.555 212.124 445.221 212.24L444.851 199.82C444.843 199.541 444.766 199.267 444.628 199.024C444.49 198.781 444.295 198.576 444.059 198.426C443.823 198.276 443.554 198.186 443.275 198.164C442.997 198.142 442.717 198.189 442.461 198.3L440.221 199.3L427.271 199.25L425.781 198.5C425.523 198.367 425.236 198.303 424.947 198.314C424.657 198.325 424.376 198.411 424.129 198.563C423.883 198.715 423.679 198.928 423.54 199.181C423.4 199.435 423.328 199.72 423.331 200.01V212.3C421.964 211.934 420.535 211.865 419.141 212.1Z" fill="#FAFAFA"/>
<path d="M423.68 223.786L422.47 223.781L422.425 234.411L423.635 234.416L423.68 223.786Z" fill="#263238"/>
<path d="M427.95 223.804L426.74 223.799L426.717 229.229L427.927 229.234L427.95 223.804Z" fill="#263238"/>
<path d="M440.13 223.856L438.92 223.851L438.897 229.281L440.107 229.286L440.13 223.856Z" fill="#263238"/>
<path d="M445.47 223.918L444.26 223.913L444.215 234.543L445.425 234.548L445.47 223.918Z" fill="#263238"/>
<path d="M427.361 217.05C427.271 217.05 427.221 213.05 427.241 208.16C427.261 203.27 427.351 199.28 427.441 199.28C427.531 199.28 427.591 203.28 427.571 208.17C427.551 213.06 427.501 217.05 427.361 217.05Z" fill="#263238"/>
<path d="M440.35 217.11C440.25 217.11 440.2 213.11 440.22 208.22C440.24 203.33 440.33 199.33 440.42 199.33C440.51 199.33 440.57 203.33 440.55 208.22C440.53 213.11 440.44 217.11 440.35 217.11Z" fill="#263238"/>
<path d="M445.191 212.24C445.002 212.323 444.804 212.384 444.601 212.42L444.271 212.5L443.901 212.64L443.461 212.8L443.001 213.05C442.237 213.485 441.607 214.121 441.181 214.89C440.656 215.885 440.433 217.011 440.541 218.13V218.3H434.231H427.341H427.201V218.16C427.192 217.109 426.917 216.076 426.401 215.16C426.013 214.454 425.502 213.824 424.891 213.3C424.343 212.853 423.742 212.477 423.101 212.18C423.289 212.203 423.473 212.261 423.641 212.35C424.129 212.561 424.586 212.837 425.001 213.17C425.647 213.69 426.192 214.324 426.611 215.04C427.159 215.973 427.461 217.029 427.491 218.11L427.341 217.97H434.231H440.371L440.221 218.14C440.117 216.956 440.372 215.768 440.951 214.73C441.405 213.933 442.083 213.287 442.901 212.87L443.381 212.63L443.831 212.48L444.221 212.36L444.561 212.3C444.769 212.266 444.979 212.246 445.191 212.24Z" fill="#263238"/>
<path d="M427.11 218.17C427.11 218.22 426.68 218.3 426.05 218.59C425.218 218.957 424.494 219.53 423.945 220.254C423.395 220.978 423.039 221.83 422.91 222.73C422.8 223.42 422.84 223.87 422.79 223.87C422.646 223.501 422.604 223.1 422.67 222.71C422.744 221.746 423.091 220.824 423.67 220.05C424.251 219.283 425.043 218.702 425.95 218.38C426.311 218.208 426.711 218.136 427.11 218.17Z" fill="#263238"/>
<path d="M445.24 224.13C445.19 224.13 445.18 223.64 444.99 222.88C444.756 221.9 444.292 220.99 443.637 220.225C442.981 219.46 442.153 218.862 441.22 218.48C440.5 218.17 440.02 218.09 440.03 218.04C440.465 218.009 440.901 218.084 441.3 218.26C442.305 218.602 443.199 219.206 443.89 220.01C444.575 220.817 445.033 221.789 445.22 222.83C445.333 223.255 445.34 223.702 445.24 224.13Z" fill="#263238"/>
<path d="M317.501 59.4201C317.491 58.8759 317.595 58.3357 317.804 57.8335C318.014 57.3313 318.326 56.8781 318.719 56.5022C319.113 56.1264 319.58 55.8363 320.092 55.65C320.603 55.4638 321.147 55.3855 321.691 55.4201C322.31 55.3902 322.928 55.5048 323.495 55.7547C324.063 56.0046 324.564 56.383 324.961 56.8601L323.591 58.1001C323.382 57.8233 323.111 57.5988 322.8 57.4443C322.49 57.2899 322.147 57.2097 321.801 57.2101C321.249 57.2475 320.733 57.4929 320.355 57.8967C319.978 58.3005 319.768 58.8325 319.768 59.3851C319.768 59.9377 319.978 60.4697 320.355 60.8735C320.733 61.2773 321.249 61.5227 321.801 61.5601C322.147 61.5582 322.489 61.477 322.799 61.3227C323.109 61.1685 323.38 60.9452 323.591 60.6701L324.961 61.9101C324.563 62.3853 324.061 62.7619 323.494 63.01C322.926 63.2582 322.309 63.3712 321.691 63.3401C321.154 63.3742 320.617 63.2982 320.111 63.1168C319.605 62.9354 319.141 62.6524 318.749 62.2852C318.356 61.918 318.043 61.4744 317.828 60.9817C317.614 60.489 317.502 59.9575 317.501 59.4201Z" fill="#263238"/>
<path d="M330.92 61.7499H327.7L327.1 63.2299H324.9L328.27 55.6099H330.39L333.76 63.2299H331.5L330.92 61.7499ZM330.29 60.1599L329.29 57.7299L328.29 60.1599H330.29Z" fill="#263238"/>
<path d="M335.611 57.3199H333.271V55.6099H340.091V57.3199H337.761V63.2299H335.611V57.3199Z" fill="#263238"/>
<path d="M345.621 61.7499H342.401L341.801 63.2299H339.601L342.961 55.6099H345.081L348.461 63.2299H346.221L345.621 61.7499ZM344.991 60.1599L343.991 57.7299L342.991 60.1599H344.991Z" fill="#263238"/>
<path d="M349.07 55.6099H351.22V61.5199H354.85V63.2299H349.07V55.6099Z" fill="#263238"/>
<path d="M355.19 59.4199C355.142 58.5723 355.35 57.7298 355.786 57.0015C356.222 56.2732 356.867 55.6925 357.637 55.3348C358.407 54.977 359.266 54.8586 360.104 54.9949C360.942 55.1312 361.72 55.5159 362.337 56.0992C362.954 56.6825 363.381 57.4376 363.564 58.2666C363.747 59.0956 363.677 59.9605 363.363 60.7491C363.048 61.5378 362.505 62.214 361.802 62.6902C361.099 63.1664 360.269 63.4206 359.42 63.4199C358.876 63.4513 358.331 63.371 357.819 63.1841C357.307 62.9972 356.838 62.7075 356.442 62.3329C356.046 61.9583 355.731 61.5067 355.515 61.0057C355.3 60.5048 355.189 59.9652 355.19 59.4199ZM361.48 59.4199C361.457 59.0185 361.317 58.6326 361.076 58.31C360.836 57.9874 360.507 57.7421 360.129 57.6044C359.751 57.4667 359.341 57.4427 358.95 57.5352C358.559 57.6277 358.203 57.8328 357.927 58.1251C357.65 58.4174 357.466 58.7842 357.396 59.1802C357.325 59.5761 357.373 59.984 357.531 60.3535C357.69 60.723 357.954 61.0379 358.289 61.2594C358.625 61.4809 359.018 61.5993 359.42 61.5999C359.706 61.6125 359.99 61.564 360.255 61.4575C360.52 61.351 360.759 61.189 360.956 60.9825C361.153 60.776 361.303 60.5297 361.397 60.2602C361.491 59.9907 361.526 59.7042 361.5 59.4199H361.48Z" fill="#263238"/>
<path d="M369.89 59.2599H371.79V62.4098C370.851 63.0616 369.734 63.4105 368.59 63.4098C368.023 63.487 367.445 63.4413 366.897 63.2759C366.348 63.1104 365.842 62.8291 365.411 62.4508C364.981 62.0726 364.637 61.6064 364.402 61.0837C364.168 60.5609 364.048 59.9939 364.052 59.421C364.055 58.8481 364.182 58.2827 364.423 57.763C364.664 57.2432 365.014 56.7814 365.449 56.4086C365.884 56.0359 366.395 55.761 366.945 55.6024C367.496 55.4439 368.074 55.4055 368.64 55.4898C369.264 55.4581 369.887 55.5665 370.463 55.807C371.039 56.0475 371.554 56.4141 371.97 56.8798L370.6 58.1199C370.372 57.8536 370.088 57.6405 369.768 57.4954C369.449 57.3503 369.101 57.2767 368.75 57.2798C368.199 57.3173 367.683 57.5627 367.305 57.9664C366.928 58.3702 366.718 58.9022 366.718 59.4549C366.718 60.0075 366.928 60.5395 367.305 60.9433C367.683 61.347 368.199 61.5924 368.75 61.6298C369.154 61.6318 369.553 61.5465 369.92 61.3798L369.89 59.2599Z" fill="#263238"/>
<path d="M373.101 59.8902V55.6602H375.251V59.8202C375.251 61.1302 375.791 61.6502 376.701 61.6502C377.611 61.6502 378.131 61.1302 378.131 59.8202V55.6602H380.261V59.8902C380.261 60.8396 379.883 61.7502 379.212 62.4216C378.541 63.093 377.63 63.4702 376.681 63.4702C375.731 63.4702 374.821 63.093 374.149 62.4216C373.478 61.7502 373.101 60.8396 373.101 59.8902Z" fill="#263238"/>
<path d="M387.83 61.5699V63.2299H381.71V55.6099H387.71V57.2799H383.86V58.5599H387.25V60.1699H383.86V61.5699H387.83Z" fill="#263238"/>
<path d="M393.7 69.22C393.7 69.36 375.35 69.48 352.7 69.48C330.05 69.48 311.7 69.36 311.7 69.22C311.7 69.08 330.05 68.96 352.7 68.96C375.35 68.96 393.7 69.07 393.7 69.22Z" fill="#E0E0E0"/>
<path d="M366.17 72.5398C366.17 72.6798 360.17 72.7998 352.71 72.7998C345.25 72.7998 339.25 72.6798 339.25 72.5398C339.25 72.3998 345.25 72.2798 352.71 72.2798C360.17 72.2798 366.17 72.3898 366.17 72.5398Z" fill="#E0E0E0"/>
<path d="M113.381 389.89L114.581 427.49L161.441 426.7C161.091 422.23 134.751 413.84 134.751 413.84L134.561 388.56L113.381 389.89Z" fill="#E8505B"/>
<g opacity="0.3">
<path d="M113.381 389.89L114.581 427.49L161.441 426.7C161.091 422.23 134.751 413.84 134.751 413.84L134.561 388.56L113.381 389.89Z" fill="#0C88C9"/>
</g>
<path d="M122.16 411.89C121.713 412.034 121.334 412.338 121.098 412.744C120.861 413.151 120.784 413.63 120.88 414.09C121.009 414.544 121.307 414.932 121.712 415.173C122.118 415.415 122.6 415.493 123.06 415.39C123.537 415.238 123.94 414.911 124.188 414.476C124.436 414.041 124.512 413.529 124.4 413.04C124.219 412.581 123.866 412.211 123.416 412.007C122.966 411.804 122.455 411.783 121.99 411.95" fill="#263238"/>
<path d="M114.581 427.46L114.461 423.66L159.551 424.32C159.551 424.32 161.651 425.2 161.441 426.67L114.581 427.46Z" fill="#263238"/>
<path d="M135.5 414.22C135.5 414.45 134.35 414.58 133.24 415.33C132.13 416.08 131.55 417.06 131.33 416.97C131.11 416.88 131.44 415.56 132.8 414.67C134.16 413.78 135.5 414.01 135.5 414.22Z" fill="#263238"/>
<path d="M141.641 416.25C141.691 416.47 140.711 416.88 139.951 417.86C139.191 418.84 138.951 419.86 138.751 419.86C138.551 419.86 138.361 418.56 139.331 417.36C140.301 416.16 141.631 416.03 141.641 416.25Z" fill="#263238"/>
<path d="M144.431 421.89C144.221 421.95 143.881 420.81 144.431 419.54C144.981 418.27 146.051 417.76 146.151 417.95C146.251 418.14 145.601 418.82 145.151 419.87C144.701 420.92 144.651 421.89 144.431 421.89Z" fill="#263238"/>
<path d="M134.99 407.95C134.89 408.16 133.84 407.87 132.55 407.95C131.26 408.03 130.25 408.49 130.13 408.3C130.01 408.11 130.96 407.3 132.49 407.16C134.02 407.02 135.09 407.77 134.99 407.95Z" fill="#263238"/>
<path d="M135.721 402.31C134.952 402.524 134.139 402.524 133.371 402.31C132.521 402.176 131.692 401.937 130.901 401.6C130.434 401.398 129.979 401.168 129.541 400.91C129.278 400.762 129.036 400.581 128.821 400.37C128.668 400.209 128.573 400.002 128.552 399.781C128.53 399.56 128.582 399.338 128.701 399.15C128.812 398.987 128.961 398.853 129.135 398.759C129.309 398.665 129.503 398.614 129.701 398.61C129.998 398.601 130.295 398.638 130.581 398.72C131.085 398.829 131.577 398.986 132.051 399.19C132.849 399.535 133.588 400.005 134.241 400.58C135.351 401.58 135.731 402.41 135.651 402.46C135.571 402.51 135.011 401.83 133.891 401.02C132.861 400.258 131.676 399.732 130.421 399.48C129.921 399.36 129.501 399.36 129.421 399.58C129.341 399.8 129.371 399.7 129.421 399.85C129.579 400.004 129.757 400.135 129.951 400.24C130.355 400.491 130.773 400.721 131.201 400.93C131.937 401.275 132.704 401.553 133.491 401.76C134.245 401.893 134.991 402.077 135.721 402.31Z" fill="#263238"/>
<path d="M159.941 75.8904C159.758 71.5097 157.931 67.3585 154.825 64.2637C151.72 61.1689 147.562 59.3576 143.18 59.1904H142.271C132.521 59.3904 127.271 67.7904 127.701 77.5304L127.021 119.24C135.181 124.57 143.021 128.54 149.461 126.02L150.461 108.67C150.461 108.67 159.881 107.57 160.351 98.2204C160.591 93.6204 160.301 84.2804 159.941 75.8904Z" fill="#FFBE9D"/>
<path d="M150.5 108.58C146.18 108.494 141.982 107.126 138.44 104.65C138.44 104.65 140.98 111.56 150.35 111.08L150.5 108.58Z" fill="#EB996E"/>
<path d="M157.19 82.81C157.18 83.1584 157.034 83.489 156.784 83.7318C156.533 83.9745 156.199 84.1101 155.85 84.11C155.681 84.1194 155.512 84.0953 155.352 84.0389C155.193 83.9825 155.046 83.8951 154.92 83.7816C154.795 83.6682 154.693 83.531 154.621 83.3779C154.549 83.2249 154.508 83.059 154.5 82.89C154.508 82.5407 154.653 82.2086 154.904 81.9654C155.154 81.7221 155.491 81.5873 155.84 81.59C156.009 81.5792 156.179 81.6024 156.339 81.6582C156.499 81.7141 156.647 81.8014 156.772 81.9152C156.898 82.0289 157 82.1666 157.072 82.3203C157.143 82.474 157.184 82.6405 157.19 82.81Z" fill="#263238"/>
<path d="M157.761 80.33C157.581 80.5 156.601 79.71 155.161 79.66C153.721 79.61 152.641 80.29 152.491 80.11C152.341 79.93 152.601 79.72 153.071 79.4C153.71 78.9903 154.462 78.791 155.221 78.83C155.966 78.8585 156.683 79.1209 157.271 79.58C157.701 79.94 157.841 80.26 157.761 80.33Z" fill="#263238"/>
<path d="M143.771 82.8004C143.758 83.148 143.611 83.4772 143.362 83.7194C143.112 83.9616 142.778 84.0981 142.431 84.1004C142.264 84.1085 142.097 84.0836 141.94 84.0271C141.783 83.9706 141.638 83.8837 141.515 83.7713C141.391 83.6589 141.291 83.5233 141.22 83.3721C141.149 83.2209 141.108 83.0573 141.101 82.8904C141.111 82.5437 141.255 82.2146 141.503 81.9721C141.751 81.7297 142.084 81.5929 142.431 81.5904C142.768 81.5767 143.097 81.6957 143.348 81.9219C143.598 82.1481 143.75 82.4635 143.771 82.8004Z" fill="#263238"/>
<path d="M143.61 80.0601C143.44 80.2301 142.46 79.4401 141.02 79.3901C139.58 79.3401 138.5 80.0201 138.35 79.8401C138.2 79.6601 138.46 79.4501 138.93 79.1301C139.567 78.7219 140.315 78.5226 141.07 78.5601C141.819 78.5824 142.542 78.8454 143.13 79.3101C143.56 79.6601 143.7 79.9901 143.61 80.0601Z" fill="#263238"/>
<path d="M148.421 90.8902C149.191 90.6851 149.984 90.5743 150.781 90.5602C151.141 90.5602 151.491 90.4802 151.571 90.2302C151.607 89.851 151.534 89.4694 151.361 89.1302C151.051 88.2302 150.731 87.2802 150.361 86.2902C149.011 82.2902 148.041 78.9402 148.201 78.8902C148.361 78.8402 149.601 82.0602 150.951 86.1002L151.891 88.9502C152.101 89.4037 152.147 89.9165 152.021 90.4002C151.963 90.5276 151.877 90.6404 151.77 90.7304C151.662 90.8203 151.536 90.8852 151.401 90.9202C151.194 90.9624 150.982 90.9825 150.771 90.9802C149.987 91.0464 149.198 91.0162 148.421 90.8902Z" fill="#263238"/>
<path d="M137.05 76.7604C137.2 76.3704 138.63 76.5604 140.32 76.3604C142.01 76.1604 143.38 75.7104 143.6 76.0604C143.7 76.2304 143.46 76.5904 142.91 76.9704C142.18 77.4437 141.347 77.7352 140.48 77.8204C139.614 77.9169 138.738 77.8108 137.92 77.5104C137.3 77.2604 136.99 76.9504 137.05 76.7604Z" fill="#263238"/>
<path d="M157.5 75.34C157.18 75.65 155.97 75.27 154.5 75.2C153.03 75.13 151.78 75.31 151.5 74.96C151.38 74.79 151.59 74.47 152.15 74.18C152.915 73.8236 153.759 73.6719 154.6 73.74C155.444 73.7713 156.263 74.0305 156.97 74.49C157.5 74.89 157.65 75.19 157.5 75.34Z" fill="#263238"/>
<path d="M128.201 84.4002C128.051 84.3202 121.851 82.2502 121.811 88.6602C121.771 95.0702 128.201 93.7802 128.221 93.5902C128.241 93.4002 128.201 84.4002 128.201 84.4002Z" fill="#FFBE9D"/>
<path d="M126.281 91.1604C126.281 91.1604 126.161 91.2304 125.971 91.3204C125.705 91.4277 125.407 91.4277 125.141 91.3204C124.73 91.0556 124.397 90.6865 124.176 90.2507C123.954 89.815 123.852 89.3283 123.881 88.8404C123.868 88.2899 123.977 87.7435 124.201 87.2404C124.262 87.0399 124.372 86.8576 124.52 86.7094C124.668 86.5612 124.85 86.4516 125.051 86.3904C125.178 86.3574 125.313 86.3703 125.432 86.427C125.551 86.4837 125.646 86.5805 125.701 86.7004C125.791 86.8804 125.751 87.0104 125.781 87.0204C125.811 87.0304 125.921 86.9104 125.871 86.6504C125.834 86.4903 125.746 86.3464 125.621 86.2404C125.442 86.1092 125.22 86.0519 125.001 86.0804C124.736 86.1326 124.49 86.252 124.285 86.4272C124.08 86.6023 123.924 86.8273 123.831 87.0804C123.555 87.636 123.418 88.2502 123.431 88.8704C123.397 89.4392 123.532 90.0053 123.819 90.4979C124.105 90.9905 124.53 91.3879 125.041 91.6404C125.209 91.6889 125.386 91.6997 125.559 91.6721C125.732 91.6444 125.896 91.579 126.041 91.4804C126.261 91.3104 126.301 91.1704 126.281 91.1604Z" fill="#EB996E"/>
<path d="M138.6 85.99C138.557 85.9929 138.514 85.9789 138.48 85.951C138.447 85.9231 138.425 85.8834 138.42 85.84C138.416 85.819 138.416 85.7973 138.42 85.7762C138.424 85.7552 138.433 85.7352 138.445 85.7174C138.457 85.6997 138.473 85.6846 138.491 85.673C138.509 85.6614 138.529 85.6536 138.55 85.65C138.572 85.6457 138.593 85.646 138.615 85.6509C138.636 85.6558 138.655 85.6653 138.673 85.6786C138.69 85.6919 138.704 85.7087 138.714 85.728C138.724 85.7472 138.729 85.7684 138.73 85.79C138.736 85.8118 138.737 85.8345 138.734 85.8567C138.73 85.879 138.722 85.9002 138.71 85.9191C138.698 85.938 138.682 85.9541 138.663 85.9663C138.644 85.9785 138.623 85.9866 138.6 85.99Z" fill="#EB996E"/>
<path d="M141.37 85.4704C141.29 85.4704 141.2 85.4104 141.19 85.3004C141.18 85.1904 141.19 85.0904 141.31 85.0804C141.334 85.079 141.358 85.0823 141.38 85.0902C141.402 85.098 141.423 85.1101 141.441 85.1259C141.458 85.1417 141.473 85.1608 141.483 85.1822C141.493 85.2035 141.499 85.2267 141.5 85.2504C141.506 85.2734 141.508 85.2973 141.505 85.3208C141.501 85.3443 141.493 85.367 141.481 85.3874C141.469 85.4079 141.453 85.4257 141.434 85.44C141.415 85.4542 141.393 85.4645 141.37 85.4704Z" fill="#EB996E"/>
<path d="M143.231 85.5001C143.141 85.5001 143.061 85.4001 143.041 85.2501C143.021 85.1001 143.091 84.9901 143.181 84.9801C143.271 84.9701 143.351 85.0801 143.361 85.2201C143.371 85.3601 143.311 85.4901 143.231 85.5001Z" fill="#EB996E"/>
<path d="M139.89 87.7701C139.8 87.7701 139.73 87.7101 139.73 87.6601C139.73 87.6101 139.81 87.5601 139.9 87.5601C139.99 87.5601 140.05 87.6101 140.05 87.6701C140.05 87.7301 139.98 87.7701 139.89 87.7701Z" fill="#EB996E"/>
<path d="M142.43 87.2804C142.386 87.278 142.344 87.2593 142.313 87.228C142.281 87.1966 142.262 87.1547 142.26 87.1104C142.257 87.0881 142.259 87.0654 142.265 87.0437C142.271 87.022 142.281 87.0017 142.295 86.984C142.309 86.9664 142.327 86.9516 142.346 86.9407C142.366 86.9298 142.388 86.9229 142.41 86.9204C142.455 86.9204 142.498 86.9383 142.53 86.9702C142.562 87.0021 142.58 87.0453 142.58 87.0904C142.583 87.1351 142.57 87.1793 142.542 87.2144C142.514 87.2495 142.474 87.2731 142.43 87.2804Z" fill="#EB996E"/>
<path d="M155.601 86.2104C155.578 86.2131 155.556 86.2115 155.534 86.2054C155.512 86.1993 155.492 86.189 155.474 86.1751C155.457 86.1611 155.442 86.1438 155.431 86.1241C155.42 86.1044 155.413 86.0827 155.411 86.0604C155.402 86.0166 155.41 85.9711 155.435 85.9337C155.459 85.8963 155.497 85.87 155.541 85.8604C155.583 85.8602 155.625 85.8751 155.657 85.9025C155.69 85.9299 155.712 85.9679 155.719 86.0099C155.726 86.0519 155.718 86.0951 155.697 86.1318C155.675 86.1685 155.641 86.1964 155.601 86.2104Z" fill="#EB996E"/>
<path d="M157.501 86.1104C157.477 86.1106 157.453 86.1057 157.431 86.0959C157.409 86.0861 157.389 86.0718 157.373 86.0538C157.357 86.0358 157.345 86.0146 157.338 85.9917C157.33 85.9687 157.328 85.9444 157.331 85.9204C157.325 85.8744 157.335 85.8275 157.361 85.7888C157.387 85.7501 157.426 85.7222 157.471 85.7104C157.495 85.7117 157.518 85.7177 157.539 85.7279C157.56 85.7382 157.58 85.7525 157.595 85.7702C157.611 85.7878 157.623 85.8084 157.631 85.8308C157.639 85.8531 157.642 85.8768 157.641 85.9004C157.631 86.0104 157.571 86.1104 157.501 86.1104Z" fill="#EB996E"/>
<path d="M153.94 86.2C153.902 86.2059 153.863 86.1967 153.831 86.1743C153.799 86.1519 153.777 86.1181 153.77 86.08C153.767 86.0608 153.768 86.0413 153.774 86.0226C153.779 86.0039 153.788 85.9865 153.8 85.9715C153.812 85.9564 153.827 85.9441 153.845 85.9352C153.862 85.9264 153.881 85.9212 153.9 85.92C153.938 85.911 153.979 85.9174 154.013 85.938C154.046 85.9586 154.071 85.9917 154.08 86.03C154.083 86.0709 154.07 86.1113 154.044 86.1429C154.018 86.1746 153.981 86.195 153.94 86.2Z" fill="#EB996E"/>
<path d="M155.26 88.12C155.218 88.1326 155.172 88.1282 155.133 88.1076C155.094 88.0871 155.064 88.0521 155.05 88.01C155.039 87.99 155.031 87.9677 155.029 87.9447C155.027 87.9217 155.03 87.8984 155.037 87.8765C155.045 87.8547 155.057 87.8347 155.073 87.818C155.089 87.8014 155.109 87.7884 155.13 87.78C155.173 87.7674 155.218 87.7718 155.258 87.7924C155.297 87.8129 155.326 87.8479 155.34 87.89C155.35 87.9103 155.356 87.9324 155.358 87.9551C155.359 87.9777 155.356 88.0004 155.349 88.0219C155.341 88.0433 155.33 88.063 155.314 88.0799C155.299 88.0967 155.281 88.1104 155.26 88.12Z" fill="#EB996E"/>
<path d="M156.871 87.89C156.854 87.8848 156.839 87.8763 156.826 87.8652C156.813 87.8541 156.802 87.8405 156.794 87.8251C156.786 87.8098 156.781 87.7931 156.78 87.7759C156.778 87.7587 156.78 87.7415 156.786 87.725C156.791 87.7086 156.799 87.6934 156.81 87.6802C156.822 87.6671 156.835 87.6563 156.85 87.6484C156.866 87.6405 156.882 87.6357 156.9 87.6342C156.917 87.6328 156.934 87.6348 156.951 87.64C156.97 87.6421 156.988 87.6484 157.005 87.6585C157.022 87.6687 157.036 87.6824 157.046 87.6987C157.057 87.715 157.064 87.7335 157.066 87.7528C157.068 87.772 157.067 87.7916 157.061 87.81C157.054 87.8283 157.044 87.845 157.03 87.859C157.017 87.8731 157.001 87.8842 156.983 87.8917C156.965 87.8993 156.946 87.903 156.927 87.9027C156.907 87.9024 156.888 87.8981 156.871 87.89Z" fill="#EB996E"/>
<path d="M150.55 95.89C150.48 96.02 149.32 95.43 147.77 95.16C146.22 94.89 144.93 95.02 144.91 94.87C145.858 94.5449 146.873 94.4661 147.859 94.6411C148.846 94.816 149.772 95.2389 150.55 95.87V95.89Z" fill="#263238"/>
<path d="M165.801 63.2202C165.408 63.103 165.037 62.9241 164.701 62.6902C164.491 62.4308 164.337 62.1307 164.249 61.8088C164.162 61.4869 164.142 61.1502 164.191 60.8202C164.233 60.4895 164.192 60.1535 164.072 59.8426C163.951 59.5317 163.755 59.2559 163.501 59.0402C162.711 58.6002 161.681 59.3502 160.841 59.0402C160.001 58.7302 159.911 57.5502 159.471 56.7502C159.165 56.2476 158.689 55.8706 158.13 55.6873C157.571 55.504 156.965 55.5263 156.421 55.7502C155.681 56.0802 154.881 56.8002 154.181 56.3802C153.481 55.9602 153.661 55.1002 153.391 54.4402C153.291 54.2241 153.148 54.0308 152.971 53.8722C152.793 53.7135 152.585 53.593 152.359 53.518C152.133 53.443 151.894 53.4152 151.657 53.4362C151.42 53.4572 151.19 53.5267 150.981 53.6402C150.361 54.0102 149.781 54.8202 149.121 54.5202C148.461 54.2202 148.591 53.3102 148.071 52.9202C147.844 52.7902 147.58 52.7412 147.322 52.7811C147.064 52.8211 146.827 52.9478 146.651 53.1402C146.299 53.5277 145.987 53.9499 145.721 54.4002C145.584 54.6225 145.395 54.808 145.17 54.9404C144.945 55.0729 144.691 55.1483 144.431 55.1602C143.861 55.1602 143.431 54.6002 143.021 54.2302C141.531 52.9702 139.191 53.2302 137.581 54.3502C136.576 55.0918 135.729 56.0268 135.091 57.1002C133.366 56.718 131.574 56.7626 129.871 57.2302C126.051 58.3502 123.011 62.1002 123.241 66.0702C123.361 67.9302 124.121 69.6802 124.431 71.5202C124.643 73.7238 124.679 75.9408 124.541 78.1502C124.541 80.3602 124.681 82.3902 126.131 84.0602L128.041 84.5502C128.172 84.7791 128.323 84.9965 128.491 85.2002C128.763 85.5931 129.166 85.8757 129.629 85.9968C130.091 86.1178 130.581 86.0694 131.011 85.8602C131.433 85.4808 131.715 84.9699 131.811 84.4102C132.981 80.4102 134.151 76.0902 133.611 72.0102C133.442 70.9158 133.608 69.7958 134.089 68.7979C134.569 67.8001 135.34 66.9711 136.301 66.4202C136.904 66.0631 137.549 65.781 138.221 65.5802C138.882 65.4552 139.56 65.4552 140.221 65.5802C141.633 65.8528 142.882 66.6677 143.701 67.8502C144.271 68.6702 144.701 69.7402 145.701 69.9902C146.701 70.2402 147.751 69.4302 148.821 69.4302C149.891 69.4302 150.821 70.3202 151.641 71.1002C152.461 71.8802 153.541 72.6402 154.641 72.3102C155.741 71.9802 156.161 70.9502 157.111 70.6302C157.817 70.4645 158.56 70.5604 159.201 70.9002C159.834 71.2404 160.506 71.5055 161.201 71.6902C161.549 71.7818 161.917 71.769 162.258 71.6535C162.6 71.5379 162.9 71.3247 163.121 71.0402C163.551 70.3502 163.281 69.3502 163.791 68.7102C164.301 68.0702 165.071 68.1202 165.791 67.8402C166.236 67.6498 166.616 67.3344 166.885 66.9323C167.154 66.5301 167.3 66.0586 167.307 65.5747C167.313 65.0909 167.179 64.6156 166.92 64.2066C166.662 63.7975 166.29 63.4722 165.851 63.2702L165.801 63.2202Z" fill="#263238"/>
<path d="M124.41 75.1404C124.41 75.0604 125.06 75.1405 126.07 75.0005C127.381 74.8641 128.646 74.4447 129.779 73.7714C130.911 73.098 131.884 72.1867 132.63 71.1004C132.911 70.6204 133.218 70.1564 133.55 69.7104C133.485 70.2837 133.275 70.831 132.94 71.3005C132.236 72.5033 131.239 73.5078 130.041 74.2197C128.842 74.9316 127.483 75.3275 126.09 75.3705C125.52 75.436 124.942 75.3569 124.41 75.1404Z" fill="#455A64"/>
<path d="M124.04 77.54C125.738 77.5843 127.43 77.3305 129.04 76.79C130.58 76.0977 131.99 75.1473 133.21 73.98C133.26 73.98 132.98 74.54 132.32 75.23C131.441 76.1056 130.389 76.787 129.23 77.23C128.05 77.7191 126.777 77.9443 125.5 77.89C124.993 77.89 124.492 77.7701 124.04 77.54Z" fill="#455A64"/>
<path d="M117.181 205L105.551 241.66L112.961 407.62L135.631 404.88L138.601 325.93L150.831 237.63L152.061 206.38L117.181 205Z" fill="#263238"/>
<path d="M124.641 367.83L102.431 398.21L139.841 426.43C142.321 422.69 126.731 399.86 126.731 399.86L142.141 379.86L124.641 367.83Z" fill="#0C88C9"/>
<path d="M118.03 390.56C117.588 390.398 117.101 390.406 116.663 390.581C116.226 390.756 115.869 391.087 115.66 391.51C115.482 391.945 115.476 392.432 115.646 392.871C115.815 393.31 116.146 393.668 116.57 393.87C117.038 394.048 117.555 394.043 118.02 393.858C118.484 393.673 118.863 393.321 119.08 392.87C119.217 392.395 119.166 391.886 118.936 391.449C118.707 391.011 118.318 390.678 117.85 390.52" fill="#263238"/>
<path d="M102.431 398.21L104.681 395.14L139.801 423.42C139.801 423.42 140.911 425.42 139.801 426.42L102.431 398.21Z" fill="#263238"/>
<path d="M127.031 400.63C126.891 400.81 125.911 400.2 124.571 400.11C123.231 400.02 122.171 400.43 122.061 400.23C121.951 400.03 123.011 399.23 124.641 399.31C126.271 399.39 127.201 400.49 127.031 400.63Z" fill="#263238"/>
<path d="M130.651 406.03C130.561 406.23 129.541 405.95 128.331 406.25C127.121 406.55 126.331 407.25 126.161 407.1C125.991 406.95 126.651 405.83 128.161 405.48C129.671 405.13 130.781 405.89 130.651 406.03Z" fill="#263238"/>
<path d="M129.4 412.17C129.2 412.08 129.63 410.98 130.86 410.33C132.09 409.68 133.24 409.93 133.2 410.14C133.16 410.35 132.2 410.49 131.2 411.03C130.2 411.57 129.59 412.29 129.4 412.17Z" fill="#263238"/>
<path d="M130.5 395.39C130.3 395.5 129.65 394.62 128.57 393.91C127.49 393.2 126.5 392.89 126.5 392.69C126.5 392.49 127.79 392.39 129.06 393.25C130.33 394.11 130.72 395.32 130.5 395.39Z" fill="#263238"/>
<path d="M134.57 391.4C134.57 391.48 133.71 391.05 132.71 389.98C132.122 389.349 131.615 388.647 131.2 387.89C130.95 387.443 130.733 386.979 130.55 386.5C130.435 386.225 130.358 385.936 130.32 385.64C130.307 385.426 130.363 385.213 130.48 385.033C130.597 384.852 130.769 384.715 130.97 384.64C131.159 384.583 131.358 384.57 131.553 384.603C131.747 384.636 131.931 384.714 132.09 384.83C132.326 385.005 132.535 385.214 132.71 385.45C133.036 385.851 133.327 386.279 133.58 386.73C133.996 387.493 134.29 388.316 134.45 389.17C134.686 389.936 134.686 390.754 134.45 391.52C134.32 391.52 134.33 390.63 133.94 389.3C133.707 388.525 133.371 387.785 132.94 387.1C132.696 386.697 132.422 386.312 132.12 385.95C131.8 385.55 131.46 385.29 131.23 385.39C131 385.49 131.12 385.46 131.11 385.64C131.142 385.857 131.203 386.069 131.29 386.27C131.447 386.719 131.634 387.157 131.85 387.58C132.213 388.31 132.645 389.003 133.14 389.65C133.98 390.72 134.65 391.31 134.57 391.4Z" fill="#263238"/>
<path d="M152.06 206.38L165.22 206.9C165.22 206.9 194.5 311.61 191.55 320.79C188.6 329.97 134.41 390.89 134.41 390.89L118.19 373.89C118.19 373.89 135.55 344.36 143.34 335.97C148.92 329.97 163.34 318.44 163.34 318.44L144.81 281.08L152.06 206.38Z" fill="#263238"/>
<path d="M153.341 247.09C153.193 247.653 153.006 248.204 152.781 248.74C152.391 249.74 151.831 251.31 151.171 253.19C149.851 256.97 148.171 262.24 146.751 268.19C145.331 274.14 144.421 279.58 143.891 283.55C143.621 285.55 143.421 287.14 143.301 288.25C143.258 288.829 143.174 289.404 143.051 289.97C143 289.391 143 288.809 143.051 288.23C143.111 287.11 143.251 285.5 143.471 283.5C144.067 278.307 144.976 273.155 146.191 268.07C147.418 262.984 148.948 257.975 150.771 253.07C151.481 251.19 152.091 249.69 152.541 248.66C152.763 248.115 153.03 247.59 153.341 247.09Z" fill="#455A64"/>
<path d="M134.411 390.89L134.091 390.6L133.211 389.72L129.881 386.31L118.031 374L117.921 373.89L118.011 373.74C122.221 366.68 127.241 358.15 133.111 349.28C137.641 342.232 142.903 335.682 148.811 329.74C151.267 327.351 153.858 325.104 156.571 323.01C157.821 322.09 158.991 321.21 160.111 320.42L163.271 318.28H163.331L169.631 319.69L171.301 320.08C171.497 320.111 171.688 320.165 171.871 320.24C171.676 320.224 171.482 320.194 171.291 320.15L169.601 319.84L163.271 318.57H163.381L160.261 320.75C159.151 321.54 157.991 322.44 156.751 323.36C154.073 325.472 151.512 327.729 149.081 330.12C143.227 336.064 138.006 342.599 133.501 349.62C127.631 358.47 122.591 366.98 118.331 374.02V373.75L130.041 386.19L133.281 389.67L134.121 390.6C134.228 390.686 134.325 390.783 134.411 390.89Z" fill="#455A64"/>
<path d="M168.201 185.24C168.251 185.51 172.961 183.83 173.471 181.98C173.981 180.13 173.841 174.79 173.841 174.79L161.841 167.53L161.901 177.53C163.537 178.147 164.981 179.185 166.087 180.539C167.193 181.892 167.922 183.514 168.201 185.24Z" fill="#FFBE9D"/>
<path d="M154.9 107.01L160.21 110.4C160.21 110.4 161.87 114.51 163.99 116.4C166.11 118.29 169.76 122.11 169.76 122.11L171.37 127.89L182.96 124.94L177.96 108.19L176.5 103.76C176.5 103.76 173.96 99.8704 170.68 101.94C170.68 101.94 171.09 100.49 169.68 100.4C168.521 100.4 167.365 100.521 166.23 100.76C165.374 100.139 164.357 99.7743 163.3 99.7104C162.551 99.7152 161.805 99.7922 161.07 99.9404C161.07 99.9404 160.68 98.2904 159.8 98.5004C158.92 98.7104 157.8 100.28 157.49 101.21C157.291 102.367 157.26 103.546 157.4 104.71L154.9 107.01Z" fill="#FFBE9D"/>
<path d="M171.25 101.89C170.427 102.357 169.757 103.051 169.32 103.89C168.867 104.795 168.651 105.799 168.69 106.81C168.696 107.413 168.75 108.015 168.85 108.61C168.9 108.92 168.95 109.24 169.01 109.56C169.043 109.87 169.11 110.175 169.21 110.47C169.275 110.583 169.364 110.681 169.472 110.755C169.579 110.829 169.701 110.879 169.83 110.9C170.102 110.975 170.389 110.975 170.66 110.9C170.919 110.834 171.154 110.699 171.341 110.508C171.528 110.318 171.659 110.08 171.72 109.82C172 108.82 171.65 107.69 171.8 106.76C171.84 106.326 172.011 105.915 172.29 105.58C172.498 105.325 172.776 105.137 173.09 105.04C173.62 104.89 173.9 105.12 173.88 105.13C173.636 105.119 173.392 105.153 173.16 105.23C172.864 105.373 172.614 105.596 172.437 105.873C172.26 106.15 172.165 106.471 172.16 106.8C172.05 107.63 172.46 108.68 172.16 109.95C172.06 110.297 171.869 110.61 171.605 110.857C171.342 111.104 171.017 111.275 170.664 111.352C170.311 111.429 169.944 111.409 169.602 111.294C169.26 111.179 168.955 110.974 168.72 110.7C168.596 110.362 168.515 110.009 168.48 109.65C168.42 109.32 168.37 109 168.32 108.65C168.228 108.031 168.185 107.406 168.19 106.78C168.174 105.696 168.443 104.627 168.97 103.68C169.33 103.043 169.85 102.512 170.48 102.14C170.95 101.89 171.24 101.89 171.25 101.89Z" fill="#EB996E"/>
<path d="M175.171 108.12C175.171 108.26 174.531 108.32 173.771 108.36C173.011 108.4 172.371 108.42 172.341 108.28C172.311 108.14 172.931 107.89 173.741 107.84C174.551 107.79 175.181 107.98 175.171 108.12Z" fill="#EB996E"/>
<path d="M168.791 110.49C168.791 110.49 168.921 110.73 168.951 111.21C168.983 111.562 168.939 111.916 168.821 112.249C168.704 112.582 168.516 112.886 168.271 113.14C168.09 113.322 167.875 113.465 167.638 113.563C167.401 113.661 167.147 113.711 166.891 113.71C166.591 113.693 166.299 113.602 166.043 113.445C165.786 113.288 165.573 113.07 165.421 112.81C165.11 112.281 164.903 111.697 164.811 111.09C164.698 110.49 164.608 109.87 164.541 109.23C164.411 108.022 164.367 106.805 164.411 105.59C164.403 104.574 164.548 103.563 164.841 102.59C165.058 101.928 165.487 101.355 166.061 100.96C166.262 100.804 166.507 100.714 166.761 100.7C166.761 100.7 166.531 100.83 166.181 101.12C165.701 101.542 165.353 102.095 165.181 102.71C164.96 103.647 164.859 104.608 164.881 105.57C164.866 106.763 164.923 107.955 165.051 109.14C165.098 110.308 165.359 111.457 165.821 112.53C165.927 112.73 166.082 112.901 166.27 113.026C166.459 113.152 166.675 113.229 166.901 113.25C167.309 113.258 167.706 113.112 168.011 112.84C168.461 112.403 168.723 111.807 168.741 111.18C168.737 110.949 168.753 110.718 168.791 110.49Z" fill="#EB996E"/>
<path d="M164.161 109.58C164.271 109.58 163.961 110.58 162.491 111.07C162.03 111.082 161.579 110.934 161.215 110.652C160.85 110.369 160.594 109.969 160.491 109.52C160.221 108.544 160.099 107.533 160.131 106.52C160.11 104.692 160.45 102.877 161.131 101.18C161.366 100.648 161.785 100.219 162.311 99.9701C162.691 99.8101 162.921 99.8601 162.921 99.8901C162.921 99.9201 162.711 99.9601 162.401 100.15C161.973 100.434 161.647 100.847 161.471 101.33C160.911 103.003 160.628 104.756 160.631 106.52C160.597 107.476 160.694 108.431 160.921 109.36C160.996 109.708 161.176 110.024 161.437 110.266C161.699 110.507 162.028 110.663 162.381 110.71C162.88 110.595 163.341 110.354 163.721 110.01C164.051 109.76 164.121 109.57 164.161 109.58Z" fill="#EB996E"/>
<path d="M161.15 99.9404C161.214 100.371 161.19 100.809 161.08 101.23C160.998 102.318 160.606 103.359 159.95 104.23C159.735 104.504 159.437 104.7 159.1 104.79C158.931 104.833 158.754 104.84 158.581 104.808C158.409 104.777 158.245 104.71 158.1 104.61C157.879 104.467 157.694 104.276 157.557 104.051C157.42 103.826 157.336 103.573 157.31 103.31C157.217 102.867 157.277 102.405 157.48 102C157.57 102 157.48 102.52 157.67 103.24C157.705 103.445 157.782 103.64 157.898 103.813C158.013 103.985 158.164 104.131 158.34 104.24C158.541 104.349 158.776 104.378 158.997 104.32C159.218 104.263 159.408 104.123 159.53 103.93C160.111 103.127 160.507 102.205 160.69 101.23C160.92 100.4 161.08 99.8904 161.15 99.9404Z" fill="#EB996E"/>
<path d="M175.55 114.38C174.838 113.739 174.09 113.138 173.31 112.58C172.446 112.159 171.558 111.788 170.65 111.47C171.156 111.378 171.676 111.389 172.178 111.502C172.68 111.616 173.153 111.829 173.57 112.13C174.034 112.354 174.448 112.669 174.788 113.055C175.128 113.442 175.387 113.892 175.55 114.38Z" fill="#EB996E"/>
<path d="M177.561 117.15C176.856 118.322 175.801 119.242 174.545 119.781C173.289 120.319 171.895 120.449 170.561 120.15C171.843 120 173.104 119.705 174.321 119.27C175.478 118.69 176.565 117.979 177.561 117.15Z" fill="#EB996E"/>
<path d="M160.271 97.5903C160.221 99.5159 159.677 101.396 158.691 103.051C157.705 104.706 156.31 106.08 154.641 107.04C156.001 105.768 157.209 104.342 158.241 102.79C159.112 101.14 159.794 99.3951 160.271 97.5903Z" fill="#EB996E"/>
<path d="M161.27 128.73C161.27 128.73 164.7 130.31 166.39 135.26C167.54 138.64 174.04 150.46 174.04 150.46L171.37 127.89L182.84 123.89C182.84 123.89 192.53 144.98 194.84 157.89C197.15 170.54 190.84 178.89 184.11 178.65C177.38 178.41 161.11 167.08 161.11 167.08L161.27 128.73Z" fill="#0C88C9"/>
<path d="M171.371 127.89C171.495 128.325 171.582 128.77 171.631 129.22C171.761 130.22 171.941 131.41 172.151 132.88C172.561 135.97 173.101 140.25 173.661 144.97C173.871 146.81 174.081 148.58 174.271 150.21C174.561 151.91 174.831 153.5 175.081 154.94C175.297 156.175 175.608 157.392 176.011 158.58C176.721 160.58 177.301 161.68 177.231 161.71C177.049 161.474 176.891 161.219 176.761 160.95C176.39 160.211 176.056 159.453 175.761 158.68C175.303 157.493 174.948 156.268 174.701 155.02C174.431 153.58 174.141 152.02 173.821 150.3C173.621 148.67 173.401 146.9 173.181 145.06C172.621 140.34 172.181 136.06 171.821 132.95C171.681 131.48 171.561 130.25 171.471 129.28C171.382 128.822 171.349 128.356 171.371 127.89Z" fill="#0C88C9"/>
<g opacity="0.3">
<path d="M195.32 164.74C195.32 162.45 187.32 165.29 184.23 167.38C181.072 169.673 178.658 172.845 177.29 176.5C177.29 176.5 182.76 179.65 186.96 178.22C192.92 176.2 195.25 168.67 195.32 164.74Z" fill="black"/>
</g>
<path d="M123.69 113.79C123.69 113.79 102.01 124.27 99.6904 130.69C97.3704 137.11 101.23 153.61 101.23 153.61L109.79 198.14L111.57 214.78L106.94 221.5L108.94 228.4C132.31 231.51 154.16 232.16 172.79 227.55L171.5 212.21L162.9 176.66L161.78 146.79L161.26 128.73L149.61 119.18C149.61 119.18 147.71 124.38 142.9 123.29C138.09 122.2 126.81 110.77 126.81 110.77L123.69 113.79Z" fill="#0C88C9"/>
<path d="M102.02 157.76C102.68 158.44 116.36 194.76 126.02 199.24C135.68 203.72 141.37 202.16 145.57 201.01C149.77 199.86 168.14 186.89 168.14 186.89C168.14 186.89 166.85 178.17 161.51 177.89C158.134 177.748 154.752 178.017 151.44 178.69L144.96 174.4C144.96 174.4 141.2 167.05 139.03 166.74L126.44 138.74C126.44 138.74 114.73 115.89 103.09 126.44C91.7605 136.69 102.02 157.76 102.02 157.76Z" fill="#0C88C9"/>
<path d="M151.691 121.89C151.511 122.291 151.275 122.665 150.991 123C150.292 123.952 149.453 124.792 148.501 125.49C147.814 125.975 147.054 126.346 146.251 126.59C145.32 126.847 144.353 126.945 143.391 126.88C141.22 126.682 139.098 126.125 137.111 125.23C135.085 124.402 133.194 123.276 131.501 121.89C130.15 120.752 128.893 119.508 127.741 118.17C126.741 117.04 126.01 116.08 125.51 115.41C125.223 115.08 124.974 114.718 124.771 114.33C125.1 114.633 125.398 114.968 125.661 115.33C126.221 115.96 127.001 116.88 128.021 117.97C129.195 119.257 130.458 120.46 131.801 121.57C133.462 122.897 135.304 123.981 137.271 124.79C139.204 125.658 141.263 126.215 143.37 126.44C145.084 126.603 146.802 126.176 148.241 125.23C149.203 124.567 150.068 123.773 150.811 122.87C151.081 122.524 151.375 122.196 151.691 121.89Z" fill="#263238"/>
<path d="M160.11 138.8C160.25 138.8 160.79 147.45 161.31 158.13C161.83 168.81 162.14 177.47 161.99 177.48C161.84 177.49 161.31 168.83 160.79 158.15C160.27 147.47 159.96 138.81 160.11 138.8Z" fill="#263238"/>
<path d="M106 126.89L106.24 126.78L106.98 126.48C107.946 126.119 108.954 125.88 109.98 125.77C111.669 125.586 113.378 125.784 114.98 126.35C117.105 127.14 119.036 128.378 120.64 129.98C122.621 131.942 124.305 134.183 125.64 136.63C126.39 137.95 126.99 139.42 127.64 140.89C128.29 142.36 129 143.89 129.71 145.48L139.24 166.59L139.06 166.46C139.857 166.732 140.554 167.238 141.06 167.91C141.6 168.546 142.101 169.214 142.56 169.91C143.498 171.316 144.36 172.772 145.14 174.27L145.09 174.21L147.63 176.75L147.47 176.68L159.81 177.51L161.4 177.61C161.965 177.654 162.521 177.778 163.05 177.98C164.091 178.417 164.994 179.129 165.66 180.04C166.949 181.878 167.826 183.973 168.23 186.18C168.23 186.4 168.32 186.62 168.35 186.83V186.99L168.22 187.08C162.82 190.86 157.5 194.49 152.22 197.76C150.89 198.56 149.57 199.37 148.22 200.08C147.89 200.27 147.55 200.43 147.22 200.6C146.876 200.774 146.522 200.928 146.16 201.06C145.444 201.315 144.712 201.525 143.97 201.69C141.112 202.447 138.136 202.654 135.2 202.3C132.42 201.92 129.707 201.153 127.14 200.02C126.508 199.771 125.894 199.481 125.3 199.15C125.002 198.992 124.717 198.808 124.45 198.6C124.177 198.407 123.917 198.197 123.67 197.97C122.693 197.111 121.793 196.167 120.98 195.15C118.119 191.388 115.608 187.371 113.48 183.15C109.48 175.5 106.76 169.07 104.87 164.64C103.96 162.43 103.24 160.71 102.75 159.52C102.26 158.33 101.99 157.74 101.99 157.74C102.329 158.292 102.614 158.874 102.84 159.48L105.06 164.56C107 168.96 109.78 175.37 113.8 182.98C115.957 187.165 118.48 191.151 121.34 194.89C122.864 196.989 124.942 198.623 127.34 199.61C129.87 200.719 132.543 201.469 135.28 201.84C138.157 202.18 141.072 201.97 143.87 201.22C144.596 201.061 145.311 200.854 146.01 200.6C146.352 200.471 146.686 200.321 147.01 200.15C147.352 199.998 147.686 199.828 148.01 199.64C149.35 198.94 150.66 198.14 152.01 197.33C157.28 194.07 162.6 190.44 168.01 186.67L167.9 186.92L167.78 186.29C167.393 184.162 166.551 182.143 165.31 180.37C164.698 179.534 163.873 178.878 162.92 178.47C161.921 178.173 160.883 178.024 159.84 178.03L147.5 177.16H147.41L147.34 177.09L144.81 174.55C144.038 173.071 143.19 171.633 142.27 170.24C141.822 169.572 141.334 168.931 140.81 168.32C140.365 167.731 139.762 167.28 139.07 167.02H138.93V166.92L129.47 145.77L127.42 141.17C126.74 139.68 126.16 138.24 125.42 136.93C124.12 134.501 122.472 132.275 120.53 130.32C118.968 128.729 117.082 127.491 115 126.69C113.443 126.125 111.781 125.907 110.13 126.05C109.109 126.141 108.102 126.353 107.13 126.68L106.38 126.95L106 126.89Z" fill="#263238"/>
<path d="M152.81 177.3C152.81 177.61 150.08 177.5 146.76 177.23L142.5 176.89C141.907 176.884 141.316 176.806 140.74 176.66C140.74 176.49 143.47 176.46 146.8 176.74C148.47 176.87 149.98 177.03 151.07 177.15L152.81 177.3Z" fill="#263238"/>
<path d="M129.4 167.29C130.975 166.923 132.584 166.725 134.2 166.7C135.807 166.507 137.429 166.484 139.04 166.63C137.463 166.998 135.85 167.195 134.23 167.22C132.627 167.413 131.008 167.436 129.4 167.29Z" fill="#263238"/>
<g opacity="0.3">
<path d="M151.36 198C149.861 195.384 147.823 193.116 145.383 191.345C142.942 189.575 140.153 188.343 137.2 187.73C131.2 186.57 124.07 188.59 119.2 192.31C120.791 194.896 122.935 197.096 125.479 198.753C128.023 200.409 130.902 201.481 133.91 201.89C140.01 202.867 146.253 201.476 151.36 198Z" fill="black"/>
</g>
<g opacity="0.3">
<path d="M126.021 115.67C127.681 119.79 130.021 123.76 133.521 126.51C137.021 129.26 141.801 130.62 146.021 129.25C148.201 128.55 150.3 126.87 150.51 124.6C146.227 126.25 141.502 126.354 137.15 124.893C132.798 123.433 129.092 120.5 126.671 116.6" fill="black"/>
</g>
<g opacity="0.3">
<path d="M161.831 167.53C163.146 159.203 163.116 150.718 161.741 142.4C161.641 141.82 161.291 141.07 160.741 141.21C160.191 141.35 160.191 141.91 160.171 142.37C160.047 150.868 160.455 159.364 161.391 167.81" fill="black"/>
</g>
<path d="M160.211 222.08C160.057 222.16 159.892 222.217 159.721 222.25L158.321 222.64C157.711 222.8 156.961 222.99 156.081 223.17C155.201 223.35 154.201 223.6 153.081 223.78C150.861 224.19 148.181 224.55 145.201 224.78C141.961 225.033 138.709 225.109 135.461 225.01C132.214 224.882 128.976 224.582 125.761 224.11C122.761 223.65 120.151 223.11 117.961 222.54C116.861 222.29 115.881 221.98 114.961 221.73C114.041 221.48 113.361 221.25 112.761 221.04L111.391 220.56C111.229 220.506 111.072 220.439 110.921 220.36C111.091 220.37 111.26 220.404 111.421 220.46L112.821 220.85C113.431 221.03 114.171 221.24 115.041 221.45C115.911 221.66 116.891 221.95 118.041 222.18C120.231 222.7 122.871 223.18 125.821 223.64C128.771 224.1 132.031 224.36 135.471 224.49C138.911 224.62 142.181 224.49 145.151 224.3C148.121 224.11 150.791 223.76 153.011 223.39C154.131 223.24 155.131 223.03 156.011 222.87C156.891 222.71 157.651 222.56 158.261 222.42L159.691 222.13C159.861 222.09 160.036 222.073 160.211 222.08Z" fill="#263238"/>
<g opacity="0.3">
<path d="M115.5 221.18C115.981 220.542 116.603 220.023 117.318 219.666C118.033 219.308 118.821 219.122 119.62 219.12C121.216 219.123 122.804 219.341 124.34 219.77C135.129 222.147 146.321 221.993 157.04 219.32C157.077 219.983 156.924 220.642 156.6 221.221C156.276 221.8 155.794 222.275 155.21 222.59C154.014 223.167 152.723 223.523 151.4 223.64C139.4 225.89 126.98 224.43 115.4 221.64" fill="black"/>
</g>
<path d="M671.13 220.56H536.38V317.44H671.13V220.56Z" fill="#0C88C9"/>
<path d="M572.5 220.56C572.69 220.56 572.5 241.02 572.5 241.02H562.5V220.56H572.5Z" fill="#263238"/>
<g opacity="0.4">
<path d="M603.75 317.44H671.13V220.56H603.75V317.44Z" fill="black"/>
</g>
<path d="M558.521 298.47H540.48V311.24H558.521V298.47Z" fill="#FAFAFA"/>
<path d="M558.55 311.26H540.5V298.45H558.59L558.55 311.26ZM540.55 311.21H558.55V298.5H540.5L540.55 311.21Z" fill="#263238"/>
<path d="M570.87 298.47H561.85V311.24H570.87V298.47Z" fill="#FAFAFA"/>
<path d="M570.9 311.26H561.83V298.45H570.9V311.26ZM561.9 311.21H570.9V298.5H561.9V311.21Z" fill="#263238"/>
<path d="M665.12 317.52H511.83V427.72H665.12V317.52Z" fill="#0C88C9"/>
<path d="M552.95 317.52C553.16 317.52 552.95 340.78 552.95 340.78H541.6V317.52H552.95Z" fill="#263238"/>
<g opacity="0.4">
<path d="M588.48 427.71H665.12V317.51H588.48V427.71Z" fill="black"/>
</g>
<path d="M537.02 406.14H516.5V420.66H537.02V406.14Z" fill="#FAFAFA"/>
<path d="M537.05 420.69H516.5V406.12H537.07L537.05 420.69ZM516.5 420.64H537V406.17H516.5V420.64Z" fill="#263238"/>
<path d="M551.071 406.14H540.811V420.66H551.071V406.14Z" fill="#FAFAFA"/>
<path d="M551.1 420.69H540.79V406.12H551.1V420.69ZM540.84 420.64H551.05V406.17H540.84V420.64Z" fill="#263238"/>
<path d="M671.13 317.44C671.13 317.58 640.96 317.7 603.75 317.7C566.54 317.7 536.38 317.58 536.38 317.44C536.38 317.3 566.54 317.18 603.75 317.18C640.96 317.18 671.13 317.3 671.13 317.44Z" fill="#263238"/>
<path d="M73.8899 29.4403C74.0953 29.5394 74.2688 29.694 74.3908 29.8867C74.5127 30.0793 74.5783 30.3023 74.5799 30.5303V36.5303C74.5792 36.7183 74.5351 36.9036 74.451 37.0717C74.3668 37.2399 74.245 37.3863 74.0949 37.4995C73.9449 37.6128 73.7707 37.6898 73.5859 37.7247C73.4012 37.7595 73.2109 37.7512 73.0299 37.7003C72.526 37.5635 71.9991 37.5328 71.4827 37.6103C70.9662 37.6877 70.4715 37.8716 70.0299 38.1503C69.6373 38.3945 69.2989 38.7166 69.0358 39.0967C68.7726 39.4768 68.5902 39.9069 68.4999 40.3603C68.4207 40.8194 68.4348 41.2898 68.5413 41.7434C68.6479 42.197 68.8446 42.6244 69.1199 43.0003C69.4054 43.4262 69.7724 43.7913 70.1998 44.0745C70.6272 44.3577 71.1064 44.5534 71.6099 44.6503C72.6348 44.7514 73.6636 44.5018 74.5283 43.9423C75.3929 43.3829 76.0422 42.5466 76.3699 41.5703C76.4681 41.264 76.6838 41.0092 76.9698 40.862C77.2558 40.7148 77.5886 40.6872 77.8949 40.7853C78.2012 40.8834 78.456 41.0992 78.6033 41.3852C78.7505 41.6712 78.778 42.004 78.6799 42.3103C78.1715 43.8359 77.1533 45.14 75.7966 46.0032C74.4398 46.8664 72.8272 47.2362 71.2299 47.0503C70.4005 46.9046 69.609 46.593 68.9028 46.1343C68.1965 45.6755 67.5902 45.0789 67.1199 44.3803C66.6428 43.7406 66.3072 43.0068 66.1352 42.2275C65.9632 41.4482 65.9589 40.6413 66.1225 39.8602C66.2861 39.0792 66.6139 38.3418 67.0841 37.697C67.5543 37.0522 68.1562 36.5148 68.8499 36.1203C69.8563 35.5084 71.0122 35.1866 72.1899 35.1903V30.5303C72.1899 30.2094 72.3174 29.9016 72.5443 29.6747C72.7712 29.4478 73.079 29.3203 73.3999 29.3203C73.57 29.3245 73.7371 29.3655 73.8899 29.4403Z" fill="#7432FF"/>
<path d="M72.21 26.8901C72.21 26.6924 72.2686 26.499 72.3785 26.3346C72.4884 26.1701 72.6446 26.0419 72.8273 25.9663C73.01 25.8906 73.2111 25.8708 73.4051 25.9094C73.599 25.9479 73.7772 26.0432 73.9171 26.183C74.0569 26.3229 74.1522 26.5011 74.1908 26.695C74.2293 26.889 74.2095 27.0901 74.1338 27.2728C74.0582 27.4555 73.93 27.6117 73.7655 27.7216C73.6011 27.8315 73.4077 27.8901 73.21 27.8901C72.9447 27.8901 72.6904 27.7848 72.5029 27.5972C72.3153 27.4097 72.21 27.1554 72.21 26.8901Z" fill="#E8505B"/>
<path d="M101.83 59.2702C101.83 59.2702 101.53 59.2702 101.04 59.5202C100.343 59.817 99.7538 60.3194 99.3502 60.9602C99.0709 61.3951 98.8932 61.8873 98.8302 62.4002C98.7642 62.9872 98.8683 63.5808 99.1302 64.1102C99.4279 64.7185 99.8926 65.2295 100.47 65.5836C101.047 65.9377 101.713 66.1204 102.39 66.1102C103.063 66.0446 103.704 65.7874 104.236 65.3692C104.767 64.9509 105.168 64.3891 105.39 63.7502C105.593 63.1959 105.628 62.5942 105.49 62.0202C105.364 61.5201 105.132 61.0529 104.81 60.6502C104.333 60.0591 103.688 59.6267 102.96 59.4102C102.45 59.2702 102.14 59.2902 102.14 59.2602C102.213 59.2459 102.288 59.2459 102.36 59.2602C102.45 59.2517 102.54 59.2517 102.63 59.2602C102.75 59.2483 102.871 59.2483 102.99 59.2602C103.771 59.4409 104.472 59.8688 104.99 60.4802C105.349 60.8954 105.605 61.3885 105.74 61.9202C105.893 62.5351 105.865 63.1808 105.66 63.7802C105.436 64.442 105.031 65.0276 104.49 65.4702C103.929 65.9562 103.229 66.2536 102.49 66.3202C101.738 66.3467 100.997 66.1369 100.37 65.7202C99.7827 65.3388 99.312 64.8024 99.0102 64.1702C98.7283 63.6043 98.6237 62.9665 98.7102 62.3402C98.7807 61.7948 98.9795 61.2739 99.2902 60.8202C99.7189 60.1584 100.35 59.6532 101.09 59.3802C101.204 59.337 101.321 59.3035 101.44 59.2802C101.526 59.2679 101.614 59.2679 101.7 59.2802C101.76 59.2602 101.83 59.2602 101.83 59.2702Z" fill="#263238"/>
<path d="M110.66 68.05C110.66 68.05 110.48 68.05 110.17 68.22C109.755 68.4189 109.407 68.7353 109.17 69.13C108.976 69.4234 108.863 69.7628 108.842 70.1139C108.821 70.4651 108.893 70.8156 109.05 71.13C109.221 71.5129 109.504 71.8347 109.862 72.0523C110.22 72.27 110.636 72.3733 111.055 72.3483C111.473 72.3233 111.874 72.1712 112.204 71.9125C112.534 71.6537 112.776 71.3005 112.9 70.9C113.021 70.5601 113.048 70.1938 112.977 69.8399C112.907 69.4861 112.742 69.1578 112.5 68.89C112.21 68.5224 111.817 68.2506 111.37 68.11C111.04 68.02 110.85 68.02 110.85 68C111.027 67.9505 111.214 67.9505 111.39 68C111.883 68.1119 112.326 68.3824 112.65 68.77C112.878 69.0324 113.042 69.3438 113.13 69.68C113.253 70.0706 113.253 70.4895 113.13 70.88C112.984 71.3218 112.712 71.7113 112.348 72.0008C111.984 72.2904 111.543 72.4673 111.08 72.51C110.613 72.5206 110.154 72.3959 109.756 72.151C109.359 71.9062 109.041 71.5516 108.84 71.13C108.662 70.7639 108.596 70.3535 108.65 69.95C108.695 69.5912 108.826 69.2483 109.03 68.95C109.302 68.5295 109.707 68.2125 110.18 68.05C110.338 68.0144 110.502 68.0144 110.66 68.05Z" fill="#263238"/>
<path d="M100.37 41.2702C100.37 41.2702 100.37 41.1202 100.37 40.8202C100.37 40.5202 100.37 40.0602 100.37 39.4802C100.37 39.1902 100.37 38.8602 100.37 38.4802C100.37 38.1002 100.37 37.7202 100.29 37.3002C100.21 36.8802 100.22 36.4102 100.18 35.9202C100.166 35.6647 100.132 35.4106 100.08 35.1602C100.03 34.9002 99.9801 34.6402 99.9301 34.3602C99.5086 31.7027 98.6894 29.1238 97.5001 26.7102C95.911 23.4953 93.7138 20.6189 91.0301 18.2402L89.9001 17.2402C89.5001 16.9302 89.0701 16.6402 88.6501 16.3302L88.0101 15.8802C87.8021 15.7163 87.5814 15.5691 87.3501 15.4402L85.9601 14.6302L85.2501 14.2302L84.5001 13.8902L82.9801 13.1902C82.4601 12.9702 81.9101 12.8202 81.3701 12.6202L80.5501 12.3402L80.1401 12.2102L79.7101 12.1102C78.5635 11.805 77.3975 11.5778 76.2201 11.4302C75.6201 11.3602 75.0201 11.2502 74.4101 11.2102H72.5601C72.2501 11.2102 71.9401 11.2102 71.6201 11.2102L70.6801 11.2802C70.0601 11.3402 69.4201 11.3602 68.7901 11.4402C67.5075 11.6242 66.2381 11.8914 64.9901 12.2402L63.9901 12.5102L63.5001 12.5902L63.0401 12.7702L61.1701 13.5002C60.5601 13.7702 59.9601 14.1002 59.3601 14.4002C59.0601 14.5602 58.7401 14.6902 58.4501 14.8802L57.5801 15.4302C56.4134 16.1751 55.2976 16.9969 54.2401 17.8902L52.7001 19.3102L52.3101 19.6802L51.9601 20.0802L51.2501 20.8802L50.5501 21.6902L49.9101 22.5602L49.2801 23.4402L48.9701 23.8802C48.8701 24.0302 48.7801 24.1902 48.6901 24.3502L47.5901 26.2402L46.6701 28.2402C44.3122 33.7913 43.8311 39.9606 45.3001 45.8102L45.9001 47.8902C46.1601 48.5802 46.4301 49.2502 46.6901 49.8902L46.8901 50.4002L47.1301 50.8802L47.6201 51.8802L48.1101 52.8802L48.6801 53.7902L49.2601 54.6902L49.5401 55.1402L49.8701 55.5602L51.1601 57.2302C52.0989 58.2676 53.1008 59.2462 54.1601 60.1602L54.9301 60.8402C55.1901 61.0602 55.4801 61.2402 55.7501 61.4502C56.3101 61.8402 56.8401 62.2502 57.4101 62.6202L59.1401 63.6202L59.5001 63.8902L59.9501 64.1002L60.8501 64.5102C62.035 65.0501 63.2544 65.5111 64.5001 65.8902C65.1201 66.0602 65.7401 66.1902 66.3601 66.3402L67.2701 66.5502C67.5801 66.6202 67.8901 66.6402 68.2001 66.6802L70.0401 66.9202C70.6501 66.9802 71.2601 66.9202 71.8601 66.9902C73.041 67.037 74.2238 67.0036 75.4001 66.8902H75.8401L76.2701 66.8202L77.1201 66.6702C77.6801 66.5602 78.2501 66.4902 78.7901 66.3602L80.4101 65.9102L81.2001 65.6902L81.9701 65.3902L83.4701 64.8102C83.7182 64.7187 83.9589 64.6084 84.1901 64.4802L84.8901 64.1302C85.3501 63.8902 85.8201 63.6702 86.2601 63.4302L87.5401 62.6202C90.557 60.6859 93.1717 58.1867 95.2401 55.2602L95.9201 54.3202L96.4801 53.3202L97.0301 52.3902C97.1201 52.2302 97.2101 52.0902 97.2901 51.9302L97.5001 51.4702C97.7935 50.8502 98.0635 50.2602 98.3101 49.7002C98.5601 49.1302 98.7201 48.5702 98.9101 48.0502C99.0001 47.7802 99.0901 47.5302 99.1801 47.2802C99.2672 47.0421 99.3374 46.7981 99.3901 46.5502C99.5101 46.0702 99.6101 45.6202 99.7101 45.2002C99.8101 44.7802 99.9101 44.4002 99.9801 44.0502C100.05 43.7002 100.07 43.3602 100.11 43.0502C100.19 42.4768 100.25 42.0368 100.29 41.7302C100.29 41.4302 100.37 41.2802 100.37 41.2802C100.37 41.2802 100.37 41.4302 100.32 41.7302C100.27 42.0302 100.23 42.4802 100.16 43.0602C100.16 43.3502 100.09 43.6802 100.04 44.0602C99.9901 44.4402 99.8801 44.8002 99.7901 45.2202C99.7001 45.6402 99.5901 46.0902 99.4801 46.5702C99.4274 46.8214 99.3573 47.0687 99.2701 47.3102C99.1801 47.5602 99.1001 47.8102 99.0101 48.0802C98.8201 48.6002 98.6601 49.1702 98.4201 49.7402L97.6101 51.5202L97.4001 51.9902C97.3201 52.1502 97.2301 52.2902 97.1401 52.4502L96.6001 53.3902C96.4201 53.7102 96.2301 54.0302 96.0301 54.3902C95.8301 54.7502 95.5901 55.0202 95.3601 55.3902C93.2861 58.3417 90.6614 60.8646 87.6301 62.8202L86.3501 63.6302C85.9101 63.8802 85.4401 64.1002 84.9701 64.3402L84.2701 64.7002C84.0344 64.8263 83.7905 64.9366 83.5401 65.0302L82.0301 65.6202C81.7801 65.7202 81.5301 65.8302 81.2701 65.9202L80.4701 66.1402L78.8401 66.6002C78.2901 66.7402 77.7201 66.8102 77.1501 66.9202L76.3001 67.0702L75.8601 67.1402H75.4301C74.2382 67.2708 73.0388 67.3209 71.8401 67.2902C71.2401 67.2902 70.6201 67.2902 70.0101 67.2202L68.1601 66.8902C67.8501 66.8902 67.5301 66.8202 67.2201 66.7602L66.3001 66.5402C65.6801 66.3902 65.0501 66.2702 64.4301 66.0902C63.1809 65.7117 61.9582 65.2507 60.7701 64.7102L59.8601 64.2902C59.7101 64.2202 59.5601 64.1602 59.4101 64.0802L58.9701 63.8302L57.2201 62.8302C56.6601 62.4702 56.1201 62.0502 55.5601 61.6502C55.273 61.4615 54.9959 61.2579 54.7301 61.0402L53.9501 60.3602C52.8849 59.4276 51.8827 58.4254 50.9501 57.3602L49.6401 55.6802L49.3101 55.2502L49.0201 54.8002L48.5001 53.8902L47.9201 52.9702L47.4201 51.9702L46.9301 50.9702L46.6801 50.4802L46.4801 49.9702C46.2201 49.2902 45.9501 48.6002 45.6801 47.9202L45.0501 45.8902C43.5611 39.9873 44.0494 33.7589 46.4401 28.1602C46.7501 27.4802 47.0501 26.8102 47.3601 26.1602L48.5001 24.2102C48.6001 24.0502 48.6801 23.8902 48.7801 23.7402L49.1001 23.2902L49.7401 22.4102L50.3801 21.5302L51.0901 20.7102L51.8001 19.9002L52.1601 19.5002L52.5501 19.1302L54.1001 17.6702C55.1782 16.7795 56.314 15.961 57.5001 15.2202L58.3801 14.6602C58.6701 14.4802 58.9901 14.3402 59.2901 14.1802C59.9001 13.8802 60.5001 13.5502 61.1201 13.2802L63.0101 12.5502L63.4701 12.3602L63.9501 12.2302L64.9501 11.9602C66.2107 11.6076 67.4936 11.3403 68.7901 11.1602C69.4301 11.0802 70.0701 11.0502 70.7001 11.0002L71.7001 10.9302C72.0101 10.9302 72.3301 10.9302 72.6401 10.9302H74.5101C75.1201 10.9302 75.7301 11.0802 76.3301 11.1402C77.5178 11.2944 78.6938 11.5282 79.8501 11.8402L80.2801 11.9402L80.6901 12.0802L81.5201 12.3602C82.0601 12.5602 82.6101 12.7202 83.1301 12.9402L84.6701 13.6402L85.4201 13.9902C85.6701 14.1202 85.9001 14.2602 86.1401 14.4002L87.5401 15.2202C87.7721 15.3481 87.9928 15.4953 88.2001 15.6602L88.8401 16.1202C89.2601 16.4302 89.6901 16.7202 90.0901 17.0302L91.2301 18.0302C93.9249 20.4284 96.126 23.3292 97.7101 26.5702C98.931 28.9963 99.7676 31.5973 100.19 34.2802C100.24 34.5602 100.29 34.8302 100.33 35.0902C100.382 35.3406 100.416 35.5947 100.43 35.8502C100.43 36.3368 100.46 36.7968 100.52 37.2302C100.52 37.6602 100.59 38.0502 100.59 38.4202C100.59 38.7902 100.59 39.1102 100.59 39.4202C100.59 40.0002 100.59 40.4202 100.59 40.7602C100.59 41.1002 100.37 41.2702 100.37 41.2702Z" fill="#263238"/>
</g>
<defs>
<clipPath id="clip0_1585_530">
<rect width="713.03" height="428.31" fill="white"/>
</clipPath>
</defs>
</svg>
