<svg width="102" height="102" viewBox="0 0 102 102" fill="none" xmlns="http://www.w3.org/2000/svg">
<circle cx="51" cy="51" r="51" fill="#00549A"/>
<path d="M69.5342 23.5162H63.6538V20.8855C63.6538 20.0344 62.7253 19.6475 61.8742 19.6475H57.3091C56.2259 16.5525 53.5178 15.005 50.4227 15.005C47.3618 14.8899 44.5777 16.7668 43.5364 19.6475H39.0486C38.1975 19.6475 37.3464 20.0344 37.3464 20.8855V23.5162H31.4657C27.9809 23.5534 25.13 26.3024 24.9662 29.7835V74.1193C24.9662 77.5239 28.0612 79.9998 31.4657 79.9998H69.5342C72.9388 79.9998 76.0338 77.5239 76.0338 74.1193V29.7837C75.87 26.3024 73.019 23.5534 69.5342 23.5162ZM40.4412 22.7425H44.6969C45.4398 22.6519 46.0365 22.0867 46.1671 21.3498C46.6253 19.3543 48.376 17.9219 50.4227 17.8679C52.4505 17.9294 54.1749 19.3663 54.601 21.3498C54.7397 22.1122 55.3758 22.6846 56.1485 22.7425H60.5589V28.9325H40.4412V22.7425ZM72.9388 74.1195C72.9388 75.8218 71.2365 76.905 69.5342 76.905H31.4657C29.7635 76.905 28.0612 75.8218 28.0612 74.1195V29.7837C28.2191 28.0118 29.687 26.6438 31.4657 26.6114H37.3462V30.5575C37.428 31.4245 38.1788 32.073 39.0485 32.0277H61.874C62.7597 32.0761 63.5341 31.4365 63.6536 30.5575V26.6112H69.5341C71.3126 26.6438 72.7807 28.0116 72.9386 29.7835V74.1195H72.9388Z" fill="white"/>
<path d="M44.5421 49.5918C43.9617 48.98 42.9982 48.9455 42.3756 49.5145L37.4235 54.2343L35.3344 52.0678C34.754 51.456 33.7905 51.4216 33.1678 51.9905C32.5685 52.6184 32.5685 53.6064 33.1678 54.2343L36.3402 57.4841C36.6147 57.7916 37.0113 57.9616 37.4234 57.9484C37.8315 57.9426 38.2209 57.7757 38.5066 57.4841L44.5418 51.7584C45.1401 51.2095 45.1801 50.2795 44.6311 49.6813C44.603 49.65 44.5732 49.6203 44.5421 49.5918Z" fill="white"/>
<path d="M66.7487 52.9189H48.9525C48.0978 52.9189 47.405 53.6118 47.405 54.4664C47.405 55.3211 48.0978 56.014 48.9525 56.014H66.7487C67.6034 56.014 68.2962 55.3211 68.2962 54.4664C68.2962 53.6118 67.6034 52.9189 66.7487 52.9189Z" fill="white"/>
<path d="M44.5421 37.2115C43.9617 36.5996 42.9982 36.5651 42.3756 37.1341L37.4235 41.854L35.3344 39.6874C34.754 39.0756 33.7905 39.0411 33.1678 39.6101C32.5685 40.238 32.5685 41.226 33.1678 41.854L36.3402 45.1037C36.6147 45.4112 37.0113 45.5812 37.4234 45.568C37.8315 45.5622 38.2209 45.3953 38.5066 45.1037L44.5418 39.378C45.1401 38.8292 45.1801 37.8991 44.6311 37.3009C44.603 37.2697 44.5732 37.2399 44.5421 37.2115Z" fill="white"/>
<path d="M66.7487 40.5386H48.9525C48.0978 40.5386 47.405 41.2314 47.405 42.0861C47.405 42.9408 48.0978 43.6336 48.9525 43.6336H66.7487C67.6034 43.6336 68.2962 42.9408 68.2962 42.0861C68.2962 41.2314 67.6034 40.5386 66.7487 40.5386Z" fill="white"/>
<path d="M44.5421 61.9716C43.9617 61.3598 42.9982 61.3255 42.3756 61.8943L37.4235 66.6142L35.3344 64.4476C34.754 63.8358 33.7905 63.8014 33.1678 64.3703C32.5685 64.9982 32.5685 65.9862 33.1678 66.6142L36.3402 69.8639C36.6147 70.1714 37.0113 70.3414 37.4234 70.3282C37.8315 70.3224 38.2209 70.1555 38.5066 69.8639L44.5418 64.1382C45.1401 63.5894 45.1801 62.6593 44.6311 62.0611C44.603 62.03 44.5732 62.0002 44.5421 61.9716Z" fill="white"/>
<path d="M66.7487 65.2988H48.9525C48.0978 65.2988 47.405 65.9916 47.405 66.8463C47.405 67.701 48.0978 68.3938 48.9525 68.3938H66.7487C67.6034 68.3938 68.2962 67.701 68.2962 66.8463C68.2962 65.9916 67.6034 65.2988 66.7487 65.2988Z" fill="white"/>
</svg>
