<svg width="651" height="456" viewBox="0 0 651 456" fill="none" xmlns="http://www.w3.org/2000/svg">
<g clip-path="url(#clip0_239_3079)" filter="url(#filter0_d_239_3079)">
<path d="M617.072 87.0635H33.9281C25.9934 87.0545 18.3863 83.8985 12.7756 78.2878C7.16498 72.6772 4.00896 65.0701 4 57.1354V29.9281C4.00896 21.9934 7.16498 14.3863 12.7756 8.77563C18.3863 3.16497 25.9934 0.00896456 33.9281 0H617.072C625.007 0.00896192 632.614 3.16496 638.224 8.77562C643.835 14.3863 646.991 21.9934 647 29.9281V57.1354C646.991 65.0701 643.835 72.6772 638.224 78.2878C632.614 83.8985 625.007 87.0545 617.072 87.0635ZM33.9281 1.81381C26.4743 1.82226 19.3282 4.78702 14.0576 10.0576C8.787 15.3282 5.82226 22.4743 5.81381 29.9281V57.1354C5.82226 64.5892 8.787 71.7352 14.0576 77.0058C19.3282 82.2764 26.4743 85.2412 33.9281 85.2496H617.072C624.526 85.2412 631.672 82.2764 636.942 77.0058C642.213 71.7352 645.178 64.5892 645.186 57.1354V29.9281C645.178 22.4743 642.213 15.3282 636.942 10.0576C631.672 4.78702 624.526 1.82226 617.072 1.81381H33.9281Z" fill="#3F3D56"/>
<path d="M465.618 26.3004H78.367C68.8505 26.3004 61.1357 34.0151 61.1357 43.5317V43.5318C61.1357 53.0483 68.8505 60.763 78.367 60.763H465.618C475.135 60.763 482.849 53.0483 482.849 43.5317C482.849 34.0151 475.135 26.3004 465.618 26.3004Z" fill="#E6E6E6"/>
<path d="M516.405 177.43H129.154C119.638 177.43 111.923 185.145 111.923 194.661V194.662C111.923 204.178 119.638 211.893 129.154 211.893H516.405C525.922 211.893 533.637 204.178 533.637 194.661C533.637 185.145 525.922 177.43 516.405 177.43Z" fill="#6C63FF"/>
<path d="M516.405 287.004H129.154C119.638 287.004 111.923 294.719 111.923 304.236V304.236C111.923 313.752 119.638 321.467 129.154 321.467H516.405C525.922 321.467 533.637 313.752 533.637 304.236C533.637 294.719 525.922 287.004 516.405 287.004Z" fill="#E6E6E6"/>
<path d="M516.405 396.578H129.154C119.638 396.578 111.923 404.293 111.923 413.81V413.81C111.923 423.326 119.638 431.041 129.154 431.041H516.405C525.922 431.041 533.637 423.326 533.637 413.81C533.637 404.293 525.922 396.578 516.405 396.578Z" fill="#E6E6E6"/>
<path d="M590.312 62.1474C589.899 62.737 589.269 63.1384 588.56 63.2634C587.851 63.3884 587.122 63.2267 586.532 62.8139L571.726 52.5112C571.136 52.0983 570.735 51.4681 570.61 50.7592C570.485 50.0504 570.646 49.3209 571.059 48.7312C571.472 48.1416 572.102 47.7401 572.811 47.6151C573.52 47.4901 574.249 47.6519 574.839 48.0647L589.646 58.3674C590.235 58.7803 590.637 59.4105 590.762 60.1194C590.887 60.8282 590.725 61.5577 590.312 62.1474Z" fill="#6C63FF"/>
<path d="M573.502 50.442C571.317 53.5634 568.255 55.9667 564.703 57.3478C561.152 58.729 557.27 59.026 553.55 58.2013C549.83 57.3765 546.438 55.4672 543.802 52.7145C541.167 49.9619 539.408 46.4897 538.746 42.737C538.084 38.9843 538.55 35.1197 540.085 31.6318C541.619 28.1439 544.154 25.1894 547.368 23.1419C550.581 21.0945 554.33 20.046 558.14 20.129C561.95 20.2121 565.649 21.4231 568.771 23.6087C572.952 26.5433 575.798 31.0164 576.685 36.0469C577.572 41.0774 576.427 46.2543 573.502 50.442ZM545.883 31.1031C544.244 33.4442 543.336 36.2189 543.273 39.0761C543.211 41.9334 543.997 44.7449 545.533 47.1553C547.069 49.5656 549.284 51.4665 551.9 52.6175C554.516 53.7685 557.415 54.1179 560.229 53.6216C563.044 53.1253 565.648 51.8055 567.712 49.8292C569.777 47.8529 571.209 45.3088 571.827 42.5186C572.446 39.7284 572.223 36.8174 571.187 34.1538C570.151 31.4902 568.349 29.1936 566.008 27.5543C562.867 25.3605 558.985 24.502 555.212 25.1673C551.439 25.8326 548.084 27.9674 545.883 31.1031Z" fill="#6C63FF"/>
<path d="M600.294 228.332H50.7057C50.4652 228.332 50.2345 228.237 50.0645 228.067C49.8944 227.897 49.7988 227.666 49.7988 227.425C49.7988 227.185 49.8944 226.954 50.0645 226.784C50.2345 226.614 50.4652 226.518 50.7057 226.518H600.294C600.534 226.518 600.765 226.614 600.935 226.784C601.105 226.954 601.201 227.185 601.201 227.425C601.201 227.666 601.105 227.897 600.935 228.067C600.765 228.237 600.534 228.332 600.294 228.332Z" fill="#3F3D56"/>
<path d="M600.294 337.952H50.7057C50.4652 337.952 50.2345 337.856 50.0645 337.686C49.8944 337.516 49.7988 337.285 49.7988 337.045C49.7988 336.804 49.8944 336.573 50.0645 336.403C50.2345 336.233 50.4652 336.138 50.7057 336.138H600.294C600.534 336.138 600.765 336.233 600.935 336.403C601.105 336.573 601.201 336.804 601.201 337.045C601.201 337.285 601.105 337.516 600.935 337.686C600.765 337.856 600.534 337.952 600.294 337.952Z" fill="#3F3D56"/>
<path d="M600.294 447.57H50.7057C50.4652 447.57 50.2345 447.475 50.0645 447.305C49.8944 447.135 49.7988 446.904 49.7988 446.663C49.7988 446.423 49.8944 446.192 50.0645 446.022C50.2345 445.852 50.4652 445.756 50.7057 445.756H600.294C600.534 445.756 600.765 445.852 600.935 446.022C601.105 446.192 601.201 446.423 601.201 446.663C601.201 446.904 601.105 447.135 600.935 447.305C600.765 447.475 600.534 447.57 600.294 447.57Z" fill="#3F3D56"/>
</g>
<defs>
<filter id="filter0_d_239_3079" x="0" y="0" width="651" height="455.57" filterUnits="userSpaceOnUse" color-interpolation-filters="sRGB">
<feFlood flood-opacity="0" result="BackgroundImageFix"/>
<feColorMatrix in="SourceAlpha" type="matrix" values="0 0 0 0 0 0 0 0 0 0 0 0 0 0 0 0 0 0 127 0" result="hardAlpha"/>
<feOffset dy="4"/>
<feGaussianBlur stdDeviation="2"/>
<feComposite in2="hardAlpha" operator="out"/>
<feColorMatrix type="matrix" values="0 0 0 0 0 0 0 0 0 0 0 0 0 0 0 0 0 0 0.25 0"/>
<feBlend mode="normal" in2="BackgroundImageFix" result="effect1_dropShadow_239_3079"/>
<feBlend mode="normal" in="SourceGraphic" in2="effect1_dropShadow_239_3079" result="shape"/>
</filter>
<clipPath id="clip0_239_3079">
<rect width="643" height="447.57" fill="white" transform="translate(4)"/>
</clipPath>
</defs>
</svg>
