<svg width="104" height="104" viewBox="0 0 104 104" fill="none" xmlns="http://www.w3.org/2000/svg">
<circle cx="52" cy="52" r="52" fill="#003B7D"/>
<path d="M26.3812 76.5499C25.4529 76.545 24.5639 76.174 23.9074 75.5176C23.2509 74.8611 22.8799 73.9721 22.875 73.0437V44.2062C22.8799 42.2832 23.646 40.4405 25.0058 39.0807C26.3655 37.721 28.2083 36.9549 30.1312 36.95H64.35C66.2762 36.9499 68.1238 37.7138 69.4876 39.0741C70.8514 40.4344 71.62 42.28 71.625 44.2062V63.4249C71.625 65.3512 70.8611 67.1987 69.5008 68.5625C68.1406 69.9263 66.2949 70.695 64.3687 70.6999H35.8312C35.5071 70.7026 35.1921 70.8076 34.9312 71L28.5 75.8562C27.8868 76.3094 27.1437 76.5527 26.3812 76.5499ZM30.1312 40.6999C29.2029 40.7049 28.3139 41.0759 27.6574 41.7323C27.0009 42.3888 26.6299 43.2778 26.625 44.2062V72.5749L32.6812 67.9999C33.5925 67.3232 34.6962 66.9553 35.8312 66.9499H64.35C65.2849 66.9499 66.1815 66.5786 66.8425 65.9175C67.5036 65.2564 67.875 64.3598 67.875 63.4249V44.2062C67.8701 43.2778 67.4991 42.3888 66.8426 41.7323C66.1861 41.0759 65.2971 40.7049 64.3687 40.6999H30.1312Z" fill="#F5F5F5"/>
<path d="M54.6375 55.8687C55.673 55.8687 56.5125 55.0292 56.5125 53.9937C56.5125 52.9581 55.673 52.1187 54.6375 52.1187C53.6019 52.1187 52.7625 52.9581 52.7625 53.9937C52.7625 55.0292 53.6019 55.8687 54.6375 55.8687Z" fill="#F5F5F5"/>
<path d="M47.3625 55.8687C48.3981 55.8687 49.2375 55.0292 49.2375 53.9937C49.2375 52.9581 48.3981 52.1187 47.3625 52.1187C46.327 52.1187 45.4875 52.9581 45.4875 53.9937C45.4875 55.0292 46.327 55.8687 47.3625 55.8687Z" fill="#F5F5F5"/>
<path d="M39.8625 55.8687C40.8981 55.8687 41.7375 55.0292 41.7375 53.9937C41.7375 52.9581 40.8981 52.1187 39.8625 52.1187C38.827 52.1187 37.9875 52.9581 37.9875 53.9937C37.9875 55.0292 38.827 55.8687 39.8625 55.8687Z" fill="#F5F5F5"/>
<path d="M77.25 57.575C76.7527 57.575 76.2758 57.3774 75.9242 57.0258C75.5725 56.6741 75.375 56.1972 75.375 55.7V36.7062C75.3701 35.7778 74.9991 34.8888 74.3426 34.2324C73.6861 33.5759 72.7971 33.2049 71.8687 33.2H34.125C33.6277 33.2 33.1508 33.0024 32.7992 32.6508C32.4475 32.2991 32.25 31.8222 32.25 31.325C32.25 30.8277 32.4475 30.3508 32.7992 29.9991C33.1508 29.6475 33.6277 29.45 34.125 29.45H71.8687C73.7917 29.4549 75.6345 30.221 76.9942 31.5807C78.354 32.9405 79.12 34.7832 79.125 36.7062V55.7C79.125 56.1972 78.9275 56.6741 78.5758 57.0258C78.2242 57.3774 77.7473 57.575 77.25 57.575Z" fill="#F5F5F5"/>
</svg>
