<svg width="102" height="102" viewBox="0 0 102 102" fill="none" xmlns="http://www.w3.org/2000/svg">
<circle cx="51" cy="51" r="51" fill="#00549A"/>
<g clip-path="url(#clip0_1614_823)">
<path d="M24.865 57.7199C22.959 57.7199 21.111 57.1059 19.908 56.4889L19 60.1839C20.114 60.7999 22.344 61.3859 24.602 61.3859C30.028 61.3859 32.579 58.5709 32.579 55.2569C32.579 52.4709 30.936 50.6529 27.447 49.3619C24.895 48.3929 23.781 47.8369 23.781 46.5759C23.781 45.5489 24.719 44.6689 26.655 44.6689C28.591 44.6689 29.999 45.2269 30.79 45.6079L31.788 42.0009C30.614 41.4729 28.972 41.0039 26.743 41.0039C22.08 41.0039 19.264 43.5839 19.264 46.9569C19.264 49.8309 21.405 51.6489 24.69 52.7929C27.065 53.6439 28.004 54.3479 28.004 55.5779C28.004 56.8699 26.918 57.7199 24.865 57.7199Z" fill="white"/>
<path d="M48.211 57.4267H40.088V52.7347H47.36V49.0977H40.088V44.9917H47.801V41.3257H35.6V61.0927H48.211V57.4267Z" fill="white"/>
<path d="M63.326 62.5929C66.101 62.5929 68.644 61.5939 70.624 59.9399L74.561 63.6139C74.555 64.0239 74.704 64.4299 75.026 64.7309L80.803 70.1249C81.092 70.3949 81.458 70.5279 81.825 70.5279C82.226 70.5279 82.627 70.3679 82.922 70.0499C83.487 69.4459 83.454 68.4939 82.85 67.9299L77.073 62.5369C76.751 62.2359 76.333 62.1169 75.927 62.1499L72.042 58.5249C73.713 56.5419 74.726 53.9839 74.726 51.1929C74.726 44.9079 69.614 39.7959 63.329 39.7959C57.044 39.7959 51.929 44.9099 51.929 51.1939C51.928 57.4809 57.041 62.5929 63.326 62.5929ZM63.326 42.7969C67.957 42.7969 71.724 46.5639 71.724 51.1939C71.724 55.8239 67.955 59.5919 63.326 59.5919C58.697 59.5919 54.928 55.8239 54.928 51.1939C54.928 46.5639 58.695 42.7969 63.326 42.7969Z" fill="white"/>
</g>
<defs>
<clipPath id="clip0_1614_823">
<rect width="64.325" height="64.325" fill="white" transform="translate(19 23)"/>
</clipPath>
</defs>
</svg>
