<svg width="499" height="565" viewBox="0 0 499 565" fill="none" xmlns="http://www.w3.org/2000/svg">
<path d="M455.5 300.559C455.5 331.766 431.858 360.133 393.378 380.728C354.918 401.312 301.753 414.059 243 414.059C184.247 414.059 131.082 401.312 92.6222 380.728C54.1416 360.133 30.5 331.766 30.5 300.559C30.5 269.352 54.1416 240.985 92.6222 220.39C131.082 199.806 184.247 187.059 243 187.059C301.753 187.059 354.918 199.806 393.378 220.39C431.858 240.985 455.5 269.352 455.5 300.559Z" stroke="#99BFDA"/>
<path d="M378.455 134.778C403.412 153.487 411.048 190.599 402.996 235.688C394.95 280.746 371.257 333.608 333.802 383.572C296.347 433.537 252.252 471.105 211.26 491.465C170.238 511.84 132.473 514.918 107.516 496.21C82.5592 477.502 74.923 440.389 82.9747 395.3C91.0208 350.242 114.714 297.381 152.169 247.416C189.624 197.451 233.719 159.883 274.712 139.523C315.733 119.148 353.498 116.07 378.455 134.778Z" stroke="#99BFDA"/>
<g filter="url(#filter0_d_1428_791)">
<path d="M128 264.631C97.69 328.005 115.371 374.993 128 390.566H16.3316C-6.0021 354.817 7.02588 291.714 16.3316 264.631H128Z" fill="#F2F2F2"/>
<rect x="22" y="283.559" width="82" height="9" fill="#00549A"/>
<line x1="15.0056" y1="306.059" x2="104.006" y2="307.059" stroke="#99BFDA"/>
<line x1="15.0056" y1="315.059" x2="104.006" y2="316.059" stroke="#99BFDA"/>
<line x1="15.0056" y1="324.059" x2="104.006" y2="325.059" stroke="#99BFDA"/>
<line x1="15.0056" y1="333.059" x2="104.006" y2="334.059" stroke="#99BFDA"/>
<line x1="15.0056" y1="342.059" x2="104.006" y2="343.059" stroke="#99BFDA"/>
<line x1="15.0056" y1="351.059" x2="104.006" y2="352.059" stroke="#99BFDA"/>
<line x1="15.0056" y1="360.059" x2="104.006" y2="361.059" stroke="#99BFDA"/>
<line x1="15.0056" y1="369.059" x2="104.006" y2="370.059" stroke="#99BFDA"/>
<line x1="15.0056" y1="378.059" x2="104.006" y2="379.059" stroke="#99BFDA"/>
</g>
<g filter="url(#filter1_d_1428_791)">
<path d="M365 250.559C396.777 321.011 378.24 373.247 365 390.559H482.072C505.486 350.817 491.828 280.666 482.072 250.559H365Z" fill="#F2F2F2"/>
<rect width="85.7132" height="9" transform="matrix(-1 0 0 1 472.185 273.559)" fill="#00549A"/>
<line y1="-0.5" x2="93.0356" y2="-0.5" transform="matrix(-0.999942 0.0107486 0.0117439 0.999931 479.502 296.559)" stroke="#99BFDA"/>
<line y1="-0.5" x2="93.0356" y2="-0.5" transform="matrix(-0.999942 0.0107486 0.0117439 0.999931 479.502 305.559)" stroke="#99BFDA"/>
<line y1="-0.5" x2="93.0356" y2="-0.5" transform="matrix(-0.999942 0.0107486 0.0117439 0.999931 479.502 314.559)" stroke="#99BFDA"/>
<line y1="-0.5" x2="93.0356" y2="-0.5" transform="matrix(-0.999942 0.0107486 0.0117439 0.999931 479.502 323.559)" stroke="#99BFDA"/>
<line y1="-0.5" x2="93.0356" y2="-0.5" transform="matrix(-0.999942 0.0107486 0.0117439 0.999931 479.502 332.559)" stroke="#99BFDA"/>
<line y1="-0.5" x2="93.0356" y2="-0.5" transform="matrix(-0.999942 0.0107486 0.0117439 0.999931 479.502 341.559)" stroke="#99BFDA"/>
<line y1="-0.5" x2="93.0356" y2="-0.5" transform="matrix(-0.999942 0.0107486 0.0117439 0.999931 479.502 350.559)" stroke="#99BFDA"/>
<line y1="-0.5" x2="93.0356" y2="-0.5" transform="matrix(-0.999942 0.0107486 0.0117439 0.999931 479.502 359.559)" stroke="#99BFDA"/>
<line y1="-0.5" x2="93.0356" y2="-0.5" transform="matrix(-0.999942 0.0107486 0.0117439 0.999931 479.502 368.559)" stroke="#99BFDA"/>
</g>
<g clip-path="url(#clip0_1428_791)">
<g filter="url(#filter2_d_1428_791)">
<path d="M261.985 -6.7276C293.895 55.6041 275.458 101.91 262.251 117.272L379.322 117.021C402.661 81.771 388.869 19.6671 379.056 -6.97863L261.985 -6.7276Z" fill="#F2F2F2"/>
</g>
<rect width="85.7132" height="9" transform="matrix(-0.999998 0.00214422 0.00214422 0.999998 373.202 8.03394)" fill="#00549A"/>
<line y1="-0.5" x2="93.0356" y2="-0.5" transform="matrix(-0.999917 0.0128926 0.013888 0.999904 380.568 31.0182)" stroke="#99BFDA"/>
<line y1="-0.5" x2="93.0356" y2="-0.5" transform="matrix(-0.999917 0.0128926 0.013888 0.999904 380.587 40.0182)" stroke="#99BFDA"/>
<line y1="-0.5" x2="93.0356" y2="-0.5" transform="matrix(-0.999917 0.0128926 0.013888 0.999904 380.606 49.0182)" stroke="#99BFDA"/>
<line y1="-0.5" x2="93.0356" y2="-0.5" transform="matrix(-0.999917 0.0128926 0.013888 0.999904 380.625 58.0182)" stroke="#99BFDA"/>
<line y1="-0.5" x2="93.0356" y2="-0.5" transform="matrix(-0.999917 0.0128926 0.013888 0.999904 380.645 67.0182)" stroke="#99BFDA"/>
<line y1="-0.5" x2="93.0356" y2="-0.5" transform="matrix(-0.999917 0.0128926 0.013888 0.999904 380.664 76.0181)" stroke="#99BFDA"/>
<line y1="-0.5" x2="93.0356" y2="-0.5" transform="matrix(-0.999917 0.0128926 0.013888 0.999904 380.684 85.0181)" stroke="#99BFDA"/>
<line y1="-0.5" x2="93.0356" y2="-0.5" transform="matrix(-0.999917 0.0128926 0.013888 0.999904 380.703 94.0181)" stroke="#99BFDA"/>
<line y1="-0.5" x2="93.0356" y2="-0.5" transform="matrix(-0.999917 0.0128926 0.013888 0.999904 380.722 103.018)" stroke="#99BFDA"/>
<g filter="url(#filter3_d_1428_791)">
<path d="M52.1009 47.7226C84.0112 110.054 65.5741 156.361 52.3668 171.722L169.438 171.471C192.777 136.221 178.985 74.1173 169.172 47.4716L52.1009 47.7226Z" fill="#F2F2F2"/>
</g>
<rect width="85.7132" height="9" transform="matrix(-0.999998 0.00214422 0.00214422 0.999998 163.318 62.4841)" fill="#00549A"/>
<line y1="-0.5" x2="93.0356" y2="-0.5" transform="matrix(-0.999917 0.0128926 0.013888 0.999904 170.684 85.4684)" stroke="#99BFDA"/>
<line y1="-0.5" x2="93.0356" y2="-0.5" transform="matrix(-0.999917 0.0128926 0.013888 0.999904 170.703 94.4684)" stroke="#99BFDA"/>
<line y1="-0.5" x2="93.0356" y2="-0.5" transform="matrix(-0.999917 0.0128926 0.013888 0.999904 170.723 103.468)" stroke="#99BFDA"/>
<line y1="-0.5" x2="93.0356" y2="-0.5" transform="matrix(-0.999917 0.0128926 0.013888 0.999904 170.742 112.468)" stroke="#99BFDA"/>
<line y1="-0.5" x2="93.0356" y2="-0.5" transform="matrix(-0.999917 0.0128926 0.013888 0.999904 170.761 121.468)" stroke="#99BFDA"/>
<line y1="-0.5" x2="93.0356" y2="-0.5" transform="matrix(-0.999917 0.0128926 0.013888 0.999904 170.78 130.468)" stroke="#99BFDA"/>
<line y1="-0.5" x2="93.0356" y2="-0.5" transform="matrix(-0.999917 0.0128926 0.013888 0.999904 170.8 139.468)" stroke="#99BFDA"/>
<line y1="-0.5" x2="93.0356" y2="-0.5" transform="matrix(-0.999917 0.0128926 0.013888 0.999904 170.819 148.468)" stroke="#99BFDA"/>
<line y1="-0.5" x2="93.0356" y2="-0.5" transform="matrix(-0.999917 0.0128926 0.013888 0.999904 170.838 157.468)" stroke="#99BFDA"/>
<path d="M273.294 517.569L256.509 519.06C256.509 519.06 244.927 534.169 242.034 536.354C239.141 538.539 220.457 542.942 221.194 546.395C221.93 549.847 226.467 553.835 233.539 553.096C240.611 552.357 246.602 551.793 249.318 550.883C258.086 548.215 267.049 546.239 276.124 544.972C276.84 544.872 277.51 544.561 278.049 544.08C278.588 543.598 278.973 542.967 279.153 542.266C276.504 535.125 275.765 527.716 273.294 517.569Z" fill="#F1AB88"/>
<path d="M276.03 525.878C269.965 528.285 265.882 530.018 260.833 529.747C260.534 529.729 260.237 529.69 259.943 529.629C255.352 533.919 251.057 536.831 252.485 534.153C253.08 533.056 254.753 530.556 255.717 528.471C253.936 527.727 252.22 526.838 250.585 525.813C246.938 530.346 240.652 535.166 239.029 536.39C235.767 538.857 214.73 543.811 215.557 547.7C216.384 551.589 221.501 556.067 229.469 555.248C238.531 554.118 247.526 552.5 256.415 550.401C258.383 548.691 260.823 547.231 264.234 547.224C265.197 547.221 266.158 547.313 267.103 547.499C269.754 546.979 272.591 546.488 275.607 546.068C276.547 545.937 277.413 545.485 278.058 544.787C278.703 544.09 279.088 543.191 279.148 542.242C279.396 538.381 277.345 531.801 276.03 525.878Z" fill="#5D4032"/>
<path d="M279.016 539.363C276.962 539.912 274.441 540.181 270.183 541.178C258.306 543.903 257.925 547.315 253.472 548.696C241.28 552.481 231.226 552.933 228.304 552.646C223.913 552.716 218.821 551.607 215.52 547.436C215.508 547.53 215.509 547.624 215.521 547.718C216.347 551.607 221.465 556.085 229.433 555.266C238.495 554.136 247.49 552.518 256.379 550.419C258.346 548.709 260.787 547.249 264.198 547.242C265.161 547.239 266.122 547.331 267.066 547.517C269.718 546.997 272.555 546.506 275.571 546.086C276.511 545.955 277.377 545.503 278.022 544.805C278.667 544.108 279.052 543.209 279.111 542.26C279.159 542.116 279.016 539.363 279.016 539.363Z" fill="#361B10"/>
<path d="M306.63 517.498L323.421 518.916C323.421 518.916 335.061 533.975 337.969 536.148C340.877 538.321 359.568 542.644 358.853 546.099C358.137 549.555 353.605 553.563 346.53 552.854C339.455 552.145 333.468 551.607 330.742 550.709C321.967 548.072 313 546.128 303.922 544.894C303.206 544.798 302.534 544.49 301.991 544.011C301.449 543.531 301.061 542.902 300.876 542.201C303.495 535.067 304.196 527.655 306.63 517.498Z" fill="#F1AB88"/>
<path d="M303.93 525.818C309.999 528.199 314.095 529.914 319.136 529.622C319.437 529.602 319.737 529.562 320.032 529.5C324.642 533.77 328.943 536.664 327.504 533.992C326.904 532.898 325.226 530.405 324.253 528.324C326.029 527.573 327.739 526.676 329.368 525.644C333.04 530.161 339.347 534.954 340.968 536.172C344.248 538.625 365.299 543.488 364.489 547.38C363.679 551.273 358.587 555.773 350.615 554.988C341.547 553.897 332.543 552.317 323.643 550.257C321.674 548.555 319.221 547.106 315.81 547.113C314.847 547.115 313.887 547.211 312.943 547.401C310.29 546.892 307.451 546.413 304.433 546.007C303.493 545.878 302.625 545.429 301.978 544.735C301.33 544.041 300.94 543.144 300.876 542.195C300.605 538.335 302.634 531.746 303.93 525.818Z" fill="#5D4032"/>
<path d="M301.001 539.316C303.051 539.856 305.579 540.114 309.841 541.093C321.723 543.767 322.119 547.178 326.585 548.539C338.798 552.272 348.848 552.681 351.769 552.382C356.166 552.432 361.248 551.302 364.531 547.117C364.546 547.21 364.546 547.305 364.531 547.398C363.727 551.291 358.629 555.791 350.657 555.006C341.588 553.914 332.585 552.335 323.685 550.275C321.716 548.573 319.263 547.124 315.852 547.131C314.889 547.132 313.929 547.229 312.985 547.419C310.331 546.91 307.492 546.431 304.475 546.024C303.534 545.896 302.667 545.447 302.019 544.753C301.371 544.059 300.982 543.162 300.918 542.213C300.87 542.07 301.001 539.316 301.001 539.316Z" fill="#361B10"/>
<path d="M248.444 396.855C240.484 306.781 249.439 267.19 249.439 267.19L293.964 238.962L339.614 266.997C339.614 266.997 343.215 307.925 335.642 398.033C335.642 398.033 332.798 487.262 332.799 524.152C332.799 524.152 312.236 529.715 300.836 523.729C300.836 523.729 301.613 426.322 301.884 410.675C302.096 398.182 299.137 341.63 296.464 315.352C296.418 314.897 296.205 314.475 295.866 314.169C295.527 313.862 295.086 313.693 294.629 313.694C294.173 313.695 293.733 313.866 293.395 314.174C293.057 314.482 292.846 314.905 292.802 315.36C290.241 341.649 283.594 398.222 283.866 410.714C284.198 426.36 277.943 523.779 277.943 523.779C266.569 529.789 246.543 524.337 246.543 524.337C246.38 487.447 248.444 396.855 248.444 396.855Z" fill="#29577B"/>
<g style="mix-blend-mode:multiply" opacity="0.35">
<path d="M340.191 318.365C333.166 319.027 315.938 319.931 306.934 316.856C300.818 314.768 294.169 309.515 287.392 313.995C275.58 321.802 259.504 319.406 245.255 316.749C245.912 282.821 249.439 267.19 249.439 267.19L293.964 238.962L339.615 266.997C339.615 266.997 341.054 283.437 340.191 318.365Z" fill="#29577B"/>
</g>
<path d="M314.034 139.544C311.486 140.831 308.908 142.081 306.275 143.182L306.186 143.212C302.998 144.279 299.792 145.279 296.532 146.076C290.471 144.832 284.446 143.516 278.273 142.626L278.207 142.584C276.065 141.326 273.918 140.049 271.86 138.647C271.638 138.45 271.441 138.259 271.261 138.08C268.267 134.896 265.631 131.388 262.691 128.15C259.75 124.912 256.703 122.045 253.948 118.807L253.75 118.43C253.582 118.107 253.426 117.79 253.264 117.467C259.208 117 264.774 116.359 268.523 114.819C280.067 110.077 280.018 87.3558 280.018 87.3558L305.708 87.3007C305.708 87.3007 305.756 110.046 317.321 114.714C321.231 116.304 327.099 116.902 333.314 117.356C330.479 121.636 327.86 126.059 325.008 130.698C324.329 131.795 322.989 133.485 322.19 134.499C321.874 134.781 321.552 135.063 321.218 135.333L320.855 135.621C320.55 135.813 320.258 136.023 319.942 136.221C317.991 137.375 316.051 138.522 314.034 139.544Z" fill="#F1AB88"/>
<path d="M267.181 127.105C268.969 125.431 271.02 123.056 273.479 122.303C274.835 121.893 276.226 121.518 277.629 121.156C282.283 122.194 287.03 122.75 291.798 122.814C297.569 122.699 303.304 121.883 308.879 120.383C310.328 121.673 311.746 123.023 313.236 124.246C315.128 125.805 317.952 127.648 319.904 129.709C310.597 155.438 290.45 201.96 289.732 204.428L266.34 127.861C266.638 127.591 266.912 127.351 267.181 127.105Z" fill="#3A4962"/>
<g style="mix-blend-mode:multiply">
<path d="M263.624 120.815L274.334 113.968L292.652 122.968L311.344 113.889L322.083 120.69L302.571 146.063L292.88 131.593L283.251 146.105L263.624 120.815Z" fill="#BCADB4"/>
</g>
<path d="M242.755 220.552C238.273 178.284 222.704 130.63 224.875 126.064C228.764 117.879 250.961 118.975 264.05 115.924C266.688 117.289 269.217 118.433 271.645 119.409L290.898 182.374C291.532 180.134 314.563 127.153 315.786 118.147C317.356 117.438 318.968 116.668 320.621 115.803C333.729 118.797 357.877 116.321 361.802 124.483C364.143 129.351 347.348 173.567 342.988 218.499C339.288 256.594 347.994 304.964 348.791 308.871C348.791 308.871 326.734 314.162 310.427 307.206C303.406 304.228 298.846 295.002 293.174 260.512C293.174 260.512 289.267 302.451 275.992 307.938C264.782 312.565 237.634 309.11 237.634 309.11C238.449 304.912 247.127 261.796 242.755 220.552Z" fill="#1C8A9C"/>
<path opacity="0.65" d="M290.905 194.13C290.905 194.13 291.829 246.036 293.229 260.985C293.223 260.985 293.986 209.811 290.905 194.13Z" fill="#1E516A"/>
<g style="mix-blend-mode:multiply" opacity="0.35">
<path d="M261.688 137.118L254.366 135.416C254.416 133.752 254.418 120.841 254.483 117.339C258.264 117.05 262.69 116.675 265.932 115.92C268.408 117.196 270.722 120.794 273.012 121.705L290.064 186.087C290.657 183.99 313.241 128.963 314.364 120.527C315.838 119.865 317.022 117.462 318.573 116.651C322.405 117.529 329.221 117.095 334.174 117.432C334.054 119.826 332.512 133.674 332.364 136.901L324.774 138.713L330.074 144.532C327.82 149.194 290.764 200.654 290.764 200.654C289.805 199.13 259.504 152.375 255.846 142.955L261.688 137.118Z" fill="#18909C"/>
</g>
<path d="M272.237 113.973L255.909 116.785L255.946 133.749L266.381 135.911L258.554 143.572L290.907 197.805L290.874 182.374L272.237 113.973Z" fill="#2F96A6"/>
<path d="M316.238 113.879L332.192 118.346L330.43 135.217L319.834 136.299L326.836 144.718L290.739 197.524L290.705 181.758L316.238 113.879Z" fill="#2F96A6"/>
<g style="mix-blend-mode:multiply" opacity="0.5">
<path d="M344.601 160.363C344.703 160.65 347.042 161.956 347.15 162.243C348.448 165.754 349.669 169.3 350.877 172.847C348.142 184.627 345.784 196.496 344.161 208.489C342.522 220.725 341.852 233.071 342.155 245.413V245.413C342.819 276.28 348.181 305.856 348.797 308.901C348.797 308.901 345.985 309.572 341.631 310.114C339.212 296.753 331.457 265.644 329.694 235.162C329.847 225.369 341.04 171.438 344.601 160.363Z" fill="#52ACB5"/>
</g>
<g style="mix-blend-mode:multiply" opacity="0.5">
<path d="M243.734 233.994L243.696 233.024C243.601 231.157 243.487 229.288 243.356 227.416C243.355 227.063 243.306 226.71 243.276 226.351C243.128 224.42 242.955 222.487 242.755 220.552C242.572 218.811 242.354 217.057 242.147 215.304C239.34 193.486 233.489 170.507 228.941 153.081C234.004 156.793 249.126 185.408 251.488 197.357C260.137 241.076 252.434 290.378 244.47 309.807C240.365 309.475 237.622 309.128 237.622 309.128C238.29 305.756 243.923 277.719 243.986 245.617C243.978 241.799 243.904 237.908 243.734 233.994Z" fill="#52ACB5"/>
</g>
<g style="mix-blend-mode:multiply" opacity="0.55">
<path d="M294.039 112.166C282.479 112.191 277.237 108.431 275.73 107.537C280.037 99.1476 280.018 87.3678 280.018 87.3678L305.707 87.3127C305.707 87.3127 305.734 99.9904 310.574 108.36C309.768 108.679 301.16 112.151 294.039 112.166Z" fill="#DCB890"/>
</g>
<path d="M311.334 109.113L322.072 115.919L302.561 141.293L292.652 122.968L311.334 109.113Z" fill="#3A4962"/>
<path d="M274.323 109.192L263.614 116.045L283.24 141.334L293.065 122.967L274.323 109.192Z" fill="#3A4962"/>
<path d="M330.237 61.8089C326.043 56.0955 316.504 65.4297 316.504 65.4297C316.504 65.4297 310.586 72.3858 317.511 80.763C320.973 84.9455 324.957 81.7706 327.611 76.7788C330.265 71.787 333.251 65.8727 330.237 61.8089Z" fill="#F1AB88"/>
<path d="M324.207 77.3846C323.283 78.3264 322.101 79.0891 320.703 78.8407C320.394 78.7449 320.128 78.5448 319.95 78.2745C319.772 78.0043 319.692 77.6805 319.726 77.3583C320.123 76.1184 324.068 73.9013 323.075 70.4377C322.081 66.9741 326.501 63.5827 327.885 65.5011C328.964 66.9713 327.688 73.8157 324.207 77.3846Z" fill="#DC7B5C"/>
<path d="M255.26 61.9696C259.46 56.2383 269.009 65.5316 269.009 65.5316C269.009 65.5316 274.956 72.4622 268.068 80.869C264.624 85.0664 260.626 81.9085 257.951 76.9281C255.276 71.9478 252.264 66.0463 255.26 61.9696Z" fill="#F1AB88"/>
<path d="M261.381 77.5193C262.309 78.4571 263.494 79.2147 264.891 78.9603C265.199 78.8632 265.465 78.662 265.642 78.3909C265.819 78.1199 265.896 77.7958 265.862 77.4738C265.459 76.2356 261.505 74.0354 262.483 70.5675C263.462 67.0997 259.027 63.7273 257.652 65.6517C256.579 67.1264 257.872 73.9653 261.381 77.5193Z" fill="#DC7B5C"/>
<path d="M261.499 34.817C262.325 30.1344 265.513 26.177 269.545 22.9301C276.062 17.6604 284.18 14.7782 292.555 14.7602C300.93 14.7422 309.06 17.5897 315.6 22.8313C319.646 26.0609 322.85 29.9986 323.697 34.6836C323.697 34.6836 325.753 71.4554 316.637 85.5773C309.569 96.5164 300.65 102.461 292.776 102.478C284.902 102.495 275.934 96.5885 268.843 85.6798C259.576 71.5973 261.499 34.817 261.499 34.817Z" fill="#F1AB88"/>
<path d="M320.612 64.2238C321.587 48.1381 319.835 36.1884 318.906 34.7658C314.219 31.0075 310.545 26.1346 308.217 20.5906C308.217 20.5906 295.028 27.0296 274.13 24.5125C274.13 24.5125 270.258 29.9978 266.752 35.6498C265.055 38.3829 264.354 54.1029 264.848 64.2955C264.889 65.0323 264.767 65.7691 264.492 66.4535C264.217 67.138 263.795 67.7532 263.255 68.2555L262.575 68.8555C259.983 63.6356 257.385 41.6376 258.678 34.3562C262.308 13.8474 277.102 11.6488 291.834 11.6173C297.975 11.6391 304.036 13.0158 309.586 15.6495C310.715 15.3059 312.435 14.9071 312.404 14.6797C320.285 15.1896 324.342 26.4041 326.683 34.2104C329.06 42.1184 325.503 63.4951 322.933 68.7261C322.178 68.2539 321.564 67.5866 321.156 66.7943C320.747 66.002 320.559 65.1141 320.612 64.2238V64.2238Z" fill="#9A5335"/>
<g style="mix-blend-mode:multiply" opacity="0.35">
<path d="M312.01 22.8869C311.264 23.2117 310.535 23.5485 309.813 23.9032C309.224 22.8315 308.692 21.7297 308.217 20.6025C308.217 20.6025 295.028 27.0415 274.13 24.5244C274.13 24.5244 270.842 29.1824 267.579 34.3311C264.724 33.4882 262.012 32.2165 259.536 30.5594C264.279 13.6036 278.07 11.6826 291.828 11.6531C297.969 11.6749 304.03 13.0516 309.581 15.6853C310.709 15.3417 312.429 14.943 312.399 14.7156C314.775 14.9303 316.988 16.022 318.606 17.7789L318.529 17.8689C316.8 20.0524 314.561 21.7758 312.01 22.8869V22.8869Z" fill="#9A5335"/>
</g>
<path d="M257.958 10.8937C257.973 18.0765 269.766 15.0584 285.179 6.28617C300.282 -2.28783 307.813 5.11232 310.877 10.02C310.246 6.57141 309.041 3.25354 307.313 0.205112C315.159 3.88147 314.647 10.2753 313.615 13.8211C316.41 13.2464 320.574 13.0998 323.836 15.9959C323.836 15.9959 315.839 14.7561 312.906 17.2943C312.524 17.6243 311.288 18.2016 311.145 18.3336C302.897 27.4735 294.733 31.9204 277.716 30.7239C268.305 30.0617 265.166 28.9551 260.687 24.1761C255.346 18.4832 257.958 10.8937 257.958 10.8937Z" fill="#9A5335"/>
<g style="mix-blend-mode:multiply" opacity="0.5">
<path d="M277.692 30.694C268.825 30.0726 265.525 29.0621 261.43 24.9527C267.518 25.4544 274.383 22.8599 279.082 18.6119C279.248 20.9639 278.078 24.1089 274.955 27.719C282.468 26.4519 289.142 24.0972 295.393 19.0498C294.143 21.5605 292.88 25.7233 291.628 26.977C295.511 26.9686 305.849 22.4093 308.177 21.3628C300.814 28.4118 292.696 31.7513 277.692 30.694Z" fill="#9A5335"/>
</g>
<path d="M293.785 77.3781C294.717 77.3773 295.64 77.2048 296.509 76.8694C297.959 76.2677 298.865 75.338 299.06 74.2003C299.325 72.5836 294.229 50.3636 294.229 50.2678C294.26 50.1011 294.224 49.9288 294.129 49.7887C294.033 49.6487 293.886 49.5523 293.72 49.5207C293.552 49.4895 293.378 49.5264 293.237 49.6232C293.096 49.72 292.999 49.8688 292.968 50.0371C292.897 50.4443 297.964 72.9217 297.799 73.9696C297.687 74.6402 297.043 75.2581 296.04 75.6553C294.488 76.2572 292.546 76.2075 291.613 75.5032C291.546 75.4523 291.47 75.415 291.389 75.3935C291.307 75.3721 291.223 75.3668 291.14 75.3781C291.056 75.3894 290.976 75.417 290.904 75.4594C290.831 75.5017 290.768 75.5579 290.717 75.6249C290.614 75.761 290.569 75.9324 290.591 76.1017C290.614 76.2711 290.703 76.4245 290.838 76.5284C291.705 77.1192 292.738 77.4169 293.785 77.3781V77.3781Z" fill="#CE7959"/>
<path d="M284.316 38.4553C284.316 38.4553 275.357 39.6717 273.43 40.9568C271.503 42.2418 267.636 46.7813 268.188 48.097C268.741 49.4127 275.207 44.8197 276.109 44.8118C277.011 44.8039 285.468 43.5946 285.907 42.2947C286.394 40.7853 285.791 38.1828 284.316 38.4553Z" fill="#894827"/>
<path d="M302.281 38.6443C302.281 38.6443 311.245 39.5409 313.237 40.7876C315.229 42.0344 319.163 46.4135 318.629 47.7434C318.094 49.0734 311.531 44.6999 310.629 44.7198C309.727 44.7397 301.229 43.8242 300.76 42.5263C300.231 41.031 300.787 38.42 302.281 38.6443Z" fill="#894827"/>
<path d="M275.758 76.2076C279.827 76.1989 283.119 73.7585 283.113 70.7568C283.106 67.7551 279.803 65.3289 275.735 65.3376C271.667 65.3463 268.374 67.7867 268.38 70.7884C268.387 73.7901 271.69 76.2163 275.758 76.2076Z" fill="url(#paint0_radial_1428_791)"/>
<path d="M317.119 70.6838C317.125 73.6767 313.833 76.1259 309.764 76.1346C305.696 76.1433 302.393 73.7142 302.386 70.7154C302.38 67.7166 305.672 65.2733 309.741 65.2646C313.809 65.2559 317.112 67.679 317.119 70.6838Z" fill="url(#paint1_radial_1428_791)"/>
<g style="mix-blend-mode:multiply" opacity="0.35">
<path d="M320.86 51.9645C322.895 51.8825 324.907 51.5031 326.832 50.8384C325.958 58.4122 324.289 65.9398 322.903 68.762C322.151 68.2859 321.54 67.6153 321.136 66.8209C320.732 66.0265 320.548 65.1376 320.606 64.2477C320.883 59.7698 320.934 55.6516 320.86 51.9645Z" fill="#9A5335"/>
</g>
<g style="mix-blend-mode:multiply" opacity="0.35">
<path d="M264.769 52.402C264.652 56.5205 264.673 60.7463 264.848 64.3075C264.889 65.0442 264.768 65.781 264.492 66.4655C264.217 67.1499 263.795 67.7651 263.255 68.2674L262.575 68.8675C261.117 65.9316 259.66 57.6864 258.896 49.7211C260.677 50.9612 262.666 51.8694 264.769 52.402V52.402Z" fill="#9A5335"/>
</g>
<path d="M306.84 77.7331C306.84 77.7331 291.385 83.315 281.147 76.3157C281.147 76.3157 281.956 88.6565 293.321 89.2008C300.927 89.5675 305.413 83.7039 306.84 77.7331Z" fill="#9F1D21"/>
<path d="M294.596 84.8345C299.662 84.8775 301.851 86.1658 301.953 86.2074C299.751 88.1023 296.955 89.1647 294.053 89.2103C291.15 89.2559 288.323 88.2818 286.062 86.457C286.563 86.1267 290.193 84.7961 294.596 84.8345Z" fill="#E24949"/>
<path d="M305.031 78.2937C304.841 79.0423 304.551 79.9887 304.385 80.5218C304.348 80.6347 304.287 80.738 304.205 80.8241C304.124 80.9103 304.024 80.977 303.914 81.0196C294.07 84.8776 287.59 82.9461 284.144 80.6131C284.018 80.5295 283.921 80.4082 283.868 80.2665C283.462 79.3089 283.119 78.3259 282.84 77.3237C290.765 81.5446 300.953 79.4278 305.031 78.2937Z" fill="#FEFAEF"/>
<path d="M274.397 57.1939C274.405 60.6596 277.398 63.4605 281.03 63.4527C284.662 63.4449 287.644 60.6312 287.636 57.1655C287.629 53.6998 284.636 50.8929 281.003 50.9007C277.371 50.9085 274.39 53.7222 274.397 57.1939Z" fill="#FEFAEF"/>
<path d="M278.601 61.71C279.749 61.9526 280.918 62.0784 282.091 62.0856C283.033 62.0867 283.964 61.8805 284.818 61.4815C285.672 61.0825 286.428 60.5004 287.033 59.7765C286.456 60.8962 285.579 61.8329 284.501 62.4816C283.422 63.1304 282.185 63.4655 280.927 63.4496C279.67 63.4336 278.441 63.0672 277.38 62.3914C276.318 61.7155 275.465 60.7569 274.917 59.6229C275.942 60.6289 277.212 61.3485 278.601 61.71V61.71Z" fill="#E7865F"/>
<path d="M277.134 57.5112C277.124 58.2832 277.343 59.0407 277.764 59.6875C278.185 60.3342 278.788 60.8409 279.497 61.1431C280.206 61.4452 280.989 61.5292 281.746 61.3843C282.503 61.2394 283.2 60.8721 283.748 60.3293C284.296 59.7864 284.67 59.0925 284.823 58.3359C284.976 57.5793 284.901 56.7941 284.607 56.0803C284.314 55.3665 283.815 54.7563 283.174 54.3275C282.533 53.8986 281.78 53.6705 281.009 53.672C279.988 53.6679 279.006 54.0696 278.28 54.7893C277.553 55.5089 277.141 56.4877 277.134 57.5112V57.5112Z" fill="#643938"/>
<path d="M278.663 57.508C278.657 57.9758 278.79 58.4349 279.045 58.8272C279.299 59.2195 279.664 59.5273 280.093 59.7117C280.522 59.8961 280.996 59.9487 281.456 59.863C281.915 59.7773 282.338 59.557 282.672 59.2301C283.006 58.9032 283.236 58.4844 283.332 58.0266C283.429 57.5688 283.387 57.0927 283.213 56.6584C283.039 56.2242 282.741 55.8514 282.356 55.5873C281.97 55.3231 281.515 55.1794 281.048 55.1744C280.738 55.1696 280.431 55.2262 280.143 55.341C279.855 55.4559 279.592 55.6267 279.371 55.8436C279.149 56.0606 278.972 56.3193 278.851 56.605C278.73 56.8906 278.666 57.1975 278.663 57.508V57.508Z" fill="#321716"/>
<path d="M285.362 55.2669C283.837 54.7831 282.239 54.5698 280.641 54.6366C278.388 54.7713 276.222 55.56 274.408 56.9066C274.563 53.5722 275.827 49.9002 280.964 49.548C285.916 49.2082 287.269 53.3594 287.611 56.5251C286.969 55.9361 286.199 55.5052 285.362 55.2669V55.2669Z" fill="#E7865F"/>
<path d="M313.421 57.1102C313.429 60.5759 310.448 63.3896 306.815 63.3974C303.183 63.4052 300.178 60.6043 300.17 57.1386C300.163 53.6729 303.144 50.8532 306.776 50.8454C310.409 50.8376 313.414 53.6385 313.421 57.1102Z" fill="#FEFAEF"/>
<path d="M309.237 61.6444C308.088 61.8922 306.918 62.0231 305.743 62.035C304.802 62.0393 303.871 61.8366 303.016 61.4413C302.162 61.046 301.404 60.4676 300.797 59.7471C301.379 60.8643 302.26 61.7972 303.341 62.4413C304.422 63.0854 305.661 63.4153 306.918 63.3939C308.176 63.3726 309.403 63.0009 310.462 62.3205C311.52 61.6401 312.369 60.6779 312.913 59.5415C311.892 60.5519 310.624 61.2769 309.237 61.6444V61.6444Z" fill="#E7865F"/>
<path d="M310.686 57.4393C310.7 58.2112 310.483 58.9697 310.065 59.6182C309.647 60.2668 309.046 60.776 308.338 61.0812C307.631 61.3864 306.848 61.4738 306.091 61.3321C305.333 61.1904 304.635 60.8262 304.085 60.2857C303.534 59.7452 303.157 59.0529 303.001 58.2969C302.844 57.5409 302.916 56.7554 303.207 56.0404C303.497 55.3253 303.993 54.7131 304.632 54.2815C305.271 53.8499 306.024 53.6185 306.795 53.6167C307.816 53.6082 308.799 54.0057 309.529 54.7222C310.258 55.4388 310.674 56.4158 310.686 57.4393V57.4393Z" fill="#643938"/>
<path d="M309.162 57.4426C309.17 57.9104 309.04 58.3701 308.787 58.7634C308.534 59.1568 308.171 59.4661 307.742 59.6524C307.314 59.8386 306.84 59.8933 306.38 59.8095C305.921 59.7258 305.497 59.5074 305.161 59.1819C304.826 58.8564 304.594 58.4386 304.496 57.9812C304.398 57.5238 304.437 57.0475 304.609 56.6125C304.781 56.1776 305.078 55.8035 305.462 55.5377C305.846 55.2719 306.301 55.1263 306.768 55.1193C307.078 55.1131 307.385 55.1684 307.674 55.282C307.962 55.3956 308.225 55.5653 308.448 55.7813C308.671 55.9973 308.848 56.2552 308.971 56.5404C309.093 56.8255 309.159 57.1321 309.162 57.4426V57.4426Z" fill="#321716"/>
<path d="M302.449 55.2303C303.972 54.7399 305.568 54.5197 307.167 54.5797C309.421 54.7048 311.589 55.4842 313.409 56.8229C313.24 53.4893 311.96 49.8228 306.821 49.4926C301.868 49.174 300.533 53.331 300.205 56.4981C300.844 55.9063 301.612 55.4722 302.449 55.2303V55.2303Z" fill="#E7865F"/>
<path d="M304.309 56.5372C304.308 56.689 304.353 56.8376 304.436 56.9642C304.52 57.0908 304.639 57.1897 304.779 57.2483C304.918 57.3069 305.073 57.3226 305.221 57.2934C305.37 57.2642 305.507 57.1914 305.614 57.0843C305.721 56.9771 305.794 56.8405 305.824 56.6916C305.854 56.5428 305.838 56.3884 305.78 56.2482C305.722 56.108 305.624 55.9882 305.498 55.904C305.372 55.8198 305.224 55.775 305.072 55.7754C304.972 55.7748 304.873 55.7941 304.78 55.8321C304.688 55.8702 304.603 55.9262 304.532 55.997C304.462 56.0679 304.405 56.1521 304.367 56.2448C304.329 56.3375 304.309 56.4368 304.309 56.5372V56.5372Z" fill="#FEFAEF"/>
<path d="M278.805 56.5919C278.804 56.7439 278.848 56.8928 278.932 57.0195C279.016 57.1462 279.136 57.2451 279.276 57.3035C279.416 57.362 279.57 57.3773 279.719 57.3476C279.868 57.3179 280.004 57.2445 280.111 57.1368C280.219 57.0291 280.291 56.8918 280.32 56.7426C280.349 56.5934 280.333 56.4388 280.274 56.2987C280.215 56.1586 280.116 56.0392 279.989 55.9558C279.862 55.8723 279.714 55.8286 279.562 55.8301C279.361 55.8305 279.168 55.911 279.026 56.0539C278.884 56.1967 278.804 56.3903 278.805 56.5919V56.5919Z" fill="#FEFAEF"/>
<path d="M368.468 260.117L377.943 304.649C378.278 306.154 378.047 307.73 377.297 309.076C376.546 310.422 375.327 311.444 373.872 311.948L293.491 338.308C292.672 338.566 291.808 338.646 290.956 338.542C290.104 338.438 289.284 338.153 288.551 337.705C287.818 337.258 287.188 336.659 286.705 335.948C286.222 335.237 285.897 334.431 285.75 333.584L274.423 275.355C274.252 274.536 274.248 273.691 274.41 272.871C274.572 272.05 274.897 271.271 275.366 270.579C275.835 269.887 276.438 269.297 277.14 268.843C277.841 268.39 278.627 268.083 279.45 267.94L361.689 255.283C363.221 255.066 364.779 255.447 366.04 256.346C367.301 257.245 368.17 258.595 368.468 260.117V260.117Z" fill="#D9D8D7"/>
<path d="M368.713 259.991L377.94 303.386C378.27 304.853 378.048 306.391 377.316 307.704C376.585 309.018 375.396 310.015 373.977 310.505L295.643 336.19C294.845 336.441 294.003 336.518 293.173 336.417C292.343 336.315 291.544 336.037 290.829 335.601C290.115 335.165 289.502 334.581 289.031 333.889C288.561 333.196 288.243 332.411 288.099 331.585L277.057 274.841C276.891 274.042 276.887 273.219 277.046 272.419C277.204 271.62 277.521 270.86 277.978 270.185C278.436 269.511 279.024 268.936 279.707 268.493C280.391 268.051 281.156 267.751 281.958 267.611L362.131 255.277C363.621 255.075 365.131 255.45 366.355 256.326C367.578 257.202 368.421 258.513 368.713 259.991V259.991Z" fill="#E4E4E3"/>
<g style="mix-blend-mode:multiply">
<path d="M323.063 299.194C328.889 294.177 332.184 287.257 335.964 280.718C340.13 273.49 344.332 265.939 346.184 257.729L362.1 255.301C363.595 255.09 365.113 255.462 366.343 256.339C367.573 257.216 368.421 258.531 368.712 260.015L377.94 303.41C378.27 304.877 378.047 306.415 377.316 307.728C376.585 309.042 375.396 310.039 373.976 310.529L295.643 336.214C294.845 336.465 294.002 336.542 293.172 336.441C292.342 336.339 291.543 336.061 290.829 335.625C290.115 335.189 289.502 334.605 289.031 333.913C288.56 333.22 288.243 332.435 288.099 331.609L281.829 299.372C294.292 305.391 312.114 308.609 323.063 299.194Z" fill="#E4E4E3"/>
</g>
<g style="mix-blend-mode:multiply" opacity="0.5">
<path d="M306.122 325.232C306.4 321.125 307.042 319.627 313.223 315.981C318.482 313.856 328.723 300.45 330.22 298.939C334.384 294.863 338.294 290.532 341.925 285.973C345.029 282.021 347.396 276.671 350.931 273.162C360.213 263.936 361.795 282.925 361.718 288.917C361.647 294.484 361.964 300.236 361.426 305.785C361.093 309.174 359.839 312.265 358.794 315.452L309.792 331.521C309.34 329.834 306.007 327.297 306.122 325.232Z" fill="#E4E4E3"/>
</g>
<path d="M323.288 273.257C323.215 273.844 323.323 274.438 323.596 274.962C323.869 275.486 324.294 275.914 324.816 276.19C325.338 276.465 325.931 276.575 326.517 276.504C327.103 276.433 327.653 276.186 328.095 275.794C328.536 275.402 328.848 274.885 328.989 274.311C329.13 273.737 329.093 273.134 328.883 272.581C328.673 272.029 328.301 271.554 327.815 271.219C327.329 270.884 326.752 270.705 326.162 270.707C325.444 270.666 324.739 270.911 324.201 271.389C323.662 271.866 323.334 272.538 323.288 273.257V273.257Z" fill="white"/>
<path d="M356.401 313.799C356.401 313.799 331.339 310.974 327.894 300.913C327.894 300.913 357.451 282.204 356.401 313.799Z" fill="#06485F"/>
<path d="M351.754 297.6C351.754 297.6 351.061 308.507 352.02 315.826C352.518 319.62 352.629 321.295 345.617 335.981C345.484 336.26 345.261 336.486 344.983 336.623C344.706 336.759 344.391 336.798 344.089 336.733C342.894 336.478 341.148 335.883 340.434 334.604C340.434 334.604 337.065 340.214 334.945 337.89C333.969 336.814 332.879 335.356 332.879 335.356C332.879 335.356 331.176 337.982 329.138 337.687C327.781 337.486 326.33 335.107 325.734 333.085C325.734 333.085 323.212 335.114 321.663 334.602C320.838 334.329 319.808 333.301 317.986 330.462L320.002 328.836C320.002 328.836 323.365 328.397 327.841 323.432C329.861 321.201 329.313 318.939 327.014 319.483C324.028 320.184 324.815 322.067 320.377 325.339C316.452 328.233 310.944 328.526 309.995 325.864C308.438 321.504 315.722 319.178 317.773 317.432C322.162 313.693 327.81 306.636 329.177 305.765C331.432 304.365 339.922 301.588 340.073 296.889L351.754 297.6Z" fill="#F1AB88"/>
<g style="mix-blend-mode:multiply" opacity="0.55">
<path d="M352.136 316.753C347.72 307.646 341.117 304.608 330.12 305.248C333.176 303.727 339.933 301.037 340.073 296.847L351.754 297.534C351.754 297.534 351.061 308.441 352.021 315.76C352.069 316.155 352.106 316.46 352.136 316.753Z" fill="#DCB890"/>
</g>
<g style="mix-blend-mode:multiply" opacity="0.65">
<path d="M326.107 334.102C325.975 333.773 325.849 333.444 325.753 333.121C326.145 332.168 331.161 325.537 332.698 323.457C332.89 323.846 328.354 331.481 326.107 334.102Z" fill="#D69D7C"/>
</g>
<g style="mix-blend-mode:multiply" opacity="0.65">
<path d="M333.538 336.205C333.4 335.876 332.975 335.661 332.879 335.338C333.271 334.386 338.592 327.64 340.129 325.56C340.315 325.955 335.785 333.584 333.538 336.205Z" fill="#D69D7C"/>
</g>
<g style="mix-blend-mode:multiply" opacity="0.65">
<path d="M341.039 335.333C340.788 335.155 340.583 334.919 340.44 334.646C340.815 333.735 344.533 329.322 345.999 327.337C346.191 327.708 343.179 332.826 341.039 335.333Z" fill="#D69D7C"/>
</g>
<path d="M316.556 321.103C314.813 318.916 310.901 322.265 310.848 322.492C310.848 322.492 310.638 324.833 313.608 325.479C314.555 325.219 315.401 324.679 316.037 323.93C317.092 322.844 317.06 321.737 316.556 321.103Z" fill="#FDD6C0"/>
<path d="M361.579 123.478C361.579 123.478 392.184 223.284 389.299 234.484C386.413 245.683 358.868 308.078 356.395 313.799C356.395 313.799 347.328 300.614 327.888 300.913C327.888 300.913 361.071 237.783 361.8 235.046C362.529 232.309 343.882 184.122 343.452 176.012C343.023 167.902 337.15 137.477 361.579 123.478Z" fill="#1C8A9C"/>
<g style="mix-blend-mode:multiply" opacity="0.5">
<path d="M352.954 188.609C363.885 215.456 361.881 228.216 362.498 234.26C362.271 234.344 362.038 234.416 361.811 234.507C361.135 228.624 343.887 183.81 343.47 176.012C343.315 173.163 342.502 167.556 342.565 160.876C344.217 164.913 350.846 183.436 352.954 188.609Z" fill="#52ACB5"/>
</g>
<path d="M288.14 205.79C288.15 206.272 288.016 206.746 287.755 207.153C287.495 207.559 287.121 207.878 286.679 208.071C286.237 208.263 285.748 208.32 285.274 208.234C284.801 208.147 284.363 207.922 284.017 207.586C283.671 207.25 283.433 206.819 283.332 206.347C283.231 205.875 283.272 205.384 283.45 204.936C283.628 204.487 283.935 204.102 284.332 203.829C284.729 203.555 285.198 203.406 285.68 203.401C286.321 203.393 286.94 203.64 287.401 204.087C287.862 204.535 288.128 205.147 288.14 205.79V205.79Z" fill="#3A4962"/>
<path d="M288.324 221.891C288.333 222.374 288.199 222.848 287.939 223.254C287.678 223.661 287.303 223.98 286.861 224.173C286.419 224.365 285.93 224.421 285.456 224.334C284.982 224.248 284.544 224.022 284.199 223.685C283.853 223.349 283.615 222.917 283.515 222.445C283.414 221.973 283.456 221.481 283.635 221.033C283.814 220.585 284.122 220.2 284.52 219.927C284.918 219.655 285.387 219.507 285.869 219.502C286.51 219.496 287.127 219.743 287.587 220.191C288.047 220.638 288.312 221.249 288.324 221.891V221.891Z" fill="#3A4962"/>
<path d="M288.514 237.986C288.523 238.469 288.389 238.943 288.129 239.349C287.869 239.755 287.494 240.075 287.053 240.267C286.611 240.46 286.122 240.516 285.648 240.43C285.174 240.344 284.736 240.118 284.391 239.782C284.045 239.447 283.806 239.015 283.705 238.544C283.604 238.072 283.646 237.58 283.824 237.132C284.002 236.684 284.309 236.298 284.706 236.025C285.103 235.752 285.572 235.603 286.053 235.597C286.695 235.589 287.314 235.836 287.775 236.284C288.236 236.731 288.502 237.343 288.514 237.986V237.986Z" fill="#3A4962"/>
<path d="M288.704 254.081C288.713 254.564 288.579 255.038 288.319 255.444C288.059 255.85 287.684 256.17 287.242 256.362C286.801 256.555 286.312 256.611 285.838 256.525C285.364 256.439 284.926 256.213 284.581 255.878C284.235 255.542 283.996 255.111 283.895 254.639C283.794 254.167 283.835 253.676 284.014 253.227C284.192 252.779 284.499 252.394 284.896 252.12C285.293 251.847 285.762 251.698 286.243 251.692C286.885 251.684 287.504 251.931 287.965 252.379C288.426 252.826 288.691 253.438 288.704 254.081V254.081Z" fill="#3A4962"/>
<path d="M133.514 186.769C133.514 186.769 123.401 184.493 117.873 180.913C115.48 179.35 113.824 175.876 105.991 172.971C105.203 172.769 104.405 172.609 103.6 172.492C102.547 172.227 101.539 171.805 100.61 171.241C99.1867 170.358 97.9832 169.11 96.4224 168.443C95.0889 167.847 92.8346 166.972 91.5706 168.136C91.3231 168.492 91.1546 168.897 91.0762 169.323C90.9978 169.75 91.0112 170.188 91.1158 170.609C91.9584 173.498 93.687 174.428 98.4346 176.316C109.036 180.525 105.656 181.262 105.298 181.371C104.331 181.666 92.1506 179.52 89.5026 178.879C86.8546 178.238 77.8677 174.66 74.2081 173.105C71.0866 171.783 68.2396 175.848 81.9284 182.211C81.9284 182.211 69.079 174.457 67.1824 175.976C65.9896 176.93 65.5785 180.235 80.2168 186.381C80.2168 186.381 68.2915 180.528 66.6163 182.22C65.3525 183.492 68.6765 187.387 80.2976 190.666C80.2976 190.666 76.5133 189.477 73.2671 188.443C72.3583 188.152 71.1873 188.148 70.9732 188.603C70.4439 189.706 70.8486 191.746 74.0903 193.421C76.1358 194.476 80.8654 196.334 83.5786 196.765C88.1147 197.497 92.5431 198.146 96.3434 198.425C100.144 198.705 106.239 199.266 109.178 199.404C112.118 199.541 120.965 196.433 122.973 196.644C124.981 196.856 129.359 199.36 129.359 199.36L133.514 186.769Z" fill="#F1AB88"/>
<g style="mix-blend-mode:multiply" opacity="0.55">
<path d="M112.274 194.189C117.446 190.587 116.63 186.578 118.459 181.247C124.076 184.629 133.538 186.769 133.538 186.769L129.383 199.348C129.383 199.348 125.004 196.844 122.997 196.632C120.989 196.421 112.13 199.529 109.19 199.392C107.236 199.3 103.89 199.026 100.747 198.763C103.147 197.782 110.102 195.696 112.274 194.189Z" fill="#DCB890"/>
</g>
<g style="mix-blend-mode:multiply" opacity="0.65">
<path d="M74.8696 178.036C74.8696 178.036 80.9633 180.765 82.1955 181.45C82.979 181.886 88.3727 184.143 88.3727 184.143C88.3727 184.143 82.802 182.886 81.624 182.397C79.555 181.534 74.8696 178.036 74.8696 178.036Z" fill="#D69D7C"/>
</g>
<g style="mix-blend-mode:multiply" opacity="0.65">
<path d="M73.6802 183.318C73.6802 183.318 80.3578 185.333 81.2904 185.63L86.6708 187.289C86.6708 187.289 82.2077 187.107 80.9402 186.667C79.6727 186.226 73.6802 183.318 73.6802 183.318Z" fill="#D69D7C"/>
</g>
<g style="mix-blend-mode:multiply" opacity="0.65">
<path d="M74.1035 188.555C74.1035 188.555 80.7926 190.282 81.2409 190.389C81.6892 190.496 86.3992 191.575 86.3992 191.575C86.3992 191.575 82.8143 191.445 81.4877 191.31C80.5316 191.187 74.1035 188.555 74.1035 188.555Z" fill="#D69D7C"/>
</g>
<g style="mix-blend-mode:multiply" opacity="0.55">
<path d="M104.585 189.034C102.365 188.896 100.145 189.312 98.124 190.245C94.883 191.659 94.5086 192.611 93.0167 193.387C94.1146 192.786 94.3899 192.965 102.181 190.47C105.405 189.439 109.86 191.591 112.294 195.147C112.263 195.069 112.227 194.993 112.186 194.92C112.186 194.92 111.069 189.583 104.585 189.034Z" fill="#DCB890"/>
</g>
<path d="M135.109 181.08C135.109 181.08 184.997 198.708 188.689 198.7C191.676 198.694 203.08 150.969 210.802 132.954C212.508 128.976 214.901 124.804 220.341 123.775C223.823 123.115 227.561 122.425 231.198 121.765C230.32 124.598 236.301 160.87 235.021 168.762C233.299 179.355 218.308 234.294 196.79 231.94C187.934 230.971 127.425 202.609 127.425 202.609L135.109 181.08Z" fill="#1C8A9C"/>
</g>
<defs>
<filter id="filter0_d_1428_791" x="0" y="264.631" width="132" height="133.935" filterUnits="userSpaceOnUse" color-interpolation-filters="sRGB">
<feFlood flood-opacity="0" result="BackgroundImageFix"/>
<feColorMatrix in="SourceAlpha" type="matrix" values="0 0 0 0 0 0 0 0 0 0 0 0 0 0 0 0 0 0 127 0" result="hardAlpha"/>
<feOffset dy="4"/>
<feGaussianBlur stdDeviation="2"/>
<feComposite in2="hardAlpha" operator="out"/>
<feColorMatrix type="matrix" values="0 0 0 0 0 0 0 0 0 0 0 0 0 0 0 0 0 0 0.25 0"/>
<feBlend mode="normal" in2="BackgroundImageFix" result="effect1_dropShadow_1428_791"/>
<feBlend mode="normal" in="SourceGraphic" in2="effect1_dropShadow_1428_791" result="shape"/>
</filter>
<filter id="filter1_d_1428_791" x="361" y="250.559" width="138" height="148" filterUnits="userSpaceOnUse" color-interpolation-filters="sRGB">
<feFlood flood-opacity="0" result="BackgroundImageFix"/>
<feColorMatrix in="SourceAlpha" type="matrix" values="0 0 0 0 0 0 0 0 0 0 0 0 0 0 0 0 0 0 127 0" result="hardAlpha"/>
<feOffset dy="4"/>
<feGaussianBlur stdDeviation="2"/>
<feComposite in2="hardAlpha" operator="out"/>
<feColorMatrix type="matrix" values="0 0 0 0 0 0 0 0 0 0 0 0 0 0 0 0 0 0 0.25 0"/>
<feBlend mode="normal" in2="BackgroundImageFix" result="effect1_dropShadow_1428_791"/>
<feBlend mode="normal" in="SourceGraphic" in2="effect1_dropShadow_1428_791" result="shape"/>
</filter>
<filter id="filter2_d_1428_791" x="257.985" y="-6.97864" width="138.154" height="132.251" filterUnits="userSpaceOnUse" color-interpolation-filters="sRGB">
<feFlood flood-opacity="0" result="BackgroundImageFix"/>
<feColorMatrix in="SourceAlpha" type="matrix" values="0 0 0 0 0 0 0 0 0 0 0 0 0 0 0 0 0 0 127 0" result="hardAlpha"/>
<feOffset dy="4"/>
<feGaussianBlur stdDeviation="2"/>
<feComposite in2="hardAlpha" operator="out"/>
<feColorMatrix type="matrix" values="0 0 0 0 0 0 0 0 0 0 0 0 0 0 0 0 0 0 0.25 0"/>
<feBlend mode="normal" in2="BackgroundImageFix" result="effect1_dropShadow_1428_791"/>
<feBlend mode="normal" in="SourceGraphic" in2="effect1_dropShadow_1428_791" result="shape"/>
</filter>
<filter id="filter3_d_1428_791" x="48.1011" y="47.4716" width="138.154" height="132.251" filterUnits="userSpaceOnUse" color-interpolation-filters="sRGB">
<feFlood flood-opacity="0" result="BackgroundImageFix"/>
<feColorMatrix in="SourceAlpha" type="matrix" values="0 0 0 0 0 0 0 0 0 0 0 0 0 0 0 0 0 0 127 0" result="hardAlpha"/>
<feOffset dy="4"/>
<feGaussianBlur stdDeviation="2"/>
<feComposite in2="hardAlpha" operator="out"/>
<feColorMatrix type="matrix" values="0 0 0 0 0 0 0 0 0 0 0 0 0 0 0 0 0 0 0.25 0"/>
<feBlend mode="normal" in2="BackgroundImageFix" result="effect1_dropShadow_1428_791"/>
<feBlend mode="normal" in="SourceGraphic" in2="effect1_dropShadow_1428_791" result="shape"/>
</filter>
<radialGradient id="paint0_radial_1428_791" cx="0" cy="0" r="1" gradientUnits="userSpaceOnUse" gradientTransform="translate(275.839 70.7724) rotate(179.877) scale(6.87808 5.88993)">
<stop stop-color="#F19889"/>
<stop offset="0.64" stop-color="#F1A488"/>
<stop offset="0.92" stop-color="#F1AB88"/>
</radialGradient>
<radialGradient id="paint1_radial_1428_791" cx="0" cy="0" r="1" gradientUnits="userSpaceOnUse" gradientTransform="translate(310.361 70.6983) rotate(-0.122855) scale(6.87812 5.88993)">
<stop stop-color="#F19889"/>
<stop offset="0.64" stop-color="#F1A488"/>
<stop offset="0.92" stop-color="#F1AB88"/>
</radialGradient>
<clipPath id="clip0_1428_791">
<rect width="323" height="555" fill="white" transform="translate(66 0.692627) rotate(-0.122855)"/>
</clipPath>
</defs>
</svg>
