<svg width="665" height="481" viewBox="0 0 665 481" fill="none" xmlns="http://www.w3.org/2000/svg">
<g clip-path="url(#clip0_656_542)">
<path d="M134.13 295.303C132.981 295.356 131.843 295.054 130.871 294.438C129.899 293.821 129.14 292.921 128.696 291.857C128.253 290.794 128.146 289.62 128.391 288.495C128.635 287.369 129.219 286.345 130.064 285.563C130.205 285 130.307 284.596 130.448 284.032C130.398 283.91 130.347 283.787 130.296 283.665C125.131 271.329 107.627 271.414 102.507 283.768C97.9615 294.734 92.1749 305.718 90.7501 317.312C90.1226 322.437 90.3873 327.632 91.5325 332.666C80.8574 309.34 75.3141 283.987 75.2785 258.326C75.2762 251.887 75.6334 245.453 76.3482 239.053C76.939 233.807 77.7587 228.599 78.8072 223.427C84.5288 195.368 96.8133 169.068 114.652 146.688C123.286 141.969 130.268 134.713 134.658 125.896C136.248 122.727 137.372 119.344 137.995 115.852C137.021 115.98 136.031 116.06 135.057 116.124C134.754 116.14 134.435 116.156 134.131 116.172L134.017 116.177C132.946 116.225 131.885 115.962 130.96 115.42C130.035 114.878 129.287 114.079 128.804 113.121C128.322 112.163 128.127 111.085 128.241 110.018C128.356 108.951 128.777 107.939 129.452 107.106C129.872 106.588 130.293 106.07 130.714 105.552C131.353 104.752 132.008 103.968 132.646 103.169C132.72 103.093 132.789 103.012 132.854 102.929C133.588 102.017 134.323 101.121 135.057 100.21C133.717 98.1252 131.913 96.3791 129.788 95.1076C122.428 90.7892 112.273 93.7801 106.956 100.45C101.623 107.119 100.617 116.476 102.469 124.808C104.05 131.942 107.499 138.483 111.379 144.705C110.98 145.217 110.564 145.712 110.165 146.224C102.869 155.623 96.5089 165.716 91.1775 176.357C92.6859 164.555 90.459 150.336 86.6626 141.17C82.341 130.727 74.2409 121.932 67.1077 112.903C58.5396 102.059 40.97 106.792 39.4605 120.539C39.4459 120.672 39.4316 120.805 39.4177 120.938C40.4772 121.537 41.5143 122.172 42.5291 122.844C43.8039 123.698 44.7917 124.917 45.363 126.342C45.9343 127.767 46.0626 129.332 45.731 130.831C45.3993 132.331 44.6233 133.695 43.5045 134.745C42.3857 135.795 40.9764 136.482 39.4611 136.716L39.3059 136.74C39.6834 140.565 40.3506 144.356 41.3017 148.08C44.0578 158.475 48.9281 168.189 55.6073 176.61C62.2865 185.032 70.6305 191.981 80.1163 197.021C80.739 197.341 81.3458 197.661 81.9685 197.965C76.6121 213.171 73.2522 229.009 71.9734 245.083C71.2495 254.566 71.2922 264.092 72.1012 273.568C72.0852 273.456 72.0692 273.344 72.0533 273.232C70.0094 262.695 64.3979 253.187 56.1665 246.315C43.9408 236.254 26.6682 232.55 13.4788 224.463C7.12982 220.571 -1.00594 225.601 0.102132 232.974C0.119833 233.092 0.137808 233.21 0.156069 233.328C2.12221 234.13 4.03656 235.054 5.88799 236.094C6.9475 236.693 7.98464 237.329 8.99939 238.001C10.2742 238.854 11.2619 240.073 11.8333 241.498C12.4046 242.924 12.5329 244.488 12.2013 245.988C11.8696 247.487 11.0936 248.851 9.97481 249.901C8.85602 250.951 7.44667 251.639 5.93142 251.873L5.77614 251.896C5.66441 251.912 5.56856 251.929 5.45697 251.945C8.81639 259.98 13.5314 267.375 19.3956 273.808C26.6399 281.595 35.3955 287.817 45.1257 292.094C54.8559 296.371 65.3556 298.611 75.981 298.679H75.997C78.8813 311.234 83.0604 323.455 88.4669 335.145H133.013C133.173 334.649 133.317 334.137 133.461 333.642C129.337 333.901 125.198 333.654 121.134 332.906C124.439 328.843 127.744 324.749 131.05 320.687C131.123 320.611 131.193 320.531 131.257 320.447C132.934 318.367 134.626 316.304 136.303 314.225L136.303 314.223C136.393 307.849 135.663 301.491 134.131 295.304L134.13 295.303Z" fill="#F2F2F2"/>
<path d="M663.946 336.842L1.27644 337.114C0.99696 337.114 0.728927 337.003 0.531303 336.805C0.333678 336.607 0.222656 336.339 0.222656 336.059C0.222656 335.779 0.333678 335.51 0.531303 335.312C0.728927 335.114 0.99696 335.003 1.27644 335.003L663.946 334.73C664.225 334.73 664.493 334.842 664.691 335.04C664.889 335.238 665 335.506 665 335.786C665 336.066 664.889 336.335 664.691 336.533C664.493 336.73 664.225 336.842 663.946 336.842Z" fill="#CACACA"/>
<path d="M561.828 336.173C531.655 337.452 514.594 336.521 492.598 317.396C477.623 316.997 465.718 306.148 466.062 293.213C466.405 280.277 478.868 270.078 493.844 270.477L548.218 273.059C563.193 273.458 591.043 272.535 590.7 285.471C590.531 291.822 590.528 300.058 589.94 308.686C589.456 315.932 586.319 322.743 581.132 327.815C575.944 332.887 569.071 335.864 561.828 336.173Z" fill="#2F2E41"/>
<path d="M464.912 457.261L449.333 459.811L432.102 400.83L455.095 397.067L464.912 457.261Z" fill="#FFB6B6"/>
<path d="M458.721 334.276C487.768 341.43 509.216 333.373 526.881 334.418C536.923 317.444 568.978 295.884 551.488 286.809C541.748 281.755 442.735 270.105 429.737 283.551C396.313 318.127 437.812 427.32 437.812 427.32L460.893 427.021L468.267 416.478L462.327 404.987L467.946 395.592L461.515 385.914L458.721 334.276Z" fill="#2F2E41"/>
<path d="M475.627 469.046L465.421 471.784L461.019 462.62L458.933 473.524L431.863 480.785C430.565 481.133 429.191 481.056 427.939 480.566C426.688 480.076 425.626 479.199 424.909 478.061C424.191 476.924 423.855 475.586 423.949 474.244C424.044 472.902 424.564 471.625 425.435 470.6L443.055 449.846L440.446 440.088L463.548 435.349L475.627 469.046Z" fill="#2F2E41"/>
<path d="M592.582 438.038L581.212 449.007L533.562 410.299L550.344 394.108L592.582 438.038Z" fill="#FFB6B6"/>
<path d="M500.926 316.081C527.553 326.354 550.84 314.929 573.847 301.686C572.475 282.003 571.709 253.623 552.17 256.117C541.289 257.506 451.356 272.392 448.294 290.856C440.42 338.336 553.295 428.838 553.295 428.838L572.114 415.449L572.197 402.575L560.789 396.504L560.079 385.575L549.297 381.275L500.926 316.081Z" fill="#2F2E41"/>
<path d="M608.086 441.631L601.243 449.695L592.421 444.663L596.893 454.822L578.744 476.211C577.874 477.236 576.699 477.956 575.392 478.266C574.085 478.575 572.713 478.458 571.477 477.931C570.241 477.404 569.205 476.495 568.522 475.337C567.838 474.179 567.541 472.832 567.676 471.493L570.393 444.385L562.709 437.842L579.024 420.788L608.086 441.631Z" fill="#2F2E41"/>
<path d="M486.887 276.921C485.012 276.921 483.946 276.553 483.534 275.763C482.929 274.603 479.064 273.089 480.28 271.334C481.128 270.111 483.175 268.473 482.387 267.531C479.351 263.899 471.77 159.723 469.984 145.51C469.545 141.112 470.14 136.671 471.722 132.544C476.726 118.341 483.557 113.976 497.164 105.281C498.269 104.576 499.419 103.838 500.615 103.07C502.162 102.074 502.076 104.399 501.985 100.903C501.884 97.0171 501.779 92.9984 503.679 90.4867L503.803 90.323L504.002 90.2765C508.599 89.2121 524.059 87.2359 533.215 90.2909L533.341 90.334L533.436 90.4281C535.611 92.6067 535.809 96.8268 536 100.907C536.157 104.258 536.306 101.794 537.536 103.168C542.24 108.42 549.327 111.454 555.238 113.176C558.943 114.242 562.187 116.516 564.457 119.638C566.726 122.76 567.891 126.55 567.767 130.41C567.126 149.853 567.63 180.596 564.317 202.261C558.804 238.319 609.141 290.391 580.309 291.461C580.383 291.574 580.424 291.706 580.428 291.841C580.432 291.976 580.399 292.109 580.333 292.227C578.275 296.078 493.957 276.921 486.887 276.921Z" fill="#E6E6E6"/>
<path d="M516.067 87.3823C535.048 87.3823 550.435 71.9689 550.435 52.9555C550.435 33.9422 535.048 18.5288 516.067 18.5288C497.086 18.5288 481.699 33.9422 481.699 52.9555C481.699 71.9689 497.086 87.3823 516.067 87.3823Z" fill="#2F2E41"/>
<path d="M518.834 90.2237C532.469 89.8367 543.209 78.4506 542.823 64.7921C542.436 51.1336 531.07 40.3749 517.435 40.7619C503.799 41.1489 493.059 52.535 493.446 66.1935C493.832 79.852 505.199 90.6107 518.834 90.2237Z" fill="#FFB6B6"/>
<path d="M518.373 27.7617L508.361 28.0459C502.052 28.2301 496.073 30.9143 491.737 35.5095C487.401 40.1046 485.062 46.2353 485.233 52.556L485.24 52.7781L485.422 52.8927C490.864 56.4995 497.287 58.3301 503.81 58.1332L504.373 58.1173L509.905 57.8662C510.835 55.466 511.146 52.8694 510.809 50.3168C511.645 52.7365 512.297 55.2159 512.76 57.7339L537.582 56.6018C539.026 56.5302 540.386 55.896 541.37 54.8347C542.354 53.7733 542.885 52.3687 542.85 50.9206C542.664 44.6003 539.982 38.6122 535.393 34.2704C530.804 29.9285 524.683 27.5878 518.373 27.7617Z" fill="#2F2E41"/>
<path d="M498.422 21.5536C496.162 24.3451 492.534 25.5082 489.273 27.0201C483.521 29.7451 478.519 33.8346 474.701 38.934C470.883 44.0333 468.365 49.9886 467.364 56.2834C466.595 61.4094 466.864 66.6855 465.564 71.6983C464.271 76.7109 460.862 81.6896 455.795 82.6969C452.366 83.3842 448.875 82.1495 445.597 80.9259C443.794 80.2589 441.991 79.5891 440.188 78.9164C441.915 74.1906 443.639 69.465 445.361 64.7394C442.507 69.234 439.157 73.3929 435.375 77.1378C428.915 74.7392 422.449 72.3407 415.977 69.9423C431.721 69.5553 428.602 54.3228 431.69 38.8628C433.387 30.3675 449.71 24.1845 452.715 16.0624C454.338 11.6573 457.188 7.81022 460.925 4.97651C464.663 2.14281 469.133 0.4411 473.806 0.0727945C478.48 -0.295511 483.16 0.68501 487.295 2.8983C491.429 5.11159 494.844 8.46498 497.135 12.5616C500.403 13.7599 500.64 18.7975 498.422 21.5536Z" fill="#2F2E41"/>
<path d="M499.997 31.7921C507.064 31.7921 512.794 26.0527 512.794 18.9727C512.794 11.8928 507.064 6.15332 499.997 6.15332C492.929 6.15332 487.199 11.8928 487.199 18.9727C487.199 26.0527 492.929 31.7921 499.997 31.7921Z" fill="#2F2E41"/>
<path d="M545.456 216.763H486.375C484.352 216.761 482.412 215.954 480.982 214.521C479.551 213.088 478.746 211.145 478.744 209.119V145.503C478.746 143.477 479.551 141.534 480.982 140.101C482.412 138.668 484.352 137.862 486.375 137.859H545.456C547.479 137.862 549.419 138.668 550.85 140.101C552.28 141.534 553.085 143.477 553.087 145.503V209.119C553.085 211.145 552.28 213.088 550.849 214.521C549.419 215.954 547.479 216.761 545.456 216.763Z" fill="#3F3D56"/>
<path d="M488.036 151.601C490.48 151.601 492.462 149.616 492.462 147.168C492.462 144.72 490.48 142.735 488.036 142.735C485.593 142.735 483.611 144.72 483.611 147.168C483.611 149.616 485.593 151.601 488.036 151.601Z" fill="#E6E6E6"/>
<path d="M488.036 149.828C489.502 149.828 490.691 148.637 490.691 147.168C490.691 145.699 489.502 144.509 488.036 144.509C486.57 144.509 485.381 145.699 485.381 147.168C485.381 148.637 486.57 149.828 488.036 149.828Z" fill="#3F3D56"/>
<path d="M506.592 213.674L466.011 203.365L459.703 224.281C459.703 224.281 503.362 227.52 504.994 227.535C506.215 229.265 507.93 230.583 509.915 231.315C511.899 232.047 514.059 232.158 516.108 231.634C518.156 231.11 519.998 229.975 521.389 228.38C522.78 226.784 523.655 224.803 523.897 222.699C524.14 220.595 523.739 218.466 522.748 216.595C521.756 214.724 520.221 213.198 518.346 212.22C516.47 211.242 514.342 210.857 512.243 211.117C510.145 211.376 508.174 212.268 506.592 213.674V213.674Z" fill="#FFB6B6"/>
<path d="M479.511 118.823C450.576 134.312 437.896 168.84 420.144 199.184C419.777 202.5 420.105 205.855 421.107 209.036C422.108 212.217 423.761 215.154 425.961 217.659C428.16 220.164 430.857 222.181 433.878 223.582C436.9 224.983 440.181 225.737 443.51 225.796L478.239 226.598L473.886 205.132L462.27 198.521L476 165.249L479.511 118.823Z" fill="#E6E6E6"/>
<path d="M522.402 152.358L550.099 186.026L538.661 204.181C538.661 204.181 510.812 160.568 510.184 159.059C508.125 158.578 506.26 157.482 504.836 155.916C503.412 154.35 502.496 152.387 502.21 150.289C501.923 148.19 502.279 146.054 503.231 144.162C504.183 142.271 505.686 140.713 507.541 139.696C509.396 138.679 511.515 138.249 513.619 138.465C515.723 138.681 517.711 139.531 519.322 140.903C520.933 142.276 522.09 144.105 522.64 146.151C523.19 148.196 523.107 150.361 522.402 152.358V152.358Z" fill="#FFB6B6"/>
<path d="M564.148 119.685C572.508 115.057 596.893 186.427 571.234 227.018C568.305 228.606 565.079 229.565 561.76 229.833C558.44 230.101 555.102 229.673 551.958 228.575C548.813 227.476 545.932 225.733 543.499 223.456C541.065 221.18 539.133 218.419 537.825 215.351L524.543 182.787L545.825 175.991L555.988 187.674L554.574 164.43L566.671 131.396L564.148 119.685Z" fill="#E6E6E6"/>
<path d="M287.11 84.1638C309.089 84.1638 326.907 66.3154 326.907 44.2983C326.907 22.2812 309.089 4.43286 287.11 4.43286C265.13 4.43286 247.312 22.2812 247.312 44.2983C247.312 66.3154 265.13 84.1638 287.11 84.1638Z" fill="#6C63FF"/>
<path d="M304.899 37.2429H269.32C267.827 37.2429 266.395 37.8371 265.339 38.8949C264.283 39.9526 263.689 41.3873 263.689 42.8832V78.5233C263.689 80.0192 264.283 81.4538 265.339 82.5116C266.395 83.5694 267.827 84.1636 269.32 84.1636H304.899C306.392 84.1636 307.825 83.5694 308.88 82.5116C309.936 81.4538 310.53 80.0192 310.53 78.5233V42.8832C310.53 41.3873 309.936 39.9527 308.88 38.8949C307.825 37.8371 306.392 37.2429 304.899 37.2429ZM287.11 73.2155C284.639 73.2155 282.224 72.4817 280.17 71.1068C278.116 69.7319 276.515 67.7778 275.57 65.4915C274.624 63.2052 274.377 60.6894 274.859 58.2623C275.341 55.8351 276.53 53.6057 278.277 51.8558C280.024 50.106 282.25 48.9143 284.673 48.4315C287.096 47.9487 289.607 48.1965 291.89 49.1435C294.172 50.0905 296.123 51.6943 297.495 53.7519C298.868 55.8095 299.6 58.2286 299.6 60.7033C299.6 64.0217 298.284 67.2042 295.942 69.5507C293.599 71.8972 290.422 73.2155 287.11 73.2155ZM301.162 48.1911C300.544 48.1911 299.94 48.0076 299.427 47.6639C298.913 47.3202 298.513 46.8317 298.277 46.2601C298.04 45.6885 297.978 45.0596 298.099 44.4528C298.219 43.846 298.517 43.2886 298.954 42.8512C299.39 42.4137 299.947 42.1158 300.552 41.9951C301.158 41.8744 301.786 41.9363 302.357 42.1731C302.927 42.4099 303.415 42.8108 303.758 43.3252C304.101 43.8396 304.284 44.4444 304.284 45.063C304.284 45.8927 303.955 46.6883 303.37 47.2749C302.784 47.8615 301.99 48.1911 301.162 48.1911Z" fill="white"/>
<path d="M299.553 312.494C321.532 312.494 339.35 294.646 339.35 272.629C339.35 250.612 321.532 232.763 299.553 232.763C277.574 232.763 259.756 250.612 259.756 272.629C259.756 294.646 277.574 312.494 299.553 312.494Z" fill="#6C63FF"/>
<path d="M289.312 312.494C282.769 312.498 276.365 310.597 270.881 307.022L268.121 305.225L271.392 305.588C272.249 305.684 273.173 305.739 274.135 305.753C278.545 305.756 282.862 304.485 286.569 302.093C284.366 301.615 282.326 300.569 280.651 299.058C278.976 297.548 277.723 295.626 277.017 293.482L276.608 292.217L277.91 292.473C278.502 292.59 279.102 292.658 279.705 292.676C277.641 291.612 275.908 290 274.697 288.017C273.486 286.034 272.843 283.755 272.837 281.43V280.09L274.001 280.606C274.692 280.995 275.423 281.306 276.182 281.534C274.387 279.517 273.272 276.985 272.996 274.297C272.72 271.609 273.296 268.902 274.643 266.561L275.212 265.578L275.925 266.46C281.123 272.903 288.57 277.125 296.76 278.273C296.984 278.306 297.213 278.289 297.431 278.224C297.648 278.159 297.849 278.047 298.019 277.897C298.193 277.745 298.333 277.558 298.428 277.348C298.524 277.138 298.573 276.909 298.573 276.678C298.554 274.178 299.278 271.729 300.654 269.643C302.03 267.557 303.994 265.928 306.297 264.965C308.601 264.002 311.138 263.747 313.586 264.234C316.034 264.721 318.282 265.927 320.043 267.698C322.453 267.171 324.764 266.262 326.888 265.005L328.68 263.942L328.027 265.923C327.422 267.761 326.406 269.436 325.058 270.822C326.254 270.51 327.424 270.103 328.556 269.606L330.984 268.536L329.521 270.753C327.971 273.104 326.035 275.175 323.794 276.879V278.009C323.794 294.961 310.922 312.494 289.381 312.494H289.312Z" fill="white"/>
<path d="M206.567 198.329C228.546 198.329 246.364 180.48 246.364 158.463C246.364 136.446 228.546 118.598 206.567 118.598C184.587 118.598 166.77 136.446 166.77 158.463C166.77 180.48 184.587 198.329 206.567 198.329Z" fill="#6C63FF"/>
<path d="M224.356 151.408H188.777C187.284 151.408 185.852 152.002 184.796 153.06C183.74 154.118 183.147 155.553 183.146 157.048V192.689C183.146 194.184 183.74 195.619 184.796 196.677C185.852 197.735 187.284 198.329 188.777 198.329H224.356C225.849 198.329 227.282 197.735 228.337 196.677C229.393 195.619 229.987 194.184 229.987 192.689V157.048C229.987 155.553 229.393 154.118 228.337 153.06C227.282 152.002 225.849 151.408 224.356 151.408ZM217.675 163.441H213.595C210.809 163.441 210.267 164.762 210.267 166.713V170.849H216.911L216.048 177.344H210.255V194.28C207.778 194.746 205.235 194.74 202.76 194.262V177.344H197.448V170.849H202.859V166.046C202.859 160.304 206.84 157.168 211.968 157.168C214.433 157.168 217.071 157.354 217.675 157.44L217.675 163.441Z" fill="white"/>
</g>
<defs>
<clipPath id="clip0_656_542">
<rect width="665" height="481" fill="white"/>
</clipPath>
</defs>
</svg>
