<svg width="152" height="152" viewBox="0 0 152 152" fill="none" xmlns="http://www.w3.org/2000/svg">
<circle cx="76" cy="76" r="76" fill="#FFFDFD"/>
<path fill-rule="evenodd" clip-rule="evenodd" d="M68.2534 55.3706C69.077 55.3706 69.7447 54.7281 69.7447 53.9356V36.7292C69.7447 32.3928 73.41 28.8701 77.9411 28.8701H98.8374C99.661 28.8701 100.329 28.2276 100.329 27.435C100.329 26.6425 99.661 26 98.8374 26H77.9411C71.7715 26 66.7622 30.7994 66.7622 36.7292V53.9356C66.7622 54.7281 67.4299 55.3706 68.2534 55.3706Z" fill="#003B7D"/>
<path fill-rule="evenodd" clip-rule="evenodd" d="M95.3758 90.1842C95.8795 90.4306 96.4808 90.3726 96.927 90.0346L107.922 81.7062H112.336C118.445 81.7062 123.406 76.8155 123.406 70.7734V36.9324C123.406 30.8902 118.445 25.9998 112.336 25.9998H108.003C107.188 25.9998 106.527 26.6545 106.527 27.4621C106.527 28.2696 107.188 28.9243 108.003 28.9243H112.336C116.823 28.9243 120.452 32.5138 120.452 36.9324V70.7734C120.452 75.192 116.823 78.7817 112.336 78.7817H107.422C107.097 78.7817 106.782 78.8874 106.525 79.0825L97.5065 85.9137V80.2439C97.5065 79.4363 96.8454 78.7817 96.0299 78.7817H78.0588C76.2783 78.7817 74.6362 78.2177 73.2996 77.2611C72.6386 76.7881 71.7156 76.9353 71.2379 77.5898C70.7603 78.2444 70.9089 79.1585 71.5698 79.6315C73.3935 80.9366 75.6374 81.7062 78.0588 81.7062H94.5533V88.8732C94.5533 89.4295 94.8721 89.9377 95.3758 90.1842Z" fill="#003B7D"/>
<path fill-rule="evenodd" clip-rule="evenodd" d="M94.3527 67.795C92.673 67.795 91.0445 67.2174 89.7391 66.1586L88.7497 65.3562C88.1155 64.8419 87.1851 64.9401 86.6718 65.5755C86.1584 66.2109 86.2564 67.143 86.8906 67.6573L87.8798 68.4595C87.8798 68.4595 87.8798 68.4595 87.8798 68.4595C89.7113 69.945 91.9963 70.7554 94.3527 70.7554H108.397C110.567 70.7554 112.316 68.9411 112.212 66.7453M100.793 38.0229C99.9414 36.5303 98.0261 36.0408 96.5652 36.9413C95.6671 37.495 95.1203 38.4759 95.1203 39.532C95.1203 41.6522 94.3476 43.6997 92.9473 45.2896L86.8756 52.1729C86.3352 52.7855 86.3929 53.7209 87.0043 54.2623C87.6157 54.8036 88.5494 54.7459 89.0898 54.1333L95.163 47.2483C97.0396 45.1176 98.0752 42.3736 98.0752 39.532C98.0752 39.5035 98.09 39.4774 98.1138 39.4627C98.1532 39.4385 98.2043 39.4518 98.2269 39.4915C99.5437 41.8003 99.7107 44.5923 98.6782 47.0421L97.5122 49.8088C97.3198 50.2651 97.3681 50.7876 97.6408 51.2008C97.9134 51.6141 98.3744 51.8632 98.8688 51.8647L108.392 51.8936L108.397 51.8936C108.875 51.8936 109.262 52.2816 109.262 52.7604C109.262 53.0226 109.259 53.7475 109.255 54.7399C109.241 58.4384 109.212 65.8528 109.261 66.8844C109.284 67.3841 108.889 67.795 108.397 67.795H94.3527" fill="#003B7D"/>
<path fill-rule="evenodd" clip-rule="evenodd" d="M77.951 67.9184C77.951 68.7126 78.63 69.3564 79.4674 69.3564H87.6235C88.461 69.3564 89.1399 68.7126 89.1399 67.9184V50.5148C89.1399 49.7206 88.461 49.0767 87.6235 49.0767H79.4674C78.63 49.0767 77.951 49.7206 77.951 50.5148V67.9184ZM80.9838 66.4803V51.9529H86.1071V66.4803H80.9838Z" fill="#003B7D"/>
<path fill-rule="evenodd" clip-rule="evenodd" d="M52.1821 104.168C52.6862 104.42 53.2872 104.359 53.7318 104.009L62.6929 96.9577C63.3368 96.4511 63.4557 95.5084 62.9586 94.8522C62.4614 94.196 61.5365 94.0748 60.8926 94.5815L54.3045 99.7653V95.7696C54.3045 94.9406 53.6451 94.2685 52.8316 94.2685H38.0188C34.6605 94.2685 31.9459 91.5038 31.9459 88.1031V72.9557C31.9459 72.1267 31.2864 71.4547 30.4729 71.4547C29.6595 71.4547 29 72.1267 29 72.9557V88.1031C29 93.1705 33.042 97.2707 38.0188 97.2707H51.3587V102.821C51.3587 103.393 51.6781 103.916 52.1821 104.168Z" fill="#003B7D"/>
<path fill-rule="evenodd" clip-rule="evenodd" d="M71.7104 91.689C72.4952 91.8903 73.2908 91.4027 73.4876 90.6C73.6627 89.8858 73.7552 89.1398 73.7552 88.3738V61.026C73.7552 55.9673 69.7351 51.8742 64.7857 51.8742H37.9693C33.0199 51.8742 29 55.9674 29 61.026V64.2617C29 65.0893 29.6558 65.7602 30.4649 65.7602C31.2739 65.7602 31.9297 65.0893 31.9297 64.2617V61.026C31.9297 57.6312 34.6295 54.8712 37.9693 54.8712H64.7857C68.1256 54.8712 70.8255 57.6312 70.8255 61.026V88.3738C70.8255 88.8921 70.763 89.3933 70.6458 89.8711C70.4491 90.6738 70.9257 91.4877 71.7104 91.689Z" fill="#003B7D"/>
<path fill-rule="evenodd" clip-rule="evenodd" d="M40.1888 71.804C40.1888 72.7695 40.8383 73.5522 41.6394 73.5522H61.1159C61.917 73.5522 62.5665 72.7695 62.5665 71.804C62.5665 70.8385 61.917 70.0557 61.1159 70.0557H41.6394C40.8383 70.0557 40.1888 70.8385 40.1888 71.804Z" fill="#003B7D"/>
<path fill-rule="evenodd" clip-rule="evenodd" d="M40.1888 78.4476C40.1888 79.22 40.8383 79.8462 41.6394 79.8462H61.1159C61.917 79.8462 62.5665 79.22 62.5665 78.4476C62.5665 77.6752 61.917 77.049 61.1159 77.049H41.6394C40.8383 77.049 40.1888 77.6752 40.1888 78.4476Z" fill="#003B7D"/>
<path fill-rule="evenodd" clip-rule="evenodd" d="M52.6259 86.12C53.4386 86.2507 54.2062 85.7159 54.3406 84.9255L57.6511 65.4494C57.7854 64.659 57.2355 63.9124 56.4229 63.7817C55.6103 63.651 54.8426 64.1858 54.7082 64.9762L51.3978 84.4523C51.2634 85.2427 51.8133 85.9893 52.6259 86.12Z" fill="#003B7D"/>
<path fill-rule="evenodd" clip-rule="evenodd" d="M46.3322 86.12C47.1449 86.2507 47.9125 85.7159 48.0469 84.9255L51.3574 65.4494C51.4917 64.659 50.9418 63.9124 50.1292 63.7817C49.3166 63.651 48.5489 64.1858 48.4145 64.9762L45.1041 84.4523C44.9697 85.2427 45.5196 85.9893 46.3322 86.12Z" fill="#003B7D"/>
<path fill-rule="evenodd" clip-rule="evenodd" d="M77.897 125.848C78.4022 126.097 79.0046 126.036 79.4502 125.692L85.4258 121.07H87.1911C90.9665 121.07 94.035 118.012 94.035 114.231V111.605C94.035 110.788 93.374 110.126 92.5586 110.126C91.7432 110.126 91.0822 110.788 91.0822 111.605V114.231C91.0822 116.37 89.3444 118.112 87.1911 118.112H84.9222C84.5957 118.112 84.2784 118.221 84.0199 118.421L80.0243 121.511V119.591C80.0243 118.774 79.3633 118.112 78.548 118.112H68.0115C65.8583 118.112 64.1206 116.37 64.1206 114.231V95.0769C64.1206 92.9377 65.8584 91.1956 68.0115 91.1956H87.1911C89.3443 91.1956 91.0822 92.9378 91.0822 95.0769V102.337C91.0822 103.154 91.7432 103.816 92.5586 103.816C93.374 103.816 94.035 103.154 94.035 102.337V95.0769C94.035 91.2956 90.9665 88.2378 87.1911 88.2378H68.0115C64.236 88.2378 61.1678 91.2957 61.1678 95.0769V114.231C61.1678 118.012 64.236 121.07 68.0115 121.07H77.0716V124.521C77.0716 125.085 77.3917 125.6 77.897 125.848Z" fill="#003B7D"/>
<path fill-rule="evenodd" clip-rule="evenodd" d="M76.8888 113.235C77.3345 113.472 77.8683 113.472 78.3139 113.235C80.7218 111.958 82.708 110.697 84.0948 109.245C85.5354 107.736 86.3426 106.003 86.3426 103.894C86.3426 100.875 84.4416 98.8645 82.2066 98.2654C80.6666 97.8525 78.9019 98.1127 77.5855 99.1846C76.2397 98.0752 74.4719 97.7817 72.8911 98.2276C70.6553 98.8582 68.8601 100.922 68.8601 103.894C68.8601 106.003 69.6674 107.736 71.108 109.245C72.4948 110.697 74.4809 111.958 76.8888 113.235ZM73.3079 107.141C72.3275 106.114 71.9028 105.11 71.9028 103.894C71.9028 102.277 72.8007 101.417 73.7164 101.159C74.6581 100.893 75.6925 101.218 76.2495 102.298C76.5155 102.814 77.0516 103.134 77.6317 103.122C78.2117 103.111 78.7347 102.77 78.98 102.244C79.4141 101.313 80.392 100.931 81.4194 101.207C82.3933 101.468 83.2999 102.324 83.2999 103.894C83.2999 105.11 82.8752 106.114 81.8948 107.141C80.9687 108.111 79.5698 109.074 77.6014 110.16C75.6329 109.074 74.234 108.111 73.3079 107.141Z" fill="#003B7D"/>
</svg>
