<svg width="623" height="694" viewBox="0 0 623 694" fill="none" xmlns="http://www.w3.org/2000/svg">
<g clip-path="url(#clip0_665_543)">
<path d="M260.716 394.708C261.115 394.88 261.477 395.129 261.78 395.44C262.083 395.751 262.322 396.119 262.483 396.523C262.644 396.926 262.723 397.358 262.717 397.792C262.711 398.226 262.62 398.655 262.448 399.054L257.952 409.486L258.461 409.746L255.396 416.827L254.905 416.555L238.797 453.929C238.246 455.208 237.247 456.243 235.988 456.841C234.729 457.439 233.295 457.559 231.954 457.178L206.908 450.07C206.299 449.897 205.734 449.593 205.255 449.179C204.775 448.765 204.392 448.251 204.132 447.673C203.872 447.096 203.742 446.468 203.75 445.835C203.759 445.202 203.906 444.578 204.181 444.008L229.426 391.716C229.956 390.618 230.844 389.733 231.945 389.206C233.046 388.679 234.294 388.541 235.483 388.817L260.127 394.518C260.329 394.563 260.526 394.627 260.716 394.708Z" fill="#3F3D56"/>
<path d="M239.87 392.846L252.826 395.843C253.059 395.897 253.304 395.873 253.522 395.774C253.74 395.675 253.919 395.507 254.032 395.296C254.16 395.058 254.363 394.867 254.609 394.755C254.856 394.643 255.133 394.616 255.397 394.677L258.126 395.308C258.499 395.394 258.848 395.561 259.149 395.797C259.449 396.032 259.695 396.331 259.867 396.672C260.04 397.012 260.136 397.387 260.148 397.768C260.16 398.15 260.088 398.529 259.937 398.88L236.624 453.082C236.335 453.754 235.808 454.297 235.143 454.606C234.479 454.915 233.724 454.969 233.023 454.758L208.153 447.262C207.836 447.167 207.543 447.004 207.295 446.785C207.046 446.566 206.848 446.296 206.714 445.993C206.579 445.691 206.512 445.363 206.516 445.032C206.52 444.701 206.595 444.375 206.737 444.075L231.377 392.118C231.74 391.353 232.355 390.734 233.118 390.365C233.881 389.997 234.748 389.9 235.574 390.091L238.451 390.756C238.381 391.219 238.488 391.692 238.751 392.079C239.014 392.467 239.414 392.74 239.87 392.846Z" fill="#6C63FF"/>
<path d="M340.85 112.983C329.665 112.983 318.731 109.67 309.431 103.462C300.131 97.2549 292.882 88.4322 288.602 78.1097C284.321 67.7873 283.201 56.4287 285.384 45.4705C287.566 34.5122 292.952 24.4464 300.861 16.5459C308.77 8.64547 318.847 3.26519 329.817 1.08546C340.787 -1.09427 352.158 0.0244499 362.492 4.30015C372.826 8.57585 381.658 15.8165 387.873 25.1064C394.087 34.3964 397.403 45.3184 397.403 56.4914C397.386 71.4686 391.423 85.8276 380.821 96.4181C370.219 107.009 355.844 112.966 340.85 112.983ZM340.85 2.69005C330.198 2.69005 319.784 5.84544 310.927 11.7572C302.07 17.669 295.166 26.0716 291.09 35.9025C287.013 45.7334 285.947 56.5511 288.025 66.9875C290.103 77.4239 295.233 87.0104 302.765 94.5347C310.298 102.059 319.895 107.183 330.343 109.259C340.79 111.335 351.62 110.269 361.462 106.197C371.303 102.125 379.715 95.2294 385.633 86.3818C391.552 77.5342 394.71 67.1323 394.71 56.4914C394.694 42.2273 389.015 28.5521 378.917 18.4659C368.82 8.3797 355.13 2.70617 340.85 2.69005Z" fill="#CCCCCC"/>
<path d="M558.985 165.439C547.8 165.439 536.866 162.126 527.566 155.919C518.265 149.711 511.017 140.888 506.737 130.566C502.456 120.244 501.336 108.885 503.518 97.9267C505.7 86.9685 511.087 76.9027 518.996 69.0022C526.905 61.1018 536.982 55.7215 547.952 53.5418C558.922 51.362 570.293 52.4807 580.627 56.7564C590.961 61.0321 599.793 68.2728 606.007 77.5627C612.221 86.8527 615.538 97.7748 615.538 108.948C615.521 123.925 609.558 138.284 598.955 148.874C588.353 159.465 573.979 165.422 558.985 165.439ZM558.985 55.1464C548.332 55.1464 537.919 58.3017 529.062 64.2135C520.205 70.1253 513.301 78.5279 509.225 88.3588C505.148 98.1897 504.081 109.007 506.16 119.444C508.238 129.88 513.367 139.467 520.9 146.991C528.432 154.515 538.029 159.639 548.477 161.715C558.925 163.791 569.755 162.726 579.596 158.654C589.438 154.582 597.85 147.686 603.768 138.838C609.686 129.991 612.845 119.589 612.845 108.948C612.829 94.6837 607.149 81.0084 597.052 70.9222C586.955 60.836 573.265 55.1625 558.985 55.1464Z" fill="#CCCCCC"/>
<path d="M457.997 344.329C446.811 344.329 435.877 341.015 426.577 334.808C417.277 328.601 410.029 319.778 405.748 309.455C401.468 299.133 400.348 287.774 402.53 276.816C404.712 265.858 410.098 255.792 418.007 247.892C425.917 239.991 435.993 234.611 446.964 232.431C457.934 230.251 469.305 231.37 479.639 235.646C489.972 239.922 498.805 247.162 505.019 256.452C511.233 265.742 514.55 276.664 514.55 287.837C514.533 302.814 508.569 317.173 497.967 327.764C487.365 338.354 472.99 344.312 457.997 344.329ZM457.997 234.036C447.344 234.036 436.931 237.191 428.074 243.103C419.216 249.015 412.313 257.417 408.236 267.248C404.16 277.079 403.093 287.897 405.171 298.333C407.25 308.77 412.379 318.356 419.912 325.88C427.444 333.405 437.041 338.529 447.489 340.605C457.937 342.681 468.766 341.615 478.608 337.543C488.45 333.471 496.862 326.575 502.78 317.728C508.698 308.88 511.857 298.478 511.857 287.837C511.841 273.573 506.161 259.898 496.064 249.812C485.967 239.725 472.276 234.052 457.997 234.036Z" fill="#CCCCCC"/>
<path d="M591.3 93.4767L598.032 92.1317C598.032 92.1317 592.377 98.4534 591.3 98.8569C591.199 100.2 591.199 101.549 591.3 102.892C578.373 158.307 530.707 133.828 530.707 133.828C548.077 134.231 549.558 127.103 549.558 127.103C539.459 125.623 537.44 119.032 537.44 119.032C538.346 119.51 539.396 119.637 540.39 119.388C541.384 119.14 542.251 118.535 542.826 117.687C531.919 114.863 533.4 104.237 533.4 104.237C535.344 105.639 537.616 106.519 539.998 106.793C538.786 105.313 528.553 93.0732 534.747 86.7516C534.747 86.7516 542.287 100.202 562.081 101.412L563.427 101.143C563.198 100.175 563.108 99.1785 563.158 98.1844C563.158 94.4387 564.647 90.8465 567.299 88.198C569.95 85.5494 573.547 84.0615 577.296 84.0615C586.722 84.0615 588.742 89.4416 588.742 89.4416L595.474 85.4066C595.339 85.4066 594.666 92.1317 591.3 93.4767Z" fill="#E6E6E6"/>
<path d="M483.136 256.899L433.23 256.904C432.589 256.872 431.947 256.968 431.343 257.186C430.738 257.403 430.183 257.737 429.708 258.169C429.233 258.602 428.849 259.123 428.576 259.705C428.304 260.286 428.149 260.915 428.121 261.556L428.126 311.518C428.16 312.862 428.709 314.142 429.66 315.094C430.61 316.046 431.89 316.598 433.236 316.636L483.127 316.631C484.439 316.58 485.679 316.014 486.577 315.055C487.475 314.097 487.958 312.824 487.923 311.512L487.919 261.551C487.929 260.926 487.812 260.306 487.573 259.729C487.335 259.151 486.981 258.629 486.533 258.193C486.085 257.757 485.553 257.418 484.968 257.195C484.384 256.973 483.76 256.872 483.136 256.899ZM446.661 306.692L438.095 306.693L438.092 280.087L446.659 280.086L446.661 306.692ZM442.671 276.041H442.61C441.377 276.033 440.198 275.537 439.331 274.662C438.463 273.787 437.979 272.604 437.983 271.373C437.987 270.141 438.479 268.962 439.352 268.093C440.226 267.223 441.408 266.735 442.641 266.735C443.873 266.735 445.056 267.223 445.929 268.093C446.802 268.962 447.295 270.141 447.299 271.373C447.303 272.604 446.818 273.787 445.951 274.662C445.083 275.537 443.904 276.033 442.671 276.041ZM477.969 306.689L469.403 306.69L469.402 292.142C469.401 288.657 468.154 286.276 465.055 286.276C464.086 286.284 463.143 286.592 462.356 287.158C461.569 287.724 460.977 288.519 460.663 289.435C460.435 290.111 460.334 290.824 460.367 291.536L460.368 306.691L451.801 306.692L451.799 280.086L460.366 280.085L460.366 283.787C461.146 282.44 462.275 281.327 463.634 280.565C464.994 279.804 466.533 279.423 468.091 279.461C473.714 279.461 477.969 283.163 477.969 291.146V306.689Z" fill="#E6E6E6"/>
<path fill-rule="evenodd" clip-rule="evenodd" d="M377.821 56.7131C377.82 49.656 375.794 42.747 371.984 36.8041C368.174 30.8612 362.739 26.1331 356.322 23.1798C349.906 20.2264 342.777 19.1714 335.779 20.1396C328.781 21.1078 322.207 24.0587 316.836 28.6429C311.464 33.2272 307.52 39.2528 305.471 46.0064C303.421 52.76 303.352 59.9589 305.271 66.7507C307.19 73.5425 311.017 79.6428 316.299 84.3296C321.58 89.0163 328.096 92.0931 335.074 93.1958V67.3914H325.685V56.7131H335.074V48.5754C335.074 39.3216 340.595 34.2059 349.039 34.2059C351.812 34.2445 354.578 34.4859 357.316 34.928V44.017H352.651C348.062 44.017 346.626 46.8625 346.626 49.7872V56.7147H356.878L355.241 67.393H346.626V93.1991C355.323 91.8232 363.243 87.3926 368.961 80.7042C374.679 74.0158 377.821 65.5087 377.821 56.7131V56.7131Z" fill="#F5F5F5"/>
<path d="M178.193 677.17L193.586 677.169L200.907 617.858L178.188 617.86L178.193 677.17Z" fill="#FFB8B8"/>
<path d="M223.275 691.445L174.896 691.449L174.894 672.777L204.582 672.775C207.036 672.774 209.467 673.257 211.735 674.195C214.003 675.133 216.064 676.509 217.799 678.242C219.535 679.976 220.912 682.034 221.852 684.299C222.791 686.565 223.275 688.993 223.275 691.445L223.275 691.445Z" fill="#2F2E41"/>
<path d="M95.2183 677.17L110.613 677.169L117.933 617.858L95.2129 617.86L95.2183 677.17Z" fill="#FFB8B8"/>
<path d="M140.301 691.445L91.9211 691.449L91.9194 672.777L121.607 672.775C126.564 672.774 131.319 674.741 134.825 678.242C138.331 681.744 140.3 686.493 140.301 691.445L140.301 691.445Z" fill="#2F2E41"/>
<path d="M140.302 255.536C158.567 255.536 173.374 240.745 173.374 222.5C173.374 204.255 158.567 189.465 140.302 189.465C122.037 189.465 107.23 204.255 107.23 222.5C107.23 240.745 122.037 255.536 140.302 255.536Z" fill="#FFB8B8"/>
<path d="M253.384 437.945C253.153 436.116 252.524 434.359 251.54 432.799C250.556 431.239 249.241 429.914 247.689 428.916C246.136 427.919 244.384 427.273 242.555 427.026C240.726 426.778 238.864 426.933 237.102 427.482L218.62 405.35L202.416 413.289L228.956 444.177C230.075 447.074 232.218 449.46 234.98 450.883C237.742 452.306 240.93 452.668 243.942 451.9C246.953 451.131 249.577 449.287 251.317 446.715C253.058 444.143 253.793 441.023 253.384 437.945Z" fill="#FFB8B8"/>
<path d="M94.3166 460.329C95.1042 458.661 95.5162 456.841 95.5236 454.998C95.531 453.154 95.1335 451.331 94.3593 449.657C93.585 447.983 92.4528 446.499 91.0423 445.31C89.6318 444.121 87.9775 443.254 86.1957 442.773L82.485 414.191L64.5469 412.207L70.3546 452.497C69.743 455.54 70.2703 458.702 71.8366 461.384C73.403 464.065 75.8995 466.079 78.8531 467.044C81.8067 468.01 85.0123 467.859 87.8623 466.622C90.7123 465.384 93.0089 463.145 94.3167 460.329L94.3166 460.329Z" fill="#FFB8B8"/>
<path d="M69.2121 442.852C67.7594 442.851 66.3552 442.33 65.2552 441.382C64.1553 440.434 63.4328 439.123 63.2193 437.688L54.3897 378.293C53.2802 370.817 54.1776 363.18 56.9902 356.164L84.0972 288.589C85.2058 285.825 87.0245 283.402 89.37 281.565C91.7155 279.728 94.5047 278.541 97.4561 278.125C100.407 277.708 103.416 278.077 106.18 279.194C108.943 280.31 111.362 282.135 113.194 284.484H113.194C115.086 286.906 116.282 289.797 116.652 292.847C117.022 295.896 116.553 298.989 115.294 301.792L102.515 330.344C88.1836 362.376 82.7762 397.679 86.8636 432.526C87.029 433.932 86.6953 435.352 85.9207 436.538C85.1461 437.724 83.9796 438.601 82.6243 439.016L70.9918 442.585C70.4152 442.762 69.8153 442.852 69.2121 442.852Z" fill="#CCCCCC"/>
<path d="M132.249 255.534C127.271 255.642 122.327 254.696 117.742 252.759C113.157 250.822 109.034 247.937 105.644 244.295C102.254 240.653 99.6741 236.335 98.0738 231.626C96.4735 226.917 95.8889 221.923 96.3585 216.972C96.8281 212.021 98.3412 207.225 100.798 202.9C103.256 198.575 106.601 194.818 110.616 191.876C114.63 188.935 119.222 186.875 124.09 185.833C128.958 184.79 133.991 184.788 138.86 185.828C146.133 181.417 154.589 178.448 163.063 179.203C171.538 179.958 179.919 184.984 183.088 192.872C186.258 200.759 182.853 211.156 174.973 214.362C169.921 216.417 164.216 215.42 158.825 214.591C153.434 213.763 147.552 213.222 142.86 216.001C138.168 218.779 136.059 226.23 140.261 229.704C142.489 231.619 144.079 234.166 144.821 237.006C145.563 239.847 145.421 242.845 144.414 245.603C142.302 251.059 136.538 255.442 132.249 255.534Z" fill="#2F2E41"/>
<path d="M90.738 665.221C89.9286 665.221 89.1273 665.06 88.3815 664.746C87.6356 664.432 86.9603 663.972 86.3955 663.392C85.8306 662.813 85.3876 662.127 85.0926 661.374C84.7976 660.621 84.6566 659.817 84.6779 659.009L90.5611 435.981L91.2027 435.966L188.456 433.848L205.248 650.716C205.339 652.036 204.997 653.35 204.273 654.458C203.548 655.565 202.481 656.406 201.234 656.853L201.049 656.89L181.962 658.055C181.157 658.327 180.304 658.426 179.458 658.347C178.612 658.267 177.792 658.011 177.052 657.595C176.311 657.178 175.667 656.611 175.16 655.93C174.654 655.248 174.296 654.468 174.111 653.64L142.997 514.568C142.894 514.11 142.635 513.702 142.264 513.414C141.892 513.127 141.432 512.977 140.963 512.992C140.493 513.007 140.043 513.184 139.691 513.494C139.338 513.805 139.105 514.228 139.031 514.692L116.044 659.134C115.821 660.502 115.137 661.753 114.105 662.679C113.073 663.606 111.755 664.152 110.369 664.228L91.0437 665.213C90.9416 665.218 90.8397 665.221 90.738 665.221Z" fill="#6FA4CA"/>
<path d="M119.36 454.441C107.257 454.441 96.6886 452.615 90.8527 447.403C87.1023 444.054 85.4803 439.5 86.0321 433.867C88.1061 412.693 84.5122 366.282 81.1322 331.077C80.358 322.82 81.2356 314.492 83.7137 306.578C86.1918 298.663 90.2209 291.32 95.5667 284.975C100.71 278.829 107.043 273.782 114.185 270.137C121.327 266.492 129.131 264.324 137.132 263.762C148.265 262.97 174.337 261.123 182.441 281.857C194.615 313.003 188.661 327.286 182.903 341.099C178.011 352.834 172.952 364.969 179.153 387.756C182.578 400.357 186.726 412.751 191.577 424.876C194.935 433.477 196.62 437.794 195.064 440.613C193.837 442.837 190.775 443.806 185.554 444.816C183.848 445.146 181.595 445.624 178.911 446.194C165.268 449.091 140.07 454.441 119.36 454.441Z" fill="#CCCCCC"/>
<path d="M218.72 434.921C218.674 434.921 218.627 434.921 218.581 434.92C217.708 434.9 216.85 434.692 216.066 434.311C215.281 433.929 214.589 433.382 214.036 432.708L179.754 390.98C172.434 382.065 167.615 371.369 165.788 359.984L155.232 294.089C154.876 291.867 154.968 289.596 155.501 287.409C156.034 285.222 156.999 283.164 158.338 281.354C159.678 279.544 161.365 278.02 163.301 276.869C165.238 275.718 167.384 274.965 169.616 274.653C171.847 274.341 174.118 274.477 176.296 275.053C178.475 275.628 180.516 276.632 182.301 278.005C184.086 279.378 185.579 281.093 186.693 283.049C187.807 285.006 188.519 287.165 188.787 289.399L192.983 324.35C196.863 356.634 209.398 387.273 229.264 413.033L231.662 416.141C232.528 417.263 232.972 418.652 232.918 420.067C232.864 421.482 232.314 422.833 231.365 423.885L223.222 432.918C222.654 433.549 221.96 434.053 221.185 434.398C220.409 434.743 219.569 434.921 218.72 434.921Z" fill="#CCCCCC"/>
<path d="M383.101 126.206C395.553 126.206 405.648 116.011 405.648 103.435C405.648 90.8596 395.553 80.6649 383.101 80.6649C370.648 80.6649 360.553 90.8596 360.553 103.435C360.553 116.011 370.648 126.206 383.101 126.206Z" fill="#3F3D56"/>
<path d="M387.611 115.58H383.02V98.1064C381.326 99.6997 379.3 100.899 377.088 101.62V97.4127C378.509 96.8904 379.829 96.1287 380.992 95.1606C382.309 94.1756 383.313 92.8321 383.885 91.2912H387.611V115.58Z" fill="#3F3D56"/>
<path d="M383.101 126.206C395.553 126.206 405.648 116.011 405.648 103.435C405.648 90.8596 395.553 80.6649 383.101 80.6649C370.648 80.6649 360.553 90.8596 360.553 103.435C360.553 116.011 370.648 126.206 383.101 126.206Z" fill="#6C63FF"/>
<path d="M387.611 115.58H383.02V98.1064C381.326 99.6997 379.3 100.899 377.088 101.62V97.4127C378.509 96.8904 379.829 96.1287 380.992 95.1606C382.309 94.1756 383.313 92.8321 383.885 91.2912H387.611V115.58Z" fill="white"/>
<path d="M600.204 183.162C612.793 183.162 622.999 172.967 622.999 160.391C622.999 147.815 612.793 137.621 600.204 137.621C587.614 137.621 577.408 147.815 577.408 160.391C577.408 172.967 587.614 183.162 600.204 183.162Z" fill="#3F3D56"/>
<path d="M597.496 164.113C597.418 165.336 597.763 166.547 598.474 167.545C598.726 167.906 599.06 168.204 599.448 168.414C599.836 168.624 600.267 168.741 600.709 168.755C601.099 168.758 601.485 168.671 601.835 168.499C602.186 168.327 602.491 168.075 602.727 167.764C603.349 166.802 603.633 165.661 603.534 164.519C603.631 163.321 603.325 162.125 602.664 161.12C602.414 160.789 602.091 160.52 601.721 160.333C601.35 160.147 600.942 160.047 600.526 160.042C600.111 160.037 599.701 160.128 599.326 160.306C598.951 160.484 598.622 160.746 598.364 161.071C597.725 161.951 597.418 163.029 597.496 164.113ZM607.384 154.168L603.161 154.656C603.127 153.914 602.843 153.204 602.353 152.645C602.13 152.427 601.865 152.258 601.574 152.146C601.283 152.035 600.973 151.983 600.661 151.996C600.195 152.002 599.737 152.124 599.33 152.351C598.922 152.577 598.577 152.901 598.325 153.293C597.483 154.968 597.069 156.825 597.121 158.698C597.591 158.068 598.203 157.558 598.907 157.208C599.611 156.858 600.387 156.678 601.174 156.683C602.066 156.68 602.948 156.873 603.756 157.25C604.565 157.626 605.281 158.175 605.853 158.86C607.191 160.416 607.887 162.423 607.801 164.473C607.905 166.617 607.171 168.717 605.752 170.33C605.031 171.075 604.158 171.657 603.192 172.036C602.226 172.415 601.19 172.581 600.153 172.525C599.117 172.469 598.105 172.191 597.186 171.709C596.267 171.228 595.462 170.555 594.826 169.736C593.346 167.871 592.605 164.813 592.605 160.562C592.605 156.202 593.376 153.06 594.918 151.135C595.62 150.214 596.531 149.472 597.575 148.97C598.619 148.468 599.767 148.22 600.926 148.247C602.497 148.191 604.031 148.733 605.217 149.764C606.432 150.934 607.198 152.492 607.384 154.168Z" fill="#3F3D56"/>
<path d="M600.204 183.162C612.793 183.162 622.999 172.967 622.999 160.391C622.999 147.815 612.793 137.621 600.204 137.621C587.614 137.621 577.408 147.815 577.408 160.391C577.408 172.967 587.614 183.162 600.204 183.162Z" fill="#6C63FF"/>
<path d="M597.496 164.113C597.418 165.336 597.763 166.547 598.474 167.545C598.726 167.906 599.06 168.204 599.448 168.414C599.836 168.624 600.267 168.741 600.709 168.755C601.099 168.758 601.485 168.671 601.835 168.499C602.186 168.327 602.491 168.075 602.727 167.764C603.349 166.802 603.633 165.661 603.534 164.519C603.631 163.321 603.325 162.125 602.664 161.12C602.414 160.789 602.091 160.52 601.721 160.333C601.35 160.147 600.942 160.047 600.526 160.042C600.111 160.037 599.701 160.128 599.326 160.306C598.951 160.484 598.622 160.746 598.364 161.071C597.725 161.951 597.418 163.029 597.496 164.113ZM607.384 154.168L603.161 154.656C603.127 153.914 602.843 153.204 602.353 152.645C602.13 152.427 601.865 152.258 601.574 152.146C601.283 152.035 600.973 151.983 600.661 151.996C600.195 152.002 599.737 152.124 599.33 152.351C598.922 152.577 598.577 152.901 598.325 153.293C597.483 154.968 597.069 156.825 597.121 158.698C597.591 158.068 598.203 157.558 598.907 157.208C599.611 156.858 600.387 156.678 601.174 156.683C602.066 156.68 602.948 156.873 603.756 157.25C604.565 157.626 605.281 158.175 605.853 158.86C607.191 160.416 607.887 162.423 607.801 164.473C607.905 166.617 607.171 168.717 605.752 170.33C605.031 171.075 604.158 171.657 603.192 172.036C602.226 172.415 601.19 172.581 600.153 172.525C599.117 172.469 598.105 172.191 597.186 171.709C596.267 171.228 595.462 170.555 594.826 169.736C593.346 167.871 592.605 164.813 592.605 160.562C592.605 156.202 593.376 153.06 594.918 151.135C595.62 150.214 596.531 149.472 597.575 148.97C598.619 148.468 599.767 148.22 600.926 148.247C602.497 148.191 604.031 148.733 605.217 149.764C606.432 150.934 607.198 152.492 607.384 154.168Z" fill="white"/>
<path d="M504.274 359.088C516.864 359.088 527.07 348.893 527.07 336.317C527.07 323.742 516.864 313.547 504.274 313.547C491.684 313.547 481.479 323.742 481.479 336.317C481.479 348.893 491.684 359.088 504.274 359.088Z" fill="#3F3D56"/>
<path d="M501.453 330.626C501.43 331.012 501.484 331.399 501.612 331.763C501.741 332.128 501.942 332.463 502.202 332.749C502.464 333.007 502.776 333.207 503.119 333.338C503.462 333.47 503.828 333.528 504.195 333.511C504.566 333.529 504.937 333.469 505.284 333.337C505.632 333.204 505.948 333.002 506.213 332.742C506.475 332.455 506.677 332.118 506.807 331.752C506.937 331.386 506.992 330.997 506.969 330.609C506.987 330.235 506.93 329.861 506.802 329.509C506.674 329.156 506.476 328.833 506.222 328.558C505.963 328.299 505.654 328.098 505.313 327.965C504.973 327.833 504.608 327.772 504.243 327.788C503.869 327.77 503.495 327.83 503.145 327.964C502.795 328.098 502.476 328.303 502.21 328.566C501.953 328.842 501.754 329.166 501.624 329.52C501.494 329.874 501.436 330.25 501.453 330.626ZM501.043 340.809C500.979 341.87 501.314 342.916 501.982 343.743C502.27 344.08 502.629 344.35 503.034 344.532C503.438 344.714 503.878 344.805 504.322 344.797C504.752 344.807 505.179 344.721 505.571 344.545C505.964 344.37 506.312 344.11 506.592 343.783C507.242 342.952 507.562 341.91 507.49 340.857C507.538 339.88 507.211 338.921 506.577 338.175C506.289 337.847 505.932 337.585 505.531 337.41C505.131 337.234 504.696 337.149 504.259 337.16C503.791 337.129 503.322 337.219 502.898 337.42C502.475 337.622 502.11 337.929 501.839 338.312C501.321 339.042 501.043 339.915 501.043 340.809ZM500.54 335.214C499.509 334.814 498.634 334.095 498.04 333.163C497.522 332.3 497.252 331.31 497.261 330.303C497.236 329.485 497.384 328.671 497.695 327.914C498.006 327.156 498.472 326.473 499.065 325.907C500.535 324.783 502.336 324.173 504.188 324.173C506.041 324.173 507.841 324.783 509.312 325.907C509.909 326.47 510.379 327.153 510.693 327.911C511.007 328.668 511.157 329.484 511.133 330.303C511.155 331.346 510.863 332.372 510.295 333.247C509.727 334.123 508.909 334.808 507.947 335.215C509.131 335.655 510.146 336.454 510.851 337.501C511.555 338.548 511.913 339.79 511.874 341.051C511.928 342.043 511.772 343.035 511.415 343.963C511.058 344.89 510.509 345.732 509.803 346.432C509.097 347.132 508.251 347.675 507.32 348.025C506.389 348.375 505.394 348.523 504.401 348.462C502.505 348.529 500.646 347.927 499.151 346.76C498.337 346.097 497.689 345.253 497.259 344.296C496.829 343.338 496.63 342.293 496.677 341.245C496.665 340.003 496.986 338.781 497.607 337.705C498.286 336.577 499.316 335.702 500.54 335.214Z" fill="#3F3D56"/>
<path d="M504.274 359.088C516.864 359.088 527.07 348.893 527.07 336.317C527.07 323.742 516.864 313.547 504.274 313.547C491.684 313.547 481.479 323.742 481.479 336.317C481.479 348.893 491.684 359.088 504.274 359.088Z" fill="#6C63FF"/>
<path d="M501.453 330.626C501.43 331.012 501.484 331.399 501.612 331.763C501.741 332.128 501.942 332.463 502.202 332.749C502.464 333.007 502.776 333.207 503.119 333.338C503.462 333.47 503.828 333.528 504.195 333.511C504.566 333.529 504.937 333.469 505.284 333.337C505.632 333.204 505.948 333.002 506.213 332.742C506.475 332.455 506.677 332.118 506.807 331.752C506.937 331.386 506.992 330.997 506.969 330.609C506.987 330.235 506.93 329.861 506.802 329.509C506.674 329.156 506.476 328.833 506.222 328.558C505.963 328.299 505.654 328.098 505.313 327.965C504.973 327.833 504.608 327.772 504.243 327.788C503.869 327.77 503.495 327.83 503.145 327.964C502.795 328.098 502.476 328.303 502.21 328.566C501.953 328.842 501.754 329.166 501.624 329.52C501.494 329.874 501.436 330.25 501.453 330.626ZM501.043 340.809C500.979 341.87 501.314 342.916 501.982 343.743C502.27 344.08 502.629 344.35 503.034 344.532C503.438 344.714 503.878 344.805 504.322 344.797C504.752 344.807 505.179 344.721 505.571 344.545C505.964 344.37 506.312 344.11 506.592 343.783C507.242 342.952 507.562 341.91 507.49 340.857C507.538 339.88 507.211 338.921 506.577 338.175C506.289 337.847 505.932 337.585 505.531 337.41C505.131 337.234 504.696 337.149 504.259 337.16C503.791 337.129 503.322 337.219 502.898 337.42C502.475 337.622 502.11 337.929 501.839 338.312C501.321 339.042 501.043 339.915 501.043 340.809ZM500.54 335.214C499.509 334.814 498.634 334.095 498.04 333.163C497.522 332.3 497.252 331.31 497.261 330.303C497.236 329.485 497.384 328.671 497.695 327.914C498.006 327.156 498.472 326.473 499.065 325.907C500.535 324.783 502.336 324.173 504.188 324.173C506.041 324.173 507.841 324.783 509.312 325.907C509.909 326.47 510.379 327.153 510.693 327.911C511.007 328.668 511.157 329.484 511.133 330.303C511.155 331.346 510.863 332.372 510.295 333.247C509.727 334.123 508.909 334.808 507.947 335.215C509.131 335.655 510.146 336.454 510.851 337.501C511.555 338.548 511.913 339.79 511.874 341.051C511.928 342.043 511.772 343.035 511.415 343.963C511.058 344.89 510.509 345.732 509.803 346.432C509.097 347.132 508.251 347.675 507.32 348.025C506.389 348.375 505.394 348.523 504.401 348.462C502.505 348.529 500.646 347.927 499.151 346.76C498.337 346.097 497.689 345.253 497.259 344.296C496.829 343.338 496.63 342.293 496.677 341.245C496.665 340.003 496.986 338.781 497.607 337.705C498.286 336.577 499.316 335.702 500.54 335.214Z" fill="white"/>
<path d="M312.39 694H1.34651C0.989391 694 0.64688 693.858 0.394361 693.606C0.141842 693.354 0 693.012 0 692.655C0 692.298 0.141842 691.956 0.394361 691.704C0.64688 691.452 0.989391 691.31 1.34651 691.31H312.39C312.747 691.31 313.089 691.452 313.342 691.704C313.594 691.956 313.736 692.298 313.736 692.655C313.736 693.012 313.594 693.354 313.342 693.606C313.089 693.858 312.747 694 312.39 694Z" fill="#CCCCCC"/>
</g>
<defs>
<clipPath id="clip0_665_543">
<rect width="623" height="694" fill="white"/>
</clipPath>
</defs>
</svg>
