<svg width="102" height="102" viewBox="0 0 102 102" fill="none" xmlns="http://www.w3.org/2000/svg">
<circle cx="51" cy="51" r="51" fill="#00549A"/>
<g clip-path="url(#clip0_1614_822)">
<mask id="mask0_1614_822" style="mask-type:luminance" maskUnits="userSpaceOnUse" x="14" y="21" width="70" height="69">
<path d="M14.415 21H83.415V90H14.415V21Z" fill="white"/>
</mask>
<g mask="url(#mask0_1614_822)">
<path fill-rule="evenodd" clip-rule="evenodd" d="M43.6836 41.6865C44.2418 41.6865 44.6943 41.234 44.6943 40.6758V28.5568C44.6943 25.5026 47.1787 23.0215 50.2498 23.0215H64.4131C64.9713 23.0215 65.4238 22.569 65.4238 22.0107C65.4238 21.4525 64.9713 21 64.4131 21H50.2498C46.0681 21 42.6729 24.3804 42.6729 28.5568V40.6758C42.6729 41.234 43.1254 41.6865 43.6836 41.6865Z" fill="white"/>
<path fill-rule="evenodd" clip-rule="evenodd" d="M62.1035 65.3656C62.4483 65.536 62.8599 65.4959 63.1653 65.2623L70.6913 59.5055H73.7132C77.8949 59.5055 81.2901 56.125 81.2901 51.9485V28.557C81.2901 24.3805 77.8949 21.0001 73.7132 21.0001H70.747C70.1888 21.0001 69.7363 21.4526 69.7363 22.0109C69.7363 22.5691 70.1888 23.0216 70.747 23.0216H73.7132C76.7843 23.0216 79.2687 25.5027 79.2687 28.557V51.9485C79.2687 55.0027 76.7843 57.484 73.7132 57.484H70.3491C70.1271 57.484 69.9113 57.5571 69.735 57.6919L63.562 62.4138V58.4947C63.562 57.9365 63.1095 57.484 62.5513 57.484H50.2498C49.0311 57.484 47.9071 57.0942 46.9921 56.433C46.5397 56.106 45.9079 56.2077 45.5809 56.6602C45.2539 57.1126 45.3557 57.7445 45.8081 58.0714C47.0564 58.9735 48.5924 59.5055 50.2498 59.5055H61.5405V64.4595C61.5405 64.844 61.7587 65.1953 62.1035 65.3656Z" fill="white"/>
<path fill-rule="evenodd" clip-rule="evenodd" d="M61.3908 49.7793C60.2418 49.7793 59.1277 49.3849 58.2347 48.6619L57.5578 48.1141C57.1239 47.7628 56.4875 47.8299 56.1363 48.2638C55.785 48.6977 55.8521 49.3341 56.286 49.6853L56.9627 50.2331C56.9627 50.2331 56.9627 50.2331 56.9627 50.2331C58.2157 51.2475 59.7789 51.8008 61.3908 51.8008H70.9986C72.4833 51.8008 73.6796 50.5619 73.6089 49.0625M65.7965 29.4498C65.2141 28.4306 63.9039 28.0964 62.9045 28.7113C62.2901 29.0894 61.916 29.7591 61.916 30.4803C61.916 31.928 61.3874 33.3262 60.4294 34.4118L56.2757 39.112C55.906 39.5303 55.9455 40.169 56.3637 40.5387C56.782 40.9083 57.4208 40.8689 57.7904 40.4506L61.9452 35.7493C63.229 34.2943 63.9375 32.4206 63.9375 30.4803C63.9375 30.4608 63.9476 30.443 63.9639 30.4329C63.9908 30.4164 64.0258 30.4255 64.0413 30.4527C64.9421 32.0292 65.0563 33.9357 64.35 35.6085L63.5523 37.4976C63.4207 37.8093 63.4537 38.166 63.6403 38.4482C63.8268 38.7304 64.1421 38.9005 64.4804 38.9016L70.9955 38.9212L70.9986 38.9212C71.3255 38.9212 71.5904 39.1862 71.5904 39.5131C71.5904 39.6922 71.5885 40.1871 71.5859 40.8648C71.5761 43.3903 71.5565 48.4532 71.5897 49.1576C71.6058 49.4988 71.3352 49.7793 70.9986 49.7793H61.3908" fill="white"/>
<path fill-rule="evenodd" clip-rule="evenodd" d="M50.3511 50.3452C50.3511 50.9034 50.8036 51.356 51.3618 51.356H56.7983C57.3565 51.356 57.809 50.9034 57.809 50.3452V38.1132C57.809 37.555 57.3565 37.1025 56.7983 37.1025H51.3618C50.8036 37.1025 50.3511 37.555 50.3511 38.1132V50.3452ZM52.3726 49.3345V39.124H55.7875V49.3345H52.3726Z" fill="white"/>
<path fill-rule="evenodd" clip-rule="evenodd" d="M32.4478 74.6298C32.7937 74.7998 33.2061 74.7582 33.5112 74.5227L39.6604 69.7749C40.1022 69.4337 40.1839 68.799 39.8427 68.3572C39.5016 67.9153 38.8668 67.8337 38.425 68.1748L33.9042 71.6653V68.9749C33.9042 68.4166 33.4517 67.9641 32.8935 67.9641H22.7288C20.4242 67.9641 18.5614 66.1025 18.5614 63.8127V53.6133C18.5614 53.0551 18.1089 52.6026 17.5507 52.6026C16.9924 52.6026 16.5399 53.0551 16.5399 53.6133V63.8127C16.5399 67.2248 19.3136 69.9856 22.7288 69.9856H31.8827V73.7226C31.8827 74.108 32.1019 74.4599 32.4478 74.6298Z" fill="white"/>
<path fill-rule="evenodd" clip-rule="evenodd" d="M46.0095 66.0485C46.551 66.1843 47.1 65.8554 47.2357 65.314C47.3565 64.8322 47.4204 64.3291 47.4204 63.8124V45.3661C47.4204 41.9539 44.6466 39.1931 41.2316 39.1931H22.7287C19.3136 39.1931 16.5399 41.954 16.5399 45.3661V47.5486C16.5399 48.1068 16.9925 48.5593 17.5507 48.5593C18.1089 48.5593 18.5614 48.1068 18.5614 47.5486V45.3661C18.5614 43.0762 20.4242 41.2146 22.7287 41.2146H41.2316C43.536 41.2146 45.3989 43.0762 45.3989 45.3661V63.8124C45.3989 64.162 45.3558 64.5 45.275 64.8223C45.1392 65.3637 45.4681 65.9127 46.0095 66.0485Z" fill="white"/>
<path fill-rule="evenodd" clip-rule="evenodd" d="M24.1839 52.6299C24.1839 53.1881 24.6365 53.6406 25.1947 53.6406H38.7656C39.3238 53.6406 39.7763 53.1881 39.7763 52.6299C39.7763 52.0717 39.3238 51.6191 38.7656 51.6191H25.1947C24.6365 51.6191 24.1839 52.0717 24.1839 52.6299Z" fill="white"/>
<path fill-rule="evenodd" clip-rule="evenodd" d="M24.1839 57.1167C24.1839 57.6749 24.6365 58.1274 25.1947 58.1274H38.7656C39.3238 58.1274 39.7763 57.6749 39.7763 57.1167C39.7763 56.5585 39.3238 56.106 38.7656 56.106H25.1947C24.6365 56.106 24.1839 56.5585 24.1839 57.1167Z" fill="white"/>
<path fill-rule="evenodd" clip-rule="evenodd" d="M32.9371 62.6562C33.4878 62.7473 34.0081 62.3746 34.0991 61.8239L36.3427 48.253C36.4338 47.7022 36.0611 47.182 35.5104 47.0909C34.9596 46.9999 34.4394 47.3725 34.3483 47.9233L32.1047 61.4942C32.0137 62.0449 32.3863 62.5652 32.9371 62.6562Z" fill="white"/>
<path fill-rule="evenodd" clip-rule="evenodd" d="M28.4499 62.6562C29.0007 62.7473 29.5209 62.3746 29.612 61.8239L31.8556 48.253C31.9466 47.7022 31.574 47.182 31.0232 47.0909C30.4725 46.9999 29.9522 47.3725 29.8612 47.9233L27.6176 61.4942C27.5265 62.0449 27.8992 62.5652 28.4499 62.6562Z" fill="white"/>
<path fill-rule="evenodd" clip-rule="evenodd" d="M50.0631 89.8964C50.409 90.0664 50.8214 90.0248 51.1265 89.7893L55.2174 86.6307H56.4259C59.0106 86.6307 61.1113 84.541 61.1113 81.9566V80.1621C61.1113 79.6039 60.6588 79.1514 60.1006 79.1514C59.5424 79.1514 59.0898 79.6039 59.0898 80.1621V81.9566C59.0898 83.4187 57.9001 84.6092 56.4259 84.6092H54.8726C54.6491 84.6092 54.4318 84.6833 54.2549 84.8199L51.5195 86.9319V85.62C51.5195 85.0618 51.067 84.6092 50.5088 84.6092H43.2954C41.8213 84.6092 40.6317 83.4188 40.6317 81.9566V68.8662C40.6317 67.4042 41.8213 66.2136 43.2954 66.2136H56.4259C57.9001 66.2136 59.0898 67.4042 59.0898 68.8662V73.8281C59.0898 74.3863 59.5424 74.8389 60.1006 74.8389C60.6588 74.8389 61.1113 74.3863 61.1113 73.8281V68.8662C61.1113 66.2819 59.0106 64.1921 56.4259 64.1921H43.2954C40.7107 64.1921 38.6102 66.282 38.6102 68.8662V81.9566C38.6102 84.541 40.7107 86.6307 43.2954 86.6307H49.498V88.9893C49.498 89.3746 49.7172 89.7265 50.0631 89.8964Z" fill="white"/>
<path fill-rule="evenodd" clip-rule="evenodd" d="M49.3873 80.7524C49.6834 80.9094 50.038 80.9094 50.3341 80.7524C51.9339 79.9044 53.2534 79.0676 54.1747 78.1034C55.1318 77.1016 55.6682 75.9516 55.6682 74.5511C55.6682 72.5474 54.4052 71.2124 52.9203 70.8147C51.8972 70.5407 50.7247 70.7134 49.8502 71.425C48.9561 70.6885 47.7816 70.4937 46.7313 70.7896C45.246 71.2082 44.0533 72.5786 44.0533 74.5511C44.0533 75.9516 44.5896 77.1016 45.5467 78.1034C46.468 79.0676 47.7876 79.9044 49.3873 80.7524ZM47.0082 76.7069C46.3569 76.0252 46.0747 75.3586 46.0747 74.5511C46.0747 73.478 46.6712 72.9068 47.2797 72.7353C47.9053 72.559 48.5925 72.775 48.9625 73.4919C49.1393 73.8344 49.4955 74.0466 49.8808 74.0389C50.2662 74.0312 50.6136 73.8051 50.7766 73.4558C51.0651 72.8377 51.7147 72.5845 52.3973 72.7674C53.0443 72.9407 53.6467 73.5092 53.6467 74.5511C53.6467 75.3586 53.3645 76.0252 52.7132 76.7069C52.0979 77.3508 51.1685 77.9902 49.8607 78.7107C48.5529 77.9902 47.6235 77.3508 47.0082 76.7069Z" fill="white"/>
</g>
</g>
<defs>
<clipPath id="clip0_1614_822">
<rect width="69" height="69" fill="white" transform="translate(13 21)"/>
</clipPath>
</defs>
</svg>
