<svg width="30" height="25" viewBox="0 0 30 25" fill="none" xmlns="http://www.w3.org/2000/svg">
<path d="M30 2.8875C28.875 3.375 27.7125 3.7125 26.475 3.8625C27.75 3.1125 28.725 1.9125 29.175 0.45C27.975 1.1625 26.6625 1.65 25.275 1.95C24.15 0.75 22.5375 0 20.775 0C17.3625 0 14.625 2.775 14.625 6.15C14.625 6.6375 14.6625 7.0875 14.775 7.5375C9.675 7.3125 5.175 4.8375 2.1375 1.125C-0.0374998 5.025 2.4 8.25 4.0125 9.3375C3.0375 9.3375 2.0625 9.0375 1.2375 8.5875C1.2375 11.625 3.375 14.1375 6.15 14.7C5.55 14.8875 4.2 15 3.375 14.8125C4.1625 17.25 6.45 19.05 9.1125 19.0875C7.0125 20.7375 3.9375 22.05 0 21.6375C2.7375 23.4 5.9625 24.4125 9.45 24.4125C20.775 24.4125 26.925 15.0375 26.925 6.9375C26.925 6.675 26.925 6.4125 26.8875 6.15C28.1625 5.2125 29.2125 4.125 30 2.8875V2.8875Z" fill="#00549A"/>
</svg>
