<svg width="488" height="385" viewBox="0 0 488 385" fill="none" xmlns="http://www.w3.org/2000/svg">
<g clip-path="url(#clip0_240_4729)">
<path d="M443.022 0.251465H0.189453V284.461H443.022V0.251465Z" fill="#E6E6E6"/>
<path d="M430.359 35.8984H12.8516V267.647H430.359V35.8984Z" fill="white"/>
<path d="M442.833 0H0V18.8529H442.833V0Z" fill="#6C63FF"/>
<path d="M13.98 13.1328C15.9058 13.1328 17.4669 11.5684 17.4669 9.63853C17.4669 7.70871 15.9058 6.14429 13.98 6.14429C12.0543 6.14429 10.4932 7.70871 10.4932 9.63853C10.4932 11.5684 12.0543 13.1328 13.98 13.1328Z" fill="white"/>
<path d="M27.2154 13.1328C29.1411 13.1328 30.7023 11.5684 30.7023 9.63853C30.7023 7.70871 29.1411 6.14429 27.2154 6.14429C25.2896 6.14429 23.7285 7.70871 23.7285 9.63853C23.7285 11.5684 25.2896 13.1328 27.2154 13.1328Z" fill="white"/>
<path d="M40.4507 13.1328C42.3765 13.1328 43.9376 11.5684 43.9376 9.63853C43.9376 7.70871 42.3765 6.14429 40.4507 6.14429C38.525 6.14429 36.9639 7.70871 36.9639 9.63853C36.9639 11.5684 38.525 13.1328 40.4507 13.1328Z" fill="white"/>
<path d="M158.068 59.9443H50.7881V243.601H158.068V59.9443Z" fill="#E6E6E6"/>
<path d="M265.986 59.9443H176.586V110.498H265.986V59.9443Z" fill="#6C63FF"/>
<path d="M265.986 124.576H176.586V178.969H265.986V124.576Z" fill="#E6E6E6"/>
<path d="M265.986 193.048H176.586V243.602H265.986V193.048Z" fill="#E6E6E6"/>
<path d="M392.423 59.9443H285.144V139.981H392.423V59.9443Z" fill="#E6E6E6"/>
<path d="M392.423 163.565H285.144V243.601H392.423V163.565Z" fill="#E6E6E6"/>
<path d="M351.096 145.731V128.5C351.096 122.376 353.523 116.504 357.844 112.174C362.165 107.843 368.025 105.411 374.136 105.411C380.247 105.411 386.107 107.843 390.428 112.174C394.749 116.504 397.177 122.376 397.177 128.5V145.731C397.176 146.553 396.849 147.342 396.269 147.923C395.689 148.504 394.902 148.831 394.082 148.832H354.191C353.37 148.831 352.583 148.504 352.003 147.923C351.423 147.342 351.097 146.553 351.096 145.731Z" fill="#2F2E41"/>
<path d="M408.205 369.969L400.078 372.223L387.536 341.885L399.53 338.558L408.205 369.969Z" fill="#FFB8B8"/>
<path d="M393.632 371.506L409.304 367.16L412.035 377.049L386.495 384.132C386.136 382.833 386.036 381.477 386.201 380.139C386.365 378.802 386.791 377.51 387.454 376.338C388.117 375.166 389.003 374.135 390.063 373.307C391.123 372.478 392.336 371.866 393.632 371.506Z" fill="#2F2E41"/>
<path d="M323.481 376.234H315.049L311.037 343.642H323.482L323.481 376.234Z" fill="#FFB8B8"/>
<path d="M309.025 373.819H325.287V384.08H298.786C298.786 382.732 299.051 381.398 299.566 380.153C300.08 378.908 300.834 377.777 301.785 376.824C302.736 375.872 303.864 375.116 305.107 374.6C306.349 374.085 307.68 373.819 309.025 373.819Z" fill="#2F2E41"/>
<path d="M313.313 194.086C313.915 194.9 314.687 195.572 315.577 196.055C316.466 196.537 317.449 196.819 318.459 196.879C319.468 196.939 320.478 196.777 321.418 196.404C322.358 196.03 323.205 195.455 323.899 194.718L346.314 204.821L344.275 192.186L323.302 184.53C321.99 183.443 320.325 182.877 318.624 182.938C316.923 182.999 315.303 183.684 314.072 184.862C312.841 186.04 312.083 187.629 311.943 189.329C311.804 191.029 312.291 192.722 313.313 194.086H313.313Z" fill="#FFB8B8"/>
<path d="M359.885 270.065C352.843 270.065 345.552 269.014 339.424 265.888C336.171 264.261 333.289 261.978 330.956 259.184C328.624 256.389 326.892 253.142 325.869 249.646C322.676 239.514 326.702 229.561 330.595 219.936C333.008 213.972 335.286 208.339 335.877 202.786L336.084 200.814C337.005 191.959 337.8 184.312 342.203 181.443C344.485 179.957 347.554 179.872 351.585 181.184L389.443 193.508L388.051 265.526L387.821 265.603C387.623 265.67 374.277 270.065 359.885 270.065Z" fill="#2F2E41"/>
<path d="M350.923 158.763C350.923 158.763 369.493 153.249 383.936 155.317C383.936 155.317 375.683 200.806 378.434 215.969C381.185 231.132 330.634 221.828 340.95 207.354L344.389 190.123C344.389 190.123 337.512 183.231 343.702 174.96L350.923 158.763Z" fill="#6C63FF"/>
<path d="M341.789 268.7L318.902 264.4L326.893 202.778C327.43 201.057 339.808 162.015 345.429 159.902C349.511 158.462 353.685 157.3 357.924 156.424L358.738 156.26L354.149 163.159L335.878 207.031L341.789 268.7Z" fill="#2F2E41"/>
<path d="M329.864 368.682L300.293 363.743L316.888 295.838L341.581 202.973L341.825 204.622C341.844 204.745 344.151 216.876 378.381 211.493L378.682 211.446L378.765 211.74L420.136 358.227L386.441 363.855L355.71 256.978L329.864 368.682Z" fill="#2F2E41"/>
<path d="M370.851 280.232L370.869 279.711C370.89 279.132 372.924 221.558 372.245 198.404C371.563 175.171 379.069 155.051 379.145 154.85L379.206 154.689L379.372 154.641C389.083 151.861 397.507 160.158 397.591 160.242L397.71 160.361L394.944 183.227L406.785 266.377L370.851 280.232Z" fill="#2F2E41"/>
<path d="M369.401 148.431C378.731 148.431 386.294 140.852 386.294 131.503C386.294 122.154 378.731 114.575 369.401 114.575C360.072 114.575 352.509 122.154 352.509 131.503C352.509 140.852 360.072 148.431 369.401 148.431Z" fill="#FFB8B8"/>
<path d="M345.645 129.879C345.65 125.036 347.572 120.394 350.989 116.97C354.406 113.546 359.038 111.619 363.871 111.614H367.31C372.142 111.619 376.775 113.546 380.191 116.97C383.608 120.394 385.53 125.036 385.536 129.879V130.223H378.268L375.789 123.268L375.294 130.223H371.538L370.287 126.714L370.037 130.223H345.645V129.879Z" fill="#2F2E41"/>
<path d="M367.739 150.77C367.398 150.307 367.194 149.757 367.151 149.183C367.108 148.609 367.228 148.035 367.497 147.526C371.141 140.58 376.243 127.745 369.471 119.829L368.984 119.261H388.646V148.842L370.784 152.001C370.604 152.033 370.42 152.049 370.237 152.049C369.749 152.049 369.268 151.933 368.834 151.711C368.4 151.488 368.025 151.166 367.739 150.77Z" fill="#2F2E41"/>
<path d="M288.577 28.6351C274.819 17.0011 257.983 9.62528 240.118 7.40519C222.253 5.18511 204.129 8.21647 187.952 16.1304C171.774 24.0443 158.241 36.4996 148.999 51.9806C139.757 67.4615 135.204 85.3008 135.895 103.327C136.585 121.354 142.489 138.791 152.889 153.516C163.288 168.242 177.734 179.621 194.469 186.268C211.204 192.916 229.507 194.546 247.15 190.96C264.792 187.374 281.014 178.726 293.842 166.07L407.75 262.388C409.484 263.856 411.728 264.575 413.99 264.385C416.251 264.195 418.345 263.113 419.81 261.376C421.276 259.639 421.992 257.39 421.803 255.124C421.613 252.857 420.533 250.759 418.8 249.291L418.788 249.28L304.879 152.962C318.112 133.93 323.775 110.632 320.76 87.6339C317.744 64.6357 306.267 43.595 288.577 28.6351ZM281.234 143.687C272.36 154.226 260.567 161.891 247.346 165.713C234.124 169.536 220.069 169.343 206.957 165.161C193.845 160.978 182.265 152.993 173.681 142.215C165.098 131.437 159.897 118.35 158.735 104.61C157.573 90.8697 160.504 77.0928 167.155 65.0215C173.807 52.9501 183.881 43.1265 196.105 36.7928C208.328 30.4592 222.15 27.9 235.825 29.4389C249.499 30.9778 262.411 36.5456 272.928 45.4384H272.928C279.911 51.3429 285.665 58.5679 289.861 66.7009C294.058 74.8338 296.615 83.7155 297.386 92.8387C298.157 101.962 297.128 111.148 294.356 119.873C291.585 128.597 287.126 136.689 281.234 143.687Z" fill="#3F3D56"/>
<path opacity="0.3" d="M183.193 152.01C169.846 140.723 161.223 124.819 159.036 107.455C156.849 90.0919 161.258 72.5392 171.387 58.2825C170.057 59.625 168.771 61.031 167.529 62.5005C161.637 69.4981 157.178 77.5902 154.407 86.3147C151.635 95.0392 150.606 104.225 151.377 113.349C152.149 122.472 154.705 131.353 158.902 139.486C163.098 147.619 168.852 154.844 175.835 160.749C182.818 166.653 190.893 171.122 199.599 173.899C208.305 176.676 217.472 177.708 226.576 176.935C235.68 176.162 244.543 173.6 252.659 169.394C260.774 165.189 267.984 159.423 273.876 152.425C275.115 150.954 276.282 149.447 277.376 147.905C265.057 160.309 248.532 167.618 231.084 168.378C213.637 169.139 196.541 163.296 183.193 152.01Z" fill="black"/>
<path d="M374.825 223.68C375.807 223.921 376.83 223.943 377.821 223.744C378.813 223.546 379.749 223.132 380.563 222.532C381.378 221.932 382.052 221.16 382.536 220.271C383.021 219.382 383.306 218.397 383.369 217.386L407.052 210.798L397.425 202.387L376.412 209.932C374.709 209.937 373.068 210.568 371.799 211.705C370.529 212.841 369.72 214.405 369.525 216.1C369.329 217.794 369.76 219.502 370.737 220.899C371.714 222.296 373.168 223.286 374.825 223.68Z" fill="#FFB8B8"/>
<path d="M384.668 220.193L383.227 206.473L403.009 195.536L390.111 179.89L392.216 162.315L397.456 160.064L397.619 160.274C400.091 163.459 421.764 191.483 421.764 194.948C421.764 198.506 417.618 208.955 411.945 211.797C406.473 214.539 385.926 219.868 385.054 220.094L384.668 220.193Z" fill="#2F2E41"/>
<path d="M487.313 385H225.27C225.087 385 224.912 384.927 224.783 384.798C224.654 384.669 224.582 384.494 224.582 384.311C224.582 384.128 224.654 383.953 224.783 383.823C224.912 383.694 225.087 383.622 225.27 383.622H487.313C487.495 383.622 487.67 383.694 487.799 383.823C487.928 383.953 488 384.128 488 384.311C488 384.494 487.928 384.669 487.799 384.798C487.67 384.927 487.495 385 487.313 385Z" fill="#CCCCCC"/>
</g>
<defs>
<clipPath id="clip0_240_4729">
<rect width="488" height="385" fill="white"/>
</clipPath>
</defs>
</svg>
