<svg width="100" height="100" viewBox="0 0 100 100" fill="none" xmlns="http://www.w3.org/2000/svg">
<g clip-path="url(#clip0_225_597)">
<path d="M98.1988 79.3839C98.1988 76.7071 96.1041 74.6124 93.4262 74.6124H68.5241C68.4955 74.6124 68.4817 74.6124 68.4817 74.5976C68.4817 74.5976 68.468 74.5839 68.468 74.5563V68.7296C68.468 66.0517 66.3733 63.957 63.6954 63.957H36.2265C33.5487 63.957 31.454 66.0517 31.454 68.7296V82.7974C31.4402 82.8112 31.3989 82.8525 31.3153 82.8525H6.41318C3.7353 82.8525 1.64062 84.9472 1.64062 87.625V97.6136C1.64062 98.9176 2.69484 99.9729 3.99885 99.9729C5.30286 99.9729 6.35708 98.9176 6.35708 97.6136V87.625C6.35708 87.5975 6.35708 87.5837 6.37084 87.5837C6.37084 87.5837 6.38566 87.57 6.41318 87.57H31.3153C33.9932 87.57 36.1715 85.433 36.1715 82.7974V68.7296C36.1715 68.7021 36.1715 68.6883 36.1853 68.6883C36.1853 68.6883 36.199 68.6745 36.2265 68.6745H63.6954C63.724 68.6745 63.7378 68.6745 63.7378 68.6883C63.7378 68.6883 63.7515 68.7021 63.7515 68.7433V74.5701C63.7515 77.248 65.8462 79.3427 68.5241 79.3427H93.4262C93.4537 79.3427 93.4675 79.3427 93.4675 79.3564C93.4675 79.3564 93.4823 79.3702 93.4823 79.4125V97.6422C93.4823 98.9462 94.5365 100 95.8405 100C97.1446 100 98.1988 98.9462 98.1988 97.6422V79.3839Z" fill="white"/>
<path d="M50.0859 22.767C56.1899 22.767 61.1435 17.8008 61.1435 11.7105C61.1435 5.61908 56.1762 0.652832 50.0859 0.652832C43.9955 0.652832 39.0293 5.61908 39.0293 11.7105C39.0293 17.8008 43.9818 22.767 50.0859 22.767ZM50.0859 5.37034C53.5819 5.37034 56.426 8.2144 56.426 11.7105C56.426 15.2065 53.5819 18.0506 50.0859 18.0506C46.5898 18.0506 43.7457 15.2065 43.7457 11.7105C43.7457 8.2144 46.5898 5.37034 50.0859 5.37034Z" fill="white"/>
<path d="M11.6848 8.25615V8.29743C14.3754 21.7958 23.532 33.117 36.1572 38.5829C36.1572 38.5829 36.1847 38.6252 36.1847 38.6802V60.0588C36.1847 61.3628 37.2389 62.417 38.5429 62.417C39.847 62.417 40.9012 61.3628 40.9012 60.0588V38.6665C40.9012 36.738 39.7782 35.0042 38.0434 34.2411C26.8481 29.3987 18.7457 19.3826 16.3314 7.42315C16.1377 6.20275 16.9982 5.00988 18.2324 4.76009C19.4538 4.51029 20.6467 5.2872 20.9378 6.52135C22.8525 16.0252 28.8454 24.099 37.3776 28.7054C39.2087 29.6898 41.1235 30.1893 43.0519 30.1893H56.1206C58.0766 30.1893 60.0739 29.676 61.8775 28.7054C70.4097 24.099 76.3889 16.0252 78.3174 6.52135C78.6095 5.30096 79.8574 4.51029 81.1064 4.76009C82.3268 5.00988 83.1175 6.17523 82.9238 7.42315C80.5793 19.0354 72.769 28.9277 61.9887 33.8939C60.2825 34.6846 59.1721 36.3908 59.1721 38.2505V60.0588C59.1721 61.3628 60.2274 62.417 61.5314 62.417C62.8354 62.417 63.8897 61.3628 63.8897 60.0588V38.2505C63.8897 38.2367 63.9172 38.1944 63.9585 38.1806C69.9387 35.4202 75.2659 31.2436 79.3441 26.0699C83.4233 20.8951 86.2674 14.7487 87.5577 8.29743C87.5577 8.28367 87.5577 8.26991 87.5577 8.25615C87.5577 8.24239 87.5577 8.22863 87.5714 8.21487C88.1959 4.44044 85.7541 0.889336 82.022 0.139954C80.2184 -0.220978 78.3735 0.126194 76.8059 1.11161C75.2383 2.10973 74.1418 3.64977 73.7121 5.43961C73.7121 5.45337 73.7121 5.46713 73.6983 5.48089C73.6983 5.49571 73.6845 5.50947 73.6845 5.52323C72.0609 13.6669 66.9274 20.603 59.6167 24.5573C58.4926 25.1681 57.286 25.4867 56.1069 25.4867H43.0382C41.9004 25.4867 40.735 25.1818 39.6109 24.5573C32.3002 20.603 27.1667 13.6669 25.5441 5.52323C25.5441 5.50947 25.5293 5.49571 25.5293 5.48089C25.5293 5.46713 25.5293 5.45337 25.5155 5.43961C24.6423 1.72128 21.0214 -0.609429 17.303 0.139954C15.4994 0.500885 13.9319 1.52758 12.8639 3.04011C11.7949 4.56533 11.3651 6.39751 11.67 8.21487C11.6848 8.22863 11.6848 8.24239 11.6848 8.25615Z" fill="white"/>
<path d="M44.8008 80.2581L45.6888 83.7965L49.1436 81.9368V99.723H53.2641V77.4839H49.9893L44.8008 80.2581Z" fill="white"/>
</g>
<defs>
<clipPath id="clip0_225_597">
<rect width="100" height="100" fill="white"/>
</clipPath>
</defs>
</svg>
