<svg width="202" height="202" viewBox="0 0 202 202" fill="none" xmlns="http://www.w3.org/2000/svg">
<circle cx="101" cy="101" r="101" fill="#00549A"/>
<path d="M62.9961 48.9971C59.7068 48.9971 57 51.7038 57 54.9932V118.993C57 121.663 61.0039 121.663 61.0039 118.993V69.005H140.992V118.993C140.932 121.72 145.053 121.72 144.992 118.993V54.9932C144.992 51.7038 142.289 48.9971 139 48.9971H62.9961ZM62.9961 53.0011H139C140.143 53.0011 140.992 53.8506 140.992 54.9932V65.001H61.0039V54.9932C61.0039 53.8506 61.8535 53.0011 62.9961 53.0011ZM67 56.9972C65.8954 56.9972 65 57.8927 65 58.9972C65 60.1018 65.8954 60.997 67 60.997C68.1045 60.997 69 60.1018 69 58.9972C69 57.8927 68.1045 56.9972 67 56.9972ZM75 56.9972C73.8955 56.9972 73 57.8927 73 58.9972C73 60.1018 73.8955 60.997 75 60.997C76.1046 60.997 77 60.1018 77 58.9972C77 57.8927 76.1046 56.9972 75 56.9972ZM83 56.9972C81.8955 56.9972 81 57.8927 81 58.9972C81 60.1018 81.8955 60.997 83 60.997C84.1046 60.997 85 60.1018 85 58.9972C85 57.8927 84.1046 56.9972 83 56.9972ZM110.898 57.0011C108.198 57.1848 108.382 61.0673 110.992 61.0012H135C137.608 60.9407 137.608 57.0589 135 57.0011H110.898ZM47.0078 61.0012C43.7184 61.0012 41 63.704 41 66.9934V138.997C41 142.287 43.7184 144.993 47.0078 144.993H155.004C158.293 144.993 161 142.287 161 138.997V66.9932C161 63.7038 158.293 61.0009 155.004 61.0009H151.004C148.277 60.9405 148.277 65.0615 151.004 65.001H155.004C156.147 65.001 156.996 65.8506 156.996 66.9932V125.001H45V66.9932C45 65.8506 45.8653 65.001 47.0078 65.001H50.9922C53.7187 65.0615 53.7187 60.9405 50.9922 61.0009L47.0078 61.0012ZM107.023 76.9659C106.144 76.9599 105.364 77.5292 105.102 78.3685L93.0977 114.364C92.2513 116.896 96.0482 118.165 96.8945 115.634L108.898 79.6261C109.351 78.3311 108.395 76.975 107.023 76.9659ZM115.719 88.5285L125.875 97.001L115.719 105.462C113.549 107.161 116.228 110.367 118.285 108.532L130.273 98.5362C131.231 97.7367 131.231 96.2657 130.273 95.4661L118.285 85.4544C117.927 85.1475 117.472 84.9773 116.898 84.978C115.008 85.1436 114.322 87.3989 115.719 88.5289V88.5285ZM84.9492 84.9817C84.4988 84.9968 84.0666 85.1631 83.7227 85.4541L71.7227 95.4658C70.7654 96.2654 70.7654 97.7365 71.7227 98.536L83.7227 108.532C85.7865 110.454 88.5427 107.142 86.2773 105.462L76.1211 97.0008L86.2773 88.5282C87.7551 87.3183 86.8583 84.9233 84.9492 84.9815V84.9817ZM45 129.005H156.996V138.997C156.996 140.14 156.147 140.989 155.004 140.989H47.0078C45.8653 140.989 45 140.14 45 138.997V129.005ZM105.109 133.001L96.9023 133.005C94.353 133.31 94.5242 136.921 96.9961 136.989H105C107.747 137.232 107.975 133.056 105.109 133.001H105.109ZM89.7812 148.837C88.9785 148.822 88.2433 149.284 87.9141 150.017C86.951 152.082 85.2255 154.495 82.2461 156.993H79C75.7106 156.993 73.0078 159.716 73.0078 163.005V166.989C73.0038 168.094 73.8955 168.993 75 168.997H126.996C128.107 169.001 129.008 168.1 129.004 166.989V163.005C129.004 159.716 126.285 156.993 122.996 156.993H119.754C116.775 154.495 115.049 152.082 114.086 150.017C113.747 149.265 112.983 148.799 112.16 148.841C110.731 148.916 109.839 150.42 110.461 151.708C111.241 153.38 112.431 155.174 114.035 156.993H87.9648C89.5688 155.174 90.7593 153.38 91.5391 151.708C92.174 150.397 91.2382 148.868 89.7812 148.837ZM79 160.997H122.996C124.139 160.997 125.004 161.862 125.004 163.005V164.997H77.0078V163.005C77.0078 161.862 77.8574 160.997 79 160.997Z" fill="white"/>
</svg>
