<svg width="152" height="152" viewBox="0 0 152 152" fill="none" xmlns="http://www.w3.org/2000/svg">
<circle cx="76" cy="76" r="76" fill="#FFFDFD"/>
<path d="M39.0625 88.3219V82.0625C39.065 79.9913 39.8889 78.0056 41.3535 76.541C42.8181 75.0764 44.8038 74.2525 46.875 74.25H60.0281C58.5819 71.5821 57.4153 68.7718 56.5469 65.8641L50.6094 61.1125C49.6865 60.3757 49.0118 59.3735 48.6763 58.2412C48.3409 57.1089 48.3609 55.9009 48.7336 54.7803C49.1063 53.6597 49.8137 52.6804 50.7605 51.9745C51.7073 51.2686 52.8478 50.8701 54.0281 50.8328L50.5469 41.2609C49.6586 38.8181 49.3722 36.1972 49.712 33.6203C50.0518 31.0433 51.0078 28.5862 52.4989 26.4572C53.99 24.3281 55.9723 22.5899 58.2779 21.3897C60.5835 20.1895 63.1445 19.5627 65.7438 19.5625H79.0094C88.9355 19.56 98.6621 22.3496 107.078 27.6125C107.331 27.7691 107.534 27.9947 107.663 28.2627C107.792 28.5306 107.842 28.8299 107.807 29.1253C107.772 29.4206 107.653 29.6998 107.465 29.9301C107.276 30.1603 107.026 30.332 106.744 30.425L102.977 31.675C102.458 31.848 101.98 32.125 101.573 32.4892C101.165 32.8534 100.836 33.297 100.606 33.7929C100.376 34.2887 100.25 34.8263 100.235 35.3727C100.22 35.9191 100.317 36.4628 100.52 36.9703C100.895 37.906 101.067 38.9104 101.025 39.9173C100.983 40.9243 100.729 41.911 100.278 42.8125L96.25 50.8609C97.4024 50.9527 98.5005 51.3888 99.4018 52.1126C100.303 52.8365 100.966 53.8146 101.304 54.92C101.643 56.0253 101.641 57.2069 101.299 58.3112C100.957 59.4155 100.291 60.3915 99.3875 61.1125L93.45 65.8641C92.5826 68.7717 91.417 71.582 89.9719 74.25H103.125C105.196 74.2525 107.182 75.0764 108.647 76.541C110.111 78.0056 110.935 79.9913 110.938 82.0625V88.3219C114.636 89.8667 117.795 92.4696 120.019 95.8038C122.243 99.1379 123.432 103.055 123.438 107.062V114.875C123.438 115.289 123.273 115.687 122.98 115.98C122.687 116.273 122.289 116.438 121.875 116.438H28.125C27.7106 116.438 27.3132 116.273 27.0201 115.98C26.7271 115.687 26.5625 115.289 26.5625 114.875V107.062C26.568 103.055 27.7574 99.1379 29.9813 95.8038C32.2052 92.4696 35.3644 89.8667 39.0625 88.3219ZM62.5 50.8125H71.875C72.2894 50.8125 72.6868 50.9771 72.9799 51.2701C73.2729 51.5632 73.4375 51.9606 73.4375 52.375V53.9375H76.5625V52.375C76.5625 51.9606 76.7271 51.5632 77.0201 51.2701C77.3132 50.9771 77.7106 50.8125 78.125 50.8125H92.1875V48.5234L82.4344 42.0219C80.3356 40.6198 77.8678 39.8726 75.3438 39.875C71.7327 39.8708 68.2299 38.6419 65.4078 36.3891L62.8547 34.3469L60.175 38.3688C58.6322 40.6773 57.8099 43.3921 57.8125 46.1688V50.8125H62.5ZM64.0625 53.9375V58.625C64.0625 59.0394 64.2271 59.4368 64.5201 59.7299C64.8132 60.0229 65.2106 60.1875 65.625 60.1875H68.75C69.1644 60.1875 69.5618 60.0229 69.8549 59.7299C70.1479 59.4368 70.3125 59.0394 70.3125 58.625V53.9375H64.0625ZM79.6875 53.9375V58.625C79.6875 59.0394 79.8521 59.4368 80.1451 59.7299C80.4382 60.0229 80.8356 60.1875 81.25 60.1875H84.375C84.7894 60.1875 85.1868 60.0229 85.4799 59.7299C85.7729 59.4368 85.9375 59.0394 85.9375 58.625V53.9375H79.6875ZM51.5625 56.5938C51.5617 56.9924 51.6509 57.386 51.8235 57.7453C51.9962 58.1046 52.2477 58.4203 52.5594 58.6688L55.3922 60.9344C54.9792 58.624 54.752 56.2842 54.7125 53.9375H54.2188C53.8699 53.9375 53.5245 54.0062 53.2022 54.1397C52.88 54.2732 52.5872 54.4688 52.3405 54.7155C52.0938 54.9622 51.8982 55.255 51.7647 55.5773C51.6312 55.8995 51.5625 56.2449 51.5625 56.5938ZM97.6203 38.1313C97.2593 37.2285 97.0866 36.2615 97.1127 35.2895C97.1388 34.3176 97.3632 33.3613 97.7721 32.4792C98.181 31.5971 98.7659 30.8078 99.4908 30.1598C100.216 29.5119 101.065 29.0188 101.988 28.7109L102.466 28.5547C95.2478 24.7012 87.1915 22.6861 79.0094 22.6875H65.7438C63.6474 22.6879 61.5819 23.1935 59.7224 24.1614C57.8628 25.1293 56.2638 26.5311 55.0609 28.248C53.858 29.9649 53.0865 31.9465 52.8118 34.0248C52.5371 36.1031 52.7673 38.217 53.4828 40.1875L54.8406 43.9219C55.18 41.3129 56.1157 38.8172 57.575 36.6281L61.2 31.1891C61.3203 31.0089 61.4767 30.8557 61.6594 30.7393C61.842 30.6228 62.0469 30.5456 62.2609 30.5125C62.4749 30.4802 62.6932 30.4922 62.9024 30.5479C63.1115 30.6035 63.3069 30.7016 63.4766 30.8359L67.3594 33.95C69.6279 35.7589 72.4423 36.7459 75.3438 36.75C78.4851 36.7471 81.5565 37.6771 84.1688 39.4219L94.6172 46.3875C94.7141 46.4533 94.8032 46.5298 94.8828 46.6156L97.4828 41.4141C97.7362 40.9076 97.8794 40.3532 97.9031 39.7874C97.9268 39.2216 97.8304 38.6571 97.6203 38.1313ZM97.4391 58.6719C97.8703 58.3285 98.1841 57.8595 98.3369 57.3299C98.4896 56.8002 98.4738 56.2362 98.2917 55.7159C98.1095 55.1956 97.7699 54.7449 97.3201 54.4263C96.8703 54.1076 96.3325 53.9368 95.7812 53.9375H95.2906C95.2513 56.2852 95.024 58.6261 94.6109 60.9375L97.4391 58.6719ZM92.1625 53.9375H89.0625V58.625C89.0625 59.8682 88.5686 61.0605 87.6896 61.9396C86.8105 62.8186 85.6182 63.3125 84.375 63.3125H81.25C80.0068 63.3125 78.8145 62.8186 77.9354 61.9396C77.0564 61.0605 76.5625 59.8682 76.5625 58.625V57.0625H73.4375V58.625C73.4375 59.8682 72.9436 61.0605 72.0646 61.9396C71.1855 62.8186 69.9932 63.3125 68.75 63.3125H65.625C64.3818 63.3125 63.1895 62.8186 62.3104 61.9396C61.4314 61.0605 60.9375 59.8682 60.9375 58.625V53.9375H57.8375C57.9588 61.0992 59.9583 68.1035 63.6359 74.25H86.3641C90.0417 68.1035 92.0412 61.0992 92.1625 53.9375ZM103.125 77.375H46.875C45.6318 77.375 44.4395 77.8689 43.5604 78.7479C42.6814 79.627 42.1875 80.8193 42.1875 82.0625V113.312H107.812V82.0625C107.812 80.8193 107.319 79.627 106.44 78.7479C105.56 77.8689 104.368 77.375 103.125 77.375ZM120.312 107.062C120.308 103.896 119.431 100.793 117.777 98.0933C116.123 95.3937 113.756 93.2026 110.938 91.7609V113.312H120.312V107.062ZM29.6875 113.312H39.0625V91.7609C36.2438 93.2027 33.8774 95.3939 32.2234 98.0935C30.5694 100.793 29.6919 103.897 29.6875 107.062V113.312Z" fill="#003B7D"/>
<path d="M75 108.625C73.7639 108.625 72.5555 108.258 71.5277 107.572C70.4999 106.885 69.6988 105.909 69.2258 104.767C68.7527 103.625 68.6289 102.368 68.8701 101.156C69.1112 99.9433 69.7065 98.8297 70.5806 97.9556C71.4547 97.0815 72.5683 96.4863 73.7807 96.2451C74.9931 96.0039 76.2497 96.1277 77.3918 96.6008C78.5338 97.0738 79.5099 97.8749 80.1967 98.9027C80.8834 99.9305 81.25 101.139 81.25 102.375C81.25 104.033 80.5915 105.622 79.4194 106.794C78.2473 107.967 76.6576 108.625 75 108.625ZM75 99.25C74.3819 99.25 73.7777 99.4333 73.2638 99.7767C72.7499 100.12 72.3494 100.608 72.1129 101.179C71.8764 101.75 71.8145 102.378 71.935 102.985C72.0556 103.591 72.3532 104.148 72.7903 104.585C73.2273 105.022 73.7841 105.319 74.3903 105.44C74.9965 105.561 75.6249 105.499 76.1959 105.262C76.7669 105.026 77.255 104.625 77.5983 104.111C77.9417 103.597 78.125 102.993 78.125 102.375C78.125 101.546 77.7958 100.751 77.2097 100.165C76.6237 99.5792 75.8288 99.25 75 99.25Z" fill="#003B7D"/>
<path d="M85.4798 94.1049L83.2704 91.8955L88.4157 86.7502L83.2704 81.6049L85.4798 79.3955L91.7298 85.6455C92.0227 85.9385 92.1873 86.3359 92.1873 86.7502C92.1873 87.1645 92.0227 87.5619 91.7298 87.8549L85.4798 94.1049Z" fill="#003B7D"/>
<path d="M64.5204 94.1049L58.2704 87.8549C57.9774 87.5619 57.8129 87.1645 57.8129 86.7502C57.8129 86.3359 57.9774 85.9385 58.2704 85.6455L64.5204 79.3955L66.7297 81.6049L61.5844 86.7502L66.7297 91.8955L64.5204 94.1049Z" fill="#003B7D"/>
<path d="M71.5613 79.5624L80.9387 92.0605L78.4391 93.936L69.0617 81.4378L71.5613 79.5624Z" fill="#003B7D"/>
</svg>
