<svg width="30" height="30" viewBox="0 0 30 30" fill="none" xmlns="http://www.w3.org/2000/svg">
<path d="M14.9999 3.22498C9.52011 3.22498 4.63131 7.16368 3.48501 12.5271C2.91231 15.207 3.29811 18.0567 4.57581 20.4816C5.80551 22.8153 7.82151 24.7014 10.2335 25.7703C12.7424 26.8824 15.6227 27.0762 18.2597 26.3178C20.8037 25.5864 23.0594 23.9811 24.5951 21.8262C27.806 17.3211 27.3767 10.9929 23.5991 6.95608C21.3851 4.59028 18.2405 3.22498 14.9999 3.22498ZM20.6486 15.6291L17.4386 18.9165C16.6259 19.749 15.3413 18.4878 16.1507 17.6592L17.7704 16.0005H10.0946C9.54951 16.0005 9.09471 15.5454 9.09471 15.0006C9.09471 14.4558 9.54981 14.0007 10.0946 14.0007H17.732L16.0802 12.3492C15.2594 11.5284 16.532 10.2555 17.3528 11.0763L20.6411 14.3643C20.9897 14.7126 20.993 15.2766 20.6486 15.6291Z" fill="#FFFDFD"/>
</svg>
