<svg width="655" height="516" viewBox="0 0 655 516" fill="none" xmlns="http://www.w3.org/2000/svg">
<g clip-path="url(#clip0_254_3514)">
<path d="M171.799 232.877C170.357 232.877 169.185 234.05 169.185 235.493V256.421C169.185 257.864 170.357 259.037 171.799 259.037C173.241 259.037 174.413 257.864 174.413 256.421V235.493C174.413 234.05 173.241 232.877 171.799 232.877Z" fill="#3F3D56"/>
<path d="M469.168 0H234.002C207.334 0 185.716 21.6325 185.716 48.3177V464.142C185.716 490.827 207.334 512.459 234.002 512.459H469.168C495.836 512.459 517.455 490.827 517.455 464.142V48.3177C517.455 21.6325 495.836 0 469.168 0Z" fill="white"/>
<path d="M469.168 516H234.002C206.747 516 184.572 493.812 184.572 466.539V50.715C184.572 23.4419 206.747 1.25317 234.002 1.25317H469.168C496.424 1.25317 518.598 23.4419 518.598 50.715V466.539C518.598 493.812 496.424 516 469.168 516ZM234.002 3.54149C208.007 3.54149 186.859 24.7034 186.859 50.715V466.539C186.859 492.55 208.007 513.712 234.002 513.712H469.168C495.163 513.712 516.312 492.55 516.312 466.539V50.715C516.312 24.7033 495.163 3.54149 469.168 3.54149H234.002Z" fill="#3F3D56"/>
<path d="M486.202 101.323H391.678C387.669 101.323 384.407 98.0586 384.407 94.0468C384.407 90.035 387.669 86.771 391.678 86.771H486.202C490.212 86.771 493.474 90.035 493.474 94.0468C493.474 98.0586 490.212 101.323 486.202 101.323Z" fill="#E6E6E6"/>
<path d="M397.527 158.539H305.645C303.328 158.539 301.443 156.653 301.443 154.335C301.443 152.017 303.328 150.132 305.645 150.132H397.527C399.843 150.132 401.727 152.017 401.727 154.335C401.727 156.653 399.843 158.539 397.527 158.539V158.539Z" fill="#6C63FF"/>
<path d="M267.768 18.0239H215.096C214.96 18.0239 214.849 18.1349 214.849 18.2718V24.5967C214.849 24.7336 214.96 24.8446 215.096 24.8446H267.768C267.905 24.8446 268.015 24.7336 268.015 24.5967V18.2718C268.015 18.1349 267.905 18.0239 267.768 18.0239Z" fill="#E6E6E6"/>
<path d="M444.354 24.8447C447.366 24.8447 449.807 22.4017 449.807 19.3882C449.807 16.3746 447.366 13.9316 444.354 13.9316C441.343 13.9316 438.901 16.3746 438.901 19.3882C438.901 22.4017 441.343 24.8447 444.354 24.8447Z" fill="#E6E6E6"/>
<path d="M459.349 24.8447C462.361 24.8447 464.802 22.4017 464.802 19.3882C464.802 16.3746 462.361 13.9316 459.349 13.9316C456.338 13.9316 453.896 16.3746 453.896 19.3882C453.896 22.4017 456.338 24.8447 459.349 24.8447Z" fill="#E6E6E6"/>
<path d="M474.346 24.8447C477.357 24.8447 479.799 22.4017 479.799 19.3882C479.799 16.3746 477.357 13.9316 474.346 13.9316C471.334 13.9316 468.893 16.3746 468.893 19.3882C468.893 22.4017 471.334 24.8447 474.346 24.8447Z" fill="#E6E6E6"/>
<path d="M233.43 181.041C233.43 181.796 234.036 182.403 234.79 182.403H468.38C469.134 182.403 469.74 181.796 469.74 181.041C469.74 180.286 469.134 179.679 468.38 179.679H234.79C234.036 179.679 233.43 180.286 233.43 181.041Z" fill="#3F3D56"/>
<path d="M418.689 373.611C418.689 374.366 419.295 374.973 420.05 374.973H653.639C654.394 374.973 655 374.367 655 373.611C655 372.856 654.394 372.25 653.639 372.25H420.05C419.295 372.25 418.689 372.856 418.689 373.611Z" fill="#3F3D56"/>
<path d="M445.98 288.055H305.799C303.482 288.055 301.598 286.169 301.598 283.851C301.598 281.533 303.482 279.648 305.799 279.648H445.98C448.296 279.648 450.18 281.533 450.18 283.851C450.18 286.169 448.296 288.055 445.98 288.055Z" fill="#6C63FF"/>
<path d="M263.281 293.629C268.964 293.629 273.572 289.019 273.572 283.332C273.572 277.644 268.964 273.034 263.281 273.034C257.598 273.034 252.99 277.644 252.99 283.332C252.99 289.019 257.598 293.629 263.281 293.629Z" fill="#6C63FF"/>
<path d="M262.138 300.494V298.206C270.649 298.206 277.574 291.277 277.574 282.76C277.574 274.243 270.649 267.313 262.138 267.313V265.025C271.91 265.025 279.861 272.981 279.861 282.76C279.861 292.539 271.91 300.494 262.138 300.494Z" fill="#3F3D56"/>
<path d="M139.568 241.803C143.766 237.529 149.373 236.231 152.091 238.905C154.809 241.578 153.609 247.21 149.41 251.486C147.755 253.216 145.711 254.526 143.447 255.304L125.433 273.191L117.225 264.553L135.855 247.837C136.594 245.558 137.867 243.489 139.568 241.803H139.568Z" fill="#FFB6B6"/>
<path d="M81.9556 227.039L100.843 268.967L131.004 252.63L141.798 258.363C141.798 258.363 117.142 299.61 100.261 294.914C83.3787 290.219 53.4008 247.644 58.8021 234.504C64.2033 221.365 81.9556 227.039 81.9556 227.039Z" fill="#E6E6E6"/>
<path d="M0 514.597C0 515.124 0.423246 515.547 0.950302 515.547H583.312C583.839 515.547 584.263 515.124 584.263 514.597C584.263 514.069 583.839 513.646 583.312 513.646H0.950302C0.423246 513.646 0 514.069 0 514.597Z" fill="#3F3D56"/>
<path d="M174.338 309.614C202.959 309.614 226.162 286.886 226.162 258.849C226.162 230.813 202.959 208.084 174.338 208.084C145.716 208.084 122.514 230.813 122.514 258.849C122.514 286.886 145.716 309.614 174.338 309.614Z" fill="#6C63FF"/>
<path d="M73.6737 506.475L87.4459 506.473L93.9974 453.317L73.6709 453.318L73.6737 506.475Z" fill="#FFB6B6"/>
<path d="M120.859 506.162C121.288 506.884 121.514 509.217 121.514 510.057C121.514 512.641 119.421 514.735 116.839 514.735H74.1885C72.4273 514.735 70.9996 513.306 70.9996 511.544V509.767C70.9996 509.767 68.8897 504.427 73.2336 497.844C73.2336 497.844 78.6325 502.998 86.6999 494.926L89.0789 490.613L106.3 503.216L115.845 504.391C117.933 504.649 119.784 504.351 120.859 506.162H120.859Z" fill="#2F2E41"/>
<path d="M84.0953 229.729L84.3738 211.142L72.9188 203.997L60.4629 219.243L84.0953 229.729Z" fill="#FFB6B6"/>
<path opacity="0.1" d="M84.0954 229.729L84.8368 211.605L72.9189 203.997L76.968 226.426L84.0954 229.729Z" fill="black"/>
<path d="M111.915 352.639L92.9369 481.863H69.1269L72.293 408.099L73.9593 369.313L69.1269 350.851C69.1269 350.851 66.9237 346.748 65.0676 341.773C62.9754 336.16 61.323 329.43 63.7762 326.239C64.6788 325.062 67.0255 324.191 70.2147 323.543C72.1634 323.145 74.4314 322.834 76.88 322.593C90.9604 321.199 110.989 322.07 110.989 322.07L111.498 338.883L111.78 348.271L111.915 352.639L111.915 352.639Z" fill="#2F2E41"/>
<path d="M49.4141 500.155L63.04 502.158L77.2489 450.521L57.1383 447.563L49.4141 500.155Z" fill="#FFB6B6"/>
<path d="M96.1426 506.713C96.4618 507.491 96.3466 509.831 96.2245 510.663C95.849 513.218 93.4741 514.986 90.9199 514.61L48.7225 508.402C46.9801 508.146 45.7752 506.525 46.0314 504.781L46.2897 503.023C46.2897 503.023 44.9785 497.432 50.2331 491.552C50.2331 491.552 54.8253 497.437 63.9804 490.625L66.9609 486.705L82.1665 501.679L91.4392 504.232C93.4679 504.79 95.3429 504.766 96.1425 506.713H96.1426L96.1426 506.713Z" fill="#2F2E41"/>
<path d="M112.213 331.088L109.61 353.519L95.415 400.788L72.0473 478.608L48.4932 475.144L69.6327 364.495L67.5396 345.522C67.5396 345.522 66.8579 343.636 66.0765 340.875C64.5255 335.413 62.5802 326.518 64.7204 321.98C65.0093 321.363 65.3721 320.828 65.8209 320.395C66.6627 319.578 68.3735 319.082 70.6656 318.819C80.2462 317.735 99.9769 320.834 108.757 322.356L112.213 331.088V331.088Z" fill="#2F2E41"/>
<path d="M63.0813 215.31L86.2248 226.426C86.2248 226.426 110.757 299.143 110.757 302.849C110.757 306.554 117.7 308.87 113.534 313.038C109.368 317.207 121.288 320.737 114.865 324.067C108.442 327.397 68.377 345.61 63.9219 343.967C51.6345 339.437 64.4426 322.792 64.4426 322.792C64.4426 322.792 55.2126 315.354 56.6012 311.649C57.9898 307.944 48.2695 237.079 48.2695 237.079L63.0813 215.31H63.0813Z" fill="#E6E6E6"/>
<path d="M133.602 279.385C139.346 277.687 144.877 279.276 145.957 282.934C147.036 286.592 143.255 290.933 137.509 292.631C135.223 293.34 132.8 293.492 130.444 293.073L106.017 299.96L103.031 288.42L127.429 282.856C129.18 281.223 131.297 280.032 133.602 279.385H133.602Z" fill="#FFB6B6"/>
<path d="M90.3971 238.491L86.5685 284.322L120.863 284.691L127.518 294.946C127.518 294.946 85.9519 319.029 73.4707 306.724C60.9895 294.418 55.436 242.634 66.5329 233.77C77.6298 224.907 90.3971 238.491 90.3971 238.491Z" fill="#E6E6E6"/>
<path d="M83.6128 216.534C94.5622 216.534 103.438 207.652 103.438 196.696C103.438 185.739 94.5622 176.857 83.6128 176.857C72.6634 176.857 63.7871 185.739 63.7871 196.696C63.7871 207.652 72.6634 216.534 83.6128 216.534Z" fill="#FFB6B6"/>
<path d="M72.919 196.774C72.919 196.774 76.0412 191.619 77.7583 188.963C79.4755 186.308 79.4755 182.418 79.4755 182.418C79.4755 182.418 95.3985 182.09 100.706 186.62C106.014 191.15 109.76 174.436 104.609 168.656C104.609 168.656 102.423 171.156 102.892 172.093L103.36 173.03C103.36 173.03 100.706 162.408 93.0569 160.377C93.0569 160.377 88.8016 162.577 89.9926 163.82C91.1836 165.064 80.8805 156.316 77.7583 161.471C77.7583 161.471 70.1091 161.315 71.0457 164.126L70.5774 165.845C70.5774 165.845 64.0209 163.814 63.5525 168.656C63.5525 168.656 65.8942 168.656 67.143 169.906C68.3919 171.156 62.6159 174.749 62.6159 174.749C62.6159 174.749 55.9033 193.181 64.9575 200.679C64.9575 200.679 65.0356 191.697 68.626 193.884C72.2165 196.071 72.919 196.774 72.919 196.774Z" fill="#2F2E41"/>
<path d="M91.7861 208.49L91.0742 210.364L96.4131 210.52L96.769 208.802L91.7861 208.49Z" fill="#2F2E41"/>
<path d="M97.125 201.772C97.125 201.772 89.1167 199.586 84.3117 206.146L83.2439 207.396C83.2439 207.396 73.1 195.993 73.9898 191.775L71.8543 191.931L69.7188 202.866C69.7188 202.866 76.4813 214.582 85.9134 215.05C85.9134 215.05 94.9894 217.237 96.947 213.488C98.9046 209.739 102.275 204.211 102.275 204.211L97.125 201.772H97.125ZM95.6684 212.238H90.3624C89.1167 212.238 85.9133 207.708 85.9133 207.708C87.693 204.897 93.0318 204.74 93.0318 204.74H98.8296L99.2605 206.459L95.6683 212.238H95.6684Z" fill="#2F2E41"/>
<path d="M483.592 507.984L474.887 506.101L478 471.607L490.848 474.386L483.592 507.984Z" fill="#A0616A"/>
<path d="M453.809 501.338C453.44 501.737 452.978 503.18 452.864 503.711C452.511 505.344 453.548 506.954 455.18 507.306L482.138 513.135C483.251 513.375 484.349 512.667 484.589 511.554L484.832 510.43C484.832 510.43 486.894 507.343 485.047 502.589C485.047 502.589 480.931 505.109 476.934 498.904L476.018 495.854L463.414 501.466L457.22 500.905C455.865 500.782 454.736 500.341 453.809 501.338L453.809 501.338Z" fill="#2F2E41"/>
<path d="M468.02 505.345L460.758 500.187L477.184 469.702L487.903 477.315L468.02 505.345Z" fill="#A0616A"/>
<path d="M443.254 487.51C442.757 487.73 441.766 488.875 441.451 489.319C440.485 490.681 440.806 492.569 442.167 493.536L464.659 509.508C465.588 510.168 466.875 509.949 467.534 509.02L468.199 508.083C468.199 508.083 471.309 506.057 471.48 500.959C471.48 500.959 466.705 501.655 465.47 494.377L465.828 491.212L452.033 491.408L446.56 488.454C445.363 487.807 444.498 486.957 443.254 487.51L443.254 487.51V487.51Z" fill="#2F2E41"/>
<path d="M572.641 334.807C572.641 334.807 586.184 353.231 559.099 373.945L503.8 356.263L523.549 315.045L541.042 305.446L572.641 334.807Z" fill="#2F2E41"/>
<path d="M503.799 356.263L482.357 398.046L468.814 485.001L485.743 486.13L502.671 403.693L532.578 359.086L511.699 349.488" fill="#2F2E41"/>
<path d="M559.099 360.82V373.945L520.729 416.115C520.729 416.115 520.729 447.734 506.057 462.415L489.129 488.388L474.458 480.483L495.9 404.822L534.271 355.134L559.099 360.82Z" fill="#2F2E41"/>
<path d="M531.832 230.704L537.651 258.279L559.835 252.855C559.835 252.855 548.869 230.032 551.051 220.991L531.832 230.704Z" fill="#A0616A"/>
<path opacity="0.1" d="M531.832 230.704L537.651 258.279L559.835 252.855C559.835 252.855 548.869 230.032 551.051 220.991L531.832 230.704Z" fill="black"/>
<path d="M552.892 234.866L535.964 242.771C535.964 242.771 527.255 248.097 527.095 251.645C526.935 255.193 528.064 272.132 528.064 272.132C528.064 272.132 521.293 278.908 525.807 292.459L523.55 315.045L574.335 342.147L569.82 294.718L572.077 250.676L552.892 234.866Z" fill="#E6E6E6"/>
<path d="M568.087 363.38C566.105 367.93 562.152 370.595 559.258 369.333C556.364 368.07 555.626 363.358 557.609 358.806C558.376 356.977 559.57 355.358 561.091 354.086L569.732 334.911L578.638 339.161L569.174 357.612C569.277 359.594 568.905 361.572 568.087 363.38V363.38Z" fill="#A0616A"/>
<path d="M559.099 253.499C559.099 253.499 571.513 245.594 576.027 254.628C580.541 263.663 590.698 309.963 590.698 309.963L576.027 354.005L562.484 348.358L574.334 300.96L559.099 253.499Z" fill="#E6E6E6"/>
<path d="M495.474 356.27C491.956 359.77 487.3 360.791 485.075 358.55C482.849 356.309 483.897 351.657 487.417 348.156C488.804 346.739 490.51 345.674 492.392 345.051L507.485 330.411L514.2 337.645L498.608 351.309C497.974 353.19 496.9 354.891 495.474 356.27Z" fill="#A0616A"/>
<path d="M527.572 250.805C527.572 250.805 549.215 249.919 550.086 259.982C550.957 270.045 536.161 314.946 536.161 314.946L506.307 350.482L495.796 340.24L524.263 300.544L527.572 250.805Z" fill="#E6E6E6"/>
<path d="M590.064 370.06L451.671 347.724C449.384 347.355 447.824 345.193 448.193 342.905C448.562 340.616 450.722 339.056 453.009 339.425L591.402 361.761C593.688 362.13 595.248 364.291 594.88 366.579C594.511 368.868 592.351 370.429 590.064 370.06V370.06Z" fill="#6C63FF"/>
<path d="M410.448 346.584C416.131 346.584 420.739 341.974 420.739 336.287C420.739 330.6 416.131 325.99 410.448 325.99C404.765 325.99 400.157 330.6 400.157 336.287C400.157 341.974 404.765 346.584 410.448 346.584Z" fill="#6C63FF"/>
<path d="M406.588 353.048L406.952 350.789C415.355 352.145 423.294 346.408 424.649 337.999C426.005 329.591 420.271 321.647 411.868 320.291L412.232 318.032C421.88 319.589 428.463 328.71 426.907 338.364C425.351 348.018 416.236 354.605 406.588 353.048Z" fill="#3F3D56"/>
<path d="M534.052 236.565C543.465 236.565 551.096 228.929 551.096 219.51C551.096 210.09 543.465 202.455 534.052 202.455C524.639 202.455 517.008 210.09 517.008 219.51C517.008 228.929 524.639 236.565 534.052 236.565Z" fill="#A0616A"/>
<path d="M544.124 219.51C544.124 219.51 533.484 209.845 526.666 213.256C519.848 216.667 516.439 218.941 516.439 218.941C516.439 218.941 510.758 210.414 519.28 203.023C519.28 203.023 501.935 195.44 514.584 183.598C527.234 171.756 538.597 176.304 538.597 176.304C538.597 176.304 553.936 183.126 543.142 196.77C543.142 196.77 558.868 206.749 550.721 223.078C550.721 223.078 549.959 212.688 547.687 215.53C545.414 218.373 544.124 219.51 544.124 219.51V219.51Z" fill="#2F2E41"/>
<path d="M192.143 277.962C185.627 261.932 179.111 245.902 172.596 229.872C171.696 227.658 168.877 227.58 167.999 229.872C161.561 246.678 157.354 264.215 155.331 282.095C154.987 285.141 159.757 285.116 160.099 282.095C160.89 275.098 162.065 268.154 163.574 261.283C168.943 261.565 174.356 260.962 179.537 259.527C182.206 266.095 184.876 272.662 187.546 279.23C188.686 282.037 193.3 280.809 192.143 277.962H192.143ZM164.655 256.567C166.26 249.99 168.185 243.491 170.419 237.096L177.726 255.072C173.446 256.196 169.069 256.696 164.655 256.567Z" fill="white"/>
<path d="M201.332 281.971C203.978 281.971 206.123 279.825 206.123 277.177C206.123 274.529 203.978 272.383 201.332 272.383C198.686 272.383 196.541 274.529 196.541 277.177C196.541 279.825 198.686 281.971 201.332 281.971Z" fill="white"/>
<path d="M151.025 239.622C153.671 239.622 155.816 237.476 155.816 234.828C155.816 232.18 153.671 230.033 151.025 230.033C148.378 230.033 146.233 232.18 146.233 234.828C146.233 237.476 148.378 239.622 151.025 239.622Z" fill="white"/>
</g>
<defs>
<clipPath id="clip0_254_3514">
<rect width="655" height="516" fill="white"/>
</clipPath>
</defs>
</svg>
