<svg width="102" height="102" viewBox="0 0 102 102" fill="none" xmlns="http://www.w3.org/2000/svg">
<circle cx="51" cy="51" r="51" fill="#00549A"/>
<path d="M26.25 26.1875H28.3125V28.25H26.25V26.1875Z" fill="white"/>
<path d="M30.375 26.1875H32.4375V28.25H30.375V26.1875Z" fill="white"/>
<path d="M34.5 26.1875H36.5625V28.25H34.5V26.1875Z" fill="white"/>
<path d="M27.2812 48.875H43.7812C44.0548 48.875 44.3171 48.7664 44.5105 48.573C44.7039 48.3796 44.8125 48.1173 44.8125 47.8438V37.5312C44.8125 37.2577 44.7039 36.9954 44.5105 36.802C44.3171 36.6086 44.0548 36.5 43.7812 36.5H27.2812C27.0077 36.5 26.7454 36.6086 26.552 36.802C26.3586 36.9954 26.25 37.2577 26.25 37.5312V47.8438C26.25 48.1173 26.3586 48.3796 26.552 48.573C26.7454 48.7664 27.0077 48.875 27.2812 48.875ZM28.3125 38.5625H42.75V46.8125H28.3125V38.5625Z" fill="white"/>
<path d="M53.0625 37.5312H69.5625V39.5938H53.0625V37.5312Z" fill="white"/>
<path d="M48.9375 41.6562H67.5V43.7188H48.9375V41.6562Z" fill="white"/>
<path d="M48.9375 45.7812H63.375V47.8438H48.9375V45.7812Z" fill="white"/>
<path d="M30.375 53H57.1875V55.0625H30.375V53Z" fill="white"/>
<path d="M26.25 57.125H53.0625V59.1875H26.25V57.125Z" fill="white"/>
<path d="M26.25 61.25H48.9375V63.3125H26.25V61.25Z" fill="white"/>
<path d="M26.25 65.375H48.9375V67.4375H26.25V65.375Z" fill="white"/>
<path d="M26.25 69.5H48.9375V71.5625H26.25V69.5Z" fill="white"/>
<path d="M26.25 53H28.3125V55.0625H26.25V53Z" fill="white"/>
<path d="M76.7812 28.25H75.75V27.2188C75.75 25.8512 75.2068 24.5397 74.2398 23.5727C73.2728 22.6057 71.9613 22.0625 70.5938 22.0625H25.2188C23.8512 22.0625 22.5397 22.6057 21.5727 23.5727C20.6057 24.5397 20.0625 25.8512 20.0625 27.2188V72.5938C20.0625 73.9613 20.6057 75.2728 21.5727 76.2398C22.5397 77.2068 23.8512 77.75 25.2188 77.75H26.25V78.7812C26.25 80.1488 26.7932 81.4603 27.7602 82.4273C28.7272 83.3943 30.0387 83.9375 31.4062 83.9375H76.7812C78.1488 83.9375 79.4603 83.3943 80.4273 82.4273C81.3943 81.4603 81.9375 80.1488 81.9375 78.7812V33.4062C81.9375 32.0387 81.3943 30.7272 80.4273 29.7602C79.4603 28.7932 78.1488 28.25 76.7812 28.25ZM74.9353 44.2756L79.3181 48.6584L76.3997 51.5769L72.0169 47.1941L74.9353 44.2756ZM56.2903 65.0141L57.105 62.9L60.6938 66.4888L58.5797 67.3034L56.2903 65.0141ZM56.4759 68.1078L54.8569 68.7369L55.4859 67.1178L56.4759 68.1078ZM59.6213 62.5081L58.1672 61.0541L70.5628 48.6584L72.0169 50.1125L59.6213 62.5081ZM73.4813 51.5769L74.9353 53.0309L62.5397 65.4266L61.0856 63.9725L73.4813 51.5769ZM22.125 27.2188C22.1274 26.399 22.4542 25.6135 23.0338 25.0338C23.6135 24.4542 24.399 24.1274 25.2188 24.125H70.5938C71.4135 24.1274 72.199 24.4542 72.7787 25.0338C73.3583 25.6135 73.6851 26.399 73.6875 27.2188V30.3125H22.125V27.2188ZM25.2188 75.6875C24.399 75.6851 23.6135 75.3583 23.0338 74.7787C22.4542 74.199 22.1274 73.4135 22.125 72.5938V32.375H73.6875V42.6153L55.9809 60.3219C55.8776 60.4244 55.7968 60.5473 55.7437 60.6828L52.1034 70.16C52.0286 70.3459 52.0102 70.5497 52.0505 70.7459C52.0909 70.9422 52.1882 71.1222 52.3303 71.2634C52.5254 71.4558 52.7885 71.5633 53.0625 71.5625C53.1898 71.5635 53.3161 71.539 53.4338 71.4903L62.9109 67.85C63.0464 67.7969 63.1694 67.7161 63.2719 67.6128L73.6875 57.1972V72.5938C73.6851 73.4135 73.3583 74.199 72.7787 74.7787C72.199 75.3583 71.4135 75.6851 70.5938 75.6875H25.2188ZM79.875 78.7812C79.8726 79.601 79.5458 80.3865 78.9662 80.9662C78.3865 81.5458 77.601 81.8726 76.7812 81.875H31.4062C30.5865 81.8726 29.801 81.5458 29.2213 80.9662C28.6417 80.3865 28.3149 79.601 28.3125 78.7812V77.75H70.5938C71.9613 77.75 73.2728 77.2068 74.2398 76.2398C75.2068 75.2728 75.75 73.9613 75.75 72.5938V55.1347L79.875 51.0097V78.7812ZM79.875 46.2969L75.75 42.1719V38.5625H79.875V46.2969ZM79.875 36.5H75.75V30.3125H76.7812C77.601 30.3149 78.3865 30.6417 78.9662 31.2213C79.5458 31.801 79.8726 32.5865 79.875 33.4062V36.5Z" fill="white"/>
<path d="M48.9375 37.5312H51V39.5938H48.9375V37.5312Z" fill="white"/>
</svg>
