<svg width="152" height="152" viewBox="0 0 152 152" fill="none" xmlns="http://www.w3.org/2000/svg">
<circle cx="76" cy="76" r="76" fill="#FFFDFD"/>
<path d="M72.9375 20.9092C72.0652 21.7352 65.1609 34.5358 64.7479 36.0716C64.335 37.655 65.2525 39.2372 66.8359 39.6734C67.8219 39.9483 83.352 39.1688 84.2696 38.8022C84.9575 38.5273 85.5317 37.9079 85.7381 37.2188C85.9899 36.3929 85.2788 35.154 83.7882 33.7319L82.366 32.4246L84.5677 31.0256C86.4945 29.7867 86.7926 29.4886 87.1371 28.571C87.6185 27.309 87.5048 26.7127 86.426 24.946C85.3704 23.2258 84.4993 22.6063 83.1223 22.6063C82.228 22.6063 81.7454 22.7896 80.2084 23.7988C79.176 24.4414 78.2353 25.0145 78.0752 25.0377C77.9151 25.0841 77.5242 24.3266 77.1576 23.271C76.0579 20.2202 74.543 19.3722 72.9375 20.9092ZM74.9559 22.285C75.116 22.5831 75.5986 23.8452 76.0115 25.1061C76.4013 26.3682 76.8143 27.4922 76.9059 27.5839C77.0207 27.6755 78.3049 26.9876 79.7966 26.0469C82.366 24.395 83.3068 24.0505 83.9483 24.4867C84.4761 24.8312 85.6453 26.9412 85.6453 27.5375C85.6453 28.2718 85.3472 28.5235 82.0435 30.6115C80.8743 31.369 79.9103 32.08 79.9103 32.1937C79.9103 32.3318 80.8511 33.3178 81.9751 34.3954C84.0167 36.3222 84.4297 37.01 83.6501 37.2397C83.1455 37.3998 71.1256 38.0656 68.8775 38.0656C67.9832 38.0656 67.0656 37.9508 66.8127 37.836C65.9184 37.3546 66.2617 36.3906 69.7267 29.8296C74.2913 21.2294 74.2913 21.2294 74.9559 22.285Z" fill="#003B7D"/>
<path d="M50.0903 36.0716C48.943 36.4845 47.1763 37.7466 46.6949 38.4797C46.4653 38.8242 46.3052 39.5121 46.3052 40.1316C46.3052 41.0259 46.5117 41.5085 47.6125 43.2508C48.3236 44.3748 48.8746 45.3388 48.8282 45.4072C48.7818 45.4989 47.957 45.797 46.9699 46.0951C44.8819 46.7598 43.8959 47.5857 43.8959 48.7098C43.8959 49.1227 44.0339 49.6505 44.2172 49.8802C44.5153 50.2932 44.4005 50.408 42.7486 51.4172C40.4773 52.8162 38.3673 54.9042 37.5414 56.578C36.647 58.4364 36.647 60.5928 37.5414 62.4279C38.9867 65.3871 42.795 68.2082 48.2087 70.2962C50.0439 71.0073 50.5485 71.3738 59.1046 78.4858L68.0969 85.9643L69.221 88.7854C70.758 92.6622 71.2173 93.4417 72.5247 94.1992C73.5107 94.7954 73.7867 94.8418 76.0116 94.8418C79.8883 94.8418 80.6226 94.2224 82.5726 89.3132L83.9263 85.9411L92.8954 78.4858C101.475 71.375 101.956 71.0073 103.814 70.2962C109.228 68.1862 113.059 65.3871 114.459 62.4279C115.353 60.5696 115.353 58.4364 114.459 56.578C113.243 54.0771 110.399 51.7153 105.971 49.6273C104.824 49.0763 103.998 48.6413 104.159 48.6181C104.87 48.5949 107.118 47.5857 107.6 47.0579C108.379 46.2088 108.311 45.1312 107.393 44.144C106.636 43.3645 94.2491 36.597 92.4593 36.024C91.4037 35.6574 90.4409 35.8639 89.5453 36.6202C88.5814 37.423 88.3981 38.409 88.6046 41.8507C88.6962 43.4793 88.7426 44.8783 88.7194 44.9479C88.6962 45.0163 87.3889 44.9247 85.8287 44.7646C81.952 44.3284 69.9773 44.3284 66.147 44.7646C64.5647 44.9479 63.211 45.0859 63.1414 45.0395C63.073 44.9943 62.9349 43.709 62.8665 42.1952C62.7064 39.1212 62.3851 38.2036 61.2611 37.6526C60.2519 37.1712 59.1731 37.6758 57.5224 39.3961L56.1234 40.889L54.7697 38.801C53.0494 36.118 51.8558 35.4289 50.0903 36.0716ZM52.452 38.3428C52.7501 38.7558 53.5993 40.0631 54.3335 41.2104C55.0678 42.3796 55.7557 43.3436 55.8937 43.3436C56.0318 43.3436 57.0178 42.4028 58.0734 41.2788C59.9549 39.2824 60.688 38.8474 60.9641 39.5585C61.239 40.2928 61.8817 55.4784 61.652 56.121C61.1926 57.4515 60.5511 57.2218 53.1875 53.3219C49.4708 51.3488 46.1903 49.5368 45.9154 49.3072C45.1359 48.6877 45.6173 48.3212 48.4384 47.3572C49.7921 46.921 51.031 46.4628 51.1911 46.348C51.4208 46.21 51.0995 45.5221 49.8142 43.5489C48.8734 42.1036 48.0475 40.7498 47.9559 40.5213C47.7262 39.8787 48.1855 39.1676 49.3548 38.3649C50.8234 37.3789 51.7189 37.3789 52.452 38.3428ZM98.9286 41.1872C102.667 43.1603 105.925 44.9722 106.154 45.2019C106.842 45.8446 106.338 46.2111 103.402 47.1519C101.956 47.6112 100.717 48.0694 100.672 48.1611C100.604 48.2527 101.315 49.5148 102.232 50.937C104.205 54.0342 104.297 54.1942 103.976 54.9053C103.678 55.5712 101.544 56.8785 100.764 56.8785C100.029 56.8785 99.8693 56.6952 97.9414 53.598C97.0703 52.2443 96.2675 51.1434 96.1295 51.1434C95.9915 51.1434 95.0055 52.061 93.9499 53.2082C92.8722 54.3323 91.8166 55.273 91.5869 55.273C91.0139 55.273 90.9675 54.8601 90.5777 47.8177C90.1648 40.4772 90.1416 38.6421 90.4629 38.0459C90.9687 37.1272 91.9083 37.4937 98.9286 41.1872ZM86.9075 46.5545C87.9167 46.6925 88.7658 46.8294 88.789 46.8758C88.8122 46.899 88.9491 48.7573 89.0871 51.0054C89.3621 55.57 89.5685 56.259 90.8306 56.7857C91.9315 57.245 92.8954 56.7857 94.5705 54.997L95.9242 53.5748L97.2547 55.6848C99.3879 59.0106 100.65 59.3783 103.563 57.4968C105.994 55.9134 106.385 54.3996 104.94 52.0598C104.55 51.4172 104.229 50.8674 104.229 50.7978C104.229 50.6145 106.293 51.5773 107.899 52.518C108.748 53.0226 110.055 53.9634 110.766 54.6281C114.3 57.8401 114.322 61.0974 110.881 64.2851C100.488 73.9224 66.0785 76.0776 47.7273 68.2558C44.5849 66.902 42.8182 65.8476 41.1664 64.3106C37.7711 61.1682 37.7711 57.8645 41.1664 54.722C42.5433 53.4368 45.4097 51.6016 46.0291 51.6016C46.2124 51.6016 49.1715 53.0922 52.6353 54.9274C56.0759 56.7625 59.3111 58.3679 59.7925 58.506C60.8481 58.7809 61.9489 58.4828 62.66 57.7264C63.4627 56.8553 63.624 55.6848 63.3943 51.9462C63.2795 50.0426 63.1646 48.1147 63.1646 47.6565V46.8074L64.4499 46.6473C65.161 46.5788 66.5379 46.4176 67.5007 46.326C69.9785 46.0499 84.729 46.2343 86.9075 46.5545ZM63.3943 73.9444C73.97 75.2749 84.9343 74.9304 94.5461 72.9584C97.1607 72.4306 97.5285 72.3854 97.1839 72.7287C96.9543 72.9352 93.6285 75.7111 89.775 78.8999C85.9215 82.0888 82.6642 84.9331 82.5262 85.1848C82.3661 85.4597 81.7235 86.9967 81.0576 88.6486C80.2085 90.7818 79.6355 91.8374 79.0845 92.3652C78.327 93.1227 78.3049 93.1227 76.0105 93.1227C73.716 93.1227 73.6939 93.1227 72.9365 92.3652C72.3634 91.8374 71.8356 90.805 70.9633 88.6486C70.2986 86.9967 69.656 85.4597 69.4947 85.1848C69.3567 84.9331 66.0994 82.0876 62.2459 78.8999C58.3924 75.7111 55.0655 72.9352 54.837 72.7287C54.4925 72.3842 54.8602 72.4306 57.4748 72.9584C59.151 73.3029 61.8121 73.7379 63.3943 73.9444Z" fill="#003B7D"/>
<path d="M74.4063 98.5362C71.7684 98.9724 70.8741 99.2021 69.4055 99.7983C62.7297 102.459 58.3484 108.929 58.3484 116.154C58.3484 123.059 61.9954 128.977 68.097 132.074C70.8033 133.428 72.5932 133.841 75.8969 133.841C79.3374 133.841 80.8524 133.496 83.6967 132.144C89.8447 129.231 93.675 123.105 93.675 116.292C93.6518 106.727 86.5178 99.1568 76.9293 98.5606C75.8505 98.4898 74.7276 98.4898 74.4063 98.5362ZM79.6355 100.578C86.4726 102.183 91.587 108.262 92 115.259C92.1833 118.149 91.6555 120.604 90.3017 123.402C88.5351 126.981 85.1861 129.963 81.4011 131.339C72.2939 134.642 62.2007 128.861 60.274 119.272C58.6453 111.061 63.8062 102.825 71.9726 100.691C73.9933 100.165 77.6171 100.095 79.6355 100.578Z" fill="#003B7D"/>
<path d="M75.0941 104.706C75.0941 106.197 75.0477 106.427 74.7043 106.427C74.0396 106.45 72.4794 107.229 71.6071 108.009C70.5063 108.973 69.8184 110.487 69.8184 111.932C69.8184 114.96 71.8148 116.588 76.3562 117.322C77.6182 117.529 79.0856 117.896 79.6366 118.148C82.3209 119.456 81.6098 123.104 78.421 124.32C78.0312 124.456 77.044 124.595 76.1961 124.595C74.4074 124.595 72.7555 123.952 71.3334 122.713L70.4842 121.956L69.8648 122.552L69.2686 123.171L70.0481 123.836C71.1489 124.777 73.1905 125.854 74.2461 126.038L75.0952 126.198V127.78V129.363H76.0128H76.9072L76.9756 127.826L77.044 126.266L78.008 126.106C80.8291 125.647 82.8939 123.377 82.8939 120.761C82.8939 117.87 81.2885 116.403 77.3654 115.806C74.5442 115.37 73.3506 114.957 72.4794 114.155C71.1257 112.869 71.1025 111.195 72.3878 109.727C73.4654 108.511 74.5895 108.03 76.3562 108.03C77.8468 108.03 78.7423 108.305 80.1412 109.222C80.6922 109.589 80.7607 109.567 81.3801 109.062L82.0448 108.534L81.0588 107.823C80.2329 107.227 79.2921 106.859 77.2273 106.286C77.0208 106.241 76.9292 105.69 76.9292 104.589V102.984H76.0116H75.0941V104.706Z" fill="#003B7D"/>
</svg>
