<svg width="152" height="152" viewBox="0 0 152 152" fill="none" xmlns="http://www.w3.org/2000/svg">
<circle cx="76" cy="76" r="76" fill="#FFFDFD"/>
<path d="M114.188 46.4375H111.062V44.875H112.625C113.868 44.875 115.06 44.3811 115.94 43.502C116.819 42.6229 117.312 41.4307 117.312 40.1875C117.312 38.9443 116.819 37.752 115.94 36.8729C115.06 35.9938 113.868 35.5 112.625 35.5H111.062V27.6875C111.065 27.4428 111.008 27.2013 110.896 26.9836C110.785 26.7659 110.622 26.5785 110.422 26.4375C110.228 26.2909 110.003 26.1919 109.764 26.1485C109.525 26.1051 109.28 26.1184 109.047 26.1875L88.9531 32.375H78.25C77.8356 32.375 77.4382 32.5396 77.1451 32.8326C76.8521 33.1256 76.6875 33.5231 76.6875 33.9375V35.5H73.5625C73.1481 35.5 72.7507 35.6646 72.4576 35.9576C72.1646 36.2506 72 36.6481 72 37.0625V43.3125C72 43.7269 72.1646 44.1243 72.4576 44.4173C72.7507 44.7103 73.1481 44.875 73.5625 44.875H76.6875V46.4375H67.3125V32.375C67.3125 31.9606 67.1479 31.5631 66.8549 31.2701C66.5618 30.9771 66.1644 30.8125 65.75 30.8125H34.5C34.0856 30.8125 33.6882 30.9771 33.3951 31.2701C33.1021 31.5631 32.9375 31.9606 32.9375 32.375V46.4375H29.8125C28.5704 46.4412 27.3803 46.9362 26.502 47.8145C25.6238 48.6928 25.1287 49.8829 25.125 51.125V101.125C25.1287 102.367 25.6238 103.557 26.502 104.435C27.3803 105.314 28.5704 105.809 29.8125 105.812H65.75V110.5H56.375C55.9606 110.5 55.5632 110.665 55.2701 110.958C54.9771 111.251 54.8125 111.648 54.8125 112.062V118.312C54.8125 118.727 54.9771 119.124 55.2701 119.417C55.5632 119.71 55.9606 119.875 56.375 119.875H87.625C88.0394 119.875 88.4368 119.71 88.7299 119.417C89.0229 119.124 89.1875 118.727 89.1875 118.312V112.062C89.1875 111.648 89.0229 111.251 88.7299 110.958C88.4368 110.665 88.0394 110.5 87.625 110.5H78.25V105.812H114.188C115.43 105.809 116.62 105.314 117.498 104.435C118.376 103.557 118.871 102.367 118.875 101.125V51.125C118.871 49.8829 118.376 48.6928 117.498 47.8145C116.62 46.9362 115.43 46.4412 114.188 46.4375ZM111.062 38.625H112.625C113.039 38.625 113.437 38.7896 113.73 39.0826C114.023 39.3756 114.188 39.7731 114.188 40.1875C114.188 40.6019 114.023 40.9993 113.73 41.2923C113.437 41.5853 113.039 41.75 112.625 41.75H111.062V38.625ZM90.75 35.0937L107.938 29.7968V50.5781L90.75 45.2812V35.0937ZM79.8125 35.5H87.625V44.875H79.8125V35.5ZM84.2656 48L83.1406 55.8125H81.375V48H84.2656ZM75.125 41.75V38.625H76.6875V41.75H75.125ZM36.0625 33.9375H64.1875V55.8125H36.0625V33.9375ZM86.0625 113.625V116.75H57.9375V113.625H86.0625ZM68.875 110.5V105.812H75.125V110.5H68.875ZM115.75 101.125C115.75 101.539 115.585 101.937 115.292 102.23C114.999 102.523 114.602 102.687 114.188 102.687H29.8125C29.3981 102.687 29.0007 102.523 28.7076 102.23C28.4146 101.937 28.25 101.539 28.25 101.125V99.5625H115.75V101.125ZM115.75 96.4375H28.25V51.125C28.25 50.7106 28.4146 50.3131 28.7076 50.0201C29.0007 49.7271 29.3981 49.5625 29.8125 49.5625H32.9375V57.375C32.9375 57.7894 33.1021 58.1868 33.3951 58.4798C33.6882 58.7728 34.0856 58.9375 34.5 58.9375H65.75C66.1644 58.9375 66.5618 58.7728 66.8549 58.4798C67.1479 58.1868 67.3125 57.7894 67.3125 57.375V49.5625H78.25V57.375C78.25 57.7894 78.4146 58.1868 78.7076 58.4798C79.0007 58.7728 79.3981 58.9375 79.8125 58.9375H84.5C84.8765 58.9374 85.2402 58.8014 85.5245 58.5545C85.8087 58.3077 85.9942 57.9665 86.0469 57.5937L87.4219 48H88.9531L109.047 54.1875C109.194 54.2322 109.347 54.2533 109.5 54.25C109.913 54.2439 110.306 54.0773 110.598 53.7856C110.89 53.4939 111.056 53.1 111.062 52.6875V49.5625H114.188C114.602 49.5625 114.999 49.7271 115.292 50.0201C115.585 50.3131 115.75 50.7106 115.75 51.125V96.4375Z" fill="#003B7D"/>
<path d="M32.9375 93.3125H73.5625C73.9769 93.3125 74.3743 93.1479 74.6674 92.8549C74.9604 92.5618 75.125 92.1644 75.125 91.75V66.75C75.125 66.3356 74.9604 65.9382 74.6674 65.6451C74.3743 65.3521 73.9769 65.1875 73.5625 65.1875H32.9375C32.5231 65.1875 32.1257 65.3521 31.8326 65.6451C31.5396 65.9382 31.375 66.3356 31.375 66.75V91.75C31.375 92.1644 31.5396 92.5618 31.8326 92.8549C32.1257 93.1479 32.5231 93.3125 32.9375 93.3125ZM34.5 90.1875V69.5453L52.4312 80.5813C52.6775 80.7327 52.9609 80.8129 53.25 80.8129C53.5391 80.8129 53.8225 80.7327 54.0688 80.5813L72 69.5453V90.1875H34.5ZM38.4578 68.3125H68.0422L53.25 77.4156L38.4578 68.3125Z" fill="#003B7D"/>
<path d="M79.8125 83.9375H82.9375V88.625C82.9375 89.0394 83.1021 89.4368 83.3951 89.7299C83.6882 90.0229 84.0856 90.1875 84.5 90.1875H111.062C111.477 90.1875 111.874 90.0229 112.167 89.7299C112.46 89.4368 112.625 89.0394 112.625 88.625V69.875C112.625 69.4606 112.46 69.0632 112.167 68.7701C111.874 68.4771 111.477 68.3125 111.062 68.3125H109.5V63.625C109.5 63.2106 109.335 62.8132 109.042 62.5201C108.749 62.2271 108.352 62.0625 107.938 62.0625H79.8125C79.3981 62.0625 79.0007 62.2271 78.7076 62.5201C78.4146 62.8132 78.25 63.2106 78.25 63.625V82.375C78.25 82.7894 78.4146 83.1868 78.7076 83.4799C79.0007 83.7729 79.3981 83.9375 79.8125 83.9375ZM109.5 87.0625H86.0625V71.4375H109.5V87.0625ZM81.375 65.1875H106.375V68.3125H84.5C84.0856 68.3125 83.6882 68.4771 83.3951 68.7701C83.1021 69.0632 82.9375 69.4606 82.9375 69.875V80.8125H81.375V65.1875Z" fill="#003B7D"/>
<path d="M89.1875 74.5625H92.3125V77.6875H89.1875V74.5625Z" fill="#003B7D"/>
<path d="M95.4375 74.5625H106.375V77.6875H95.4375V74.5625Z" fill="#003B7D"/>
<path d="M89.1875 80.8125H95.4375V83.9375H89.1875V80.8125Z" fill="#003B7D"/>
<path d="M98.5625 80.8125H106.375V83.9375H98.5625V80.8125Z" fill="#003B7D"/>
<path d="M46.1781 50.8919C46.4047 51.032 46.6633 51.1119 46.9293 51.1239C47.1954 51.136 47.4602 51.0798 47.6984 50.9607L57.0734 46.2732C57.3334 46.1436 57.5522 45.9441 57.7051 45.6971C57.858 45.45 57.939 45.1653 57.939 44.8748C57.939 44.5842 57.858 44.2995 57.7051 44.0524C57.5522 43.8054 57.3334 43.6059 57.0734 43.4763L47.6984 38.7888C47.4602 38.6697 47.1954 38.6136 46.9293 38.6256C46.6632 38.6377 46.4046 38.7176 46.1781 38.8577C45.9515 38.9978 45.7646 39.1935 45.635 39.4262C45.5054 39.6589 45.4374 39.9209 45.4375 40.1873V49.5623C45.4374 49.8286 45.5053 50.0906 45.635 50.3234C45.7646 50.5561 45.9516 50.7518 46.1781 50.8919ZM48.5625 42.7154L52.8812 44.8748L48.5625 47.0341V42.7154Z" fill="#003B7D"/>
</svg>
