<svg width="590" height="437" viewBox="0 0 590 437" fill="none" xmlns="http://www.w3.org/2000/svg">
<g clip-path="url(#clip0_660_543)">
<path d="M36.4141 435.687C36.4141 426.724 39.9743 418.127 46.3117 411.789C52.649 405.45 61.2443 401.889 70.2066 401.889C79.169 401.889 87.7642 405.45 94.1016 411.789C100.439 418.127 103.999 426.724 103.999 435.687" fill="#F2F2F2"/>
<path d="M70.2063 435.687C69.9641 435.687 69.7317 435.591 69.5605 435.42C69.3892 435.248 69.293 435.016 69.293 434.774V416.961C69.293 416.719 69.3892 416.487 69.5605 416.315C69.7317 416.144 69.9641 416.048 70.2063 416.048C70.4485 416.048 70.6808 416.144 70.8521 416.315C71.0234 416.487 71.1196 416.719 71.1196 416.961V434.774C71.1196 435.016 71.0234 435.248 70.8521 435.42C70.6808 435.591 70.4485 435.687 70.2063 435.687Z" fill="#CCCCCC"/>
<path d="M70.2066 429.566C69.9885 429.567 69.7775 429.488 69.6122 429.346L58.6525 419.938C58.5607 419.86 58.4852 419.765 58.4304 419.658C58.3755 419.551 58.3424 419.434 58.3329 419.314C58.3234 419.194 58.3377 419.073 58.3751 418.958C58.4124 418.844 58.4719 418.738 58.5504 418.647C58.6288 418.555 58.7245 418.48 58.8319 418.426C58.9394 418.372 59.0565 418.339 59.1766 418.331C59.2966 418.322 59.4173 418.337 59.5315 418.375C59.6457 418.413 59.7513 418.473 59.8422 418.552L70.802 427.96C70.9436 428.081 71.0445 428.243 71.0913 428.424C71.138 428.605 71.1283 428.795 71.0635 428.97C70.9986 429.145 70.8818 429.296 70.7286 429.403C70.5754 429.509 70.3932 429.567 70.2066 429.566Z" fill="#CCCCCC"/>
<path d="M140.531 435.687C140.531 426.724 144.092 418.127 150.429 411.789C156.766 405.45 165.361 401.889 174.324 401.889C183.286 401.889 191.881 405.45 198.219 411.789C204.556 418.127 208.116 426.724 208.116 435.687" fill="#F2F2F2"/>
<path d="M174.323 435.687C174.081 435.687 173.849 435.591 173.678 435.42C173.506 435.248 173.41 435.016 173.41 434.774V416.961C173.41 416.719 173.506 416.487 173.678 416.315C173.849 416.144 174.081 416.048 174.323 416.048C174.566 416.048 174.798 416.144 174.969 416.315C175.141 416.487 175.237 416.719 175.237 416.961V434.774C175.237 435.016 175.141 435.248 174.969 435.42C174.798 435.591 174.566 435.687 174.323 435.687Z" fill="#CCCCCC"/>
<path d="M174.324 429.566C174.106 429.567 173.895 429.489 173.729 429.346L162.77 419.938C162.586 419.78 162.472 419.556 162.454 419.314C162.435 419.073 162.514 418.834 162.671 418.65C162.829 418.466 163.054 418.353 163.295 418.334C163.537 418.316 163.776 418.394 163.959 418.552L174.919 427.96C175.061 428.081 175.162 428.243 175.208 428.424C175.255 428.605 175.246 428.795 175.181 428.97C175.116 429.145 174.999 429.296 174.846 429.403C174.693 429.51 174.51 429.567 174.324 429.566Z" fill="#CCCCCC"/>
<path d="M210.856 159.309C218.422 159.309 224.556 153.174 224.556 145.607C224.556 138.04 218.422 131.905 210.856 131.905C203.29 131.905 197.156 138.04 197.156 145.607C197.156 153.174 203.29 159.309 210.856 159.309Z" fill="white"/>
<path d="M210.856 131.905C208.146 131.905 205.498 132.709 203.245 134.214C200.992 135.72 199.236 137.86 198.199 140.363C197.162 142.867 196.891 145.622 197.419 148.28C197.948 150.938 199.253 153.379 201.169 155.296C203.085 157.212 205.526 158.517 208.183 159.045C210.841 159.574 213.595 159.303 216.099 158.266C218.602 157.229 220.741 155.473 222.247 153.219C223.752 150.966 224.556 148.317 224.556 145.607C224.556 141.973 223.112 138.488 220.543 135.918C217.974 133.349 214.489 131.905 210.856 131.905ZM207.576 151.589C207.576 151.692 207.535 151.79 207.463 151.862C207.39 151.935 207.292 151.975 207.19 151.975H204.103C204 151.975 203.902 151.935 203.83 151.862C203.757 151.79 203.717 151.692 203.717 151.589V144.256C203.717 144.154 203.757 144.055 203.83 143.983C203.902 143.911 204 143.87 204.103 143.87H207.19C207.292 143.87 207.39 143.911 207.463 143.983C207.535 144.055 207.576 144.154 207.576 144.256V151.589ZM217.995 145.8C217.995 146.107 217.873 146.402 217.656 146.619C217.439 146.836 217.145 146.958 216.837 146.958V146.977C217.055 147.022 217.251 147.14 217.392 147.312C217.533 147.485 217.609 147.7 217.609 147.923C217.609 148.145 217.533 148.361 217.392 148.533C217.251 148.705 217.055 148.824 216.837 148.868V149.274C217.042 149.274 217.238 149.355 217.383 149.5C217.528 149.644 217.609 149.841 217.609 150.046C217.609 150.25 217.528 150.447 217.383 150.591C217.238 150.736 217.042 150.817 216.837 150.817H209.119C209.017 150.817 208.919 150.777 208.846 150.704C208.774 150.632 208.733 150.534 208.733 150.432V144.256C208.733 142.326 211.821 139.624 211.821 139.624V138.683C211.82 138.397 211.925 138.121 212.115 137.907C212.305 137.693 212.567 137.556 212.851 137.522C213.135 137.488 213.421 137.56 213.656 137.724C213.891 137.887 214.057 138.131 214.124 138.409L214.136 138.466C214.286 139.827 213.954 141.196 213.199 142.337H215.574C215.61 142.334 215.644 142.326 215.68 142.326H216.837C216.53 142.94 216.48 143.651 216.697 144.303C216.914 144.954 217.381 145.493 217.995 145.8Z" fill="#5E90FF"/>
<path d="M230.949 85.3186C241.542 85.3186 250.129 76.7303 250.129 66.136C250.129 55.5417 241.542 46.9534 230.949 46.9534C220.357 46.9534 211.77 55.5417 211.77 66.136C211.77 76.7303 220.357 85.3186 230.949 85.3186Z" fill="white"/>
<path d="M230.949 46.9534C227.156 46.9534 223.448 48.0784 220.294 50.1862C217.139 52.294 214.681 55.29 213.229 58.7951C211.778 62.3003 211.398 66.1573 212.138 69.8783C212.878 73.5994 214.705 77.0174 217.387 79.7001C220.069 82.3829 223.487 84.2099 227.207 84.95C230.928 85.6902 234.784 85.3103 238.289 83.8584C241.793 82.4065 244.789 79.9478 246.896 76.7933C249.004 73.6387 250.129 69.93 250.129 66.136C250.129 61.0484 248.108 56.1693 244.511 52.5718C240.914 48.9744 236.036 46.9534 230.949 46.9534ZM226.357 74.5115C226.357 74.6548 226.3 74.7922 226.199 74.8936C226.097 74.9949 225.96 75.0518 225.817 75.0518H221.494C221.351 75.0518 221.214 74.9949 221.112 74.8936C221.011 74.7922 220.954 74.6548 220.954 74.5115V64.2447C220.954 64.1014 221.011 63.964 221.112 63.8627C221.214 63.7613 221.351 63.7044 221.494 63.7044H225.817C225.96 63.7044 226.097 63.7613 226.199 63.8627C226.3 63.964 226.357 64.1014 226.357 64.2447V74.5115ZM240.944 66.4061C240.944 66.8361 240.773 67.2484 240.469 67.5524C240.165 67.8564 239.753 68.0272 239.323 68.0272V68.0545C239.628 68.1167 239.902 68.2825 240.099 68.5237C240.296 68.7649 240.404 69.0667 240.404 69.3781C240.404 69.6895 240.296 69.9913 240.099 70.2325C239.902 70.4737 239.628 70.6395 239.323 70.7017V71.2693C239.61 71.2693 239.885 71.3832 240.087 71.5859C240.29 71.7885 240.404 72.0634 240.404 72.3501C240.404 72.6367 240.29 72.9116 240.087 73.1142C239.885 73.3169 239.61 73.4308 239.323 73.4308H228.518C228.375 73.4308 228.237 73.3738 228.136 73.2725C228.035 73.1712 227.978 73.0337 227.978 72.8904V64.2447C227.978 61.543 232.3 57.7605 232.3 57.7605V56.4432C232.299 56.0426 232.446 55.6558 232.712 55.3561C232.977 55.0564 233.344 54.8648 233.742 54.8174C234.139 54.7701 234.54 54.8705 234.869 55.0994C235.198 55.3283 235.431 55.67 235.525 56.0595C235.53 56.0857 235.536 56.1124 235.541 56.1394C236.082 58.8412 234.229 61.5578 234.229 61.5578H237.555C237.604 61.5533 237.652 61.5429 237.702 61.5429H239.323C239.753 61.5429 240.165 61.7138 240.469 62.0178C240.773 62.3218 240.944 62.7341 240.944 63.164C240.944 63.594 240.773 64.0063 240.469 64.3103C240.165 64.6143 239.753 64.7851 239.323 64.7851C239.753 64.7851 240.165 64.9559 240.469 65.2599C240.773 65.5639 240.944 65.9762 240.944 66.4062V66.4061Z" fill="#5E90FF"/>
<path d="M273.649 271.845C275.046 271.52 276.355 270.893 277.483 270.008C278.612 269.123 279.533 268.001 280.181 266.721C280.83 265.441 281.189 264.035 281.235 262.601C281.281 261.167 281.013 259.741 280.448 258.422L316.617 176.693L295.926 171.481L266.879 253.457C264.727 254.553 263.052 256.4 262.17 258.649C261.289 260.898 261.263 263.391 262.098 265.658C262.932 267.925 264.569 269.806 266.698 270.947C268.827 272.087 271.3 272.406 273.649 271.845V271.845Z" fill="#A0616A"/>
<path d="M306.242 202.271L286.118 192.85C285.546 192.582 285.038 192.194 284.629 191.712C284.22 191.23 283.919 190.665 283.748 190.056C283.577 189.448 283.539 188.809 283.637 188.185C283.735 187.56 283.966 186.964 284.315 186.436L296.545 167.964C297.934 165.044 300.424 162.793 303.468 161.706C306.513 160.618 309.865 160.782 312.79 162.161C315.714 163.541 317.972 166.024 319.07 169.065C320.167 172.107 320.015 175.46 318.645 178.389L312.321 199.548C312.14 200.154 311.83 200.713 311.413 201.188C310.996 201.664 310.482 202.043 309.905 202.302C309.328 202.56 308.702 202.691 308.07 202.686C307.438 202.681 306.814 202.539 306.242 202.271H306.242Z" fill="#6C63FF"/>
<path d="M236.276 191.761L258.462 207.47C258.746 207.677 259.088 207.788 259.439 207.788C259.791 207.788 260.133 207.677 260.417 207.47L266.412 202.968C266.611 202.822 266.775 202.633 266.892 202.416C267.008 202.198 267.074 201.957 267.084 201.71C267.094 201.463 267.049 201.217 266.951 200.99C266.854 200.764 266.706 200.562 266.52 200.4L249.448 185.174C249.223 184.978 248.951 184.844 248.659 184.788C248.366 184.731 248.064 184.753 247.782 184.851L236.673 188.827C236.388 188.932 236.137 189.114 235.947 189.351C235.756 189.588 235.634 189.873 235.593 190.174C235.552 190.476 235.594 190.783 235.715 191.062C235.835 191.342 236.029 191.583 236.276 191.761H236.276Z" fill="#3F3D56"/>
<path d="M238.292 190.549L258.286 204.706C258.386 204.782 258.508 204.824 258.634 204.825C258.759 204.826 258.882 204.787 258.984 204.713L264.376 200.664C264.437 200.62 264.49 200.564 264.529 200.5C264.569 200.436 264.596 200.365 264.609 200.29C264.621 200.216 264.618 200.139 264.601 200.066C264.584 199.992 264.552 199.923 264.508 199.862C264.483 199.829 264.455 199.798 264.424 199.771L249.025 186.037C248.945 185.968 248.848 185.921 248.744 185.902C248.64 185.883 248.533 185.891 248.433 185.927L238.427 189.508C238.327 189.547 238.239 189.612 238.172 189.696C238.106 189.781 238.064 189.882 238.05 189.988C238.036 190.095 238.051 190.203 238.094 190.302C238.136 190.4 238.205 190.486 238.292 190.549V190.549Z" fill="white"/>
<path d="M317.135 425.976L305.938 425.975L300.611 382.779L317.137 382.78L317.135 425.976Z" fill="#A0616A"/>
<path d="M319.99 436.831L283.887 436.83V436.373C283.887 434.528 284.25 432.7 284.956 430.995C285.663 429.29 286.698 427.74 288.003 426.435C289.308 425.13 290.857 424.095 292.562 423.388C294.267 422.682 296.094 422.319 297.939 422.319H297.94L319.991 422.319L319.99 436.831Z" fill="#2F2E41"/>
<path d="M354.58 425.976L343.383 425.975L338.057 382.779L354.582 382.78L354.58 425.976Z" fill="#A0616A"/>
<path d="M357.436 436.831L321.332 436.83V436.373C321.332 434.528 321.695 432.7 322.402 430.995C323.108 429.29 324.143 427.74 325.448 426.435C326.753 425.13 328.302 424.095 330.007 423.388C331.712 422.682 333.539 422.319 335.385 422.319H335.386L357.436 422.319L357.436 436.831Z" fill="#2F2E41"/>
<path d="M354.069 413.959C353.968 413.959 353.866 413.955 353.765 413.948L340.888 412.995C340.006 412.925 339.169 412.575 338.501 411.994C337.832 411.414 337.368 410.634 337.176 409.77L314.818 287.027C314.744 286.687 314.544 286.389 314.258 286.191C313.973 285.994 313.623 285.912 313.279 285.963C312.936 286.014 312.624 286.193 312.408 286.465C312.191 286.736 312.086 287.08 312.114 287.426L320.052 408.361C320.097 408.926 320.024 409.495 319.838 410.03C319.652 410.566 319.358 411.058 318.973 411.474C318.588 411.89 318.121 412.222 317.602 412.449C317.083 412.677 316.522 412.794 315.955 412.794H306.15C305.323 412.794 304.515 412.545 303.832 412.079C303.149 411.613 302.622 410.951 302.321 410.181C277.661 345.594 286.591 219.043 286.662 217.77L287.575 216.857L336.691 225.339L336.795 225.44C353.577 237.768 360.84 382.143 358.171 409.607C358.155 410.774 357.724 411.897 356.957 412.775C356.187 413.534 355.15 413.959 354.069 413.959Z" fill="#2F2E41"/>
<path d="M292.328 142.826C304.717 142.826 314.76 132.781 314.76 120.39C314.76 108 304.717 97.9548 292.328 97.9548C279.94 97.9548 269.896 108 269.896 120.39C269.896 132.781 279.94 142.826 292.328 142.826Z" fill="#A0616A"/>
<path d="M343.774 246.181C343.545 246.181 343.318 246.158 343.094 246.113L285.484 238.719C283.421 238.303 281.949 236.102 282.061 233.597L287.574 203.155C280.268 194.02 287.172 170.429 291.636 164.465L289.91 159.791C289.465 158.578 289.438 157.25 289.833 156.02C290.172 154.861 290.951 153.881 292.002 153.289L315.383 140.865C317.456 139.763 319.887 140.89 320.805 143.375L325.39 155.786L325.32 155.822C336.299 161.707 346.026 167.53 338.72 198.587L347.88 241.48C347.849 242.832 347.304 244.122 346.356 245.087C345.671 245.775 344.744 246.168 343.774 246.181Z" fill="#6C63FF"/>
<path d="M262.488 195.896C262.856 196.242 263.196 196.617 263.506 197.017L308.692 193.894L313.54 184.014L329.404 189.382L322.522 207.706C321.966 209.187 320.945 210.447 319.612 211.297C318.279 212.148 316.706 212.543 315.129 212.424L263.746 208.526C262.609 210.106 261.017 211.303 259.183 211.956C257.349 212.61 255.36 212.689 253.48 212.184C251.599 211.679 249.917 210.614 248.657 209.129C247.397 207.645 246.619 205.812 246.426 203.874C246.233 201.937 246.634 199.986 247.577 198.282C248.519 196.578 249.958 195.202 251.702 194.336C253.445 193.47 255.411 193.155 257.338 193.434C259.265 193.712 261.061 194.571 262.488 195.896Z" fill="#A0616A"/>
<path d="M307.878 191.715C307.653 191.169 307.548 190.581 307.571 189.991C307.594 189.401 307.745 188.822 308.011 188.295L317.329 169.889C318.284 167.022 320.336 164.65 323.036 163.293C325.736 161.937 328.863 161.706 331.733 162.653C334.603 163.599 336.98 165.644 338.344 168.341C339.708 171.037 339.948 174.165 339.01 177.038L335.421 197.422C335.318 198.004 335.092 198.556 334.756 199.043C334.421 199.529 333.985 199.937 333.478 200.24C332.97 200.542 332.404 200.732 331.817 200.795C331.229 200.859 330.635 200.795 330.075 200.609L310.38 194.051C309.82 193.865 309.306 193.56 308.874 193.157C308.442 192.753 308.103 192.262 307.878 191.715Z" fill="#6C63FF"/>
<path d="M237.357 176.687C237.172 176.86 236.928 176.956 236.675 176.956C236.421 176.956 236.177 176.86 235.992 176.687L235.467 176.213C231.177 172.275 228.699 169.717 228.699 166.528C228.699 163.926 230.345 161.916 232.926 161.916C233.642 161.92 234.347 162.079 234.995 162.383C235.642 162.687 236.216 163.128 236.676 163.676C237.136 163.128 237.709 162.687 238.356 162.383C239.003 162.079 239.708 161.92 240.423 161.916C243.007 161.916 244.65 163.92 244.65 166.528C244.65 169.71 242.172 172.268 237.882 176.213L237.357 176.687Z" fill="#FF6584"/>
<path d="M206.016 122.128C205.661 122.459 205.193 122.643 204.708 122.643C204.222 122.643 203.754 122.459 203.399 122.128L202.395 121.219C194.173 113.675 189.426 108.773 189.426 102.662C189.426 97.677 192.58 93.8247 197.526 93.8247C198.896 93.8325 200.249 94.1382 201.489 94.7205C202.73 95.3028 203.829 96.1478 204.711 97.197C205.591 96.1479 206.689 95.3029 207.929 94.7206C209.169 94.1383 210.52 93.8326 211.889 93.8247C216.842 93.8247 219.989 97.6642 219.989 102.662C219.989 108.76 215.242 113.662 207.02 121.219L206.016 122.128Z" fill="#FF6584"/>
<path d="M207.321 36.7609C206.86 37.1909 206.253 37.43 205.622 37.43C204.991 37.43 204.384 37.1909 203.922 36.7609L202.618 35.5807C191.939 25.7817 185.773 19.4153 185.773 11.4779C185.773 5.00342 189.87 0 196.294 0C198.074 0.0101513 199.83 0.407123 201.442 1.16341C203.053 1.9197 204.481 3.01725 205.626 4.38004C206.77 3.01746 208.196 1.91995 209.806 1.16362C211.416 0.407296 213.171 0.0102362 214.95 0C221.382 0 225.47 4.9868 225.47 11.4779C225.47 19.3986 219.304 25.7651 208.626 35.5807L207.321 36.7609Z" fill="#FF6584"/>
<path d="M589.087 437H0.913313C0.671087 437 0.438796 436.904 0.267516 436.733C0.096237 436.561 0 436.329 0 436.087C0 435.844 0.096237 435.612 0.267516 435.441C0.438796 435.269 0.671087 435.173 0.913313 435.173H589.087C589.329 435.173 589.561 435.269 589.732 435.441C589.904 435.612 590 435.844 590 436.087C590 436.329 589.904 436.561 589.732 436.733C589.561 436.904 589.329 437 589.087 437Z" fill="#CCCCCC"/>
<path d="M304.928 102.674C315.017 102.674 323.195 94.4949 323.195 84.4051C323.195 74.3154 315.017 66.136 304.928 66.136C294.84 66.136 286.662 74.3154 286.662 84.4051C286.662 94.4949 294.84 102.674 304.928 102.674Z" fill="#2F2E41"/>
<path d="M271.093 123.164C269.309 123.352 267.411 123.522 265.806 122.721C264.947 122.233 264.215 121.551 263.669 120.727C263.124 119.904 262.78 118.964 262.666 117.983C259.263 95.3666 278.491 97.227 280.766 96.2474C282.295 95.589 283.421 94.2636 284.787 93.3124C287.775 91.2322 291.653 91.0801 295.293 91.0016C299.614 90.9083 304.092 90.8442 308.059 92.5626C311.625 94.2339 314.588 96.9658 316.544 100.385C318.479 103.79 319.897 107.464 320.751 111.286C321.851 115.658 322.599 120.284 321.467 124.648C320.533 127.965 318.585 130.907 315.896 133.063C313.207 135.218 309.912 136.478 306.471 136.668C307.947 131.455 304.726 125.676 299.947 123.125C296.092 121.229 291.704 120.706 287.511 121.644C284.791 122.195 282.033 122.539 279.262 122.672C276.542 122.774 273.276 122.933 271.093 123.164Z" fill="#2F2E41"/>
<path d="M564.073 193.431C564.073 149.344 528.315 44.7278 484.205 44.7278C440.096 44.7278 404.338 149.344 404.338 193.431C404.354 214.606 412.776 234.908 427.752 249.875C442.728 264.843 463.034 273.25 484.205 273.25C505.377 273.25 525.683 264.843 540.659 249.875C555.635 234.908 564.057 214.606 564.073 193.431Z" fill="#F2F2F2"/>
<path d="M484.204 436.087C483.962 436.087 483.73 435.99 483.559 435.819C483.387 435.648 483.291 435.415 483.291 435.173V182.93C483.291 182.688 483.387 182.456 483.559 182.284C483.73 182.113 483.962 182.017 484.204 182.017C484.447 182.017 484.679 182.113 484.85 182.284C485.021 182.456 485.118 182.688 485.118 182.93V435.173C485.118 435.415 485.021 435.648 484.85 435.819C484.679 435.99 484.447 436.087 484.204 436.087Z" fill="#CCCCCC"/>
<path d="M484.205 217.77C484.074 217.77 483.945 217.742 483.826 217.688C483.707 217.634 483.6 217.554 483.515 217.455L437.581 164.475C437.423 164.292 437.344 164.053 437.362 163.812C437.379 163.571 437.492 163.346 437.674 163.188C437.857 163.029 438.095 162.95 438.336 162.967C438.578 162.983 438.802 163.095 438.961 163.278L484.895 216.258C485.01 216.39 485.084 216.553 485.109 216.726C485.134 216.9 485.108 217.076 485.036 217.236C484.963 217.395 484.846 217.53 484.699 217.625C484.552 217.72 484.38 217.77 484.205 217.77Z" fill="#CCCCCC"/>
<path d="M484.204 248.346C484.023 248.346 483.847 248.292 483.697 248.192C483.547 248.092 483.43 247.949 483.361 247.782C483.291 247.615 483.273 247.432 483.309 247.254C483.344 247.077 483.431 246.914 483.558 246.787L509.659 220.682C509.744 220.597 509.844 220.53 509.955 220.484C510.066 220.438 510.185 220.414 510.304 220.414C510.424 220.414 510.543 220.438 510.654 220.484C510.765 220.53 510.865 220.597 510.95 220.682C511.035 220.767 511.102 220.867 511.148 220.978C511.194 221.089 511.218 221.208 511.218 221.328C511.218 221.448 511.194 221.566 511.148 221.677C511.102 221.788 511.035 221.889 510.95 221.973L484.85 248.078C484.765 248.163 484.665 248.231 484.554 248.277C484.443 248.323 484.324 248.346 484.204 248.346Z" fill="#CCCCCC"/>
<path d="M484.204 348.826C484.023 348.826 483.847 348.773 483.697 348.672C483.547 348.572 483.43 348.429 483.361 348.262C483.291 348.095 483.273 347.912 483.309 347.735C483.344 347.557 483.431 347.395 483.558 347.267L509.659 321.162C509.83 320.991 510.062 320.895 510.304 320.895C510.547 320.895 510.779 320.991 510.95 321.162C511.121 321.333 511.218 321.566 511.218 321.808C511.218 322.05 511.121 322.282 510.95 322.454L484.85 348.559C484.765 348.644 484.665 348.711 484.554 348.757C484.443 348.803 484.324 348.826 484.204 348.826Z" fill="#CCCCCC"/>
</g>
<defs>
<clipPath id="clip0_660_543">
<rect width="590" height="437" fill="white"/>
</clipPath>
</defs>
</svg>
