<svg width="25" height="25" viewBox="0 0 25 25" fill="none" xmlns="http://www.w3.org/2000/svg">
<path d="M12.4952 2.25131C15.8315 2.25131 16.2267 2.26401 17.5443 2.32416C18.7626 2.37971 19.4242 2.58325 19.8645 2.75434C20.4477 2.98099 20.864 3.25186 21.3012 3.68908C21.7384 4.12631 22.0093 4.54257 22.2359 5.12579C22.407 5.56607 22.6106 6.22764 22.6661 7.44596C22.7263 8.7636 22.739 9.15874 22.739 12.4951C22.739 15.8314 22.7263 16.2266 22.6661 17.5442C22.6106 18.7625 22.407 19.4241 22.2359 19.8644C22.0093 20.4476 21.7384 20.8638 21.3012 21.3011C20.864 21.7383 20.4477 22.0092 19.8645 22.2358C19.4242 22.4069 18.7626 22.6104 17.5443 22.666C16.227 22.7261 15.8318 22.7388 12.4952 22.7388C9.15849 22.7388 8.76335 22.7261 7.44601 22.666C6.22768 22.6104 5.5661 22.4069 5.12582 22.2358C4.54259 22.0092 4.12633 21.7383 3.68911 21.3011C3.25188 20.8638 2.981 20.4476 2.75436 19.8644C2.58326 19.4241 2.37972 18.7625 2.32417 17.5442C2.26403 16.2266 2.25133 15.8314 2.25133 12.4951C2.25133 9.15874 2.26403 8.7636 2.32417 7.44596C2.37972 6.22764 2.58326 5.56607 2.75436 5.12579C2.981 4.54257 3.25188 4.12631 3.68911 3.68908C4.12633 3.25186 4.54259 2.98099 5.12582 2.75434C5.5661 2.58325 6.22768 2.37971 7.44601 2.32416C8.76366 2.26417 9.1588 2.25131 12.4952 2.25131ZM12.4952 0C9.10171 0 8.67627 0.0143854 7.34347 0.0751406C6.01343 0.135896 5.10516 0.347085 4.31044 0.655912C3.48878 0.975298 2.792 1.40242 2.09722 2.09705C1.40258 2.79168 0.975304 3.48861 0.656069 4.31026C0.347088 5.10513 0.135897 6.01339 0.0751411 7.34343C0.0143855 8.67622 0 9.10166 0 12.4951C0 15.8885 0.0143855 16.3141 0.0751411 17.6467C0.135897 18.9768 0.347088 19.885 0.655916 20.6797C0.975304 21.5014 1.40243 22.1982 2.09706 22.893C2.7917 23.5876 3.48863 24.0149 4.31028 24.3341C5.10516 24.6429 6.01343 24.8543 7.34332 24.9149C8.67612 24.9756 9.10156 24.99 12.495 24.99C15.8884 24.99 16.314 24.9756 17.6467 24.9149C18.9767 24.8541 19.885 24.6429 20.6797 24.3341C21.5014 24.0147 22.1981 23.5876 22.8929 22.893C23.5876 22.1983 24.0148 21.5014 24.3341 20.6797C24.6429 19.8849 24.8543 18.9766 24.9149 17.6467C24.9756 16.3139 24.99 15.8885 24.99 12.4951C24.99 9.10166 24.9756 8.67607 24.9149 7.34328C24.8541 6.01324 24.6429 5.10497 24.3341 4.31026C24.0147 3.48861 23.5876 2.79183 22.8929 2.09705C22.1983 1.40242 21.5014 0.975145 20.6797 0.655912C19.8848 0.347085 18.9766 0.135743 17.6467 0.0751406C16.3142 0.0143854 15.8887 0 12.4952 0Z" fill="#00549A"/>
<path d="M12.5044 6.06445C8.9607 6.06445 6.08789 8.93725 6.08789 12.4809C6.08789 16.0247 8.9607 18.8974 12.5044 18.8974C16.0482 18.8974 18.921 16.0247 18.921 12.4809C18.921 8.93709 16.0482 6.06445 12.5044 6.06445ZM12.5044 16.6458C10.2041 16.6458 8.33937 14.7811 8.33937 12.4808C8.33937 10.1805 10.2041 8.31577 12.5044 8.31577C14.8047 8.31577 16.6695 10.1805 16.6695 12.4808C16.6696 14.7811 14.8047 16.6458 12.5044 16.6458Z" fill="#00549A"/>
<path d="M20.2277 6.88057C20.8132 6.29501 20.8132 5.34562 20.2277 4.76005C19.6421 4.17449 18.6927 4.17449 18.1071 4.76005C17.5216 5.34562 17.5216 6.29501 18.1071 6.88057C18.6927 7.46614 19.6421 7.46614 20.2277 6.88057Z" fill="#00549A"/>
</svg>
