<svg width="30" height="30" viewBox="0 0 30 30" fill="none" xmlns="http://www.w3.org/2000/svg">
<g clip-path="url(#clip0_134_181)">
<path d="M3.99856 0.0214844C1.7954 0.0214844 0.00161311 1.81492 0 4.01982C0 6.22471 1.79378 8.0185 3.99856 8.0185C6.20254 8.0185 7.9954 6.22471 7.9954 4.01982C7.9954 1.81515 6.20242 0.0214844 3.99856 0.0214844Z" fill="#00549A"/>
<path d="M6.9995 9.625H0.997099C0.711578 9.625 0.47998 9.85648 0.47998 10.1422V29.4622C0.47998 29.7478 0.711578 29.9793 0.997099 29.9793H6.99938C7.28502 29.9793 7.51661 29.7477 7.51661 29.4622V10.1422C7.51673 9.85637 7.28513 9.625 6.9995 9.625Z" fill="#00549A"/>
<path d="M22.3444 9.39746C20.1478 9.39746 18.2175 10.0663 17.0396 11.157V10.1421C17.0396 9.85639 16.808 9.62491 16.5223 9.62491H10.7645C10.4789 9.62491 10.2473 9.85639 10.2473 10.1421V29.4621C10.2473 29.7477 10.4789 29.9792 10.7645 29.9792H16.7612C17.0468 29.9792 17.2784 29.7476 17.2784 29.4621V19.9036C17.2784 17.161 17.7829 15.4612 20.3004 15.4612C22.7806 15.4642 22.9663 17.287 22.9663 20.0674V29.4621C22.9663 29.7477 23.1979 29.9792 23.4836 29.9792H29.483C29.7685 29.9792 30.0001 29.7476 30.0001 29.4621V18.8643C30 14.4566 29.1299 9.39746 22.3444 9.39746Z" fill="#00549A"/>
</g>
<defs>
<clipPath id="clip0_134_181">
<rect width="30" height="30" fill="white"/>
</clipPath>
</defs>
</svg>
