<svg width="30" height="30" viewBox="0 0 30 30" fill="none" xmlns="http://www.w3.org/2000/svg">
<path d="M14.2734 6C11.3657 6 9 8.36566 9 11.2734C9 14.1626 11.3272 16.5469 14.2734 16.5469C17.256 16.5469 19.5469 14.1309 19.5469 11.2734C19.5469 8.36566 17.1812 6 14.2734 6ZM14.2734 14.8008C12.3248 14.8008 10.7461 13.2168 10.7461 11.2734C10.7461 9.33492 12.3349 7.74609 14.2734 7.74609C16.212 7.74609 17.7949 9.33492 17.7949 11.2734C17.7949 13.1885 16.253 14.8008 14.2734 14.8008Z" fill="white"/>
<path d="M14.5469 0C8.73133 0 4 4.73133 4 10.5469C4 12.5118 4.54428 14.4293 5.57436 16.0929L13.9465 29.5845C14.1069 29.843 14.3894 30 14.6933 30C14.6956 30 14.6979 30 14.7003 30C15.0068 29.9976 15.2899 29.8357 15.4473 29.5727L23.6061 15.9504C24.5794 14.322 25.0938 12.4535 25.0938 10.5469C25.0938 4.73133 20.3624 0 14.5469 0ZM22.0976 15.0479L14.68 27.4328L7.06838 15.1668C6.21098 13.7821 5.74609 12.1846 5.74609 10.5469C5.74609 5.70059 9.70059 1.74609 14.5469 1.74609C19.3932 1.74609 23.3418 5.70059 23.3418 10.5469C23.3418 12.136 22.9076 13.6927 22.0976 15.0479Z" fill="white"/>
</svg>
