<svg width="102" height="102" viewBox="0 0 102 102" fill="none" xmlns="http://www.w3.org/2000/svg">
<circle cx="51" cy="51" r="51" fill="#00549A"/>
<path d="M73.4375 25.875H26.5625C23.9778 25.875 21.875 27.9778 21.875 30.5625V64.3125C21.875 66.8972 23.9778 69 26.5625 69H43.115L40.865 76.5H36.875C36.3566 76.5 35.9375 76.92 35.9375 77.4375C35.9375 80.0222 38.0403 82.125 40.625 82.125H59.375C61.9597 82.125 64.0625 80.0222 64.0625 77.4375C64.0625 76.92 63.6434 76.5 63.125 76.5H59.135L56.885 69H73.4375C76.0222 69 78.125 66.8972 78.125 64.3125V30.5625C78.125 27.9778 76.0222 25.875 73.4375 25.875ZM26.5625 27.75H73.4375C74.9881 27.75 76.25 29.0119 76.25 30.5625V59.625H23.75V48.375H37.8125V49.3125C37.8125 50.8631 39.0744 52.125 40.625 52.125H58.5125C58.97 55.3003 61.7009 57.75 65 57.75C68.6178 57.75 71.5625 54.8062 71.5625 51.1875C71.5625 47.8884 69.1119 45.1575 65.9375 44.7V36.1875C65.9375 34.6369 64.6756 33.375 63.125 33.375H46.4713L39.1691 29.7234C38.9591 29.6194 38.7181 29.595 38.4922 29.6606L32.0562 31.5H23.75V30.5625C23.75 29.0119 25.0119 27.75 26.5625 27.75ZM58.5125 50.25H40.625C40.1075 50.25 39.6875 49.8291 39.6875 49.3125V48.375H42.9688C44.7781 48.375 46.25 46.9031 46.25 45.0938C46.25 44.5884 46.1253 44.115 45.9209 43.6875H64.0625V44.7C61.1947 45.1134 58.9259 47.3822 58.5125 50.25ZM39.6875 39.9375H64.0625V41.8125H39.6875V39.9375ZM65 46.5C67.5847 46.5 69.6875 48.6028 69.6875 51.1875C69.6875 53.7722 67.5847 55.875 65 55.875C62.4153 55.875 60.3125 53.7722 60.3125 51.1875C60.3125 48.6028 62.4153 46.5 65 46.5ZM64.0625 38.0625H39.6875V36.1875C39.6875 35.6709 40.1075 35.25 40.625 35.25H63.125C63.6425 35.25 64.0625 35.6709 64.0625 36.1875V38.0625ZM40.625 33.375C39.0744 33.375 37.8125 34.6369 37.8125 36.1875V41.8125H35.9375V43.6875H38.75H42.9688C43.7441 43.6875 44.375 44.3184 44.375 45.0938C44.375 45.8691 43.7441 46.5 42.9688 46.5H23.75V33.375H32.1875C32.2747 33.375 32.3619 33.3628 32.4444 33.3384L38.6562 31.5637L42.2787 33.375H40.625ZM59.375 80.25H40.625C39.4025 80.25 38.36 79.4663 37.9728 78.375H62.0272C61.64 79.4663 60.5975 80.25 59.375 80.25ZM57.1775 76.5H42.8225L45.0725 69H54.9275L57.1775 76.5ZM73.4375 67.125H26.5625C25.0119 67.125 23.75 65.8631 23.75 64.3125V61.5H76.25V64.3125C76.25 65.8631 74.9881 67.125 73.4375 67.125Z" fill="white"/>
<path d="M64.0625 54.0002C64.3025 54.0002 64.5425 53.9083 64.7253 53.7255L68.4753 49.9755L67.1497 48.6499L64.0625 51.7371L62.8503 50.5249L61.5247 51.8505L63.3997 53.7255C63.5825 53.9083 63.8225 54.0002 64.0625 54.0002Z" fill="white"/>
<path d="M47.1875 45.5625H49.0625V47.4375H47.1875V45.5625Z" fill="white"/>
<path d="M50.9375 45.5625H52.8125V47.4375H50.9375V45.5625Z" fill="white"/>
<path d="M54.6875 45.5625H56.5625V47.4375H54.6875V45.5625Z" fill="white"/>
</svg>
