<svg width="25" height="30" viewBox="0 0 25 30" fill="none" xmlns="http://www.w3.org/2000/svg">
<path d="M2.99695 16.679C4.96676 20.3619 7.69625 23.6212 11.1054 26.3785C12.4075 27.4149 14.1757 28.7128 16.3452 29.5048C16.4805 29.5515 16.6098 29.5964 16.7465 29.6381C18.227 30.0899 19.5461 30.0266 20.7829 29.4454C20.7904 29.4423 20.8053 29.436 20.8143 29.4279C21.2649 29.1863 21.7526 28.9939 22.2642 28.7871C22.6116 28.6494 22.9681 28.5036 23.3142 28.3493C24.9163 27.6358 25.3426 26.2386 24.3894 24.7832L21.7248 20.715C21.2786 20.0047 20.6379 19.5059 19.8768 19.2737C19.1158 19.0414 18.2998 19.0957 17.5167 19.4255L14.8469 20.5497C14.6794 20.3957 14.503 20.2498 14.3369 20.1124C14.1293 19.9408 13.9381 19.7795 13.7736 19.6156C12.1483 17.9985 10.7966 16.1236 9.63867 13.8909C9.06211 12.7346 8.72115 11.8073 8.55715 10.9178C9.24456 10.6672 9.90234 10.3859 10.5393 10.109C10.7645 10.0099 10.9957 9.91253 11.2269 9.81518C12.0323 9.47602 12.5662 8.96192 12.7582 8.33267C12.9502 7.70342 12.8003 6.98066 12.3155 6.24779L10.9943 4.2306C10.8391 3.99368 10.6943 3.76535 10.5451 3.53024C10.2555 3.07357 9.95105 2.60155 9.642 2.16603C9.18231 1.47872 8.54302 0.996583 7.78198 0.764343C7.02688 0.533917 6.22138 0.575163 5.43097 0.886405L2.64182 2.06089C1.62758 2.48798 0.920286 3.1658 0.536367 4.08311C0.0620366 5.23282 -0.0603978 6.57115 0.153229 8.29908C0.475527 10.9701 1.3784 13.6341 2.99695 16.679ZM1.95535 4.62987C2.2278 3.99267 2.69885 3.53523 3.41479 3.23376L6.18903 2.06555C6.61854 1.89332 7.04291 1.86576 7.41154 1.97825C7.77423 2.08892 8.09901 2.3451 8.35022 2.73589C8.65483 3.16465 8.93113 3.60101 9.23111 4.06626C9.38034 4.30137 9.53552 4.53828 9.68919 4.78016L11.0104 6.79735C11.2853 7.21703 11.3803 7.58724 11.2866 7.89443C11.1928 8.20162 10.9073 8.45571 10.4449 8.65041C10.2138 8.74776 9.98106 8.85006 9.74987 8.94741C9.0548 9.24442 8.40296 9.52754 7.70366 9.77451C7.68874 9.78079 7.68129 9.78393 7.66637 9.79021C7.04739 10.0509 7.00523 10.4659 7.03343 10.7994C7.03484 10.8161 7.03776 10.8278 7.03917 10.8445C7.21727 11.9008 7.58735 12.967 8.26275 14.3105C9.48702 16.6881 10.9319 18.6834 12.6668 20.4098C12.8802 20.6265 13.1204 20.819 13.3428 21.006C13.5504 21.1777 13.7417 21.339 13.9061 21.5029C13.9269 21.5201 13.9417 21.5354 13.9624 21.5526C14.1329 21.6967 14.3111 21.7944 14.5014 21.8524C14.977 21.9976 15.3633 21.8393 15.4901 21.7859L18.2792 20.6114C18.7118 20.4292 19.1332 20.39 19.5019 20.5024C19.9537 20.6403 20.2513 20.9857 20.4197 21.2646L23.0947 25.3414C23.6267 26.1537 23.4242 26.7959 22.5068 27.2038C22.1891 27.3506 21.8625 27.4838 21.515 27.6215C20.996 27.8314 20.4561 28.0458 19.9442 28.3175C19.073 28.7232 18.1707 28.762 17.1184 28.4409C17.0173 28.41 16.9118 28.3724 16.8122 28.3366C14.8938 27.6374 13.2739 26.4499 12.0772 25.4943C8.83406 22.8744 6.23335 19.7681 4.35947 16.2607C2.82062 13.3593 1.96027 10.8328 1.65066 8.31192C1.45405 6.76249 1.55632 5.59674 1.95535 4.62987Z" fill="white"/>
</svg>
