<svg width="100" height="100" viewBox="0 0 100 100" fill="none" xmlns="http://www.w3.org/2000/svg">
<path d="M98.2285 42.8398C97.1917 41.2742 95.62 40.1954 93.7928 39.7865C94.9715 37.532 94.9235 34.719 93.422 32.4523C92.3539 30.8387 90.7426 29.7965 88.9886 29.4021C89.3014 28.8055 89.5325 28.1616 89.6706 27.4826C90.0536 25.5943 89.6798 23.6701 88.6155 22.0642C87.5787 20.4978 86.007 19.419 84.1797 19.0109C85.3585 16.7564 85.3104 13.9434 83.809 11.676C81.614 8.36099 77.1294 7.44927 73.8137 9.64502L66.6344 14.3997C62.8075 12.4587 58.7372 11.0816 54.5128 10.2973C53.1777 8.2702 51.6251 6.38574 49.8871 4.70116L46.917 1.82259C44.7419 -0.286174 41.3307 -0.602794 38.8054 1.07033C35.8177 3.04864 34.9968 7.08917 36.9751 10.0768C37.0529 10.1951 37.1292 10.3141 37.2048 10.4331C27.4689 12.403 18.5959 17.5697 12.0285 25.1403C4.90189 33.3564 0.976562 43.8789 0.976562 54.7691C0.976562 56.8565 1.11923 58.9477 1.40152 60.9832C3.57666 76.8074 14.1174 90.4442 28.9093 96.5729C34.3949 98.8464 40.2153 100 46.2067 100C55.6954 100 64.7782 97.094 72.474 91.597C80.0027 86.2182 85.6354 78.7956 88.7643 70.1317C89.0565 69.3245 88.6376 68.4326 87.8304 68.1412C87.0225 67.8497 86.1314 68.2678 85.8399 69.0758C82.9262 77.1438 77.6795 84.0561 70.6658 89.0663C63.501 94.1849 55.0431 96.8903 46.2067 96.8903C41.6382 96.8903 37.1773 96.1693 32.9079 94.7472L45.559 86.3693C45.5597 86.3685 45.5605 86.3685 45.5613 86.3678C45.562 86.3678 45.562 86.367 45.5628 86.3663L56.0769 79.4037H56.0776C57.0214 78.7781 57.6661 77.8229 57.8919 76.7128C58.1177 75.6027 57.898 74.4705 57.2724 73.5267L57.1335 73.3162L59.1759 71.9635C60.6331 70.9984 62.3856 70.6199 64.1114 70.8969C66.61 71.2982 69.1475 70.7489 71.2563 69.3519L88.1966 58.1337C88.0807 59.6031 87.8899 61.0641 87.6237 62.5007C87.4665 63.3453 88.0242 64.1571 88.8688 64.3135C88.9641 64.3318 89.0603 64.3402 89.1541 64.3402C89.8888 64.3402 90.5419 63.8168 90.6808 63.0684C91.1118 60.7498 91.3598 58.3748 91.4239 55.9967L96.1976 52.835C97.8036 51.7715 98.8999 50.1457 99.2829 48.2582C99.6667 46.3699 99.2921 44.4458 98.2285 42.8398ZM63.6155 16.3986L58.8646 19.5449L57.9293 17.0249C57.5386 15.9736 57.0908 14.9429 56.5949 13.9343C59.005 14.5454 61.3518 15.3694 63.6155 16.3986ZM14.3776 27.1781C20.6894 19.902 29.287 15.0108 38.6925 13.3148C40.2016 16.9708 40.5632 21.0555 39.6614 24.9488L35.8704 41.3269C35.2745 40.6906 34.5009 40.2519 33.6296 40.0749C32.5188 39.8483 31.3874 40.0688 30.4436 40.6944L19.7052 47.805C19.7045 47.805 19.7045 47.805 19.7037 47.8057C19.7037 47.8057 19.7029 47.8057 19.7029 47.8065L4.21524 58.0627C4.13056 56.9702 4.08631 55.8693 4.08631 54.7691C4.08631 44.6281 7.74155 34.8289 14.3776 27.1781ZM54.8447 76.0925C54.7844 76.3885 54.612 76.6441 54.3595 76.8112H54.3602L45.1256 82.9262L27.9862 57.3654C27.5078 56.652 26.5419 56.4621 25.8286 56.9404C25.116 57.4188 24.9253 58.3839 25.4036 59.0973L42.5324 84.6435L29.3495 93.3739C16.2499 87.6442 6.87562 75.544 4.62189 61.4639L20.1279 51.2291L21.9124 53.8917C22.213 54.3388 22.7043 54.5807 23.2056 54.5807C23.5031 54.5807 23.8045 54.496 24.07 54.3174C24.7833 53.8391 24.9741 52.8732 24.4957 52.1598L22.7234 49.5163L32.161 43.2869C32.412 43.1198 32.7133 43.0618 33.0094 43.1221C33.3054 43.1823 33.561 43.3548 33.7281 43.6065L54.6799 75.2441C54.8462 75.4951 54.905 75.7965 54.8447 76.0925ZM96.2357 47.6387C96.0175 48.7129 95.3942 49.6376 94.4802 50.2426L89.0229 53.8566C89.0214 53.8574 89.0198 53.8589 89.0176 53.8597L69.5389 66.7595C68.0817 67.7246 66.3292 68.1038 64.6035 67.8261C62.1056 67.4255 59.5681 67.9741 57.4585 69.371L55.4161 70.7237L38.2561 44.812L42.6918 25.6507C43.834 20.7145 43.232 15.5151 41.0561 10.9855C41.0363 10.9382 41.0149 10.8924 40.9905 10.8474C40.5724 9.99139 40.0978 9.16055 39.5676 8.35946C38.5361 6.80154 38.9641 4.69506 40.5228 3.6628C41.8396 2.79076 43.6188 2.95556 44.7525 4.05495L47.7227 6.93429C50.9354 10.0494 53.4569 13.9129 55.0133 18.1075L56.6307 22.4647C56.6338 22.4731 56.6369 22.48 56.6399 22.4876C56.6437 22.4975 56.6483 22.5082 56.6521 22.5181C56.6636 22.5448 56.6742 22.5692 56.6857 22.5898C56.717 22.6554 56.7513 22.7203 56.7925 22.7821C57.267 23.4985 58.2314 23.6946 58.947 23.22L75.5311 12.2382C77.4171 10.9893 79.9676 11.5074 81.2165 13.3933C82.4654 15.2793 81.9474 17.8298 80.0614 19.0788L78.6217 20.0324C78.6217 20.0324 78.621 20.0324 78.6202 20.0332L75.409 22.1603C75.4044 22.1633 75.4014 22.1664 75.3968 22.1687C75.3785 22.1816 75.3609 22.1939 75.3464 22.2061C74.6827 22.6936 74.511 23.6206 74.9711 24.3148C75.4448 25.0312 76.41 25.2273 77.1264 24.7528L80.3399 22.6242C81.2531 22.0207 82.3464 21.8078 83.4199 22.026C84.4933 22.2442 85.4188 22.8675 86.023 23.7815C86.628 24.6948 86.8417 25.7896 86.6235 26.863C86.4053 27.9373 85.7819 28.8619 84.8679 29.467L80.2155 32.5485C79.4991 33.0223 79.303 33.9866 79.7776 34.703C80.0767 35.1547 80.571 35.3996 81.0753 35.3996C81.3698 35.3996 81.6682 35.3157 81.9321 35.1409L82.6523 34.6641L85.1441 33.0139C87.0309 31.7649 89.5806 32.283 90.8295 34.169C92.0785 36.0557 91.5604 38.6055 89.6744 39.8551L87.3505 41.394C87.3383 41.4016 87.3261 41.41 87.3139 41.4184L85.022 42.9359C84.3056 43.4097 84.1096 44.3748 84.5841 45.0912C84.8832 45.5429 85.3776 45.7878 85.8819 45.7878C86.1764 45.7878 86.4747 45.7038 86.7387 45.5291L87.4589 45.0523C87.4589 45.0523 87.4589 45.0515 87.4596 45.0515L89.9514 43.4021C90.8646 42.797 91.9587 42.5834 93.0329 42.8024C94.1071 43.0198 95.0318 43.6439 95.6368 44.5571C96.2411 45.4704 96.4539 46.5652 96.2357 47.6387Z" fill="white"/>
</svg>
