<svg width="102" height="102" viewBox="0 0 102 102" fill="none" xmlns="http://www.w3.org/2000/svg">
<circle cx="51" cy="51" r="51" fill="#00549A"/>
<path d="M81.4863 73.3134H18.5137C17.1771 73.3134 16.0938 72.23 16.0938 70.8934V32.1211C16.0938 30.7845 17.1771 29.7012 18.5137 29.7012H81.4863C82.8229 29.7012 83.9062 30.7845 83.9062 32.1211V70.8934C83.9062 72.23 82.8229 73.3134 81.4863 73.3134Z" fill="#003B7D"/>
<path d="M81.4863 29.7012H78.752C80.0885 29.7012 81.1719 30.7845 81.1719 32.1211V70.8934C81.1719 72.23 80.0885 73.3134 78.752 73.3134H81.4863C82.8229 73.3134 83.9063 72.23 83.9063 70.8934V32.1211C83.9063 30.7845 82.8229 29.7012 81.4863 29.7012Z" fill="#D6D1CF"/>
<path d="M18.5137 73.3134H21.248C19.9115 73.3134 18.8281 72.23 18.8281 70.8934V32.1211C18.8281 30.7845 19.9115 29.7012 21.248 29.7012H18.5137C17.1771 29.7012 16.0938 30.7845 16.0938 32.1211V70.8934C16.0938 72.23 17.1771 73.3134 18.5137 73.3134Z" fill="white"/>
<path d="M72.1214 82.2985H27.8787V79.0571C27.8787 77.7206 28.962 76.6372 30.2986 76.6372H69.7015C71.038 76.6372 72.1214 77.7206 72.1214 79.0571V82.2985Z" fill="#526FAA"/>
<path d="M69.7014 76.6372H66.967C68.3036 76.6372 69.387 77.7206 69.387 79.0571V82.2987H72.1213V79.0571C72.1213 77.7206 71.038 76.6372 69.7014 76.6372Z" fill="#34518C"/>
<path d="M30.2986 76.6372H33.033C31.6964 76.6372 30.613 77.7206 30.613 79.0571V82.2987H27.8787V79.0571C27.8787 77.7206 28.962 76.6372 30.2986 76.6372Z" fill="#708DC8"/>
<path d="M37.0126 73.3135H62.9872V76.6374H37.0126V73.3135Z" fill="#34518C"/>
<path d="M18.2812 39.874C17.9794 39.874 17.7344 39.629 17.7344 39.3271V36.0459C17.7344 35.744 17.9794 35.499 18.2812 35.499C18.5831 35.499 18.8281 35.744 18.8281 36.0459V39.3271C18.8281 39.629 18.5831 39.874 18.2812 39.874Z" fill="white"/>
<path d="M72.1214 82.8453H27.8787C27.5768 82.8453 27.3318 82.6003 27.3318 82.2985V79.0571C27.3318 77.4212 28.6626 76.0903 30.2986 76.0903H69.7015C71.3374 76.0903 72.6683 77.4212 72.6683 79.0571V82.2985C72.6683 82.6006 72.4233 82.8453 72.1214 82.8453ZM28.4255 81.7516H71.5745V79.0571C71.5745 78.0244 70.7342 77.1841 69.7015 77.1841H30.2986C29.2658 77.1841 28.4255 78.0244 28.4255 79.0571V81.7516Z" fill="white"/>
<path d="M62.9875 77.184H37.0126C36.7107 77.184 36.4657 76.939 36.4657 76.6371V73.3135C36.4657 73.0116 36.7107 72.7666 37.0126 72.7666H62.9872C63.2891 72.7666 63.5341 73.0116 63.5341 73.3135V76.6371C63.5344 76.939 63.2894 77.184 62.9875 77.184ZM37.5594 76.0902H62.4403V73.8604H37.5594V76.0902Z" fill="white"/>
<path d="M81.4863 73.8602H18.5137C16.8777 73.8602 15.5469 72.5294 15.5469 70.8934V32.1211C15.5469 30.4851 16.8777 29.1543 18.5137 29.1543H81.4863C83.1223 29.1543 84.4531 30.4851 84.4531 32.1211V70.8934C84.4531 72.5294 83.1223 73.8602 81.4863 73.8602ZM18.5137 30.248C17.4809 30.248 16.6406 31.0883 16.6406 32.1211V70.8934C16.6406 71.9262 17.4809 72.7665 18.5137 72.7665H81.4863C82.5191 72.7665 83.3594 71.9262 83.3594 70.8934V32.1211C83.3594 31.0883 82.5191 30.248 81.4863 30.248H18.5137Z" fill="white"/>
<path d="M61.3001 65.3278H38.6999C31.0669 65.3278 24.8793 59.1402 24.8793 51.5071C24.8793 43.8744 31.0669 37.6865 38.6999 37.6865H61.3003C68.9333 37.6865 75.121 43.8741 75.121 51.5071C75.1207 59.1402 68.9331 65.3278 61.3001 65.3278Z" fill="#003B7D"/>
<path d="M61.3 37.6865H58.8391C66.4721 37.6865 72.6597 43.8741 72.6597 51.5071C72.6597 59.1402 66.4721 65.3278 58.8391 65.3278H61.3C68.9331 65.3278 75.1207 59.1402 75.1207 51.5071C75.1207 43.8741 68.9331 37.6865 61.3 37.6865Z" fill="#6A348A"/>
<path d="M38.6999 65.3278H41.1608C33.5278 65.3278 27.3402 59.1402 27.3402 51.5071C27.3402 43.8744 33.5278 37.6865 41.1608 37.6865H38.6999C31.0669 37.6865 24.8793 43.8741 24.8793 51.5071C24.8793 59.1402 31.0669 65.3278 38.6999 65.3278Z" fill="#A670C6"/>
<path d="M61.3001 65.8749H38.6999C30.7776 65.8749 24.3324 59.4297 24.3324 51.5076C24.3324 43.5853 30.7776 37.1401 38.6999 37.1401H61.3001C69.2224 37.1401 75.6676 43.5853 75.6676 51.5076C75.6676 59.4299 69.2224 65.8749 61.3001 65.8749ZM38.6999 38.2336C31.3808 38.2336 25.4261 44.1883 25.4261 51.5074C25.4261 58.8265 31.3808 64.7811 38.6999 64.7811H61.3001C68.6192 64.7811 74.5738 58.8267 74.5738 51.5076C74.5738 44.1883 68.6192 38.2339 61.3001 38.2339L38.6999 38.2336Z" fill="white"/>
<path d="M74.2695 60.4021L70.9133 60.1139L67.5569 59.8257L67.8451 63.1821L68.1333 66.5383L69.9651 64.7065L74.9028 69.644L77.3752 67.1716L72.4375 62.2341L74.2695 60.4021Z" fill="#526FAA"/>
<path d="M74.9027 70.1907C74.7627 70.1907 74.6227 70.1374 74.5161 70.0305L69.9653 65.4797L68.5199 66.9248C68.37 67.0755 68.1461 67.125 67.9457 67.052C67.7458 66.9789 67.6063 66.7968 67.5883 66.5849L67.0119 59.8723C66.9982 59.7115 67.0559 59.5529 67.1702 59.4389C67.2842 59.3249 67.4423 59.2677 67.6036 59.2806L74.3162 59.857C74.5281 59.875 74.7102 60.0145 74.7832 60.2144C74.8562 60.4143 74.8065 60.6382 74.6561 60.7886L73.2107 62.234L77.7615 66.7848C77.8641 66.8873 77.9217 67.0265 77.9217 67.1714C77.9217 67.3164 77.8641 67.4556 77.7615 67.5581L75.2891 70.0305C75.1827 70.1374 75.0425 70.1907 74.9027 70.1907ZM69.9653 64.1595C70.1053 64.1595 70.2453 64.2129 70.3519 64.3198L74.9027 68.8706L76.6016 67.1717L72.0508 62.6209C71.9482 62.5184 71.8905 62.3792 71.8905 62.2343C71.8905 62.0893 71.9482 61.9502 72.0508 61.8476L73.0518 60.8466L68.1573 60.4263L68.5776 65.3208L69.5786 64.32C69.6853 64.2129 69.8253 64.1595 69.9653 64.1595Z" fill="white"/>
<path d="M37.6494 53.3539H35.2869V57.5219C35.2869 58.0981 34.8067 58.5782 34.2112 58.5782C33.6351 58.5782 33.1549 58.0983 33.1549 57.5219V46.1896C33.1549 45.594 33.6351 45.1333 34.2112 45.1333H34.2303H37.6491C39.9348 45.1333 41.7786 46.9771 41.7786 49.2628C41.7791 51.5101 39.9351 53.3539 37.6494 53.3539ZM35.2869 51.2217H37.6494C38.7634 51.2217 39.6277 50.3382 39.6469 49.2628C39.6274 48.1488 38.7634 47.265 37.6494 47.265H35.2869V51.2217Z" fill="white"/>
<path d="M48.8458 53.3539H46.4833V57.5219C46.4833 58.0981 46.0032 58.5782 45.4076 58.5782C44.8315 58.5782 44.3513 58.0983 44.3513 57.5219V46.1896C44.3513 45.594 44.8315 45.1333 45.4076 45.1333H45.4267H48.8455C51.1312 45.1333 52.975 46.9771 52.975 49.2628C52.9753 51.5101 51.1315 53.3539 48.8458 53.3539ZM46.4833 51.2217H48.8458C49.9598 51.2217 50.8241 50.3382 50.8433 49.2628C50.8241 48.1488 49.9598 47.265 48.8458 47.265H46.4833V51.2217Z" fill="white"/>
<path d="M54.9523 51.6634C54.9717 47.8605 58.16 44.7682 62.0012 44.749C63.6913 44.749 65.2281 45.306 66.438 46.2472C66.899 46.6311 66.9759 47.3035 66.6302 47.7836C66.2461 48.2638 65.5354 48.3406 65.0935 47.995C64.2486 47.3035 63.192 46.9384 62.0012 46.9384C60.6759 46.9384 59.4465 47.4766 58.5439 48.3215C57.6795 49.205 57.1417 50.3575 57.1417 51.6634C57.1417 52.9694 57.6795 54.1605 58.5439 55.0054C59.4465 55.8506 60.6759 56.3884 62.0012 56.3884C63.192 56.3884 64.2292 56.0234 65.0935 55.3319C65.5354 55.0054 66.2461 55.0825 66.6302 55.543C66.9759 56.0231 66.899 56.7147 66.438 57.0797C65.2281 58.0206 63.6913 58.5776 62.0012 58.5776C58.16 58.5779 54.9717 55.4855 54.9523 51.6634Z" fill="white"/>
<path d="M71.8955 46.9145C75.7689 46.9145 78.9089 43.7745 78.9089 39.9011C78.9089 36.0277 75.7689 32.8877 71.8955 32.8877C68.0221 32.8877 64.8821 36.0277 64.8821 39.9011C64.8821 43.7745 68.0221 46.9145 71.8955 46.9145Z" fill="#FCC24C"/>
<path d="M71.8955 32.8877C71.671 32.8877 71.4495 32.8995 71.2305 32.92C74.7917 33.2552 77.5789 36.2521 77.5789 39.9011C77.5789 43.5501 74.7917 46.547 71.2305 46.8822C71.4495 46.9027 71.6712 46.9145 71.8955 46.9145C75.769 46.9145 78.9089 43.7746 78.9089 39.9011C78.9089 36.0279 75.769 32.8877 71.8955 32.8877Z" fill="#DEA42E"/>
<path d="M71.8955 46.915C72.12 46.915 72.3415 46.9032 72.5605 46.8827C68.9992 46.5475 66.2121 43.5506 66.2121 39.9016C66.2121 36.2526 68.9992 33.2557 72.5605 32.9204C72.3415 32.8999 72.1197 32.8882 71.8955 32.8882C68.022 32.8882 64.8821 36.0283 64.8821 39.9016C64.8821 43.7748 68.022 46.915 71.8955 46.915Z" fill="#FCE06A"/>
<path d="M71.8955 47.4614C67.7267 47.4614 64.3352 44.0699 64.3352 39.9011C64.3352 35.7323 67.7267 32.3408 71.8955 32.3408C76.0643 32.3408 79.4558 35.7323 79.4558 39.9011C79.4558 44.0699 76.0643 47.4614 71.8955 47.4614ZM71.8955 33.4346C68.3299 33.4346 65.429 36.3355 65.429 39.9011C65.429 43.4667 68.3299 46.3676 71.8955 46.3676C75.4614 46.3676 78.362 43.4667 78.362 39.9011C78.362 36.3355 75.4611 33.4346 71.8955 33.4346Z" fill="white"/>
<path d="M71.8876 35.6997C72.126 35.6997 72.3147 35.8884 72.3147 36.1268V36.3453C72.9007 36.4147 73.3972 36.6037 73.8541 36.8916C74.0133 36.981 74.1522 37.1301 74.1522 37.3682C74.1522 37.6761 73.9039 37.9146 73.596 37.9146C73.4968 37.9146 73.3975 37.8847 73.2982 37.8251C72.9507 37.6165 72.6127 37.4678 72.2753 37.3882V39.2951C73.785 39.6728 74.4305 40.2784 74.4305 41.3413C74.4305 42.4339 73.5763 43.1588 72.315 43.278V43.8741C72.315 44.1126 72.1263 44.3012 71.8878 44.3012C71.6494 44.3012 71.4506 44.1126 71.4506 43.8741V43.2583C70.7058 43.1788 70.0205 42.9108 69.4146 42.4837C69.2456 42.3746 69.1464 42.2154 69.1464 42.0071C69.1464 41.6992 69.3848 41.4608 69.6927 41.4608C69.8119 41.4608 69.9309 41.5004 70.0205 41.5699C70.4873 41.9076 70.9442 42.1359 71.4905 42.2354V40.2787C70.0402 39.9013 69.3648 39.355 69.3648 38.2326C69.3648 37.1697 70.2092 36.4347 71.4506 36.3354V36.1268C71.4503 35.8887 71.6491 35.6997 71.8876 35.6997ZM71.4903 39.0868V37.3288C70.8545 37.3885 70.5368 37.7262 70.5368 38.1631C70.5368 38.5801 70.7255 38.8385 71.4903 39.0868ZM72.2748 40.4674V42.2751C72.9105 42.2056 73.258 41.8876 73.258 41.411C73.2583 40.9738 73.0396 40.7055 72.2748 40.4674Z" fill="white"/>
</svg>
