<svg width="659" height="798" viewBox="0 0 659 798" fill="none" xmlns="http://www.w3.org/2000/svg">
<g clip-path="url(#clip0_1550_641)">
<path opacity="0.15" d="M251.857 798C296.993 798 333.583 793.323 333.583 787.555C333.583 781.786 296.993 777.109 251.857 777.109C206.722 777.109 170.132 781.786 170.132 787.555C170.132 793.323 206.722 798 251.857 798Z" fill="black"/>
<path opacity="0.15" d="M356.436 732.328C523.537 732.328 659 720.968 659 706.956C659 692.943 523.537 681.583 356.436 681.583C189.334 681.583 53.8711 692.943 53.8711 706.956C53.8711 720.968 189.334 732.328 356.436 732.328Z" fill="black"/>
<path d="M570.869 495.752C570.838 498.035 570.766 500.317 570.653 502.598C569.848 518.131 567.304 533.525 563.069 548.49C562.378 550.938 561.645 553.387 560.868 555.836C556.262 570.247 550.273 584.179 542.986 597.435C541.684 599.819 540.341 602.181 538.956 604.52C530.176 619.346 519.851 633.198 508.153 645.843C506.209 647.949 504.222 650.017 502.192 652.046C486.896 667.423 469.583 680.6 450.839 690.734C447.491 692.546 444.099 694.256 440.66 695.863C436.713 697.724 432.708 699.444 428.642 701.023C423.498 703.016 415.29 706.565 408.348 706.533C406.203 706.587 404.075 706.136 402.135 705.215C401.747 705.017 401.371 704.793 401.012 704.545C391.126 697.768 396.284 672.818 398.064 662.698C398.699 659.071 399.431 655.476 400.26 651.913C401.244 647.591 402.366 643.305 403.625 639.057C407.516 626.003 412.422 613.275 418.298 600.989C419.673 598.073 421.099 595.18 422.567 592.306C422.617 592.201 422.672 592.104 422.723 591.999C429.256 579.373 436.432 567.092 444.222 555.202C445.671 552.962 447.144 550.727 448.642 548.499C453.622 541.051 458.766 533.728 463.975 526.515C465.837 523.944 467.7 521.382 469.564 518.829L473.778 513.076C481.825 502.056 489.849 491.11 497.447 479.806C498.785 477.816 500.108 475.817 501.413 473.809C503.449 470.687 505.436 467.533 507.374 464.346C511.959 456.834 516.337 449.194 520.359 441.361C521.581 439.001 522.764 436.624 523.908 434.231C524.653 432.669 525.385 431.101 526.104 429.524C527.667 426.09 534.66 412.467 538.025 402.568C538.274 401.817 538.733 401.154 539.347 400.657C539.961 400.16 540.705 399.85 541.49 399.763C542.275 399.677 543.068 399.817 543.775 400.169C544.483 400.52 545.075 401.068 545.481 401.746L545.531 401.824C553.489 414.754 559.674 428.698 563.917 443.28C564.544 445.454 565.13 447.633 565.674 449.819C569.375 464.842 571.121 480.281 570.869 495.752Z" fill="#0C88C9"/>
<path d="M527.122 513.328C541.703 507.478 556.281 501.624 570.855 495.765C570.825 498.049 570.753 500.331 570.64 502.611L523.789 521.436C517.211 536.652 509.61 551.403 501.037 565.588C503.5 565.069 505.967 564.541 508.429 563.986C513.686 562.801 518.926 561.537 524.147 560.193C537.263 556.826 550.233 552.934 563.056 548.517C562.365 550.966 561.632 553.414 560.855 555.863C557.798 556.889 554.742 557.882 551.685 558.843C540.509 562.36 529.227 565.493 517.838 568.242C512.238 569.598 506.616 570.859 500.973 572.025C499.598 572.305 498.062 572.769 496.558 572.879C489.061 584.817 481.01 596.401 472.591 607.614L471.89 608.532C495.665 605.281 519.369 601.591 543.001 597.462C541.699 599.847 540.355 602.208 538.97 604.547C514.871 608.697 490.698 612.387 466.452 615.617C458.199 626.177 449.638 636.522 441.591 647.229C463.762 645.986 485.954 645.541 508.168 645.893C506.223 647.999 504.237 650.067 502.207 652.096C480.388 651.882 458.574 652.437 436.768 653.763C431.685 660.758 427.004 668.037 422.746 675.563C420.811 679.025 418.991 682.542 417.244 686.096C419.592 686.597 422.026 686.877 424.383 687.253C433.168 688.649 441.981 689.826 450.821 690.784C447.474 692.596 444.081 694.306 440.642 695.913C433.275 694.994 425.927 693.906 418.597 692.648C417.166 692.405 415.795 692.189 414.539 691.826C412.323 696.684 410.253 701.609 408.33 706.602C406.185 706.655 404.057 706.204 402.118 705.284C404.346 699.503 406.735 693.805 409.325 688.162C408.97 687.539 408.688 686.877 408.486 686.188C406.836 680.531 405.703 674.668 404.328 668.942C402.961 663.289 401.599 657.635 400.242 651.981C401.226 647.659 402.348 643.374 403.608 639.125C405.674 647.72 407.744 656.316 409.816 664.911L413.392 679.741C415.768 675.07 418.314 670.479 421.031 665.967C424.149 660.838 427.487 655.866 430.958 650.985C426.734 634.333 422.511 617.683 418.289 601.034C419.665 598.119 421.091 595.226 422.558 592.352C426.957 609.692 431.357 627.037 435.759 644.387C443.893 633.496 452.577 622.986 460.977 612.293C455.759 593.164 450.168 574.15 444.205 555.248C445.654 553.007 447.127 550.773 448.625 548.544C454.723 567.611 460.436 586.801 465.764 606.112C467.479 603.881 469.16 601.637 470.808 599.381C477.873 589.739 484.637 579.913 490.982 569.812C490.645 569.137 490.351 568.44 490.102 567.728C484.065 551.106 477.193 534.8 469.51 518.874L473.724 513.121C477.141 520.07 480.4 527.095 483.499 534.196C487.656 543.728 491.516 553.385 495.077 563.168C501.391 552.723 507.25 542.015 512.5 531.028C514.224 527.428 515.881 523.787 517.471 520.105C510.978 506.587 504.279 493.176 497.374 479.87C498.713 477.88 500.035 475.881 501.34 473.873C507.979 486.601 514.434 499.428 520.703 512.354C526.293 498.431 530.757 484.081 534.051 469.442C533.713 469.181 533.439 468.846 533.248 468.464C528.932 459.456 524.616 450.443 520.3 441.425C521.522 439.065 522.705 436.688 523.849 434.294L536.018 459.695C539.539 440.286 540.759 420.529 539.076 400.896C539.529 400.486 540.066 400.181 540.651 400.002C541.235 399.824 541.851 399.777 542.455 399.865C543.06 399.952 543.637 400.173 544.147 400.51C544.657 400.847 545.086 401.292 545.403 401.814L545.454 401.892C546.921 420.887 545.793 440.048 542.556 458.868C549.791 453.885 556.886 448.712 563.84 443.349C564.467 445.522 565.052 447.702 565.596 449.887C557.551 456.009 549.322 461.895 540.91 467.546C537.641 483.176 533.028 498.494 527.122 513.328Z" fill="#00663E"/>
<path d="M611.819 581.282C611.135 582.813 610.424 584.343 609.687 585.874C604.624 596.215 598.418 605.954 591.186 614.91C589.997 616.385 588.783 617.843 587.545 619.281C580.224 627.75 572.103 635.491 563.295 642.395C561.711 643.641 560.109 644.865 558.489 646.068C548.2 653.608 537.141 660.035 525.499 665.242C523.564 666.111 521.613 666.942 519.644 667.735C504.871 673.752 489.298 677.575 473.421 679.081C470.615 679.341 467.809 679.517 465.003 679.609C461.769 679.725 458.541 679.725 455.319 679.609C451.238 679.466 444.617 679.489 439.894 677.46C438.419 676.872 437.101 675.946 436.048 674.755C435.841 674.506 435.649 674.243 435.475 673.97C430.715 666.472 441.476 650.985 445.631 644.617C447.116 642.33 448.66 640.094 450.262 637.909C452.187 635.255 454.194 632.67 456.282 630.154C462.727 622.399 469.768 615.163 477.341 608.51C479.121 606.926 480.936 605.374 482.77 603.84L482.967 603.679C491.085 596.986 499.54 590.715 508.3 584.891C509.939 583.786 511.591 582.693 513.257 581.613C518.814 577.995 524.445 574.51 530.089 571.116C532.1 569.892 534.113 568.689 536.128 567.508L540.667 564.817C549.347 559.675 557.994 554.546 566.454 549.059C567.945 548.101 569.427 547.126 570.897 546.134C573.189 544.604 575.462 543.036 577.715 541.433C583.02 537.654 588.224 533.723 593.236 529.568C594.764 528.316 596.26 527.041 597.724 525.743C598.687 524.899 599.646 524.045 600.59 523.181C602.653 521.299 611.374 514.058 616.528 508.296C616.873 507.907 617.312 507.613 617.803 507.442C618.23 507.295 618.684 507.244 619.134 507.292C619.583 507.341 620.015 507.488 620.401 507.724C620.787 507.959 621.116 508.277 621.365 508.655C621.614 509.032 621.777 509.46 621.842 509.907V509.976C623.502 521.1 623.656 532.398 622.301 543.563C622.099 545.225 621.865 546.88 621.599 548.526C619.763 559.821 616.476 570.831 611.819 581.282Z" fill="#014587"/>
<path d="M576.939 580.474L611.819 581.259C611.134 582.79 610.423 584.32 609.686 585.851L572.317 585.006C563.415 593.444 553.951 601.268 543.991 608.422C545.825 608.79 547.659 609.145 549.493 609.488C553.411 610.213 557.345 610.879 561.295 611.485C571.214 613.015 581.178 614.143 591.186 614.869C589.996 616.344 588.783 617.801 587.545 619.24C585.17 619.047 582.798 618.831 580.429 618.593C571.799 617.729 563.207 616.574 554.651 615.126C550.442 614.419 546.248 613.64 542.069 612.789C540.97 612.625 539.882 612.388 538.814 612.082C530.24 618.028 521.39 623.561 512.399 628.749L511.656 629.171C528.774 633.885 545.987 638.279 563.294 642.353C561.711 643.599 560.109 644.824 558.489 646.027C540.873 641.824 523.341 637.291 505.893 632.427C497.208 637.211 488.368 641.761 479.757 646.706C495.215 652.323 510.456 658.488 525.48 665.201C523.545 666.07 521.594 666.901 519.625 667.694C504.83 661.186 489.817 655.207 474.585 649.755C469.092 653.037 463.789 656.629 458.702 660.513C456.379 662.31 454.113 664.168 451.903 666.087C453.356 667.111 454.933 668.011 456.428 668.952C462.003 672.463 467.658 675.83 473.393 679.053C470.587 679.313 467.781 679.489 464.975 679.581C460.224 676.799 455.535 673.915 450.907 670.931C449.99 670.352 449.142 669.792 448.386 669.191C445.469 671.854 442.63 674.609 439.867 677.455C438.391 676.867 437.073 675.941 436.02 674.751C439.217 671.46 442.51 668.274 445.9 665.192C445.839 664.664 445.839 664.131 445.9 663.603C446.419 659.269 447.354 654.948 448.078 650.646C448.803 646.343 449.509 642.151 450.229 637.904C452.155 635.25 454.161 632.665 456.249 630.149C455.158 636.605 454.068 643.061 452.98 649.516L451.109 660.655C454.08 658.171 457.143 655.784 460.307 653.52C463.92 650.935 467.643 648.52 471.417 646.21C473.382 633.642 475.346 621.074 477.309 608.505C479.088 606.921 480.904 605.369 482.738 603.836L476.603 643.12C485.314 638.07 494.278 633.446 503.109 628.616C505.111 614.07 506.831 599.493 508.268 584.886C509.906 583.781 511.558 582.689 513.224 581.608C511.833 596.368 510.152 611.099 508.18 625.801C509.996 624.782 511.797 623.746 513.582 622.693C521.189 618.207 528.658 613.468 535.925 608.459C535.889 607.901 535.889 607.341 535.925 606.783C536.641 593.706 536.699 580.6 536.1 567.517L540.639 564.826C540.944 570.55 541.123 576.284 541.175 582.026C541.23 589.73 541.05 597.43 540.634 605.126C547.971 599.859 555.073 594.271 561.859 588.312C564.078 586.365 566.264 584.375 568.416 582.343C567.92 571.25 567.257 560.164 566.426 549.087C567.917 548.129 569.398 547.154 570.869 546.162C571.694 556.762 572.36 567.378 572.868 578.008C580.719 570.158 587.926 561.687 594.418 552.677C594.264 552.394 594.175 552.081 594.157 551.759C593.851 544.367 593.531 536.973 593.198 529.577C594.727 528.325 596.223 527.051 597.687 525.753C597.993 532.701 598.298 539.65 598.604 546.598C606.697 534.456 613.146 521.292 617.779 507.451C618.207 507.304 618.661 507.253 619.11 507.302C619.559 507.35 619.992 507.498 620.378 507.733C620.764 507.969 621.092 508.286 621.342 508.664C621.591 509.041 621.754 509.469 621.819 509.917V509.986C617.23 523.354 611.005 536.103 603.286 547.939C609.659 546.653 615.992 545.198 622.286 543.572C622.085 545.234 621.851 546.889 621.585 548.536C614.322 550.372 607.009 551.982 599.645 553.366C592.87 563.04 585.273 572.11 576.939 580.474Z" fill="#4C5C75"/>
<path d="M474.512 702.259H217.501C208.288 702.257 199.452 698.592 192.937 692.068C186.422 685.544 182.761 676.695 182.76 667.469V144.457C182.762 135.232 186.424 126.385 192.938 119.862C199.453 113.339 208.289 109.674 217.501 109.672H474.504C483.716 109.675 492.55 113.34 499.064 119.863C505.578 126.386 509.238 135.233 509.24 144.457V667.46C509.242 676.685 505.584 685.534 499.072 692.059C492.559 698.585 483.725 702.254 474.512 702.259Z" fill="#0C88C9"/>
<g filter="url(#filter0_d_1550_641)">
<path d="M509.254 170.973H182.76V609.028H509.254V170.973Z" fill="#FAF9F9"/>
</g>
<path d="M346.004 681.822C359.595 681.822 370.612 670.789 370.612 657.179C370.612 643.569 359.595 632.537 346.004 632.537C332.413 632.537 321.396 643.569 321.396 657.179C321.396 670.789 332.413 681.822 346.004 681.822Z" fill="#D5DAEB"/>
<path d="M366.413 150.537H325.605C322.9 150.537 320.305 149.46 318.392 147.544C316.478 145.629 315.403 143.03 315.403 140.321C315.403 137.611 316.478 135.013 318.392 133.097C320.305 131.181 322.9 130.104 325.605 130.104H366.413C369.119 130.104 371.714 131.181 373.627 133.097C375.54 135.013 376.615 137.611 376.615 140.321C376.615 143.03 375.54 145.629 373.627 147.544C371.714 149.46 369.119 150.537 366.413 150.537Z" fill="#D5DAEB"/>
<path d="M418.298 367.158H273.71C253.958 367.158 237.946 383.192 237.946 402.972V408.954C237.946 428.734 253.958 444.768 273.71 444.768H418.298C438.05 444.768 454.063 428.734 454.063 408.954V402.972C454.063 383.192 438.05 367.158 418.298 367.158Z" fill="#0E93D4"/>
<path d="M268.016 415.63V388.251H276.874C280.237 388.251 282.425 388.388 283.44 388.66C285.018 389.078 286.407 390.025 287.374 391.342C288.435 392.719 288.964 394.496 288.961 396.672C289.007 398.14 288.692 399.597 288.044 400.915C287.496 401.987 286.699 402.912 285.719 403.61C284.861 404.23 283.888 404.672 282.858 404.909C280.965 405.215 279.048 405.348 277.131 405.304H273.532V415.63H268.016ZM273.518 392.88V400.653H276.54C278.719 400.653 280.174 400.509 280.904 400.221C281.604 399.962 282.206 399.492 282.629 398.876C283.051 398.247 283.269 397.503 283.252 396.746C283.286 395.843 282.973 394.962 282.376 394.285C281.797 393.638 281.014 393.209 280.157 393.068C278.84 392.906 277.513 392.843 276.186 392.88H273.518Z" fill="#FAF9F9"/>
<path d="M297.374 401.847L292.615 400.988C293.152 399.069 294.07 397.648 295.366 396.727C296.662 395.806 298.603 395.347 301.189 395.35C303.521 395.35 305.262 395.627 306.411 396.181C307.417 396.613 308.261 397.352 308.823 398.293C309.291 399.147 309.525 400.712 309.525 402.99L309.47 409.115C309.435 410.406 309.52 411.697 309.722 412.972C309.921 413.896 310.237 414.791 310.662 415.635H305.476C305.338 415.286 305.173 414.772 304.972 414.083C304.884 413.775 304.825 413.569 304.788 413.468C303.959 414.294 302.984 414.958 301.913 415.428C300.881 415.868 299.77 416.092 298.649 416.085C296.613 416.085 295.007 415.531 293.83 414.423C293.254 413.887 292.799 413.235 292.495 412.51C292.19 411.785 292.044 411.003 292.064 410.217C292.048 409.164 292.326 408.127 292.867 407.223C293.402 406.343 294.185 405.64 295.118 405.203C296.451 404.624 297.851 404.214 299.286 403.982C301.018 403.708 302.722 403.276 304.376 402.691V402.168C304.376 401.158 304.128 400.442 303.628 400.01C303.128 399.578 302.193 399.367 300.813 399.367C300.046 399.323 299.284 399.515 298.63 399.918C298.022 400.415 297.584 401.089 297.374 401.847ZM304.385 406.103C303.337 406.426 302.274 406.695 301.198 406.906C299.74 407.219 298.791 407.526 298.341 407.825C298.03 408.019 297.772 408.29 297.593 408.611C297.413 408.932 297.317 409.293 297.314 409.661C297.312 410.018 297.383 410.372 297.525 410.7C297.666 411.028 297.874 411.323 298.135 411.567C298.412 411.834 298.74 412.043 299.099 412.181C299.458 412.319 299.841 412.383 300.226 412.37C301.203 412.362 302.151 412.04 302.931 411.452C303.529 411.029 303.968 410.418 304.178 409.716C304.353 408.874 304.423 408.014 304.385 407.154V406.103Z" fill="#FAF9F9"/>
<path d="M312.221 395.786H317.796L322.533 409.868L327.159 395.786H332.588L325.591 414.873L324.344 418.33C323.998 419.258 323.557 420.148 323.028 420.984C322.641 421.56 322.155 422.062 321.593 422.467C320.984 422.878 320.307 423.179 319.594 423.353C318.72 423.575 317.821 423.682 316.92 423.67C315.923 423.672 314.928 423.565 313.954 423.353L313.495 419.221C314.226 419.373 314.969 419.454 315.715 419.464C316.937 419.464 317.839 419.106 318.42 418.39C319.055 417.576 319.512 416.637 319.763 415.635L312.221 395.786Z" fill="#FAF9F9"/>
<path d="M335.55 395.786H340.383V398.495C342.113 396.392 344.17 395.339 346.554 395.336C347.704 395.307 348.842 395.577 349.856 396.121C350.826 396.682 351.62 397.505 352.148 398.495C352.916 397.52 353.873 396.713 354.963 396.121C355.954 395.603 357.055 395.334 358.173 395.336C359.461 395.295 360.736 395.603 361.864 396.227C362.88 396.825 363.672 397.739 364.12 398.83C364.484 399.678 364.664 401.048 364.661 402.94V415.621H359.443V404.285C359.443 402.315 359.264 401.071 358.902 400.474C358.662 400.105 358.329 399.806 357.935 399.609C357.542 399.412 357.103 399.324 356.665 399.354C355.923 399.357 355.2 399.591 354.597 400.024C353.933 400.512 353.449 401.206 353.221 401.998C352.877 403.335 352.732 404.715 352.79 406.094V415.621H347.549V404.753C347.549 402.819 347.456 401.573 347.269 401.016C347.123 400.515 346.819 400.075 346.403 399.762C345.924 399.468 345.368 399.325 344.807 399.354C344.03 399.344 343.269 399.571 342.625 400.006C341.969 400.463 341.485 401.128 341.249 401.893C340.971 402.713 340.832 404.077 340.832 405.984V415.626H335.587L335.55 395.786Z" fill="#FAF9F9"/>
<path d="M381.379 409.317L386.601 410.194C386.042 411.959 384.927 413.496 383.424 414.574C381.81 415.626 379.91 416.152 377.986 416.08C374.541 416.08 371.991 414.952 370.338 412.696C369.029 410.893 368.377 408.616 368.38 405.864C368.38 402.577 369.237 400.002 370.952 398.141C371.772 397.232 372.778 396.512 373.902 396.029C375.026 395.547 376.241 395.313 377.463 395.345C380.41 395.345 382.734 396.32 384.437 398.27C386.14 400.22 386.954 403.206 386.881 407.228H373.749C373.786 408.784 374.208 409.983 375.019 410.86C375.401 411.279 375.869 411.612 376.39 411.835C376.911 412.058 377.474 412.167 378.041 412.155C378.787 412.179 379.518 411.942 380.109 411.484C380.746 410.911 381.19 410.154 381.379 409.317ZM381.677 404.014C381.64 402.494 381.25 401.342 380.503 400.547C380.144 400.168 379.711 399.867 379.23 399.663C378.749 399.459 378.231 399.358 377.709 399.364C377.187 399.37 376.672 399.485 376.197 399.701C375.721 399.916 375.295 400.228 374.946 400.616C374.158 401.566 373.764 402.782 373.845 404.014H381.677Z" fill="#FAF9F9"/>
<path d="M409.169 415.63H403.928V405.529C403.928 403.386 403.816 402.001 403.593 401.374C403.396 400.781 403.013 400.267 402.502 399.909C401.96 399.547 401.319 399.364 400.668 399.386C399.795 399.375 398.941 399.636 398.224 400.134C397.521 400.607 396.999 401.305 396.743 402.113C396.477 402.933 396.344 404.452 396.344 406.668V415.653H391.099V395.786H395.986V398.702C397.717 396.458 399.893 395.336 402.516 395.336C403.604 395.323 404.683 395.537 405.684 395.965C406.532 396.302 407.281 396.85 407.857 397.558C408.35 398.213 408.7 398.964 408.884 399.762C409.107 400.925 409.204 402.109 409.173 403.293L409.169 415.63Z" fill="#FAF9F9"/>
<path d="M423.567 395.786V399.969H419.986V407.963C419.953 408.908 419.988 409.855 420.091 410.796C420.16 411.064 420.323 411.299 420.55 411.457C420.809 411.637 421.119 411.729 421.435 411.719C422.159 411.664 422.869 411.493 423.539 411.214L423.998 415.286C422.69 415.826 421.286 416.093 419.871 416.071C418.998 416.09 418.13 415.934 417.317 415.612C416.655 415.368 416.076 414.94 415.648 414.377C415.25 413.761 414.997 413.062 414.91 412.334C414.766 411.115 414.709 409.888 414.74 408.661V400.01H412.338V395.786H414.74V391.847L420 388.784V395.786H423.567Z" fill="#FAF9F9"/>
<path d="M114.207 705.518C114.207 705.518 122.071 683.649 144.785 692.396C144.785 692.396 149.182 657.859 180.146 653.29C211.109 648.722 224.283 678.396 224.283 678.396C224.283 678.396 232.994 667.028 246.993 671.399C260.991 675.77 260.863 685.669 260.863 685.669C260.863 685.669 267.186 676.945 282.312 681.307C297.439 685.669 295.04 697.644 295.04 697.644C295.04 697.644 326.49 687.148 333.478 705.518H114.207Z" fill="#0E93D4"/>
<path d="M222.984 587.021C222.984 587.021 220.435 658.795 219.316 681.711C218.198 704.628 216.487 777.049 216.487 777.049H228.372C228.372 777.049 255.53 623.524 256.662 616.636L270.812 777.049H283.829C283.829 777.049 291.166 681.252 291.166 658.336V586.833L222.984 587.021Z" fill="#333333"/>
<path d="M270.812 777.049V788.069H296.847C296.847 788.069 297.416 785.773 292.885 782.559C289.837 780.453 286.616 778.61 283.257 777.049H270.812Z" fill="#122F41"/>
<path d="M216.474 777.049L214.016 785.002C213.908 785.354 213.884 785.727 213.945 786.09C214.007 786.453 214.153 786.797 214.372 787.094C214.59 787.39 214.875 787.631 215.204 787.797C215.532 787.964 215.895 788.05 216.263 788.05H236.85C236.85 788.05 239.115 784.056 234.585 780.851C230.055 777.646 228.927 777.049 228.927 777.049H216.474Z" fill="#122F41"/>
<path d="M288.639 510.031C291.473 503.231 316.659 492.18 316.659 492.18L306.187 472.055L281.849 480.559C281.849 480.559 237.134 481.128 226.946 485.66C216.758 490.192 208.83 550.276 208.83 550.276L220.719 585.984C220.719 585.984 263.169 608.092 291.473 585.984C291.473 585.984 285.81 516.836 288.639 510.031ZM224.397 568.697L222.984 544.04L227.226 516.551C230.623 534.123 224.397 568.697 224.397 568.697Z" fill="#0C88C9"/>
<path d="M305.902 471.775L318.924 441.168C318.924 441.168 318.356 433.23 321.189 421.329C324.023 409.427 322.886 408.293 325.151 410.557C327.416 412.821 325.715 419.63 325.715 419.63C325.715 419.63 335.903 421.893 332.505 429.832C329.699 436.389 326.118 465.021 324.963 474.755C324.709 476.885 323.835 478.894 322.45 480.531L314.999 489.324L305.902 471.775Z" fill="#F8D4C2"/>
<path d="M250.069 481.954L249.867 469.507H265.149V481.064L250.069 481.954Z" fill="#F8D4C2"/>
<path d="M255.53 472.923C255.53 472.923 244.773 468.951 242.508 459.318C242.508 459.318 239.115 458.184 239.115 452.514C239.115 446.843 242.508 447.982 242.508 447.982C242.508 447.982 271.945 447.413 273.077 447.982C274.21 448.551 275.906 446.848 275.906 453.648C275.906 457.05 272.509 458.749 272.509 458.749C272.509 458.749 269.68 469.521 262.88 472.923C256.08 476.325 255.53 472.923 255.53 472.923Z" fill="#F8D4C2"/>
<path d="M260.239 470.168C258.602 470.55 256.888 470.425 255.324 469.81C250.596 467.973 240.775 462.785 241.38 451.94C241.944 441.738 239.115 437.201 247.038 429.267C253.554 422.743 260.055 425.865 262.884 426.999C265.713 428.133 272.513 427.568 273.641 432.1C274.769 436.632 275.906 442.302 274.774 447.973C273.696 453.368 275.7 466.495 260.239 470.168Z" fill="#333333"/>
<path d="M571.066 677.106C571.066 720.193 528.745 717.718 476.199 717.718C423.654 717.718 381.314 719.839 381.314 677.106C381.314 634.02 423.635 562.319 476.186 562.319C528.745 562.682 571.066 634.374 571.066 677.106Z" fill="#0C88C9"/>
<path d="M430 518.186C430 497.35 450.807 498.41 476.2 498.41C501.592 498.41 522.4 497.35 522.4 518.186C522.4 539.022 501.588 573.017 476.2 573.017C450.812 573.017 430 539.04 430 518.186Z" fill="#7432FF"/>
<path d="M516.756 566.589C516.759 567.425 516.597 568.254 516.28 569.027C515.962 569.8 515.494 570.503 514.904 571.094C514.313 571.685 513.612 572.153 512.84 572.472C512.068 572.79 511.24 572.952 510.405 572.948H441.99C441.155 572.952 440.328 572.79 439.556 572.472C438.784 572.153 438.082 571.685 437.492 571.094C436.901 570.503 436.434 569.8 436.116 569.027C435.798 568.254 435.636 567.425 435.64 566.589V564.826C435.637 563.99 435.799 563.162 436.117 562.389C436.435 561.616 436.903 560.914 437.493 560.323C438.083 559.731 438.784 559.263 439.556 558.945C440.328 558.626 441.155 558.464 441.99 558.467H510.767C511.602 558.464 512.429 558.626 513.201 558.945C513.973 559.263 514.674 559.731 515.265 560.323C515.855 560.914 516.322 561.616 516.641 562.389C516.959 563.162 517.121 563.99 517.118 564.826V566.589H516.756Z" fill="#E6E6E6"/>
<path d="M506.121 678.114C522.648 661.564 522.648 634.73 506.121 618.18C489.594 601.63 462.797 601.63 446.27 618.18C429.743 634.73 429.743 661.564 446.27 678.114C462.797 694.664 489.594 694.664 506.121 678.114Z" fill="white"/>
<path d="M472.668 682.405V673.571C465.617 673.217 461.737 671.803 458.564 670.04L460.678 660.503C464.204 662.271 468.789 664.034 474.081 664.034C478.666 664.034 481.839 662.271 481.839 659.089C481.839 655.907 479.372 654.149 473.021 652.027C464.204 649.204 458.564 644.966 458.564 637.197C458.564 630.131 461.737 624.483 472.32 622.715V615.305H479.376V622.366C486.428 622.72 488.9 623.781 491.367 625.19L489.248 634.373C485.672 632.456 481.667 631.484 477.611 631.549C472.32 631.549 470.559 633.666 470.559 636.141C470.559 638.965 473.379 640.379 480.436 643.203C489.954 646.733 493.833 650.971 493.833 658.391C493.833 665.811 489.954 671.808 479.376 673.575V682.405H472.668Z" fill="#6E5A00"/>
<path d="M121.126 281.251C120.97 282.296 120.509 283.271 119.799 284.053C119.09 284.835 118.166 285.388 117.142 285.644C116.119 285.899 115.042 285.845 114.05 285.488C113.057 285.131 112.192 284.487 111.565 283.638C110.938 282.789 110.576 281.773 110.526 280.718C110.475 279.663 110.738 278.617 111.282 277.711C111.825 276.806 112.624 276.083 113.579 275.632C114.533 275.182 115.599 275.025 116.642 275.181C118.04 275.391 119.298 276.148 120.139 277.287C120.98 278.425 121.335 279.851 121.126 281.251Z" fill="#4C78FF"/>
<path d="M114.972 283.17C114.913 283.135 114.862 283.088 114.821 283.033L113.046 280.705C112.955 280.583 112.916 280.43 112.937 280.279C112.959 280.129 113.039 279.993 113.161 279.901C113.282 279.81 113.435 279.771 113.586 279.792C113.736 279.814 113.872 279.894 113.963 280.016L115.339 281.853L118.218 278.974C118.325 278.868 118.469 278.809 118.619 278.809C118.769 278.81 118.913 278.87 119.018 278.976C119.124 279.083 119.183 279.227 119.183 279.377C119.182 279.528 119.122 279.671 119.016 279.777L115.683 283.111C115.623 283.17 115.551 283.216 115.472 283.245C115.393 283.273 115.308 283.284 115.224 283.276C115.133 283.262 115.046 283.226 114.972 283.17Z" fill="white"/>
<path d="M633.841 177.272C633.685 178.317 633.223 179.292 632.514 180.074C631.805 180.856 630.88 181.409 629.857 181.665C628.833 181.92 627.757 181.866 626.765 181.509C625.772 181.152 624.907 180.508 624.28 179.659C623.653 178.81 623.291 177.794 623.24 176.739C623.19 175.684 623.453 174.638 623.997 173.732C624.54 172.827 625.339 172.104 626.293 171.653C627.247 171.203 628.314 171.046 629.357 171.202C630.049 171.306 630.715 171.545 631.315 171.906C631.916 172.267 632.439 172.743 632.855 173.306C633.272 173.87 633.573 174.511 633.742 175.191C633.912 175.872 633.945 176.579 633.841 177.272Z" fill="#4C78FF"/>
<path d="M627.692 179.192C627.633 179.155 627.581 179.108 627.537 179.054L625.762 176.726C625.671 176.604 625.632 176.451 625.653 176.301C625.675 176.15 625.755 176.014 625.877 175.923C625.998 175.831 626.151 175.792 626.302 175.814C626.452 175.835 626.588 175.916 626.679 176.038L628.055 177.874L630.93 174.995C631.038 174.9 631.179 174.849 631.323 174.854C631.467 174.858 631.605 174.918 631.707 175.02C631.809 175.123 631.869 175.26 631.873 175.405C631.878 175.549 631.827 175.69 631.732 175.799L628.398 179.132C628.339 179.191 628.267 179.237 628.187 179.265C628.108 179.294 628.024 179.305 627.94 179.297C627.85 179.283 627.765 179.247 627.692 179.192Z" fill="white"/>
<path d="M355.638 6.1298C355.482 7.17442 355.02 8.14931 354.311 8.93115C353.602 9.71299 352.677 10.2667 351.654 10.5222C350.63 10.7777 349.554 10.7235 348.562 10.3665C347.569 10.0096 346.704 9.36582 346.077 8.5167C345.45 7.66759 345.088 6.65125 345.037 5.59624C344.987 4.54124 345.25 3.49494 345.793 2.58969C346.337 1.68445 347.136 0.96092 348.09 0.510608C349.044 0.0602954 350.111 -0.0965556 351.154 0.0598666C352.552 0.269557 353.81 1.0268 354.651 2.16507C355.492 3.30334 355.847 4.72944 355.638 6.1298Z" fill="#4C78FF"/>
<path d="M349.471 8.04892C349.413 8.01179 349.362 7.96521 349.32 7.91115L347.545 5.58326C347.454 5.46149 347.415 5.30843 347.436 5.15774C347.458 5.00706 347.538 4.87108 347.66 4.77975C347.781 4.68842 347.934 4.64921 348.085 4.67074C348.235 4.69227 348.371 4.77277 348.462 4.89454L349.838 6.73113L352.713 3.85689C352.765 3.80443 352.827 3.76281 352.896 3.73442C352.964 3.70603 353.038 3.69141 353.112 3.69141C353.186 3.69141 353.259 3.70603 353.327 3.73442C353.396 3.76281 353.458 3.80443 353.51 3.85689C353.563 3.90935 353.605 3.9716 353.633 4.04014C353.661 4.10868 353.676 4.18216 353.676 4.25635C353.676 4.33053 353.661 4.40399 353.633 4.47252C353.605 4.54106 353.563 4.60335 353.51 4.6558L350.177 7.98922C350.121 8.04675 350.053 8.0913 349.978 8.11985C349.902 8.14839 349.822 8.16023 349.742 8.15451C349.644 8.14275 349.551 8.10643 349.471 8.04892Z" fill="white"/>
<path d="M574.808 290.265C574.518 290.263 574.241 290.147 574.036 289.941C573.832 289.736 573.717 289.457 573.717 289.167V281.458C573.735 281.18 573.858 280.919 574.061 280.728C574.264 280.538 574.532 280.432 574.81 280.432C575.089 280.432 575.357 280.538 575.56 280.728C575.763 280.919 575.886 281.18 575.904 281.458V289.176C575.902 289.466 575.785 289.743 575.58 289.946C575.374 290.15 575.097 290.265 574.808 290.265Z" fill="#FF666A"/>
<path d="M578.654 286.403H570.947C570.657 286.403 570.38 286.288 570.175 286.083C569.97 285.878 569.855 285.6 569.855 285.31C569.855 285.02 569.97 284.742 570.175 284.537C570.38 284.332 570.657 284.217 570.947 284.217H578.654C578.944 284.217 579.221 284.332 579.426 284.537C579.63 284.742 579.746 285.02 579.746 285.31C579.746 285.6 579.63 285.878 579.426 286.083C579.221 286.288 578.944 286.403 578.654 286.403Z" fill="#FF666A"/>
<path d="M206.657 72.8531C206.367 72.8531 206.09 72.7379 205.885 72.533C205.68 72.3281 205.565 72.0501 205.565 71.7603V64.042C205.565 63.7522 205.68 63.4742 205.885 63.2693C206.09 63.0643 206.367 62.9492 206.657 62.9492C206.946 62.9492 207.223 63.0643 207.428 63.2693C207.633 63.4742 207.748 63.7522 207.748 64.042V71.7603C207.747 72.0497 207.631 72.327 207.427 72.5317C207.222 72.7363 206.946 72.8518 206.657 72.8531Z" fill="#FF666A"/>
<path d="M210.514 68.9917H202.801C202.512 68.9917 202.234 68.8766 202.03 68.6716C201.825 68.4667 201.71 68.1887 201.71 67.8989C201.71 67.6091 201.825 67.3312 202.03 67.1262C202.234 66.9213 202.512 66.8062 202.801 66.8062H210.514C210.803 66.8062 211.08 66.9213 211.285 67.1262C211.49 67.3312 211.605 67.6091 211.605 67.8989C211.605 68.1887 211.49 68.4667 211.285 68.6716C211.08 68.8766 210.803 68.9917 210.514 68.9917Z" fill="#FF666A"/>
<path d="M4.94788 187.792C4.65804 187.791 4.38045 187.674 4.17593 187.469C3.97141 187.263 3.85644 186.985 3.85645 186.694V178.962C3.85645 178.673 3.9715 178.395 4.17615 178.19C4.3808 177.985 4.65846 177.87 4.94788 177.87C5.2373 177.87 5.51473 177.985 5.71938 178.19C5.92404 178.395 6.03909 178.673 6.03909 178.962V186.681C6.04153 186.826 6.01515 186.97 5.9614 187.104C5.90765 187.239 5.82768 187.362 5.7261 187.465C5.62452 187.569 5.50329 187.651 5.36968 187.707C5.23607 187.763 5.09274 187.792 4.94788 187.792Z" fill="#FF666A"/>
<path d="M8.80375 183.917H1.09609C0.806672 183.917 0.529241 183.801 0.324589 183.596C0.119937 183.392 0.00488281 183.114 0.00488281 182.824C0.00488281 182.534 0.119937 182.256 0.324589 182.051C0.529241 181.846 0.806672 181.731 1.09609 181.731H8.80375C9.09317 181.731 9.37083 181.846 9.57548 182.051C9.78013 182.256 9.89518 182.534 9.89518 182.824C9.89518 183.114 9.78013 183.392 9.57548 183.596C9.37083 183.801 9.09317 183.917 8.80375 183.917Z" fill="#FF666A"/>
<path d="M76.9851 373.348C76.6961 373.346 76.4191 373.231 76.2147 373.026C76.0103 372.821 75.8951 372.544 75.8939 372.255V364.536C75.8842 364.387 75.9053 364.237 75.9559 364.095C76.0065 363.954 76.0854 363.825 76.1879 363.715C76.2903 363.606 76.4141 363.518 76.5517 363.459C76.6892 363.399 76.8375 363.368 76.9873 363.368C77.1372 363.368 77.2855 363.399 77.423 363.459C77.5605 363.518 77.6843 363.606 77.7868 363.715C77.8893 363.825 77.9684 363.954 78.019 364.095C78.0696 364.237 78.0907 364.387 78.081 364.536V372.255C78.0798 372.545 77.9638 372.823 77.7584 373.028C77.553 373.233 77.2749 373.348 76.9851 373.348Z" fill="#FF666A"/>
<path d="M80.8409 369.486H73.1332C72.8438 369.486 72.5661 369.371 72.3615 369.166C72.1568 368.961 72.042 368.683 72.042 368.393C72.042 368.103 72.1568 367.825 72.3615 367.62C72.5661 367.415 72.8438 367.3 73.1332 367.3H80.8409C81.1303 367.3 81.4077 367.415 81.6124 367.62C81.817 367.825 81.9321 368.103 81.9321 368.393C81.9321 368.683 81.817 368.961 81.6124 369.166C81.4077 369.371 81.1303 369.486 80.8409 369.486Z" fill="#FF666A"/>
<path d="M614.194 424.772C613.938 426.478 613.183 428.069 612.024 429.345C610.865 430.621 609.354 431.524 607.683 431.94C606.012 432.357 604.255 432.268 602.634 431.685C601.013 431.102 599.601 430.051 598.576 428.664C597.552 427.278 596.961 425.619 596.877 423.896C596.794 422.173 597.223 420.465 598.109 418.986C598.995 417.507 600.299 416.324 601.857 415.587C603.414 414.851 605.154 414.592 606.858 414.845C607.991 415.014 609.08 415.404 610.062 415.995C611.044 416.585 611.9 417.363 612.582 418.285C613.263 419.207 613.756 420.255 614.033 421.368C614.31 422.481 614.364 423.638 614.194 424.772Z" fill="#4C78FF"/>
<path d="M604.153 427.926C604.055 427.869 603.969 427.793 603.901 427.701L600.998 423.895C600.925 423.798 600.871 423.688 600.839 423.57C600.808 423.452 600.801 423.33 600.817 423.209C600.833 423.088 600.873 422.972 600.934 422.867C600.995 422.762 601.076 422.669 601.173 422.595C601.269 422.522 601.379 422.467 601.497 422.436C601.615 422.405 601.737 422.397 601.857 422.414C601.978 422.43 602.094 422.47 602.199 422.531C602.304 422.592 602.396 422.673 602.47 422.77L604.731 425.731L609.435 421.03C609.609 420.856 609.845 420.758 610.091 420.758C610.337 420.758 610.572 420.856 610.746 421.03C610.92 421.204 611.018 421.44 611.018 421.686C611.018 421.933 610.92 422.169 610.746 422.343L605.29 427.793C605.197 427.887 605.086 427.96 604.962 428.007C604.839 428.053 604.706 428.073 604.575 428.064C604.425 428.053 604.28 428.006 604.153 427.926Z" fill="white"/>
<path d="M41.8582 90.9481C41.6012 92.6533 40.8451 94.2439 39.6858 95.519C38.5265 96.7942 37.016 97.6967 35.3447 98.1126C33.6735 98.5284 31.9166 98.4389 30.2962 97.8554C28.6757 97.2719 27.2641 96.2206 26.24 94.8342C25.2159 93.4478 24.6252 91.7886 24.5423 90.0662C24.4594 88.3437 24.8881 86.6353 25.7744 85.1567C26.6606 83.6781 27.9646 82.4957 29.5215 81.7589C31.0785 81.022 32.8185 80.7638 34.522 81.0167C35.6555 81.1851 36.7448 81.5757 37.7273 82.1662C38.7099 82.7568 39.5663 83.5356 40.2478 84.4582C40.9293 85.3807 41.4222 86.4288 41.6986 87.5425C41.9749 88.6561 42.0292 89.8135 41.8582 90.9481Z" fill="#4C78FF"/>
<path d="M31.7932 94.0889C31.6968 94.029 31.6116 93.9529 31.5411 93.8639L28.6386 90.0576C28.4891 89.8621 28.423 89.6152 28.4553 89.3711C28.4875 89.127 28.6154 88.9057 28.8106 88.7559C29.0057 88.6061 29.2523 88.5401 29.4961 88.5724C29.7399 88.6047 29.9609 88.7326 30.1104 88.9281L32.371 91.8942L37.0753 87.1879C37.1607 87.1004 37.2627 87.0309 37.3753 86.9835C37.4879 86.9361 37.6088 86.9116 37.731 86.9116C37.8532 86.9116 37.9739 86.9361 38.0865 86.9835C38.1991 87.0309 38.3011 87.1004 38.3865 87.1879C38.4732 87.2734 38.542 87.3752 38.5889 87.4875C38.6359 87.5998 38.6601 87.7204 38.6601 87.8422C38.6601 87.964 38.6359 88.0845 38.5889 88.1969C38.542 88.3092 38.4732 88.411 38.3865 88.4965L32.935 93.9512C32.8413 94.045 32.7283 94.1174 32.6041 94.1634C32.4798 94.2093 32.347 94.2278 32.215 94.2175C32.066 94.2096 31.9212 94.1655 31.7932 94.0889Z" fill="white"/>
<path d="M114 534.54C113.526 534.539 113.072 534.35 112.737 534.015C112.402 533.679 112.213 533.224 112.212 532.75V520.123C112.212 519.648 112.4 519.193 112.736 518.857C113.071 518.521 113.526 518.333 114 518.333C114.474 518.333 114.929 518.521 115.265 518.857C115.6 519.193 115.788 519.648 115.788 520.123V532.75C115.787 533.224 115.598 533.679 115.263 534.015C114.928 534.35 114.474 534.539 114 534.54Z" fill="#FF666A"/>
<path d="M120.287 528.227H107.678C107.204 528.227 106.749 528.039 106.413 527.703C106.078 527.367 105.89 526.912 105.89 526.437C105.89 525.962 106.078 525.506 106.413 525.17C106.749 524.835 107.204 524.646 107.678 524.646H120.287C120.761 524.646 121.216 524.835 121.551 525.17C121.887 525.506 122.075 525.962 122.075 526.437C122.075 526.912 121.887 527.367 121.551 527.703C121.216 528.039 120.761 528.227 120.287 528.227Z" fill="#FF666A"/>
<path d="M529.323 105.687C528.85 105.687 528.396 105.499 528.061 105.164C527.725 104.829 527.536 104.375 527.535 103.901V91.2741C527.535 90.7991 527.724 90.3437 528.059 90.0079C528.394 89.6721 528.849 89.4834 529.323 89.4834C529.798 89.4834 530.252 89.6721 530.588 90.0079C530.923 90.3437 531.112 90.7991 531.112 91.2741V103.901C531.11 104.375 530.921 104.829 530.586 105.164C530.251 105.499 529.797 105.687 529.323 105.687Z" fill="#FF666A"/>
<path d="M535.632 99.3736H523.018C522.56 99.3504 522.128 99.1518 521.812 98.819C521.496 98.4861 521.32 98.0445 521.32 97.5852C521.32 97.126 521.496 96.6843 521.812 96.3515C522.128 96.0187 522.56 95.8201 523.018 95.7969H535.632C536.09 95.8201 536.521 96.0187 536.837 96.3515C537.153 96.6843 537.329 97.126 537.329 97.5852C537.329 98.0445 537.153 98.4861 536.837 98.819C536.521 99.1518 536.09 99.3504 535.632 99.3736Z" fill="#FF666A"/>
</g>
<defs>
<filter id="filter0_d_1550_641" x="178.76" y="170.973" width="334.494" height="446.055" filterUnits="userSpaceOnUse" color-interpolation-filters="sRGB">
<feFlood flood-opacity="0" result="BackgroundImageFix"/>
<feColorMatrix in="SourceAlpha" type="matrix" values="0 0 0 0 0 0 0 0 0 0 0 0 0 0 0 0 0 0 127 0" result="hardAlpha"/>
<feOffset dy="4"/>
<feGaussianBlur stdDeviation="2"/>
<feComposite in2="hardAlpha" operator="out"/>
<feColorMatrix type="matrix" values="0 0 0 0 0 0 0 0 0 0 0 0 0 0 0 0 0 0 0.25 0"/>
<feBlend mode="normal" in2="BackgroundImageFix" result="effect1_dropShadow_1550_641"/>
<feBlend mode="normal" in="SourceGraphic" in2="effect1_dropShadow_1550_641" result="shape"/>
</filter>
<clipPath id="clip0_1550_641">
<rect width="659" height="798" fill="white"/>
</clipPath>
</defs>
</svg>
