<svg width="874" height="675" viewBox="0 0 874 675" fill="none" xmlns="http://www.w3.org/2000/svg">
<circle cx="313" cy="370" r="165" stroke="black" stroke-width="2"/>
<circle cx="557.5" cy="559.5" r="3.5" fill="#D9D9D9"/>
<circle cx="571.5" cy="559.5" r="3.5" fill="#D9D9D9"/>
<circle cx="585.5" cy="559.5" r="3.5" fill="#D9D9D9"/>
<circle cx="599.5" cy="559.5" r="3.5" fill="#D9D9D9"/>
<circle cx="557.5" cy="575.5" r="3.5" fill="#D9D9D9"/>
<circle cx="571.5" cy="575.5" r="3.5" fill="#D9D9D9"/>
<circle cx="585.5" cy="575.5" r="3.5" fill="#D9D9D9"/>
<circle cx="599.5" cy="575.5" r="3.5" fill="#D9D9D9"/>
<circle cx="557.5" cy="591.5" r="3.5" fill="#D9D9D9"/>
<circle cx="571.5" cy="591.5" r="3.5" fill="#D9D9D9"/>
<circle cx="585.5" cy="591.5" r="3.5" fill="#D9D9D9"/>
<circle cx="599.5" cy="591.5" r="3.5" fill="#D9D9D9"/>
<circle cx="557.5" cy="607.5" r="3.5" fill="#D9D9D9"/>
<circle cx="571.5" cy="607.5" r="3.5" fill="#D9D9D9"/>
<circle cx="585.5" cy="607.5" r="3.5" fill="#D9D9D9"/>
<circle cx="599.5" cy="607.5" r="3.5" fill="#D9D9D9"/>
<circle cx="557.5" cy="623.5" r="3.5" fill="#D9D9D9"/>
<circle cx="571.5" cy="623.5" r="3.5" fill="#D9D9D9"/>
<circle cx="585.5" cy="623.5" r="3.5" fill="#D9D9D9"/>
<circle cx="599.5" cy="623.5" r="3.5" fill="#D9D9D9"/>
<circle cx="557.5" cy="639.5" r="3.5" fill="#D9D9D9"/>
<circle cx="571.5" cy="639.5" r="3.5" fill="#D9D9D9"/>
<circle cx="585.5" cy="639.5" r="3.5" fill="#D9D9D9"/>
<circle cx="599.5" cy="639.5" r="3.5" fill="#D9D9D9"/>
<circle cx="557.5" cy="655.5" r="3.5" fill="#D9D9D9"/>
<circle cx="571.5" cy="655.5" r="3.5" fill="#D9D9D9"/>
<circle cx="585.5" cy="655.5" r="3.5" fill="#D9D9D9"/>
<circle cx="599.5" cy="655.5" r="3.5" fill="#D9D9D9"/>
<circle cx="557.5" cy="671.5" r="3.5" fill="#D9D9D9"/>
<circle cx="571.5" cy="671.5" r="3.5" fill="#D9D9D9"/>
<circle cx="585.5" cy="671.5" r="3.5" fill="#D9D9D9"/>
<circle cx="599.5" cy="671.5" r="3.5" fill="#D9D9D9"/>
<circle cx="61.5" cy="149.5" r="3.5" fill="#D9D9D9"/>
<circle cx="75.5" cy="149.5" r="3.5" fill="#D9D9D9"/>
<circle cx="89.5" cy="149.5" r="3.5" fill="#D9D9D9"/>
<circle cx="103.5" cy="149.5" r="3.5" fill="#D9D9D9"/>
<circle cx="61.5" cy="165.5" r="3.5" fill="#D9D9D9"/>
<circle cx="75.5" cy="165.5" r="3.5" fill="#D9D9D9"/>
<circle cx="89.5" cy="165.5" r="3.5" fill="#D9D9D9"/>
<circle cx="103.5" cy="165.5" r="3.5" fill="#D9D9D9"/>
<circle cx="61.5" cy="181.5" r="3.5" fill="#D9D9D9"/>
<circle cx="75.5" cy="181.5" r="3.5" fill="#D9D9D9"/>
<circle cx="89.5" cy="181.5" r="3.5" fill="#D9D9D9"/>
<circle cx="103.5" cy="181.5" r="3.5" fill="#D9D9D9"/>
<circle cx="61.5" cy="197.5" r="3.5" fill="#D9D9D9"/>
<circle cx="75.5" cy="197.5" r="3.5" fill="#D9D9D9"/>
<circle cx="89.5" cy="197.5" r="3.5" fill="#D9D9D9"/>
<circle cx="103.5" cy="197.5" r="3.5" fill="#D9D9D9"/>
<circle cx="61.5" cy="213.5" r="3.5" fill="#D9D9D9"/>
<circle cx="75.5" cy="213.5" r="3.5" fill="#D9D9D9"/>
<circle cx="89.5" cy="213.5" r="3.5" fill="#D9D9D9"/>
<circle cx="103.5" cy="213.5" r="3.5" fill="#D9D9D9"/>
<circle cx="61.5" cy="229.5" r="3.5" fill="#D9D9D9"/>
<circle cx="75.5" cy="229.5" r="3.5" fill="#D9D9D9"/>
<circle cx="89.5" cy="229.5" r="3.5" fill="#D9D9D9"/>
<circle cx="103.5" cy="229.5" r="3.5" fill="#D9D9D9"/>
<circle cx="61.5" cy="245.5" r="3.5" fill="#D9D9D9"/>
<circle cx="75.5" cy="245.5" r="3.5" fill="#D9D9D9"/>
<circle cx="89.5" cy="245.5" r="3.5" fill="#D9D9D9"/>
<circle cx="103.5" cy="245.5" r="3.5" fill="#D9D9D9"/>
<circle cx="61.5" cy="261.5" r="3.5" fill="#D9D9D9"/>
<circle cx="75.5" cy="261.5" r="3.5" fill="#D9D9D9"/>
<circle cx="89.5" cy="261.5" r="3.5" fill="#D9D9D9"/>
<circle cx="103.5" cy="261.5" r="3.5" fill="#D9D9D9"/>
<circle cx="713" cy="566" r="62" fill="#7432FF"/>
<g clip-path="url(#clip0_905_568)">
<path d="M54.9789 109.834C44.1051 109.834 33.4755 106.613 24.4343 100.579C15.393 94.5446 8.34626 85.9677 4.18504 75.9329C0.0238216 65.8981 -1.06494 54.8561 1.05643 44.2033C3.1778 33.5504 8.41404 23.7651 16.103 16.0848C23.7919 8.40456 33.5882 3.17423 44.2531 1.05524C54.9179 -1.06375 65.9723 0.0237948 76.0184 4.18034C86.0645 8.33687 94.651 15.3757 100.692 24.4068C106.733 33.4379 109.958 44.0555 109.958 54.9171C109.941 69.4769 104.144 83.4357 93.8366 93.7311C83.5296 104.026 69.5551 109.818 54.9789 109.834ZM54.9789 2.28824C44.5582 2.28824 34.3715 5.37486 25.707 11.1578C17.0425 16.9407 10.2893 25.1602 6.30146 34.7769C2.31362 44.3935 1.27023 54.9754 3.30321 65.1844C5.33619 75.3934 10.3542 84.771 17.7228 92.1313C25.0913 99.4915 34.4795 104.504 44.7 106.535C54.9204 108.565 65.5143 107.523 75.1418 103.54C84.7692 99.5564 92.998 92.8108 98.7874 84.1561C104.577 75.5013 107.667 65.3261 107.667 54.9171C107.651 40.9639 102.095 27.5867 92.2175 17.7203C82.34 7.85394 68.9478 2.30406 54.9789 2.28824Z" fill="#F2F2F2"/>
<path d="M428.377 77.7991C422.94 77.7991 417.625 76.1887 413.105 73.1715C408.584 70.1543 405.061 65.8659 402.98 60.8485C400.9 55.8311 400.355 50.3102 401.416 44.9837C402.477 39.6573 405.095 34.7646 408.939 30.9245C412.784 27.0844 417.682 24.4692 423.014 23.4097C428.347 22.3502 433.874 22.894 438.897 24.9722C443.92 27.0505 448.213 30.57 451.234 35.0855C454.254 39.601 455.867 44.9098 455.867 50.3406C455.858 57.6205 452.959 64.5999 447.806 69.7476C442.652 74.8953 435.665 77.7908 428.377 77.7991ZM428.377 25.1703C423.393 25.1703 418.521 26.6465 414.378 29.4123C410.234 32.178 407.004 36.1091 405.097 40.7084C403.189 45.3076 402.69 50.3685 403.663 55.2511C404.635 60.1337 407.035 64.6186 410.559 68.1387C414.083 71.6588 418.573 74.0561 423.461 75.0273C428.349 75.9985 433.416 75.5 438.02 73.5949C442.625 71.6899 446.56 68.4637 449.329 64.3245C452.098 60.1852 453.576 55.3188 453.576 50.3406C453.568 43.6673 450.911 37.2696 446.187 32.5508C441.463 27.8321 435.058 25.1778 428.377 25.1703Z" fill="#F2F2F2"/>
<path d="M621.948 211.659C615.832 211.659 609.852 209.848 604.767 206.453C599.681 203.059 595.717 198.235 593.377 192.59C591.036 186.945 590.423 180.734 591.617 174.742C592.81 168.75 595.755 163.246 600.08 158.925C604.405 154.605 609.916 151.663 615.915 150.471C621.914 149.279 628.132 149.891 633.783 152.229C639.434 154.567 644.264 158.527 647.662 163.606C651.06 168.686 652.874 174.659 652.874 180.769C652.864 188.958 649.603 196.81 643.805 202.601C638.008 208.393 630.147 211.65 621.948 211.659ZM621.948 152.166C616.285 152.166 610.748 153.843 606.039 156.986C601.33 160.129 597.66 164.596 595.493 169.823C593.326 175.049 592.759 180.8 593.863 186.349C594.968 191.897 597.696 196.993 601.7 200.994C605.705 204.994 610.807 207.718 616.362 208.822C621.916 209.925 627.674 209.359 632.906 207.194C638.138 205.029 642.611 201.363 645.757 196.659C648.904 191.956 650.583 186.426 650.583 180.769C650.574 173.185 647.555 165.915 642.187 160.553C636.818 155.191 629.54 152.174 621.948 152.166Z" fill="#F2F2F2"/>
<path d="M872.855 524H615.141C614.838 524 614.546 523.88 614.332 523.665C614.117 523.45 613.996 523.159 613.996 522.856C613.996 522.553 614.117 522.262 614.332 522.047C614.546 521.832 614.838 521.712 615.141 521.712H872.855C873.159 521.712 873.45 521.832 873.665 522.047C873.88 522.262 874 522.553 874 522.856C874 523.159 873.88 523.45 873.665 523.665C873.45 523.88 873.159 524 872.855 524Z" fill="#CCCCCC"/>
<path d="M734.102 175.33C749.639 175.33 762.234 162.749 762.234 147.23C762.234 131.711 749.639 119.13 734.102 119.13C718.565 119.13 705.97 131.711 705.97 147.23C705.97 162.749 718.565 175.33 734.102 175.33Z" fill="#FFB8B8"/>
<path d="M737.021 480.916L723.725 485.427L699.978 436.346L719.602 429.688L737.021 480.916Z" fill="#FFB8B8"/>
<path d="M712.936 484.855L738.579 476.155L744.063 492.282L702.275 506.46C701.555 504.342 701.259 502.103 701.405 499.871C701.551 497.639 702.136 495.458 703.126 493.451C704.116 491.445 705.492 489.654 707.175 488.178C708.859 486.703 710.816 485.574 712.936 484.855Z" fill="#2F2E41"/>
<path d="M767.063 508.64L753.039 509.344L743.646 455.645L764.345 454.605L767.063 508.64Z" fill="#FFB8B8"/>
<path d="M742.82 505.844L769.867 504.486L770.723 521.497L726.646 523.71C726.534 521.476 726.863 519.242 727.615 517.135C728.367 515.028 729.527 513.09 731.029 511.431C732.531 509.772 734.345 508.425 736.368 507.466C738.391 506.508 740.583 505.957 742.82 505.844Z" fill="#2F2E41"/>
<path d="M683.603 330.223C684.861 329.104 685.858 327.724 686.523 326.179C687.189 324.634 687.508 322.963 687.457 321.281C687.406 319.6 686.986 317.951 686.228 316.449C685.469 314.947 684.391 313.63 683.068 312.59L696.439 273.948L675.831 279.209L666.293 315.097C664.691 317.433 664.003 320.275 664.358 323.084C664.714 325.894 666.088 328.475 668.222 330.34C670.356 332.204 673.1 333.222 675.935 333.201C678.77 333.179 681.498 332.12 683.603 330.223Z" fill="#FFB8B8"/>
<path d="M765.752 492.45C765.571 492.45 765.389 492.44 765.209 492.421L746.172 490.408C745.002 490.29 743.909 489.774 743.075 488.946C742.241 488.118 741.718 487.029 741.593 485.861L726.88 354.85L716.234 390.701L736.083 461.158C736.285 461.876 736.328 462.628 736.211 463.365C736.093 464.101 735.817 464.802 735.401 465.421C734.985 466.04 734.44 466.562 733.802 466.95C733.165 467.337 732.451 467.582 731.71 467.667L712.412 469.883C711.184 470.019 709.947 469.711 708.925 469.015C707.904 468.32 707.165 467.282 706.842 466.09L685.757 386.8C685.583 386.148 685.54 385.469 685.629 384.8L695.106 313.638L765.793 319.3L770.904 487.144C770.925 487.833 770.807 488.519 770.558 489.162C770.309 489.805 769.932 490.391 769.452 490.886C768.972 491.381 768.396 491.774 767.761 492.043C767.125 492.312 766.442 492.45 765.752 492.45V492.45Z" fill="#2F2E41"/>
<path d="M741.318 331.469C717.636 331.469 690.824 322.329 689.2 321.767L688.73 321.605L715.446 184.674L715.938 184.694C726.526 185.123 755.419 185.343 755.71 185.345L756.228 185.349L767.364 306.188L769.355 323.863L769.111 324.06C762.299 329.561 752.135 331.469 741.318 331.469Z" fill="#6C63FF"/>
<path d="M698.535 319.635L681.824 312.912L690.341 210.006C690.546 207.47 691.319 205.011 692.603 202.812C693.886 200.613 695.647 198.731 697.757 197.303L706.55 191.325C706.301 190.48 706.257 189.588 706.42 188.723C706.583 187.857 706.95 187.042 707.489 186.345C708.029 185.649 708.726 185.09 709.524 184.714C710.322 184.339 711.198 184.158 712.079 184.187L714.598 184.267C715.076 183.945 715.641 183.775 716.219 183.779C716.796 183.783 717.359 183.961 717.833 184.291C718.307 184.62 718.67 185.084 718.875 185.623C719.08 186.163 719.117 186.751 718.981 187.312L718.428 198.214L698.535 319.635Z" fill="#2F2E41"/>
<path d="M690.102 301.187L668.284 300.269L675.352 254.857L681.209 212.126C681.324 210.592 681.785 209.103 682.557 207.772C683.329 206.44 684.392 205.3 685.668 204.437C686.943 203.574 688.397 203.01 689.921 202.787C691.445 202.564 693 202.688 694.47 203.15C696.758 203.867 698.721 205.366 700.014 207.384C701.307 209.402 701.848 211.81 701.542 214.187L695.609 260.486L690.102 301.187Z" fill="#2F2E41"/>
<path d="M724.65 321.209L724.502 320.75C724.4 320.436 714.568 288.931 731.021 251.335L739.271 210.347L746.322 184.61C746.454 184.15 746.691 183.727 747.016 183.375C747.34 183.023 747.742 182.751 748.19 182.582C748.716 182.4 749.285 182.376 749.824 182.515C750.364 182.653 750.85 182.947 751.224 183.36C756.138 181.919 761.421 182.447 765.953 184.831L775.855 190.042C778.056 191.2 779.811 193.055 780.843 195.317C781.876 197.579 782.128 200.118 781.56 202.539L768.027 260.228L774.606 314.112L724.65 321.209Z" fill="#2F2E41"/>
<path d="M739.059 298.998C740.733 299.179 742.426 298.992 744.02 298.449C745.614 297.906 747.069 297.021 748.283 295.855C749.497 294.69 750.441 293.273 751.047 291.704C751.654 290.135 751.908 288.452 751.793 286.774L782.439 264.097L771.727 259.024L738.681 276.028C735.872 276.408 733.299 277.804 731.452 279.951C729.604 282.099 728.609 284.849 728.656 287.68C728.702 290.512 729.787 293.228 731.705 295.314C733.622 297.399 736.239 298.71 739.059 298.998V298.998Z" fill="#FFB8B8"/>
<path d="M758.272 288.847L747.922 269.547L773.449 252.765L760.992 208.134C760.493 206.347 760.368 204.476 760.626 202.639C760.883 200.802 761.517 199.037 762.487 197.456C763.458 195.874 764.744 194.509 766.267 193.447C767.789 192.384 769.514 191.646 771.335 191.28C774.552 190.639 777.893 191.187 780.736 192.82C783.58 194.454 785.734 197.063 786.798 200.163L803.606 249.514C803.953 250.531 803.972 251.63 803.661 252.659C803.351 253.687 802.726 254.593 801.875 255.249L758.272 288.847Z" fill="#2F2E41"/>
<path d="M736.092 153.19C732.72 153.629 730.176 150.182 728.997 146.996C727.817 143.81 726.918 140.101 723.986 138.38C719.98 136.029 714.855 138.857 710.274 138.081C705.101 137.205 701.737 131.729 701.474 126.494C701.21 121.26 703.296 116.226 705.342 111.4L706.056 117.397C705.961 115.364 706.389 113.341 707.3 111.521C708.211 109.701 709.574 108.144 711.259 107.001L710.339 115.802C710.535 114.587 710.969 113.424 711.616 112.378C712.263 111.331 713.111 110.423 714.111 109.705C715.11 108.987 716.242 108.473 717.441 108.193C718.64 107.913 719.882 107.872 721.097 108.073L720.952 113.316C726.927 112.607 732.954 111.896 738.947 112.437C744.939 112.977 750.974 114.871 755.516 118.813C762.31 124.71 764.791 134.42 763.958 143.372C763.125 152.324 759.425 160.734 755.57 168.857C754.6 170.901 753.258 173.208 751.008 173.468C748.987 173.702 747.138 172.014 746.509 170.081C746.025 168.098 746.044 166.025 746.564 164.051C747.132 161.033 747.849 157.949 747.314 154.926C746.78 151.902 744.602 148.914 741.551 148.544C738.5 148.173 735.378 151.657 736.845 154.355L736.092 153.19Z" fill="#2F2E41"/>
<path d="M368.026 461.735L357.075 457.129L349.563 402.294H249.525L241.382 456.905L231.585 461.798C231.116 462.032 230.74 462.417 230.518 462.891C230.296 463.366 230.241 463.901 230.361 464.41C230.481 464.92 230.771 465.374 231.182 465.699C231.593 466.023 232.101 466.2 232.625 466.2H367.124C367.661 466.2 368.181 466.015 368.597 465.675C369.013 465.335 369.298 464.862 369.404 464.336C369.51 463.81 369.431 463.264 369.18 462.79C368.929 462.315 368.521 461.943 368.026 461.735Z" fill="#E6E6E6"/>
<path d="M545.801 409.589H54.384C51.8057 409.584 49.3349 408.557 47.5138 406.733C45.6927 404.91 44.6699 402.44 44.6699 399.865V330.646H555.515V399.865C555.515 402.44 554.492 404.91 552.671 406.733C550.85 408.557 548.379 409.584 545.801 409.589Z" fill="#CCCCCC"/>
<path d="M556.029 363.361H44.2217V67.19C44.2253 64.0818 45.463 61.102 47.6633 58.9042C49.8637 56.7065 52.8469 55.4703 55.9585 55.4668H544.292C547.404 55.4703 550.387 56.7065 552.587 58.9043C554.788 61.102 556.025 64.0818 556.029 67.19V363.361Z" fill="#3F3D56"/>
<path d="M525.461 341.864H74.7904C72.3915 341.862 70.0916 340.909 68.3953 339.214C66.6991 337.52 65.7449 335.223 65.7422 332.827V86.0005C65.7449 83.6042 66.699 81.3069 68.3953 79.6125C70.0916 77.918 72.3915 76.9649 74.7904 76.9622H525.461C527.86 76.9649 530.16 77.918 531.857 79.6125C533.553 81.3069 534.507 83.6042 534.51 86.0005V332.827C534.507 335.223 533.553 337.52 531.856 339.214C530.16 340.909 527.86 341.862 525.461 341.864Z" fill="white"/>
<path d="M521.219 466.772H84.8241C84.5203 466.772 84.229 466.652 84.0142 466.437C83.7994 466.222 83.6787 465.931 83.6787 465.628C83.6787 465.325 83.7994 465.034 84.0142 464.819C84.229 464.604 84.5203 464.484 84.8241 464.484H521.219C521.523 464.484 521.814 464.604 522.029 464.819C522.244 465.034 522.364 465.325 522.364 465.628C522.364 465.931 522.244 466.222 522.029 466.437C521.814 466.652 521.523 466.772 521.219 466.772Z" fill="#CCCCCC"/>
<path d="M483.122 311.196H117.129C116.825 311.196 116.534 311.076 116.319 310.861C116.104 310.647 115.983 310.356 115.983 310.052V134.829C115.983 134.525 116.104 134.234 116.319 134.02C116.534 133.805 116.825 133.685 117.129 133.685C117.433 133.685 117.724 133.805 117.939 134.02C118.153 134.234 118.274 134.525 118.274 134.829V308.908H483.122C483.426 308.908 483.717 309.029 483.932 309.243C484.147 309.458 484.268 309.749 484.268 310.052C484.268 310.356 484.147 310.647 483.932 310.861C483.717 311.076 483.426 311.196 483.122 311.196Z" fill="#3F3D56"/>
<path d="M195.325 298.611H162.037C161.135 298.61 160.271 298.252 159.634 297.615C158.996 296.979 158.638 296.116 158.637 295.215V249.378C158.638 248.478 158.996 247.615 159.634 246.978C160.271 246.342 161.135 245.983 162.037 245.982H195.325C196.227 245.983 197.091 246.342 197.728 246.978C198.366 247.615 198.724 248.478 198.725 249.378V295.215C198.724 296.116 198.366 296.979 197.728 297.615C197.091 298.252 196.227 298.61 195.325 298.611Z" fill="#6C63FF"/>
<path d="M256.031 298.611H222.743C221.841 298.61 220.977 298.252 220.34 297.616C219.702 296.979 219.344 296.116 219.343 295.215V205.903C219.344 205.002 219.702 204.139 220.34 203.502C220.977 202.866 221.841 202.508 222.743 202.507H256.031C256.933 202.508 257.797 202.866 258.434 203.502C259.072 204.139 259.43 205.002 259.432 205.903V295.215C259.43 296.116 259.072 296.979 258.434 297.616C257.797 298.252 256.933 298.61 256.031 298.611Z" fill="#6C63FF"/>
<path d="M316.737 298.611H283.449C282.548 298.61 281.683 298.252 281.046 297.615C280.408 296.979 280.05 296.116 280.049 295.215V249.378C280.05 248.478 280.408 247.615 281.046 246.978C281.683 246.342 282.548 245.983 283.449 245.982H316.737C317.639 245.983 318.503 246.342 319.14 246.978C319.778 247.615 320.136 248.478 320.138 249.378V295.215C320.136 296.116 319.778 296.979 319.14 297.615C318.503 298.252 317.639 298.61 316.737 298.611Z" fill="#6C63FF"/>
<path d="M377.443 298.611H344.154C343.273 298.63 342.421 298.3 341.783 297.692C341.146 297.084 340.776 296.249 340.754 295.369V188.587C340.776 187.707 341.146 186.872 341.783 186.264C342.421 185.657 343.273 185.326 344.154 185.345H377.443C378.323 185.326 379.176 185.657 379.813 186.264C380.451 186.872 380.821 187.707 380.843 188.587V295.369C380.821 296.249 380.451 297.084 379.813 297.692C379.176 298.3 378.323 298.63 377.443 298.611Z" fill="#6C63FF"/>
<path d="M438.149 298.611H404.86C403.959 298.61 403.094 298.252 402.457 297.616C401.82 296.979 401.461 296.116 401.46 295.215V157.85C401.461 156.95 401.82 156.086 402.457 155.45C403.094 154.813 403.959 154.455 404.86 154.454H438.149C439.05 154.455 439.914 154.813 440.552 155.45C441.189 156.086 441.548 156.95 441.549 157.85V295.215C441.548 296.116 441.189 296.979 440.552 297.616C439.914 298.252 439.05 298.61 438.149 298.611Z" fill="#6C63FF"/>
<path d="M178.681 232.253C182.476 232.253 185.553 229.18 185.553 225.389C185.553 221.597 182.476 218.524 178.681 218.524C174.885 218.524 171.809 221.597 171.809 225.389C171.809 229.18 174.885 232.253 178.681 232.253Z" fill="#3F3D56"/>
<path d="M239.387 187.633C243.183 187.633 246.259 184.56 246.259 180.768C246.259 176.977 243.183 173.904 239.387 173.904C235.592 173.904 232.515 176.977 232.515 180.768C232.515 184.56 235.592 187.633 239.387 187.633Z" fill="#3F3D56"/>
<path d="M300.093 232.253C303.889 232.253 306.965 229.18 306.965 225.389C306.965 221.597 303.889 218.524 300.093 218.524C296.298 218.524 293.221 221.597 293.221 225.389C293.221 229.18 296.298 232.253 300.093 232.253Z" fill="#3F3D56"/>
<path d="M360.799 165.895C364.595 165.895 367.671 162.822 367.671 159.031C367.671 155.239 364.595 152.166 360.799 152.166C357.004 152.166 353.927 155.239 353.927 159.031C353.927 162.822 357.004 165.895 360.799 165.895Z" fill="#3F3D56"/>
<path d="M421.504 140.725C425.3 140.725 428.377 137.651 428.377 133.86C428.377 130.069 425.3 126.996 421.504 126.996C417.709 126.996 414.632 130.069 414.632 133.86C414.632 137.651 417.709 140.725 421.504 140.725Z" fill="#3F3D56"/>
<path d="M300.237 226.926L239.387 181.4L179.369 226.304L177.994 224.473L239.387 178.541L299.949 223.851L360.129 158.067L360.37 157.969L421.076 133.538L421.933 135.66L361.469 159.994L300.237 226.926Z" fill="#3F3D56"/>
<ellipse cx="534.807" cy="69.3529" rx="59.7442" ry="59.7206" fill="#7432FF"/>
</g>
<defs>
<clipPath id="clip0_905_568">
<rect width="874" height="524" fill="white"/>
</clipPath>
</defs>
</svg>
