<svg width="152" height="152" viewBox="0 0 152 152" fill="none" xmlns="http://www.w3.org/2000/svg">
<circle cx="76" cy="76" r="76" fill="#FFFDFD"/>
<g clip-path="url(#clip0_592_542)">
<path d="M115.995 55.3121L108.937 47.8082C108.539 47.3849 107.866 47.3849 107.468 47.8082L100.41 55.3121C99.8047 55.9554 100.261 57.0109 101.144 57.0109H102.909V68.2837L105.904 77.1457L106.804 77.9105L113.497 77.5986V57.0107H115.261C116.144 57.0107 116.601 55.9554 115.995 55.3121Z" fill="#6FA4CA"/>
<path d="M105.904 75.3883C105.287 72.8346 104.264 70.4438 102.909 68.2842V79.8107L104.952 83.2299L113.497 81.5223V77.5992C111.363 76.8135 109.116 76.3238 106.804 76.1533C106.37 76.1209 106.006 75.8117 105.904 75.3883Z" fill="#95D6A4"/>
<path d="M79.5052 42.0866H81.2697V56.9922L86.5636 59.6848L91.8576 58.8618V42.0864H93.622C94.5052 42.0864 94.9615 41.0311 94.3562 40.3877L87.2978 32.8838C86.8998 32.4606 86.2273 32.4606 85.8292 32.8838L78.7709 40.3877C78.1658 41.0313 78.6218 42.0866 79.5052 42.0866Z" fill="#52ACB5"/>
<path d="M91.8577 62.8597V58.8618C88.9694 57.6376 85.7995 56.9604 82.4823 56.9604C82.0772 56.9604 81.6729 56.972 81.2698 56.9923V60.6292L86.5637 63.5022L91.8577 62.8597Z" fill="#FFD064"/>
<path d="M72.7171 51.043L65.6587 43.5391C65.2607 43.1159 64.5882 43.1159 64.1902 43.5391L57.1318 51.043C56.5265 51.6864 56.9828 52.7417 57.866 52.7417H59.6304V73.0657L70.2183 60.3172V52.7418H71.9828C72.8662 52.7418 73.3224 51.6866 72.7171 51.043Z" fill="#7432FF"/>
<path d="M59.6306 76.7627L62.3208 79.3012L70.2185 64.6775V60.3174C69.0484 61.0094 67.9324 61.8016 66.8863 62.6912C63.6113 65.4762 61.0376 69.06 59.6306 73.0658V76.7627Z" fill="#E49542"/>
<path d="M37.9916 39.7101V82.3095L48.5795 74.0312V39.7101H50.344C51.2274 39.7101 51.6834 38.6546 51.0783 38.0113L44.0199 30.5074C43.6219 30.0841 42.9494 30.0841 42.5514 30.5074L35.493 38.0113C34.8877 38.6546 35.344 39.7101 36.2274 39.7101H37.9916Z" fill="#00549A"/>
<path d="M48.5795 77.9506V74.0312C45.632 75.0961 42.9301 76.8047 40.6482 79.0865C39.65 80.0848 38.7648 81.1652 37.9916 82.3096V93.0166L48.5795 77.9506Z" fill="#C7495D"/>
<path d="M26.1221 106.255C26.1221 114.107 32.7611 119.939 39.7328 119.939H104.952C115.965 119.939 125.921 110.379 125.921 98.9475C125.001 88.1727 115.965 79.7139 104.952 79.7139C104.263 79.7139 103.581 79.748 102.909 79.8129C102.265 69.0889 93.3678 60.5898 82.482 60.5898C72.3769 60.5898 63.9881 67.9146 62.3209 77.5434C60.3391 76.793 58.192 76.3789 55.9473 76.3789C46.0021 76.3789 37.9402 84.441 37.9402 94.3859C37.9402 94.4125 37.9422 94.4385 37.9422 94.4648C31.8016 95.2648 26.9363 100.119 26.1221 106.255Z" fill="#003B7D"/>
<path d="M104.952 118.181C93.5645 118.181 45.9086 118.181 39.7328 118.181C32.7611 118.181 27.007 112.985 26.1221 106.254C26.0428 106.851 26 107.459 26 108.077C26 115.662 32.1482 121.81 39.7326 121.81H104.952C116.576 121.81 126 112.386 126 100.762C126 100.15 125.972 99.5453 125.921 98.9473C125.001 109.722 115.965 118.181 104.952 118.181Z" fill="#83C8EA"/>
<path d="M81.4793 92.9036C82.316 92.9036 82.9944 92.2253 82.9944 91.3886C82.9944 90.5517 82.316 89.8735 81.4793 89.8735H74.3848C73.5481 89.8735 72.8698 90.5517 72.8698 91.3886V108.226C72.8698 109.063 73.5481 109.741 74.3848 109.741H81.4793C82.316 109.741 82.9944 109.063 82.9944 108.226C82.9944 107.389 82.316 106.711 81.4793 106.711H75.8998V101.323H80.9563C81.793 101.323 82.4713 100.644 82.4713 99.8075C82.4713 98.9706 81.793 98.2925 80.9563 98.2925H75.8998V92.9038H81.4793V92.9036Z" fill="white"/>
<path d="M63.5203 106.789C61.6623 106.789 59.8684 106.033 58.7215 104.767C58.1596 104.147 57.2016 104.1 56.5815 104.662C55.9614 105.224 55.9143 106.182 56.4762 106.802C58.1879 108.691 60.8211 109.819 63.5203 109.819C66.753 109.819 69.5692 107.699 70.0713 104.887C70.6504 101.644 68.1 99.4712 65.5203 98.5198C63.3336 97.7132 61.3051 96.8325 60.7932 96.6077C60.2502 96.2098 59.9868 95.5741 60.0854 94.8868C60.2096 94.0214 60.8746 93.3268 61.8643 93.0286C64.5905 92.2069 67.0541 94.1825 67.1026 94.2219C67.743 94.7555 68.695 94.6714 69.2317 94.0327C69.77 93.3921 69.6873 92.4364 69.0469 91.8979C68.8965 91.7717 65.3207 88.8229 60.9901 90.127C58.8737 90.7647 57.3778 92.4235 57.086 94.4559C56.8143 96.3485 57.6338 98.1684 59.2248 99.2057C59.2918 99.2495 59.3621 99.2878 59.4352 99.3204C59.5327 99.3637 61.8549 100.398 64.4715 101.363C66.3502 102.056 67.3039 103.146 67.0883 104.355C66.8776 105.535 65.5555 106.789 63.5203 106.789Z" fill="white"/>
<path d="M104.509 99.8077C104.509 94.2874 100.018 89.7964 94.4975 89.7964C88.9772 89.7964 84.4862 94.2876 84.4862 99.8077C84.4862 105.328 88.9774 109.819 94.4975 109.819C100.018 109.819 104.509 105.328 104.509 99.8077ZM87.5161 99.8077C87.5161 95.9581 90.6479 92.8265 94.4973 92.8265C98.3468 92.8265 101.479 95.9581 101.479 99.8077C101.479 103.657 98.3468 106.789 94.4973 106.789C90.6479 106.789 87.5161 103.657 87.5161 99.8077Z" fill="white"/>
</g>
<defs>
<clipPath id="clip0_592_542">
<rect width="100" height="100" fill="white" transform="translate(26 26)"/>
</clipPath>
</defs>
</svg>
