<svg width="152" height="152" viewBox="0 0 152 152" fill="none" xmlns="http://www.w3.org/2000/svg">
<circle cx="76" cy="76" r="76" fill="#FFFDFD"/>
<g clip-path="url(#clip0_577_546)">
<path fill-rule="evenodd" clip-rule="evenodd" d="M123.247 50.4289V46.3281C123.247 44.102 121.431 42.2274 119.146 42.2274L78.9584 42.2859L83.2935 50.4289H123.247ZM57.8102 48.73C52.4792 48.73 52.4792 40.7042 57.8102 40.7042C59.9777 40.7042 61.7938 42.5203 61.7938 44.7464C61.7938 46.9139 59.9777 48.73 57.8102 48.73ZM60.8565 108.953C57.693 108.953 55.174 106.199 55.5841 103.036L56.4042 96.7089H50.8975C48.0269 96.7089 45.6251 94.307 45.6251 91.4365C45.6251 88.5074 48.0269 86.1641 50.8975 86.1641H57.7516L58.5132 80.013H50.8975C48.0269 80.013 45.6251 77.6111 45.6251 74.7405C45.6251 71.8114 48.0269 69.4681 50.8975 69.4681H59.8606L60.8565 61.7939C61.208 58.8647 63.8442 56.8144 66.7147 57.2244C69.6438 57.5759 71.6942 60.2121 71.2841 63.0827L70.5226 69.4681H84.9338L85.9297 61.7939C86.5155 57.1073 92.4323 55.5255 95.3029 59.2162C96.1816 60.3293 96.5331 61.6767 96.3574 63.0827L95.5958 69.4681H101.044C103.973 69.4681 106.316 71.8114 106.316 74.7405C106.316 77.6111 103.973 80.013 101.044 80.013H94.2484L93.4282 86.1641H101.044C103.973 86.1641 106.316 88.5074 106.316 91.4365C106.316 94.307 103.973 96.7089 101.044 96.7089H92.0808L91.1435 104.383C90.5577 109.011 84.5823 110.651 81.7118 106.902C80.8916 105.789 80.4815 104.442 80.6573 103.036L81.4774 96.7089H67.0076L66.0703 104.383C65.7188 106.961 63.4927 108.953 60.8565 108.953ZM50.8975 88.8589C47.5583 88.8589 47.5583 93.9555 50.8975 93.9555H57.9274C58.7475 93.9555 59.3919 94.6585 59.3333 95.4787L58.3374 103.387C57.8688 106.726 62.9069 107.312 63.3755 104.032L64.4886 95.1272C64.5472 94.4828 65.133 93.9555 65.836 93.9555H83.0592C83.8207 93.9555 84.4651 94.6585 84.4066 95.4787L83.4107 103.387C82.942 106.726 87.9801 107.312 88.4487 104.032L89.5618 95.1272C89.6204 94.4828 90.2062 93.9555 90.9092 93.9555H101.044C104.383 93.9555 104.383 88.8589 101.044 88.8589H91.9051C91.0849 88.8589 90.4405 88.1559 90.5577 87.3357L91.6708 78.4312C91.7879 77.7282 92.3152 77.2596 93.0182 77.2596H101.044C104.383 77.2596 104.383 72.1629 101.044 72.1629H94.0141C93.1939 72.1629 92.5495 71.4599 92.6667 70.6398L93.6626 62.7312C94.0726 59.4506 89.0346 58.8062 88.6245 62.0868L87.5114 70.9913C87.3943 71.6357 86.8084 72.1629 86.164 72.1629H68.9408C68.1207 72.1629 67.4763 71.4599 67.5934 70.6398L68.5893 62.7312C68.9994 59.4506 63.9613 58.7476 63.5513 62.0868L62.4382 70.9913C62.321 71.6357 61.7352 72.1629 61.0908 72.1629H50.8975C47.5583 72.1629 47.5583 77.2596 50.8975 77.2596H60.0949C60.9151 77.2596 61.5595 77.9626 61.4423 78.7827L60.2707 87.6872C60.2121 88.3316 59.6262 88.8589 58.9233 88.8589H50.8975ZM83.9965 88.8589H66.8319C66.0117 88.8589 65.3673 88.1559 65.4845 87.3357L66.5975 78.4312C66.6561 77.7282 67.2419 77.2596 67.9449 77.2596H85.1681C85.9883 77.2596 86.6327 77.9626 86.5155 78.7827L85.4025 87.6872C85.2853 88.3316 84.6995 88.8589 83.9965 88.8589ZM68.355 86.1641H82.8248L83.5864 79.9544H69.1752L68.355 86.1641ZM120.903 115.69H31.0967C28.2847 115.69 26 113.405 26 110.593V44.7464C26 40.0598 29.8079 36.3105 34.4359 36.3105H74.9748C76.205 36.3105 76.6737 37.9509 77.4939 39.5326H119.146C122.895 39.5326 126 42.5789 126 46.3281V110.593C126 113.405 123.715 115.69 120.903 115.69ZM28.7534 50.4289H80.1886L74.1547 39.0053H34.4359C31.2724 39.0053 28.7534 41.583 28.7534 44.7464V50.4289ZM28.7534 53.1823V110.593C28.7534 111.882 29.8079 112.936 31.0967 112.936H120.903C122.192 112.936 123.247 111.882 123.247 110.593V53.1823H28.7534ZM37.8336 48.73C32.5612 48.73 32.5612 40.7042 37.8336 40.7042C43.106 40.7042 43.106 48.73 37.8336 48.73ZM37.8336 43.4576C36.1933 43.4576 36.1933 46.0352 37.8336 46.0352C39.5325 46.0352 39.5325 43.4576 37.8336 43.4576ZM47.7926 48.73C42.5202 48.73 42.5202 40.7042 47.7926 40.7042C53.1236 40.7042 53.1236 48.73 47.7926 48.73ZM47.7926 43.4576C46.1523 43.4576 46.1523 46.0352 47.7926 46.0352C49.4915 46.0352 49.4915 43.4576 47.7926 43.4576ZM57.8102 43.4576C56.1113 43.4576 56.1113 46.0352 57.8102 46.0352C59.4505 46.0352 59.4505 43.4576 57.8102 43.4576Z" fill="#003B7D"/>
</g>
<defs>
<clipPath id="clip0_577_546">
<rect width="100" height="100" fill="white" transform="translate(26 26)"/>
</clipPath>
</defs>
</svg>
