<svg width="102" height="102" viewBox="0 0 102 102" fill="none" xmlns="http://www.w3.org/2000/svg">
<circle cx="51" cy="51" r="51" fill="#00549A"/>
<g clip-path="url(#clip0_1614_824)">
<path d="M66.062 40.1379H67.4627V45.6665C67.4627 46.1469 67.852 46.5362 68.3325 46.5362C68.8129 46.5362 69.2022 46.1469 69.2022 45.6665V40.1379H70.6028C71.0833 40.1379 71.4726 39.7486 71.4726 39.2682C71.4726 38.7878 71.0833 38.3985 70.6028 38.3985H69.2022V35.8716C69.2022 35.3859 69.5972 34.9909 70.0829 34.9909H72.1438C72.6242 34.9909 73.0135 34.6016 73.0135 34.1212C73.0135 33.6407 72.6242 33.2514 72.1438 33.2514H70.0829C68.6382 33.2514 67.4627 34.4269 67.4627 35.8716V38.3985H66.062C65.5815 38.3985 65.1922 38.7878 65.1922 39.2682C65.1922 39.7486 65.5817 40.1379 66.062 40.1379ZM50.3128 27.0396C50.7931 27.0396 51.1826 26.6502 51.1826 26.1699C51.1826 25.6896 50.7931 25.3001 50.3128 25.3001C49.8325 25.3001 49.4431 25.6896 49.4431 26.1699C49.4431 26.6502 49.8324 27.0396 50.3128 27.0396ZM31.5226 42.1516C32.9612 42.1516 34.1318 40.981 34.1318 39.5423C34.1318 38.1037 32.9612 36.9331 31.5226 36.9331C30.0839 36.9331 28.9133 38.1037 28.9133 39.5423C28.9133 40.981 30.0839 42.1516 31.5226 42.1516ZM31.5226 38.6726C32.0022 38.6726 32.3923 39.0627 32.3923 39.5423C32.3923 40.022 32.0022 40.4121 31.5226 40.4121C31.0429 40.4121 30.6528 40.022 30.6528 39.5423C30.6528 39.0627 31.0431 38.6726 31.5226 38.6726ZM35.0015 45.6305C36.4402 45.6305 37.6108 44.46 37.6108 43.0213V36.0634C37.6108 34.6247 36.4402 33.4541 35.0015 33.4541H28.0436C26.6049 33.4541 25.4344 34.6247 25.4344 36.0634V43.0213C25.4344 44.46 26.6049 45.6305 28.0436 45.6305H35.0015ZM27.1739 43.0213V36.0634C27.1739 35.5837 27.564 35.1936 28.0436 35.1936H35.0015C35.4812 35.1936 35.8713 35.5837 35.8713 36.0634V43.0213C35.8713 43.5009 35.4812 43.891 35.0015 43.891H28.0436C27.5641 43.891 27.1739 43.5008 27.1739 43.0213ZM36.7937 58.5141C36.3714 58.1964 35.8126 58.1431 35.3349 58.3745C35.2178 58.4312 35.0948 58.4741 34.9692 58.5022C34.8159 58.5365 34.6598 58.5492 34.5025 58.5396C33.99 58.0685 33.3378 57.7866 32.6331 57.7376C31.8117 57.6795 31.0157 57.9465 30.3936 58.4874C29.8198 58.9865 29.4555 59.6723 29.3589 60.4154C28.3469 60.2523 27.4197 59.7401 26.736 58.9489C26.4555 58.6241 26.0208 58.4789 25.6028 58.5695C25.1868 58.6595 24.8539 58.9694 24.7338 59.3778C24.4412 60.3717 23.8237 63.4166 26.394 65.4467C25.9035 65.5963 25.344 65.5851 25.058 66.0819C24.8 66.5297 24.9379 67.0573 25.0431 67.332C25.2486 67.8684 25.7848 68.2546 26.6366 68.4797C27.1015 68.6026 27.7092 68.682 28.3939 68.682C29.9822 68.6819 31.9836 68.2544 33.5697 66.95C35.1504 65.6499 35.7968 63.8775 36.0575 62.5326C36.4633 62.0702 36.7847 61.5482 37.0147 60.9774C37.1585 60.6202 37.2644 60.2464 37.3297 59.8659C37.4184 59.3473 37.2131 58.8293 36.7937 58.5141ZM34.6217 61.5244C34.4986 61.6516 34.417 61.8133 34.3882 61.9881C34.2107 63.0632 33.7329 64.5636 32.4648 65.6065C30.9316 66.8673 28.7736 67.0444 27.5325 66.8846C27.9467 66.7127 28.3436 66.4993 28.7131 66.2485C28.9743 66.0712 29.1191 65.7662 29.091 65.4516C29.0629 65.1371 28.8665 64.8625 28.5779 64.7341C26.4122 63.7715 26.071 62.1329 26.2055 60.8476C27.3313 61.7596 28.7486 62.2505 30.2255 62.209C30.6969 62.1968 31.0727 61.8111 31.0727 61.3396V60.845C31.0727 60.8412 31.0727 60.8372 31.0726 60.8333C31.0673 60.4367 31.2359 60.0599 31.5352 59.7997C31.8065 59.5637 32.1533 59.4479 32.5121 59.4725C32.8708 59.4976 33.1983 59.6607 33.4341 59.932C33.5607 60.0774 33.7316 60.1766 33.9206 60.2142C34.4354 60.3166 34.9564 60.3034 35.4595 60.173C35.2819 60.6786 34.9971 61.137 34.6217 61.5244ZM69.1029 52.3096C69.0823 52.3096 69.0619 52.3104 69.0413 52.3105V50.4386C69.0619 50.4387 69.0823 50.4394 69.1029 50.4394C75.1116 50.4394 80 45.5511 80 39.5423C80 33.5092 75.0722 28.6119 69.0413 28.6461V27.8214C69.0413 24.7841 66.5701 22.313 63.5329 22.313H37.0927C34.0555 22.313 31.5844 24.7841 31.5844 27.8214V28.6461C29.4536 28.6337 27.3862 29.2368 25.6054 30.3903C25.2022 30.6515 25.0871 31.19 25.3482 31.5931C25.6095 31.9963 26.1479 32.1115 26.551 31.8503C28.0311 30.8915 29.7503 30.3848 31.5226 30.3848C36.5721 30.3848 40.6801 34.4929 40.6801 39.5423C40.6801 44.5918 36.5721 48.6999 31.5226 48.6999C26.4731 48.6999 22.365 44.5918 22.365 39.5423C22.365 37.7117 22.9032 35.9451 23.9211 34.4336C24.1894 34.0351 24.084 33.4947 23.6856 33.2264C23.2872 32.9583 22.7468 33.0636 22.4784 33.4619C21.2663 35.2617 20.6255 37.3642 20.6255 39.5423C20.6255 45.551 25.5138 50.4394 31.5226 50.4394C31.5432 50.4394 31.5636 50.4387 31.5843 50.4386V52.3319C31.3569 52.3177 31.1278 52.3097 30.8969 52.3097C24.8883 52.3096 20 57.198 20 63.2066C20 69.2153 24.8883 74.1038 30.8971 74.1038C31.1279 74.1038 31.357 74.0957 31.5844 74.0815V76.179C31.5844 79.2162 34.0555 81.6874 37.0927 81.6874H63.5329C66.5701 81.6874 69.0413 79.2162 69.0413 76.179V74.1031C69.0619 74.1032 69.0823 74.1039 69.1029 74.1039C75.1116 74.1039 80 69.2155 80 63.2067C80 57.198 75.1116 52.3096 69.1029 52.3096ZM69.1029 30.3848C74.1524 30.3848 78.2605 34.4929 78.2605 39.5423C78.2605 44.5918 74.1524 48.6999 69.1029 48.6999C64.0535 48.6999 59.9454 44.5918 59.9454 39.5423C59.9454 34.4929 64.0535 30.3848 69.1029 30.3848ZM67.3018 50.2896V52.4573C66.7071 52.5554 66.1258 52.7021 65.5623 52.8945V49.8483C66.1229 50.0415 66.7042 50.1898 67.3018 50.2896ZM35.0633 28.4011V29.2361C34.5027 29.0429 33.9214 28.8947 33.3239 28.7949V27.8212C33.3239 25.743 35.0145 24.0524 37.0927 24.0524H63.5329C65.6111 24.0524 67.3018 25.743 67.3018 27.8212V28.7949C66.7042 28.8947 66.123 29.0429 65.5623 29.2361V28.4011C65.5623 26.9624 64.3917 25.7918 62.9531 25.7918H59.7582C58.7671 25.7918 57.9607 26.5981 57.9607 27.5893C57.9607 27.9742 57.6475 28.2874 57.2625 28.2874H43.363C42.9781 28.2874 42.6648 27.9743 42.6648 27.5893C42.6648 27.1086 42.478 26.6572 42.1363 26.3157C41.796 25.978 41.3454 25.7918 40.8673 25.7918H37.6725C36.2338 25.7918 35.0633 26.9624 35.0633 28.4011ZM33.3239 50.2896C33.9214 50.1897 34.5027 50.0415 35.0633 49.8483V53.138C34.5052 52.9062 33.924 52.7193 33.3239 52.5823V50.2896ZM30.8971 72.3643C25.8476 72.3643 21.7395 68.2562 21.7395 63.2066C21.7395 58.1571 25.8476 54.0491 30.8971 54.0491C35.9465 54.0491 40.0546 58.1571 40.0546 63.2066C40.0546 68.5439 35.8415 72.3643 30.8971 72.3643ZM67.3018 76.1789C67.3018 78.2571 65.6111 79.9478 63.5329 79.9478H37.0927C35.0145 79.9478 33.3239 78.2571 33.3239 76.1789V73.831C33.924 73.6941 34.5052 73.507 35.0633 73.2752V75.599C35.0633 77.0377 36.2339 78.2083 37.6726 78.2083H62.9531C64.3917 78.2083 65.5623 77.0377 65.5623 75.599V73.5128C66.123 73.706 66.7042 73.8542 67.3018 73.9541V76.1789ZM69.1029 72.3643C64.0535 72.3643 59.9454 68.2562 59.9454 63.2066C59.9454 62.4219 60.0445 61.6429 60.2404 60.8914C60.3615 60.4265 60.0828 59.9516 59.618 59.8305C59.1531 59.7092 58.6782 59.9881 58.5572 60.4529C58.3241 61.3476 58.206 62.274 58.206 63.2066C58.206 67.3008 60.4759 70.8741 63.8229 72.7361V75.599C63.8229 76.0787 63.4328 76.4688 62.9532 76.4688H37.6727C37.1931 76.4688 36.8029 76.0787 36.8029 75.599V72.3605C39.8041 70.4175 41.7942 67.0402 41.7942 63.2066C41.7942 59.373 39.8041 55.9958 36.8029 54.0528V49.0716C40.1499 47.2096 42.4199 43.6363 42.4199 39.5422C42.4199 35.4482 40.1499 31.8748 36.8029 30.0129V28.4011C36.8029 27.9214 37.1931 27.5313 37.6727 27.5313H40.8675C40.8839 27.5313 40.8986 27.5377 40.9088 27.548C40.9238 27.5629 40.9255 27.5788 40.9255 27.5893C40.9255 28.9333 42.0191 30.0269 43.3632 30.0269H57.2627C58.6069 30.0269 59.7005 28.9333 59.7005 27.5893C59.7005 27.5574 59.7266 27.5313 59.7584 27.5313H62.9533C63.4329 27.5313 63.823 27.9214 63.823 28.4011V30.0129C60.476 31.8748 58.2061 35.4482 58.2061 39.5422C58.2061 43.6388 60.4788 47.214 63.8292 49.0751C63.8255 49.1079 63.823 49.1412 63.823 49.175V53.6663C62.5405 54.3773 61.3981 55.3526 60.4685 56.5583C60.1752 56.9387 60.2458 57.4848 60.6262 57.7782C61.0068 58.0715 61.5527 58.001 61.8461 57.6204C63.5959 55.3498 66.2035 54.0491 69.1032 54.0491C74.1527 54.0491 78.2607 58.1571 78.2607 63.2066C78.2605 68.2562 74.1524 72.3643 69.1029 72.3643ZM53.5 51.7125C53.0894 51.4635 52.5545 51.5941 52.3051 52.0046C52.1439 52.27 51.9167 52.4974 51.6559 52.6662C51.4046 52.8287 51.0774 52.8334 50.8218 52.6782L49.5201 51.888C49.2605 51.7304 49.1186 51.4279 49.1479 51.1212C49.1769 50.8185 49.2757 50.521 49.4336 50.2612C49.6829 49.8505 49.5522 49.3157 49.1417 49.0662C48.7313 48.8169 48.1962 48.9475 47.9468 49.3581C47.6536 49.8409 47.4702 50.3932 47.416 50.9587L47.4144 50.9762C47.3225 51.9338 47.7946 52.8752 48.6171 53.3749L49.9188 54.1651C50.3191 54.4083 50.774 54.5295 51.2287 54.5295C51.7081 54.5295 52.1873 54.3947 52.6015 54.1263C53.0815 53.8153 53.4954 53.3963 53.792 52.9075C54.0413 52.4966 53.9105 51.9618 53.5 51.7125ZM73.6795 62.274L67.5811 58.7513C66.7923 58.287 65.7644 58.8906 65.7713 59.7962V66.8417C65.7631 67.7452 66.7986 68.3481 67.581 67.8865L73.6794 64.364C74.468 63.917 74.4651 62.7189 73.6795 62.274ZM67.5106 65.9184V60.7195L72.0108 63.319L67.5106 65.9184ZM50.1016 44.1243C46.0597 44.2302 42.6984 47.4729 42.4495 51.5064C42.386 52.5336 42.5195 53.5454 42.8459 54.5142L41.9198 57.1488C41.7481 57.6373 41.8689 58.168 42.2349 58.5341C42.6009 58.9001 43.1318 59.0208 43.6201 58.8492L45.4569 58.2036C46.898 59.3334 48.6999 59.9254 50.5309 59.8757C54.7408 59.7616 58.1774 56.2406 58.1914 52.027C58.1986 49.8781 57.3562 47.8675 55.8194 46.3655C54.283 44.8638 52.2513 44.0666 50.1016 44.1243ZM50.4837 58.1368C49.0475 58.1734 47.6402 57.7096 46.517 56.8243C46.2102 56.5823 45.8407 56.4565 45.4666 56.4565C45.28 56.4565 45.0922 56.4878 44.9106 56.5517L43.8412 56.9275L44.4938 55.0713C44.6181 54.7177 44.6208 54.3297 44.501 53.9788C44.2417 53.218 44.1356 52.4223 44.1854 51.6135C44.3794 48.4715 46.9981 45.9456 50.147 45.8629C51.8235 45.8175 53.4061 46.4393 54.6033 47.6094C55.8008 48.7798 56.4571 50.3466 56.4516 52.0209C56.4408 55.3044 53.7635 58.0479 50.4837 58.1368Z" fill="white"/>
</g>
<defs>
<clipPath id="clip0_1614_824">
<rect width="60" height="60" fill="white" transform="translate(20 22)"/>
</clipPath>
</defs>
</svg>
