<svg width="210" height="210" viewBox="0 0 210 210" fill="none" xmlns="http://www.w3.org/2000/svg">
<circle cx="105" cy="105" r="105" fill="#D9D9D9"/>
<g clip-path="url(#clip0_841_547)">
<path d="M116.577 33.5705C118.103 36.8349 114.868 37.7596 111.162 39.5093C107.456 41.259 104.683 43.1712 103.156 39.9067C101.629 36.6423 100.39 30.1629 105.633 27.6877C111.057 25.1271 115.05 30.306 116.577 33.5705Z" fill="#2F2E41"/>
<path d="M109.015 39.9902C111.77 39.9902 114.004 37.7459 114.004 34.9775C114.004 32.2091 111.77 29.9648 109.015 29.9648C106.259 29.9648 104.025 32.2091 104.025 34.9775C104.025 37.7459 106.259 39.9902 109.015 39.9902Z" fill="#FFB8B8"/>
<path d="M133.732 57.2076C133.56 56.9811 133.387 56.7586 133.212 56.5423C132.987 56.2606 132.76 55.9878 132.532 55.7239C129.946 52.7258 127.195 50.838 124.167 50.6359H124.163L124.118 50.6318L118.083 56.5423L116.031 58.5505L116.076 58.6607L117.183 61.4302H136.58C135.706 59.9729 134.756 58.5634 133.732 57.2076Z" fill="#2F2E41"/>
<path d="M103.589 36.9956L105.375 36.1524L105.126 33.5639L106.321 35.7061L107.174 35.303L107.029 33.7931L107.726 35.0427L114.069 32.0481C113.473 30.7744 112.398 29.7906 111.08 29.3132C109.763 28.8358 108.31 28.9038 107.042 29.5023L106.123 29.9363C104.855 30.5349 103.876 31.6148 103.401 32.9387C102.926 34.2626 102.994 35.7219 103.589 36.9956Z" fill="#2F2E41"/>
<path d="M144.925 127.984H40.7501C39.8615 127.983 39.0096 127.627 38.3812 126.996C37.7529 126.365 37.3994 125.509 37.3984 124.616V61.7249C37.3992 61.0709 37.6581 60.4438 38.1184 59.9813C38.5787 59.5187 39.2029 59.2586 39.8539 59.2578H145.778C146.441 59.2586 147.076 59.5232 147.544 59.9937C148.012 60.4643 148.276 61.1022 148.276 61.7676V124.616C148.275 125.509 147.922 126.365 147.294 126.996C146.665 127.627 145.813 127.983 144.925 127.984Z" fill="#F2F2F2"/>
<path d="M44.0001 124.616H141.674C142.536 124.616 143.363 124.272 143.973 123.66C144.582 123.047 144.925 122.217 144.925 121.351V67.9715C144.925 67.1054 144.582 66.2749 143.973 65.6625C143.363 65.0501 142.536 64.7061 141.674 64.7061H44.0001C43.1381 64.7061 42.3115 65.0501 41.7019 65.6625C41.0924 66.2749 40.75 67.1054 40.75 67.9715V121.351C40.75 122.217 41.0924 123.047 41.7019 123.66C42.3115 124.272 43.1381 124.616 44.0001 124.616Z" fill="white"/>
<path d="M148.23 61.5325H37.3516V59.8181C37.3529 58.9223 37.7077 58.0636 38.3384 57.4304C38.969 56.7972 39.8239 56.4412 40.7155 56.4404H144.866C145.758 56.4412 146.612 56.7972 147.243 57.4304C147.874 58.0636 148.229 58.9223 148.23 59.8181V61.5325Z" fill="#6C63FF"/>
<path d="M43.4639 59.8656C43.9444 59.8656 44.334 59.4742 44.334 58.9914C44.334 58.5086 43.9444 58.1172 43.4639 58.1172C42.9833 58.1172 42.5938 58.5086 42.5938 58.9914C42.5938 59.4742 42.9833 59.8656 43.4639 59.8656Z" fill="white"/>
<path d="M46.7666 59.8656C47.2471 59.8656 47.6367 59.4742 47.6367 58.9914C47.6367 58.5086 47.2471 58.1172 46.7666 58.1172C46.286 58.1172 45.8965 58.5086 45.8965 58.9914C45.8965 59.4742 46.286 59.8656 46.7666 59.8656Z" fill="white"/>
<path d="M50.0693 59.8656C50.5499 59.8656 50.9394 59.4742 50.9394 58.9914C50.9394 58.5086 50.5499 58.1172 50.0693 58.1172C49.5888 58.1172 49.1992 58.5086 49.1992 58.9914C49.1992 59.4742 49.5888 59.8656 50.0693 59.8656Z" fill="white"/>
<path d="M95.8852 113.04H87.1505C86.6388 113.04 86.1483 112.835 85.7866 112.472C85.4248 112.108 85.2213 111.615 85.2207 111.101V102.326C85.2213 101.812 85.4248 101.319 85.7866 100.955C86.1483 100.592 86.6388 100.387 87.1505 100.387H95.8852C96.3968 100.387 96.8873 100.592 97.2491 100.955C97.6109 101.319 97.8144 101.812 97.815 102.326V111.101C97.8144 111.615 97.6109 112.108 97.2491 112.472C96.8873 112.835 96.3968 113.04 95.8852 113.04ZM87.1505 100.795C86.7466 100.795 86.3593 100.957 86.0737 101.244C85.7881 101.531 85.6274 101.92 85.627 102.326V111.101C85.6274 111.507 85.7881 111.896 86.0737 112.183C86.3593 112.47 86.7466 112.632 87.1505 112.632H95.8852C96.2891 112.632 96.6764 112.47 96.962 112.183C97.2476 111.896 97.4083 111.507 97.4087 111.101V102.326C97.4083 101.92 97.2476 101.531 96.962 101.244C96.6764 100.957 96.2891 100.795 95.8852 100.795H87.1505Z" fill="#CCCCCC"/>
<path d="M94.1584 110.591H88.877C88.7154 110.591 88.5605 110.526 88.4463 110.411C88.332 110.297 88.2678 110.141 88.2676 109.979V103.448C88.2678 103.285 88.332 103.13 88.4463 103.015C88.5605 102.9 88.7154 102.836 88.877 102.835H92.7039C92.8427 102.836 92.9774 102.883 93.0856 102.97L94.5401 104.145C94.6114 104.202 94.6688 104.275 94.7083 104.357C94.7477 104.44 94.7681 104.53 94.7678 104.622V109.979C94.7677 110.141 94.7034 110.297 94.5892 110.411C94.4749 110.526 94.32 110.591 94.1584 110.591ZM88.877 103.244C88.8231 103.244 88.7715 103.265 88.7334 103.303C88.6953 103.342 88.6739 103.394 88.6738 103.448V109.979C88.6739 110.033 88.6953 110.085 88.7334 110.123C88.7715 110.161 88.8231 110.183 88.877 110.183H94.1584C94.2123 110.183 94.2639 110.161 94.302 110.123C94.3401 110.085 94.3615 110.033 94.3616 109.979V104.622C94.3617 104.591 94.3549 104.561 94.3417 104.534C94.3286 104.506 94.3094 104.482 94.2857 104.463L92.831 103.289C92.795 103.26 92.7501 103.244 92.7039 103.244H88.877Z" fill="#CCCCCC"/>
<path d="M93.1427 105.693H89.8926C89.8387 105.693 89.787 105.671 89.7489 105.633C89.7108 105.595 89.6895 105.543 89.6895 105.489C89.6895 105.435 89.7108 105.383 89.7489 105.344C89.787 105.306 89.8387 105.285 89.8926 105.285H93.1427C93.1966 105.285 93.2483 105.306 93.2864 105.344C93.3244 105.383 93.3459 105.435 93.3459 105.489C93.3459 105.543 93.3244 105.595 93.2864 105.633C93.2483 105.671 93.1966 105.693 93.1427 105.693Z" fill="#CCCCCC"/>
<path d="M93.1427 106.917H89.8926C89.8387 106.917 89.787 106.896 89.7489 106.858C89.7108 106.819 89.6895 106.767 89.6895 106.713C89.6895 106.659 89.7108 106.607 89.7489 106.569C89.787 106.531 89.8387 106.509 89.8926 106.509H93.1427C93.1966 106.509 93.2483 106.531 93.2864 106.569C93.3244 106.607 93.3459 106.659 93.3459 106.713C93.3459 106.767 93.3244 106.819 93.2864 106.858C93.2483 106.896 93.1966 106.917 93.1427 106.917Z" fill="#CCCCCC"/>
<path d="M93.1427 108.142H89.8926C89.8387 108.142 89.787 108.121 89.7489 108.082C89.7108 108.044 89.6895 107.992 89.6895 107.938C89.6895 107.884 89.7108 107.832 89.7489 107.794C89.787 107.755 89.8387 107.734 89.8926 107.734H93.1427C93.1966 107.734 93.2483 107.755 93.2864 107.794C93.3244 107.832 93.3459 107.884 93.3459 107.938C93.3459 107.992 93.3244 108.044 93.2864 108.082C93.2483 108.121 93.1966 108.142 93.1427 108.142Z" fill="#CCCCCC"/>
<path d="M116.604 113.04H107.869C107.358 113.04 106.867 112.835 106.505 112.472C106.144 112.108 105.94 111.615 105.939 111.101V102.326C105.94 101.812 106.144 101.319 106.505 100.955C106.867 100.592 107.358 100.387 107.869 100.387H116.604C117.116 100.387 117.606 100.592 117.968 100.955C118.33 101.319 118.533 101.812 118.534 102.326V111.101C118.533 111.615 118.33 112.108 117.968 112.472C117.606 112.835 117.116 113.04 116.604 113.04ZM107.869 100.795C107.465 100.795 107.078 100.957 106.792 101.244C106.507 101.531 106.346 101.92 106.346 102.326V111.101C106.346 111.507 106.507 111.896 106.792 112.183C107.078 112.47 107.465 112.632 107.869 112.632H116.604C117.008 112.632 117.395 112.47 117.681 112.183C117.966 111.896 118.127 111.507 118.127 111.101V102.326C118.127 101.92 117.966 101.531 117.681 101.244C117.395 100.957 117.008 100.795 116.604 100.795H107.869Z" fill="#CCCCCC"/>
<path d="M115.08 108.958H109.393C109.231 108.958 109.076 108.894 108.962 108.779C108.848 108.664 108.783 108.508 108.783 108.346V105.081C108.783 104.918 108.848 104.763 108.962 104.648C109.076 104.533 109.231 104.468 109.393 104.468H115.08C115.242 104.468 115.397 104.533 115.511 104.648C115.625 104.763 115.69 104.918 115.69 105.081V108.346C115.69 108.508 115.625 108.664 115.511 108.779C115.397 108.894 115.242 108.958 115.08 108.958ZM109.393 104.876C109.339 104.876 109.287 104.898 109.249 104.936C109.211 104.975 109.19 105.026 109.189 105.081V108.346C109.19 108.4 109.211 108.452 109.249 108.49C109.287 108.528 109.339 108.55 109.393 108.55H115.08C115.134 108.55 115.186 108.528 115.224 108.49C115.262 108.452 115.283 108.4 115.283 108.346V105.081C115.283 105.026 115.262 104.975 115.224 104.936C115.186 104.898 115.134 104.876 115.08 104.876H109.393Z" fill="#CCCCCC"/>
<path d="M112.238 107.252C112.124 107.252 112.012 107.22 111.915 107.159L108.88 105.253C108.835 105.225 108.802 105.179 108.79 105.126C108.778 105.074 108.788 105.018 108.816 104.972C108.845 104.927 108.89 104.894 108.942 104.882C108.995 104.87 109.05 104.879 109.096 104.907L112.131 106.813C112.163 106.833 112.2 106.844 112.238 106.844C112.276 106.844 112.314 106.833 112.346 106.813L115.381 104.907C115.426 104.879 115.481 104.87 115.534 104.882C115.586 104.894 115.632 104.927 115.66 104.972C115.689 105.018 115.698 105.074 115.686 105.126C115.674 105.179 115.642 105.225 115.596 105.253L112.561 107.159C112.464 107.22 112.352 107.252 112.238 107.252Z" fill="#CCCCCC"/>
<path d="M75.1665 113.04H66.4317C65.9201 113.04 65.4296 112.835 65.0678 112.472C64.706 112.108 64.5025 111.615 64.502 111.101V102.326C64.5025 101.812 64.706 101.319 65.0678 100.955C65.4296 100.592 65.9201 100.387 66.4317 100.387H75.1665C75.6781 100.387 76.1686 100.592 76.5304 100.955C76.8921 101.319 77.0956 101.812 77.0962 102.326V111.101C77.0956 111.615 76.8921 112.108 76.5304 112.472C76.1686 112.835 75.6781 113.04 75.1665 113.04ZM66.4317 100.795C66.0278 100.795 65.6406 100.957 65.3549 101.244C65.0693 101.531 64.9087 101.92 64.9082 102.326V111.101C64.9087 111.507 65.0693 111.896 65.3549 112.183C65.6406 112.47 66.0278 112.632 66.4317 112.632H75.1665C75.5704 112.632 75.9576 112.47 76.2432 112.183C76.5289 111.896 76.6895 111.507 76.69 111.101V102.326C76.6895 101.92 76.5289 101.531 76.2432 101.244C75.9576 100.957 75.5704 100.795 75.1665 100.795H66.4317Z" fill="#CCCCCC"/>
<path d="M73.6428 108.958H67.9551C67.7935 108.958 67.6386 108.894 67.5244 108.779C67.4101 108.664 67.3459 108.508 67.3457 108.346V105.081C67.3459 104.918 67.4101 104.763 67.5244 104.648C67.6386 104.533 67.7935 104.468 67.9551 104.468H73.6428C73.8044 104.468 73.9593 104.533 74.0736 104.648C74.1878 104.763 74.2521 104.918 74.2522 105.081V108.346C74.2521 108.508 74.1878 108.664 74.0736 108.779C73.9593 108.894 73.8044 108.958 73.6428 108.958ZM67.9551 104.876C67.9012 104.876 67.8496 104.898 67.8115 104.936C67.7734 104.975 67.752 105.026 67.752 105.081V108.346C67.752 108.4 67.7734 108.452 67.8115 108.49C67.8496 108.528 67.9012 108.55 67.9551 108.55H73.6428C73.6967 108.55 73.7483 108.528 73.7864 108.49C73.8245 108.452 73.8459 108.4 73.846 108.346V105.081C73.8459 105.026 73.8245 104.975 73.7864 104.936C73.7483 104.898 73.6967 104.876 73.6428 104.876H67.9551Z" fill="#CCCCCC"/>
<path d="M72.7403 108.958H68.6524C68.5811 108.958 68.511 108.94 68.4492 108.904C68.3875 108.868 68.3362 108.816 68.3005 108.754C68.2648 108.692 68.2461 108.622 68.2461 108.55C68.2461 108.478 68.2649 108.408 68.3006 108.346L69.5319 106.203C69.5675 106.141 69.6188 106.09 69.6806 106.054C69.7424 106.018 69.8124 105.999 69.8837 105.999C69.9551 105.999 70.0251 106.018 70.0869 106.054C70.1487 106.09 70.1999 106.141 70.2356 106.203L71.0309 107.587L71.4916 106.785C71.5273 106.723 71.5785 106.672 71.6403 106.636C71.7021 106.6 71.7721 106.581 71.8435 106.581C71.9148 106.581 71.9848 106.6 72.0466 106.636C72.1084 106.672 72.1597 106.723 72.1953 106.785L73.0922 108.346C73.1278 108.408 73.1466 108.479 73.1466 108.55C73.1466 108.622 73.1278 108.692 73.0921 108.754C73.0565 108.816 73.0052 108.868 72.9434 108.904C72.8816 108.939 72.8116 108.958 72.7402 108.958H72.7403ZM72.7403 108.55L71.8434 106.989L71.2068 108.097C71.189 108.128 71.1634 108.154 71.1325 108.172C71.1016 108.19 71.0666 108.199 71.0309 108.199C70.9952 108.199 70.9602 108.19 70.9293 108.172C70.8984 108.154 70.8728 108.128 70.8549 108.097L69.8838 106.407L68.6524 108.55H72.7403Z" fill="#CCCCCC"/>
<path d="M73.0332 106.101C73.2576 106.101 73.4395 105.918 73.4395 105.693C73.4395 105.467 73.2576 105.285 73.0332 105.285C72.8088 105.285 72.627 105.467 72.627 105.693C72.627 105.918 72.8088 106.101 73.0332 106.101Z" fill="#CCCCCC"/>
<path d="M170.173 159.281L167.683 159.281L166.498 149.63L170.174 149.63L170.173 159.281Z" fill="#FFB8B8"/>
<path d="M170.809 161.706L162.779 161.706V161.604C162.779 161.192 162.86 160.783 163.017 160.402C163.174 160.021 163.404 159.675 163.695 159.384C163.985 159.092 164.33 158.861 164.709 158.703C165.088 158.545 165.494 158.464 165.905 158.464H165.905L170.809 158.464L170.809 161.706Z" fill="#2F2E41"/>
<path d="M180.331 159.281L177.841 159.281L176.656 149.63L180.332 149.63L180.331 159.281Z" fill="#FFB8B8"/>
<path d="M180.966 161.706L172.936 161.706V161.604C172.936 161.192 173.016 160.783 173.173 160.402C173.331 160.021 173.561 159.675 173.851 159.384C174.141 159.092 174.486 158.861 174.865 158.703C175.244 158.545 175.651 158.464 176.061 158.464H176.061L180.966 158.464L180.966 161.706Z" fill="#2F2E41"/>
<path d="M179.583 155.097L177.277 154.392C177.105 154.34 176.952 154.238 176.838 154.099C176.724 153.96 176.653 153.79 176.634 153.61L174.483 133.135C174.482 133.11 174.471 133.087 174.453 133.07C174.435 133.053 174.411 133.043 174.386 133.043C174.362 133.041 174.337 133.048 174.318 133.064C174.298 133.08 174.286 133.102 174.283 133.127L170.681 152.964C170.659 153.085 170.613 153.199 170.547 153.302C170.48 153.404 170.394 153.492 170.293 153.561C170.192 153.629 170.078 153.677 169.959 153.7C169.839 153.724 169.716 153.724 169.597 153.699L166.649 153.089C166.433 153.043 166.241 152.921 166.107 152.744C165.973 152.568 165.908 152.349 165.922 152.127L168.113 119.613L182.969 118.002L180.762 154.275C180.748 154.508 180.645 154.727 180.476 154.887C180.307 155.047 180.083 155.137 179.851 155.137C179.76 155.137 179.67 155.124 179.583 155.097Z" fill="#2F2E41"/>
<path d="M179.569 91.2983C182.325 91.2983 184.558 89.054 184.558 86.2856C184.558 83.5172 182.325 81.2729 179.569 81.2729C176.814 81.2729 174.58 83.5172 174.58 86.2856C174.58 89.054 176.814 91.2983 179.569 91.2983Z" fill="#FFB8B8"/>
<path d="M168.09 119.804L171.311 99.4249C171.482 98.3414 171.881 97.307 172.482 96.3905C173.082 95.4739 173.869 94.6963 174.792 94.1094C175.714 93.5224 176.751 93.1396 177.832 92.9864C178.913 92.8331 180.015 92.913 181.063 93.2207C182.895 93.7532 184.464 94.953 185.464 96.5857C186.463 98.2184 186.82 100.167 186.466 102.05L183.096 120.249L168.09 119.804Z" fill="#6C63FF"/>
<path d="M180.946 123.45C181.196 123.285 181.406 123.067 181.562 122.811C181.718 122.555 181.817 122.268 181.85 121.97C181.884 121.672 181.853 121.37 181.758 121.085C181.663 120.801 181.507 120.541 181.301 120.323L184.632 113.843L180.881 114.245L178.293 120.337C177.953 120.709 177.759 121.193 177.75 121.698C177.741 122.203 177.917 122.694 178.244 123.078C178.571 123.461 179.027 123.711 179.525 123.78C180.023 123.848 180.529 123.731 180.946 123.45V123.45Z" fill="#FFB8B8"/>
<path d="M181.66 119.18C181.476 119.154 181.304 119.072 181.167 118.945L179.893 117.762C179.755 117.634 179.66 117.466 179.62 117.282C179.581 117.097 179.598 116.905 179.671 116.731L182.218 110.666L181.856 98.6816C181.908 98.2963 182.035 97.9251 182.23 97.5892C182.425 97.2533 182.684 96.9593 182.992 96.7239C183.3 96.4886 183.651 96.3165 184.025 96.2176C184.399 96.1186 184.789 96.0947 185.172 96.1473C185.556 96.1998 185.925 96.3278 186.259 96.5238C186.593 96.7198 186.886 96.9801 187.12 97.2897C187.354 97.5994 187.525 97.9523 187.623 98.3283C187.721 98.7044 187.744 99.0962 187.692 99.4813L188.31 107.015C188.497 109.301 187.852 111.578 186.494 113.423L182.522 118.817C182.446 118.921 182.349 119.007 182.237 119.071C182.125 119.134 182.001 119.173 181.873 119.185C181.802 119.192 181.731 119.19 181.66 119.18Z" fill="#6C63FF"/>
<path d="M150.84 83.5542C150.894 83.8492 151.012 84.1287 151.185 84.3729C151.359 84.6171 151.584 84.8201 151.844 84.9677C152.104 85.1152 152.393 85.2036 152.69 85.2268C152.988 85.2499 153.287 85.2072 153.567 85.1016L158.208 90.7096L159.301 87.0826L154.727 82.3132C154.519 81.8531 154.151 81.4856 153.691 81.2803C153.232 81.0749 152.714 81.046 152.235 81.1989C151.755 81.3519 151.349 81.6762 151.092 82.1103C150.834 82.5444 150.745 83.0581 150.84 83.5542Z" fill="#FFB8B8"/>
<path d="M154.474 85.8788C154.57 85.7186 154.712 85.5914 154.881 85.5144L156.463 84.7966C156.634 84.7193 156.825 84.6968 157.009 84.732C157.194 84.7672 157.363 84.8586 157.494 84.9936L162.061 89.7147L173.185 94.0529C173.518 94.2511 173.809 94.5133 174.041 94.8245C174.273 95.1357 174.442 95.4898 174.537 95.8666C174.633 96.2433 174.654 96.6353 174.599 97.0202C174.544 97.405 174.413 97.7751 174.216 98.1094C174.018 98.4437 173.757 98.7355 173.447 98.9683C173.137 99.201 172.784 99.3701 172.409 99.4658C172.034 99.5615 171.644 99.582 171.261 99.5261C170.878 99.4702 170.51 99.339 170.177 99.14L163.032 96.7743C160.863 96.0566 159.027 94.5719 157.866 92.5962L154.471 86.8183C154.405 86.7072 154.364 86.5835 154.35 86.4554C154.335 86.3272 154.348 86.1973 154.386 86.0743C154.408 86.0059 154.437 85.9403 154.474 85.8788Z" fill="#6C63FF"/>
<path opacity="0.1" d="M183.617 103.667L183.414 110.198L179.672 116.731L182.796 109.45L183.617 103.667Z" fill="black"/>
<path d="M178.998 87.2275C178.684 87.2684 178.367 87.1936 178.104 87.0171C177.841 86.8406 177.651 86.5744 177.569 86.2678C177.49 85.9149 177.317 85.5903 177.068 85.3288C176.82 85.0673 176.505 84.8787 176.158 84.7833C175.242 84.5732 174.124 85.006 173.453 84.3093C173.31 84.1503 173.206 83.9592 173.15 83.7519C173.094 83.5446 173.089 83.327 173.133 83.117C173.257 82.44 173.739 81.9285 174.263 81.5195C175.367 80.6626 176.703 80.1611 178.096 80.0805C178.816 80.0595 179.538 80.0956 180.253 80.1883C181.002 80.2358 181.743 80.3718 182.46 80.5935C183.277 80.9033 184.003 81.415 184.571 82.0814C185.139 82.7477 185.531 83.5472 185.71 84.406C185.874 85.2674 185.849 86.1543 185.636 87.0049C185.424 87.8555 185.029 88.6493 184.48 89.3307C183.822 90.1536 182.974 90.8023 182.01 91.2203C181.78 91.3293 181.517 91.3427 181.277 91.2577C180.676 91.0177 180.775 90.2701 181.048 89.7714C181.342 89.2377 181.793 88.7211 181.557 88.0716C181.439 87.7704 181.212 87.5251 180.922 87.3846C180.324 87.0786 179.656 87.151 179.014 87.2255L178.998 87.2275Z" fill="#2F2E41"/>
<path d="M149.173 90.0584H87.4201C86.5314 90.0574 85.6795 89.7023 85.0512 89.071C84.4228 88.4397 84.0694 87.5838 84.0684 86.691V73.4251C84.0694 72.5323 84.4228 71.6764 85.0512 71.045C85.6795 70.4137 86.5314 70.0586 87.4201 70.0576H149.173C150.061 70.0586 150.913 70.4138 151.541 71.0451C152.17 71.6764 152.523 72.5323 152.524 73.4251V86.691C152.523 87.5838 152.17 88.4397 151.541 89.071C150.913 89.7023 150.061 90.0574 149.173 90.0584Z" fill="white"/>
<path d="M149.173 90.1605H87.4201C86.5045 90.1594 85.6268 89.7936 84.9794 89.1431C84.332 88.4927 83.9678 87.6108 83.9668 86.6909V73.4251C83.9678 72.5052 84.332 71.6234 84.9794 70.9729C85.6268 70.3225 86.5045 69.9566 87.4201 69.9556H149.173C150.088 69.9566 150.966 70.3225 151.613 70.9729C152.261 71.6234 152.625 72.5052 152.626 73.4251V86.6909C152.625 87.6108 152.261 88.4927 151.613 89.1431C150.966 89.7936 150.088 90.1594 149.173 90.1605ZM87.4201 70.3637C86.6122 70.3647 85.8377 70.6875 85.2665 71.2614C84.6953 71.8353 84.374 72.6135 84.3731 73.4251V86.6909C84.374 87.5026 84.6953 88.2807 85.2665 88.8546C85.8377 89.4286 86.6122 89.7514 87.4201 89.7523H149.173C149.98 89.7514 150.755 89.4286 151.326 88.8546C151.897 88.2807 152.219 87.5026 152.22 86.6909V73.4251C152.219 72.6135 151.897 71.8353 151.326 71.2614C150.755 70.6875 149.98 70.3647 149.173 70.3637H87.4201Z" fill="#3F3D56"/>
<path d="M141.656 86.7927H94.9357C94.0471 86.7917 93.1951 86.4366 92.5668 85.8053C91.9384 85.1739 91.585 84.318 91.584 83.4252V76.4861C91.585 75.5933 91.9384 74.7374 92.5668 74.1061C93.1951 73.4748 94.0471 73.1197 94.9357 73.1187H141.656C142.545 73.1197 143.397 73.4748 144.025 74.1061C144.654 74.7374 145.007 75.5933 145.008 76.4861V83.4252C145.007 84.318 144.654 85.1739 144.025 85.8053C143.397 86.4366 142.545 86.7917 141.656 86.7927Z" fill="#F2F2F2"/>
<path d="M104.989 83.0529C107.202 83.0529 108.997 81.2498 108.997 79.0257C108.997 76.8016 107.202 74.9985 104.989 74.9985C102.775 74.9985 100.98 76.8016 100.98 79.0257C100.98 81.2498 102.775 83.0529 104.989 83.0529Z" fill="#FF6584"/>
<path d="M138.752 86.3863L133.094 81.6188L127.534 76.9336C127.388 76.81 127.202 76.7424 127.011 76.7428C126.819 76.7431 126.634 76.8115 126.488 76.9357L120.945 81.6423L119.592 82.792L117.551 81.0721L111.348 75.8452C111.201 75.7215 111.015 75.6539 110.824 75.6543C110.632 75.6547 110.447 75.723 110.301 75.8472L104.118 81.0981L97.8376 86.4317C97.8058 86.4587 97.783 86.4949 97.7724 86.5353C97.7617 86.5758 97.7637 86.6186 97.7781 86.6579C97.7924 86.6972 97.8185 86.7311 97.8526 86.755C97.8868 86.7789 97.9275 86.7917 97.9692 86.7916L110.845 86.7667L114.921 86.7588L114.881 86.7927L127.03 86.7692L138.622 86.7467C138.664 86.7467 138.704 86.7337 138.738 86.7097C138.773 86.6856 138.798 86.6516 138.813 86.6122C138.827 86.5729 138.829 86.5301 138.818 86.4897C138.807 86.4493 138.784 86.4132 138.752 86.3863Z" fill="#3F3D56"/>
<path d="M191.797 162H152.795C152.741 162 152.689 161.978 152.651 161.94C152.613 161.902 152.592 161.85 152.592 161.796C152.592 161.742 152.613 161.69 152.651 161.652C152.689 161.613 152.741 161.592 152.795 161.592H191.797C191.85 161.592 191.902 161.613 191.94 161.652C191.978 161.69 192 161.742 192 161.796C192 161.85 191.978 161.902 191.94 161.94C191.902 161.978 191.85 162 191.797 162Z" fill="#CCCCCC"/>
<path d="M136.704 53.922C136.542 53.6572 136.327 53.4283 136.074 53.2493C135.821 53.0704 135.534 52.9451 135.231 52.8812C135.12 52.8577 135.007 52.8434 134.894 52.8383L119.417 38.9357C119.113 38.6218 118.708 38.4271 118.274 38.3867C118.188 38.3768 118.102 38.3741 118.016 38.3785C117.659 38.3948 117.314 38.5153 117.024 38.7253C116.734 38.9352 116.511 39.2255 116.383 39.5607C116.254 39.8958 116.226 40.2613 116.301 40.6124C116.376 40.9636 116.551 41.2852 116.805 41.5378L122.73 46.7279L132.46 55.2486C132.468 55.4091 132.492 55.5684 132.532 55.7241C132.648 56.1754 132.898 56.5804 133.249 56.8854C133.6 57.1905 134.035 57.3813 134.496 57.4324C134.916 57.4817 135.342 57.411 135.725 57.2283C136.028 57.0858 136.297 56.879 136.513 56.6221C136.535 56.5956 136.556 56.5711 136.576 56.5425C136.86 56.1707 137.024 55.7206 137.047 55.2524C137.07 54.7842 136.95 54.3201 136.704 53.922H136.704Z" fill="#FFB8B8"/>
<path d="M110.231 67.3203L110.087 61.4302L109.965 56.5423L109.882 53.1217L109.717 46.4541C109.685 46.0971 109.549 45.7574 109.328 45.4764C109.106 45.1953 108.808 44.9852 108.47 44.8716C108.131 44.7579 107.767 44.7458 107.422 44.8365C107.077 44.9273 106.766 45.117 106.526 45.3826C106.47 45.4433 106.419 45.5089 106.374 45.5786C106.124 45.9384 106.011 46.3768 106.057 46.8133L106.418 56.5423L106.599 61.4302L106.831 67.6652C106.764 67.7568 106.704 67.853 106.65 67.953C106.506 68.2282 106.418 68.53 106.394 68.8401C106.369 69.1503 106.407 69.4623 106.506 69.7571C106.609 70.0663 106.776 70.3501 106.997 70.5896C107.217 70.8292 107.485 71.0191 107.784 71.147C108.082 71.2748 108.404 71.3376 108.729 71.3313C109.054 71.325 109.373 71.2496 109.667 71.1102C110.007 70.9483 110.303 70.7045 110.528 70.4004C110.753 70.0963 110.9 69.7413 110.956 69.3667C111.011 68.992 110.975 68.6094 110.848 68.2525C110.722 67.8955 110.51 67.5754 110.231 67.3203H110.231Z" fill="#FFB8B8"/>
<path d="M124.166 50.6362L122.73 46.7279L120.406 40.397C120.239 39.9364 119.97 39.5196 119.62 39.1776C119.27 38.8356 118.848 38.5771 118.385 38.4214C118.349 38.4092 118.31 38.3969 118.273 38.3867C117.825 38.25 117.352 38.2124 116.888 38.2765C116.424 38.3406 115.979 38.5049 115.584 38.7582L107.757 43.7461C107.04 44.2019 106.528 44.9197 106.328 45.748C106.129 46.5763 106.257 47.4502 106.687 48.1851C107.665 49.8855 108.732 51.5334 109.882 53.122C110.794 54.369 112.492 54.5017 112.787 56.5426H118.558L124.4 51.273L124.166 50.6362Z" fill="#CCCCCC"/>
<path d="M34.5507 98.4016C37.1503 98.4016 39.2576 96.2843 39.2576 93.6725C39.2576 91.0607 37.1503 88.9434 34.5507 88.9434C31.9511 88.9434 29.8438 91.0607 29.8438 93.6725C29.8438 96.2843 31.9511 98.4016 34.5507 98.4016Z" fill="#A0616A"/>
<path d="M46.1052 90.4175C46.1516 90.4546 46.1965 90.4939 46.2401 90.5354C46.4563 90.7401 46.6271 90.9883 46.7411 91.2639C46.8552 91.5395 46.9101 91.8362 46.9021 92.1345C46.8941 92.4329 46.8234 92.7262 46.6947 92.9952C46.566 93.2642 46.3822 93.5028 46.1554 93.6955C46.1025 93.7401 46.0473 93.7819 45.99 93.8207L46.3086 104.626C46.3177 104.98 46.213 105.327 46.0101 105.616C45.8072 105.906 45.5169 106.121 45.1822 106.232L45.1628 106.236L36.4304 107.17C36.193 107.196 35.9529 107.174 35.7241 107.105C35.4952 107.037 35.2821 106.924 35.0971 106.772C34.912 106.62 34.7587 106.434 34.6459 106.222C34.5332 106.011 34.4632 105.779 34.4401 105.54C34.417 105.301 34.4412 105.06 34.5113 104.831C34.5814 104.602 34.6961 104.389 34.8486 104.204C35.0011 104.02 35.1885 103.867 35.3999 103.756C35.6114 103.645 35.8427 103.576 36.0806 103.555L42.3054 103.004L43.382 93.6467C43.3115 93.5841 43.2456 93.5166 43.1846 93.4447C42.8471 93.0433 42.67 92.5303 42.6879 92.0051C42.7057 91.48 42.9172 90.9803 43.2812 90.603C43.6452 90.2257 44.1358 89.9978 44.6576 89.9635C45.1795 89.9292 45.6954 90.091 46.1052 90.4175H46.1052Z" fill="#A0616A"/>
<path d="M42.3012 159.49H44.6508L45.7685 150.385H42.3008L42.3012 159.49Z" fill="#A0616A"/>
<path d="M41.7031 158.719L46.3301 158.719H46.3303C46.7175 158.719 47.101 158.796 47.4587 158.945C47.8165 159.094 48.1415 159.312 48.4153 159.587C48.6892 159.862 48.9064 160.189 49.0545 160.548C49.2027 160.907 49.279 161.293 49.279 161.682V161.778L41.7033 161.778L41.7031 158.719Z" fill="#2F2E41"/>
<path d="M18.9492 156.226L20.968 157.434L26.5649 150.185L23.5853 148.403L18.9492 156.226Z" fill="#A0616A"/>
<path d="M18.8271 155.256L22.8027 157.634L22.8029 157.634C23.1356 157.833 23.426 158.096 23.6576 158.408C23.8892 158.72 24.0574 159.074 24.1525 159.452C24.2477 159.829 24.268 160.221 24.2123 160.606C24.1566 160.991 24.026 161.361 23.8279 161.695L23.7788 161.778L17.2695 157.884L18.8271 155.256Z" fill="#2F2E41"/>
<path d="M45.206 156.274H42.5751C42.3621 156.274 42.1565 156.195 41.9981 156.052C41.8397 155.909 41.7397 155.712 41.7176 155.499L39.0652 130.45C39.0585 130.387 39.0314 130.328 38.9879 130.282C38.9445 130.236 38.8872 130.205 38.8249 130.195C38.7626 130.185 38.6987 130.196 38.6431 130.226C38.5875 130.256 38.5433 130.304 38.5173 130.361L33.7325 141.006L25.2611 154.885C25.1514 155.063 24.9817 155.195 24.7829 155.258C24.5841 155.32 24.3696 155.309 24.1786 155.225L20.7943 153.729C20.6824 153.68 20.5823 153.607 20.5005 153.515C20.4188 153.424 20.3573 153.316 20.3201 153.199C20.2829 153.082 20.271 152.959 20.285 152.837C20.299 152.715 20.3386 152.597 20.4013 152.491L28.1889 139.39L30.5772 128.352C29.8261 123.565 33.0463 116.448 33.079 116.377L33.0949 116.342L41.9653 112.859L42.0097 112.914C45.5079 124.447 47.6396 136.86 46.0656 155.48C46.0462 155.696 45.9474 155.897 45.7885 156.044C45.6296 156.191 45.4219 156.273 45.206 156.274Z" fill="#2F2E41"/>
<path d="M32.7386 117.509L32.6973 117.421C32.6776 117.38 30.7052 113.2 29.1847 108.733C28.8925 107.869 28.7821 106.954 28.8603 106.045C28.9386 105.136 29.2039 104.253 29.6395 103.452C30.0807 102.644 30.6843 101.936 31.412 101.373C32.1398 100.811 32.9758 100.407 33.8672 100.186C35.4147 99.8135 37.0439 100.012 38.458 100.745C39.8722 101.478 40.9771 102.697 41.5716 104.18C42.7777 107.21 42.3933 110.445 42.0316 112.988L42.0244 113.039L41.9782 113.061L32.7386 117.509Z" fill="#3F3D56"/>
<path d="M40.2573 91.0013H32.7832V87.7281C34.4237 87.0733 36.029 86.5164 36.9993 87.7281C37.8634 87.7281 38.6921 88.0729 39.303 88.6868C39.914 89.3006 40.2573 90.1332 40.2573 91.0013V91.0013Z" fill="#2F2E41"/>
<path d="M32.3692 87.1504C27.901 87.1504 26.6504 92.7774 26.6504 95.9519C26.6504 97.7222 27.4473 98.3554 28.6995 98.5697L29.1417 96.2L30.1775 98.6717C30.5293 98.6734 30.8988 98.6666 31.2819 98.6594L31.6331 97.9329L32.4162 98.6464C35.5528 98.6511 38.0878 99.1105 38.0878 95.9519C38.0878 92.7774 36.991 87.1504 32.3692 87.1504Z" fill="#2F2E41"/>
<path d="M53.2047 162H14.2031C14.1493 162 14.0976 161.978 14.0595 161.94C14.0214 161.902 14 161.85 14 161.796C14 161.742 14.0214 161.69 14.0595 161.652C14.0976 161.613 14.1493 161.592 14.2031 161.592H53.2047C53.2586 161.592 53.3103 161.613 53.3484 161.652C53.3865 161.69 53.4079 161.742 53.4079 161.796C53.4079 161.85 53.3865 161.902 53.3484 161.94C53.3103 161.978 53.2586 162 53.2047 162Z" fill="#CCCCCC"/>
<path d="M53.9379 94.8543H45.2032C44.6916 94.8537 44.2011 94.6492 43.8393 94.2857C43.4775 93.9223 43.274 93.4294 43.2734 92.9154V84.1395C43.274 83.6255 43.4775 83.1327 43.8393 82.7692C44.2011 82.4057 44.6916 82.2013 45.2032 82.2007H53.9379C54.4496 82.2013 54.9401 82.4057 55.3018 82.7692C55.6636 83.1327 55.8671 83.6255 55.8677 84.1395V92.9154C55.8671 93.4294 55.6636 93.9223 55.3018 94.2857C54.9401 94.6492 54.4496 94.8537 53.9379 94.8543Z" fill="white"/>
<path d="M53.9379 94.8543H45.2032C44.6916 94.8537 44.2011 94.6492 43.8393 94.2857C43.4775 93.9223 43.274 93.4294 43.2734 92.9154V84.1395C43.274 83.6255 43.4775 83.1327 43.8393 82.7692C44.2011 82.4057 44.6916 82.2013 45.2032 82.2007H53.9379C54.4496 82.2013 54.9401 82.4057 55.3018 82.7692C55.6636 83.1327 55.8671 83.6255 55.8677 84.1395V92.9154C55.8671 93.4294 55.6636 93.9223 55.3018 94.2857C54.9401 94.6492 54.4496 94.8537 53.9379 94.8543ZM45.2032 82.6089C44.7993 82.6093 44.412 82.7707 44.1264 83.0577C43.8408 83.3446 43.6802 83.7337 43.6797 84.1395V92.9154C43.6802 93.3212 43.8408 93.7103 44.1264 93.9973C44.412 94.2842 44.7993 94.4456 45.2032 94.4461H53.9379C54.3419 94.4456 54.7291 94.2842 55.0147 93.9973C55.3003 93.7103 55.461 93.3212 55.4614 92.9154V84.1395C55.461 83.7337 55.3003 83.3446 55.0147 83.0577C54.7291 82.7707 54.3419 82.6093 53.9379 82.6089H45.2032Z" fill="#3F3D56"/>
<path d="M52.4143 91.2829H46.7266C46.565 91.2827 46.4101 91.2182 46.2959 91.1034C46.1816 90.9886 46.1174 90.833 46.1172 90.6706V86.3847C46.1174 86.2224 46.1816 86.0668 46.2959 85.952C46.4101 85.8372 46.565 85.7726 46.7266 85.7725H48.3278C48.4319 85.7721 48.5344 85.7987 48.6253 85.8497C48.7162 85.9007 48.7925 85.9745 48.8468 86.0638L49.2933 86.7929H52.4143C52.5759 86.7931 52.7308 86.8577 52.845 86.9724C52.9593 87.0872 53.0235 87.2429 53.0237 87.4052V90.6706C53.0235 90.833 52.9593 90.9886 52.845 91.1034C52.7308 91.2182 52.5759 91.2827 52.4143 91.2829Z" fill="#6C63FF"/>
<path d="M52.2301 93.4479C52.2586 93.5001 52.2848 93.5539 52.3089 93.6091C52.4291 93.8821 52.4906 94.1774 52.4893 94.4759C52.488 94.7743 52.424 95.0692 52.3014 95.341C52.1788 95.6129 52.0004 95.8556 51.7779 96.0534C51.5554 96.2512 51.2938 96.3994 51.0103 96.4886C50.9444 96.509 50.8774 96.526 50.8096 96.5395L46.9299 106.623C46.8016 106.952 46.571 107.231 46.2723 107.419C45.9736 107.606 45.6227 107.692 45.2717 107.663L45.2522 107.659L36.8431 105.116C36.6145 105.047 36.4018 104.933 36.2172 104.781C36.0327 104.628 35.88 104.441 35.768 104.229C35.6559 104.017 35.5868 103.785 35.5645 103.546C35.5423 103.308 35.5673 103.067 35.6382 102.838C35.7091 102.609 35.8245 102.396 35.9777 102.212C36.1309 102.028 36.3189 101.876 36.5307 101.766C36.7426 101.655 36.9742 101.588 37.2121 101.567C37.45 101.547 37.6896 101.575 37.9169 101.648L43.8667 103.567L48.4731 95.3624C48.4324 95.2772 48.3976 95.1893 48.3692 95.0992C48.2132 94.5977 48.2482 94.0558 48.4675 93.5788C48.6867 93.1018 49.0746 92.7237 49.5558 92.5179C50.037 92.3121 50.5771 92.2933 51.0713 92.4651C51.5655 92.637 51.9785 92.9872 52.2301 93.4479H52.2301Z" fill="#A0616A"/>
</g>
<defs>
<clipPath id="clip0_841_547">
<rect width="178" height="135" fill="white" transform="translate(14 27)"/>
</clipPath>
</defs>
</svg>
