<svg width="30" height="30" viewBox="0 0 30 30" fill="none" xmlns="http://www.w3.org/2000/svg">
<g clip-path="url(#clip0_134_176)">
<path d="M23.8869 19.942C20.9279 23.4791 17.366 26.264 13.3005 28.2346C11.7526 28.9681 9.68261 29.8384 7.37636 29.9876C7.23338 29.9938 7.09662 30 6.95364 30C5.40578 30 4.16251 29.4654 3.14925 28.3651C3.14304 28.3589 3.1306 28.3465 3.12439 28.334C2.76384 27.8989 2.35356 27.5073 1.92463 27.0908C1.63247 26.811 1.33408 26.5189 1.04813 26.2205C-0.275946 24.8404 -0.275944 23.0874 1.06057 21.7509L4.79658 18.0149C5.43064 17.356 6.18904 17.0079 6.98473 17.0079C7.78042 17.0079 8.54502 17.356 9.19774 18.0087L11.4232 20.2341C11.6283 20.116 11.8397 20.0104 12.0386 19.9109C12.2873 19.7866 12.5173 19.6685 12.7224 19.5379C14.7489 18.2511 16.589 16.5727 18.3482 14.4157C19.2371 13.2905 19.8339 12.3456 20.2504 11.3821C19.666 10.8537 19.119 10.3005 18.5906 9.75963C18.4041 9.56693 18.2114 9.37422 18.0187 9.18152C17.3473 8.51015 16.9868 7.73311 16.9868 6.94364C16.9868 6.15416 17.3411 5.37712 18.0187 4.70576L19.8712 2.85329C20.0887 2.63572 20.2939 2.42437 20.5052 2.2068C20.9155 1.78409 21.3444 1.34894 21.7672 0.957315C22.4074 0.329465 23.1596 0 23.9553 0C24.7448 0 25.5032 0.329465 26.1683 0.963531L28.4932 3.28844C29.3386 4.13386 29.8173 5.15955 29.9168 6.34687C30.0349 7.83257 29.7614 9.41152 29.0527 11.3199C27.9648 14.2727 26.3237 17.0141 23.8869 19.942ZM28.4 6.47741C28.3254 5.65064 28.0083 4.96063 27.4116 4.36386L25.0991 2.05139C24.7386 1.70327 24.3407 1.523 23.9553 1.523C23.5761 1.523 23.1907 1.70327 22.8364 2.06382C22.4199 2.44923 22.0282 2.85329 21.6055 3.28222C21.3942 3.49979 21.1766 3.71736 20.959 3.94115L19.1066 5.79362C18.7212 6.17903 18.5222 6.57066 18.5222 6.95607C18.5222 7.34148 18.7212 7.73311 19.1066 8.11853C19.2993 8.31123 19.492 8.51015 19.6847 8.70286C20.2628 9.28719 20.8036 9.84045 21.4004 10.3688C21.4128 10.3813 21.419 10.3875 21.4315 10.3999C21.9474 10.9159 21.8666 11.407 21.7423 11.7799C21.7361 11.7986 21.7299 11.811 21.7236 11.8297C21.245 12.9797 20.5798 14.0738 19.5417 15.3792C17.6768 17.6792 15.7125 19.4633 13.5492 20.8371C13.2819 21.0112 12.9959 21.1479 12.7286 21.2847C12.48 21.409 12.25 21.5271 12.0448 21.6577C12.02 21.6701 12.0013 21.6826 11.9764 21.695C11.7713 21.8007 11.5724 21.8504 11.3735 21.8504C10.8761 21.8504 10.5529 21.5334 10.4472 21.4277L8.12231 19.1028C7.76177 18.7422 7.37014 18.5495 6.98473 18.5495C6.51229 18.5495 6.12687 18.8417 5.88444 19.1028L2.13599 22.845C1.39003 23.591 1.39625 24.3991 2.15464 25.1886C2.41573 25.4683 2.68924 25.7356 2.98141 26.0153C3.41655 26.438 3.87035 26.8732 4.28062 27.3643C4.9955 28.1351 5.84714 28.4956 6.94743 28.4956C7.05311 28.4956 7.165 28.4894 7.27068 28.4832C9.30963 28.3527 11.2056 27.557 12.6292 26.8794C16.4957 25.0083 19.8898 22.3539 22.7058 18.9847C25.0245 16.1935 26.5848 13.5951 27.6167 10.8102C28.257 9.1007 28.4994 7.7269 28.4 6.47741Z" fill="#00549A"/>
</g>
<defs>
<clipPath id="clip0_134_176">
<rect width="30" height="30" fill="white" transform="matrix(-1 0 0 1 30 0)"/>
</clipPath>
</defs>
</svg>
