<svg width="152" height="152" viewBox="0 0 152 152" fill="none" xmlns="http://www.w3.org/2000/svg">
<circle cx="76" cy="76" r="76" fill="#FFFDFD"/>
<path d="M100.422 125.875H51.5781C39.1969 125.875 29.125 115.803 29.125 103.425V54.575C29.125 42.1969 39.1969 32.125 51.5781 32.125H100.425C112.803 32.125 122.875 42.1969 122.875 54.575V103.425C122.875 115.803 112.803 125.875 100.422 125.875ZM51.5781 38.375C42.6438 38.375 35.375 45.6438 35.375 54.575V103.425C35.375 112.356 42.6438 119.625 51.5781 119.625H100.425C109.356 119.625 116.625 112.356 116.625 103.425V54.575C116.625 45.6438 109.356 38.375 100.422 38.375H51.5781Z" fill="#00549A"/>
<path d="M74.4375 63.375C72.7094 63.375 71.3125 64.775 71.3125 66.5V79C71.3125 84.1688 67.8094 88.375 63.5 88.375C59.1906 88.375 55.6875 84.1688 55.6875 79V66.5C55.6875 64.7844 54.2781 63.375 52.5625 63.375C50.8469 63.375 49.4375 64.7844 49.4375 66.5V79C49.4375 87.6156 55.7469 94.625 63.5 94.625C71.2531 94.625 77.5625 87.6156 77.5625 79V66.5C77.5625 64.775 76.1656 63.375 74.4375 63.375Z" fill="#00549A"/>
<path d="M95.3094 78.9998L102.088 68.1561C103.003 66.6936 102.556 64.7654 101.097 63.8498C99.6282 62.9342 97.7032 63.3842 96.7907 64.8436L91.625 73.1061L86.4625 64.8467C85.55 63.3811 83.625 62.9342 82.1563 63.8529C80.6938 64.7686 80.25 66.6967 81.1657 68.1592L87.9407 78.9998L81.1625 89.8436C80.2532 91.2967 80.7 93.2436 82.1532 94.1498C83.6063 95.0592 85.55 94.6092 86.4594 93.1561L91.625 84.8936L96.7875 93.1529C97.6969 94.6061 99.6407 95.0561 101.094 94.1467C102.547 93.2373 102.994 91.2936 102.084 89.8404L95.3094 78.9998Z" fill="#00549A"/>
</svg>
