<svg width="102" height="102" viewBox="0 0 102 102" fill="none" xmlns="http://www.w3.org/2000/svg">
<circle cx="51" cy="51" r="51" fill="#00549A"/>
<path d="M22 25C20.355 25 19 26.355 19 28V68C19 69.645 20.355 71 22 71H44V74H37.7012L31.7637 77.8945L31.7207 77.9316C31.2647 78.3117 31 78.8755 31 79.4688V81H73V79.4688C73 78.8755 72.734 78.3105 72.2793 77.9316L72.2363 77.8945L66.2988 74H60V71H82C83.645 71 85 69.645 85 68V28C85 26.355 83.645 25 82 25H22ZM22 27H82C82.565 27 83 27.435 83 28V68C83 68.565 82.565 69 82 69H60H44H22C21.435 69 21 68.565 21 68V28C21 27.435 21.435 27 22 27ZM26 31C25.7348 31 25.4804 31.1054 25.2929 31.2929C25.1054 31.4804 25 31.7348 25 32C25 32.2652 25.1054 32.5196 25.2929 32.7071C25.4804 32.8946 25.7348 33 26 33C26.2652 33 26.5196 32.8946 26.7071 32.7071C26.8946 32.5196 27 32.2652 27 32C27 31.7348 26.8946 31.4804 26.7071 31.2929C26.5196 31.1054 26.2652 31 26 31ZM30 31C29.7348 31 29.4804 31.1054 29.2929 31.2929C29.1054 31.4804 29 31.7348 29 32C29 32.2652 29.1054 32.5196 29.2929 32.7071C29.4804 32.8946 29.7348 33 30 33C30.2652 33 30.5196 32.8946 30.7071 32.7071C30.8946 32.5196 31 32.2652 31 32C31 31.7348 30.8946 31.4804 30.7071 31.2929C30.5196 31.1054 30.2652 31 30 31ZM34 31C33.7348 31 33.4804 31.1054 33.2929 31.2929C33.1054 31.4804 33 31.7348 33 32C33 32.2652 33.1054 32.5196 33.2929 32.7071C33.4804 32.8946 33.7348 33 34 33C34.2652 33 34.5196 32.8946 34.7071 32.7071C34.8946 32.5196 35 32.2652 35 32C35 31.7348 34.8946 31.4804 34.7071 31.2929C34.5196 31.1054 34.2652 31 34 31ZM38 31C37.7348 31 37.4804 31.1054 37.2929 31.2929C37.1054 31.4804 37 31.7348 37 32C37 32.2652 37.1054 32.5196 37.2929 32.7071C37.4804 32.8946 37.7348 33 38 33C38.2652 33 38.5196 32.8946 38.7071 32.7071C38.8946 32.5196 39 32.2652 39 32C39 31.7348 38.8946 31.4804 38.7071 31.2929C38.5196 31.1054 38.2652 31 38 31ZM42 31C41.7348 31 41.4804 31.1054 41.2929 31.2929C41.1054 31.4804 41 31.7348 41 32C41 32.2652 41.1054 32.5196 41.2929 32.7071C41.4804 32.8946 41.7348 33 42 33C42.2652 33 42.5196 32.8946 42.7071 32.7071C42.8946 32.5196 43 32.2652 43 32C43 31.7348 42.8946 31.4804 42.7071 31.2929C42.5196 31.1054 42.2652 31 42 31ZM46 31C45.7348 31 45.4804 31.1054 45.2929 31.2929C45.1054 31.4804 45 31.7348 45 32C45 32.2652 45.1054 32.5196 45.2929 32.7071C45.4804 32.8946 45.7348 33 46 33C46.2652 33 46.5196 32.8946 46.7071 32.7071C46.8946 32.5196 47 32.2652 47 32C47 31.7348 46.8946 31.4804 46.7071 31.2929C46.5196 31.1054 46.2652 31 46 31ZM50 31C49.7348 31 49.4804 31.1054 49.2929 31.2929C49.1054 31.4804 49 31.7348 49 32C49 32.2652 49.1054 32.5196 49.2929 32.7071C49.4804 32.8946 49.7348 33 50 33C50.2652 33 50.5196 32.8946 50.7071 32.7071C50.8946 32.5196 51 32.2652 51 32C51 31.7348 50.8946 31.4804 50.7071 31.2929C50.5196 31.1054 50.2652 31 50 31ZM54 31C53.7348 31 53.4804 31.1054 53.2929 31.2929C53.1054 31.4804 53 31.7348 53 32C53 32.2652 53.1054 32.5196 53.2929 32.7071C53.4804 32.8946 53.7348 33 54 33C54.2652 33 54.5196 32.8946 54.7071 32.7071C54.8946 32.5196 55 32.2652 55 32C55 31.7348 54.8946 31.4804 54.7071 31.2929C54.5196 31.1054 54.2652 31 54 31ZM58 31C57.7348 31 57.4804 31.1054 57.2929 31.2929C57.1054 31.4804 57 31.7348 57 32C57 32.2652 57.1054 32.5196 57.2929 32.7071C57.4804 32.8946 57.7348 33 58 33C58.2652 33 58.5196 32.8946 58.7071 32.7071C58.8946 32.5196 59 32.2652 59 32C59 31.7348 58.8946 31.4804 58.7071 31.2929C58.5196 31.1054 58.2652 31 58 31ZM62 31C61.7348 31 61.4804 31.1054 61.2929 31.2929C61.1054 31.4804 61 31.7348 61 32C61 32.2652 61.1054 32.5196 61.2929 32.7071C61.4804 32.8946 61.7348 33 62 33C62.2652 33 62.5196 32.8946 62.7071 32.7071C62.8946 32.5196 63 32.2652 63 32C63 31.7348 62.8946 31.4804 62.7071 31.2929C62.5196 31.1054 62.2652 31 62 31ZM66 31C65.7348 31 65.4804 31.1054 65.2929 31.2929C65.1054 31.4804 65 31.7348 65 32C65 32.2652 65.1054 32.5196 65.2929 32.7071C65.4804 32.8946 65.7348 33 66 33C66.2652 33 66.5196 32.8946 66.7071 32.7071C66.8946 32.5196 67 32.2652 67 32C67 31.7348 66.8946 31.4804 66.7071 31.2929C66.5196 31.1054 66.2652 31 66 31ZM70 31C69.7348 31 69.4804 31.1054 69.2929 31.2929C69.1054 31.4804 69 31.7348 69 32C69 32.2652 69.1054 32.5196 69.2929 32.7071C69.4804 32.8946 69.7348 33 70 33C70.2652 33 70.5196 32.8946 70.7071 32.7071C70.8946 32.5196 71 32.2652 71 32C71 31.7348 70.8946 31.4804 70.7071 31.2929C70.5196 31.1054 70.2652 31 70 31ZM74 31C73.7348 31 73.4804 31.1054 73.2929 31.2929C73.1054 31.4804 73 31.7348 73 32C73 32.2652 73.1054 32.5196 73.2929 32.7071C73.4804 32.8946 73.7348 33 74 33C74.2652 33 74.5196 32.8946 74.7071 32.7071C74.8946 32.5196 75 32.2652 75 32C75 31.7348 74.8946 31.4804 74.7071 31.2929C74.5196 31.1054 74.2652 31 74 31ZM78 31C77.7348 31 77.4804 31.1054 77.2929 31.2929C77.1054 31.4804 77 31.7348 77 32C77 32.2652 77.1054 32.5196 77.2929 32.7071C77.4804 32.8946 77.7348 33 78 33C78.2652 33 78.5196 32.8946 78.7071 32.7071C78.8946 32.5196 79 32.2652 79 32C79 31.7348 78.8946 31.4804 78.7071 31.2929C78.5196 31.1054 78.2652 31 78 31ZM26 35C25.7348 35 25.4804 35.1054 25.2929 35.2929C25.1054 35.4804 25 35.7348 25 36C25 36.2652 25.1054 36.5196 25.2929 36.7071C25.4804 36.8946 25.7348 37 26 37C26.2652 37 26.5196 36.8946 26.7071 36.7071C26.8946 36.5196 27 36.2652 27 36C27 35.7348 26.8946 35.4804 26.7071 35.2929C26.5196 35.1054 26.2652 35 26 35ZM78 35C77.7348 35 77.4804 35.1054 77.2929 35.2929C77.1054 35.4804 77 35.7348 77 36C77 36.2652 77.1054 36.5196 77.2929 36.7071C77.4804 36.8946 77.7348 37 78 37C78.2652 37 78.5196 36.8946 78.7071 36.7071C78.8946 36.5196 79 36.2652 79 36C79 35.7348 78.8946 35.4804 78.7071 35.2929C78.5196 35.1054 78.2652 35 78 35ZM45.293 37.293L34.5859 48L45.293 58.707L46.707 57.293L37.4141 48L46.707 38.707L45.293 37.293ZM58.707 37.293L57.293 38.707L66.5859 48L57.293 57.293L58.707 58.707L69.4141 48L58.707 37.293ZM26 39C25.7348 39 25.4804 39.1054 25.2929 39.2929C25.1054 39.4804 25 39.7348 25 40C25 40.2652 25.1054 40.5196 25.2929 40.7071C25.4804 40.8946 25.7348 41 26 41C26.2652 41 26.5196 40.8946 26.7071 40.7071C26.8946 40.5196 27 40.2652 27 40C27 39.7348 26.8946 39.4804 26.7071 39.2929C26.5196 39.1054 26.2652 39 26 39ZM78 39C77.7348 39 77.4804 39.1054 77.2929 39.2929C77.1054 39.4804 77 39.7348 77 40C77 40.2652 77.1054 40.5196 77.2929 40.7071C77.4804 40.8946 77.7348 41 78 41C78.2652 41 78.5196 40.8946 78.7071 40.7071C78.8946 40.5196 79 40.2652 79 40C79 39.7348 78.8946 39.4804 78.7071 39.2929C78.5196 39.1054 78.2652 39 78 39ZM26 43C25.7348 43 25.4804 43.1054 25.2929 43.2929C25.1054 43.4804 25 43.7348 25 44C25 44.2652 25.1054 44.5196 25.2929 44.7071C25.4804 44.8946 25.7348 45 26 45C26.2652 45 26.5196 44.8946 26.7071 44.7071C26.8946 44.5196 27 44.2652 27 44C27 43.7348 26.8946 43.4804 26.7071 43.2929C26.5196 43.1054 26.2652 43 26 43ZM78 43C77.7348 43 77.4804 43.1054 77.2929 43.2929C77.1054 43.4804 77 43.7348 77 44C77 44.2652 77.1054 44.5196 77.2929 44.7071C77.4804 44.8946 77.7348 45 78 45C78.2652 45 78.5196 44.8946 78.7071 44.7071C78.8946 44.5196 79 44.2652 79 44C79 43.7348 78.8946 43.4804 78.7071 43.2929C78.5196 43.1054 78.2652 43 78 43ZM26 47C25.7348 47 25.4804 47.1054 25.2929 47.2929C25.1054 47.4804 25 47.7348 25 48C25 48.2652 25.1054 48.5196 25.2929 48.7071C25.4804 48.8946 25.7348 49 26 49C26.2652 49 26.5196 48.8946 26.7071 48.7071C26.8946 48.5196 27 48.2652 27 48C27 47.7348 26.8946 47.4804 26.7071 47.2929C26.5196 47.1054 26.2652 47 26 47ZM78 47C77.7348 47 77.4804 47.1054 77.2929 47.2929C77.1054 47.4804 77 47.7348 77 48C77 48.2652 77.1054 48.5196 77.2929 48.7071C77.4804 48.8946 77.7348 49 78 49C78.2652 49 78.5196 48.8946 78.7071 48.7071C78.8946 48.5196 79 48.2652 79 48C79 47.7348 78.8946 47.4804 78.7071 47.2929C78.5196 47.1054 78.2652 47 78 47ZM26 51C25.7348 51 25.4804 51.1054 25.2929 51.2929C25.1054 51.4804 25 51.7348 25 52C25 52.2652 25.1054 52.5196 25.2929 52.7071C25.4804 52.8946 25.7348 53 26 53C26.2652 53 26.5196 52.8946 26.7071 52.7071C26.8946 52.5196 27 52.2652 27 52C27 51.7348 26.8946 51.4804 26.7071 51.2929C26.5196 51.1054 26.2652 51 26 51ZM78 51C77.7348 51 77.4804 51.1054 77.2929 51.2929C77.1054 51.4804 77 51.7348 77 52C77 52.2652 77.1054 52.5196 77.2929 52.7071C77.4804 52.8946 77.7348 53 78 53C78.2652 53 78.5196 52.8946 78.7071 52.7071C78.8946 52.5196 79 52.2652 79 52C79 51.7348 78.8946 51.4804 78.7071 51.2929C78.5196 51.1054 78.2652 51 78 51ZM26 55C25.7348 55 25.4804 55.1054 25.2929 55.2929C25.1054 55.4804 25 55.7348 25 56C25 56.2652 25.1054 56.5196 25.2929 56.7071C25.4804 56.8946 25.7348 57 26 57C26.2652 57 26.5196 56.8946 26.7071 56.7071C26.8946 56.5196 27 56.2652 27 56C27 55.7348 26.8946 55.4804 26.7071 55.2929C26.5196 55.1054 26.2652 55 26 55ZM78 55C77.7348 55 77.4804 55.1054 77.2929 55.2929C77.1054 55.4804 77 55.7348 77 56C77 56.2652 77.1054 56.5196 77.2929 56.7071C77.4804 56.8946 77.7348 57 78 57C78.2652 57 78.5196 56.8946 78.7071 56.7071C78.8946 56.5196 79 56.2652 79 56C79 55.7348 78.8946 55.4804 78.7071 55.2929C78.5196 55.1054 78.2652 55 78 55ZM26 59C25.7348 59 25.4804 59.1054 25.2929 59.2929C25.1054 59.4804 25 59.7348 25 60C25 60.2652 25.1054 60.5196 25.2929 60.7071C25.4804 60.8946 25.7348 61 26 61C26.2652 61 26.5196 60.8946 26.7071 60.7071C26.8946 60.5196 27 60.2652 27 60C27 59.7348 26.8946 59.4804 26.7071 59.2929C26.5196 59.1054 26.2652 59 26 59ZM78 59C77.7348 59 77.4804 59.1054 77.2929 59.2929C77.1054 59.4804 77 59.7348 77 60C77 60.2652 77.1054 60.5196 77.2929 60.7071C77.4804 60.8946 77.7348 61 78 61C78.2652 61 78.5196 60.8946 78.7071 60.7071C78.8946 60.5196 79 60.2652 79 60C79 59.7348 78.8946 59.4804 78.7071 59.2929C78.5196 59.1054 78.2652 59 78 59ZM26 63C25.7348 63 25.4804 63.1054 25.2929 63.2929C25.1054 63.4804 25 63.7348 25 64C25 64.2652 25.1054 64.5196 25.2929 64.7071C25.4804 64.8946 25.7348 65 26 65C26.2652 65 26.5196 64.8946 26.7071 64.7071C26.8946 64.5196 27 64.2652 27 64C27 63.7348 26.8946 63.4804 26.7071 63.2929C26.5196 63.1054 26.2652 63 26 63ZM30 63C29.7348 63 29.4804 63.1054 29.2929 63.2929C29.1054 63.4804 29 63.7348 29 64C29 64.2652 29.1054 64.5196 29.2929 64.7071C29.4804 64.8946 29.7348 65 30 65C30.2652 65 30.5196 64.8946 30.7071 64.7071C30.8946 64.5196 31 64.2652 31 64C31 63.7348 30.8946 63.4804 30.7071 63.2929C30.5196 63.1054 30.2652 63 30 63ZM34 63C33.7348 63 33.4804 63.1054 33.2929 63.2929C33.1054 63.4804 33 63.7348 33 64C33 64.2652 33.1054 64.5196 33.2929 64.7071C33.4804 64.8946 33.7348 65 34 65C34.2652 65 34.5196 64.8946 34.7071 64.7071C34.8946 64.5196 35 64.2652 35 64C35 63.7348 34.8946 63.4804 34.7071 63.2929C34.5196 63.1054 34.2652 63 34 63ZM38 63C37.7348 63 37.4804 63.1054 37.2929 63.2929C37.1054 63.4804 37 63.7348 37 64C37 64.2652 37.1054 64.5196 37.2929 64.7071C37.4804 64.8946 37.7348 65 38 65C38.2652 65 38.5196 64.8946 38.7071 64.7071C38.8946 64.5196 39 64.2652 39 64C39 63.7348 38.8946 63.4804 38.7071 63.2929C38.5196 63.1054 38.2652 63 38 63ZM42 63C41.7348 63 41.4804 63.1054 41.2929 63.2929C41.1054 63.4804 41 63.7348 41 64C41 64.2652 41.1054 64.5196 41.2929 64.7071C41.4804 64.8946 41.7348 65 42 65C42.2652 65 42.5196 64.8946 42.7071 64.7071C42.8946 64.5196 43 64.2652 43 64C43 63.7348 42.8946 63.4804 42.7071 63.2929C42.5196 63.1054 42.2652 63 42 63ZM46 63C45.7348 63 45.4804 63.1054 45.2929 63.2929C45.1054 63.4804 45 63.7348 45 64C45 64.2652 45.1054 64.5196 45.2929 64.7071C45.4804 64.8946 45.7348 65 46 65C46.2652 65 46.5196 64.8946 46.7071 64.7071C46.8946 64.5196 47 64.2652 47 64C47 63.7348 46.8946 63.4804 46.7071 63.2929C46.5196 63.1054 46.2652 63 46 63ZM50 63C49.7348 63 49.4804 63.1054 49.2929 63.2929C49.1054 63.4804 49 63.7348 49 64C49 64.2652 49.1054 64.5196 49.2929 64.7071C49.4804 64.8946 49.7348 65 50 65C50.2652 65 50.5196 64.8946 50.7071 64.7071C50.8946 64.5196 51 64.2652 51 64C51 63.7348 50.8946 63.4804 50.7071 63.2929C50.5196 63.1054 50.2652 63 50 63ZM54 63C53.7348 63 53.4804 63.1054 53.2929 63.2929C53.1054 63.4804 53 63.7348 53 64C53 64.2652 53.1054 64.5196 53.2929 64.7071C53.4804 64.8946 53.7348 65 54 65C54.2652 65 54.5196 64.8946 54.7071 64.7071C54.8946 64.5196 55 64.2652 55 64C55 63.7348 54.8946 63.4804 54.7071 63.2929C54.5196 63.1054 54.2652 63 54 63ZM58 63C57.7348 63 57.4804 63.1054 57.2929 63.2929C57.1054 63.4804 57 63.7348 57 64C57 64.2652 57.1054 64.5196 57.2929 64.7071C57.4804 64.8946 57.7348 65 58 65C58.2652 65 58.5196 64.8946 58.7071 64.7071C58.8946 64.5196 59 64.2652 59 64C59 63.7348 58.8946 63.4804 58.7071 63.2929C58.5196 63.1054 58.2652 63 58 63ZM62 63C61.7348 63 61.4804 63.1054 61.2929 63.2929C61.1054 63.4804 61 63.7348 61 64C61 64.2652 61.1054 64.5196 61.2929 64.7071C61.4804 64.8946 61.7348 65 62 65C62.2652 65 62.5196 64.8946 62.7071 64.7071C62.8946 64.5196 63 64.2652 63 64C63 63.7348 62.8946 63.4804 62.7071 63.2929C62.5196 63.1054 62.2652 63 62 63ZM66 63C65.7348 63 65.4804 63.1054 65.2929 63.2929C65.1054 63.4804 65 63.7348 65 64C65 64.2652 65.1054 64.5196 65.2929 64.7071C65.4804 64.8946 65.7348 65 66 65C66.2652 65 66.5196 64.8946 66.7071 64.7071C66.8946 64.5196 67 64.2652 67 64C67 63.7348 66.8946 63.4804 66.7071 63.2929C66.5196 63.1054 66.2652 63 66 63ZM70 63C69.7348 63 69.4804 63.1054 69.2929 63.2929C69.1054 63.4804 69 63.7348 69 64C69 64.2652 69.1054 64.5196 69.2929 64.7071C69.4804 64.8946 69.7348 65 70 65C70.2652 65 70.5196 64.8946 70.7071 64.7071C70.8946 64.5196 71 64.2652 71 64C71 63.7348 70.8946 63.4804 70.7071 63.2929C70.5196 63.1054 70.2652 63 70 63ZM74 63C73.7348 63 73.4804 63.1054 73.2929 63.2929C73.1054 63.4804 73 63.7348 73 64C73 64.2652 73.1054 64.5196 73.2929 64.7071C73.4804 64.8946 73.7348 65 74 65C74.2652 65 74.5196 64.8946 74.7071 64.7071C74.8946 64.5196 75 64.2652 75 64C75 63.7348 74.8946 63.4804 74.7071 63.2929C74.5196 63.1054 74.2652 63 74 63ZM78 63C77.7348 63 77.4804 63.1054 77.2929 63.2929C77.1054 63.4804 77 63.7348 77 64C77 64.2652 77.1054 64.5196 77.2929 64.7071C77.4804 64.8946 77.7348 65 78 65C78.2652 65 78.5196 64.8946 78.7071 64.7071C78.8946 64.5196 79 64.2652 79 64C79 63.7348 78.8946 63.4804 78.7071 63.2929C78.5196 63.1054 78.2652 63 78 63ZM46 71H58V74H46V71ZM38.2988 76H45H60H65.7012L70.2734 79H33.7266L38.2988 76Z" fill="white"/>
</svg>
