<svg width="284" height="308" viewBox="0 0 284 308" fill="none" xmlns="http://www.w3.org/2000/svg">
<g filter="url(#filter0_d_644_6076)">
<path fill-rule="evenodd" clip-rule="evenodd" d="M4.37402 15C4.37402 6.71573 11.0898 0 19.374 0H264.374C272.658 0 279.374 6.71573 279.374 15V21.6666H277.76C270.397 21.6666 264.427 27.6362 264.427 35C264.427 42.3638 270.397 48.3333 277.76 48.3333H279.374V80H277.76C270.397 80 264.427 85.9695 264.427 93.3333C264.427 100.697 270.397 106.667 277.76 106.667H279.374V136.667H277.76C270.397 136.667 264.427 142.636 264.427 150C264.427 157.364 270.397 163.333 277.76 163.333H279.374V193.333H277.76C270.397 193.333 264.427 199.303 264.427 206.667C264.427 214.03 270.397 220 277.76 220H279.374V250H277.76C270.397 250 264.427 255.97 264.427 263.333C264.427 270.697 270.397 276.667 277.76 276.667H279.374V285C279.374 293.284 272.658 300 264.374 300H19.374C11.0898 300 4.37402 293.284 4.37402 285V271.667H8.9754C16.3392 271.667 22.3087 265.697 22.3087 258.333C22.3087 250.97 16.3392 245 8.9754 245H4.37402V206.667H8.9754C16.3392 206.667 22.3087 200.697 22.3087 193.333C22.3087 185.97 16.3392 180 8.9754 180H4.37402V155H8.9754C16.3392 155 22.3087 149.031 22.3087 141.667C22.3087 134.303 16.3392 128.333 8.9754 128.333H4.37402V101.667H8.9754C16.3392 101.667 22.3087 95.6971 22.3087 88.3333C22.3087 80.9695 16.3392 75 8.9754 75H4.37402V48.3333H8.9754C16.3392 48.3333 22.3087 42.3638 22.3087 35C22.3087 27.6362 16.3392 21.6666 8.9754 21.6666H4.37402V15Z" fill="#035092"/>
</g>
<defs>
<filter id="filter0_d_644_6076" x="0.374023" y="0" width="283" height="308" filterUnits="userSpaceOnUse" color-interpolation-filters="sRGB">
<feFlood flood-opacity="0" result="BackgroundImageFix"/>
<feColorMatrix in="SourceAlpha" type="matrix" values="0 0 0 0 0 0 0 0 0 0 0 0 0 0 0 0 0 0 127 0" result="hardAlpha"/>
<feOffset dy="4"/>
<feGaussianBlur stdDeviation="2"/>
<feComposite in2="hardAlpha" operator="out"/>
<feColorMatrix type="matrix" values="0 0 0 0 0 0 0 0 0 0 0 0 0 0 0 0 0 0 0.25 0"/>
<feBlend mode="normal" in2="BackgroundImageFix" result="effect1_dropShadow_644_6076"/>
<feBlend mode="normal" in="SourceGraphic" in2="effect1_dropShadow_644_6076" result="shape"/>
</filter>
</defs>
</svg>
